<?xml version="1.0" standalone="no"?>
<!DOCTYPE svg PUBLIC "-//W3C//DTD SVG 1.1//EN" "http://www.w3.org/Graphics/SVG/1.1/DTD/svg11.dtd" >
<svg>
    <metadata>
        Created by FontForge 20090622 at Thu Oct 20 10:20:34 2016
        By deploy user
        Copyright (c) 2014 by Daniel Hernandez &#38; Miguel Hernandez. All rights reserved.
    </metadata>
    <defs>
        <font id="iCielTexta" horiz-adv-x="501">
            <font-face
                    font-family="iCiel Texta"
                    font-weight="400"
                    font-stretch="normal"
                    units-per-em="1000"
                    panose-1="2 0 0 0 0 0 0 0 0 0"
                    ascent="750"
                    descent="-250"
                    x-height="420"
                    cap-height="600"
                    bbox="-371 -192 986 959"
                    underline-thickness="50"
                    underline-position="-50"
                    unicode-range="U+000D-U+E020"
            />
            <missing-glyph horiz-adv-x="564"
            />
            <glyph glyph-name=".notdef" horiz-adv-x="564"
            />
            <glyph glyph-name=".null" horiz-adv-x="0"
            />
            <glyph glyph-name="nonmarkingreturn" horiz-adv-x="333"
            />
            <glyph glyph-name="NULL" horiz-adv-x="0"
            />
            <glyph glyph-name="NULL" horiz-adv-x="0"
            />
            <glyph glyph-name="CR" unicode="&#xd;" horiz-adv-x="250"
            />
            <glyph glyph-name="space" unicode=" " horiz-adv-x="224"
            />
            <glyph glyph-name="exclam" unicode="!" horiz-adv-x="207"
                   d="M146 600l-18 -433h-49l-19 433h86zM70 77q14 14 34 14q19 0 35 -14q14 -16 14 -35q0 -21 -14 -35q-15 -15 -35 -15t-34 15q-14 14 -14 35q0 19 14 35z"/>
            <glyph glyph-name="quotedbl" unicode="&#x22;" horiz-adv-x="315"
                   d="M139 684l-44 -209h-43l19 209h68zM280 684l-44 -209h-43l19 209h68z"/>
            <glyph glyph-name="numbersign" unicode="#" horiz-adv-x="612"
                   d="M498 583l-35 -162h117l-10 -45h-117l-37 -171h113l-9 -45h-114l-34 -160h-47l34 160h-162l-34 -160h-48l34 160h-117l10 45h117l37 171h-113l9 45h114l35 162h47l-35 -162h161l35 162h49zM243 376l-36 -171h161l37 171h-162z"/>
            <glyph glyph-name="dollar" unicode="$" horiz-adv-x="505"
                   d="M40 57l38 53q51 -50 147 -57v227q-99 31 -140 68q-44 41 -44 104q0 68 49 110q48 42 135 50v104h59v-104q116 -7 167 -58l-38 -58q-45 42 -129 49v-207q102 -31 146 -75q40 -40 40 -107q0 -70 -47 -114q-51 -48 -139 -55v-94h-59v94q-127 7 -185 70zM374 215
q-26 25 -90 47v-209q114 13 114 102q0 37 -24 60zM225 356v189q-112 -12 -112 -93q0 -59 112 -96z"/>
            <glyph glyph-name="percent" unicode="%" horiz-adv-x="651"
                   d="M265 568q33 -42 33 -106q0 -63 -33 -105q-36 -46 -95 -46q-60 0 -96 46q-33 42 -33 105q0 64 33 106q36 45 96 45q59 0 95 -45zM103 462q0 -94 67 -94q31 0 49 27q17 26 17 67q0 94 -66 94q-67 0 -67 -94zM577 249q34 -43 34 -106q0 -62 -34 -105q-36 -46 -95 -46t-95 46
q-34 43 -34 105q0 63 34 106q36 45 95 45t95 -45zM432 211q-17 -26 -17 -68q0 -40 17 -66q20 -27 50 -27q31 0 49 27q17 26 17 66q0 95 -66 95q-32 0 -50 -27zM521 600h78l-477 -600h-76z"/>
            <glyph glyph-name="ampersand" unicode="&#x26;" horiz-adv-x="585"
                   d="M463 278l65 -17q-16 -84 -55 -148l113 -113h-102l-56 57q-68 -67 -172 -67q-96 0 -154 48q-54 44 -54 113q0 99 125 167l-15 16q-58 58 -58 133q0 61 43 103q43 43 114 43q72 0 115 -40q42 -37 42 -100q0 -100 -131 -169l143 -144q23 45 37 118zM384 102l-164 168
q-96 -54 -96 -117q0 -47 39 -75q37 -28 90 -28q79 0 131 52zM222 366l15 -16q107 56 107 117q0 40 -24 64q-25 23 -63 23t-61 -23q-25 -24 -25 -64q0 -50 51 -101z"/>
            <glyph glyph-name="quotesingle" unicode="'" horiz-adv-x="174"
                   d="M139 684l-44 -209h-43l19 209h68z"/>
            <glyph glyph-name="parenleft" unicode="(" horiz-adv-x="259"
                   d="M242 -94l-42 -43q-160 170 -160 424t160 424l42 -43q-130 -149 -130 -381t130 -381z"/>
            <glyph glyph-name="parenright" unicode=")" horiz-adv-x="259"
                   d="M17 668l42 43q160 -170 160 -424t-160 -424l-42 43q130 149 130 381t-130 381z"/>
            <glyph glyph-name="asterisk" unicode="*" horiz-adv-x="387"
                   d="M82 445l94 96l-131 21l22 62l115 -67l-19 134h62l-24 -135l119 68l22 -62l-134 -21l96 -96l-53 -37l-59 120l-59 -120z"/>
            <glyph glyph-name="plus" unicode="+" horiz-adv-x="514"
                   d="M287 515v-192h187v-58h-187v-184h-60v184h-187v58h187v192h60z"/>
            <glyph glyph-name="comma" unicode="," horiz-adv-x="202"
                   d="M26 -123l-12 40q73 16 78 74q-39 5 -39 45q0 19 14 33t33 14t33 -14t14 -33v-8q0 -129 -121 -151z"/>
            <glyph glyph-name="hyphen" unicode="-" horiz-adv-x="398"
                   d="M59 200v58h280v-58h-280z"/>
            <glyph glyph-name="period" unicode="." horiz-adv-x="200"
                   d="M67 3q-14 14 -14 33t14 33t33 14t33 -14t14 -33t-14 -33q-13 -13 -33 -13t-33 13z"/>
            <glyph glyph-name="slash" unicode="/" horiz-adv-x="567"
                   d="M97 -111l-76 -1l451 895h73z"/>
            <glyph glyph-name="zero" unicode="0" horiz-adv-x="598"
                   d="M113 78q-66 87 -66 221q0 135 66 222q71 92 186 92q117 0 186 -92q66 -87 66 -222q0 -134 -66 -221q-69 -92 -186 -92q-115 0 -186 92zM434 125q46 67 46 174q0 108 -46 175q-49 73 -135 73t-135 -73q-46 -67 -46 -175q0 -107 46 -174q50 -72 135 -72t135 72z"/>
            <glyph glyph-name="one" unicode="1" horiz-adv-x="294"
                   d="M15 535v65h207v-600h-70v535h-137z"/>
            <glyph glyph-name="two" unicode="2" horiz-adv-x="490"
                   d="M46 0v47l252 261q62 65 62 120q0 50 -35 85q-35 34 -95 34q-80 0 -153 -73l-38 55q71 84 192 84q98 0 150 -52q51 -49 51 -130q0 -80 -64 -147l-212 -219h291v-65h-401z"/>
            <glyph glyph-name="three" unicode="3" horiz-adv-x="489"
                   d="M226 294h-66v59l175 182h-283v65h378v-59l-183 -187q94 -2 143 -49q50 -48 50 -131q0 -80 -54 -133q-58 -55 -155 -55q-133 0 -192 84l42 51q49 -69 148 -69q64 0 103 36q37 34 37 86q0 120 -143 120z"/>
            <glyph glyph-name="four" unicode="4" horiz-adv-x="549"
                   d="M24 142v52l338 406h52v-393h107v-65h-107v-142h-70v142h-320zM118 210v-3h226v274l-212 -258q-10 -10 -14 -13z"/>
            <glyph glyph-name="five" unicode="5" horiz-adv-x="480"
                   d="M410 535h-267l-5 -180q40 9 84 9q106 0 163 -51q54 -48 54 -132q0 -88 -55 -140q-55 -55 -155 -55q-133 0 -191 84l42 51q50 -69 148 -69q65 0 102 34q38 35 38 95q0 55 -39 86q-41 32 -109 32q-108 0 -134 -26l-15 12l9 315h330v-65z"/>
            <glyph glyph-name="six" unicode="6" horiz-adv-x="519"
                   d="M119 298v-3q54 78 160 78q88 0 144 -55q55 -52 55 -131q0 -82 -57 -139q-58 -58 -147 -58q-100 0 -159 69q-66 80 -66 239q0 152 68 237q65 78 171 78q78 0 132 -42q28 -21 39 -42l-42 -51q-43 69 -129 69q-169 0 -169 -249zM179 274q-39 -32 -50 -89q30 -129 145 -129
q58 0 96 39q38 38 38 92q0 53 -36 86q-35 34 -94 34q-58 0 -99 -33z"/>
            <glyph glyph-name="seven" unicode="7" horiz-adv-x="434"
                   d="M28 535v65h392v-47l-263 -553h-85l259 535h-303z"/>
            <glyph glyph-name="eight" unicode="8" horiz-adv-x="514"
                   d="M103 40q-55 51 -55 127q0 102 91 148q-76 43 -76 130q0 74 52 120q54 48 143 48q90 0 142 -48q51 -47 51 -120q0 -87 -76 -130q91 -46 91 -148q0 -76 -54 -127q-58 -54 -154 -54t-155 54zM358 249q-39 33 -100 33q-64 0 -101 -33q-38 -32 -38 -82t38 -82q37 -33 101 -33
q61 0 100 33q37 31 37 82t-37 82zM349 373q31 28 31 73q0 43 -31 71q-33 30 -91 30t-93 -30q-31 -28 -31 -71q0 -45 31 -73q33 -30 93 -30q58 0 91 30z"/>
            <glyph glyph-name="nine" unicode="9" horiz-adv-x="516"
                   d="M397 305v2q-56 -77 -160 -77q-88 0 -144 55q-55 52 -55 131q0 82 57 139q58 58 147 58q100 0 159 -69q66 -79 66 -239q0 -155 -63 -239q-62 -80 -166 -80q-78 0 -132 42q-27 21 -39 42l42 51q43 -69 129 -69q169 0 159 253zM336 328q39 32 50 86q-31 133 -144 133
q-58 0 -96 -38t-38 -93q0 -53 36 -86q35 -34 94 -34q57 0 98 32z"/>
            <glyph glyph-name="colon" unicode=":" horiz-adv-x="212"
                   d="M73 3q-14 14 -14 33t14 33t33 14t33 -14t14 -33t-14 -33q-13 -13 -33 -13t-33 13zM73 347q-14 14 -14 33t14 33t33 14t33 -14t14 -33t-14 -33q-13 -13 -33 -13t-33 13z"/>
            <glyph glyph-name="semicolon" unicode=";" horiz-adv-x="234"
                   d="M46 -123l-12 40q73 16 78 74q-39 5 -39 45q0 19 14 33t33 14t33 -14t14 -33v-8q0 -129 -121 -151zM87 347q-14 14 -14 33t14 33t33 14t33 -14t14 -33t-14 -33q-13 -13 -33 -13t-33 13z"/>
            <glyph glyph-name="less" unicode="&#x3c;" horiz-adv-x="375"
                   d="M37 284v30l272 197v-72l-193 -140l193 -140v-72z"/>
            <glyph glyph-name="equal" unicode="=" horiz-adv-x="468"
                   d="M62 359v58h344v-58h-344zM62 168v58h344v-58h-344z"/>
            <glyph glyph-name="greater" unicode="&#x3e;" horiz-adv-x="375"
                   d="M338 314v-30l-272 -197v72l193 140l-193 140v72z"/>
            <glyph glyph-name="question" unicode="?" horiz-adv-x="417"
                   d="M58 502l-29 58q59 53 159 53q88 0 141 -42q52 -42 52 -114q0 -79 -80 -148q-82 -72 -85 -115l-2 -27h-49v39q0 58 72 128t72 116q0 43 -33 70t-88 27q-79 0 -130 -45zM158 77q14 14 34 14q19 0 35 -14q14 -16 14 -35q0 -21 -14 -35q-15 -15 -35 -15t-34 15q-14 14 -14 35
q0 19 14 35z"/>
            <glyph glyph-name="at" unicode="@" horiz-adv-x="1008"
                   d="M624 148h-6q-57 -91 -171 -91q-79 0 -127 51q-50 52 -50 136q0 111 70 184q66 69 160 69q114 0 147 -88l20 78h51l-30 -255q-3 -18 -3 -40q0 -83 77 -83q58 0 95 54q40 56 40 152q0 143 -98 252q-109 121 -286 121q-179 0 -299 -123q-116 -119 -116 -287q0 -171 121 -292
q120 -121 290 -121q125 0 211 57l24 -51q-85 -62 -235 -62q-203 0 -339 141q-131 137 -131 326q0 195 131 329q135 140 343 140q193 0 323 -126q128 -125 128 -302q0 -116 -58 -190q-58 -76 -148 -76q-112 0 -134 97zM581 172q47 56 47 134q0 62 -36 98q-34 34 -89 34
q-65 0 -112 -51q-49 -52 -49 -134q0 -66 34 -101q32 -36 87 -36q70 0 118 56z"/>
            <glyph glyph-name="A" unicode="A" horiz-adv-x="595"
                   d="M329 600l257 -600h-72l-57 133h-320l-56 -133h-72l257 600h63zM298 510l-133 -312h265z"/>
            <glyph glyph-name="B" unicode="B" horiz-adv-x="604"
                   d="M500 40q-55 -40 -153 -40h-265v600h253q97 0 150 -41q55 -42 55 -121q0 -99 -92 -131v-3q111 -28 111 -138q0 -82 -59 -126zM352 271h-200v-206h197q60 0 98 26q40 27 40 79q0 47 -39 74q-38 26 -96 27zM334 535h-182v-199h182q62 0 98 27q36 25 36 72q0 100 -134 100z
"/>
            <glyph glyph-name="C" unicode="C" horiz-adv-x="565"
                   d="M499 117l40 -54q-65 -77 -199 -77q-132 0 -216 91q-83 89 -83 222q0 134 83 223q84 91 216 91q134 0 199 -77l-40 -54q-60 65 -158 65q-101 0 -165 -73q-63 -70 -63 -175q0 -103 63 -174q66 -73 165 -73q98 0 158 65z"/>
            <glyph glyph-name="D" unicode="D" horiz-adv-x="630"
                   d="M503 81q-84 -81 -221 -81h-200v600h200q137 0 221 -81q84 -83 84 -219t-84 -219zM278 535h-126v-470h126q103 0 170 62q68 65 68 173t-68 173q-67 62 -170 62z"/>
            <glyph glyph-name="E" unicode="E" horiz-adv-x="544"
                   d="M452 336v-65h-300v-206h351v-65h-421v600h421v-65h-351v-199h300z"/>
            <glyph glyph-name="F" unicode="F" horiz-adv-x="531"
                   d="M452 336v-65h-300v-271h-70v600h421v-65h-351v-199h300z"/>
            <glyph glyph-name="G" unicode="G" horiz-adv-x="638"
                   d="M535 259v4h-212v65h282v-42q0 -138 -71 -218q-70 -82 -197 -82q-134 0 -216 91q-79 86 -79 222q0 135 81 223q84 91 218 91q146 0 212 -79l-41 -53q-62 66 -171 66q-103 0 -166 -73q-61 -70 -61 -175q0 -104 59 -174q61 -73 164 -73q89 0 143 57q55 56 55 150z"/>
            <glyph glyph-name="H" unicode="H" horiz-adv-x="644"
                   d="M562 600v-600h-70v263h-340v-263h-70v600h70v-272h340v272h70z"/>
            <glyph glyph-name="I" unicode="I" horiz-adv-x="234"
                   d="M152 600v-600h-70v600h70z"/>
            <glyph glyph-name="J" unicode="J" horiz-adv-x="430"
                   d="M18 35l34 53q44 -35 104 -35q128 0 128 153v394h70v-408q0 -206 -192 -206q-95 0 -144 49z"/>
            <glyph glyph-name="K" unicode="K" horiz-adv-x="568"
                   d="M152 600v-329l316 329h80v-12l-227 -236l231 -340v-12h-74l-206 301l-120 -126v-175h-70v600h70z"/>
            <glyph glyph-name="L" unicode="L" horiz-adv-x="489"
                   d="M464 0h-382v600h70v-535h312v-65z"/>
            <glyph glyph-name="M" unicode="M" horiz-adv-x="723"
                   d="M572 0v470l-200 -257h-20l-200 253v-466h-70v600h49l231 -294l231 294h48v-600h-69z"/>
            <glyph glyph-name="N" unicode="N" horiz-adv-x="665"
                   d="M583 600v-600h-50l-381 476v-476h-70v600h51l380 -474v474h70z"/>
            <glyph glyph-name="O" unicode="O" horiz-adv-x="677"
                   d="M123 77q-81 89 -81 222q0 135 81 223q82 91 215 91q135 0 217 -91q80 -88 80 -223q0 -133 -80 -222q-82 -91 -217 -91q-133 0 -215 91zM503 125q61 70 61 174q0 105 -61 175q-63 73 -165 73q-101 0 -164 -73q-60 -70 -60 -175q0 -103 60 -174q63 -72 164 -72
q102 0 165 72z"/>
            <glyph glyph-name="P" unicode="P" horiz-adv-x="577"
                   d="M82 600h236q108 0 167 -51q61 -52 61 -149q0 -100 -63 -155q-62 -53 -169 -53h-162v-192h-70v600zM316 535h-164v-278h164q159 0 159 141q0 137 -159 137z"/>
            <glyph glyph-name="Q" unicode="Q" horiz-adv-x="677"
                   d="M123 77q-81 89 -81 222q0 135 81 223q82 91 215 91q135 0 217 -91q80 -88 80 -223q0 -200 -156 -281l87 -140h-80l-72 117q-44 -9 -76 -9q-133 0 -215 91zM503 125q61 70 61 174q0 105 -61 175q-63 73 -165 73q-101 0 -164 -73q-60 -70 -60 -175q0 -103 60 -174
q63 -72 164 -72q102 0 165 72z"/>
            <glyph glyph-name="R" unicode="R" horiz-adv-x="598"
                   d="M82 600h235q108 0 168 -51q61 -52 61 -149q0 -148 -136 -188v-3l149 -192v-17h-73l-155 199h-179v-199h-70v600zM316 535h-164v-271h172q150 0 150 134q0 137 -158 137z"/>
            <glyph glyph-name="S" unicode="S" horiz-adv-x="509"
                   d="M42 57l38 53q59 -58 172 -58q148 0 148 103q0 42 -32 68q-36 26 -126 53q-109 34 -151 70q-48 40 -48 106q0 74 57 117q58 44 156 44q140 0 197 -59l-38 -58q-53 51 -159 51q-64 0 -101 -24q-40 -25 -40 -71q0 -38 34 -60q35 -24 124 -50q109 -31 157 -76q42 -41 42 -110
q0 -76 -55 -121q-58 -49 -164 -49q-145 0 -211 71z"/>
            <glyph glyph-name="T" unicode="T" horiz-adv-x="519"
                   d="M25 535v65h469v-65h-200v-535h-70v535h-199z"/>
            <glyph glyph-name="U" unicode="U" horiz-adv-x="630"
                   d="M138 60q-64 70 -64 191v349h70v-349q0 -91 43 -143q45 -56 128 -56q82 0 129 56q42 52 42 143v349h70v-349q0 -121 -63 -191q-65 -74 -178 -74q-112 0 -177 74z"/>
            <glyph glyph-name="V" unicode="V" horiz-adv-x="595"
                   d="M266 0l-257 600h72l216 -510l217 510h72l-257 -600h-63z"/>
            <glyph glyph-name="W" unicode="W" horiz-adv-x="806"
                   d="M535 0l-132 492l-132 -492h-55l-200 600h72l150 -493l131 493h68l130 -493l151 493h72l-200 -600h-55z"/>
            <glyph glyph-name="X" unicode="X" horiz-adv-x="527"
                   d="M506 600l-192 -292l200 -308h-84l-145 224l-22 41l-23 -41l-143 -224h-83l198 308l-191 292h84l140 -215l19 -37l20 37l139 215h83z"/>
            <glyph glyph-name="Y" unicode="Y" horiz-adv-x="530"
                   d="M286 332l154 268h81l-221 -370v-230h-70v230l-221 370h82l156 -268l18 -38h2z"/>
            <glyph glyph-name="Z" unicode="Z" horiz-adv-x="522"
                   d="M30 0v47l366 488h-354v65h448v-47l-359 -488h351v-65h-452z"/>
            <glyph glyph-name="bracketleft" unicode="[" horiz-adv-x="320"
                   d="M64 -130v830h240v-58h-172v-714h172v-58h-240z"/>
            <glyph glyph-name="backslash" unicode="\" horiz-adv-x="355"
                   d="M251 -128l-217 926h71l216 -926h-70z"/>
            <glyph glyph-name="bracketright" unicode="]" horiz-adv-x="320"
                   d="M16 -130v58h172v714h-172v58h240v-830h-240z"/>
            <glyph glyph-name="asciicircum" unicode="^" horiz-adv-x="437"
                   d="M325 497l-108 147l-107 -147h-61l146 196h46l147 -196h-63z"/>
            <glyph glyph-name="underscore" unicode="_" horiz-adv-x="550"
                   d="M54 -98v58h442v-58h-442z"/>
            <glyph glyph-name="grave" unicode="`" horiz-adv-x="279"
                   d="M149 497l-87 132l84 13l53 -145h-50z"/>
            <glyph glyph-name="A001" unicode="a" horiz-adv-x="461"
                   d="M398 259v-259h-48l-8 58h-5q-47 -68 -144 -68q-75 0 -120 39q-42 37 -42 95q0 62 49 99q52 38 143 38q58 0 109 -17v15q0 110 -120 110q-67 0 -119 -34l-27 57q62 38 151 38q181 0 181 -171zM332 159v30q-43 21 -103 21q-128 0 -128 -84q0 -35 25 -57q28 -24 76 -24
q57 0 94 34q36 33 36 80z"/>
            <glyph glyph-name="B009" unicode="b" horiz-adv-x="523"
                   d="M67 0v605h69v-248h3q31 73 150 73q83 0 138 -61q56 -62 56 -159q0 -98 -57 -160q-56 -60 -139 -60q-77 0 -126 42q-24 19 -33 41h-3l-8 -73h-50zM174 91q40 -43 100 -43t99 45q40 46 40 117t-40 117q-39 45 -99 45t-100 -43q-42 -45 -42 -119t42 -119z"/>
            <glyph glyph-name="C010" unicode="c" horiz-adv-x="411"
                   d="M98 50q-58 61 -58 159q0 99 58 160t150 61q94 0 128 -37l-21 -52q-40 31 -103 31q-60 0 -101 -42q-41 -46 -41 -121q0 -76 41 -120q39 -41 101 -41q63 0 103 31l19 -52q-33 -37 -126 -37t-150 60z"/>
            <glyph glyph-name="D012" unicode="d" horiz-adv-x="524"
                   d="M385 364h3v241h69v-605h-48l-10 67h-3q-39 -77 -158 -77q-86 0 -141 60q-57 62 -57 160t57 159q55 61 139 61q114 0 149 -66zM351 329q-40 43 -101 43q-60 0 -100 -45q-40 -46 -40 -117t40 -117q41 -45 100 -45q61 0 101 43q42 45 42 119t-42 119z"/>
            <glyph glyph-name="E013" unicode="e" horiz-adv-x="457"
                   d="M375 88l26 -50q-43 -49 -149 -49q-97 0 -155 61q-57 60 -57 159q0 97 54 158q54 63 143 63t138 -61q47 -58 47 -148v-17h-313q2 -76 44 -117q39 -39 103 -39q78 0 119 40zM113 260h238q-15 111 -115 111q-104 0 -123 -111z"/>
            <glyph glyph-name="F019" unicode="f" horiz-adv-x="304"
                   d="M292 364h-125v-364h-69v364h-79v56h79v52q0 65 38 103t103 38q56 0 88 -20l-21 -56q-28 15 -66 15q-73 0 -73 -79v-53h125v-56z"/>
            <glyph glyph-name="G022" unicode="g" horiz-adv-x="465"
                   d="M437 365h-66v-3q26 -17 26 -82q0 -56 -40 -96q-47 -45 -122 -45q-58 0 -101 29q-35 -14 -35 -42q0 -24 26 -35q35 -17 129 -21q191 -9 191 -124q0 -58 -55 -95q-58 -42 -156 -42q-196 0 -196 124q0 64 77 99q-76 25 -76 92q0 58 59 82q-21 34 -21 76q0 62 40 102
q44 44 118 44q31 0 60 -8h142v-55zM189 16q-84 -28 -84 -82q0 -30 31 -49q34 -21 98 -21q70 0 108 23q35 23 35 56q0 65 -123 69q-23 1 -65 4zM161 347q-26 -26 -26 -64t26 -64q29 -26 74 -26q47 0 76 26q27 26 27 64q0 39 -27 64q-29 27 -76 27q-45 0 -74 -27z"/>
            <glyph glyph-name="H023" unicode="h" horiz-adv-x="509"
                   d="M67 0v605h69v-226h3q43 51 134 51q81 0 128 -54q46 -52 46 -139v-237h-69v228q0 64 -30 103q-32 41 -89 41q-59 0 -93 -42q-28 -34 -30 -79v-251h-69z"/>
            <glyph glyph-name="I020" unicode="i" horiz-adv-x="207"
                   d="M70 525q-14 14 -14 33t14 33t33 14t33 -14t14 -33t-14 -33q-13 -13 -33 -13t-33 13zM69 0v420h69v-420h-69z"/>
            <glyph glyph-name="J028" unicode="j" horiz-adv-x="207"
                   d="M7 -156v58h8q54 0 54 55v463h69v-466q0 -110 -108 -110h-23zM70 525q-14 14 -14 33t14 33t33 14t33 -14t14 -33t-14 -33q-13 -13 -33 -13t-33 13z"/>
            <glyph glyph-name="K029" unicode="k" horiz-adv-x="440"
                   d="M337 420h91l-194 -182l194 -238h-85l-158 192l-49 -46v-146h-69v605h69v-370h2z"/>
            <glyph glyph-name="L021" unicode="l" horiz-adv-x="209"
                   d="M70 0v605h69v-605h-69z"/>
            <glyph glyph-name="M031" unicode="m" horiz-adv-x="813"
                   d="M67 0v420h49l6 -62h5q48 72 143 72q104 0 151 -80h5q48 80 153 80q81 0 127 -54q45 -53 45 -139v-237h-69v229q0 64 -29 102q-32 41 -89 41q-58 0 -91 -40q-27 -32 -29 -79v-253h-69v246q0 56 -30 90q-33 36 -90 36q-58 0 -89 -40q-27 -31 -30 -76v-256h-69z"/>
            <glyph glyph-name="N033" unicode="n" horiz-adv-x="510"
                   d="M67 0v420h49l6 -62h5q45 72 147 72q82 0 128 -54q46 -52 46 -139v-237h-69v229q0 63 -30 102q-33 41 -90 41q-59 0 -93 -42q-28 -34 -30 -78v-252h-69z"/>
            <glyph glyph-name="O035" unicode="o"
                   d="M400 49q-61 -59 -150 -59q-90 0 -149 59q-62 62 -62 159q0 99 62 161q58 61 149 61q89 0 150 -61q62 -64 62 -161t-62 -159zM350 89q43 46 43 120t-43 120q-40 45 -100 45t-100 -45q-43 -46 -43 -120t43 -120q40 -43 100 -43t100 43z"/>
            <glyph glyph-name="P043" unicode="p" horiz-adv-x="523"
                   d="M139 56h-3v-212h-69v576h49l8 -62h7q41 72 156 72q83 0 139 -60q57 -62 57 -160q0 -97 -56 -159q-55 -61 -138 -61q-119 0 -150 66zM174 91q40 -43 100 -43t99 45q40 46 40 117t-40 117q-39 45 -99 45t-100 -43q-42 -45 -42 -119t42 -119z"/>
            <glyph glyph-name="Q044" unicode="q" horiz-adv-x="524"
                   d="M457 420v-576h-69v219h-3q-31 -73 -149 -73q-84 0 -139 61q-57 61 -57 159t57 160q55 60 141 60q76 0 123 -41q24 -19 33 -41h4l9 72h50zM351 329q-40 43 -101 43q-60 0 -100 -45q-40 -46 -40 -117t40 -117q41 -45 100 -45q61 0 101 43q42 45 42 119t-42 119z"/>
            <glyph glyph-name="R045" unicode="r" horiz-adv-x="284"
                   d="M272 421v-56h-23q-46 0 -79 -33q-34 -34 -34 -84v-248h-69v420h49l6 -74h4q32 75 122 75h24z"/>
            <glyph glyph-name="S046" unicode="s" horiz-adv-x="409"
                   d="M39 42l31 48q58 -41 143 -41q96 0 96 62q0 31 -42 50q-17 7 -93 29q-135 38 -135 121q0 53 37 84q41 35 118 35q107 0 166 -34l-28 -59q-52 34 -132 34q-97 0 -97 -58q0 -29 42 -46q9 -5 93 -27q135 -38 135 -126q0 -55 -37 -86q-43 -38 -125 -38q-120 0 -172 52z"/>
            <glyph glyph-name="T048" unicode="t" horiz-adv-x="320"
                   d="M15 420h79v128h69v-128h125v-56h-125v-247q0 -68 62 -68q31 0 62 19l23 -50q-35 -28 -91 -28q-125 0 -125 128v246h-79v56z"/>
            <glyph glyph-name="U032" unicode="u" horiz-adv-x="507"
                   d="M440 420v-420h-44l-12 60h-3q-40 -70 -149 -70q-81 0 -126 54q-44 52 -44 139v237h69v-229q0 -65 28 -102q30 -41 87 -41q59 0 94 41q30 36 31 78v253h69z"/>
            <glyph glyph-name="V054" unicode="v" horiz-adv-x="456"
                   d="M444 420l-192 -420h-48l-192 420h77l130 -311q7 -15 7 -28h4q0 9 8 28l130 311h76z"/>
            <glyph glyph-name="W055" unicode="w" horiz-adv-x="652"
                   d="M172 0l-155 420h72l100 -311q6 -18 6 -28h8l4 16l3 12l89 311h58l89 -311q6 -13 6 -28h8q0 10 6 28l102 311h67l-155 -420h-60l-87 310q-5 15 -5 27h-4q0 -11 -6 -27l-87 -310h-59z"/>
            <glyph glyph-name="X056" unicode="x" horiz-adv-x="432"
                   d="M15 0l160 219l-149 201h80l109 -157h3l110 157h79l-150 -201l161 -219h-80l-120 175h-3l-122 -175h-78z"/>
            <glyph glyph-name="Y057" unicode="y" horiz-adv-x="453"
                   d="M440 420l-254 -576h-72l82 176l-183 400h76l132 -311q7 -20 7 -28h4q0 10 6 28l131 311h71z"/>
            <glyph glyph-name="Z060" unicode="z" horiz-adv-x="421"
                   d="M385 0h-349v35l256 328h-255v57h348v-32l-253 -331h253v-57z"/>
            <glyph glyph-name="braceleft" unicode="{" horiz-adv-x="272"
                   d="M15 317h25q68 0 68 98v173q0 115 118 127l11 -59q-30 -4 -43 -20t-13 -56v-170q0 -98 -61 -120v-9q61 -21 61 -117v-173q0 -67 56 -75l-11 -58q-118 9 -118 125v175q0 99 -68 99h-25v60z"/>
            <glyph glyph-name="bar" unicode="|" horiz-adv-x="193"
                   d="M129 687v-815h-65v815h65z"/>
            <glyph glyph-name="braceright" unicode="}" horiz-adv-x="272"
                   d="M232 317h25v-60h-25q-68 0 -68 -99v-175q0 -116 -118 -125l-11 58q56 8 56 75v173q0 96 61 117v9q-61 22 -61 120v170q0 40 -13 56t-43 20l11 59q118 -12 118 -127v-173q0 -98 68 -98z"/>
            <glyph glyph-name="asciitilde" unicode="~" horiz-adv-x="481"
                   d="M396 338l24 -42q-41 -38 -106 -38q-29 0 -71 16t-75 16q-46 0 -83 -25l-23 42q43 38 105 38q29 0 71 -16t75 -16q48 0 83 25z"/>
            <glyph glyph-name="nbspace" unicode="&#xa0;" horiz-adv-x="224"
            />
            <glyph glyph-name="exclamdown" unicode="&#xa1;" horiz-adv-x="196"
                   d="M122 256l18 -433h-86l19 433h49zM64 417q14 14 34 14q19 0 35 -14q14 -16 14 -36q0 -19 -14 -35q-16 -14 -35 -14q-20 0 -34 14q-14 16 -14 35q0 20 14 36z"/>
            <glyph glyph-name="cent" unicode="&#xa2;" horiz-adv-x="428"
                   d="M178 0l11 87q-65 19 -106 75q-40 56 -40 135q0 95 57 156q56 60 146 65l11 82h51l-11 -85q56 -9 87 -34l-21 -52q-28 21 -74 28l-42 -321h13q63 0 103 31l19 -52q-43 -37 -126 -37h-17l-10 -78h-51zM197 149l41 309q-53 -7 -88 -50q-37 -44 -37 -111q0 -109 84 -148z"/>
            <glyph glyph-name="sterling" unicode="&#xa3;" horiz-adv-x="495"
                   d="M440 65v-65h-372v65h1l-1 1q59 23 59 108q0 22 -21 91h-64v56h48q-13 48 -13 94q0 79 54 133q59 59 160 59q115 0 163 -62l-42 -52q-41 47 -121 47q-67 0 -104 -39q-33 -35 -33 -91q0 -41 12 -89h218v-56h-201q18 -65 18 -89q0 -64 -38 -111h277z"/>
            <glyph glyph-name="yen" unicode="&#xa5;" horiz-adv-x="573"
                   d="M308 332l154 268h81l-188 -315h134v-56h-167v-87h167v-56h-167v-86h-70v86h-168v56h168v87h-168v56h135l-188 315h82l156 -268l18 -38h2z"/>
            <glyph glyph-name="brokenbar" unicode="&#xa6;" horiz-adv-x="202"
                   d="M133 330h-64v343h64v-343zM133 -153h-64v343h64v-343z"/>
            <glyph glyph-name="section" unicode="&#xa7;" horiz-adv-x="510"
                   d="M39 45l39 57q68 -49 176 -49q136 0 136 61q0 33 -32 51q-24 13 -110 39q-154 45 -154 119q0 39 36 62q-77 39 -77 100q0 57 51 91q55 37 158 37q136 0 194 -46l-39 -58q-52 41 -155 41q-129 0 -129 -62q0 -30 31 -48q26 -17 89 -33q175 -46 175 -126q0 -41 -33 -67
q75 -41 75 -100q0 -53 -50 -88q-57 -39 -164 -39q-147 0 -217 58zM186 363q-23 -11 -23 -37q0 -34 110 -66q38 -11 64 -21q20 14 20 39q0 38 -128 73l-21 6t-16 4.5t-6 1.5z"/>
            <glyph glyph-name="dieresis" unicode="&#xa8;" horiz-adv-x="455"
                   d="M112 748q14 14 32 14t32 -14t14 -33t-14 -33t-32 -14t-32 14t-14 33t14 33zM274 748q14 14 32 14t32 -14t14 -33t-14 -33t-32 -14t-32 14t-14 33t14 33z"/>
            <glyph glyph-name="copyright" unicode="&#xa9;" horiz-adv-x="689"
                   d="M565 515q79 -85 79 -216q0 -130 -79 -215q-84 -90 -220 -90t-220 90q-80 86 -80 215q0 130 80 216q84 90 220 90t220 -90zM158 486q-68 -74 -68 -187q0 -111 68 -185q70 -78 187 -78q116 0 188 78q68 74 68 185q0 113 -68 187q-72 77 -188 77t-187 -77zM452 424l-25 -38
q-27 29 -75 29q-50 0 -80 -33q-29 -32 -29 -82q0 -49 29 -81q30 -33 80 -33q48 0 75 29l25 -38q-31 -37 -102 -37q-72 0 -116 47q-41 44 -41 113q0 70 41 114q44 47 116 47q71 0 102 -37z"/>
            <glyph glyph-name="ordfeminine" unicode="&#xaa;" horiz-adv-x="400"
                   d="M76 448q36 27 99 27q77 0 105 -31v14q0 54 -17 79q-21 27 -75 27q-25 0 -96 -23l-18 47q63 26 124 26q78 0 112 -43q29 -38 29 -115v-182h-43l-9 38h-3q-27 -46 -118 -46q-56 0 -91 30q-36 30 -36 76q0 48 37 76zM181 309q43 0 72 20q27 18 27 44q0 27 -26 44
q-25 16 -68 16q-90 0 -90 -61q0 -63 85 -63z"/>
            <glyph glyph-name="guillemotleft" unicode="&#xab;" horiz-adv-x="452"
                   d="M42 197v23l120 188h60v-10l-117 -186v-5l117 -189v-10h-60zM229 197v23l120 188h59v-10l-117 -186v-5l117 -189v-10h-59z"/>
            <glyph glyph-name="logicalnot" unicode="&#xac;" horiz-adv-x="544"
                   d="M48 288v58h431v-346h-59v288h-372z"/>
            <glyph glyph-name="registered" unicode="&#xae;" horiz-adv-x="550"
                   d="M441 216q-65 -69 -167 -69t-165 69q-60 66 -60 164q0 100 60 164q61 69 165 69q102 0 167 -69q60 -65 60 -164q0 -100 -60 -164zM406 516q-51 54 -132 54q-80 0 -130 -53t-50 -137q0 -80 50 -135q49 -55 130 -55t132 55q50 53 50 135q0 81 -50 136zM191 485h91
q39 0 61 -19q23 -20 23 -52q0 -44 -41 -62l43 -60v-9h-37l-44 61h-60v-61h-36v202zM282 450h-55v-72h54q47 0 47 36t-46 36z"/>
            <glyph glyph-name="macron" unicode="&#xaf;" horiz-adv-x="526"
                   d="M121 668v46h295v-46h-295z"/>
            <glyph glyph-name="degree" unicode="&#xb0;" horiz-adv-x="300"
                   d="M231 641q31 -31 31 -77t-31 -76q-31 -31 -81 -31t-81 31q-31 30 -31 76t31 77t81 31t81 -31zM100 613q-19 -19 -19 -49q0 -28 19 -47q20 -20 50 -20t50 20q19 19 19 47q0 30 -19 49q-20 20 -50 20t-50 -20z"/>
            <glyph glyph-name="plusminus" unicode="&#xb1;" horiz-adv-x="525"
                   d="M294 169h-59v172h-172v58h172v176h59v-176h168v-58h-168v-172zM462 98v-58h-399v58h399z"/>
            <glyph glyph-name="twosuperior" unicode="&#xb2;" horiz-adv-x="347"
                   d="M53 342v44l143 123q36 31 36 64q0 59 -66 59q-50 0 -87 -37l-26 38q44 44 114 44q117 0 117 -103q0 -56 -46 -93l-113 -95h167v-44h-239z"/>
            <glyph glyph-name="threesuperior" unicode="&#xb3;" horiz-adv-x="336"
                   d="M54 624v44h224v-33l-75 -97q90 -10 90 -97q0 -46 -32 -75q-35 -32 -97 -32q-76 0 -122 46l28 37q38 -39 93 -39q39 0 59 19q20 18 20 45q0 56 -68 58h-37v32l72 92h-155z"/>
            <glyph glyph-name="acute" unicode="&#xb4;" horiz-adv-x="279"
                   d="M199 629l-87 -132h-50l53 145z"/>
            <glyph glyph-name="mu" unicode="&#xb5;"
                   d="M439 420v-420h-44l-12 60h-3q-40 -70 -149 -70q-62 0 -103 32l1 -150h-68v548h69v-229q0 -65 28 -102q30 -41 87 -41q59 0 94 41q30 36 31 78v253h69z"/>
            <glyph glyph-name="paragraph" unicode="&#xb6;" horiz-adv-x="521"
                   d="M381 -82v204h-64q-128 0 -204 61q-81 65 -81 183q0 113 79 176q76 59 203 59h137v-683h-70z"/>
            <glyph glyph-name="periodcentered" unicode="&#xb7;" horiz-adv-x="207"
                   d="M69 395q14 14 34 14q21 0 35 -14q14 -16 14 -36q0 -19 -14 -35q-14 -14 -35 -14q-20 0 -34 14q-14 16 -14 35q0 20 14 36z"/>
            <glyph glyph-name="cedilla" unicode="&#xb8;" horiz-adv-x="206"
                   d="M76 -63l-13 16l24 50h39l-15 -34q64 -1 64 -64q0 -70 -78 -70q-50 0 -72 28l19 28q20 -20 52 -20q42 0 42 35q0 32 -42 32q-15 0 -20 -1z"/>
            <glyph glyph-name="onesuperior" unicode="&#xb9;" horiz-adv-x="208"
                   d="M25 624v44h119v-326h-50v282h-69z"/>
            <glyph glyph-name="ordmasculine" unicode="&#xba;" horiz-adv-x="410"
                   d="M324 566q46 -47 46 -127q0 -78 -46 -124t-119 -46q-72 0 -118 46q-47 49 -47 124q0 78 47 127q47 47 118 47q72 0 119 -47zM128 529q-30 -34 -30 -89q0 -54 30 -87q28 -33 77 -33t78 33q30 33 30 87q0 55 -30 89q-29 33 -78 33t-77 -33z"/>
            <glyph glyph-name="guillemotright" unicode="&#xbb;" horiz-adv-x="451"
                   d="M224 220v-23l-120 -189h-61v10l118 189v5l-118 186v10h61zM410 220v-23l-120 -189h-61v10l118 189v5l-118 186v10h61z"/>
            <glyph glyph-name="onequarter" unicode="&#xbc;" horiz-adv-x="621"
                   d="M311 88v31l178 207h37v-196h60v-42h-60v-88h-48v88h-167zM93 0h-60l465 600h62zM40 556v44h120v-326h-50v282h-70zM478 250l-75 -89q-9 -11 -32 -34l47 3h60v120z"/>
            <glyph glyph-name="onehalf" unicode="&#xbd;" horiz-adv-x="683"
                   d="M93 0h-60l465 600h62zM407 44v-44h239v44h-167l113 95q46 37 46 93q0 103 -117 103q-70 0 -114 -44l26 -38q37 37 87 37q66 0 66 -59q0 -33 -36 -64zM43 556v44h119v-326h-50v282h-69z"/>
            <glyph glyph-name="threequarters" unicode="&#xbe;" horiz-adv-x="709"
                   d="M399 88v31l178 207h37v-196h60v-42h-60v-88h-48v88h-167zM185 0h-60l465 600h62zM48 556v44h224v-33l-75 -97q90 -10 90 -97q0 -46 -32 -75q-35 -32 -97 -32q-76 0 -122 46l28 37q38 -39 93 -39q39 0 59 19q20 18 20 45q0 56 -68 58h-37v32l72 92h-155zM566 250l-75 -89
q-9 -11 -32 -34l47 3h60v120z"/>
            <glyph glyph-name="questiondown" unicode="&#xbf;" horiz-adv-x="410"
                   d="M356 -76l29 -58q-59 -53 -159 -53q-88 0 -141 42q-52 42 -52 114q0 79 80 148q82 72 85 115l2 27h49v-39q0 -58 -72 -128q-72 -71 -72 -116q0 -43 33 -70t88 -27q79 0 130 45zM256 349q-14 -14 -34 -14q-19 0 -35 14q-14 16 -14 35q0 20 14 36q16 14 35 14q20 0 34 -14
q14 -16 14 -36q0 -19 -14 -35z"/>
            <glyph glyph-name="Agrave" unicode="&#xc0;" horiz-adv-x="595"
                   d="M329 600l257 -600h-72l-57 133h-320l-56 -133h-72l257 600h63zM298 510l-133 -312h265zM271 635l-87 132l84 13l53 -145h-50z"/>
            <glyph glyph-name="Aacute" unicode="&#xc1;" horiz-adv-x="595"
                   d="M329 600l257 -600h-72l-57 133h-320l-56 -133h-72l257 600h63zM298 510l-133 -312h265zM411 767l-87 -132h-50l53 145z"/>
            <glyph glyph-name="Acircumflex" unicode="&#xc2;" horiz-adv-x="595"
                   d="M329 600l257 -600h-72l-57 133h-320l-56 -133h-72l257 600h63zM298 510l-133 -312h265zM351 668l-53 61l-55 -61h-64l89 108h57l91 -108h-65z"/>
            <glyph glyph-name="Atilde" unicode="&#xc3;" horiz-adv-x="595"
                   d="M329 600l257 -600h-72l-57 133h-320l-56 -133h-72l257 600h63zM298 510l-133 -312h265zM296 698q-47 29 -66 29q-32 0 -46 -44l-4 -16l-49 6l5 26q17 83 87 83q31 0 78 -30t67 -30q38 0 47 45l3 15l49 -5l-4 -25q-15 -84 -87 -84q-34 0 -80 30z"/>
            <glyph glyph-name="Adieresis" unicode="&#xc4;" horiz-adv-x="595"
                   d="M329 600l257 -600h-72l-57 133h-320l-56 -133h-72l257 600h63zM298 510l-133 -312h265zM184 748q14 14 32 14t32 -14t14 -33t-14 -33t-32 -14t-32 14t-14 33t14 33zM346 748q14 14 32 14t32 -14t14 -33t-14 -33t-32 -14t-32 14t-14 33t14 33z"/>
            <glyph glyph-name="Aring" unicode="&#xc5;" horiz-adv-x="595"
                   d="M329 600l257 -600h-72l-57 133h-320l-56 -133h-72l257 600h63zM298 510l-133 -312h265zM224 765q29 24 74 24q44 0 73 -24t29 -63t-29 -63t-73 -24q-46 0 -74 24q-30 24 -30 63t30 63zM298 745q-57 0 -57 -43t57 -43q55 0 55 43t-55 43z"/>
            <glyph glyph-name="AE" unicode="&#xc6;" horiz-adv-x="878"
                   d="M-5 0l412 600h430v-65h-351v-199h300v-65h-300v-206h351v-65h-421v133h-246l-89 -133h-86zM409 490l-196 -292h203v292h-7z"/>
            <glyph glyph-name="Ccedilla" unicode="&#xc7;" horiz-adv-x="565"
                   d="M296 -63l-13 16l17 36q-117 14 -188 101q-71 86 -71 209q0 134 83 223q84 91 216 91q134 0 199 -77l-40 -54q-60 65 -158 65q-101 0 -165 -73q-63 -70 -63 -175q0 -103 63 -174q66 -73 165 -73q98 0 158 65l40 -54q-65 -77 -199 -77h-2l-7 -17q64 -1 64 -64
q0 -70 -78 -70q-50 0 -72 28l19 28q20 -20 52 -20q42 0 42 35q0 32 -42 32q-15 0 -20 -1z"/>
            <glyph glyph-name="Egrave" unicode="&#xc8;" horiz-adv-x="544"
                   d="M452 336v-65h-300v-206h351v-65h-421v600h421v-65h-351v-199h300zM277 635l-87 132l84 13l53 -145h-50z"/>
            <glyph glyph-name="Eacute" unicode="&#xc9;" horiz-adv-x="544"
                   d="M452 336v-65h-300v-206h351v-65h-421v600h421v-65h-351v-199h300zM403 767l-87 -132h-50l53 145z"/>
            <glyph glyph-name="Ecircumflex" unicode="&#xca;" horiz-adv-x="544"
                   d="M452 336v-65h-300v-206h351v-65h-421v600h421v-65h-351v-199h300zM353 668l-53 61l-55 -61h-64l89 108h57l91 -108h-65z"/>
            <glyph glyph-name="Edieresis" unicode="&#xcb;" horiz-adv-x="544"
                   d="M452 336v-65h-300v-206h351v-65h-421v600h421v-65h-351v-199h300zM181 748q14 14 32 14t32 -14t14 -33t-14 -33t-32 -14t-32 14t-14 33t14 33zM343 748q14 14 32 14t32 -14t14 -33t-14 -33t-32 -14t-32 14t-14 33t14 33z"/>
            <glyph glyph-name="Igrave" unicode="&#xcc;" horiz-adv-x="234"
                   d="M152 600v-600h-70v600h70zM90 635l-87 132l84 13l53 -145h-50z"/>
            <glyph glyph-name="Iacute" unicode="&#xcd;" horiz-adv-x="234"
                   d="M152 600v-600h-70v600h70zM230 767l-87 -132h-50l53 145z"/>
            <glyph glyph-name="Icircumflex" unicode="&#xce;" horiz-adv-x="234"
                   d="M152 600v-600h-70v600h70zM172 668l-53 61l-55 -61h-64l89 108h57l91 -108h-65z"/>
            <glyph glyph-name="Idieresis" unicode="&#xcf;" horiz-adv-x="234"
                   d="M152 600v-600h-70v600h70zM4 748q14 14 32 14t32 -14t14 -33t-14 -33t-32 -14t-32 14t-14 33t14 33zM166 748q14 14 32 14t32 -14t14 -33t-14 -33t-32 -14t-32 14t-14 33t14 33z"/>
            <glyph glyph-name="Eth" unicode="&#xd0;" horiz-adv-x="631"
                   d="M24 272v64h59v264h200q137 0 221 -81q84 -83 84 -219t-84 -219q-84 -81 -221 -81h-200v272h-59zM279 535h-126v-199h178v-64h-178v-207h126q103 0 170 62q68 65 68 173t-68 173q-67 62 -170 62z"/>
            <glyph glyph-name="Ntilde" unicode="&#xd1;" horiz-adv-x="665"
                   d="M583 600v-600h-50l-381 476v-476h-70v600h51l380 -474v474h70zM332 699q-47 29 -66 29q-32 0 -46 -44l-4 -16l-49 6l5 26q17 83 87 83q31 0 78 -30q46 -30 67 -30q38 0 47 45l3 15l49 -5l-4 -25q-15 -84 -87 -84q-34 0 -80 30z"/>
            <glyph glyph-name="Ograve" unicode="&#xd2;" horiz-adv-x="677"
                   d="M123 77q-81 89 -81 222q0 135 81 223q82 91 215 91q135 0 217 -91q80 -88 80 -223q0 -133 -80 -222q-82 -91 -217 -91q-133 0 -215 91zM503 125q61 70 61 174q0 105 -61 175q-63 73 -165 73q-101 0 -164 -73q-60 -70 -60 -175q0 -103 60 -174q63 -72 164 -72
q102 0 165 72zM316 668l-87 132l84 13l53 -145h-50z"/>
            <glyph glyph-name="Oacute" unicode="&#xd3;" horiz-adv-x="677"
                   d="M123 77q-81 89 -81 222q0 135 81 223q82 91 215 91q135 0 217 -91q80 -88 80 -223q0 -133 -80 -222q-82 -91 -217 -91q-133 0 -215 91zM503 125q61 70 61 174q0 105 -61 175q-63 73 -165 73q-101 0 -164 -73q-60 -70 -60 -175q0 -103 60 -174q63 -72 164 -72
q102 0 165 72zM447 800l-87 -132h-50l53 145z"/>
            <glyph glyph-name="Ocircumflex" unicode="&#xd4;" horiz-adv-x="677"
                   d="M123 77q-81 89 -81 222q0 135 81 223q82 91 215 91q135 0 217 -91q80 -88 80 -223q0 -133 -80 -222q-82 -91 -217 -91q-133 0 -215 91zM503 125q61 70 61 174q0 105 -61 175q-63 73 -165 73q-101 0 -164 -73q-60 -70 -60 -175q0 -103 60 -174q63 -72 164 -72
q102 0 165 72zM393 668l-53 61l-55 -61h-64l89 108h57l91 -108h-65z"/>
            <glyph glyph-name="Otilde" unicode="&#xd5;" horiz-adv-x="677"
                   d="M123 77q-81 89 -81 222q0 135 81 223q82 91 215 91q135 0 217 -91q80 -88 80 -223q0 -133 -80 -222q-82 -91 -217 -91q-133 0 -215 91zM503 125q61 70 61 174q0 105 -61 175q-63 73 -165 73q-101 0 -164 -73q-60 -70 -60 -175q0 -103 60 -174q63 -72 164 -72
q102 0 165 72zM334 698q-47 29 -66 29q-32 0 -46 -44l-4 -16l-49 6l5 26q17 83 87 83q31 0 78 -30q46 -30 67 -30q38 0 47 45l3 15l49 -5l-4 -25q-15 -84 -87 -84q-34 0 -80 30z"/>
            <glyph glyph-name="Odieresis" unicode="&#xd6;" horiz-adv-x="677"
                   d="M123 77q-81 89 -81 222q0 135 81 223q82 91 215 91q135 0 217 -91q80 -88 80 -223q0 -133 -80 -222q-82 -91 -217 -91q-133 0 -215 91zM503 125q61 70 61 174q0 105 -61 175q-63 73 -165 73q-101 0 -164 -73q-60 -70 -60 -175q0 -103 60 -174q63 -72 164 -72
q102 0 165 72zM225 748q14 14 32 14t32 -14t14 -33t-14 -33t-32 -14t-32 14t-14 33t14 33zM387 748q14 14 32 14t32 -14t14 -33t-14 -33t-32 -14t-32 14t-14 33t14 33z"/>
            <glyph glyph-name="multiply" unicode="&#xd7;" horiz-adv-x="494"
                   d="M99 102l-41 40l150 157l-150 158l41 40l149 -157l149 157l40 -40l-150 -158l150 -157l-40 -40l-149 156z"/>
            <glyph glyph-name="Oslash" unicode="&#xd8;" horiz-adv-x="681"
                   d="M142 59l-57 -59h-78l98 100q-61 82 -61 199q0 135 81 223q82 91 215 91q114 0 196 -71l56 58h77l-96 -98q64 -83 64 -203q0 -133 -80 -222q-82 -91 -217 -91q-119 0 -198 73zM505 125q61 70 61 174q0 84 -43 151l-332 -341q62 -56 149 -56q102 0 165 72zM156 152l331 340
q-61 55 -147 55q-101 0 -164 -73q-60 -70 -60 -175q0 -85 40 -147z"/>
            <glyph glyph-name="Ugrave" unicode="&#xd9;" horiz-adv-x="630"
                   d="M138 60q-64 70 -64 191v349h70v-349q0 -91 43 -143q45 -56 128 -56q82 0 129 56q42 52 42 143v349h70v-349q0 -121 -63 -191q-65 -74 -178 -74q-112 0 -177 74zM290 635l-87 132l84 13l53 -145h-50z"/>
            <glyph glyph-name="Uacute" unicode="&#xda;" horiz-adv-x="630"
                   d="M138 60q-64 70 -64 191v349h70v-349q0 -91 43 -143q45 -56 128 -56q82 0 129 56q42 52 42 143v349h70v-349q0 -121 -63 -191q-65 -74 -178 -74q-112 0 -177 74zM424 767l-87 -132h-50l53 145z"/>
            <glyph glyph-name="Ucircumflex" unicode="&#xdb;" horiz-adv-x="630"
                   d="M138 60q-64 70 -64 191v349h70v-349q0 -91 43 -143q45 -56 128 -56q82 0 129 56q42 52 42 143v349h70v-349q0 -121 -63 -191q-65 -74 -178 -74q-112 0 -177 74zM370 634l-53 61l-55 -61h-64l89 108h57l91 -108h-65z"/>
            <glyph glyph-name="Udieresis" unicode="&#xdc;" horiz-adv-x="630"
                   d="M138 60q-64 70 -64 191v349h70v-349q0 -91 43 -143q45 -56 128 -56q82 0 129 56q42 52 42 143v349h70v-349q0 -121 -63 -191q-65 -74 -178 -74q-112 0 -177 74zM203 748q14 14 32 14t32 -14t14 -33t-14 -33t-32 -14t-32 14t-14 33t14 33zM365 748q14 14 32 14t32 -14
t14 -33t-14 -33t-32 -14t-32 14t-14 33t14 33z"/>
            <glyph glyph-name="Yacute" unicode="&#xdd;" horiz-adv-x="530"
                   d="M286 332l154 268h81l-221 -370v-230h-70v230l-221 370h82l156 -268l18 -38h2zM376 800l-87 -132h-50l53 145z"/>
            <glyph glyph-name="Thorn" unicode="&#xde;" horiz-adv-x="575"
                   d="M152 600v-98h166q108 0 167 -51q61 -52 61 -149q0 -100 -63 -155q-62 -53 -169 -53h-162v-94h-70v600h70zM316 436h-164v-276h164q158 0 158 140q0 136 -158 136z"/>
            <glyph glyph-name="germandbls" unicode="&#xdf;" horiz-adv-x="498"
                   d="M237 281v50q112 16 112 117q0 42 -27 71q-28 28 -75 28q-49 0 -79 -32q-32 -35 -32 -95v-420h-69v407q0 201 187 201q77 0 124 -45q46 -45 46 -118q0 -88 -74 -127q51 -13 82 -59q27 -41 27 -93q0 -82 -51 -129q-53 -47 -147 -47q-47 0 -74 10l9 54q22 -6 63 -6
q57 0 92 32t35 83q0 57 -36 88q-35 30 -91 30h-22z"/>
            <glyph glyph-name="Agrave006" unicode="&#xe0;" horiz-adv-x="461"
                   d="M398 259v-259h-48l-8 58h-5q-47 -68 -144 -68q-75 0 -120 39q-42 37 -42 95q0 62 49 99q52 38 143 38q58 0 109 -17v15q0 110 -120 110q-67 0 -119 -34l-27 57q62 38 151 38q181 0 181 -171zM332 159v30q-43 21 -103 21q-128 0 -128 -84q0 -35 25 -57q28 -24 76 -24
q57 0 94 34q36 33 36 80zM206 497l-87 132l84 13l53 -145h-50z"/>
            <glyph glyph-name="Aacute002" unicode="&#xe1;" horiz-adv-x="461"
                   d="M398 259v-259h-48l-8 58h-5q-47 -68 -144 -68q-75 0 -120 39q-42 37 -42 95q0 62 49 99q52 38 143 38q58 0 109 -17v15q0 110 -120 110q-67 0 -119 -34l-27 57q62 38 151 38q181 0 181 -171zM332 159v30q-43 21 -103 21q-128 0 -128 -84q0 -35 25 -57q28 -24 76 -24
q57 0 94 34q36 33 36 80zM348 629l-87 -132h-50l53 145z"/>
            <glyph glyph-name="Acircumflex003" unicode="&#xe2;" horiz-adv-x="461"
                   d="M398 259v-259h-48l-8 58h-5q-47 -68 -144 -68q-75 0 -120 39q-42 37 -42 95q0 62 49 99q52 38 143 38q58 0 109 -17v15q0 110 -120 110q-67 0 -119 -34l-27 57q62 38 151 38q181 0 181 -171zM332 159v30q-43 21 -103 21q-128 0 -128 -84q0 -35 25 -57q28 -24 76 -24
q57 0 94 34q36 33 36 80zM277 497l-53 61l-55 -61h-64l89 108h57l91 -108h-65z"/>
            <glyph glyph-name="Atilde008" unicode="&#xe3;" horiz-adv-x="461"
                   d="M398 259v-259h-48l-8 58h-5q-47 -68 -144 -68q-75 0 -120 39q-42 37 -42 95q0 62 49 99q52 38 143 38q58 0 109 -17v15q0 110 -120 110q-67 0 -119 -34l-27 57q62 38 151 38q181 0 181 -171zM332 159v30q-43 21 -103 21q-128 0 -128 -84q0 -35 25 -57q28 -24 76 -24
q57 0 94 34q36 33 36 80zM219 529q-47 29 -66 29q-32 0 -46 -44l-4 -16l-49 6l5 26q17 83 87 83q32 0 78 -30t67 -30q38 0 47 45l3 15l49 -5l-4 -25q-15 -84 -87 -84q-33 0 -80 30z"/>
            <glyph glyph-name="Adieresis004" unicode="&#xe4;" horiz-adv-x="461"
                   d="M398 259v-259h-48l-8 58h-5q-47 -68 -144 -68q-75 0 -120 39q-42 37 -42 95q0 62 49 99q52 38 143 38q58 0 109 -17v15q0 110 -120 110q-67 0 -119 -34l-27 57q62 38 151 38q181 0 181 -171zM332 159v30q-43 21 -103 21q-128 0 -128 -84q0 -35 25 -57q28 -24 76 -24
q57 0 94 34q36 33 36 80zM112 577q14 14 32 14t32 -14t14 -33t-14 -33t-32 -14t-32 14t-14 33t14 33zM274 577q14 14 32 14t32 -14t14 -33t-14 -33t-32 -14t-32 14t-14 33t14 33z"/>
            <glyph glyph-name="Aring007" unicode="&#xe5;" horiz-adv-x="461"
                   d="M398 259v-259h-48l-8 58h-5q-47 -68 -144 -68q-75 0 -120 39q-42 37 -42 95q0 62 49 99q52 38 143 38q58 0 109 -17v15q0 110 -120 110q-67 0 -119 -34l-27 57q62 38 151 38q181 0 181 -171zM332 159v30q-43 21 -103 21q-128 0 -128 -84q0 -35 25 -57q28 -24 76 -24
q57 0 94 34q36 33 36 80zM153 647q29 24 74 24t73 -24q29 -24 29 -63t-29 -63q-28 -24 -73 -24t-74 24q-30 24 -30 63t30 63zM227 627q-57 0 -57 -43t57 -43q55 0 55 43t-55 43z"/>
            <glyph glyph-name="AE005" unicode="&#xe6;" horiz-adv-x="749"
                   d="M667 88l26 -50q-43 -49 -149 -49q-118 0 -175 85q-51 -84 -170 -84q-83 0 -127 39q-41 36 -41 95q0 61 47 99q50 38 141 38q63 0 113 -18v16q0 110 -120 110q-67 0 -119 -34l-27 57q62 38 151 38q117 0 159 -74q56 74 153 74q89 0 138 -61q47 -58 47 -148v-17h-313
q2 -76 44 -117q39 -39 103 -39q78 0 119 40zM298 79q34 31 34 80v29q-46 21 -107 21q-124 0 -124 -85q0 -79 99 -79q61 0 98 34zM405 260h238q-15 111 -115 111q-104 0 -123 -111z"/>
            <glyph glyph-name="Ccedilla011" unicode="&#xe7;" horiz-adv-x="411"
                   d="M219 -70l-13 16l21 45q-84 7 -135 66q-52 58 -52 152q0 99 58 160t150 61q94 0 128 -37l-21 -52q-40 31 -103 31q-60 0 -101 -42q-41 -46 -41 -121q0 -76 41 -120q39 -41 101 -41q63 0 103 31l19 -52q-28 -31 -108 -36l-12 -29q64 -1 64 -64q0 -70 -78 -70q-50 0 -72 28
l19 28q20 -20 52 -20q42 0 42 35q0 32 -42 32q-15 0 -20 -1z"/>
            <glyph glyph-name="Egrave017" unicode="&#xe8;" horiz-adv-x="457"
                   d="M375 88l26 -50q-43 -49 -149 -49q-97 0 -155 61q-57 60 -57 159q0 97 54 158q54 63 143 63t138 -61q47 -58 47 -148v-17h-313q2 -76 44 -117q39 -39 103 -39q78 0 119 40zM113 260h238q-15 111 -115 111q-104 0 -123 -111zM211 497l-87 132l84 13l53 -145h-50z"/>
            <glyph glyph-name="Eacute014" unicode="&#xe9;" horiz-adv-x="457"
                   d="M375 88l26 -50q-43 -49 -149 -49q-97 0 -155 61q-57 60 -57 159q0 97 54 158q54 63 143 63t138 -61q47 -58 47 -148v-17h-313q2 -76 44 -117q39 -39 103 -39q78 0 119 40zM113 260h238q-15 111 -115 111q-104 0 -123 -111zM347 629l-87 -132h-50l53 145z"/>
            <glyph glyph-name="Ecircumflex015" unicode="&#xea;" horiz-adv-x="457"
                   d="M375 88l26 -50q-43 -49 -149 -49q-97 0 -155 61q-57 60 -57 159q0 97 54 158q54 63 143 63t138 -61q47 -58 47 -148v-17h-313q2 -76 44 -117q39 -39 103 -39q78 0 119 40zM113 260h238q-15 111 -115 111q-104 0 -123 -111zM289 496l-53 61l-55 -61h-64l89 108h57l91 -108
h-65z"/>
            <glyph glyph-name="Edieresis016" unicode="&#xeb;" horiz-adv-x="457"
                   d="M375 88l26 -50q-43 -49 -149 -49q-97 0 -155 61q-57 60 -57 159q0 97 54 158q54 63 143 63t138 -61q47 -58 47 -148v-17h-313q2 -76 44 -117q39 -39 103 -39q78 0 119 40zM113 260h238q-15 111 -115 111q-104 0 -123 -111zM124 577q14 14 32 14t32 -14t14 -33t-14 -33
t-32 -14t-32 14t-14 33t14 33zM286 577q14 14 32 14t32 -14t14 -33t-14 -33t-32 -14t-32 14t-14 33t14 33z"/>
            <glyph glyph-name="Igrave027" unicode="&#xec;" horiz-adv-x="207"
                   d="M69 0v420h69v-420h-69zM75 497l-87 132l84 13l53 -145h-50z"/>
            <glyph glyph-name="Iacute024" unicode="&#xed;" horiz-adv-x="207"
                   d="M216 629l-87 -132h-50l53 145zM69 0v420h69v-420h-69z"/>
            <glyph glyph-name="Icircumflex025" unicode="&#xee;" horiz-adv-x="207"
                   d="M69 0v420h69v-420h-69zM158 530l-53 61l-55 -61h-64l89 108h57l91 -108h-65z"/>
            <glyph glyph-name="Idieresis026" unicode="&#xef;" horiz-adv-x="207"
                   d="M-8 609q14 14 32 14t32 -14t14 -33t-14 -33t-32 -14t-32 14t-14 33t14 33zM154 609q14 14 32 14t32 -14t14 -33t-14 -33t-32 -14t-32 14t-14 33t14 33zM69 0v420h69v-420h-69z"/>
            <glyph glyph-name="Eth018" unicode="&#xf0;"
                   d="M96 50q-56 59 -56 160q0 100 56 159q55 61 154 61q28 0 57 -7v5q-3 3 -26 37l-48 75l-121 -75l-24 42l119 73l-86 137v11h65l73 -116l124 76l24 -41l-122 -76l129 -204q46 -76 46 -157q0 -102 -55 -160q-57 -60 -155 -60t-154 60zM350 331q-38 41 -100 41t-100 -41
q-40 -43 -40 -121q0 -77 40 -120q39 -42 100 -42t100 42q40 43 40 120q0 78 -40 121z"/>
            <glyph glyph-name="Ntilde034" unicode="&#xf1;" horiz-adv-x="510"
                   d="M67 0v420h49l6 -62h5q45 72 147 72q82 0 128 -54q46 -52 46 -139v-237h-69v229q0 63 -30 102q-33 41 -90 41q-59 0 -93 -42q-28 -34 -30 -78v-252h-69zM251 560q-47 29 -66 29q-32 0 -46 -44l-4 -16l-49 6l5 26q17 83 87 83q32 0 78 -30t67 -30q38 0 47 45l3 15l49 -5
l-4 -25q-15 -84 -87 -84q-33 0 -80 30z"/>
            <glyph glyph-name="Ograve040" unicode="&#xf2;"
                   d="M400 49q-61 -59 -150 -59q-90 0 -149 59q-62 62 -62 159q0 99 62 161q58 61 149 61q89 0 150 -61q62 -64 62 -161t-62 -159zM350 89q43 46 43 120t-43 120q-40 45 -100 45t-100 -45q-43 -46 -43 -120t43 -120q40 -43 100 -43t100 43zM224 497l-87 132l84 13l53 -145h-50z
"/>
            <glyph glyph-name="Oacute036" unicode="&#xf3;"
                   d="M400 49q-61 -59 -150 -59q-90 0 -149 59q-62 62 -62 159q0 99 62 161q58 61 149 61q89 0 150 -61q62 -64 62 -161t-62 -159zM350 89q43 46 43 120t-43 120q-40 45 -100 45t-100 -45q-43 -46 -43 -120t43 -120q40 -43 100 -43t100 43zM360 629l-87 -132h-50l53 145z"/>
            <glyph glyph-name="Ocircumflex037" unicode="&#xf4;"
                   d="M400 49q-61 -59 -150 -59q-90 0 -149 59q-62 62 -62 159q0 99 62 161q58 61 149 61q89 0 150 -61q62 -64 62 -161t-62 -159zM350 89q43 46 43 120t-43 120q-40 45 -100 45t-100 -45q-43 -46 -43 -120t43 -120q40 -43 100 -43t100 43zM304 500l-53 61l-55 -61h-64l89 108
h57l91 -108h-65z"/>
            <glyph glyph-name="Otilde042" unicode="&#xf5;"
                   d="M400 49q-61 -59 -150 -59q-90 0 -149 59q-62 62 -62 159q0 99 62 161q58 61 149 61q89 0 150 -61q62 -64 62 -161t-62 -159zM350 89q43 46 43 120t-43 120q-40 45 -100 45t-100 -45q-43 -46 -43 -120t43 -120q40 -43 100 -43t100 43zM242 561q-47 29 -66 29
q-32 0 -46 -44l-4 -16l-49 6l5 26q17 83 87 83q31 0 78 -30t67 -30q38 0 47 45l3 15l49 -5l-4 -25q-15 -84 -87 -84q-34 0 -80 30z"/>
            <glyph glyph-name="Odieresis038" unicode="&#xf6;"
                   d="M400 49q-61 -59 -150 -59q-90 0 -149 59q-62 62 -62 159q0 99 62 161q58 61 149 61q89 0 150 -61q62 -64 62 -161t-62 -159zM350 89q43 46 43 120t-43 120q-40 45 -100 45t-100 -45q-43 -46 -43 -120t43 -120q40 -43 100 -43t100 43zM137 610q14 14 32 14t32 -14t14 -33
t-14 -33t-32 -14t-32 14t-14 33t14 33zM299 610q14 14 32 14t32 -14t14 -33t-14 -33t-32 -14t-32 14t-14 33t14 33z"/>
            <glyph glyph-name="divide" unicode="&#xf7;" horiz-adv-x="489"
                   d="M210 184q14 14 35 14q20 0 34 -14q15 -15 15 -36t-15 -35q-14 -14 -34 -14q-21 0 -35 14q-15 14 -15 35t15 36zM210 485q14 14 35 14q20 0 34 -14q15 -15 15 -36t-15 -35q-14 -14 -34 -14q-21 0 -35 14q-15 13 -15 35q0 21 15 36zM59 267v58h371v-58h-371z"/>
            <glyph glyph-name="Oslash041" unicode="&#xf8;" horiz-adv-x="502"
                   d="M401 49q-61 -59 -150 -59q-80 0 -135 46l-34 -36h-56l62 64q-48 58 -48 144q0 99 62 161q58 61 149 61q75 0 131 -45l32 35h56l-60 -62q53 -64 53 -150q0 -97 -62 -159zM351 89q43 46 43 120q0 58 -29 102l-208 -229q39 -36 94 -36q60 0 100 43zM133 112l207 228
q-38 34 -89 34q-59 0 -100 -45q-43 -46 -43 -120q0 -57 25 -97z"/>
            <glyph glyph-name="Ugrave053" unicode="&#xf9;" horiz-adv-x="507"
                   d="M440 420v-420h-44l-12 60h-3q-40 -70 -149 -70q-81 0 -126 54q-44 52 -44 139v237h69v-229q0 -65 28 -102q30 -41 87 -41q59 0 94 41q30 36 31 78v253h69zM226 497l-87 132l84 13l53 -145h-50z"/>
            <glyph glyph-name="Uacute050" unicode="&#xfa;" horiz-adv-x="507"
                   d="M361 629l-87 -132h-50l53 145zM440 420v-420h-44l-12 60h-3q-40 -70 -149 -70q-81 0 -126 54q-44 52 -44 139v237h69v-229q0 -65 28 -102q30 -41 87 -41q59 0 94 41q30 36 31 78v253h69z"/>
            <glyph glyph-name="Ucircumflex051" unicode="&#xfb;" horiz-adv-x="507"
                   d="M302 496l-53 61l-55 -61h-64l89 108h57l91 -108h-65zM440 420v-420h-44l-12 60h-3q-40 -70 -149 -70q-81 0 -126 54q-44 52 -44 139v237h69v-229q0 -65 28 -102q30 -41 87 -41q59 0 94 41q30 36 31 78v253h69z"/>
            <glyph glyph-name="Udieresis052" unicode="&#xfc;" horiz-adv-x="507"
                   d="M136 576q14 14 32 14t32 -14t14 -33t-14 -33t-32 -14t-32 14t-14 33t14 33zM298 576q14 14 32 14t32 -14t14 -33t-14 -33t-32 -14t-32 14t-14 33t14 33zM440 420v-420h-44l-12 60h-3q-40 -70 -149 -70q-81 0 -126 54q-44 52 -44 139v237h69v-229q0 -65 28 -102
q30 -41 87 -41q59 0 94 41q30 36 31 78v253h69z"/>
            <glyph glyph-name="Yacute058" unicode="&#xfd;" horiz-adv-x="453"
                   d="M440 420l-254 -576h-72l82 176l-183 400h76l132 -311q7 -20 7 -28h4q0 10 6 28l131 311h71zM340 629l-87 -132h-50l53 145z"/>
            <glyph glyph-name="Thorn049" unicode="&#xfe;" horiz-adv-x="524"
                   d="M139 86h-3v-242h-69v756h69v-264h3q10 26 31 47q47 47 118 47q84 0 140 -60q56 -62 56 -160t-57 -159q-55 -61 -139 -61q-73 0 -118 48q-24 26 -31 48zM175 91q40 -43 100 -43t99 45q40 46 40 117t-40 117q-39 45 -99 45t-100 -43q-42 -45 -42 -119t42 -119z"/>
            <glyph glyph-name="Ydieresis059" unicode="&#xff;" horiz-adv-x="453"
                   d="M440 420l-254 -576h-72l82 176l-183 400h76l132 -311q7 -20 7 -28h4q0 10 6 28l131 311h71zM116 576q14 14 32 14t32 -14t14 -33t-14 -33t-32 -14t-32 14t-14 33t14 33zM278 576q14 14 32 14t32 -14t14 -33t-14 -33t-32 -14t-32 14t-14 33t14 33z"/>
            <glyph glyph-name="abreve110" unicode="&#x102;" horiz-adv-x="595"
                   d="M329 600l257 -600h-72l-57 133h-320l-56 -133h-72l257 600h63zM298 510l-133 -312h265zM375 812h55q0 -60 -40 -100q-39 -40 -92 -40q-56 0 -93 40q-39 40 -39 100h55q0 -35 22 -58q23 -26 55 -26q33 0 55 25t22 59z"/>
            <glyph glyph-name="abreve" unicode="&#x103;" horiz-adv-x="461"
                   d="M398 259v-259h-48l-8 58h-5q-47 -68 -144 -68q-75 0 -120 39q-42 37 -42 95q0 62 49 99q52 38 143 38q58 0 109 -17v15q0 110 -120 110q-67 0 -119 -34l-27 57q62 38 151 38q181 0 181 -171zM332 159v30q-43 21 -103 21q-128 0 -128 -84q0 -35 25 -57q28 -24 76 -24
q57 0 94 34q36 33 36 80zM291 638h55q0 -60 -40 -100q-39 -40 -92 -40q-56 0 -93 40q-39 40 -39 100h55q0 -35 22 -58q23 -26 55 -26q33 0 55 25t22 59z"/>
            <glyph glyph-name="dcroat062" unicode="&#x110;" horiz-adv-x="630"
                   d="M295 276h-143v-211h126q103 0 170 62q68 65 68 173t-68 173q-67 62 -170 62h-126v-213h143v-46zM0 322h82v278h200q137 0 221 -81q84 -83 84 -219t-84 -219q-84 -81 -221 -81h-200v276h-82v46z"/>
            <glyph glyph-name="dcroat" unicode="&#x111;" horiz-adv-x="524"
                   d="M351 329q-40 43 -101 43q-60 0 -100 -45q-40 -46 -40 -117t40 -117q41 -45 100 -45q61 0 101 43q42 45 42 119t-42 119zM498 476h-41v-476h-48l-10 67h-3q-39 -77 -158 -77q-86 0 -141 60q-57 62 -57 160t57 159q55 61 139 61q114 0 149 -66h3v112h-185v46h185v83h69v-83
h41v-46z"/>
            <glyph glyph-name="Itilde" unicode="&#x128;" horiz-adv-x="234"
                   d="M152 600v-600h-70v600h70zM114 703q-47 29 -66 29q-32 0 -46 -44l-4 -16l-49 6l5 26q17 83 87 83q31 0 78 -30q46 -30 67 -30q38 0 47 45l3 15l49 -5l-4 -25q-15 -84 -87 -84q-34 0 -80 30z"/>
            <glyph glyph-name="Itilde111" unicode="&#x129;" horiz-adv-x="207"
                   d="M69 0v420h69v-420h-69zM100 531q-47 29 -66 29q-32 0 -46 -44l-4 -16l-49 6l5 26q17 83 87 83q31 0 78 -30t67 -30q38 0 47 45l3 15l49 -5l-4 -25q-15 -84 -87 -84q-34 0 -80 30z"/>
            <glyph glyph-name="dotlessi" unicode="&#x131;" horiz-adv-x="207"
                   d="M69 0v420h69v-420h-69z"/>
            <glyph glyph-name="Lslash" unicode="&#x141;" horiz-adv-x="491"
                   d="M18 237v50l66 40v273h70v-230l160 99v-50l-160 -99v-255h312v-65h-382v277z"/>
            <glyph glyph-name="Lslash030" unicode="&#x142;" horiz-adv-x="227"
                   d="M22 225v46l58 36v298h69v-255l58 36v-46l-58 -36v-304h-69v261z"/>
            <glyph glyph-name="OE" unicode="&#x152;" horiz-adv-x="1027"
                   d="M935 336v-65h-300v-206h351v-65h-421v88q-84 -102 -227 -102q-133 0 -215 91q-81 89 -81 222q0 135 81 223q82 91 215 91q143 0 227 -102v89h421v-65h-351v-199h300zM503 125q61 70 61 174q0 105 -61 175q-63 73 -165 73q-101 0 -164 -73q-60 -70 -60 -175
q0 -103 60 -174q63 -72 164 -72q102 0 165 72z"/>
            <glyph glyph-name="OE039" unicode="&#x153;" horiz-adv-x="809"
                   d="M729 88l26 -50q-43 -49 -149 -49q-124 0 -180 93q-59 -92 -176 -92q-90 0 -149 59q-62 62 -62 159q0 99 62 161q58 61 149 61q115 0 176 -94q52 94 165 94q89 0 138 -61q47 -58 47 -148v-17h-313q2 -76 44 -117q39 -39 103 -39q78 0 119 40zM350 89q43 46 43 120t-43 120
q-40 45 -100 45t-100 -45q-43 -46 -43 -120t43 -120q40 -43 100 -43t100 43zM467 260h238q-15 111 -115 111q-104 0 -123 -111z"/>
            <glyph glyph-name="Scaron" unicode="&#x160;" horiz-adv-x="509"
                   d="M42 57l38 53q59 -58 172 -58q148 0 148 103q0 42 -32 68q-36 26 -126 53q-109 34 -151 70q-48 40 -48 106q0 74 57 117q58 44 156 44q140 0 197 -59l-38 -58q-53 51 -159 51q-64 0 -101 -24q-40 -25 -40 -71q0 -38 34 -60q35 -24 124 -50q109 -31 157 -76q42 -41 42 -110
q0 -76 -55 -121q-58 -49 -164 -49q-145 0 -211 71zM196 777l53 -62l55 62h64l-89 -109h-57l-91 109h65z"/>
            <glyph glyph-name="Scaron047" unicode="&#x161;" horiz-adv-x="409"
                   d="M39 42l31 48q58 -41 143 -41q96 0 96 62q0 31 -42 50q-17 7 -93 29q-135 38 -135 121q0 53 37 84q41 35 118 35q107 0 166 -34l-28 -59q-52 34 -132 34q-97 0 -97 -58q0 -29 42 -46q9 -5 93 -27q135 -38 135 -126q0 -55 -37 -86q-43 -38 -125 -38q-120 0 -172 52z
M155 606l53 -62l55 62h64l-89 -109h-57l-91 109h65z"/>
            <glyph glyph-name="Utilde" unicode="&#x168;" horiz-adv-x="630"
                   d="M138 60q-64 70 -64 191v349h70v-349q0 -91 43 -143q45 -56 128 -56q82 0 129 56q42 52 42 143v349h70v-349q0 -121 -63 -191q-65 -74 -178 -74q-112 0 -177 74zM312 702q-47 29 -66 29q-32 0 -46 -44l-4 -16l-49 6l5 26q17 83 87 83q31 0 78 -30t67 -30q38 0 47 45l3 15
l49 -5l-4 -25q-15 -84 -87 -84q-34 0 -80 30z"/>
            <glyph glyph-name="Utilde063" unicode="&#x169;" horiz-adv-x="507"
                   d="M440 420v-420h-44l-12 60h-3q-40 -70 -149 -70q-81 0 -126 54q-44 52 -44 139v237h69v-229q0 -65 28 -102q30 -41 87 -41q59 0 94 41q30 36 31 78v253h69zM248 530q-47 29 -66 29q-32 0 -46 -44l-4 -16l-49 6l5 26q17 83 87 83q31 0 78 -30t67 -30q38 0 47 45l3 15l49 -5
l-4 -25q-15 -84 -87 -84q-34 0 -80 30z"/>
            <glyph glyph-name="Ydieresis" unicode="&#x178;" horiz-adv-x="530"
                   d="M286 332l154 268h81l-221 -370v-230h-70v230l-221 370h82l156 -268l18 -38h2zM153 748q14 14 32 14t32 -14t14 -33t-14 -33t-32 -14t-32 14t-14 33t14 33zM315 748q14 14 32 14t32 -14t14 -33t-14 -33t-32 -14t-32 14t-14 33t14 33z"/>
            <glyph glyph-name="Zcaron" unicode="&#x17d;" horiz-adv-x="522"
                   d="M30 0v47l366 488h-354v65h448v-47l-359 -488h351v-65h-452zM202 777l53 -62l55 62h64l-89 -109h-57l-91 109h65z"/>
            <glyph glyph-name="Zcaron061" unicode="&#x17e;" horiz-adv-x="421"
                   d="M385 0h-349v35l256 328h-255v57h348v-32l-253 -331h253v-57zM155 606l53 -62l55 62h64l-89 -109h-57l-91 109h65z"/>
            <glyph glyph-name="florin" unicode="&#x192;" horiz-adv-x="504"
                   d="M164 115l50 250h-89v55h100l7 32q31 157 179 157q53 0 82 -18l-29 -57q-21 12 -57 12q-88 0 -107 -94l-7 -32h153v-55h-164l-53 -267q-20 -98 -110 -98q-47 0 -79 23l21 52q23 -14 46 -14q47 0 57 54z"/>
            <glyph glyph-name="Ohorn" unicode="&#x1a0;" horiz-adv-x="677"
                   d="M503 125q61 70 61 174q0 105 -61 175q-63 73 -165 73q-101 0 -164 -73q-60 -70 -60 -175q0 -103 60 -174q63 -72 164 -72q102 0 165 72zM512 561q25 -19 43 -39q80 -88 80 -223q0 -133 -80 -222q-82 -91 -217 -91q-133 0 -215 91q-81 89 -81 222q0 135 81 223
q82 91 215 91q53 0 100 -15q36 1 60 25t24 62h60q0 -61 -41 -102q-14 -14 -29 -22z"/>
            <glyph glyph-name="Ohorn064" unicode="&#x1a1;"
                   d="M350 89q43 46 43 120t-43 120q-40 45 -100 45t-100 -45q-43 -46 -43 -120t43 -120q40 -43 100 -43t100 43zM393 375q3 -2 7 -6q62 -64 62 -161t-62 -159q-61 -59 -150 -59q-90 0 -149 59q-62 62 -62 159q0 99 62 161q58 61 149 61q43 0 76 -13q40 2 63 25q24 24 24 62h60
q0 -61 -41 -102q-16 -16 -39 -27z"/>
            <glyph glyph-name="Uhorn" unicode="&#x1af;" horiz-adv-x="630"
                   d="M556 551v-300q0 -121 -63 -191q-65 -74 -178 -74q-112 0 -177 74q-64 70 -64 191v349h70v-349q0 -91 43 -143q45 -56 128 -56q82 0 129 56q42 52 42 143v349h36q26 4 44 23q24 24 24 62h60q0 -61 -41 -102q-21 -21 -53 -32z"/>
            <glyph glyph-name="Uhorn065" unicode="&#x1b0;" horiz-adv-x="507"
                   d="M440 373v-373h-44l-12 60h-3q-40 -70 -149 -70q-81 0 -126 54q-44 52 -44 139v237h69v-229q0 -65 28 -102q30 -41 87 -41q59 0 94 41q30 36 31 78v253h30q24 6 40 22q24 24 24 62h60q0 -61 -41 -102q-18 -18 -44 -29z"/>
            <glyph glyph-name="circumflex" unicode="&#x2c6;" horiz-adv-x="371"
                   d="M245 498l-53 61l-55 -61h-64l89 108h57l91 -108h-65z"/>
            <glyph glyph-name="caron" unicode="&#x2c7;" horiz-adv-x="325"
                   d="M107 777l53 -62l55 62h64l-89 -109h-57l-91 109h65z"/>
            <glyph glyph-name="breve" unicode="&#x2d8;" horiz-adv-x="396"
                   d="M275 808h55q0 -60 -40 -100q-39 -40 -92 -40q-56 0 -93 40q-39 40 -39 100h55q0 -35 22 -58q23 -26 55 -26q33 0 55 25t22 59z"/>
            <glyph glyph-name="dotaccent" unicode="&#x2d9;" horiz-adv-x="331"
                   d="M124 567q-17 17 -17 42t17 42t42 17t42 -17t17 -42t-17 -42t-42 -17t-42 17z"/>
            <glyph glyph-name="ring" unicode="&#x2da;" horiz-adv-x="288"
                   d="M71 765q29 24 74 24t73 -24q29 -24 29 -63t-29 -63q-28 -24 -73 -24t-74 24q-30 24 -30 63t30 63zM145 745q-57 0 -57 -43t57 -43q55 0 55 43t-55 43z"/>
            <glyph glyph-name="ogonek" unicode="&#x2db;" horiz-adv-x="192"
                   d="M143 -83l22 -29q-21 -25 -61 -25q-71 0 -71 68q0 43 45 72q23 15 44 21l8 -24q-55 -19 -55 -61q0 -36 35 -36q19 0 33 14z"/>
            <glyph glyph-name="tilde" unicode="&#x2dc;" horiz-adv-x="485"
                   d="M234 698q-47 29 -66 29q-32 0 -46 -44l-4 -16l-49 6l5 26q17 83 87 83q31 0 78 -30t67 -30q38 0 47 45l3 15l49 -5l-4 -25q-15 -84 -87 -84q-34 0 -80 30z"/>
            <glyph glyph-name="hungarumlaut" unicode="&#x2dd;" horiz-adv-x="395"
                   d="M327 577l-80 -158h-48l46 158h82zM174 577l-80 -158h-48l46 158h82z"/>
            <glyph glyph-name="gravecomb" unicode="&#x300;" horiz-adv-x="0"
                   d="M-255 497l-87 132l84 13l53 -145h-50z"/>
            <glyph glyph-name="acutecomb" unicode="&#x301;" horiz-adv-x="0"
                   d="M-190 629l-87 -132h-50l53 145z"/>
            <glyph glyph-name="tildecomb" unicode="&#x303;" horiz-adv-x="0"
                   d="M-206 698q-47 29 -66 29q-32 0 -46 -44l-4 -16l-49 6l5 26q17 83 87 83q31 0 78 -30q46 -30 67 -30q38 0 47 45l3 15l49 -5l-4 -25q-15 -84 -87 -84q-34 0 -80 30z"/>
            <glyph glyph-name="hookabovecomb" unicode="&#x309;" horiz-adv-x="417"
                   d="M146 584l-24 49q34 30 75 30q37 0 59 -18q24 -19 24 -52q0 -34 -26 -54q-14 -10 -16 -19l-2 -24h-47v29q0 27 22 46q13 10 13 20q0 7 -6 12q-8 6 -21 6q-23 0 -51 -25z"/>
            <glyph glyph-name="uni031B" unicode="&#x31b;" horiz-adv-x="0"
                   d="M221 598h60q0 -61 -41 -102q-43 -41 -109 -41v56q41 0 66 25q24 24 24 62z"/>
            <glyph glyph-name="dotbelowcomb" unicode="&#x323;" horiz-adv-x="0"
                   d="M-259 -94q14 14 34 14q21 0 35 -14q14 -16 14 -36q0 -19 -14 -35q-14 -14 -35 -14q-20 0 -34 14q-14 16 -14 35q0 20 14 36z"/>
            <glyph glyph-name="pi" unicode="&#x3c0;" horiz-adv-x="487"
                   d="M30 420h427v-57h-64v-363h-69v363h-161v-363h-69v363h-64v57z"/>
            <glyph glyph-name="A.dotbl" unicode="&#x1ea0;" horiz-adv-x="595"
                   d="M329 600l257 -600h-72l-57 133h-320l-56 -133h-72l257 600h63zM298 510l-133 -312h265zM263 -94q14 14 34 14q21 0 35 -14q14 -16 14 -36q0 -19 -14 -35q-14 -14 -35 -14q-20 0 -34 14q-14 16 -14 35q0 20 14 36z"/>
            <glyph glyph-name="A.dotbl066" unicode="&#x1ea1;" horiz-adv-x="461"
                   d="M398 259v-259h-48l-8 58h-5q-47 -68 -144 -68q-75 0 -120 39q-42 37 -42 95q0 62 49 99q52 38 143 38q58 0 109 -17v15q0 110 -120 110q-67 0 -119 -34l-27 57q62 38 151 38q181 0 181 -171zM332 159v30q-43 21 -103 21q-128 0 -128 -84q0 -35 25 -57q28 -24 76 -24
q57 0 94 34q36 33 36 80zM180 -94q14 14 34 14q21 0 35 -14q14 -16 14 -36q0 -19 -14 -35q-14 -14 -35 -14q-20 0 -34 14q-14 16 -14 35q0 20 14 36z"/>
            <glyph glyph-name="A.hook" unicode="&#x1ea2;" horiz-adv-x="595"
                   d="M329 600l257 -600h-72l-57 133h-320l-56 -133h-72l257 600h63zM298 510l-133 -312h265zM232 760l-24 49q34 30 75 30q37 0 59 -18q24 -19 24 -52q0 -34 -26 -54q-14 -10 -16 -19l-2 -24h-47v29q0 27 22 46q13 10 13 20q0 7 -6 12q-8 6 -21 6q-23 0 -51 -25z"/>
            <glyph glyph-name="A.hook067" unicode="&#x1ea3;" horiz-adv-x="461"
                   d="M398 259v-259h-48l-8 58h-5q-47 -68 -144 -68q-75 0 -120 39q-42 37 -42 95q0 62 49 99q52 38 143 38q58 0 109 -17v15q0 110 -120 110q-67 0 -119 -34l-27 57q62 38 151 38q181 0 181 -171zM332 159v30q-43 21 -103 21q-128 0 -128 -84q0 -35 25 -57q28 -24 76 -24
q57 0 94 34q36 33 36 80zM159 584l-24 49q35 30 75 30q36 0 59 -18q24 -19 24 -52q0 -34 -26 -54q-14 -10 -16 -19l-2 -24h-47v29q0 27 22 46q13 10 13 20q0 7 -6 12q-7 6 -21 6q-23 0 -51 -25z"/>
            <glyph glyph-name="Acir.acute" unicode="&#x1ea4;" horiz-adv-x="595"
                   d="M329 600l257 -600h-72l-57 133h-320l-56 -133h-72l257 600h63zM298 510l-133 -312h265zM357 672l-53 61l-55 -61h-64l89 108h57l91 -108h-65zM520 883l-87 -132h-50l53 145z"/>
            <glyph glyph-name="Acir.acute068" unicode="&#x1ea5;" horiz-adv-x="461"
                   d="M398 259v-259h-48l-8 58h-5q-47 -68 -144 -68q-75 0 -120 39q-42 37 -42 95q0 62 49 99q52 38 143 38q58 0 109 -17v15q0 110 -120 110q-67 0 -119 -34l-27 57q62 38 151 38q181 0 181 -171zM332 159v30q-43 21 -103 21q-128 0 -128 -84q0 -35 25 -57q28 -24 76 -24
q57 0 94 34q36 33 36 80zM268 498l-53 61l-55 -61h-64l89 108h57l91 -108h-65zM434 700l-87 -132h-50l53 145z"/>
            <glyph glyph-name="Acir.grave" unicode="&#x1ea6;" horiz-adv-x="595"
                   d="M329 600l257 -600h-72l-57 133h-320l-56 -133h-72l257 600h63zM298 510l-133 -312h265zM355 672l-53 61l-55 -61h-64l89 108h57l91 -108h-65zM164 755l-87 132l84 13l53 -145h-50z"/>
            <glyph glyph-name="Acir.grave069" unicode="&#x1ea7;" horiz-adv-x="461"
                   d="M398 259v-259h-48l-8 58h-5q-47 -68 -144 -68q-75 0 -120 39q-42 37 -42 95q0 62 49 99q52 38 143 38q58 0 109 -17v15q0 110 -120 110q-67 0 -119 -34l-27 57q62 38 151 38q181 0 181 -171zM332 159v30q-43 21 -103 21q-128 0 -128 -84q0 -35 25 -57q28 -24 76 -24
q57 0 94 34q36 33 36 80zM268 498l-53 61l-55 -61h-64l89 108h57l91 -108h-65zM83 578l-87 132l84 13l53 -145h-50z"/>
            <glyph glyph-name="Acir.hook" unicode="&#x1ea8;" horiz-adv-x="595"
                   d="M329 600l257 -600h-72l-57 133h-320l-56 -133h-72l257 600h63zM298 510l-133 -312h265zM351 671l-53 61l-55 -61h-64l89 108h57l91 -108h-65zM344 830l-24 49q34 30 75 30q37 0 59 -18q24 -19 24 -52q0 -34 -26 -54q-14 -10 -16 -19l-2 -24h-47v29q0 27 22 46
q13 10 13 20q0 7 -6 12q-8 6 -21 6q-23 0 -51 -25z"/>
            <glyph glyph-name="Acir.hook070" unicode="&#x1ea9;" horiz-adv-x="461"
                   d="M398 259v-259h-48l-8 58h-5q-47 -68 -144 -68q-75 0 -120 39q-42 37 -42 95q0 62 49 99q52 38 143 38q58 0 109 -17v15q0 110 -120 110q-67 0 -119 -34l-27 57q62 38 151 38q181 0 181 -171zM332 159v30q-43 21 -103 21q-128 0 -128 -84q0 -35 25 -57q28 -24 76 -24
q57 0 94 34q36 33 36 80zM268 498l-53 61l-55 -61h-64l89 108h57l91 -108h-65zM269 646l-24 49q35 30 75 30q36 0 59 -18q24 -20 24 -52q0 -34 -26 -54q-14 -10 -16 -19l-2 -24h-47v29q0 27 22 46q13 10 13 20q0 7 -6 12q-7 6 -21 6q-23 0 -51 -25z"/>
            <glyph glyph-name="Acir.tilde" unicode="&#x1eaa;" horiz-adv-x="595"
                   d="M329 600l257 -600h-72l-57 133h-320l-56 -133h-72l257 600h63zM298 510l-133 -312h265zM351 672l-53 61l-55 -61h-64l89 108h57l91 -108h-65zM315 815q-47 29 -66 29q-32 0 -46 -44l-4 -16l-49 6l5 26q17 83 87 83q32 0 78 -30q47 -30 67 -30q38 0 47 45l3 15l49 -5
l-4 -25q-15 -84 -87 -84q-33 0 -80 30z"/>
            <glyph glyph-name="Acir.tilde071" unicode="&#x1eab;" horiz-adv-x="461"
                   d="M398 259v-259h-48l-8 58h-5q-47 -68 -144 -68q-75 0 -120 39q-42 37 -42 95q0 62 49 99q52 38 143 38q58 0 109 -17v15q0 110 -120 110q-67 0 -119 -34l-27 57q62 38 151 38q181 0 181 -171zM332 159v30q-43 21 -103 21q-128 0 -128 -84q0 -35 25 -57q28 -24 76 -24
q57 0 94 34q36 33 36 80zM268 498l-53 61l-55 -61h-64l89 108h57l91 -108h-65zM249 625q-47 29 -66 29q-32 0 -46 -44l-4 -16l-49 6l5 26q17 83 87 83q32 0 78 -30t67 -30q38 0 47 45l3 15l49 -5l-4 -25q-15 -84 -87 -84q-33 0 -80 30z"/>
            <glyph glyph-name="Acir.dotbl" unicode="&#x1eac;" horiz-adv-x="595"
                   d="M329 600l257 -600h-72l-57 133h-320l-56 -133h-72l257 600h63zM298 510l-133 -312h265zM351 673l-53 61l-55 -61h-64l89 108h57l91 -108h-65zM263 -94q14 14 34 14q21 0 35 -14q14 -16 14 -36q0 -19 -14 -35q-14 -14 -35 -14q-20 0 -34 14q-14 16 -14 35q0 20 14 36z"/>
            <glyph glyph-name="Acir.dotbl072" unicode="&#x1ead;" horiz-adv-x="461"
                   d="M398 259v-259h-48l-8 58h-5q-47 -68 -144 -68q-75 0 -120 39q-42 37 -42 95q0 62 49 99q52 38 143 38q58 0 109 -17v15q0 110 -120 110q-67 0 -119 -34l-27 57q62 38 151 38q181 0 181 -171zM332 159v30q-43 21 -103 21q-128 0 -128 -84q0 -35 25 -57q28 -24 76 -24
q57 0 94 34q36 33 36 80zM268 498l-53 61l-55 -61h-64l89 108h57l91 -108h-65zM180 -94q14 14 34 14q21 0 35 -14q14 -16 14 -36q0 -19 -14 -35q-14 -14 -35 -14q-20 0 -34 14q-14 16 -14 35q0 20 14 36z"/>
            <glyph glyph-name="Abrv.acute" unicode="&#x1eae;" horiz-adv-x="595"
                   d="M329 600l257 -600h-72l-57 133h-320l-56 -133h-72l257 600h63zM298 510l-133 -312h265zM377 814h55q0 -60 -40 -100q-39 -40 -92 -40q-56 0 -93 40q-39 40 -39 100h55q0 -35 22 -58q23 -26 55 -26q33 0 55 25t22 59zM420 946l-87 -132h-50l53 145z"/>
            <glyph glyph-name="Abrv.acute073" unicode="&#x1eaf;" horiz-adv-x="461"
                   d="M398 259v-259h-48l-8 58h-5q-47 -68 -144 -68q-75 0 -120 39q-42 37 -42 95q0 62 49 99q52 38 143 38q58 0 109 -17v15q0 110 -120 110q-67 0 -119 -34l-27 57q62 38 151 38q181 0 181 -171zM332 159v30q-43 21 -103 21q-128 0 -128 -84q0 -35 25 -57q28 -24 76 -24
q57 0 94 34q36 33 36 80zM291 638h55q0 -60 -40 -100q-39 -40 -92 -40q-56 0 -93 40q-39 40 -39 100h55q0 -35 22 -58q23 -26 55 -26q33 0 55 25t22 59zM325 765l-87 -132h-50l53 145z"/>
            <glyph glyph-name="Abrv.grave" unicode="&#x1eb0;" horiz-adv-x="595"
                   d="M329 600l257 -600h-72l-57 133h-320l-56 -133h-72l257 600h63zM298 510l-133 -312h265zM377 813h55q0 -60 -40 -100q-39 -40 -92 -40q-56 0 -93 40q-39 41 -39 100h55q0 -35 22 -58q23 -26 55 -26q33 0 55 25t22 59zM283 814l-87 132l84 13l53 -145h-50z"/>
            <glyph glyph-name="Abrv.grave074" unicode="&#x1eb1;" horiz-adv-x="461"
                   d="M398 259v-259h-48l-8 58h-5q-47 -68 -144 -68q-75 0 -120 39q-42 37 -42 95q0 62 49 99q52 38 143 38q58 0 109 -17v15q0 110 -120 110q-67 0 -119 -34l-27 57q62 38 151 38q181 0 181 -171zM332 159v30q-43 21 -103 21q-128 0 -128 -84q0 -35 25 -57q28 -24 76 -24
q57 0 94 34q36 33 36 80zM292 638h55q0 -60 -40 -100q-39 -40 -92 -40q-56 0 -93 40q-39 40 -39 100h55q0 -35 22 -58q23 -26 55 -26q33 0 55 25t22 59zM199 636l-87 132l84 13l53 -145h-50z"/>
            <glyph glyph-name="Abrv.hook" unicode="&#x1eb2;" horiz-adv-x="595"
                   d="M329 600l257 -600h-72l-57 133h-320l-56 -133h-72l257 600h63zM298 510l-133 -312h265zM375 812h55q0 -60 -40 -100q-39 -40 -92 -40q-56 0 -93 40q-39 40 -39 100h55q0 -35 22 -58q23 -26 55 -26q33 0 55 25t22 59zM235 875l-24 37q34 22 75 22q37 0 59 -13
q24 -13 24 -39t-26 -41q-14 -7 -16 -14l-2 -18h-47v22q0 21 22 34q13 7 13 15q0 6 -6 9q-8 5 -21 5q-23 0 -51 -19z"/>
            <glyph glyph-name="Abrv.hook075" unicode="&#x1eb3;" horiz-adv-x="461"
                   d="M398 259v-259h-48l-8 58h-5q-47 -68 -144 -68q-75 0 -120 39q-42 37 -42 95q0 62 49 99q52 38 143 38q58 0 109 -17v15q0 110 -120 110q-67 0 -119 -34l-27 57q62 38 151 38q181 0 181 -171zM332 159v30q-43 21 -103 21q-128 0 -128 -84q0 -35 25 -57q28 -24 76 -24
q57 0 94 34q36 33 36 80zM291 638h55q0 -60 -40 -100q-39 -40 -92 -40q-56 0 -93 40q-39 40 -39 100h55q0 -35 22 -58q23 -26 55 -26q33 0 55 25t22 59zM150 716l-24 49q34 30 75 30q37 0 59 -18q24 -19 24 -52q0 -34 -26 -54q-14 -10 -16 -19l-2 -24h-47v29q0 27 22 46
q13 10 13 20q0 7 -6 12q-8 6 -21 6q-23 0 -51 -25z"/>
            <glyph glyph-name="Abrv.tilde" unicode="&#x1eb4;" horiz-adv-x="595"
                   d="M329 600l257 -600h-72l-57 133h-320l-56 -133h-72l257 600h63zM298 510l-133 -312h265zM372 810h55q0 -60 -40 -100q-39 -40 -92 -40q-56 0 -93 40q-39 40 -39 100h55q0 -35 22 -58q23 -26 55 -26q33 0 55 25t22 59zM301 859q-47 29 -66 29q-32 0 -46 -44l-4 -16l-49 6
l5 26q17 83 87 83q32 0 78 -30t67 -30q38 0 47 45l3 15l49 -5l-4 -25q-15 -84 -87 -84q-33 0 -80 30z"/>
            <glyph glyph-name="Abrv.tilde076" unicode="&#x1eb5;" horiz-adv-x="461"
                   d="M398 259v-259h-48l-8 58h-5q-47 -68 -144 -68q-75 0 -120 39q-42 37 -42 95q0 62 49 99q52 38 143 38q58 0 109 -17v15q0 110 -120 110q-67 0 -119 -34l-27 57q62 38 151 38q181 0 181 -171zM332 159v30q-43 21 -103 21q-128 0 -128 -84q0 -35 25 -57q28 -24 76 -24
q57 0 94 34q36 33 36 80zM291 638h55q0 -60 -40 -100q-39 -40 -92 -40q-56 0 -93 40q-39 40 -39 100h55q0 -35 22 -58q23 -26 55 -26q33 0 55 25t22 59zM220 703q-47 29 -66 29q-32 0 -46 -44l-4 -16l-49 6l5 26q17 83 87 83q31 0 78 -30q46 -30 67 -30q38 0 47 45l3 15
l49 -5l-4 -25q-15 -84 -87 -84q-34 0 -80 30z"/>
            <glyph glyph-name="Abrv.dotbl" unicode="&#x1eb6;" horiz-adv-x="595"
                   d="M329 600l257 -600h-72l-57 133h-320l-56 -133h-72l257 600h63zM298 510l-133 -312h265zM375 813h55q0 -60 -40 -100q-39 -40 -92 -40q-56 0 -93 40q-39 41 -39 100h55q0 -35 22 -58q23 -26 55 -26q33 0 55 25t22 59zM263 -94q14 14 34 14q21 0 35 -14q14 -16 14 -36
q0 -19 -14 -35q-14 -14 -35 -14q-20 0 -34 14q-14 16 -14 35q0 20 14 36z"/>
            <glyph glyph-name="Abrv.dotbl077" unicode="&#x1eb7;" horiz-adv-x="461"
                   d="M398 259v-259h-48l-8 58h-5q-47 -68 -144 -68q-75 0 -120 39q-42 37 -42 95q0 62 49 99q52 38 143 38q58 0 109 -17v15q0 110 -120 110q-67 0 -119 -34l-27 57q62 38 151 38q181 0 181 -171zM332 159v30q-43 21 -103 21q-128 0 -128 -84q0 -35 25 -57q28 -24 76 -24
q57 0 94 34q36 33 36 80zM291 638h55q0 -60 -40 -100q-39 -40 -92 -40q-56 0 -93 40q-39 40 -39 100h55q0 -35 22 -58q23 -26 55 -26q33 0 55 25t22 59zM180 -94q14 14 34 14q21 0 35 -14q14 -16 14 -36q0 -19 -14 -35q-14 -14 -35 -14q-20 0 -34 14q-14 16 -14 35
q0 20 14 36z"/>
            <glyph glyph-name="E.dotbl" unicode="&#x1eb8;" horiz-adv-x="544"
                   d="M452 336v-65h-300v-206h351v-65h-421v600h421v-65h-351v-199h300zM258 -94q14 14 34 14q21 0 35 -14q14 -16 14 -36q0 -19 -14 -35q-14 -14 -35 -14q-20 0 -34 14q-14 16 -14 35q0 20 14 36z"/>
            <glyph glyph-name="E.dotbl078" unicode="&#x1eb9;" horiz-adv-x="457"
                   d="M375 88l26 -50q-43 -49 -149 -49q-97 0 -155 61q-57 60 -57 159q0 97 54 158q54 63 143 63t138 -61q47 -58 47 -148v-17h-313q2 -76 44 -117q39 -39 103 -39q78 0 119 40zM113 260h238q-15 111 -115 111q-104 0 -123 -111zM197 -94q14 14 34 14q21 0 35 -14
q14 -16 14 -36q0 -19 -14 -35q-14 -14 -35 -14q-20 0 -34 14q-14 16 -14 35q0 20 14 36z"/>
            <glyph glyph-name="E.hook" unicode="&#x1eba;" horiz-adv-x="544"
                   d="M452 336v-65h-300v-206h351v-65h-421v600h421v-65h-351v-199h300zM238 810l-24 49q34 30 75 30q37 0 59 -18q24 -20 24 -52q0 -34 -26 -54q-14 -10 -16 -19l-2 -24h-47v29q0 27 22 46q13 10 13 20q0 7 -6 12q-8 6 -21 6q-23 0 -51 -25z"/>
            <glyph glyph-name="E.hook079" unicode="&#x1ebb;" horiz-adv-x="457"
                   d="M375 88l26 -50q-43 -49 -149 -49q-97 0 -155 61q-57 60 -57 159q0 97 54 158q54 63 143 63t138 -61q47 -58 47 -148v-17h-313q2 -76 44 -117q39 -39 103 -39q78 0 119 40zM113 260h238q-15 111 -115 111q-104 0 -123 -111zM176 584l-24 49q34 30 75 30q37 0 59 -18
q24 -19 24 -52q0 -34 -26 -54q-14 -10 -16 -19l-2 -24h-47v29q0 27 22 46q13 10 13 20q0 7 -6 12q-8 6 -21 6q-23 0 -51 -25z"/>
            <glyph glyph-name="E.tilde" unicode="&#x1ebc;" horiz-adv-x="544"
                   d="M452 336v-65h-300v-206h351v-65h-421v600h421v-65h-351v-199h300zM290 703q-47 29 -66 29q-32 0 -46 -44l-4 -16l-49 6l5 26q17 83 87 83q31 0 78 -30t67 -30q38 0 47 45l3 15l49 -5l-4 -25q-15 -84 -87 -84q-34 0 -80 30z"/>
            <glyph glyph-name="E.tilde080" unicode="&#x1ebd;" horiz-adv-x="457"
                   d="M375 88l26 -50q-43 -49 -149 -49q-97 0 -155 61q-57 60 -57 159q0 97 54 158q54 63 143 63t138 -61q47 -58 47 -148v-17h-313q2 -76 44 -117q39 -39 103 -39q78 0 119 40zM113 260h238q-15 111 -115 111q-104 0 -123 -111zM239 530q-47 29 -66 29q-32 0 -46 -44l-4 -16
l-49 6l5 26q17 83 87 83q32 0 78 -30q47 -30 67 -30q38 0 47 45l3 15l49 -5l-4 -25q-15 -84 -87 -84q-33 0 -80 30z"/>
            <glyph glyph-name="Ecir.acute" unicode="&#x1ebe;" horiz-adv-x="544"
                   d="M452 336v-65h-300v-206h351v-65h-421v600h421v-65h-351v-199h300zM352 672l-53 61l-55 -61h-64l89 108h57l91 -108h-65zM515 883l-87 -132h-50l53 145z"/>
            <glyph glyph-name="Ecir.acute081" unicode="&#x1ebf;" horiz-adv-x="457"
                   d="M375 88l26 -50q-43 -49 -149 -49q-97 0 -155 61q-57 60 -57 159q0 97 54 158q54 63 143 63t138 -61q47 -58 47 -148v-17h-313q2 -76 44 -117q39 -39 103 -39q78 0 119 40zM113 260h238q-15 111 -115 111q-104 0 -123 -111zM285 498l-53 61l-55 -61h-64l89 108h57l91 -108
h-65zM459 703l-87 -132h-50l53 145z"/>
            <glyph glyph-name="Ecir.grave" unicode="&#x1ec0;" horiz-adv-x="544"
                   d="M452 336v-65h-300v-206h351v-65h-421v600h421v-65h-351v-199h300zM352 671l-53 61l-55 -61h-64l89 108h57l91 -108h-65zM161 754l-87 132l84 13l53 -145h-50z"/>
            <glyph glyph-name="Ecir.grave082" unicode="&#x1ec1;" horiz-adv-x="457"
                   d="M375 88l26 -50q-43 -49 -149 -49q-97 0 -155 61q-57 60 -57 159q0 97 54 158q54 63 143 63t138 -61q47 -58 47 -148v-17h-313q2 -76 44 -117q39 -39 103 -39q78 0 119 40zM113 260h238q-15 111 -115 111q-104 0 -123 -111zM285 498l-53 61l-55 -61h-64l89 108h57l91 -108
h-65zM85 571l-87 132l84 13l53 -145h-50z"/>
            <glyph glyph-name="Ecir.hook" unicode="&#x1ec2;" horiz-adv-x="544"
                   d="M452 336v-65h-300v-206h351v-65h-421v600h421v-65h-351v-199h300zM346 671l-53 61l-55 -61h-64l89 108h57l91 -108h-65zM339 830l-24 49q35 30 75 30q36 0 59 -18q24 -19 24 -52q0 -34 -26 -54q-14 -10 -16 -19l-2 -24h-47v29q0 27 22 46q13 10 13 20q0 7 -6 12
q-7 6 -21 6q-23 0 -51 -25z"/>
            <glyph glyph-name="Ecir.hook083" unicode="&#x1ec3;" horiz-adv-x="457"
                   d="M375 88l26 -50q-43 -49 -149 -49q-97 0 -155 61q-57 60 -57 159q0 97 54 158q54 63 143 63t138 -61q47 -58 47 -148v-17h-313q2 -76 44 -117q39 -39 103 -39q78 0 119 40zM113 260h238q-15 111 -115 111q-104 0 -123 -111zM285 498l-53 61l-55 -61h-64l89 108h57l91 -108
h-65zM288 653l-24 49q34 30 75 30q37 0 59 -18q24 -20 24 -52q0 -34 -26 -54q-14 -10 -16 -19l-2 -24h-47v29q0 27 22 46q13 10 13 20q0 8 -6 12q-8 6 -21 6q-23 0 -51 -25z"/>
            <glyph glyph-name="Ecir.tilde" unicode="&#x1ec4;" horiz-adv-x="544"
                   d="M452 336v-65h-300v-206h351v-65h-421v600h421v-65h-351v-199h300zM301 674l-53 61l-55 -61h-64l89 108h57l91 -108h-65zM265 817q-47 29 -66 29q-32 0 -46 -44l-4 -16l-49 6l5 26q17 83 87 83q32 0 78 -30q47 -30 67 -30q38 0 47 45l3 15l49 -5l-4 -25q-15 -84 -87 -84
q-33 0 -80 30z"/>
            <glyph glyph-name="Ecir.tilde084" unicode="&#x1ec5;" horiz-adv-x="457"
                   d="M375 88l26 -50q-43 -49 -149 -49q-97 0 -155 61q-57 60 -57 159q0 97 54 158q54 63 143 63t138 -61q47 -58 47 -148v-17h-313q2 -76 44 -117q39 -39 103 -39q78 0 119 40zM113 260h238q-15 111 -115 111q-104 0 -123 -111zM285 498l-53 61l-55 -61h-64l89 108h57l91 -108
h-65zM263 642q-47 29 -66 29q-32 0 -46 -44l-4 -16l-49 6l5 26q17 83 87 83q32 0 78 -30t67 -30q38 0 47 45l3 15l49 -5l-4 -25q-15 -84 -87 -84q-33 0 -80 30z"/>
            <glyph glyph-name="Ecir.dotbl" unicode="&#x1ec6;" horiz-adv-x="544"
                   d="M452 336v-65h-300v-206h351v-65h-421v600h421v-65h-351v-199h300zM346 673l-53 61l-55 -61h-64l89 108h57l91 -108h-65zM258 -94q14 14 34 14q21 0 35 -14q14 -16 14 -36q0 -19 -14 -35q-14 -14 -35 -14q-20 0 -34 14q-14 16 -14 35q0 20 14 36z"/>
            <glyph glyph-name="Ecir.dotbl085" unicode="&#x1ec7;" horiz-adv-x="457"
                   d="M375 88l26 -50q-43 -49 -149 -49q-97 0 -155 61q-57 60 -57 159q0 97 54 158q54 63 143 63t138 -61q47 -58 47 -148v-17h-313q2 -76 44 -117q39 -39 103 -39q78 0 119 40zM113 260h238q-15 111 -115 111q-104 0 -123 -111zM285 498l-53 61l-55 -61h-64l89 108h57l91 -108
h-65zM218 -94q14 14 34 14q21 0 35 -14q14 -16 14 -36q0 -19 -14 -35q-14 -14 -35 -14q-20 0 -34 14q-14 16 -14 35q0 20 14 36z"/>
            <glyph glyph-name="I.hook" unicode="&#x1ec8;" horiz-adv-x="234"
                   d="M152 600v-600h-70v600h70zM47 760l-24 49q35 30 75 30q36 0 59 -18q24 -19 24 -52q0 -34 -26 -54q-14 -10 -16 -19l-2 -24h-47v29q0 27 22 46q13 10 13 20q0 7 -6 12q-7 6 -21 6q-23 0 -51 -25z"/>
            <glyph glyph-name="I.hook086" unicode="&#x1ec9;" horiz-adv-x="207"
                   d="M69 0v420h69v-420h-69zM36 585l-24 49q34 30 75 30q37 0 59 -18q24 -20 24 -52q0 -34 -26 -54q-14 -10 -16 -19l-2 -24h-47v29q0 27 22 46q13 10 13 20q0 8 -6 12q-8 6 -21 6q-23 0 -51 -25z"/>
            <glyph glyph-name="I.dotbl" unicode="&#x1eca;" horiz-adv-x="234"
                   d="M152 600v-600h-70v600h70zM83 -94q14 14 34 14q21 0 35 -14q14 -16 14 -36q0 -19 -14 -35q-14 -14 -35 -14q-20 0 -34 14q-14 16 -14 35q0 20 14 36z"/>
            <glyph glyph-name="I.dotbl087" unicode="&#x1ecb;" horiz-adv-x="207"
                   d="M70 525q-14 14 -14 33t14 33t33 14t33 -14t14 -33t-14 -33q-13 -13 -33 -13t-33 13zM69 0v420h69v-420h-69zM69 -94q14 14 34 14q21 0 35 -14q14 -16 14 -36q0 -19 -14 -35q-14 -14 -35 -14q-20 0 -34 14q-14 16 -14 35q0 20 14 36z"/>
            <glyph glyph-name="O.dotbl" unicode="&#x1ecc;" horiz-adv-x="677"
                   d="M123 77q-81 89 -81 222q0 135 81 223q82 91 215 91q135 0 217 -91q80 -88 80 -223q0 -133 -80 -222q-82 -91 -217 -91q-133 0 -215 91zM503 125q61 70 61 174q0 105 -61 175q-63 73 -165 73q-101 0 -164 -73q-60 -70 -60 -175q0 -103 60 -174q63 -72 164 -72
q102 0 165 72zM304 -94q14 14 34 14q21 0 35 -14q14 -16 14 -36q0 -19 -14 -35q-14 -14 -35 -14q-20 0 -34 14q-14 16 -14 35q0 20 14 36z"/>
            <glyph glyph-name="O.dotbl088" unicode="&#x1ecd;"
                   d="M400 49q-61 -59 -150 -59q-90 0 -149 59q-62 62 -62 159q0 99 62 161q58 61 149 61q89 0 150 -61q62 -64 62 -161t-62 -159zM350 89q43 46 43 120t-43 120q-40 45 -100 45t-100 -45q-43 -46 -43 -120t43 -120q40 -43 100 -43t100 43zM216 -94q14 14 34 14q21 0 35 -14
q14 -16 14 -36q0 -19 -14 -35q-14 -14 -35 -14q-20 0 -34 14q-14 16 -14 35q0 20 14 36z"/>
            <glyph glyph-name="O.hook" unicode="&#x1ece;" horiz-adv-x="677"
                   d="M123 77q-81 89 -81 222q0 135 81 223q82 91 215 91q135 0 217 -91q80 -88 80 -223q0 -133 -80 -222q-82 -91 -217 -91q-133 0 -215 91zM503 125q61 70 61 174q0 105 -61 175q-63 73 -165 73q-101 0 -164 -73q-60 -70 -60 -175q0 -103 60 -174q63 -72 164 -72
q102 0 165 72zM287 760l-24 49q35 30 75 30q36 0 59 -18q24 -19 24 -52q0 -34 -26 -54q-14 -10 -16 -19l-2 -24h-47v29q0 27 22 46q13 10 13 20q0 7 -6 12q-7 6 -21 6q-23 0 -51 -25z"/>
            <glyph glyph-name="O.hook089" unicode="&#x1ecf;"
                   d="M400 49q-61 -59 -150 -59q-90 0 -149 59q-62 62 -62 159q0 99 62 161q58 61 149 61q89 0 150 -61q62 -64 62 -161t-62 -159zM350 89q43 46 43 120t-43 120q-40 45 -100 45t-100 -45q-43 -46 -43 -120t43 -120q40 -43 100 -43t100 43zM196 584l-24 49q34 30 75 30
q37 0 59 -18q24 -19 24 -52q0 -34 -26 -54q-14 -10 -16 -19l-2 -24h-47v29q0 27 22 46q13 10 13 20q0 7 -6 12q-8 6 -21 6q-23 0 -51 -25z"/>
            <glyph glyph-name="Ocir.acute" unicode="&#x1ed0;" horiz-adv-x="677"
                   d="M123 77q-81 89 -81 222q0 135 81 223q82 91 215 91q135 0 217 -91q80 -88 80 -223q0 -133 -80 -222q-82 -91 -217 -91q-133 0 -215 91zM503 125q61 70 61 174q0 105 -61 175q-63 73 -165 73q-101 0 -164 -73q-60 -70 -60 -175q0 -103 60 -174q63 -72 164 -72
q102 0 165 72zM398 672l-53 61l-55 -61h-64l89 108h57l91 -108h-65zM561 883l-87 -132h-50l53 145z"/>
            <glyph glyph-name="Ocir.acute090" unicode="&#x1ed1;"
                   d="M400 49q-61 -59 -150 -59q-90 0 -149 59q-62 62 -62 159q0 99 62 161q58 61 149 61q89 0 150 -61q62 -64 62 -161t-62 -159zM350 89q43 46 43 120t-43 120q-40 45 -100 45t-100 -45q-43 -46 -43 -120t43 -120q40 -43 100 -43t100 43zM304 498l-53 61l-55 -61h-64l89 108
h57l91 -108h-65zM476 705l-87 -132h-50l53 145z"/>
            <glyph glyph-name="Ocir.grave" unicode="&#x1ed2;" horiz-adv-x="677"
                   d="M123 77q-81 89 -81 222q0 135 81 223q82 91 215 91q135 0 217 -91q80 -88 80 -223q0 -133 -80 -222q-82 -91 -217 -91q-133 0 -215 91zM503 125q61 70 61 174q0 105 -61 175q-63 73 -165 73q-101 0 -164 -73q-60 -70 -60 -175q0 -103 60 -174q63 -72 164 -72
q102 0 165 72zM398 671l-53 61l-55 -61h-64l89 108h57l91 -108h-65zM207 754l-87 132l84 13l53 -145h-50z"/>
            <glyph glyph-name="Ocir.grave091" unicode="&#x1ed3;"
                   d="M400 49q-61 -59 -150 -59q-90 0 -149 59q-62 62 -62 159q0 99 62 161q58 61 149 61q89 0 150 -61q62 -64 62 -161t-62 -159zM350 89q43 46 43 120t-43 120q-40 45 -100 45t-100 -45q-43 -46 -43 -120t43 -120q40 -43 100 -43t100 43zM304 498l-53 61l-55 -61h-64l89 108
h57l91 -108h-65zM131 585l-87 132l84 13l53 -145h-50z"/>
            <glyph glyph-name="Ocir.hook" unicode="&#x1ed4;" horiz-adv-x="677"
                   d="M123 77q-81 89 -81 222q0 135 81 223q82 91 215 91q135 0 217 -91q80 -88 80 -223q0 -133 -80 -222q-82 -91 -217 -91q-133 0 -215 91zM503 125q61 70 61 174q0 105 -61 175q-63 73 -165 73q-101 0 -164 -73q-60 -70 -60 -175q0 -103 60 -174q63 -72 164 -72
q102 0 165 72zM392 671l-53 61l-55 -61h-64l89 108h57l91 -108h-65zM385 830l-24 49q35 30 75 30q36 0 59 -18q24 -19 24 -52q0 -34 -26 -54q-14 -10 -16 -19l-2 -24h-47v29q0 27 22 46q13 10 13 20q0 7 -6 12q-7 6 -21 6q-23 0 -51 -25z"/>
            <glyph glyph-name="Ocir.hook092" unicode="&#x1ed5;"
                   d="M400 49q-61 -59 -150 -59q-90 0 -149 59q-62 62 -62 159q0 99 62 161q58 61 149 61q89 0 150 -61q62 -64 62 -161t-62 -159zM350 89q43 46 43 120t-43 120q-40 45 -100 45t-100 -45q-43 -46 -43 -120t43 -120q40 -43 100 -43t100 43zM304 498l-53 61l-55 -61h-64l89 108
h57l91 -108h-65zM311 645l-24 49q35 30 75 30q37 0 59 -18q24 -20 24 -52q0 -34 -26 -54q-14 -10 -16 -19l-2 -24h-47v29q0 27 22 46q13 10 13 20q0 8 -6 12q-7 6 -21 6q-23 0 -51 -25z"/>
            <glyph glyph-name="Ocir.tilde" unicode="&#x1ed6;" horiz-adv-x="677"
                   d="M123 77q-81 89 -81 222q0 135 81 223q82 91 215 91q135 0 217 -91q80 -88 80 -223q0 -133 -80 -222q-82 -91 -217 -91q-133 0 -215 91zM503 125q61 70 61 174q0 105 -61 175q-63 73 -165 73q-101 0 -164 -73q-60 -70 -60 -175q0 -103 60 -174q63 -72 164 -72
q102 0 165 72zM404 674l-53 61l-55 -61h-64l89 108h57l91 -108h-65zM368 817q-47 29 -66 29q-32 0 -46 -44l-4 -16l-49 6l5 26q17 83 87 83q31 0 78 -30q46 -30 67 -30q38 0 47 45l3 15l49 -5l-4 -25q-15 -84 -87 -84q-34 0 -80 30z"/>
            <glyph glyph-name="Ocir.tilde093" unicode="&#x1ed7;"
                   d="M400 49q-61 -59 -150 -59q-90 0 -149 59q-62 62 -62 159q0 99 62 161q58 61 149 61q89 0 150 -61q62 -64 62 -161t-62 -159zM350 89q43 46 43 120t-43 120q-40 45 -100 45t-100 -45q-43 -46 -43 -120t43 -120q40 -43 100 -43t100 43zM304 498l-53 61l-55 -61h-64l89 108
h57l91 -108h-65zM289 657q-47 29 -66 29q-32 0 -46 -44l-4 -16l-49 6l5 26q17 83 87 83q32 0 78 -30q47 -30 67 -30q38 0 47 45l3 15l49 -5l-4 -25q-15 -84 -87 -84q-33 0 -80 30z"/>
            <glyph glyph-name="Ocir.dotbl" unicode="&#x1ed8;" horiz-adv-x="677"
                   d="M123 77q-81 89 -81 222q0 135 81 223q82 91 215 91q135 0 217 -91q80 -88 80 -223q0 -133 -80 -222q-82 -91 -217 -91q-133 0 -215 91zM503 125q61 70 61 174q0 105 -61 175q-63 73 -165 73q-101 0 -164 -73q-60 -70 -60 -175q0 -103 60 -174q63 -72 164 -72
q102 0 165 72zM392 674l-53 61l-55 -61h-64l89 108h57l91 -108h-65zM304 -94q14 14 34 14q21 0 35 -14q14 -16 14 -36q0 -19 -14 -35q-14 -14 -35 -14q-20 0 -34 14q-14 16 -14 35q0 20 14 36z"/>
            <glyph glyph-name="Ocir.dotbl094" unicode="&#x1ed9;"
                   d="M400 49q-61 -59 -150 -59q-90 0 -149 59q-62 62 -62 159q0 99 62 161q58 61 149 61q89 0 150 -61q62 -64 62 -161t-62 -159zM350 89q43 46 43 120t-43 120q-40 45 -100 45t-100 -45q-43 -46 -43 -120t43 -120q40 -43 100 -43t100 43zM304 498l-53 61l-55 -61h-64l89 108
h57l91 -108h-65zM216 -94q14 14 34 14q21 0 35 -14q14 -16 14 -36q0 -19 -14 -35q-14 -14 -35 -14q-20 0 -34 14q-14 16 -14 35q0 20 14 36z"/>
            <glyph glyph-name="ohorn.acute095" unicode="&#x1eda;" horiz-adv-x="677"
                   d="M503 125q61 70 61 174q0 105 -61 175q-63 73 -165 73q-101 0 -164 -73q-60 -70 -60 -175q0 -103 60 -174q63 -72 164 -72q102 0 165 72zM512 561q25 -19 43 -39q80 -88 80 -223q0 -133 -80 -222q-82 -91 -217 -91q-133 0 -215 91q-81 89 -81 222q0 135 81 223
q82 91 215 91q53 0 100 -15q36 1 60 25t24 62h60q0 -61 -41 -102q-14 -14 -29 -22zM436 804l-87 -132h-50l53 145z"/>
            <glyph glyph-name="ohorn.acute" unicode="&#x1edb;"
                   d="M350 89q43 46 43 120t-43 120q-40 45 -100 45t-100 -45q-43 -46 -43 -120t43 -120q40 -43 100 -43t100 43zM393 375q3 -2 7 -6q62 -64 62 -161t-62 -159q-61 -59 -150 -59q-90 0 -149 59q-62 62 -62 159q0 99 62 161q58 61 149 61q43 0 76 -13q40 2 63 25q24 24 24 62h60
q0 -61 -41 -102q-16 -16 -39 -27zM361 631l-87 -132h-50l53 145z"/>
            <glyph glyph-name="Ohorn.grave" unicode="&#x1edc;" horiz-adv-x="677"
                   d="M503 125q61 70 61 174q0 105 -61 175q-63 73 -165 73q-101 0 -164 -73q-60 -70 -60 -175q0 -103 60 -174q63 -72 164 -72q102 0 165 72zM512 561q25 -19 43 -39q80 -88 80 -223q0 -133 -80 -222q-82 -91 -217 -91q-133 0 -215 91q-81 89 -81 222q0 135 81 223
q82 91 215 91q53 0 100 -15q36 1 60 25t24 62h60q0 -61 -41 -102q-14 -14 -29 -22zM307 672l-87 132l84 13l53 -145h-50z"/>
            <glyph glyph-name="Ohorn.grave112" unicode="&#x1edd;"
                   d="M350 89q43 46 43 120t-43 120q-40 45 -100 45t-100 -45q-43 -46 -43 -120t43 -120q40 -43 100 -43t100 43zM393 375q3 -2 7 -6q62 -64 62 -161t-62 -159q-61 -59 -150 -59q-90 0 -149 59q-62 62 -62 159q0 99 62 161q58 61 149 61q43 0 76 -13q40 2 63 25q24 24 24 62h60
q0 -61 -41 -102q-16 -16 -39 -27zM248 497l-87 132l84 13l53 -145h-50z"/>
            <glyph glyph-name="Ohorn.hook" unicode="&#x1ede;" horiz-adv-x="677"
                   d="M503 125q61 70 61 174q0 105 -61 175q-63 73 -165 73q-101 0 -164 -73q-60 -70 -60 -175q0 -103 60 -174q63 -72 164 -72q102 0 165 72zM512 561q25 -19 43 -39q80 -88 80 -223q0 -133 -80 -222q-82 -91 -217 -91q-133 0 -215 91q-81 89 -81 222q0 135 81 223
q82 91 215 91q53 0 100 -15q36 1 60 25t24 62h60q0 -61 -41 -102q-14 -14 -29 -22zM265 760l-24 49q35 30 75 30q36 0 59 -18q24 -19 24 -52q0 -34 -26 -54q-14 -10 -16 -19l-2 -24h-47v29q0 27 22 46q13 10 13 20q0 7 -6 12q-7 6 -21 6q-23 0 -51 -25z"/>
            <glyph glyph-name="Ohorn.hook096" unicode="&#x1edf;"
                   d="M350 89q43 46 43 120t-43 120q-40 45 -100 45t-100 -45q-43 -46 -43 -120t43 -120q40 -43 100 -43t100 43zM393 375q3 -2 7 -6q62 -64 62 -161t-62 -159q-61 -59 -150 -59q-90 0 -149 59q-62 62 -62 159q0 99 62 161q58 61 149 61q43 0 76 -13q40 2 63 25q24 24 24 62h60
q0 -61 -41 -102q-16 -16 -39 -27zM184 584l-24 49q34 30 75 30q37 0 59 -18q24 -19 24 -52q0 -34 -26 -54q-14 -10 -16 -19l-2 -24h-47v29q0 27 22 46q13 10 13 20q0 7 -6 12q-8 6 -21 6q-23 0 -51 -25z"/>
            <glyph glyph-name="Ohorn.tilde" unicode="&#x1ee0;" horiz-adv-x="677"
                   d="M503 125q61 70 61 174q0 105 -61 175q-63 73 -165 73q-101 0 -164 -73q-60 -70 -60 -175q0 -103 60 -174q63 -72 164 -72q102 0 165 72zM512 561q25 -19 43 -39q80 -88 80 -223q0 -133 -80 -222q-82 -91 -217 -91q-133 0 -215 91q-81 89 -81 222q0 135 81 223
q82 91 215 91q53 0 100 -15q36 1 60 25t24 62h60q0 -61 -41 -102q-14 -14 -29 -22zM312 703q-47 29 -66 29q-32 0 -46 -44l-4 -16l-49 6l5 26q17 83 87 83q31 0 78 -30t67 -30q38 0 47 45l3 15l49 -5l-4 -25q-15 -84 -87 -84q-34 0 -80 30z"/>
            <glyph glyph-name="Ohorn.tilde097" unicode="&#x1ee1;"
                   d="M350 89q43 46 43 120t-43 120q-40 45 -100 45t-100 -45q-43 -46 -43 -120t43 -120q40 -43 100 -43t100 43zM393 375q3 -2 7 -6q62 -64 62 -161t-62 -159q-61 -59 -150 -59q-90 0 -149 59q-62 62 -62 159q0 99 62 161q58 61 149 61q43 0 76 -13q40 2 63 25q24 24 24 62h60
q0 -61 -41 -102q-16 -16 -39 -27zM237 530q-47 29 -66 29q-32 0 -46 -44l-4 -16l-49 6l5 26q17 83 87 83q32 0 78 -30t67 -30q38 0 47 45l3 15l49 -5l-4 -25q-15 -84 -87 -84q-33 0 -80 30z"/>
            <glyph glyph-name="Ohorn.dotbl" unicode="&#x1ee2;" horiz-adv-x="677"
                   d="M503 125q61 70 61 174q0 105 -61 175q-63 73 -165 73q-101 0 -164 -73q-60 -70 -60 -175q0 -103 60 -174q63 -72 164 -72q102 0 165 72zM512 561q25 -19 43 -39q80 -88 80 -223q0 -133 -80 -222q-82 -91 -217 -91q-133 0 -215 91q-81 89 -81 222q0 135 81 223
q82 91 215 91q53 0 100 -15q36 1 60 25t24 62h60q0 -61 -41 -102q-14 -14 -29 -22zM304 -94q14 14 34 14q21 0 35 -14q14 -16 14 -36q0 -19 -14 -35q-14 -14 -35 -14q-20 0 -34 14q-14 16 -14 35q0 20 14 36z"/>
            <glyph glyph-name="Ohorn.dotbl098" unicode="&#x1ee3;"
                   d="M350 89q43 46 43 120t-43 120q-40 45 -100 45t-100 -45q-43 -46 -43 -120t43 -120q40 -43 100 -43t100 43zM393 375q3 -2 7 -6q62 -64 62 -161t-62 -159q-61 -59 -150 -59q-90 0 -149 59q-62 62 -62 159q0 99 62 161q58 61 149 61q43 0 76 -13q40 2 63 25q24 24 24 62h60
q0 -61 -41 -102q-16 -16 -39 -27zM223 -94q14 14 34 14q21 0 35 -14q14 -16 14 -36q0 -19 -14 -35q-14 -14 -35 -14q-20 0 -34 14q-14 16 -14 35q0 20 14 36z"/>
            <glyph glyph-name="U.dotbl" unicode="&#x1ee4;" horiz-adv-x="630"
                   d="M138 60q-64 70 -64 191v349h70v-349q0 -91 43 -143q45 -56 128 -56q82 0 129 56q42 52 42 143v349h70v-349q0 -121 -63 -191q-65 -74 -178 -74q-112 0 -177 74zM281 -94q14 14 34 14q21 0 35 -14q14 -16 14 -36q0 -19 -14 -35q-14 -14 -35 -14q-20 0 -34 14
q-14 16 -14 35q0 20 14 36z"/>
            <glyph glyph-name="U.dotbl099" unicode="&#x1ee5;" horiz-adv-x="507"
                   d="M440 420v-420h-44l-12 60h-3q-40 -70 -149 -70q-81 0 -126 54q-44 52 -44 139v237h69v-229q0 -65 28 -102q30 -41 87 -41q59 0 94 41q30 36 31 78v253h69zM217 -94q14 14 34 14q21 0 35 -14q14 -16 14 -36q0 -19 -14 -35q-14 -14 -35 -14q-20 0 -34 14q-14 16 -14 35
q0 20 14 36z"/>
            <glyph glyph-name="U.hook" unicode="&#x1ee6;" horiz-adv-x="630"
                   d="M138 60q-64 70 -64 191v349h70v-349q0 -91 43 -143q45 -56 128 -56q82 0 129 56q42 52 42 143v349h70v-349q0 -121 -63 -191q-65 -74 -178 -74q-112 0 -177 74zM249 760l-24 49q35 30 75 30q36 0 59 -18q24 -19 24 -52q0 -34 -26 -54q-14 -10 -16 -19l-2 -24h-47v29
q0 27 22 46q13 10 13 20q0 7 -6 12q-7 6 -21 6q-23 0 -51 -25z"/>
            <glyph glyph-name="U.hook100" unicode="&#x1ee7;" horiz-adv-x="507"
                   d="M440 420v-420h-44l-12 60h-3q-40 -70 -149 -70q-81 0 -126 54q-44 52 -44 139v237h69v-229q0 -65 28 -102q30 -41 87 -41q59 0 94 41q30 36 31 78v253h69zM179 587l-24 49q35 30 75 30q36 0 59 -18q24 -19 24 -52q0 -34 -26 -54q-14 -10 -16 -19l-2 -24h-47v29
q0 27 22 46q13 10 13 20q0 8 -6 12q-7 6 -21 6q-23 0 -51 -25z"/>
            <glyph glyph-name="Uhorn.acute" unicode="&#x1ee8;" horiz-adv-x="630"
                   d="M556 551v-300q0 -121 -63 -191q-65 -74 -178 -74q-112 0 -177 74q-64 70 -64 191v349h70v-349q0 -91 43 -143q45 -56 128 -56q82 0 129 56q42 52 42 143v349h36q26 4 44 23q24 24 24 62h60q0 -61 -41 -102q-21 -21 -53 -32zM412 804l-87 -132h-50l53 145z"/>
            <glyph glyph-name="Uhorn.acute101" unicode="&#x1ee9;" horiz-adv-x="507"
                   d="M440 373v-373h-44l-12 60h-3q-40 -70 -149 -70q-81 0 -126 54q-44 52 -44 139v237h69v-229q0 -65 28 -102q30 -41 87 -41q59 0 94 41q30 36 31 78v253h30q24 6 40 22q24 24 24 62h60q0 -61 -41 -102q-18 -18 -44 -29zM358 631l-87 -132h-50l53 145z"/>
            <glyph glyph-name="Uhorn.grave" unicode="&#x1eea;" horiz-adv-x="630"
                   d="M556 551v-300q0 -121 -63 -191q-65 -74 -178 -74q-112 0 -177 74q-64 70 -64 191v349h70v-349q0 -91 43 -143q45 -56 128 -56q82 0 129 56q42 52 42 143v349h36q26 4 44 23q24 24 24 62h60q0 -61 -41 -102q-21 -21 -53 -32zM296 672l-87 132l84 13l53 -145h-50z"/>
            <glyph glyph-name="Uhorn.grave102" unicode="&#x1eeb;" horiz-adv-x="507"
                   d="M440 373v-373h-44l-12 60h-3q-40 -70 -149 -70q-81 0 -126 54q-44 52 -44 139v237h69v-229q0 -65 28 -102q30 -41 87 -41q59 0 94 41q30 36 31 78v253h30q24 6 40 22q24 24 24 62h60q0 -61 -41 -102q-18 -18 -44 -29zM227 499l-87 132l84 13l53 -145h-50z"/>
            <glyph glyph-name="Uhorn.hook" unicode="&#x1eec;" horiz-adv-x="630"
                   d="M556 551v-300q0 -121 -63 -191q-65 -74 -178 -74q-112 0 -177 74q-64 70 -64 191v349h70v-349q0 -91 43 -143q45 -56 128 -56q82 0 129 56q42 52 42 143v349h36q26 4 44 23q24 24 24 62h60q0 -61 -41 -102q-21 -21 -53 -32zM245 760l-24 49q35 30 75 30q36 0 59 -18
q24 -19 24 -52q0 -34 -26 -54q-14 -10 -16 -19l-2 -24h-47v29q0 27 22 46q13 10 13 20q0 7 -6 12q-7 6 -21 6q-23 0 -51 -25z"/>
            <glyph glyph-name="Uhorn.hook103" unicode="&#x1eed;" horiz-adv-x="507"
                   d="M440 373v-373h-44l-12 60h-3q-40 -70 -149 -70q-81 0 -126 54q-44 52 -44 139v237h69v-229q0 -65 28 -102q30 -41 87 -41q59 0 94 41q30 36 31 78v253h30q24 6 40 22q24 24 24 62h60q0 -61 -41 -102q-18 -18 -44 -29zM180 587l-24 49q34 30 75 30q37 0 59 -18
q24 -19 24 -52q0 -34 -26 -54q-14 -10 -16 -19l-2 -24h-47v29q0 27 22 46q13 10 13 20q0 8 -6 12q-8 6 -21 6q-23 0 -51 -25z"/>
            <glyph glyph-name="Uhorn.tilde" unicode="&#x1eee;" horiz-adv-x="630"
                   d="M556 551v-300q0 -121 -63 -191q-65 -74 -178 -74q-112 0 -177 74q-64 70 -64 191v349h70v-349q0 -91 43 -143q45 -56 128 -56q82 0 129 56q42 52 42 143v349h36q26 4 44 23q24 24 24 62h60q0 -61 -41 -102q-21 -21 -53 -32zM305 703q-47 29 -66 29q-32 0 -46 -44l-4 -16
l-49 6l5 26q17 83 87 83q32 0 78 -30t67 -30q38 0 47 45l3 15l49 -5l-4 -25q-15 -84 -87 -84q-33 0 -80 30z"/>
            <glyph glyph-name="Uhorn.tilde104" unicode="&#x1eef;" horiz-adv-x="507"
                   d="M440 373v-373h-44l-12 60h-3q-40 -70 -149 -70q-81 0 -126 54q-44 52 -44 139v237h69v-229q0 -65 28 -102q30 -41 87 -41q59 0 94 41q30 36 31 78v253h30q24 6 40 22q24 24 24 62h60q0 -61 -41 -102q-18 -18 -44 -29zM250 530q-47 29 -66 29q-32 0 -46 -44l-4 -16l-49 6
l5 26q17 83 87 83q31 0 78 -30q46 -30 67 -30q38 0 47 45l3 15l49 -5l-4 -25q-15 -84 -87 -84q-34 0 -80 30z"/>
            <glyph glyph-name="Uhorn.dotbl" unicode="&#x1ef0;" horiz-adv-x="630"
                   d="M556 551v-300q0 -121 -63 -191q-65 -74 -178 -74q-112 0 -177 74q-64 70 -64 191v349h70v-349q0 -91 43 -143q45 -56 128 -56q82 0 129 56q42 52 42 143v349h36q26 4 44 23q24 24 24 62h60q0 -61 -41 -102q-21 -21 -53 -32zM297 -94q14 14 34 14q21 0 35 -14
q14 -16 14 -36q0 -19 -14 -35q-14 -14 -35 -14q-20 0 -34 14q-14 16 -14 35q0 20 14 36z"/>
            <glyph glyph-name="Uhorn.dotbl105" unicode="&#x1ef1;" horiz-adv-x="507"
                   d="M440 373v-373h-44l-12 60h-3q-40 -70 -149 -70q-81 0 -126 54q-44 52 -44 139v237h69v-229q0 -65 28 -102q30 -41 87 -41q59 0 94 41q30 36 31 78v253h30q24 6 40 22q24 24 24 62h60q0 -61 -41 -102q-18 -18 -44 -29zM242 -94q14 14 34 14q21 0 35 -14q14 -16 14 -36
q0 -19 -14 -35q-14 -14 -35 -14q-20 0 -34 14q-14 16 -14 35q0 20 14 36z"/>
            <glyph glyph-name="Ygrave" unicode="&#x1ef2;" horiz-adv-x="530"
                   d="M286 332l154 268h81l-221 -370v-230h-70v230l-221 370h82l156 -268l18 -38h2zM237 672l-87 132l84 13l53 -145h-50z"/>
            <glyph glyph-name="Ygrave106" unicode="&#x1ef3;" horiz-adv-x="453"
                   d="M440 420l-254 -576h-72l82 176l-183 400h76l132 -311q7 -20 7 -28h4q0 10 6 28l131 311h71zM222 497l-87 132l84 13l53 -145h-50z"/>
            <glyph glyph-name="Y.dotbl" unicode="&#x1ef4;" horiz-adv-x="530"
                   d="M286 332l154 268h81l-221 -370v-230h-70v230l-221 370h82l156 -268l18 -38h2zM231 -94q14 14 34 14q21 0 35 -14q14 -16 14 -36q0 -19 -14 -35q-14 -14 -35 -14q-20 0 -34 14q-14 16 -14 35q0 20 14 36z"/>
            <glyph glyph-name="Y.dotbl107" unicode="&#x1ef5;" horiz-adv-x="453"
                   d="M440 420l-254 -576h-72l82 176l-183 400h76l132 -311q7 -20 7 -28h4q0 10 6 28l131 311h71zM290 -94q14 14 34 14q21 0 35 -14q14 -16 14 -36q0 -19 -14 -35q-14 -14 -35 -14q-20 0 -34 14q-14 16 -14 35q0 20 14 36z"/>
            <glyph glyph-name="Y.hook" unicode="&#x1ef6;" horiz-adv-x="530"
                   d="M286 332l154 268h81l-221 -370v-230h-70v230l-221 370h82l156 -268l18 -38h2zM205 760l-24 49q35 30 75 30q36 0 59 -18q24 -19 24 -52q0 -34 -26 -54q-14 -10 -16 -19l-2 -24h-47v29q0 27 22 46q13 10 13 20q0 7 -6 12q-7 6 -21 6q-23 0 -51 -25z"/>
            <glyph glyph-name="Y.hook108" unicode="&#x1ef7;" horiz-adv-x="453"
                   d="M440 420l-254 -576h-72l82 176l-183 400h76l132 -311q7 -20 7 -28h4q0 10 6 28l131 311h71zM158 587l-24 49q34 30 75 30q37 0 59 -18q24 -19 24 -52q0 -34 -26 -54q-14 -10 -16 -19l-2 -24h-47v29q0 27 22 46q13 10 13 20q0 8 -6 12q-8 6 -21 6q-23 0 -51 -25z"/>
            <glyph glyph-name="Ytilde" unicode="&#x1ef8;" horiz-adv-x="530"
                   d="M286 332l154 268h81l-221 -370v-230h-70v230l-221 370h82l156 -268l18 -38h2zM262 702q-47 29 -66 29q-32 0 -46 -44l-4 -16l-49 6l5 26q17 83 87 83q31 0 78 -30t67 -30q38 0 47 45l3 15l49 -5l-4 -25q-15 -84 -87 -84q-34 0 -80 30z"/>
            <glyph glyph-name="Ytilde109" unicode="&#x1ef9;" horiz-adv-x="453"
                   d="M440 420l-254 -576h-72l82 176l-183 400h76l132 -311q7 -20 7 -28h4q0 10 6 28l131 311h71zM224 531q-47 29 -66 29q-32 0 -46 -44l-4 -16l-49 6l5 26q17 83 87 83q31 0 78 -30t67 -30q38 0 47 45l3 15l49 -5l-4 -25q-15 -84 -87 -84q-34 0 -80 30z"/>
            <glyph glyph-name="endash" unicode="&#x2013;" horiz-adv-x="465"
                   d="M61 259v58h335v-58h-335z"/>
            <glyph glyph-name="emdash" unicode="&#x2014;" horiz-adv-x="718"
                   d="M61 259v58h588v-58h-588z"/>
            <glyph glyph-name="quoteleft" unicode="&#x2018;" horiz-adv-x="214"
                   d="M48 441v8q0 129 121 151l12 -40q-75 -18 -78 -74q39 -4 39 -45q0 -19 -14 -33t-33 -14t-33 14t-14 33z"/>
            <glyph glyph-name="quoteright" unicode="&#x2019;" horiz-adv-x="218"
                   d="M57 394l-12 40q74 17 78 73q-39 7 -39 46q0 19 14 33t33 14t33 -14t14 -33v-8q0 -129 -121 -151z"/>
            <glyph glyph-name="quotesinglbase" unicode="&#x201a;" horiz-adv-x="202"
                   d="M26 -123l-12 40q73 16 78 74q-39 5 -39 45q0 19 14 33t33 14t33 -14t14 -33v-8q0 -129 -121 -151z"/>
            <glyph glyph-name="quotedblleft" unicode="&#x201c;" horiz-adv-x="359"
                   d="M193 441v8q0 129 121 151l12 -40q-75 -18 -78 -74q39 -4 39 -45q0 -19 -14 -33t-33 -14t-33 14t-14 33zM48 441v8q0 129 121 151l12 -40q-75 -18 -78 -74q39 -4 39 -45q0 -19 -14 -33t-33 -14t-33 14t-14 33z"/>
            <glyph glyph-name="quotedblright" unicode="&#x201d;" horiz-adv-x="362"
                   d="M177 553v-8q0 -129 -121 -151l-12 40q74 17 78 73q-39 7 -39 46q0 19 14 33t33 14t33 -14t14 -33zM201 394l-12 40q74 17 78 73q-39 7 -39 46q0 19 14 33t33 14t33 -14t14 -33v-8q0 -129 -121 -151z"/>
            <glyph glyph-name="quotedblbase" unicode="&#x201e;" horiz-adv-x="428"
                   d="M26 -123l-12 40q73 16 78 74q-39 5 -39 45q0 19 14 33t33 14t33 -14t14 -33v-8q0 -129 -121 -151zM252 -123l-12 40q73 16 78 74q-39 5 -39 45q0 19 14 33t33 14t33 -14t14 -33v-8q0 -129 -121 -151z"/>
            <glyph glyph-name="dagger" unicode="&#x2020;" horiz-adv-x="390"
                   d="M33 439v58h133v138h59v-138h132v-58h-132l-7 -265h-45l-7 265h-133z"/>
            <glyph glyph-name="daggerdbl" unicode="&#x2021;" horiz-adv-x="424"
                   d="M50 472v58h133v138h59v-138h132v-58h-132l-7 -138l7 -138h132v-58h-132v-138h-59v138h-133v58h133l6 138l-6 138h-133z"/>
            <glyph glyph-name="bullet" unicode="&#x2022;" horiz-adv-x="311"
                   d="M208 275q21 -23 21 -52q0 -30 -21 -51q-22 -21 -52 -21q-31 0 -52 21q-22 21 -22 51t22 52q21 21 52 21q30 0 52 -21z"/>
            <glyph glyph-name="ellipsis" unicode="&#x2026;" horiz-adv-x="707"
                   d="M74 88q17 17 40 17q24 0 41 -17t17 -41q0 -23 -17 -40t-41 -17q-23 0 -40 17t-17 40q0 24 17 41zM313 88q17 17 40 17q24 0 41 -17t17 -41q0 -23 -17 -40t-41 -17q-23 0 -40 17t-17 40q0 24 17 41zM552 88q17 17 40 17q24 0 41 -17t17 -41q0 -23 -17 -40t-41 -17
q-23 0 -40 17t-17 40q0 24 17 41z"/>
            <glyph glyph-name="perthousand" unicode="&#x2030;" horiz-adv-x="947"
                   d="M265 568q33 -42 33 -106q0 -63 -33 -105q-36 -46 -95 -46q-60 0 -96 46q-33 42 -33 105q0 64 33 106q36 45 96 45q59 0 95 -45zM219 395q17 26 17 67q0 94 -66 94q-67 0 -67 -94t67 -94q31 0 49 27zM521 600h78l-477 -600h-76zM577 249q34 -43 34 -106q0 -62 -34 -105
q-36 -46 -95 -46t-95 46q-34 43 -34 105q0 63 34 106q36 45 95 45t95 -45zM432 211q-17 -26 -17 -68q0 -40 17 -66q20 -27 50 -27q31 0 49 27q17 26 17 66q0 95 -66 95q-32 0 -50 -27zM737 211q-17 -26 -17 -68q0 -40 17 -66q19 -27 50 -27t49 27q17 26 17 66q0 95 -66 95
q-32 0 -50 -27zM882 249q34 -43 34 -106q0 -62 -34 -105q-36 -46 -95 -46t-95 46q-34 43 -34 105q0 63 34 106q36 45 95 45t95 -45z"/>
            <glyph glyph-name="guilsinglleft" unicode="&#x2039;" horiz-adv-x="266"
                   d="M42 197v23l120 188h60v-10l-117 -186v-5l117 -189v-10h-60z"/>
            <glyph glyph-name="guilsinglright" unicode="&#x203a;" horiz-adv-x="265"
                   d="M224 220v-23l-120 -189h-61v10l118 189v5l-118 186v10h61z"/>
            <glyph glyph-name="fraction" unicode="&#x2044;" horiz-adv-x="581"
                   d="M50 0h-60l540 700h62z"/>
            <glyph glyph-name="Euro" unicode="&#x20ac;" horiz-adv-x="564"
                   d="M395 257v-54h-206q35 -152 171 -152q84 0 127 58l34 -50q-49 -72 -162 -72q-97 0 -162 63q-57 54 -80 153h-77v54h68q-2 20 -2 45q0 7 2 49h-68v54h77q22 94 81 148q64 60 161 60q112 0 163 -72l-35 -53q-44 59 -127 59q-136 0 -170 -142h205v-54h-214q-2 -42 -2 -49
q0 -27 2 -45h214z"/>
            <glyph glyph-name="trademark" unicode="&#x2122;" horiz-adv-x="705"
                   d="M383 281h-49v319h36l114 -149l117 149h34v-319h-48v230l-96 -124h-13l-95 122v-228zM275 600v-43h-97v-276h-48v276h-97v43h242z"/>
            <glyph glyph-name="Omega" unicode="&#x2126;" horiz-adv-x="710"
                   d="M52 0v61h141q-139 76 -139 247q0 128 78 213q83 92 223 92t224 -92q78 -85 78 -213q0 -170 -140 -247h141v-61h-268v63q83 5 141 77q56 71 56 162q0 103 -61 171q-64 73 -171 73q-106 0 -170 -73q-61 -68 -61 -171q0 -91 56 -162q58 -72 141 -77v-63h-269z"/>
            <glyph glyph-name="partialdiff" unicode="&#x2202;"
                   d="M96 50q-56 59 -56 160q0 100 56 159q55 61 154 61q28 0 57 -7v5q-3 3 -26 37l-160 252v11h65l228 -361q46 -76 46 -157q0 -102 -55 -160q-57 -60 -155 -60t-154 60zM350 331q-38 41 -100 41t-100 -41q-40 -43 -40 -121q0 -77 40 -120q39 -42 100 -42t100 42q40 43 40 120
q0 78 -40 121z"/>
            <glyph glyph-name="Delta" unicode="&#x2206;" horiz-adv-x="618"
                   d="M27 0v15l275 585h14l275 -585v-15h-564zM306 474l-181 -413h367l-183 413h-3z"/>
            <glyph glyph-name="product" unicode="&#x220f;" horiz-adv-x="613"
                   d="M546 600v-600h-70v539h-339v-539h-70v600h479z"/>
            <glyph glyph-name="summation" unicode="&#x2211;" horiz-adv-x="442"
                   d="M43 600h353v-61h-265l171 -223v-33l-169 -222h263v-61h-353v61l183 232v12l-183 234v61z"/>
            <glyph glyph-name="minus" unicode="&#x2212;" horiz-adv-x="558"
                   d="M62 270v58h434v-58h-434z"/>
            <glyph glyph-name="radical" unicode="&#x221a;" horiz-adv-x="598"
                   d="M606 600l-385 -792h-17l-197 399h77l103 -217q25 -52 26 -66h2q1 15 25 66l289 610h77z"/>
            <glyph glyph-name="infinity" unicode="&#x221e;" horiz-adv-x="754"
                   d="M92 167q-44 49 -44 119q0 69 44 118q45 51 118 51q92 0 168 -126q74 126 166 126q68 0 114 -46q48 -48 48 -123q0 -70 -42 -118q-46 -51 -120 -51q-95 0 -168 124q-73 -124 -166 -124q-73 0 -118 50zM410 287q63 -114 130 -114q50 0 80 34q28 31 28 79q0 51 -31 82
t-77 31q-72 0 -130 -112zM345 285q-63 114 -131 114q-49 0 -79 -35q-28 -31 -28 -78q0 -48 28 -79q28 -34 79 -34q70 0 131 112z"/>
            <glyph glyph-name="integral" unicode="&#x222b;" horiz-adv-x="298"
                   d="M115 7v527q0 115 99 115q41 0 70 -20l-20 -52q-19 11 -38 11q-42 0 -42 -60v-527q0 -115 -99 -115q-41 0 -70 20l20 52q20 -11 38 -11q42 0 42 60z"/>
            <glyph glyph-name="approxequal" unicode="&#x2248;" horiz-adv-x="456"
                   d="M227 199q-44 23 -59 23q-29 0 -41 -35l-3 -13l-59 5l5 29q16 73 89 73q30 0 73 -23q44 -24 61 -24q28 0 39 35l4 13l58 -5l-5 -30q-13 -72 -87 -72q-32 0 -75 24zM227 389q-44 23 -59 23q-29 0 -41 -35l-3 -13l-59 5l5 30q16 72 89 72q30 0 73 -23q44 -24 61 -24
q28 0 39 35l4 13l58 -5l-5 -29q-13 -73 -87 -73q-32 0 -75 24z"/>
            <glyph glyph-name="notequal" unicode="&#x2260;" horiz-adv-x="458"
                   d="M57 366v58h190l42 116l51 -18l-36 -98h97v-58h-118l-59 -163h177v-58h-198l-41 -113l-51 18l34 95h-88v58h109l60 163h-169z"/>
            <glyph glyph-name="lessequal" unicode="&#x2264;" horiz-adv-x="385"
                   d="M296 249l-41 -43l-185 178v15l185 183l41 -43l-149 -148zM334 141v-58h-278v58h278z"/>
            <glyph glyph-name="greaterequal" unicode="&#x2265;" horiz-adv-x="384"
                   d="M130 206l-42 43l149 142l-149 148l41 43l185 -183v-15zM51 83v58h277v-58h-277z"/>
            <glyph glyph-name="lozenge" unicode="&#x25ca;" horiz-adv-x="438"
                   d="M242 600l163 -300l-163 -300h-46l-163 300l163 300h46zM112 299l102 -200h10l101 200l-101 202h-10z"/>
            <glyph glyph-name="cir.acute" unicode="&#xe00d;" horiz-adv-x="0"
                   d="M245 672l-53 61l-55 -61h-64l89 108h57l91 -108h-65zM408 883l-87 -132h-50l53 145z"/>
            <glyph glyph-name="cir.grave" unicode="&#xe00e;" horiz-adv-x="0"
                   d="M245 671l-53 61l-55 -61h-64l89 108h57l91 -108h-65zM54 754l-87 132l84 13l53 -145h-50z"/>
            <glyph glyph-name="cir.tilde" unicode="&#xe00f;" horiz-adv-x="0"
                   d="M245 674l-53 61l-55 -61h-64l89 108h57l91 -108h-65zM209 817q-47 29 -66 29q-32 0 -46 -44l-4 -16l-49 6l5 26q17 83 87 83q32 0 78 -30t67 -30q38 0 47 45l3 15l49 -5l-4 -25q-15 -84 -87 -84q-34 0 -80 30z"/>
            <glyph glyph-name="breve.tilde" unicode="&#xe010;" horiz-adv-x="0"
                   d="M275 810h55q0 -60 -40 -100q-39 -40 -92 -40q-56 0 -93 40q-39 40 -39 100h55q0 -35 22 -58q23 -26 55 -26q33 0 55 25t22 59zM204 859q-47 29 -66 29q-32 0 -46 -44l-4 -16l-49 6l5 26q17 83 87 83q31 0 78 -30t67 -30q38 0 47 45l3 15l49 -5l-4 -25q-15 -84 -87 -84
q-34 0 -80 30z"/>
            <glyph glyph-name="breve.acute" unicode="&#xe011;" horiz-adv-x="0"
                   d="M275 814h55q0 -60 -40 -100q-39 -40 -92 -40q-56 0 -93 40q-39 40 -39 100h55q0 -35 22 -58q23 -26 55 -26q33 0 55 25t22 59zM318 946l-87 -132h-50l53 145z"/>
            <glyph glyph-name="breve.grave" unicode="&#xe012;" horiz-adv-x="0"
                   d="M275 813h55q0 -60 -40 -100q-39 -40 -92 -40q-56 0 -93 40q-39 41 -39 100h55q0 -35 22 -58q23 -26 55 -26q33 0 55 25t22 59zM181 814l-87 132l84 13l53 -145h-50z"/>
            <glyph glyph-name="breve.hook" unicode="&#xe013;" horiz-adv-x="0"
                   d="M275 812h55q0 -60 -40 -100q-39 -40 -92 -40q-56 0 -93 40q-39 40 -39 100h55q0 -35 22 -58q23 -26 55 -26q33 0 55 25t22 59zM135 875l-24 37q34 22 75 22q37 0 59 -13q24 -13 24 -39t-26 -41q-14 -7 -16 -14l-2 -18h-47v22q0 21 22 34q13 7 13 15q0 6 -6 9q-8 5 -21 5
q-23 0 -51 -19z"/>
            <glyph glyph-name="cir.hook" unicode="&#xe014;" horiz-adv-x="0"
                   d="M245 671l-53 61l-55 -61h-64l89 108h57l91 -108h-65zM238 830l-24 49q34 30 75 30q37 0 59 -18q24 -19 24 -52q0 -34 -26 -54q-14 -10 -16 -19l-2 -24h-47v29q0 27 22 46q13 10 13 20q0 7 -6 12q-8 6 -21 6q-23 0 -51 -25z"/>
            <glyph glyph-name="uniE015" unicode="&#xe015;" horiz-adv-x="279"
                   d="M149 497l-87 132l84 13l53 -145h-50z"/>
            <glyph glyph-name="uniE016" unicode="&#xe016;" horiz-adv-x="279"
                   d="M199 629l-87 -132h-50l53 145z"/>
            <glyph glyph-name="uniE017" unicode="&#xe017;" horiz-adv-x="371"
                   d="M245 331l-53 61l-55 -61h-64l89 108h57l91 -108h-65z"/>
            <glyph glyph-name="uniE018" unicode="&#xe018;" horiz-adv-x="325"
                   d="M107 777l53 -62l55 62h64l-89 -109h-57l-91 109h65z"/>
            <glyph glyph-name="uniE019" unicode="&#xe019;" horiz-adv-x="485"
                   d="M234 698q-47 29 -66 29q-32 0 -46 -44l-4 -16l-49 6l5 26q17 83 87 83q31 0 78 -30t67 -30q38 0 47 45l3 15l49 -5l-4 -25q-15 -84 -87 -84q-34 0 -80 30z"/>
            <glyph glyph-name="uniE01A" unicode="&#xe01a;" horiz-adv-x="485"
                   d="M149 497l-87 132l84 13l53 -145h-50z"/>
            <glyph glyph-name="uniE01B" unicode="&#xe01b;" horiz-adv-x="395"
                   d="M327 577l-80 -158h-48l46 158h82zM174 577l-80 -158h-48l46 158h82z"/>
            <glyph glyph-name="uniE01C" unicode="&#xe01c;" horiz-adv-x="396"
                   d="M275 808h55q0 -60 -40 -100q-39 -40 -92 -40q-56 0 -93 40q-39 40 -39 100h55q0 -35 22 -58q23 -26 55 -26q33 0 55 25t22 59z"/>
            <glyph glyph-name="uniE01D" unicode="&#xe01d;" horiz-adv-x="396"
                   d="M275 808h55q0 -60 -40 -100q-39 -40 -92 -40q-56 0 -93 40q-39 40 -39 100h55q0 -35 22 -58q23 -26 55 -26q33 0 55 25t22 59z"/>
            <glyph glyph-name="uniE01E" unicode="&#xe01e;" horiz-adv-x="288"
                   d="M71 765q29 24 74 24t73 -24q29 -24 29 -63t-29 -63q-28 -24 -73 -24t-74 24q-30 24 -30 63t30 63zM145 745q-57 0 -57 -43t57 -43q55 0 55 43t-55 43z"/>
            <glyph glyph-name="uniE01F" unicode="&#xe01f;" horiz-adv-x="417"
                   d="M146 584l-24 49q34 30 75 30q37 0 59 -18q24 -19 24 -52q0 -34 -26 -54q-14 -10 -16 -19l-2 -24h-47v29q0 27 22 46q13 10 13 20q0 7 -6 12q-8 6 -21 6q-23 0 -51 -25z"/>
            <glyph glyph-name="uniE020" unicode="&#xe020;" horiz-adv-x="555"
                   d="M115 567q-17 17 -17 42t17 42t42 17t42 -17t17 -42t-17 -42t-42 -17t-42 17zM351 567q-17 17 -17 42t17 42t42 17t42 -17t17 -42t-17 -42t-42 -17t-42 17z"/>
            <glyph glyph-name="_17" horiz-adv-x="105"
            />
            </font>
</defs>
</svg>
