<?xml version="1.0" standalone="no"?>
<!DOCTYPE svg PUBLIC "-//W3C//DTD SVG 1.1//EN" "http://www.w3.org/Graphics/SVG/1.1/DTD/svg11.dtd" >
<svg>
<metadata>
Created by FontForge 20090622 at Thu Oct 20 10:12:17 2016
 By deploy user
Copyright (c) 2014 by Daniel Hernandez &#38; Miguel Hernandez. All rights reserved.
</metadata>
<defs>
<font id="iCielTexta-BoldItalic" horiz-adv-x="522" >
  <font-face 
    font-family="iCiel Texta Bold"
    font-weight="700"
    font-style="italic"
    font-stretch="normal"
    units-per-em="1000"
    panose-1="2 0 0 0 0 0 0 0 0 0"
    ascent="750"
    descent="-250"
    x-height="420"
    cap-height="600"
    bbox="-371 -192 1067 939"
    underline-thickness="50"
    underline-position="-50"
    slope="-8"
    unicode-range="U+001D-U+E020"
  />
<missing-glyph horiz-adv-x="564" 
 />
    <glyph glyph-name=".notdef" horiz-adv-x="564" 
 />
    <glyph glyph-name=".null" horiz-adv-x="0" 
 />
    <glyph glyph-name="nonmarkingreturn" horiz-adv-x="105" 
 />
    <glyph glyph-name="null" horiz-adv-x="0" 
 />
    <glyph glyph-name="null" horiz-adv-x="0" 
 />
    <glyph glyph-name="space" unicode=" " horiz-adv-x="214" 
 />
    <glyph glyph-name="exclam" unicode="!" horiz-adv-x="222" 
d="M252 600l-82 -415h-67l33 415h116zM56 47q0 29 22 50t50 21q24 0 39 -16t15 -40q0 -29 -21.5 -49.5t-50.5 -20.5q-24 0 -39 15.5t-15 39.5z" />
    <glyph glyph-name="quotedbl" unicode="&#x22;" horiz-adv-x="329" 
d="M248 684l-75 -209h-59l46 209h88zM397 684l-75 -209h-59l45 209h89z" />
    <glyph glyph-name="numbersign" unicode="#" horiz-adv-x="635" 
d="M602 583l-55 -155h118l-22 -59h-118l-56 -156h116l-21 -59h-116l-56 -154h-63l55 154h-150l-55 -154h-64l56 154h-118l21 59h118l56 156h-116l22 59h116l55 155h62l-55 -155h151l55 155h64zM310 369l-55 -156h150l56 156h-151z" />
    <glyph glyph-name="dollar" unicode="$" horiz-adv-x="519" 
d="M44 61l65 75q17 -15 35 -25q48 -27 99 -32l26 186q-87 28 -127.5 64t-40.5 93q0 80 57 131.5t160 58.5l15 104h59l-15 -104q82 -5 132 -33q25 -12 38 -27l-65 -81q-12 11 -30 21q-37 20 -88 27l-24 -167q90 -28 130.5 -66t40.5 -96q0 -82 -58 -138.5t-164 -64.5l-13 -94
h-59l13 94q-79 5 -143 40q-28 17 -43 34zM399 171q0 24 -16.5 41t-57.5 34l-23 -166q49 6 73 30t24 61zM211 438q0 -21 16.5 -36.5t56.5 -30.5l21 148q-45 -5 -69.5 -26t-24.5 -55z" />
    <glyph glyph-name="percent" unicode="%" horiz-adv-x="663" 
d="M257 613q54 0 84 -36.5t30 -90.5q0 -69 -43.5 -120.5t-112.5 -51.5q-54 0 -84 37t-30 91q0 69 43.5 120t112.5 51zM248 549q-34 0 -53.5 -29t-19.5 -75q0 -31 12.5 -48.5t36.5 -17.5q34 0 53.5 29t19.5 75q0 66 -49 66zM533 291q54 0 84.5 -37t30.5 -91
q0 -68 -44.5 -119.5t-112.5 -51.5q-54 0 -84 37t-30 91q0 69 44 120t112 51zM524 227q-34 0 -53.5 -29t-19.5 -75q0 -30 13 -48t36 -18q34 0 53.5 29t19.5 75q0 66 -49 66zM605 600h92l-561 -600h-91z" />
    <glyph glyph-name="ampersand" unicode="&#x26;" horiz-adv-x="614" 
d="M513 299l90 -22q-29 -95 -87 -162l101 -115h-138l-38 45q-80 -55 -174 -55q-99 0 -150 41.5t-51 108.5q0 65 38.5 107.5t105.5 74.5l-11 14q-39 48 -39 107q0 71 55 120.5t140 49.5q72 0 113 -35t41 -93q0 -67 -40 -108t-113 -77l103 -118q34 48 54 117zM278 74
q58 0 110 36l-123 147q-44 -23 -67 -46.5t-23 -57.5q0 -36 29 -57.5t74 -21.5zM259 448q0 -37 36 -77l7 -8q54 24 81 47t27 59q0 28 -17 45t-49 17q-38 0 -61.5 -23t-23.5 -60z" />
    <glyph glyph-name="quotesingle" unicode="'" horiz-adv-x="181" 
d="M248 684l-74 -209h-60l46 209h88z" />
    <glyph glyph-name="parenleft" unicode="(" horiz-adv-x="275" 
d="M178 287q-31 -214 71 -359l-71 -65q-138 177 -102 424q37 257 221 424l53 -65q-143 -143 -172 -359z" />
    <glyph glyph-name="parenright" unicode=")" horiz-adv-x="276" 
d="M185 364q0 175 -78 282l72 65q109 -146 109 -343q0 -296 -228 -505l-54 65q179 179 179 436z" />
    <glyph glyph-name="asterisk" unicode="*" horiz-adv-x="387" 
d="M137 444l102 93l-121 20l34 71l102 -61l1 127h72l-40 -128l124 62l14 -71l-130 -20l78 -93l-67 -43l-42 115l-74 -115z" />
    <glyph glyph-name="plus" unicode="+" horiz-adv-x="508" 
d="M368 515l-26 -181h176l-11 -80h-176l-24 -173h-82l24 173h-176l11 80h176l26 181h82z" />
    <glyph glyph-name="comma" unicode="," horiz-adv-x="213" 
d="M172 49l-1 -7q-9 -63 -49.5 -108t-103.5 -57l-8 53q67 16 82 61q-19 4 -30 18t-11 33q0 27 21 47t48 20q25 0 40.5 -17t11.5 -43z" />
    <glyph glyph-name="hyphen" unicode="-" horiz-adv-x="388" 
d="M81 189l11 80h280l-11 -80h-280z" />
    <glyph glyph-name="period" unicode="." horiz-adv-x="210" 
d="M103 -10q-23 0 -37.5 15t-14.5 37q0 27 21 47t48 20q23 0 37.5 -15t14.5 -38q0 -27 -21 -46.5t-48 -19.5z" />
    <glyph glyph-name="slash" unicode="/" horiz-adv-x="591" 
d="M106 -111l-101 -1l575 895h99z" />
    <glyph glyph-name="zero" unicode="0" horiz-adv-x="610" 
d="M303 -14q-108 0 -165 74t-57 188q0 150 85.5 257.5t225.5 107.5q107 0 165 -74t58 -188q0 -96 -36.5 -178.5t-109 -134.5t-166.5 -52zM317 82q90 0 142.5 75t52.5 185q0 78 -34.5 127t-99.5 49q-89 0 -142 -76t-53 -185q0 -78 34.5 -126.5t99.5 -48.5z" />
    <glyph glyph-name="one" unicode="1" horiz-adv-x="313" 
d="M87 512l12 88h230l-84 -600h-99l72 512h-131z" />
    <glyph glyph-name="two" unicode="2" horiz-adv-x="506" 
d="M44 0l10 69l275 242q39 34 54.5 58t15.5 60q0 39 -26 64t-72 25q-72 0 -150 -66l-42 79q28 25 58 41q76 41 155 41q93 0 142.5 -45.5t49.5 -117.5q0 -50 -18.5 -91t-72.5 -87l-210 -184h262l-12 -88h-419z" />
    <glyph glyph-name="three" unicode="3" horiz-adv-x="507" 
d="M273 280h-78l10 68l182 164h-266l14 88h399l-11 -76l-182 -167q146 -16 146 -152q0 -88 -66.5 -152.5t-189.5 -64.5q-83 0 -144 41q-27 19 -43 42l64 72q17 -20 34 -32q46 -32 100 -32q66 0 102.5 33.5t36.5 82.5q0 85 -108 85z" />
    <glyph glyph-name="four" unicode="4" horiz-adv-x="562" 
d="M41 135l10 73l381 392h86l-53 -377h99l-12 -88h-99l-19 -135h-99l19 135h-313zM179 227l-1 -4h188l33 230l-200 -209q-10 -10 -13 -12q-1 -1 -3.5 -2.5t-3.5 -2.5z" />
    <glyph glyph-name="five" unicode="5" horiz-adv-x="495" 
d="M497 512h-259l-24 -146q32 6 69 6q102 0 153 -42.5t51 -116.5q0 -98 -67.5 -161.5t-188.5 -63.5q-84 0 -145 41q-26 18 -42 42l64 72q14 -19 33 -32q46 -32 101 -32q65 0 102 32t37 86q0 41 -32 65.5t-96 24.5q-36 0 -69.5 -6t-49 -11t-16.5 -6l-11 10l54 326h348z" />
    <glyph glyph-name="six" unicode="6" horiz-adv-x="538" 
d="M199 325l-1 -7q61 59 148 59q83 0 133 -45t50 -118q0 -95 -72.5 -160t-175.5 -65q-91 0 -146.5 58t-55.5 180q0 175 83.5 279t215.5 104q82 0 136 -40q23 -17 37 -39l-67 -76l-14.5 15t-23 21.5t-32.5 16.5t-48 8q-65 0 -109 -46t-58 -145zM324 293q-51 0 -88.5 -28
t-50.5 -75q7 -110 107 -110q56 0 94 36t38 87q0 40 -26.5 65t-73.5 25z" />
    <glyph glyph-name="seven" unicode="7" horiz-adv-x="455" 
d="M99 512l12 88h414l-9 -69l-334 -531h-116l328 512h-295z" />
    <glyph glyph-name="eight" unicode="8" horiz-adv-x="530" 
d="M264 -14q-95 0 -146.5 46t-51.5 118q0 109 105 164q-51 36 -51 109q0 79 62.5 134.5t169.5 55.5q88 0 135.5 -42t47.5 -108q0 -95 -87 -149q65 -43 65 -122q0 -85 -69 -145.5t-180 -60.5zM408 185q0 39 -28 63.5t-76 24.5q-57 0 -95 -32t-38 -78q0 -38 28 -63.5t77 -25.5
q56 0 94 32.5t38 78.5zM315 349q52 0 84.5 28.5t32.5 69.5q0 34 -24.5 56t-67.5 22q-52 0 -85.5 -29t-33.5 -69q0 -34 25 -56t69 -22z" />
    <glyph glyph-name="nine" unicode="9" horiz-adv-x="536" 
d="M261 80q133 0 160 194l1 7q-59 -59 -148 -59q-83 0 -133 45t-50 118q0 95 72 160t177 65q91 0 146 -58t55 -180q0 -175 -81 -280t-212 -105q-83 0 -136 39q-23 16 -37 39l67 77q1 -1 14 -15t23.5 -22t33 -16.5t48.5 -8.5zM296 306q51 0 88.5 28t49.5 74q-3 56 -31 83.5
t-75 27.5q-56 0 -94 -36t-38 -87q0 -40 26.5 -65t73.5 -25z" />
    <glyph glyph-name="colon" unicode=":" horiz-adv-x="226" 
d="M84 21q-10 13 -7 30.5t18 29.5q14 12 31.5 11t28.5 -14t7 -30.5t-19 -29.5q-14 -12 -31.5 -11t-27.5 14zM129 339q-10 13 -7 30t18 29q14 12 31.5 11.5t27.5 -13.5q11 -14 7.5 -31t-18.5 -29q-14 -12 -31.5 -11.5t-27.5 14.5z" />
    <glyph glyph-name="semicolon" unicode=";" horiz-adv-x="239" 
d="M188 49l-1 -7q-9 -63 -49.5 -108t-103.5 -57l-8 53q67 16 82 61q-19 4 -30 18t-11 33q0 27 21 47t48 20q26 0 41 -17t11 -43zM164 308q-23 0 -37.5 14.5t-14.5 37.5q0 27 21 47t48 20q23 0 37.5 -15.5t14.5 -37.5q0 -27 -20.5 -46.5t-48.5 -19.5z" />
    <glyph glyph-name="less" unicode="&#x3c;" horiz-adv-x="372" 
d="M74 268l9 63l297 180l-15 -105l-196 -107l166 -107l-14 -105z" />
    <glyph glyph-name="equal" unicode="=" horiz-adv-x="459" 
d="M107 348l11 80h344l-11 -80h-344zM80 157l11 81h344l-11 -81h-344z" />
    <glyph glyph-name="greater" unicode="&#x3e;" horiz-adv-x="372" 
d="M382 331l-9 -63l-297 -181l15 105l196 107l-166 107l15 105z" />
    <glyph glyph-name="question" unicode="?" horiz-adv-x="432" 
d="M142 477l-36 80q19 15 47 28q58 28 128 28q84 0 132.5 -37.5t48.5 -103.5q0 -45 -17.5 -80t-44 -57t-53.5 -40.5t-50 -41t-30 -47.5l-6 -23h-75l5 35q5 37 31.5 69.5t54.5 51.5t50.5 47.5t22.5 60.5t-24 51.5t-66 19.5q-44 0 -84 -21q-12 -6 -34 -20zM146 46q0 29 21 49
t49 20q23 0 38 -15.5t15 -38.5q0 -29 -21 -49t-49 -20q-23 0 -38 15.5t-15 38.5z" />
    <glyph glyph-name="at" unicode="@" horiz-adv-x="1001" 
d="M759 51q-57 0 -87.5 28t-37.5 67h-6q-22 -36 -67.5 -62.5t-109.5 -26.5q-70 0 -114 44.5t-44 118.5q0 120 79.5 198.5t183.5 78.5q58 0 87.5 -24.5t36.5 -58.5l27 73h79l-62 -242q-10 -50 -10 -61q0 -29 16.5 -47t48.5 -18q66 0 114.5 66t48.5 171q0 62 -21 120t-61 106
t-105.5 77t-147.5 29q-130 0 -240.5 -64t-173.5 -169.5t-63 -224.5q0 -154 101.5 -259.5t255.5 -105.5q84 0 157 28q30 10 62 29l17 -51q-28 -18 -65 -31q-83 -31 -179 -31q-183 0 -296 120.5t-113 292.5q0 102 42 197.5t113.5 167.5t174 115t215.5 43q175 0 285 -109.5
t110 -270.5q0 -133 -69.5 -223.5t-181.5 -90.5zM483 147q63 0 112 53.5t49 117.5q0 42 -24 66t-65 24q-60 0 -107.5 -48.5t-47.5 -120.5q0 -44 21.5 -68t61.5 -24z" />
    <glyph glyph-name="A" unicode="A" horiz-adv-x="596" 
d="M432 600l162 -600h-104l-32 123h-286l-65 -123h-105l330 600h100zM366 485l-149 -278h220z" />
    <glyph glyph-name="B" unicode="B" horiz-adv-x="602" 
d="M588 190q0 -91 -65.5 -140.5t-176.5 -49.5h-272l84 600h263q91 0 138.5 -36t47.5 -104q0 -110 -104 -151v-4q40 -11 62.5 -41t22.5 -74zM393 262h-183l-25 -174h175q52 0 88 26.5t36 70.5q0 34 -25.5 54.5t-65.5 22.5zM501 439q0 73 -93 73h-163l-24 -168h161
q54 0 86.5 26.5t32.5 68.5z" />
    <glyph glyph-name="C" unicode="C" horiz-adv-x="560" 
d="M503 138l46 -76q-24 -22 -54 -38q-72 -38 -158 -38q-121 0 -192 77t-71 194q0 148 100.5 252t250.5 104q85 0 147 -38q24 -16 44 -37l-68 -77q-12 14 -33 29q-44 29 -101 29q-89 0 -155 -63t-78 -157q-14 -93 34.5 -155.5t136.5 -62.5q60 0 110 28q22 12 41 29z" />
    <glyph glyph-name="D" unicode="D" horiz-adv-x="633" 
d="M641 342q0 -150 -100 -246t-255 -96h-212l84 600h212q126 0 198.5 -70.5t72.5 -187.5zM352 512h-107l-60 -424h107q104 0 175.5 66.5t71.5 176.5q0 85 -52 133t-135 48z" />
    <glyph glyph-name="E" unicode="E" horiz-adv-x="540" 
d="M501 346l-12 -84h-279l-25 -174h328l-12 -88h-427l84 600h427l-12 -88h-328l-23 -166h279z" />
    <glyph glyph-name="F" unicode="F" horiz-adv-x="533" 
d="M500 345l-11 -84h-279l-37 -261h-99l84 600h429l-12 -88h-330l-24 -167h279z" />
    <glyph glyph-name="G" unicode="G" horiz-adv-x="639" 
d="M541 252v3h-182l11 84h288l-8 -59q-18 -134 -103 -214t-213 -80q-121 0 -190 76t-69 194q0 148 99.5 252.5t250.5 104.5q91 0 157 -39q27 -15 46 -38l-69 -76q-13 14 -36 29q-48 30 -111 30q-100 0 -167 -73.5t-67 -178.5q0 -82 45 -134t124 -52q80 0 135 48t59 123z" />
    <glyph glyph-name="H" unicode="H" horiz-adv-x="650" 
d="M660 600l-84 -600h-99l36 255h-304l-36 -255h-99l84 600h99l-36 -261h304l36 261h99z" />
    <glyph glyph-name="I" unicode="I" horiz-adv-x="248" 
d="M257 600l-84 -600h-99l84 600h99z" />
    <glyph glyph-name="J" unicode="J" horiz-adv-x="444" 
d="M20 38l58 78q7 -7 25 -17q30 -17 69 -17q58 0 91 32.5t44 103.5l54 382h99l-56 -401q-15 -98 -76 -155.5t-163 -57.5q-45 0 -81 13.5t-50 24.5t-14 14z" />
    <glyph glyph-name="K" unicode="K" horiz-adv-x="587" 
d="M257 600l-42 -301l324 301h117l-1 -12l-258 -240l180 -335l-2 -13h-109l-55 103l-92 172l-123 -114l-23 -161h-99l84 600h99z" />
    <glyph glyph-name="L" unicode="L" horiz-adv-x="494" 
d="M468 0h-394l84 600h99l-72 -512h295z" />
    <glyph glyph-name="M" unicode="M" horiz-adv-x="726" 
d="M554 0l59 418l-205 -226h-36l-141 223l-58 -415h-99l84 600h76l174 -280l253 280h74l-83 -600h-98z" />
    <glyph glyph-name="N" unicode="N" horiz-adv-x="666" 
d="M676 600l-84 -600h-74l-285 426l-60 -426h-99l84 600h75l285 -424l59 424h99z" />
    <glyph glyph-name="O" unicode="O" horiz-adv-x="675" 
d="M335 -14q-120 0 -190 77t-70 194q0 148 99.5 252t248.5 104q120 0 190 -77t70 -195q0 -146 -100.5 -250.5t-247.5 -104.5zM348 82q99 0 166 72t67 176q0 82 -46.5 135t-125.5 53q-98 0 -164.5 -72.5t-66.5 -177.5q0 -81 46.5 -133.5t123.5 -52.5z" />
    <glyph glyph-name="P" unicode="P" horiz-adv-x="577" 
d="M74 0l84 600h247q97 0 151 -46t54 -127q0 -108 -73 -170.5t-191 -62.5h-146l-27 -194h-99zM506 415q0 48 -31.5 72.5t-86.5 24.5h-143l-33 -231h144q69 0 109.5 33.5t40.5 100.5z" />
    <glyph glyph-name="Q" unicode="Q" horiz-adv-x="675" 
d="M335 -14q-120 0 -190 77t-70 194q0 148 99.5 252t248.5 104q120 0 190 -77t70 -195q0 -102 -53.5 -189t-143.5 -131l59 -134h-110l-44 104q-32 -5 -56 -5zM348 82q99 0 166 72t67 176q0 82 -46.5 135t-125.5 53q-98 0 -164.5 -72.5t-66.5 -177.5q0 -81 46.5 -133.5
t123.5 -52.5z" />
    <glyph glyph-name="R" unicode="R" horiz-adv-x="599" 
d="M158 600h247q97 0 151 -46t54 -127q0 -78 -42 -132.5t-114 -80.5l-1 -5l117 -195l-2 -14h-109l-115 198h-143l-28 -198h-99zM505 415q0 48 -31 72.5t-86 24.5h-143l-32 -226h149q64 0 103.5 33t39.5 96z" />
    <glyph glyph-name="S" unicode="S" horiz-adv-x="518" 
d="M44 61l65 75q20 -18 43 -29q54 -29 118 -29q65 0 97 25.5t32 67.5q0 30 -27 50t-96 42q-91 29 -133 65t-42 94q0 86 65.5 138.5t180.5 52.5q92 0 156 -31q28 -14 44 -30l-65 -81q-18 16 -37 25q-52 25 -111 25q-57 0 -90 -22t-33 -61q0 -26 27 -44.5t94 -38.5
q95 -30 137 -68t42 -97q0 -88 -66 -146t-185 -58q-98 0 -166 37q-29 15 -50 38z" />
    <glyph glyph-name="T" unicode="T" horiz-adv-x="523" 
d="M96 512l12 88h475l-12 -88h-188l-72 -512h-99l72 512h-188z" />
    <glyph glyph-name="U" unicode="U" horiz-adv-x="634" 
d="M315 -14q-116 0 -172.5 74.5t-40.5 193.5l49 346h99l-49 -346q-10 -77 22.5 -125t105.5 -48q74 0 120 48t56 125l49 346h99l-49 -346q-16 -119 -94 -193.5t-195 -74.5z" />
    <glyph glyph-name="V" unicode="V" horiz-adv-x="596" 
d="M248 0l-162 600h105l123 -486l260 486h104l-330 -600h-100z" />
    <glyph glyph-name="W" unicode="W" horiz-adv-x="803" 
d="M522 0l-61 432l-180 -432h-77l-106 600h105l62 -425l178 425h83l59 -426l182 426h107l-275 -600h-77z" />
    <glyph glyph-name="X" unicode="X" horiz-adv-x="551" 
d="M618 600l-226 -292l148 -308h-120l-92 206l-18 45l-29 -45l-149 -206h-119l231 308l-142 292h120l90 -196l14 -45l29 45l144 196h119z" />
    <glyph glyph-name="Y" unicode="Y" horiz-adv-x="537" 
d="M342 365l167 235h110l-269 -370l-32 -230h-99l32 230l-165 370h111l101 -235l15 -49z" />
    <glyph glyph-name="Z" unicode="Z" horiz-adv-x="534" 
d="M30 0l10 71l401 441h-328l12 88h460l-10 -73l-395 -439h328l-12 -88h-466z" />
    <glyph glyph-name="bracketleft" unicode="[" horiz-adv-x="326" 
d="M41 -130l117 830h250l-12 -80h-156l-94 -670h156l-11 -80h-250z" />
    <glyph glyph-name="backslash" unicode="\" horiz-adv-x="375" 
d="M229 -128l-87 926h98l87 -926h-98z" />
    <glyph glyph-name="bracketright" unicode="]" horiz-adv-x="326" 
d="M-1 -130l11 80h155l94 670h-155l12 80h250l-117 -830h-250z" />
    <glyph glyph-name="asciicircum" unicode="^" horiz-adv-x="417" 
d="M362 497l-67 127l-104 -127h-77l163 196h57l109 -196h-81z" />
    <glyph glyph-name="underscore" unicode="_" horiz-adv-x="536" 
d="M30 -120l11 80h442l-11 -80h-442z" />
    <glyph glyph-name="grave" unicode="`" horiz-adv-x="279" 
d="M209 497l-72 134l115 17l24 -151h-67z" />
    <glyph glyph-name="a" unicode="a" 
d="M428 358h4l23 62h66l-59 -420h-66l-6 62h-4q-16 -20 -37 -36q-47 -36 -119 -36q-75 0 -121.5 51t-46.5 135q0 110 67 182t161 72q71 0 111 -36q18 -16 27 -36zM402 233q0 53 -28 84.5t-74 31.5q-58 0 -98 -46t-40 -115q0 -52 27 -84.5t72 -32.5q58 0 99.5 45t41.5 117z
" />
    <glyph glyph-name="b" unicode="b" horiz-adv-x="521" 
d="M60 0l85 605h98l-34 -239h4q13 20 31 32q46 32 110 32q73 0 118.5 -51.5t45.5 -135.5q0 -111 -66.5 -182t-161.5 -71q-70 0 -110 38q-18 17 -26 38h-4l-23 -66h-67zM181 187q0 -54 27.5 -85t72.5 -31q57 0 97 46.5t40 114.5q0 52 -26.5 84.5t-71.5 32.5q-59 0 -99 -45
t-40 -117z" />
    <glyph glyph-name="c" unicode="c" horiz-adv-x="409" 
d="M249 -10q-86 0 -137 52.5t-51 136.5q0 107 71.5 179t178.5 72q55 0 97 -19q17 -7 28 -18l-38 -72q-11 8 -25 14q-32 14 -67 14q-60 0 -102.5 -45t-42.5 -118q0 -55 29 -85t77 -30q33 0 71 14q11 4 29 14l16 -71q-16 -12 -33 -19q-40 -19 -101 -19z" />
    <glyph glyph-name="d" unicode="d" 
d="M413 371h4l32 234h98l-85 -605h-66l-6 62h-4q-16 -20 -37 -36q-47 -36 -119 -36q-75 0 -121.5 51t-46.5 135q0 109 67 181.5t160 72.5q62 0 100 -30q17 -14 24 -29zM402 233q0 53 -28 84.5t-74 31.5q-58 0 -98 -46t-40 -115q0 -52 27 -84.5t72 -32.5q58 0 99.5 45
t41.5 117z" />
    <glyph glyph-name="e" unicode="e" horiz-adv-x="459" 
d="M388 105l26 -67q-19 -15 -41 -25q-52 -25 -120 -25q-91 0 -141.5 52t-50.5 137q0 107 68 180t170 73q79 0 121.5 -47.5t42.5 -127.5q0 -29 -4 -44q-1 -9 -3 -16h-298q-5 -62 24.5 -94.5t87.5 -32.5q44 0 86 18q16 7 32 19zM286 354q-86 0 -115 -94h197q3 94 -82 94z" />
    <glyph glyph-name="f" unicode="f" horiz-adv-x="322" 
d="M359 343h-117l-48 -343h-98l48 343h-75l11 77h75l5 36q10 73 56 114.5t118 41.5q36 0 68 -10q16 -5 24 -10l-41 -74l-15 5q-18 6 -38 6q-29 0 -48.5 -18t-24.5 -50l-6 -41h117z" />
    <glyph glyph-name="g" unicode="g" horiz-adv-x="521" 
d="M520 420l-55 -392q-12 -93 -75 -150t-164 -57q-47 0 -84.5 14t-52 26.5t-22.5 24.5l58 62l4 -4q4 -5 7 -7.5l9 -7.5t12 -9t14.5 -8t17.5 -6.5t21 -4.5t25 -2q115 0 132 126l4 29h-4q-15 -20 -32 -32q-46 -32 -109 -32q-74 0 -119.5 51.5t-45.5 135.5q0 111 67.5 182
t162.5 71q69 0 110 -39q17 -16 25 -38h5l23 67h66zM401 232q0 53 -28.5 85t-73.5 32q-58 0 -98 -46.5t-40 -114.5q0 -52 27 -84.5t72 -32.5q59 0 100 44t41 117z" />
    <glyph glyph-name="h" unicode="h" horiz-adv-x="512" 
d="M60 0l85 605h99l-32 -225h3q48 50 132 50q80 0 118 -51t26 -138l-34 -241h-98l32 231q7 51 -14.5 83t-67.5 32q-47 0 -79.5 -33t-36.5 -70l-34 -243h-99z" />
    <glyph glyph-name="i" unicode="i" horiz-adv-x="221" 
d="M180 497q-23 0 -37.5 14.5t-14.5 37.5q0 27 20.5 46.5t47.5 19.5q24 0 39 -15t15 -37q0 -27 -21 -46.5t-49 -19.5zM61 0l59 420h98l-59 -420h-98z" />
    <glyph glyph-name="j" unicode="j" horiz-adv-x="221" 
d="M-20 -156l12 82h15q43 0 50 45l63 449h99l-64 -454q-8 -58 -43 -90t-94 -32h-38zM180 497q-23 0 -38 14.5t-15 37.5q0 27 20.5 46.5t48.5 19.5q23 0 38.5 -15t15.5 -37q0 -27 -21 -46.5t-49 -19.5z" />
    <glyph glyph-name="k" unicode="k" horiz-adv-x="456" 
d="M382 420h122l-196 -183l140 -237h-119l-105 176l-47 -44l-19 -132h-98l85 605h98l-51 -365z" />
    <glyph glyph-name="l" unicode="l" horiz-adv-x="222" 
d="M62 0l85 605h98l-85 -605h-98z" />
    <glyph glyph-name="m" unicode="m" horiz-adv-x="806" 
d="M60 0l59 420h64l4 -60h6q55 70 148 70q103 0 139 -76h5q57 76 154 76q81 0 119.5 -51.5t26.5 -137.5l-34 -241h-98l33 232q7 50 -14 82t-68 32q-46 0 -75.5 -28t-38.5 -67l-35 -251h-98l34 242q6 46 -15.5 75t-68.5 29t-77 -29t-37 -66l-35 -251h-98z" />
    <glyph glyph-name="n" unicode="n" horiz-adv-x="513" 
d="M60 0l59 420h64l4 -60h6q28 36 62.5 53t87.5 17q81 0 121 -51.5t28 -137.5l-34 -241h-98l33 232q7 50 -15 82t-69 32q-46 0 -77.5 -29.5t-38.5 -65.5l-35 -251h-98z" />
    <glyph glyph-name="o" unicode="o" horiz-adv-x="499" 
d="M497 238q0 -109 -73.5 -178.5t-175.5 -69.5q-82 0 -134.5 51t-52.5 137q0 109 74 180.5t175 71.5q82 0 134.5 -53t52.5 -139zM259 68q59 0 100.5 45.5t41.5 118.5q0 54 -28.5 87t-73.5 33q-59 0 -100.5 -46.5t-41.5 -119.5q0 -54 28 -86t74 -32z" />
    <glyph glyph-name="p" unicode="p" horiz-adv-x="521" 
d="M169 49h-4l-29 -205h-98l81 576h65l6 -60h6q14 18 37 35q51 35 119 35q75 0 121 -51t46 -135q0 -109 -66.5 -181.5t-158.5 -72.5q-65 0 -102 29q-15 12 -23 30zM180 187q0 -53 28 -84.5t73 -31.5q58 0 98 46t40 115q0 52 -27 84.5t-72 32.5q-58 0 -99 -45t-41 -117z" />
    <glyph glyph-name="q" unicode="q" 
d="M521 420l-81 -576h-98l30 210h-4q-15 -20 -32 -32q-46 -32 -109 -32q-74 0 -119.5 51.5t-45.5 135.5q0 111 67.5 182t162.5 71q69 0 110 -39q17 -16 25 -38h5l23 67h66zM402 232q0 53 -28 85t-74 32q-58 0 -98 -46.5t-40 -114.5q0 -52 27 -84.5t72 -32.5q59 0 100 44
t41 117z" />
    <glyph glyph-name="r" unicode="r" horiz-adv-x="296" 
d="M343 421l-11 -82h-23q-43 0 -76.5 -29t-41.5 -74l-33 -236h-98l59 420h64l3 -67h5q44 68 129 68h23z" />
    <glyph glyph-name="s" unicode="s" horiz-adv-x="418" 
d="M39 39l44 67q16 -11 38 -21q44 -20 96 -20q85 0 85 52q0 23 -35 38.5t-77.5 24.5t-77.5 37t-35 74q0 60 48 99.5t134 39.5q72 0 128 -18q25 -8 42 -18l-44 -76q-16 11 -34 18q-46 18 -93 18q-82 0 -82 -49q0 -18 23.5 -29.5t57 -19.5t66.5 -19.5t56.5 -37.5t23.5 -65
q0 -62 -48.5 -103t-145.5 -41q-77 0 -131 24q-22 10 -39 25z" />
    <glyph glyph-name="t" unicode="t" horiz-adv-x="332" 
d="M74 420h75l18 128h98l-18 -128h113l-11 -77h-113l-30 -213q-8 -56 45 -56q15 0 37 8q2 1 8 3.5t9 4.5l20 -69q-11 -9 -42 -20t-64 -11q-67 0 -93.5 36.5t-17.5 101.5l30 215h-75z" />
    <glyph glyph-name="u" unicode="u" horiz-adv-x="510" 
d="M376 174l35 246h98l-59 -420h-64l-9 58h-4q-59 -68 -148 -68q-81 0 -119 51.5t-26 137.5l34 241h98l-33 -232q-7 -53 13 -84.5t67 -31.5q49 0 81 32.5t36 69.5z" />
    <glyph glyph-name="v" unicode="v" horiz-adv-x="459" 
d="M513 420l-249 -420h-69l-131 420h108l68 -273q6 -22 3 -31h5q3 9 13 31l144 273h108z" />
    <glyph glyph-name="w" unicode="w" horiz-adv-x="661" 
d="M710 420l-212 -420h-84l-38 262q-3 13 -1 39h-5q-1 -13 -13 -39l-111 -262h-83l-94 420h103l43 -273q2 -22 2 -31h7q1 4 3 9.5t5 12.5t4 11l113 271h83l37 -271q2 -7 2 -33h7q2 10 11 31l121 273h100z" />
    <glyph glyph-name="x" unicode="x" horiz-adv-x="446" 
d="M14 0l178 216l-112 204h112l70 -143h3l110 143h111l-174 -204l123 -216h-112l-75 156h-3l-121 -156h-110z" />
    <glyph glyph-name="y" unicode="y" horiz-adv-x="508" 
d="M377 176l34 244h96l-56 -402q-12 -89 -71.5 -143t-158.5 -54q-65 0 -105.5 22t-54.5 43l58 62q5 -8 15.5 -17.5t37 -20.5t57.5 -11q108 0 125 116l4 26q-51 -51 -130 -51q-84 0 -123 51t-27 138l34 241h98l-33 -232q-7 -52 13 -84t66 -32q51 0 82.5 31.5t38.5 72.5z" />
    <glyph glyph-name="z" unicode="z" horiz-adv-x="425" 
d="M390 0h-356l7 53l270 288h-227l11 79h354l-7 -48l-264 -293h223z" />
    <glyph glyph-name="braceleft" unicode="{" horiz-adv-x="290" 
d="M61 326h25q61 0 73 86l23 162q19 131 164 141l2 -82q-33 -6 -47 -19t-19 -48l-24 -166q-12 -88 -76 -110l-1 -9q59 -20 46 -108l-24 -167q-5 -35 6 -48.5t42 -17.5l-26 -82q-143 10 -124 140l23 163q12 87 -49 87h-25z" />
    <glyph glyph-name="bar" unicode="|" horiz-adv-x="209" 
d="M247 687l-115 -815h-91l115 815h91z" />
    <glyph glyph-name="braceright" unicode="}" horiz-adv-x="290" 
d="M297 326h24l-11 -78h-24q-62 0 -74 -87l-23 -163q-19 -130 -163 -140l-3 82q33 4 47 17.5t19 48.5l24 167q13 89 77 108l1 9q-58 22 -46 110l23 166q5 35 -5.5 48t-42.5 19l27 82q142 -10 123 -141l-23 -162q-12 -86 50 -86z" />
    <glyph glyph-name="asciitilde" unicode="~" horiz-adv-x="477" 
d="M355 323q33 0 59 12q11 4 24 13l24 -61q-14 -11 -32 -20q-35 -19 -83 -19q-28 0 -69.5 16t-72.5 16q-30 0 -58 -13q-13 -5 -24 -12l-24 60q14 11 32 20q36 20 83 20q28 0 68.5 -16t72.5 -16z" />
    <glyph glyph-name="uni00A0" unicode="&#xa0;" horiz-adv-x="214" 
 />
    <glyph glyph-name="exclamdown" unicode="&#xa1;" horiz-adv-x="211" 
d="M172 238l-34 -415h-116l83 415h67zM94 361q0 29 21.5 49.5t50.5 20.5q24 0 39 -15.5t15 -39.5q0 -29 -21 -50t-50 -21q-24 0 -39.5 16t-15.5 40z" />
    <glyph glyph-name="cent" unicode="&#xa2;" horiz-adv-x="428" 
d="M183 0l23 86q-60 17 -94 65t-34 116q0 106 70 177.5t176 73.5l22 82h51l-23 -86q34 -6 61 -19q14 -8 20 -13l-37 -73q-13 8 -18 10q-18 10 -48 16l-75 -276h10q33 0 71 14q11 4 29 14l15 -72q-18 -12 -35 -19q-46 -18 -98 -18h-14l-21 -78h-51zM178 277q0 -73 52 -104
l71 261q-53 -10 -88 -52.5t-35 -104.5z" />
    <glyph glyph-name="sterling" unicode="&#xa3;" horiz-adv-x="505" 
d="M467 88l-12 -88h-396l12 88h1v1q22 10 37 24q37 33 37 87q0 29 -4 56h-63l10 72h44q-1 15 -1 50q0 98 68 163.5t182 65.5q70 0 124 -32q22 -13 38 -31l-70 -78q-10 12 -25 22q-36 23 -77 23q-64 0 -98 -37t-34 -101q0 -19 2 -45h196l-10 -72h-178q2 -26 2 -44
q0 -67 -46 -124h261z" />
    <glyph glyph-name="yen" unicode="&#xa5;" horiz-adv-x="592" 
d="M369 365l167 235h110l-219 -301h124l-10 -72h-165l-9 -68h164l-10 -71h-164l-12 -88h-99l12 88h-162l10 71h162l9 68h-161l10 72h121l-134 301h111l101 -235l15 -49z" />
    <glyph glyph-name="brokenbar" unicode="&#xa6;" horiz-adv-x="218" 
d="M200 330h-90l48 343h90zM132 -153h-90l48 343h90z" />
    <glyph glyph-name="section" unicode="&#xa7;" horiz-adv-x="528" 
d="M42 46l57 72q19 -14 45 -24q58 -24 125 -24q121 0 121 56q0 23 -23.5 36t-91.5 33q-72 21 -112 48t-40 70q0 47 46 77q-49 28 -49 79q0 64 60.5 104t175.5 40q89 0 151 -24q25 -10 45 -23l-56 -75q-19 12 -39 20q-49 20 -113 20q-109 0 -109 -53q0 -22 21 -35t72 -27
q174 -47 174 -125q0 -49 -45 -83q47 -32 47 -78q0 -61 -61.5 -102.5t-181.5 -41.5q-95 0 -167 30q-34 14 -52 30zM284 348q-28 7 -40 11q-22 -7 -22 -34q0 -32 96 -62l62 -19q21 12 21 36q0 22 -28 36.5t-89 31.5z" />
    <glyph glyph-name="dieresis" unicode="&#xa8;" horiz-adv-x="455" 
d="M185 704q0 24 19.5 42.5t43.5 18.5q20 0 33.5 -14.5t13.5 -34.5q0 -24 -19.5 -42.5t-43.5 -18.5q-20 0 -33.5 14.5t-13.5 34.5zM356 704q0 23 20 42t42 19q20 0 33 -14t13 -35q0 -24 -19 -42.5t-43 -18.5q-20 0 -33 14t-13 35z" />
    <glyph glyph-name="copyright" unicode="&#xa9;" horiz-adv-x="681" 
d="M426 605q121 0 190 -74.5t69 -189.5q0 -144 -96.5 -245.5t-248.5 -101.5q-122 0 -191.5 75t-69.5 190q0 142 98 244t249 102zM420 563q-129 0 -212.5 -88t-83.5 -212q0 -98 59 -162.5t163 -64.5q129 0 212.5 88t83.5 211q0 99 -59.5 163.5t-162.5 64.5zM511 424l-41 -51
q-6 8 -16 12q-20 13 -48 13q-47 0 -78 -32.5t-31 -79.5q0 -37 22 -60t60 -23q30 0 51 12q12 5 19 12l27 -50q-15 -13 -28 -19q-38 -18 -81 -18q-66 0 -102.5 39t-36.5 99q0 77 51 130t133 53q43 0 77 -19q15 -8 22 -18z" />
    <glyph glyph-name="ordfeminine" unicode="&#xaa;" horiz-adv-x="395" 
d="M85 359q0 54 42.5 86t112.5 32q65 0 90 -25l1 10q6 48 -9 69t-63 21q-55 0 -96 -22l-13 58q14 6 39 13q45 13 89 13q79 0 107.5 -39t18.5 -115l-26 -186h-54l-6 36h-5q-36 -44 -118 -44q-49 0 -79.5 25.5t-30.5 67.5zM158 368q0 -50 68 -50q39 0 66 19.5t27 43.5
q0 23 -20.5 35.5t-54.5 12.5q-41 0 -63.5 -16.5t-22.5 -44.5z" />
    <glyph glyph-name="guillemotleft" unicode="&#xab;" horiz-adv-x="476" 
d="M64 197l3 22l151 189h83l-2 -10l-146 -186l-1 -6l94 -188l-2 -10h-83zM261 197l3 22l151 189h82l-2 -10l-146 -186l-1 -6l94 -188l-2 -10h-82z" />
    <glyph glyph-name="logicalnot" unicode="&#xac;" horiz-adv-x="552" 
d="M81 266l11 80h447l-48 -346h-82l37 266h-365z" />
    <glyph glyph-name="registered" unicode="&#xae;" horiz-adv-x="541" 
d="M553 411q0 -108 -74 -186t-188 -78q-91 0 -143 57.5t-52 144.5q0 108 73 186t187 78q92 0 144.5 -57.5t52.5 -144.5zM508 406q0 72 -42.5 118t-115.5 46q-90 0 -149.5 -61.5t-59.5 -154.5q0 -71 42.5 -117.5t113.5 -46.5q91 0 151 62.5t60 153.5zM252 485h94
q36 0 56.5 -17.5t20.5 -46.5q0 -46 -46 -71l32 -57l-2 -10h-48l-31 56h-51l-8 -56h-45zM339 442h-48l-8 -61h48q44 0 44 35q0 26 -36 26z" />
    <glyph glyph-name="overscore" unicode="&#xaf;" horiz-adv-x="526" 
d="M215 668l9 61h295l-9 -61h-295z" />
    <glyph glyph-name="degree" unicode="&#xb0;" horiz-adv-x="293" 
d="M241 672q46 0 73 -27t27 -68q0 -50 -37.5 -85t-92.5 -35q-47 0 -74 26.5t-27 67.5q0 51 37.5 86t93.5 35zM234 622q-29 0 -47.5 -18.5t-18.5 -46.5q0 -21 13 -34.5t37 -13.5q29 0 47.5 18t18.5 45q0 22 -13.5 36t-36.5 14z" />
    <glyph glyph-name="plusminus" unicode="&#xb1;" 
d="M329 178h-82l22 160h-164l11 80h164l24 166h82l-24 -166h160l-11 -80h-160zM479 112l-11 -81h-406l11 81h406z" />
    <glyph glyph-name="uni00B2" unicode="&#xb2;" horiz-adv-x="341" 
d="M98 342l8 54l148 115q39 32 39 62q0 41 -48 41q-35 0 -83 -35l-28 53q15 11 34 22q44 23 88 23q55 0 82 -26t27 -67q0 -62 -57 -106l-102 -78h141l-8 -58h-241z" />
    <glyph glyph-name="uni00B3" unicode="&#xb3;" horiz-adv-x="328" 
d="M133 609l9 59h227l-7 -44l-76 -84q68 -14 68 -80q0 -54 -39.5 -90t-110.5 -36q-69 0 -114 45l43 49q6 -7 20 -17q26 -16 57 -16q36 0 54.5 16.5t18.5 41.5q0 40 -52 40h-40l5 36l74 80h-137z" />
    <glyph glyph-name="acute" unicode="&#xb4;" horiz-adv-x="279" 
d="M308 629l-118 -132h-67l72 145z" />
    <glyph glyph-name="mu" unicode="&#xb5;" horiz-adv-x="510" 
d="M137 -128h-98l38 269q0 19 3 38l34 241h98l-33 -232q-7 -53 13 -84.5t67 -31.5q49 0 81 32.5t36 69.5l35 246h98l-59 -420h-64l-9 58h-4q-59 -68 -148 -68q-38 0 -71 13z" />
    <glyph glyph-name="paragraph" unicode="&#xb6;" horiz-adv-x="536" 
d="M358 -82l29 204h-60q-113 0 -181 54.5t-68 156.5q0 127 88 197.5t226 70.5h161l-96 -683h-99z" />
    <glyph glyph-name="middot" unicode="&#xb7;" horiz-adv-x="217" 
d="M96 352q0 29 21.5 50t49.5 21q24 0 39.5 -16.5t15.5 -40.5q0 -29 -21.5 -49.5t-50.5 -20.5q-23 0 -38.5 16t-15.5 40z" />
    <glyph glyph-name="cedilla" unicode="&#xb8;" horiz-adv-x="206" 
d="M64 -69l-14 20l33 52h48l-19 -34q25 0 40.5 -14.5t15.5 -40.5q0 -36 -25.5 -59t-68.5 -23q-36 0 -59 15q-11 6 -17 15l29 36q28 -20 50 -20q20 0 31.5 9t11.5 23q0 24 -33 24q-9 0 -17 -2q-3 -1 -6 -1z" />
    <glyph glyph-name="uni00B9" unicode="&#xb9;" horiz-adv-x="215" 
d="M109 609l8 59h133l-46 -326h-67l38 267h-66z" />
    <glyph glyph-name="ordmasculine" unicode="&#xba;" horiz-adv-x="399" 
d="M287 613q64 0 102.5 -40t38.5 -108q0 -87 -55 -141.5t-135 -54.5q-65 0 -104 39.5t-39 106.5q0 88 55 143t137 55zM278 550q-49 0 -79.5 -36t-30.5 -92q0 -42 20.5 -66t58.5 -24q48 0 78.5 35t30.5 92q0 42 -20.5 66.5t-57.5 24.5z" />
    <glyph glyph-name="guillemotright" unicode="&#xbb;" horiz-adv-x="476" 
d="M275 219l-3 -22l-151 -189h-83l1 10l148 188l1 6l-95 186l1 10h83zM471 219l-3 -22l-151 -189h-83l1 10l148 188l1 6l-95 186l1 10h83z" />
    <glyph glyph-name="onequarter" unicode="&#xbc;" horiz-adv-x="637" 
d="M112 0h-81l555 600h81zM325 80l6 42l208 204h50l-27 -191h59l-8 -55h-59l-11 -80h-63l11 80h-166zM119 541l8 59h134l-45 -326h-67l37 267h-67zM512 233l-71 -73q-3 -4 -7.5 -8t-8 -7.5t-6.5 -6t-5 -4.5l-2 -2l39 3h48l10 73l4 25h-1z" />
    <glyph glyph-name="onehalf" unicode="&#xbd;" horiz-adv-x="695" 
d="M111 0h-80l554 600h82zM417 0l8 54l149 115q39 32 39 62q0 41 -49 41q-41 0 -82 -35l-28 53q15 11 34 22q44 23 88 23q54 0 81 -26t27 -67q0 -62 -57 -106l-102 -78h141l-8 -58h-241zM123 541l8 59h133l-45 -326h-67l37 267h-66z" />
    <glyph glyph-name="threequarters" unicode="&#xbe;" horiz-adv-x="706" 
d="M187 0h-81l555 600h82zM398 77l6 42l207 204h51l-27 -191h55l-8 -55h-55l-11 -77h-65l11 77h-164zM121 541l9 59h227l-7 -44l-76 -84q67 -13 67 -80q0 -54 -39.5 -90t-109.5 -36q-69 0 -114 45l43 49q6 -7 20 -17q26 -16 57 -16q35 0 54 16.5t19 41.5q0 40 -52 40h-40
l5 36l74 80h-137zM583 231l-70 -73q-5 -7 -12 -13l-13 -11l-5 -5l40 3h47l10 73l4 26h-1z" />
    <glyph glyph-name="questiondown" unicode="&#xbf;" horiz-adv-x="424" 
d="M345 -52l37 -80q-19 -15 -47 -28q-58 -28 -128 -28q-84 0 -133 38t-49 104q0 45 18 80t44.5 56.5t53.5 40t50 41t29 47.5l6 24h76l-5 -36q-4 -31 -22.5 -57t-41 -44.5l-44 -36.5t-36.5 -41t-15 -50q0 -32 24 -51t66 -19q45 0 83 20q12 6 34 20zM341 379q0 -29 -21 -49
t-49 -20q-23 0 -38 15.5t-15 38.5q0 29 21 49t49 20q23 0 38 -15.5t15 -38.5z" />
    <glyph glyph-name="Agrave" unicode="&#xc0;" horiz-adv-x="596" 
d="M432 600l162 -600h-104l-32 123h-286l-65 -123h-105l330 600h100zM366 485l-149 -278h220zM351 635l-72 134l115 17l24 -151h-67z" />
    <glyph glyph-name="Aacute" unicode="&#xc1;" horiz-adv-x="596" 
d="M432 600l162 -600h-104l-32 123h-286l-65 -123h-105l330 600h100zM366 485l-149 -278h220zM540 767l-118 -132h-67l72 145z" />
    <glyph glyph-name="Acircumflex" unicode="&#xc2;" horiz-adv-x="596" 
d="M432 600l162 -600h-104l-32 123h-286l-65 -123h-105l330 600h100zM366 485l-149 -278h220zM440 655l-40 62l-59 -62h-76l104 121h77l71 -121h-77z" />
    <glyph glyph-name="Atilde" unicode="&#xc3;" horiz-adv-x="596" 
d="M432 600l162 -600h-104l-32 123h-286l-65 -123h-105l330 600h100zM366 485l-149 -278h220zM468 657q-33 0 -73 25t-57 25q-29 0 -44 -36l-6 -16l-68 7l9 30q28 90 108 90q32 0 72 -25t58 -25q33 0 45 37l5 15l68 -6l-9 -30q-27 -91 -108 -91z" />
    <glyph glyph-name="Adieresis" unicode="&#xc4;" horiz-adv-x="596" 
d="M432 600l162 -600h-104l-32 123h-286l-65 -123h-105l330 600h100zM366 485l-149 -278h220zM257 704q0 24 19.5 42.5t43.5 18.5q20 0 33.5 -14.5t13.5 -34.5q0 -24 -19.5 -42.5t-43.5 -18.5q-20 0 -33.5 14.5t-13.5 34.5zM428 704q0 23 20 42t42 19q20 0 33 -14t13 -35
q0 -24 -19 -42.5t-43 -18.5q-20 0 -33 14t-13 35z" />
    <glyph glyph-name="Aring" unicode="&#xc5;" horiz-adv-x="596" 
d="M432 600l162 -600h-104l-32 123h-286l-65 -123h-105l330 600h100zM366 485l-149 -278h220zM288 693q0 45 33 72t89 27q45 0 70.5 -21.5t25.5 -55.5q0 -44 -33.5 -72t-87.5 -28q-46 0 -71.5 21t-25.5 57zM448 709q0 34 -45 34q-27 0 -42.5 -11.5t-15.5 -32.5q0 -34 47 -34
q56 0 56 44z" />
    <glyph glyph-name="AE" unicode="&#xc6;" horiz-adv-x="887" 
d="M-10 0l495 600h448l-12 -88h-335l-24 -168h278l-11 -84h-278l-25 -172h335l-12 -88h-434l18 126h-223l-101 -126h-119zM474 454l-195 -243h166l34 243h-5z" />
    <glyph glyph-name="Ccedilla" unicode="&#xc7;" horiz-adv-x="560" 
d="M284 -69l-14 20l24 38q-103 14 -161.5 88t-58.5 180q0 148 100.5 252t250.5 104q85 0 147 -38q24 -16 44 -37l-68 -77q-12 14 -33 29q-44 29 -101 29q-89 0 -155 -63t-78 -157q-14 -93 34.5 -155.5t136.5 -62.5q60 0 110 28q22 12 41 29l46 -76q-27 -23 -53 -37
q-70 -38 -155 -39l-9 -17q25 0 40.5 -14.5t15.5 -40.5q0 -36 -25.5 -59t-68.5 -23q-36 0 -59 15q-11 6 -17 15l29 36q28 -20 50 -20q20 0 31.5 9t11.5 23q0 24 -33 24q-9 0 -17 -2q-3 -1 -6 -1z" />
    <glyph glyph-name="Egrave" unicode="&#xc8;" horiz-adv-x="540" 
d="M501 346l-12 -84h-279l-25 -174h328l-12 -88h-427l84 600h427l-12 -88h-328l-23 -166h279zM356 635l-72 134l115 17l24 -151h-67z" />
    <glyph glyph-name="Eacute" unicode="&#xc9;" horiz-adv-x="540" 
d="M531 767l-118 -132h-67l72 145zM501 346l-12 -84h-279l-25 -174h328l-12 -88h-427l84 600h427l-12 -88h-328l-23 -166h279z" />
    <glyph glyph-name="Ecircumflex" unicode="&#xca;" horiz-adv-x="540" 
d="M438 655l-40 62l-59 -62h-76l104 121h77l71 -121h-77zM501 346l-12 -84h-279l-25 -174h328l-12 -88h-427l84 600h427l-12 -88h-328l-23 -166h279z" />
    <glyph glyph-name="Edieresis" unicode="&#xcb;" horiz-adv-x="540" 
d="M254 704q0 24 19.5 42.5t43.5 18.5q20 0 33.5 -14.5t13.5 -34.5q0 -24 -19.5 -42.5t-43.5 -18.5q-20 0 -33.5 14.5t-13.5 34.5zM425 704q0 23 20 42t42 19q20 0 33 -14t13 -35q0 -24 -19 -42.5t-43 -18.5q-20 0 -33 14t-13 35zM501 346l-12 -84h-279l-25 -174h328
l-12 -88h-427l84 600h427l-12 -88h-328l-23 -166h279z" />
    <glyph glyph-name="Igrave" unicode="&#xcc;" horiz-adv-x="248" 
d="M257 600l-84 -600h-99l84 600h99zM176 635l-72 134l115 17l24 -151h-67z" />
    <glyph glyph-name="Iacute" unicode="&#xcd;" horiz-adv-x="248" 
d="M257 600l-84 -600h-99l84 600h99zM365 767l-118 -132h-67l72 145z" />
    <glyph glyph-name="Icircumflex" unicode="&#xce;" horiz-adv-x="248" 
d="M257 600l-84 -600h-99l84 600h99zM267 655l-40 62l-59 -62h-76l104 121h77l71 -121h-77z" />
    <glyph glyph-name="Idieresis" unicode="&#xcf;" horiz-adv-x="248" 
d="M257 600l-84 -600h-99l84 600h99zM84 704q0 24 19.5 42.5t43.5 18.5q20 0 33.5 -14.5t13.5 -34.5q0 -24 -19.5 -42.5t-43.5 -18.5q-20 0 -33.5 14.5t-13.5 34.5zM255 704q0 23 20 42t42 19q20 0 33 -14t13 -35q0 -24 -19 -42.5t-43 -18.5q-20 0 -33 14t-13 35z" />
    <glyph glyph-name="Eth" unicode="&#xd0;" horiz-adv-x="634" 
d="M57 259l13 89h53l35 252h212q126 0 198.5 -70.5t72.5 -187.5q0 -150 -100 -246t-255 -96h-212l36 259h-53zM352 512h-107l-24 -164h156l-13 -89h-155l-24 -171h107q104 0 175.5 66.5t71.5 176.5q0 85 -52 133t-135 48z" />
    <glyph glyph-name="Ntilde" unicode="&#xd1;" horiz-adv-x="666" 
d="M676 600l-84 -600h-74l-285 426l-60 -426h-99l84 600h75l285 -424l59 424h99zM503 657q-33 0 -73 25t-57 25q-29 0 -44 -36l-6 -16l-68 7l9 30q28 90 108 90q32 0 72 -25t58 -25q33 0 45 37l5 15l68 -6l-9 -30q-27 -91 -108 -91z" />
    <glyph glyph-name="Ograve" unicode="&#xd2;" horiz-adv-x="675" 
d="M335 -14q-120 0 -190 77t-70 194q0 148 99.5 252t248.5 104q120 0 190 -77t70 -195q0 -146 -100.5 -250.5t-247.5 -104.5zM348 82q99 0 166 72t67 176q0 82 -46.5 135t-125.5 53q-98 0 -164.5 -72.5t-66.5 -177.5q0 -81 46.5 -133.5t123.5 -52.5zM396 655l-72 134l115 17
l24 -151h-67z" />
    <glyph glyph-name="Oacute" unicode="&#xd3;" horiz-adv-x="675" 
d="M577 787l-118 -132h-67l72 145zM335 -14q-120 0 -190 77t-70 194q0 148 99.5 252t248.5 104q120 0 190 -77t70 -195q0 -146 -100.5 -250.5t-247.5 -104.5zM348 82q99 0 166 72t67 176q0 82 -46.5 135t-125.5 53q-98 0 -164.5 -72.5t-66.5 -177.5q0 -81 46.5 -133.5
t123.5 -52.5z" />
    <glyph glyph-name="Ocircumflex" unicode="&#xd4;" horiz-adv-x="675" 
d="M480 655l-40 62l-59 -62h-76l104 121h77l71 -121h-77zM335 -14q-120 0 -190 77t-70 194q0 148 99.5 252t248.5 104q120 0 190 -77t70 -195q0 -146 -100.5 -250.5t-247.5 -104.5zM348 82q99 0 166 72t67 176q0 82 -46.5 135t-125.5 53q-98 0 -164.5 -72.5t-66.5 -177.5
q0 -81 46.5 -133.5t123.5 -52.5z" />
    <glyph glyph-name="Otilde" unicode="&#xd5;" horiz-adv-x="675" 
d="M335 -14q-120 0 -190 77t-70 194q0 148 99.5 252t248.5 104q120 0 190 -77t70 -195q0 -146 -100.5 -250.5t-247.5 -104.5zM348 82q99 0 166 72t67 176q0 82 -46.5 135t-125.5 53q-98 0 -164.5 -72.5t-66.5 -177.5q0 -81 46.5 -133.5t123.5 -52.5zM504 657q-33 0 -73 25
t-57 25q-29 0 -44 -36l-6 -16l-68 7l9 30q28 90 108 90q32 0 72 -25t58 -25q33 0 45 37l5 15l68 -6l-9 -30q-27 -91 -108 -91z" />
    <glyph glyph-name="Odieresis" unicode="&#xd6;" horiz-adv-x="675" 
d="M297 704q0 24 19.5 42.5t43.5 18.5q20 0 33.5 -14.5t13.5 -34.5q0 -24 -19.5 -42.5t-43.5 -18.5q-20 0 -33.5 14.5t-13.5 34.5zM468 704q0 23 20 42t42 19q20 0 33 -14t13 -35q0 -24 -19 -42.5t-43 -18.5q-20 0 -33 14t-13 35zM335 -14q-120 0 -190 77t-70 194
q0 148 99.5 252t248.5 104q120 0 190 -77t70 -195q0 -146 -100.5 -250.5t-247.5 -104.5zM348 82q99 0 166 72t67 176q0 82 -46.5 135t-125.5 53q-98 0 -164.5 -72.5t-66.5 -177.5q0 -81 46.5 -133.5t123.5 -52.5z" />
    <glyph glyph-name="multiply" unicode="&#xd7;" horiz-adv-x="502" 
d="M120 95l-48 56l166 149l-124 150l64 56l123 -149l166 149l48 -56l-167 -150l125 -149l-64 -56l-124 149z" />
    <glyph glyph-name="Oslash" unicode="&#xd8;" horiz-adv-x="685" 
d="M340 -14q-111 0 -180 67l-58 -53h-105l120 108q-37 65 -37 149q0 148 99.5 252t248.5 104q107 0 178 -66l59 53h104l-120 -108q39 -67 39 -151q0 -146 -100.5 -250.5t-247.5 -104.5zM353 82q99 0 166 72t67 176q0 50 -18 89l-329 -295q45 -42 114 -42zM183 268
q0 -51 16 -86l329 295q-44 41 -114 41q-98 0 -164.5 -72.5t-66.5 -177.5z" />
    <glyph glyph-name="Ugrave" unicode="&#xd9;" horiz-adv-x="634" 
d="M315 -14q-116 0 -172.5 74.5t-40.5 193.5l49 346h99l-49 -346q-10 -77 22.5 -125t105.5 -48q74 0 120 48t56 125l49 346h99l-49 -346q-16 -119 -94 -193.5t-195 -74.5zM371 635l-72 134l115 17l24 -151h-67z" />
    <glyph glyph-name="Uacute" unicode="&#xda;" horiz-adv-x="634" 
d="M554 767l-118 -132h-67l72 145zM315 -14q-116 0 -172.5 74.5t-40.5 193.5l49 346h99l-49 -346q-10 -77 22.5 -125t105.5 -48q74 0 120 48t56 125l49 346h99l-49 -346q-16 -119 -94 -193.5t-195 -74.5z" />
    <glyph glyph-name="Ucircumflex" unicode="&#xdb;" horiz-adv-x="634" 
d="M457 634l-40 62l-59 -62h-76l104 121h77l71 -121h-77zM315 -14q-116 0 -172.5 74.5t-40.5 193.5l49 346h99l-49 -346q-10 -77 22.5 -125t105.5 -48q74 0 120 48t56 125l49 346h99l-49 -346q-16 -119 -94 -193.5t-195 -74.5z" />
    <glyph glyph-name="Udieresis" unicode="&#xdc;" horiz-adv-x="634" 
d="M278 704q0 24 19.5 42.5t43.5 18.5q20 0 33.5 -14.5t13.5 -34.5q0 -24 -19.5 -42.5t-43.5 -18.5q-20 0 -33.5 14.5t-13.5 34.5zM449 704q0 23 20 42t42 19q20 0 33 -14t13 -35q0 -24 -19 -42.5t-43 -18.5q-20 0 -33 14t-13 35zM315 -14q-116 0 -172.5 74.5t-40.5 193.5
l49 346h99l-49 -346q-10 -77 22.5 -125t105.5 -48q74 0 120 48t56 125l49 346h99l-49 -346q-16 -119 -94 -193.5t-195 -74.5z" />
    <glyph glyph-name="Yacute" unicode="&#xdd;" horiz-adv-x="537" 
d="M342 365l167 235h110l-269 -370l-32 -230h-99l32 230l-165 370h111l101 -235l15 -49zM513 800l-118 -132h-67l72 145z" />
    <glyph glyph-name="Thorn" unicode="&#xde;" horiz-adv-x="581" 
d="M257 600l-13 -94h152q99 0 152.5 -45t53.5 -129q0 -114 -74.5 -177.5t-195.5 -63.5h-146l-13 -91h-99l84 600h99zM499 316q0 50 -32 75.5t-90 25.5h-145l-34 -239h145q73 0 114.5 34t41.5 104z" />
    <glyph glyph-name="germandbls" unicode="&#xdf;" horiz-adv-x="498" 
d="M274 263l10 70q112 17 112 115q0 33 -19.5 53t-54.5 20q-40 0 -69 -27.5t-36 -76.5l-59 -417h-98l57 406q14 97 71 148t151 51q74 0 117.5 -41.5t43.5 -106.5q0 -50 -24 -88.5t-65 -57.5q38 -14 57.5 -47t19.5 -77q0 -87 -59 -141t-156 -54q-37 0 -52 4q-5 1 -15 4l16 68
q3 0 7 -1t7 -1q8 -1 32 -1q56 0 90 30.5t34 81.5q0 42 -25 64t-70 22h-23z" />
    <glyph glyph-name="agrave" unicode="&#xe0;" 
d="M428 358h4l23 62h66l-59 -420h-66l-6 62h-4q-16 -20 -37 -36q-47 -36 -119 -36q-75 0 -121.5 51t-46.5 135q0 110 67 182t161 72q71 0 111 -36q18 -16 27 -36zM402 233q0 53 -28 84.5t-74 31.5q-58 0 -98 -46t-40 -115q0 -52 27 -84.5t72 -32.5q58 0 99.5 45t41.5 117z
M291 497l-72 134l116 17l23 -151h-67z" />
    <glyph glyph-name="aacute" unicode="&#xe1;" 
d="M428 358h4l23 62h66l-59 -420h-66l-6 62h-4q-16 -20 -37 -36q-47 -36 -119 -36q-75 0 -121.5 51t-46.5 135q0 110 67 182t161 72q71 0 111 -36q18 -16 27 -36zM402 233q0 53 -28 84.5t-74 31.5q-58 0 -98 -46t-40 -115q0 -52 27 -84.5t72 -32.5q58 0 99.5 45t41.5 117z
M467 629l-118 -132h-67l72 145z" />
    <glyph glyph-name="acircumflex" unicode="&#xe2;" 
d="M428 358h4l23 62h66l-59 -420h-66l-6 62h-4q-16 -20 -37 -36q-47 -36 -119 -36q-75 0 -121.5 51t-46.5 135q0 110 67 182t161 72q71 0 111 -36q18 -16 27 -36zM402 233q0 53 -28 84.5t-74 31.5q-58 0 -98 -46t-40 -115q0 -52 27 -84.5t72 -32.5q58 0 99.5 45t41.5 117z
M374 517l-40 62l-59 -62h-76l104 121h77l71 -121h-77z" />
    <glyph glyph-name="atilde" unicode="&#xe3;" 
d="M428 358h4l23 62h66l-59 -420h-66l-6 62h-4q-16 -20 -37 -36q-47 -36 -119 -36q-75 0 -121.5 51t-46.5 135q0 110 67 182t161 72q71 0 111 -36q18 -16 27 -36zM402 233q0 53 -28 84.5t-74 31.5q-58 0 -98 -46t-40 -115q0 -52 27 -84.5t72 -32.5q58 0 99.5 45t41.5 117z
M395 499q-33 0 -73 25t-57 25q-29 0 -44 -36l-6 -16l-68 7l9 30q28 90 108 90q32 0 72 -25t58 -25q33 0 45 37l5 15l68 -6l-9 -30q-27 -91 -108 -91z" />
    <glyph glyph-name="adieresis" unicode="&#xe4;" 
d="M428 358h4l23 62h66l-59 -420h-66l-6 62h-4q-16 -20 -37 -36q-47 -36 -119 -36q-75 0 -121.5 51t-46.5 135q0 110 67 182t161 72q71 0 111 -36q18 -16 27 -36zM402 233q0 53 -28 84.5t-74 31.5q-58 0 -98 -46t-40 -115q0 -52 27 -84.5t72 -32.5q58 0 99.5 45t41.5 117z
M185 545q0 24 19.5 42.5t43.5 18.5q20 0 33.5 -14.5t13.5 -34.5q0 -24 -19.5 -42.5t-43.5 -18.5q-20 0 -33.5 14.5t-13.5 34.5zM356 545q0 23 20 42t42 19q20 0 33 -14t13 -35q0 -24 -19 -42.5t-43 -18.5q-20 0 -33 14t-13 35z" />
    <glyph glyph-name="aring" unicode="&#xe5;" 
d="M428 358h4l23 62h66l-59 -420h-66l-6 62h-4q-16 -20 -37 -36q-47 -36 -119 -36q-75 0 -121.5 51t-46.5 135q0 110 67 182t161 72q71 0 111 -36q18 -16 27 -36zM402 233q0 53 -28 84.5t-74 31.5q-58 0 -98 -46t-40 -115q0 -52 27 -84.5t72 -32.5q58 0 99.5 45t41.5 117z
M222 573q0 45 33 72t89 27q45 0 70.5 -21.5t25.5 -55.5q0 -44 -33.5 -72t-87.5 -28q-46 0 -71.5 21t-25.5 57zM382 589q0 34 -45 34q-27 0 -42.5 -11.5t-15.5 -32.5q0 -34 47 -34q56 0 56 44z" />
    <glyph glyph-name="ae" unicode="&#xe6;" horiz-adv-x="740" 
d="M669 106l26 -66q-17 -16 -41 -26q-52 -25 -120 -25q-109 0 -159 69q-66 -68 -179 -68q-77 0 -115.5 32t-38.5 83q0 70 52.5 111.5t156.5 41.5q53 0 99 -14l2 15q6 46 -19 68.5t-77 22.5q-33 0 -82 -17q-16 -6 -36 -17l-24 76q16 8 47 19q61 19 117 19q108 0 146 -62
q68 62 156 62q79 0 121.5 -47.5t42.5 -127.5q0 -29 -4 -44q-1 -9 -3 -16h-298q-5 -62 25.5 -94t86.5 -32q44 0 86 18q16 7 32 19zM215 60q52 0 84.5 28.5t38.5 70.5l3 22q-37 16 -90 16q-112 0 -112 -79q0 -58 76 -58zM567 354q-86 0 -115 -94h198q1 94 -83 94z" />
    <glyph glyph-name="ccedilla" unicode="&#xe7;" horiz-adv-x="409" 
d="M197 -73l-14 20l29 46q-71 11 -111 61t-40 125q0 107 71.5 179t178.5 72q55 0 97 -19q17 -7 28 -18l-38 -72q-11 8 -25 14q-32 14 -67 14q-60 0 -102.5 -45t-42.5 -118q0 -55 29 -85t77 -30q33 0 71 14q11 4 29 14l16 -71q-14 -11 -31 -18q-44 -19 -93 -20l-14 -25
q25 0 40.5 -14.5t15.5 -40.5q0 -36 -25.5 -59t-68.5 -23q-37 0 -59 15q-11 6 -17 15l29 36q28 -20 50 -20q20 0 31.5 9t11.5 23q0 24 -33 24q-9 0 -17 -2q-3 -1 -6 -1z" />
    <glyph glyph-name="egrave" unicode="&#xe8;" horiz-adv-x="459" 
d="M388 105l26 -67q-19 -15 -41 -25q-52 -25 -120 -25q-91 0 -141.5 52t-50.5 137q0 107 68 180t170 73q79 0 121.5 -47.5t42.5 -127.5q0 -29 -4 -44q-1 -9 -3 -16h-298q-5 -62 24.5 -94.5t87.5 -32.5q44 0 86 18q16 7 32 19zM286 354q-86 0 -115 -94h197q3 94 -82 94z
M267 497l-72 134l115 17l24 -151h-67z" />
    <glyph glyph-name="eacute" unicode="&#xe9;" horiz-adv-x="459" 
d="M459 629l-118 -132h-67l72 145zM388 105l26 -67q-19 -15 -41 -25q-52 -25 -120 -25q-91 0 -141.5 52t-50.5 137q0 107 68 180t170 73q79 0 121.5 -47.5t42.5 -127.5q0 -29 -4 -44q-1 -9 -3 -16h-298q-5 -62 24.5 -94.5t87.5 -32.5q44 0 86 18q16 7 32 19zM286 354
q-86 0 -115 -94h197q3 94 -82 94z" />
    <glyph glyph-name="ecircumflex" unicode="&#xea;" horiz-adv-x="459" 
d="M356 496l-40 62l-59 -62h-76l104 121h77l71 -121h-77zM388 105l26 -67q-19 -15 -41 -25q-52 -25 -120 -25q-91 0 -141.5 52t-50.5 137q0 107 68 180t170 73q79 0 121.5 -47.5t42.5 -127.5q0 -29 -4 -44q-1 -9 -3 -16h-298q-5 -62 24.5 -94.5t87.5 -32.5q44 0 86 18
q16 7 32 19zM286 354q-86 0 -115 -94h197q3 94 -82 94z" />
    <glyph glyph-name="edieresis" unicode="&#xeb;" horiz-adv-x="459" 
d="M173 533q0 24 19.5 42.5t43.5 18.5q20 0 33.5 -14.5t13.5 -34.5q0 -24 -19.5 -42.5t-43.5 -18.5q-20 0 -33.5 14.5t-13.5 34.5zM344 533q0 23 20 42t42 19q20 0 33 -14t13 -35q0 -24 -19 -42.5t-43 -18.5q-20 0 -33 14t-13 35zM388 105l26 -67q-19 -15 -41 -25
q-52 -25 -120 -25q-91 0 -141.5 52t-50.5 137q0 107 68 180t170 73q79 0 121.5 -47.5t42.5 -127.5q0 -29 -4 -44q-1 -9 -3 -16h-298q-5 -62 24.5 -94.5t87.5 -32.5q44 0 86 18q16 7 32 19zM286 354q-86 0 -115 -94h197q3 94 -82 94z" />
    <glyph glyph-name="igrave" unicode="&#xec;" horiz-adv-x="221" 
d="M61 0l59 420h98l-59 -420h-98zM142 497l-72 134l115 17l24 -151h-67z" />
    <glyph glyph-name="iacute" unicode="&#xed;" horiz-adv-x="221" 
d="M332 629l-118 -132h-67l72 145zM61 0l59 420h98l-59 -420h-98z" />
    <glyph glyph-name="icircumflex" unicode="&#xee;" horiz-adv-x="221" 
d="M234 517l-40 62l-59 -62h-76l104 121h77l71 -121h-77zM61 0l59 420h98l-59 -420h-98z" />
    <glyph glyph-name="idieresis" unicode="&#xef;" horiz-adv-x="221" 
d="M54 565q0 24 19.5 42.5t43.5 18.5q20 0 33.5 -14.5t13.5 -34.5q0 -24 -19.5 -42.5t-43.5 -18.5q-20 0 -33.5 14.5t-13.5 34.5zM225 565q0 23 20 42t42 19q20 0 33 -14t13 -35q0 -24 -19 -42.5t-43 -18.5q-20 0 -33 14t-13 35zM61 0l59 420h98l-59 -420h-98z" />
    <glyph glyph-name="eth" unicode="&#xf0;" horiz-adv-x="504" 
d="M250 -10q-90 0 -140 49.5t-50 136.5q0 111 70.5 182t181.5 71q20 0 37 -3l1 4q-1 2 -3.5 6t-4.5 6q-6 9 -15 28l-28 59l-120 -68l-25 56l119 67l-62 133l2 11h94l46 -99l127 71l24 -55l-125 -71l91 -192q33 -69 33 -134q0 -117 -70 -187.5t-183 -70.5zM402 234
q0 54 -27.5 84t-74.5 30q-59 0 -99.5 -44.5t-40.5 -117.5q0 -53 28 -84.5t73 -31.5q60 0 100.5 45t40.5 119z" />
    <glyph glyph-name="ntilde" unicode="&#xf1;" horiz-adv-x="513" 
d="M60 0l59 420h64l4 -60h6q28 36 62.5 53t87.5 17q81 0 121 -51.5t28 -137.5l-34 -241h-98l33 232q7 50 -15 82t-69 32q-46 0 -77.5 -29.5t-38.5 -65.5l-35 -251h-98zM405 519q-33 0 -73 25t-57 25q-29 0 -44 -36l-6 -16l-68 7l9 30q28 90 108 90q32 0 72 -25t58 -25
q33 0 45 37l5 15l68 -6l-9 -30q-27 -91 -108 -91z" />
    <glyph glyph-name="ograve" unicode="&#xf2;" horiz-adv-x="499" 
d="M497 238q0 -109 -73.5 -178.5t-175.5 -69.5q-82 0 -134.5 51t-52.5 137q0 109 74 180.5t175 71.5q82 0 134.5 -53t52.5 -139zM259 68q59 0 100.5 45.5t41.5 118.5q0 54 -28.5 87t-73.5 33q-59 0 -100.5 -46.5t-41.5 -119.5q0 -54 28 -86t74 -32zM284 497l-72 134l115 17
l24 -151h-67z" />
    <glyph glyph-name="oacute" unicode="&#xf3;" horiz-adv-x="499" 
d="M469 629l-118 -132h-67l72 145zM497 238q0 -109 -73.5 -178.5t-175.5 -69.5q-82 0 -134.5 51t-52.5 137q0 109 74 180.5t175 71.5q82 0 134.5 -53t52.5 -139zM259 68q59 0 100.5 45.5t41.5 118.5q0 54 -28.5 87t-73.5 33q-59 0 -100.5 -46.5t-41.5 -119.5q0 -54 28 -86
t74 -32z" />
    <glyph glyph-name="ocircumflex" unicode="&#xf4;" horiz-adv-x="499" 
d="M373 517l-40 62l-59 -62h-76l104 121h77l71 -121h-77zM497 238q0 -109 -73.5 -178.5t-175.5 -69.5q-82 0 -134.5 51t-52.5 137q0 109 74 180.5t175 71.5q82 0 134.5 -53t52.5 -139zM259 68q59 0 100.5 45.5t41.5 118.5q0 54 -28.5 87t-73.5 33q-59 0 -100.5 -46.5
t-41.5 -119.5q0 -54 28 -86t74 -32z" />
    <glyph glyph-name="otilde" unicode="&#xf5;" horiz-adv-x="499" 
d="M497 238q0 -109 -73.5 -178.5t-175.5 -69.5q-82 0 -134.5 51t-52.5 137q0 109 74 180.5t175 71.5q82 0 134.5 -53t52.5 -139zM259 68q59 0 100.5 45.5t41.5 118.5q0 54 -28.5 87t-73.5 33q-59 0 -100.5 -46.5t-41.5 -119.5q0 -54 28 -86t74 -32zM394 520q-33 0 -73 25
t-57 25q-29 0 -44 -36l-6 -16l-68 7l9 30q28 90 108 90q32 0 72 -25t58 -25q33 0 45 37l5 15l68 -6l-9 -30q-27 -91 -108 -91z" />
    <glyph glyph-name="odieresis" unicode="&#xf6;" horiz-adv-x="499" 
d="M191 566q0 24 19.5 42.5t43.5 18.5q20 0 33.5 -14.5t13.5 -34.5q0 -24 -19.5 -42.5t-43.5 -18.5q-20 0 -33.5 14.5t-13.5 34.5zM362 566q0 23 20 42t42 19q20 0 33 -14t13 -35q0 -24 -19 -42.5t-43 -18.5q-20 0 -33 14t-13 35zM497 238q0 -109 -73.5 -178.5t-175.5 -69.5
q-82 0 -134.5 51t-52.5 137q0 109 74 180.5t175 71.5q82 0 134.5 -53t52.5 -139zM259 68q59 0 100.5 45.5t41.5 118.5q0 54 -28.5 87t-73.5 33q-59 0 -100.5 -46.5t-41.5 -119.5q0 -54 28 -86t74 -32z" />
    <glyph glyph-name="divide" unicode="&#xf7;" horiz-adv-x="487" 
d="M198 127q0 29 22 50t51 21q24 0 39.5 -16t15.5 -40q0 -29 -22 -49.5t-51 -20.5q-24 0 -39.5 16t-15.5 39zM244 455q0 29 22 50t51 21q24 0 39.5 -16t15.5 -40q0 -29 -22 -49.5t-51 -20.5q-24 0 -39.5 16t-15.5 39zM85 256l11 80h389l-11 -80h-389z" />
    <glyph glyph-name="oslash" unicode="&#xf8;" horiz-adv-x="500" 
d="M497 238q0 -109 -73.5 -178.5t-175.5 -69.5q-74 0 -125 42l-35 -32h-70l74 67q-31 46 -31 111q0 109 74 180.5t175 71.5q72 0 121 -41l34 31h70l-72 -66q34 -50 34 -116zM259 68q59 0 100.5 45.5t41.5 118.5q0 30 -11 57l-201 -194q29 -27 70 -27zM157 186q0 -30 9 -53
l200 193q-29 26 -67 26q-59 0 -100.5 -46.5t-41.5 -119.5z" />
    <glyph glyph-name="ugrave" unicode="&#xf9;" horiz-adv-x="510" 
d="M376 174l35 246h98l-59 -420h-64l-9 58h-4q-59 -68 -148 -68q-81 0 -119 51.5t-26 137.5l34 241h98l-33 -232q-7 -53 13 -84.5t67 -31.5q49 0 81 32.5t36 69.5zM286 497l-72 134l115 17l24 -151h-67z" />
    <glyph glyph-name="uacute" unicode="&#xfa;" horiz-adv-x="510" 
d="M470 629l-118 -132h-67l72 145zM376 174l35 246h98l-59 -420h-64l-9 58h-4q-59 -68 -148 -68q-81 0 -119 51.5t-26 137.5l34 241h98l-33 -232q-7 -53 13 -84.5t67 -31.5q49 0 81 32.5t36 69.5z" />
    <glyph glyph-name="ucircumflex" unicode="&#xfb;" horiz-adv-x="510" 
d="M368 496l-40 62l-59 -62h-76l104 121h77l71 -121h-77zM376 174l35 246h98l-59 -420h-64l-9 58h-4q-59 -68 -148 -68q-81 0 -119 51.5t-26 137.5l34 241h98l-33 -232q-7 -53 13 -84.5t67 -31.5q49 0 81 32.5t36 69.5z" />
    <glyph glyph-name="udieresis" unicode="&#xfc;" horiz-adv-x="510" 
d="M185 546q0 24 19.5 42.5t43.5 18.5q20 0 33.5 -14.5t13.5 -34.5q0 -24 -19.5 -42.5t-43.5 -18.5q-20 0 -33.5 14.5t-13.5 34.5zM356 546q0 23 20 42t42 19q20 0 33 -14t13 -35q0 -24 -19 -42.5t-43 -18.5q-20 0 -33 14t-13 35zM376 174l35 246h98l-59 -420h-64l-9 58h-4
q-59 -68 -148 -68q-81 0 -119 51.5t-26 137.5l34 241h98l-33 -232q-7 -53 13 -84.5t67 -31.5q49 0 81 32.5t36 69.5z" />
    <glyph glyph-name="yacute" unicode="&#xfd;" horiz-adv-x="508" 
d="M377 176l34 244h96l-56 -402q-12 -89 -71.5 -143t-158.5 -54q-65 0 -105.5 22t-54.5 43l58 62q5 -8 15.5 -17.5t37 -20.5t57.5 -11q108 0 125 116l4 26q-51 -51 -130 -51q-84 0 -123 51t-27 138l34 241h98l-33 -232q-7 -52 13 -84t66 -32q51 0 82.5 31.5t38.5 72.5z
M472 629l-118 -132h-67l72 145z" />
    <glyph glyph-name="thorn" unicode="&#xfe;" 
d="M172 71h-4l-32 -227h-98l106 756h98l-35 -248h4q12 19 34 39q47 39 109 39q75 0 120 -50.5t45 -134.5q0 -110 -67 -182.5t-159 -72.5q-65 0 -99 40q-14 17 -22 41zM181 187q0 -53 28 -84.5t73 -31.5q57 0 97 46t40 115q0 52 -27 84.5t-71 32.5q-58 0 -99 -45t-41 -117z
" />
    <glyph glyph-name="ydieresis" unicode="&#xff;" horiz-adv-x="508" 
d="M377 176l34 244h96l-56 -402q-12 -89 -71.5 -143t-158.5 -54q-65 0 -105.5 22t-54.5 43l58 62q5 -8 15.5 -17.5t37 -20.5t57.5 -11q108 0 125 116l4 26q-51 -51 -130 -51q-84 0 -123 51t-27 138l34 241h98l-33 -232q-7 -52 13 -84t66 -32q51 0 82.5 31.5t38.5 72.5z
M189 546q0 24 19.5 42.5t43.5 18.5q20 0 33.5 -14.5t13.5 -34.5q0 -24 -19.5 -42.5t-43.5 -18.5q-20 0 -33.5 14.5t-13.5 34.5zM360 546q0 23 20 42t42 19q20 0 33 -14t13 -35q0 -24 -19 -42.5t-43 -18.5q-20 0 -33 14t-13 35z" />
    <glyph glyph-name="Abreve" unicode="&#x102;" horiz-adv-x="596" 
d="M432 600l162 -600h-104l-32 123h-286l-65 -123h-105l330 600h100zM366 485l-149 -278h220zM463 772h63q-8 -49 -44.5 -83.5t-89.5 -34.5t-79.5 34t-20.5 84h62q-4 -27 8.5 -44t37.5 -17q23 0 41 17t22 44z" />
    <glyph glyph-name="abreve" unicode="&#x103;" 
d="M428 358h4l23 62h66l-59 -420h-66l-6 62h-4q-16 -20 -37 -36q-47 -36 -119 -36q-75 0 -121.5 51t-46.5 135q0 110 67 182t161 72q71 0 111 -36q18 -16 27 -36zM402 233q0 53 -28 84.5t-74 31.5q-58 0 -98 -46t-40 -115q0 -52 27 -84.5t72 -32.5q58 0 99.5 45t41.5 117z
M381 616h63q-8 -49 -44.5 -83.5t-89.5 -34.5t-79.5 34t-20.5 84h62q-4 -27 8.5 -44t37.5 -17q23 0 41 17t22 44z" />
    <glyph glyph-name="Dcroat" unicode="&#x110;" horiz-adv-x="634" 
d="M57 259l13 89h53l35 252h212q126 0 198.5 -70.5t72.5 -187.5q0 -150 -100 -246t-255 -96h-212l36 259h-53zM352 512h-107l-24 -164h156l-13 -89h-155l-24 -171h107q104 0 175.5 66.5t71.5 176.5q0 85 -52 133t-135 48z" />
    <glyph glyph-name="dslash" unicode="&#x111;" 
d="M402 233q0 53 -28 84.5t-74 31.5q-58 0 -98 -46t-40 -115q0 -52 27 -84.5t72 -32.5q58 0 99.5 45t41.5 117zM579 464h-52l-65 -464h-66l-6 62h-4q-16 -20 -37 -36q-47 -36 -119 -36q-75 0 -121.5 51t-46.5 135q0 109 67 181.5t160 72.5q62 0 100 -30q17 -14 24 -29h4
l13 93h-178l9 81h180l8 60h98l-8 -60h49z" />
    <glyph glyph-name="Itilde" unicode="&#x128;" horiz-adv-x="248" 
d="M257 600l-84 -600h-99l84 600h99zM300 656q-33 0 -73 25t-57 25q-29 0 -44 -36l-6 -16l-68 7l9 30q28 90 108 90q32 0 72 -25t58 -25q33 0 45 37l5 15l68 -6l-9 -30q-27 -91 -108 -91z" />
    <glyph glyph-name="itilde" unicode="&#x129;" horiz-adv-x="221" 
d="M61 0l59 420h98l-59 -420h-98zM254 499q-33 0 -73 25t-57 25q-29 0 -44 -36l-6 -16l-68 7l9 30q28 90 108 90q32 0 72 -25t58 -25q33 0 45 37l5 15l68 -6l-9 -30q-27 -91 -108 -91z" />
    <glyph glyph-name="dotlessi" unicode="&#x131;" horiz-adv-x="221" 
d="M61 0l59 420h98l-59 -420h-98z" />
    <glyph glyph-name="Lslash" unicode="&#x141;" horiz-adv-x="498" 
d="M46 216l13 94l67 38l36 252h99l-27 -192l147 83l-14 -94l-146 -83l-32 -226h295l-12 -88h-394l35 254z" />
    <glyph glyph-name="lslash" unicode="&#x142;" horiz-adv-x="239" 
d="M50 219l8 58l54 31l42 297h98l-34 -237l63 36l-8 -58l-63 -36l-43 -310h-98l35 250z" />
    <glyph glyph-name="OE" unicode="&#x152;" horiz-adv-x="1022" 
d="M335 -14q-120 0 -190 77t-70 194q0 148 99.5 252t248.5 104q135 0 205 -96l12 83h427l-12 -88h-328l-23 -166h279l-12 -84h-279l-25 -174h328l-12 -88h-427l10 75q-95 -89 -231 -89zM348 82q99 0 166 72t67 176q0 82 -46.5 135t-125.5 53q-98 0 -164.5 -72.5
t-66.5 -177.5q0 -81 46.5 -133.5t123.5 -52.5z" />
    <glyph glyph-name="oe" unicode="&#x153;" horiz-adv-x="812" 
d="M743 105l26 -67q-19 -15 -41 -25q-52 -25 -120 -25q-120 0 -169 89q-73 -87 -191 -87q-82 0 -134.5 51t-52.5 137q0 109 74 180.5t175 71.5q111 0 161 -88q69 88 183 88q79 0 121.5 -47.5t42.5 -127.5q0 -29 -4 -44q-1 -9 -3 -16h-298q-5 -62 24.5 -94.5t87.5 -32.5
q44 0 86 18q16 7 32 19zM259 68q59 0 100.5 45.5t41.5 118.5q0 54 -28.5 87t-73.5 33q-59 0 -100.5 -46.5t-41.5 -119.5q0 -54 28 -86t74 -32zM641 354q-86 0 -115 -94h197q3 94 -82 94z" />
    <glyph glyph-name="Scaron" unicode="&#x160;" horiz-adv-x="518" 
d="M316 777l40 -62l59 62h76l-94 -109h-92l-66 109h77zM44 61l65 75q20 -18 43 -29q54 -29 118 -29q65 0 97 25.5t32 67.5q0 30 -27 50t-96 42q-91 29 -133 65t-42 94q0 86 65.5 138.5t180.5 52.5q92 0 156 -31q28 -14 44 -30l-65 -81q-18 16 -37 25q-52 25 -111 25
q-57 0 -90 -22t-33 -61q0 -26 27 -44.5t94 -38.5q95 -30 137 -68t42 -97q0 -88 -66 -146t-185 -58q-98 0 -166 37q-29 15 -50 38z" />
    <glyph glyph-name="scaron" unicode="&#x161;" horiz-adv-x="418" 
d="M245 606l40 -62l59 62h76l-94 -109h-92l-66 109h77zM39 39l44 67q16 -11 38 -21q44 -20 96 -20q85 0 85 52q0 23 -35 38.5t-77.5 24.5t-77.5 37t-35 74q0 60 48 99.5t134 39.5q72 0 128 -18q25 -8 42 -18l-44 -76q-16 11 -34 18q-46 18 -93 18q-82 0 -82 -49
q0 -18 23.5 -29.5t57 -19.5t66.5 -19.5t56.5 -37.5t23.5 -65q0 -62 -48.5 -103t-145.5 -41q-77 0 -131 24q-22 10 -39 25z" />
    <glyph glyph-name="Utilde" unicode="&#x168;" horiz-adv-x="634" 
d="M315 -14q-116 0 -172.5 74.5t-40.5 193.5l49 346h99l-49 -346q-10 -77 22.5 -125t105.5 -48q74 0 120 48t56 125l49 346h99l-49 -346q-16 -119 -94 -193.5t-195 -74.5zM494 657q-33 0 -73 25t-57 25q-29 0 -44 -36l-6 -16l-68 7l9 30q28 90 108 90q32 0 72 -25t58 -25
q33 0 45 37l5 15l68 -6l-9 -30q-27 -91 -108 -91z" />
    <glyph glyph-name="utilde" unicode="&#x169;" horiz-adv-x="510" 
d="M376 174l35 246h98l-59 -420h-64l-9 58h-4q-59 -68 -148 -68q-81 0 -119 51.5t-26 137.5l34 241h98l-33 -232q-7 -53 13 -84.5t67 -31.5q49 0 81 32.5t36 69.5zM397 499q-33 0 -73 25t-57 25q-29 0 -44 -36l-6 -16l-68 7l9 30q28 90 108 90q32 0 72 -25t58 -25
q33 0 45 37l5 15l68 -6l-9 -30q-27 -91 -108 -91z" />
    <glyph glyph-name="Ydieresis" unicode="&#x178;" horiz-adv-x="537" 
d="M342 365l167 235h110l-269 -370l-32 -230h-99l32 230l-165 370h111l101 -235l15 -49zM230 704q0 24 19.5 42.5t43.5 18.5q20 0 33.5 -14.5t13.5 -34.5q0 -24 -19.5 -42.5t-43.5 -18.5q-20 0 -33.5 14.5t-13.5 34.5zM401 704q0 23 20 42t42 19q20 0 33 -14t13 -35
q0 -24 -19 -42.5t-43 -18.5q-20 0 -33 14t-13 35z" />
    <glyph glyph-name="Zcaron" unicode="&#x17d;" horiz-adv-x="534" 
d="M322 777l40 -62l59 62h76l-94 -109h-92l-66 109h77zM30 0l10 71l401 441h-328l12 88h460l-10 -73l-395 -439h328l-12 -88h-466z" />
    <glyph glyph-name="zcaron" unicode="&#x17e;" horiz-adv-x="425" 
d="M246 606l40 -62l59 62h76l-94 -109h-92l-66 109h77zM390 0h-356l7 53l270 288h-227l11 79h354l-7 -48l-264 -293h223z" />
    <glyph glyph-name="florin" unicode="&#x192;" horiz-adv-x="530" 
d="M189 131l73 212h-77l11 77h93l8 24q55 163 212 163q37 0 69 -10q14 -5 24 -9l-52 -82q-6 3 -15 6q-26 7 -41 7q-74 0 -98 -74l-8 -25h136l-11 -77h-152l-79 -230q-19 -58 -53.5 -87.5t-96.5 -29.5q-40 0 -66 12q-9 3 -23 13l42 76q5 -4 13 -7q13 -7 33 -7q23 0 36 11
t22 37z" />
    <glyph glyph-name="Ohorn" unicode="&#x1a0;" horiz-adv-x="675" 
d="M348 82q99 0 166 72t67 176q0 82 -46.5 135t-125.5 53q-98 0 -164.5 -72.5t-66.5 -177.5q0 -81 46.5 -133.5t123.5 -52.5zM593 555q16 -14 22 -20q68 -76 68 -194q0 -146 -100.5 -250.5t-247.5 -104.5q-120 0 -190 77t-70 194q0 148 99.5 252t248.5 104q54 0 96 -16
q30 2 52 21q23 19 31 50h74q-14 -60 -62 -99q-14 -10 -21 -14z" />
    <glyph glyph-name="ohorn" unicode="&#x1a1;" horiz-adv-x="499" 
d="M259 68q59 0 100.5 45.5t41.5 118.5q0 54 -28.5 87t-73.5 33q-59 0 -100.5 -46.5t-41.5 -119.5q0 -54 28 -86t74 -32zM449 372q22 -23 34 -55q14 -37 14 -79q0 -109 -73.5 -178.5t-175.5 -69.5q-82 0 -134.5 51t-52.5 137q0 109 74 180.5t175 71.5q38 0 70 -12
q32 2 54 21q23 19 31 50h74q-14 -60 -62 -99q-14 -11 -28 -18z" />
    <glyph glyph-name="Uhorn" unicode="&#x1af;" horiz-adv-x="634" 
d="M645 547l-41 -293q-16 -119 -94 -193.5t-195 -74.5q-116 0 -172.5 74.5t-40.5 193.5l49 346h99l-49 -346q-10 -77 22.5 -125t105.5 -48q74 0 120 48t56 125l49 346h50q17 4 34 18q23 19 31 50h74q-14 -60 -62 -99q-19 -15 -36 -22z" />
    <glyph glyph-name="uhorn" unicode="&#x1b0;" horiz-adv-x="510" 
d="M501 363l-51 -363h-64l-9 58h-4q-59 -68 -148 -68q-81 0 -119 51.5t-26 137.5l34 241h98l-33 -232q-7 -53 13 -84.5t67 -31.5q49 0 81 32.5t36 69.5l35 246h54q22 5 38 19q23 19 31 50h74q-14 -60 -62 -99q-21 -16 -45 -27z" />
    <glyph glyph-name="circumflex" unicode="&#x2c6;" horiz-adv-x="371" 
d="M333 498l-40 62l-59 -62h-76l104 121h77l71 -121h-77z" />
    <glyph glyph-name="caron" unicode="&#x2c7;" horiz-adv-x="325" 
d="M220 777l40 -62l59 62h76l-94 -109h-92l-66 109h77z" />
    <glyph glyph-name="breve" unicode="&#x2d8;" horiz-adv-x="396" 
d="M367 616h63q-8 -49 -44.5 -83.5t-89.5 -34.5t-79.5 34t-20.5 84h62q-4 -27 8.5 -44t37.5 -17q23 0 41 17t22 44z" />
    <glyph glyph-name="dotaccent" unicode="&#x2d9;" horiz-adv-x="331" 
d="M243 550q-26 0 -42 16.5t-16 42.5q0 32 23 54t54 22q26 0 42.5 -17t16.5 -43q0 -32 -22.5 -53.5t-55.5 -21.5z" />
    <glyph glyph-name="ring" unicode="&#x2da;" horiz-adv-x="288" 
d="M134 693q0 45 33 72t89 27q45 0 70.5 -21.5t25.5 -55.5q0 -44 -33.5 -72t-87.5 -28q-46 0 -71.5 21t-25.5 57zM294 709q0 34 -45 34q-27 0 -42.5 -11.5t-15.5 -32.5q0 -34 47 -34q56 0 56 44z" />
    <glyph glyph-name="ogonek" unicode="&#x2db;" horiz-adv-x="195" 
d="M138 -73l23 -36q-7 -8 -19 -15q-24 -15 -55 -15q-33 0 -51.5 17.5t-18.5 45.5q0 67 107 106l6 -30q-54 -25 -54 -60q0 -27 28 -27q15 0 34 14z" />
    <glyph glyph-name="tilde" unicode="&#x2dc;" horiz-adv-x="485" 
d="M405 499q-33 0 -73 25t-57 25q-29 0 -44 -36l-6 -16l-68 7l9 30q28 90 108 90q32 0 72 -25t58 -25q33 0 45 37l5 15l68 -6l-9 -30q-27 -91 -108 -91z" />
    <glyph glyph-name="hungarumlaut" unicode="&#x2dd;" horiz-adv-x="395" 
d="M425 577l-102 -158h-65l61 158h106zM262 577l-102 -158h-65l61 158h106z" />
    <glyph glyph-name="gravecomb" unicode="&#x300;" horiz-adv-x="0" 
d="M-270 497l-72 134l115 17l24 -151h-67z" />
    <glyph glyph-name="acutecomb" unicode="&#x301;" horiz-adv-x="0" 
d="M-142 629l-118 -132h-67l72 145z" />
    <glyph glyph-name="tildecomb" unicode="&#x303;" horiz-adv-x="0" 
d="M-123 499q-33 0 -73 25t-57 25q-29 0 -44 -36l-6 -16l-68 7l9 30q28 90 108 90q32 0 72 -25t58 -25q33 0 45 37l5 15l68 -6l-9 -30q-27 -91 -108 -91z" />
    <glyph glyph-name="hookabovecomb" unicode="&#x309;" horiz-adv-x="432" 
d="M226 578l-27 59q23 16 30 19q22 12 52 12q37 0 59 -17.5t22 -49.5q-3 -30 -16.5 -48.5t-25 -24.5t-11.5 -9l-5 -21h-59l4 32q4 28 30 47q10 9 10 16q0 8 -15 8q-8 0 -22 -6z" />
    <glyph glyph-name="uni031B" unicode="&#x31b;" horiz-adv-x="293" 
d="M331 596h74q-14 -60 -62 -99q-49 -40 -116 -40l15 68q32 0 58 21q23 19 31 50z" />
    <glyph glyph-name="dotbelowcomb" unicode="&#x323;" horiz-adv-x="0" 
d="M-273 -136q0 29 21.5 50t49.5 21q24 0 39.5 -16.5t15.5 -40.5q0 -29 -21.5 -49.5t-50.5 -20.5q-23 0 -38.5 16t-15.5 40z" />
    <glyph glyph-name="pi" unicode="&#x3c0;" horiz-adv-x="527" 
d="M86 420h473l-11 -79h-66l-48 -341h-98l48 341h-145l-48 -341h-98l48 341h-66z" />
    <glyph glyph-name="uni1EA0" unicode="&#x1ea0;" horiz-adv-x="596" 
d="M432 600l162 -600h-104l-32 123h-286l-65 -123h-105l330 600h100zM366 485l-149 -278h220zM217 -136q0 29 21.5 50t49.5 21q24 0 39.5 -16.5t15.5 -40.5q0 -29 -21.5 -49.5t-50.5 -20.5q-23 0 -38.5 16t-15.5 40z" />
    <glyph glyph-name="uni1EA1" unicode="&#x1ea1;" 
d="M428 358h4l23 62h66l-59 -420h-66l-6 62h-4q-16 -20 -37 -36q-47 -36 -119 -36q-75 0 -121.5 51t-46.5 135q0 110 67 182t161 72q71 0 111 -36q18 -16 27 -36zM402 233q0 53 -28 84.5t-74 31.5q-58 0 -98 -46t-40 -115q0 -52 27 -84.5t72 -32.5q58 0 99.5 45t41.5 117z
M167 -136q0 29 21.5 50t49.5 21q24 0 39.5 -16.5t15.5 -40.5q0 -29 -21.5 -49.5t-50.5 -20.5q-23 0 -38.5 16t-15.5 40z" />
    <glyph glyph-name="uni1EA2" unicode="&#x1ea2;" horiz-adv-x="596" 
d="M432 600l162 -600h-104l-32 123h-286l-65 -123h-105l330 600h100zM366 485l-149 -278h220zM334 734l-27 59q23 16 30 19q22 12 52 12q37 0 59 -17.5t22 -49.5q-3 -30 -16.5 -48.5t-25 -24.5t-11.5 -9l-5 -21h-59l4 32q4 28 30 47q10 9 10 16q0 8 -15 8q-8 0 -22 -6z" />
    <glyph glyph-name="uni1EA3" unicode="&#x1ea3;" 
d="M428 358h4l23 62h66l-59 -420h-66l-6 62h-4q-16 -20 -37 -36q-47 -36 -119 -36q-75 0 -121.5 51t-46.5 135q0 110 67 182t161 72q71 0 111 -36q18 -16 27 -36zM402 233q0 53 -28 84.5t-74 31.5q-58 0 -98 -46t-40 -115q0 -52 27 -84.5t72 -32.5q58 0 99.5 45t41.5 117z
M275 578l-27 59q23 16 30 19q22 12 52 12q37 0 59 -17.5t22 -49.5q-3 -30 -16.5 -48.5t-25 -24.5t-11.5 -9l-5 -21h-59l4 32q4 28 30 47q10 9 10 16q0 8 -15 8q-8 0 -22 -6z" />
    <glyph glyph-name="uni1EA4" unicode="&#x1ea4;" horiz-adv-x="596" 
d="M432 600l162 -600h-104l-32 123h-286l-65 -123h-105l330 600h100zM366 485l-149 -278h220zM439 654l-40 62l-59 -62h-76l104 121h77l71 -121h-77zM684 880l-118 -132h-67l72 145z" />
    <glyph glyph-name="uni1EA5" unicode="&#x1ea5;" 
d="M428 358h4l23 62h66l-59 -420h-66l-6 62h-4q-16 -20 -37 -36q-47 -36 -119 -36q-75 0 -121.5 51t-46.5 135q0 110 67 182t161 72q71 0 111 -36q18 -16 27 -36zM402 233q0 53 -28 84.5t-74 31.5q-58 0 -98 -46t-40 -115q0 -52 27 -84.5t72 -32.5q58 0 99.5 45t41.5 117z
M375 498l-40 62l-59 -62h-76l104 121h77l71 -121h-77zM619 724l-118 -132h-67l72 145z" />
    <glyph glyph-name="uni1EA6" unicode="&#x1ea6;" horiz-adv-x="596" 
d="M432 600l162 -600h-104l-32 123h-286l-65 -123h-105l330 600h100zM366 485l-149 -278h220zM439 653l-40 62l-59 -62h-76l104 121h77l71 -121h-77zM261 747l-72 134l115 17l24 -151h-67z" />
    <glyph glyph-name="uni1EA7" unicode="&#x1ea7;" 
d="M428 358h4l23 62h66l-59 -420h-66l-6 62h-4q-16 -20 -37 -36q-47 -36 -119 -36q-75 0 -121.5 51t-46.5 135q0 110 67 182t161 72q71 0 111 -36q18 -16 27 -36zM402 233q0 53 -28 84.5t-74 31.5q-58 0 -98 -46t-40 -115q0 -52 27 -84.5t72 -32.5q58 0 99.5 45t41.5 117z
M375 498l-40 62l-59 -62h-76l104 121h77l71 -121h-77zM197 593l-72 134l115 17l24 -151h-67z" />
    <glyph glyph-name="uni1EA8" unicode="&#x1ea8;" horiz-adv-x="596" 
d="M432 600l162 -600h-104l-32 123h-286l-65 -123h-105l330 600h100zM366 485l-149 -278h220zM439 654l-40 62l-59 -62h-76l104 121h77l71 -121h-77zM483 828l-27 59q23 16 30 19q22 12 52 12q37 0 59 -17.5t22 -49.5q-3 -30 -16.5 -48.5t-25 -24.5t-11.5 -9l-5 -21h-59
l4 32q4 28 30 47q10 9 10 16q0 8 -15 8q-8 0 -22 -6z" />
    <glyph glyph-name="uni1EA9" unicode="&#x1ea9;" 
d="M428 358h4l23 62h66l-59 -420h-66l-6 62h-4q-16 -20 -37 -36q-47 -36 -119 -36q-75 0 -121.5 51t-46.5 135q0 110 67 182t161 72q71 0 111 -36q18 -16 27 -36zM402 233q0 53 -28 84.5t-74 31.5q-58 0 -98 -46t-40 -115q0 -52 27 -84.5t72 -32.5q58 0 99.5 45t41.5 117z
M375 498l-40 62l-59 -62h-76l104 121h77l71 -121h-77zM421 673l-27 59q23 16 30 19q22 12 52 12q37 0 59 -17.5t22 -49.5q-3 -30 -16.5 -48.5t-25 -24.5t-11.5 -9l-5 -21h-59l4 32q4 28 30 47q10 9 10 16q0 8 -15 8q-8 0 -22 -6z" />
    <glyph glyph-name="uni1EAA" unicode="&#x1eaa;" horiz-adv-x="596" 
d="M432 600l162 -600h-104l-32 123h-286l-65 -123h-105l330 600h100zM366 485l-149 -278h220zM439 654l-40 62l-59 -62h-76l104 121h77l71 -121h-77zM526 787q-33 0 -73 25t-57 25q-29 0 -44 -36l-6 -16l-68 7l9 30q28 90 108 90q32 0 72 -25t58 -25q33 0 45 37l5 15l68 -6
l-9 -30q-27 -91 -108 -91z" />
    <glyph glyph-name="uni1EAB" unicode="&#x1eab;" 
d="M428 358h4l23 62h66l-59 -420h-66l-6 62h-4q-16 -20 -37 -36q-47 -36 -119 -36q-75 0 -121.5 51t-46.5 135q0 110 67 182t161 72q71 0 111 -36q18 -16 27 -36zM402 233q0 53 -28 84.5t-74 31.5q-58 0 -98 -46t-40 -115q0 -52 27 -84.5t72 -32.5q58 0 99.5 45t41.5 117z
M375 498l-40 62l-59 -62h-76l104 121h77l71 -121h-77zM438 640q-33 0 -73 25t-57 25q-29 0 -44 -36l-6 -16l-68 7l9 30q28 90 108 90q32 0 72 -25t58 -25q33 0 45 37l5 15l68 -6l-9 -30q-27 -91 -108 -91z" />
    <glyph glyph-name="uni1EAC" unicode="&#x1eac;" horiz-adv-x="596" 
d="M432 600l162 -600h-104l-32 123h-286l-65 -123h-105l330 600h100zM366 485l-149 -278h220zM439 654l-40 62l-59 -62h-76l104 121h77l71 -121h-77zM217 -136q0 29 21.5 50t49.5 21q24 0 39.5 -16.5t15.5 -40.5q0 -29 -21.5 -49.5t-50.5 -20.5q-23 0 -38.5 16t-15.5 40z
" />
    <glyph glyph-name="uni1EAD" unicode="&#x1ead;" 
d="M428 358h4l23 62h66l-59 -420h-66l-6 62h-4q-16 -20 -37 -36q-47 -36 -119 -36q-75 0 -121.5 51t-46.5 135q0 110 67 182t161 72q71 0 111 -36q18 -16 27 -36zM402 233q0 53 -28 84.5t-74 31.5q-58 0 -98 -46t-40 -115q0 -52 27 -84.5t72 -32.5q58 0 99.5 45t41.5 117z
M375 498l-40 62l-59 -62h-76l104 121h77l71 -121h-77zM167 -136q0 29 21.5 50t49.5 21q24 0 39.5 -16.5t15.5 -40.5q0 -29 -21.5 -49.5t-50.5 -20.5q-23 0 -38.5 16t-15.5 40z" />
    <glyph glyph-name="uni1EAE" unicode="&#x1eae;" horiz-adv-x="596" 
d="M432 600l162 -600h-104l-32 123h-286l-65 -123h-105l330 600h100zM366 485l-149 -278h220zM468 772h63q-8 -49 -44.5 -83.5t-89.5 -34.5t-79.5 34t-20.5 84h62q-4 -27 8.5 -44t37.5 -17q23 0 41 17t22 44zM550 925l-118 -132h-67l72 145z" />
    <glyph glyph-name="uni1EAF" unicode="&#x1eaf;" 
d="M428 358h4l23 62h66l-59 -420h-66l-6 62h-4q-16 -20 -37 -36q-47 -36 -119 -36q-75 0 -121.5 51t-46.5 135q0 110 67 182t161 72q71 0 111 -36q18 -16 27 -36zM402 233q0 53 -28 84.5t-74 31.5q-58 0 -98 -46t-40 -115q0 -52 27 -84.5t72 -32.5q58 0 99.5 45t41.5 117z
M381 616h63q-8 -49 -44.5 -83.5t-89.5 -34.5t-79.5 34t-20.5 84h62q-4 -27 8.5 -44t37.5 -17q23 0 41 17t22 44zM480 786l-118 -132h-67l72 145z" />
    <glyph glyph-name="uni1EB0" unicode="&#x1eb0;" horiz-adv-x="596" 
d="M432 600l162 -600h-104l-32 123h-286l-65 -123h-105l330 600h100zM366 485l-149 -278h220zM467 772h63q-8 -49 -44.5 -83.5t-89.5 -34.5t-79.5 34t-20.5 84h62q-4 -27 8.5 -44t37.5 -17q23 0 41 17t22 44zM368 774l-72 134l115 17l24 -151h-67z" />
    <glyph glyph-name="uni1EB1" unicode="&#x1eb1;" 
d="M428 358h4l23 62h66l-59 -420h-66l-6 62h-4q-16 -20 -37 -36q-47 -36 -119 -36q-75 0 -121.5 51t-46.5 135q0 110 67 182t161 72q71 0 111 -36q18 -16 27 -36zM402 233q0 53 -28 84.5t-74 31.5q-58 0 -98 -46t-40 -115q0 -52 27 -84.5t72 -32.5q58 0 99.5 45t41.5 117z
M381 616h63q-8 -49 -44.5 -83.5t-89.5 -34.5t-79.5 34t-20.5 84h62q-4 -27 8.5 -44t37.5 -17q23 0 41 17t22 44zM291 654l-72 134l115 17l24 -151h-67z" />
    <glyph glyph-name="uni1EB2" unicode="&#x1eb2;" horiz-adv-x="596" 
d="M432 600l162 -600h-104l-32 123h-286l-65 -123h-105l330 600h100zM366 485l-149 -278h220zM468 773h63q-8 -49 -44.5 -83.5t-89.5 -34.5t-79.5 34t-20.5 84h62q-4 -27 8.5 -44t37.5 -17q23 0 41 17t22 44zM372 846l-27 45q10 6 30 14q23 9 52 9q37 0 59 -13t22 -37
q-3 -23 -16.5 -36.5t-25 -18.5t-11.5 -7l-5 -16h-59l4 24q4 22 30 35q10 7 10 13t-15 6q-4 0 -22 -5z" />
    <glyph glyph-name="uni1EB3" unicode="&#x1eb3;" 
d="M428 358h4l23 62h66l-59 -420h-66l-6 62h-4q-16 -20 -37 -36q-47 -36 -119 -36q-75 0 -121.5 51t-46.5 135q0 110 67 182t161 72q71 0 111 -36q18 -16 27 -36zM402 233q0 53 -28 84.5t-74 31.5q-58 0 -98 -46t-40 -115q0 -52 27 -84.5t72 -32.5q58 0 99.5 45t41.5 117z
M381 616h63q-8 -49 -44.5 -83.5t-89.5 -34.5t-79.5 34t-20.5 84h62q-4 -27 8.5 -44t37.5 -17q23 0 41 17t22 44zM291 734l-27 59q23 16 30 19q22 12 52 12q37 0 59 -17.5t22 -49.5q-3 -30 -16.5 -48.5t-25 -24.5t-11.5 -9l-5 -21h-59l4 32q4 28 30 47q10 9 10 16q0 8 -15 8
q-8 0 -22 -6z" />
    <glyph glyph-name="uni1EB4" unicode="&#x1eb4;" horiz-adv-x="596" 
d="M432 600l162 -600h-104l-32 123h-286l-65 -123h-105l330 600h100zM366 485l-149 -278h220zM468 772h63q-8 -49 -44.5 -83.5t-89.5 -34.5t-79.5 34t-20.5 84h62q-4 -27 8.5 -44t37.5 -17q23 0 41 17t22 44zM501 788q-33 0 -73 25t-57 25q-29 0 -44 -36l-6 -16l-68 7l9 30
q28 90 108 90q32 0 72 -25t58 -25q33 0 45 37l5 15l68 -6l-9 -30q-27 -91 -108 -91z" />
    <glyph glyph-name="uni1EB5" unicode="&#x1eb5;" 
d="M428 358h4l23 62h66l-59 -420h-66l-6 62h-4q-16 -20 -37 -36q-47 -36 -119 -36q-75 0 -121.5 51t-46.5 135q0 110 67 182t161 72q71 0 111 -36q18 -16 27 -36zM402 233q0 53 -28 84.5t-74 31.5q-58 0 -98 -46t-40 -115q0 -52 27 -84.5t72 -32.5q58 0 99.5 45t41.5 117z
M381 616h63q-8 -49 -44.5 -83.5t-89.5 -34.5t-79.5 34t-20.5 84h62q-4 -27 8.5 -44t37.5 -17q23 0 41 17t22 44zM416 656q-33 0 -73 25t-57 25q-29 0 -44 -36l-6 -16l-68 7l9 30q28 90 108 90q32 0 72 -25t58 -25q33 0 45 37l5 15l68 -6l-9 -30q-27 -91 -108 -91z" />
    <glyph glyph-name="uni1EB6" unicode="&#x1eb6;" horiz-adv-x="596" 
d="M432 600l162 -600h-104l-32 123h-286l-65 -123h-105l330 600h100zM366 485l-149 -278h220zM463 771h63q-8 -49 -44.5 -83.5t-89.5 -34.5t-79.5 34t-20.5 84h62q-4 -27 8.5 -44t37.5 -17q23 0 41 17t22 44zM217 -136q0 29 21.5 50t49.5 21q24 0 39.5 -16.5t15.5 -40.5
q0 -29 -21.5 -49.5t-50.5 -20.5q-23 0 -38.5 16t-15.5 40z" />
    <glyph glyph-name="uni1EB7" unicode="&#x1eb7;" 
d="M428 358h4l23 62h66l-59 -420h-66l-6 62h-4q-16 -20 -37 -36q-47 -36 -119 -36q-75 0 -121.5 51t-46.5 135q0 110 67 182t161 72q71 0 111 -36q18 -16 27 -36zM402 233q0 53 -28 84.5t-74 31.5q-58 0 -98 -46t-40 -115q0 -52 27 -84.5t72 -32.5q58 0 99.5 45t41.5 117z
M402 616h63q-8 -49 -44.5 -83.5t-89.5 -34.5t-79.5 34t-20.5 84h62q-4 -27 8.5 -44t37.5 -17q23 0 41 17t22 44zM167 -136q0 29 21.5 50t49.5 21q24 0 39.5 -16.5t15.5 -40.5q0 -29 -21.5 -49.5t-50.5 -20.5q-23 0 -38.5 16t-15.5 40z" />
    <glyph glyph-name="uni1EB8" unicode="&#x1eb8;" horiz-adv-x="540" 
d="M501 346l-12 -84h-279l-25 -174h328l-12 -88h-427l84 600h427l-12 -88h-328l-23 -166h279zM206 -136q0 29 21.5 50t49.5 21q24 0 39.5 -16.5t15.5 -40.5q0 -29 -21.5 -49.5t-50.5 -20.5q-23 0 -38.5 16t-15.5 40z" />
    <glyph glyph-name="uni1EB9" unicode="&#x1eb9;" horiz-adv-x="459" 
d="M388 105l26 -67q-19 -15 -41 -25q-52 -25 -120 -25q-91 0 -141.5 52t-50.5 137q0 107 68 180t170 73q79 0 121.5 -47.5t42.5 -127.5q0 -29 -4 -44q-1 -9 -3 -16h-298q-5 -62 24.5 -94.5t87.5 -32.5q44 0 86 18q16 7 32 19zM286 354q-86 0 -115 -94h197q3 94 -82 94z
M151 -136q0 29 21.5 50t49.5 21q24 0 39.5 -16.5t15.5 -40.5q0 -29 -21.5 -49.5t-50.5 -20.5q-23 0 -38.5 16t-15.5 40z" />
    <glyph glyph-name="uni1EBA" unicode="&#x1eba;" horiz-adv-x="540" 
d="M501 346l-12 -84h-279l-25 -174h328l-12 -88h-427l84 600h427l-12 -88h-328l-23 -166h279zM329 734l-27 59q23 16 30 19q22 12 52 12q37 0 59 -17.5t22 -49.5q-3 -30 -16.5 -48.5t-25 -24.5t-11.5 -9l-5 -21h-59l4 32q4 28 30 47q10 9 10 16q0 8 -15 8q-8 0 -22 -6z" />
    <glyph glyph-name="uni1EBB" unicode="&#x1ebb;" horiz-adv-x="459" 
d="M388 105l26 -67q-19 -15 -41 -25q-52 -25 -120 -25q-91 0 -141.5 52t-50.5 137q0 107 68 180t170 73q79 0 121.5 -47.5t42.5 -127.5q0 -29 -4 -44q-1 -9 -3 -16h-298q-5 -62 24.5 -94.5t87.5 -32.5q44 0 86 18q16 7 32 19zM286 354q-86 0 -115 -94h197q3 94 -82 94z
M259 578l-27 59q23 16 30 19q22 12 52 12q37 0 59 -17.5t22 -49.5q-3 -30 -16.5 -48.5t-25 -24.5t-11.5 -9l-5 -21h-59l4 32q4 28 30 47q10 9 10 16q0 8 -15 8q-8 0 -22 -6z" />
    <glyph glyph-name="uni1EBC" unicode="&#x1ebc;" horiz-adv-x="540" 
d="M501 346l-12 -84h-279l-25 -174h328l-12 -88h-427l84 600h427l-12 -88h-328l-23 -166h279zM447 656q-33 0 -73 25t-57 25q-29 0 -44 -36l-6 -16l-68 7l9 30q28 90 108 90q32 0 72 -25t58 -25q33 0 45 37l5 15l68 -6l-9 -30q-27 -91 -108 -91z" />
    <glyph glyph-name="uni1EBD" unicode="&#x1ebd;" horiz-adv-x="459" 
d="M388 105l26 -67q-19 -15 -41 -25q-52 -25 -120 -25q-91 0 -141.5 52t-50.5 137q0 107 68 180t170 73q79 0 121.5 -47.5t42.5 -127.5q0 -29 -4 -44q-1 -9 -3 -16h-298q-5 -62 24.5 -94.5t87.5 -32.5q44 0 86 18q16 7 32 19zM286 354q-86 0 -115 -94h197q3 94 -82 94z
M376 499q-33 0 -73 25t-57 25q-29 0 -44 -36l-6 -16l-68 7l9 30q28 90 108 90q32 0 72 -25t58 -25q33 0 45 37l5 15l68 -6l-9 -30q-27 -91 -108 -91z" />
    <glyph glyph-name="uni1EBE" unicode="&#x1ebe;" horiz-adv-x="540" 
d="M501 346l-12 -84h-279l-25 -174h328l-12 -88h-427l84 600h427l-12 -88h-328l-23 -166h279zM433 654l-40 62l-59 -62h-76l104 121h77l71 -121h-77zM678 880l-118 -132h-67l72 145z" />
    <glyph glyph-name="uni1EBF" unicode="&#x1ebf;" horiz-adv-x="459" 
d="M388 105l26 -67q-19 -15 -41 -25q-52 -25 -120 -25q-91 0 -141.5 52t-50.5 137q0 107 68 180t170 73q79 0 121.5 -47.5t42.5 -127.5q0 -29 -4 -44q-1 -9 -3 -16h-298q-5 -62 24.5 -94.5t87.5 -32.5q44 0 86 18q16 7 32 19zM286 354q-86 0 -115 -94h197q3 94 -82 94z
M359 498l-40 62l-59 -62h-76l104 121h77l71 -121h-77zM596 725l-118 -132h-67l72 145z" />
    <glyph glyph-name="uni1EC0" unicode="&#x1ec0;" horiz-adv-x="540" 
d="M501 346l-12 -84h-279l-25 -174h328l-12 -88h-427l84 600h427l-12 -88h-328l-23 -166h279zM433 654l-40 62l-59 -62h-76l104 121h77l71 -121h-77zM255 748l-72 134l115 17l24 -151h-67z" />
    <glyph glyph-name="uni1EC1" unicode="&#x1ec1;" horiz-adv-x="459" 
d="M388 105l26 -67q-19 -15 -41 -25q-52 -25 -120 -25q-91 0 -141.5 52t-50.5 137q0 107 68 180t170 73q79 0 121.5 -47.5t42.5 -127.5q0 -29 -4 -44q-1 -9 -3 -16h-298q-5 -62 24.5 -94.5t87.5 -32.5q44 0 86 18q16 7 32 19zM286 354q-86 0 -115 -94h197q3 94 -82 94z
M359 498l-40 62l-59 -62h-76l104 121h77l71 -121h-77zM173 593l-72 134l115 17l24 -151h-67z" />
    <glyph glyph-name="uni1EC2" unicode="&#x1ec2;" horiz-adv-x="540" 
d="M501 346l-12 -84h-279l-25 -174h328l-12 -88h-427l84 600h427l-12 -88h-328l-23 -166h279zM432 654l-40 62l-59 -62h-76l104 121h77l71 -121h-77zM476 828l-27 59q23 16 30 19q22 12 52 12q37 0 59 -17.5t22 -49.5q-3 -30 -16.5 -48.5t-25 -24.5t-11.5 -9l-5 -21h-59
l4 32q4 28 30 47q10 9 10 16q0 8 -15 8q-8 0 -22 -6z" />
    <glyph glyph-name="uni1EC3" unicode="&#x1ec3;" horiz-adv-x="459" 
d="M388 105l26 -67q-19 -15 -41 -25q-52 -25 -120 -25q-91 0 -141.5 52t-50.5 137q0 107 68 180t170 73q79 0 121.5 -47.5t42.5 -127.5q0 -29 -4 -44q-1 -9 -3 -16h-298q-5 -62 24.5 -94.5t87.5 -32.5q44 0 86 18q16 7 32 19zM286 354q-86 0 -115 -94h197q3 94 -82 94z
M359 498l-40 62l-59 -62h-76l104 121h77l71 -121h-77zM394 673l-27 59q23 16 30 19q22 12 52 12q37 0 59 -17.5t22 -49.5q-3 -30 -16.5 -48.5t-25 -24.5t-11.5 -9l-5 -21h-59l4 32q4 28 30 47q10 9 10 16q0 8 -15 8q-8 0 -22 -6z" />
    <glyph glyph-name="uni1EC4" unicode="&#x1ec4;" horiz-adv-x="540" 
d="M501 346l-12 -84h-279l-25 -174h328l-12 -88h-427l84 600h427l-12 -88h-328l-23 -166h279zM432 654l-40 62l-59 -62h-76l104 121h77l71 -121h-77zM519 787q-33 0 -73 25t-57 25q-29 0 -44 -36l-6 -16l-68 7l9 30q28 90 108 90q32 0 72 -25t58 -25q33 0 45 37l5 15l68 -6
l-9 -30q-27 -91 -108 -91z" />
    <glyph glyph-name="uni1EC5" unicode="&#x1ec5;" horiz-adv-x="459" 
d="M388 105l26 -67q-19 -15 -41 -25q-52 -25 -120 -25q-91 0 -141.5 52t-50.5 137q0 107 68 180t170 73q79 0 121.5 -47.5t42.5 -127.5q0 -29 -4 -44q-1 -9 -3 -16h-298q-5 -62 24.5 -94.5t87.5 -32.5q44 0 86 18q16 7 32 19zM286 354q-86 0 -115 -94h197q3 94 -82 94z
M359 498l-40 62l-59 -62h-76l104 121h77l71 -121h-77zM406 656q-33 0 -73 25t-57 25q-29 0 -44 -36l-6 -16l-68 7l9 30q28 90 108 90q32 0 72 -25t58 -25q33 0 45 37l5 15l68 -6l-9 -30q-27 -91 -108 -91z" />
    <glyph glyph-name="uni1EC6" unicode="&#x1ec6;" horiz-adv-x="540" 
d="M501 346l-12 -84h-279l-25 -174h328l-12 -88h-427l84 600h427l-12 -88h-328l-23 -166h279zM432 654l-40 62l-59 -62h-76l104 121h77l71 -121h-77zM206 -136q0 29 21.5 50t49.5 21q24 0 39.5 -16.5t15.5 -40.5q0 -29 -21.5 -49.5t-50.5 -20.5q-23 0 -38.5 16t-15.5 40z
" />
    <glyph glyph-name="uni1EC7" unicode="&#x1ec7;" horiz-adv-x="459" 
d="M388 105l26 -67q-19 -15 -41 -25q-52 -25 -120 -25q-91 0 -141.5 52t-50.5 137q0 107 68 180t170 73q79 0 121.5 -47.5t42.5 -127.5q0 -29 -4 -44q-1 -9 -3 -16h-298q-5 -62 24.5 -94.5t87.5 -32.5q44 0 86 18q16 7 32 19zM286 354q-86 0 -115 -94h197q3 94 -82 94z
M359 498l-40 62l-59 -62h-76l104 121h77l71 -121h-77zM151 -136q0 29 21.5 50t49.5 21q24 0 39.5 -16.5t15.5 -40.5q0 -29 -21.5 -49.5t-50.5 -20.5q-23 0 -38.5 16t-15.5 40z" />
    <glyph glyph-name="uni1EC8" unicode="&#x1ec8;" horiz-adv-x="248" 
d="M257 600l-84 -600h-99l84 600h99zM165 734l-27 59q23 16 30 19q22 12 52 12q37 0 59 -17.5t22 -49.5q-3 -30 -16.5 -48.5t-25 -24.5t-11.5 -9l-5 -21h-59l4 32q4 28 30 47q10 9 10 16q0 8 -15 8q-8 0 -22 -6z" />
    <glyph glyph-name="uni1EC9" unicode="&#x1ec9;" horiz-adv-x="221" 
d="M61 0l59 420h98l-59 -420h-98zM138 578l-27 59q23 16 30 19q22 12 52 12q37 0 59 -17.5t22 -49.5q-3 -30 -16.5 -48.5t-25 -24.5t-11.5 -9l-5 -21h-59l4 32q4 28 30 47q10 9 10 16q0 8 -15 8q-8 0 -22 -6z" />
    <glyph glyph-name="uni1ECA" unicode="&#x1eca;" horiz-adv-x="248" 
d="M257 600l-84 -600h-99l84 600h99zM42 -136q0 29 21.5 50t49.5 21q24 0 39.5 -16.5t15.5 -40.5q0 -29 -21.5 -49.5t-50.5 -20.5q-23 0 -38.5 16t-15.5 40z" />
    <glyph glyph-name="uni1ECB" unicode="&#x1ecb;" horiz-adv-x="221" 
d="M180 497q-23 0 -37.5 14.5t-14.5 37.5q0 27 20.5 46.5t47.5 19.5q24 0 39 -15t15 -37q0 -27 -21 -46.5t-49 -19.5zM61 0l59 420h98l-59 -420h-98zM30 -136q0 29 21.5 50t49.5 21q24 0 39.5 -16.5t15.5 -40.5q0 -29 -21.5 -49.5t-50.5 -20.5q-23 0 -38.5 16t-15.5 40z" />
    <glyph glyph-name="uni1ECC" unicode="&#x1ecc;" horiz-adv-x="675" 
d="M335 -14q-120 0 -190 77t-70 194q0 148 99.5 252t248.5 104q120 0 190 -77t70 -195q0 -146 -100.5 -250.5t-247.5 -104.5zM348 82q99 0 166 72t67 176q0 82 -46.5 135t-125.5 53q-98 0 -164.5 -72.5t-66.5 -177.5q0 -81 46.5 -133.5t123.5 -52.5zM256 -136q0 29 21.5 50
t49.5 21q24 0 39.5 -16.5t15.5 -40.5q0 -29 -21.5 -49.5t-50.5 -20.5q-23 0 -38.5 16t-15.5 40z" />
    <glyph glyph-name="uni1ECD" unicode="&#x1ecd;" horiz-adv-x="499" 
d="M497 238q0 -109 -73.5 -178.5t-175.5 -69.5q-82 0 -134.5 51t-52.5 137q0 109 74 180.5t175 71.5q82 0 134.5 -53t52.5 -139zM259 68q59 0 100.5 45.5t41.5 118.5q0 54 -28.5 87t-73.5 33q-59 0 -100.5 -46.5t-41.5 -119.5q0 -54 28 -86t74 -32zM169 -136q0 29 21.5 50
t49.5 21q24 0 39.5 -16.5t15.5 -40.5q0 -29 -21.5 -49.5t-50.5 -20.5q-23 0 -38.5 16t-15.5 40z" />
    <glyph glyph-name="uni1ECE" unicode="&#x1ece;" horiz-adv-x="675" 
d="M335 -14q-120 0 -190 77t-70 194q0 148 99.5 252t248.5 104q120 0 190 -77t70 -195q0 -146 -100.5 -250.5t-247.5 -104.5zM348 82q99 0 166 72t67 176q0 82 -46.5 135t-125.5 53q-98 0 -164.5 -72.5t-66.5 -177.5q0 -81 46.5 -133.5t123.5 -52.5zM394 734l-27 59
q23 16 30 19q22 12 52 12q37 0 59 -17.5t22 -49.5q-3 -30 -16.5 -48.5t-25 -24.5t-11.5 -9l-5 -21h-59l4 32q4 28 30 47q10 9 10 16q0 8 -15 8q-8 0 -22 -6z" />
    <glyph glyph-name="uni1ECF" unicode="&#x1ecf;" horiz-adv-x="499" 
d="M497 238q0 -109 -73.5 -178.5t-175.5 -69.5q-82 0 -134.5 51t-52.5 137q0 109 74 180.5t175 71.5q82 0 134.5 -53t52.5 -139zM259 68q59 0 100.5 45.5t41.5 118.5q0 54 -28.5 87t-73.5 33q-59 0 -100.5 -46.5t-41.5 -119.5q0 -54 28 -86t74 -32zM272 578l-27 59
q23 16 30 19q22 12 52 12q37 0 59 -17.5t22 -49.5q-3 -30 -16.5 -48.5t-25 -24.5t-11.5 -9l-5 -21h-59l4 32q4 28 30 47q10 9 10 16q0 8 -15 8q-8 0 -22 -6z" />
    <glyph glyph-name="uni1ED0" unicode="&#x1ed0;" horiz-adv-x="675" 
d="M335 -14q-120 0 -190 77t-70 194q0 148 99.5 252t248.5 104q120 0 190 -77t70 -195q0 -146 -100.5 -250.5t-247.5 -104.5zM348 82q99 0 166 72t67 176q0 82 -46.5 135t-125.5 53q-98 0 -164.5 -72.5t-66.5 -177.5q0 -81 46.5 -133.5t123.5 -52.5zM485 654l-40 62l-59 -62
h-76l104 121h77l71 -121h-77zM730 880l-118 -132h-67l72 145z" />
    <glyph glyph-name="uni1ED1" unicode="&#x1ed1;" horiz-adv-x="499" 
d="M497 238q0 -109 -73.5 -178.5t-175.5 -69.5q-82 0 -134.5 51t-52.5 137q0 109 74 180.5t175 71.5q82 0 134.5 -53t52.5 -139zM259 68q59 0 100.5 45.5t41.5 118.5q0 54 -28.5 87t-73.5 33q-59 0 -100.5 -46.5t-41.5 -119.5q0 -54 28 -86t74 -32zM377 498l-40 62l-59 -62
h-76l104 121h77l71 -121h-77zM616 725l-118 -132h-67l72 145z" />
    <glyph glyph-name="uni1ED2" unicode="&#x1ed2;" horiz-adv-x="675" 
d="M335 -14q-120 0 -190 77t-70 194q0 148 99.5 252t248.5 104q120 0 190 -77t70 -195q0 -146 -100.5 -250.5t-247.5 -104.5zM348 82q99 0 166 72t67 176q0 82 -46.5 135t-125.5 53q-98 0 -164.5 -72.5t-66.5 -177.5q0 -81 46.5 -133.5t123.5 -52.5zM488 653l-40 62l-59 -62
h-76l104 121h77l71 -121h-77zM310 747l-72 134l115 17l24 -151h-67z" />
    <glyph glyph-name="uni1ED3" unicode="&#x1ed3;" horiz-adv-x="499" 
d="M497 238q0 -109 -73.5 -178.5t-175.5 -69.5q-82 0 -134.5 51t-52.5 137q0 109 74 180.5t175 71.5q82 0 134.5 -53t52.5 -139zM259 68q59 0 100.5 45.5t41.5 118.5q0 54 -28.5 87t-73.5 33q-59 0 -100.5 -46.5t-41.5 -119.5q0 -54 28 -86t74 -32zM377 498l-40 62l-59 -62
h-76l104 121h77l71 -121h-77zM197 593l-72 134l115 17l24 -151h-67z" />
    <glyph glyph-name="uni1ED4" unicode="&#x1ed4;" horiz-adv-x="675" 
d="M335 -14q-120 0 -190 77t-70 194q0 148 99.5 252t248.5 104q120 0 190 -77t70 -195q0 -146 -100.5 -250.5t-247.5 -104.5zM348 82q99 0 166 72t67 176q0 82 -46.5 135t-125.5 53q-98 0 -164.5 -72.5t-66.5 -177.5q0 -81 46.5 -133.5t123.5 -52.5zM485 654l-40 62l-59 -62
h-76l104 121h77l71 -121h-77zM529 828l-27 59q23 16 30 19q22 12 52 12q37 0 59 -17.5t22 -49.5q-3 -30 -16.5 -48.5t-25 -24.5t-11.5 -9l-5 -21h-59l4 32q4 28 30 47q10 9 10 16q0 8 -15 8q-8 0 -22 -6z" />
    <glyph glyph-name="uni1ED5" unicode="&#x1ed5;" horiz-adv-x="499" 
d="M497 238q0 -109 -73.5 -178.5t-175.5 -69.5q-82 0 -134.5 51t-52.5 137q0 109 74 180.5t175 71.5q82 0 134.5 -53t52.5 -139zM259 68q59 0 100.5 45.5t41.5 118.5q0 54 -28.5 87t-73.5 33q-59 0 -100.5 -46.5t-41.5 -119.5q0 -54 28 -86t74 -32zM377 498l-40 62l-59 -62
h-76l104 121h77l71 -121h-77zM416 673l-27 59q23 16 30 19q22 12 52 12q37 0 59 -17.5t22 -49.5q-3 -30 -16.5 -48.5t-25 -24.5t-11.5 -9l-5 -21h-59l4 32q4 28 30 47q10 9 10 16q0 8 -15 8q-8 0 -22 -6z" />
    <glyph glyph-name="uni1ED6" unicode="&#x1ed6;" horiz-adv-x="675" 
d="M335 -14q-120 0 -190 77t-70 194q0 148 99.5 252t248.5 104q120 0 190 -77t70 -195q0 -146 -100.5 -250.5t-247.5 -104.5zM348 82q99 0 166 72t67 176q0 82 -46.5 135t-125.5 53q-98 0 -164.5 -72.5t-66.5 -177.5q0 -81 46.5 -133.5t123.5 -52.5zM484 654l-40 62l-59 -62
h-76l104 121h77l71 -121h-77zM571 787q-33 0 -73 25t-57 25q-29 0 -44 -36l-6 -16l-68 7l9 30q28 90 108 90q32 0 72 -25t58 -25q33 0 45 37l5 15l68 -6l-9 -30q-27 -91 -108 -91z" />
    <glyph glyph-name="uni1ED7" unicode="&#x1ed7;" horiz-adv-x="499" 
d="M497 238q0 -109 -73.5 -178.5t-175.5 -69.5q-82 0 -134.5 51t-52.5 137q0 109 74 180.5t175 71.5q82 0 134.5 -53t52.5 -139zM259 68q59 0 100.5 45.5t41.5 118.5q0 54 -28.5 87t-73.5 33q-59 0 -100.5 -46.5t-41.5 -119.5q0 -54 28 -86t74 -32zM377 498l-40 62l-59 -62
h-76l104 121h77l71 -121h-77zM452 637q-33 0 -73 25t-57 25q-29 0 -44 -36l-6 -16l-68 7l9 30q28 90 108 90q32 0 72 -25t58 -25q33 0 45 37l5 15l68 -6l-9 -30q-27 -91 -108 -91z" />
    <glyph glyph-name="uni1ED8" unicode="&#x1ed8;" horiz-adv-x="675" 
d="M335 -14q-120 0 -190 77t-70 194q0 148 99.5 252t248.5 104q120 0 190 -77t70 -195q0 -146 -100.5 -250.5t-247.5 -104.5zM348 82q99 0 166 72t67 176q0 82 -46.5 135t-125.5 53q-98 0 -164.5 -72.5t-66.5 -177.5q0 -81 46.5 -133.5t123.5 -52.5zM485 654l-40 62l-59 -62
h-76l104 121h77l71 -121h-77zM256 -136q0 29 21.5 50t49.5 21q24 0 39.5 -16.5t15.5 -40.5q0 -29 -21.5 -49.5t-50.5 -20.5q-23 0 -38.5 16t-15.5 40z" />
    <glyph glyph-name="uni1ED9" unicode="&#x1ed9;" horiz-adv-x="499" 
d="M497 238q0 -109 -73.5 -178.5t-175.5 -69.5q-82 0 -134.5 51t-52.5 137q0 109 74 180.5t175 71.5q82 0 134.5 -53t52.5 -139zM259 68q59 0 100.5 45.5t41.5 118.5q0 54 -28.5 87t-73.5 33q-59 0 -100.5 -46.5t-41.5 -119.5q0 -54 28 -86t74 -32zM377 498l-40 62l-59 -62
h-76l104 121h77l71 -121h-77zM169 -136q0 29 21.5 50t49.5 21q24 0 39.5 -16.5t15.5 -40.5q0 -29 -21.5 -49.5t-50.5 -20.5q-23 0 -38.5 16t-15.5 40z" />
    <glyph glyph-name="uni1EDA" unicode="&#x1eda;" horiz-adv-x="675" 
d="M348 82q99 0 166 72t67 176q0 82 -46.5 135t-125.5 53q-98 0 -164.5 -72.5t-66.5 -177.5q0 -81 46.5 -133.5t123.5 -52.5zM593 555q16 -14 22 -20q68 -76 68 -194q0 -146 -100.5 -250.5t-247.5 -104.5q-120 0 -190 77t-70 194q0 148 99.5 252t248.5 104q54 0 96 -16
q30 2 52 21q23 19 31 50h74q-14 -60 -62 -99q-14 -10 -21 -14zM576 786l-118 -132h-67l72 145z" />
    <glyph glyph-name="uni1EDB" unicode="&#x1edb;" horiz-adv-x="499" 
d="M259 68q59 0 100.5 45.5t41.5 118.5q0 54 -28.5 87t-73.5 33q-59 0 -100.5 -46.5t-41.5 -119.5q0 -54 28 -86t74 -32zM449 372q22 -23 34 -55q14 -37 14 -79q0 -109 -73.5 -178.5t-175.5 -69.5q-82 0 -134.5 51t-52.5 137q0 109 74 180.5t175 71.5q38 0 70 -12
q32 2 54 21q23 19 31 50h74q-14 -60 -62 -99q-14 -11 -28 -18zM449 630l-118 -132h-67l72 145z" />
    <glyph glyph-name="uni1EDC" unicode="&#x1edc;" horiz-adv-x="675" 
d="M348 82q99 0 166 72t67 176q0 82 -46.5 135t-125.5 53q-98 0 -164.5 -72.5t-66.5 -177.5q0 -81 46.5 -133.5t123.5 -52.5zM593 555q16 -14 22 -20q68 -76 68 -194q0 -146 -100.5 -250.5t-247.5 -104.5q-120 0 -190 77t-70 194q0 148 99.5 252t248.5 104q54 0 96 -16
q30 2 52 21q23 19 31 50h74q-14 -60 -62 -99q-14 -10 -21 -14zM401 654l-72 134l115 17l24 -151h-67z" />
    <glyph glyph-name="uni1EDD" unicode="&#x1edd;" horiz-adv-x="499" 
d="M259 68q59 0 100.5 45.5t41.5 118.5q0 54 -28.5 87t-73.5 33q-59 0 -100.5 -46.5t-41.5 -119.5q0 -54 28 -86t74 -32zM449 372q22 -23 34 -55q14 -37 14 -79q0 -109 -73.5 -178.5t-175.5 -69.5q-82 0 -134.5 51t-52.5 137q0 109 74 180.5t175 71.5q38 0 70 -12
q32 2 54 21q23 19 31 50h74q-14 -60 -62 -99q-14 -11 -28 -18zM230 497l-72 134l115 17l24 -151h-67z" />
    <glyph glyph-name="uni1EDE" unicode="&#x1ede;" horiz-adv-x="675" 
d="M348 82q99 0 166 72t67 176q0 82 -46.5 135t-125.5 53q-98 0 -164.5 -72.5t-66.5 -177.5q0 -81 46.5 -133.5t123.5 -52.5zM593 555q16 -14 22 -20q68 -76 68 -194q0 -146 -100.5 -250.5t-247.5 -104.5q-120 0 -190 77t-70 194q0 148 99.5 252t248.5 104q54 0 96 -16
q30 2 52 21q23 19 31 50h74q-14 -60 -62 -99q-14 -10 -21 -14zM378 734l-27 59q23 16 30 19q22 12 52 12q37 0 59 -17.5t22 -49.5q-3 -30 -16.5 -48.5t-25 -24.5t-11.5 -9l-5 -21h-59l4 32q4 28 30 47q10 9 10 16q0 8 -15 8q-8 0 -22 -6z" />
    <glyph glyph-name="uni1EDF" unicode="&#x1edf;" horiz-adv-x="499" 
d="M259 68q59 0 100.5 45.5t41.5 118.5q0 54 -28.5 87t-73.5 33q-59 0 -100.5 -46.5t-41.5 -119.5q0 -54 28 -86t74 -32zM449 372q22 -23 34 -55q14 -37 14 -79q0 -109 -73.5 -178.5t-175.5 -69.5q-82 0 -134.5 51t-52.5 137q0 109 74 180.5t175 71.5q38 0 70 -12
q32 2 54 21q23 19 31 50h74q-14 -60 -62 -99q-14 -11 -28 -18zM273 578l-27 59q23 16 30 19q22 12 52 12q37 0 59 -17.5t22 -49.5q-3 -30 -16.5 -48.5t-25 -24.5t-11.5 -9l-5 -21h-59l4 32q4 28 30 47q10 9 10 16q0 8 -15 8q-8 0 -22 -6z" />
    <glyph glyph-name="uni1EE0" unicode="&#x1ee0;" horiz-adv-x="675" 
d="M348 82q99 0 166 72t67 176q0 82 -46.5 135t-125.5 53q-98 0 -164.5 -72.5t-66.5 -177.5q0 -81 46.5 -133.5t123.5 -52.5zM593 555q16 -14 22 -20q68 -76 68 -194q0 -146 -100.5 -250.5t-247.5 -104.5q-120 0 -190 77t-70 194q0 148 99.5 252t248.5 104q54 0 96 -16
q30 2 52 21q23 19 31 50h74q-14 -60 -62 -99q-14 -10 -21 -14zM473 656q-33 0 -73 25t-57 25q-29 0 -44 -36l-6 -16l-68 7l9 30q28 90 108 90q32 0 72 -25t58 -25q33 0 45 37l5 15l68 -6l-9 -30q-27 -91 -108 -91z" />
    <glyph glyph-name="uni1EE1" unicode="&#x1ee1;" horiz-adv-x="499" 
d="M259 68q59 0 100.5 45.5t41.5 118.5q0 54 -28.5 87t-73.5 33q-59 0 -100.5 -46.5t-41.5 -119.5q0 -54 28 -86t74 -32zM449 372q22 -23 34 -55q14 -37 14 -79q0 -109 -73.5 -178.5t-175.5 -69.5q-82 0 -134.5 51t-52.5 137q0 109 74 180.5t175 71.5q38 0 70 -12
q32 2 54 21q23 19 31 50h74q-14 -60 -62 -99q-14 -11 -28 -18zM384 500q-33 0 -73 25t-57 25q-29 0 -44 -36l-6 -16l-68 7l9 30q28 90 108 90q32 0 72 -25t58 -25q33 0 45 37l5 15l68 -6l-9 -30q-27 -91 -108 -91z" />
    <glyph glyph-name="uni1EE2" unicode="&#x1ee2;" horiz-adv-x="675" 
d="M348 82q99 0 166 72t67 176q0 82 -46.5 135t-125.5 53q-98 0 -164.5 -72.5t-66.5 -177.5q0 -81 46.5 -133.5t123.5 -52.5zM593 555q16 -14 22 -20q68 -76 68 -194q0 -146 -100.5 -250.5t-247.5 -104.5q-120 0 -190 77t-70 194q0 148 99.5 252t248.5 104q54 0 96 -16
q30 2 52 21q23 19 31 50h74q-14 -60 -62 -99q-14 -10 -21 -14zM256 -136q0 29 21.5 50t49.5 21q24 0 39.5 -16.5t15.5 -40.5q0 -29 -21.5 -49.5t-50.5 -20.5q-23 0 -38.5 16t-15.5 40z" />
    <glyph glyph-name="uni1EE3" unicode="&#x1ee3;" horiz-adv-x="499" 
d="M259 68q59 0 100.5 45.5t41.5 118.5q0 54 -28.5 87t-73.5 33q-59 0 -100.5 -46.5t-41.5 -119.5q0 -54 28 -86t74 -32zM449 372q22 -23 34 -55q14 -37 14 -79q0 -109 -73.5 -178.5t-175.5 -69.5q-82 0 -134.5 51t-52.5 137q0 109 74 180.5t175 71.5q38 0 70 -12
q32 2 54 21q23 19 31 50h74q-14 -60 -62 -99q-14 -11 -28 -18zM200 -136q0 29 21.5 50t49.5 21q24 0 39.5 -16.5t15.5 -40.5q0 -29 -21.5 -49.5t-50.5 -20.5q-23 0 -38.5 16t-15.5 40z" />
    <glyph glyph-name="uni1EE4" unicode="&#x1ee4;" horiz-adv-x="634" 
d="M315 -14q-116 0 -172.5 74.5t-40.5 193.5l49 346h99l-49 -346q-10 -77 22.5 -125t105.5 -48q74 0 120 48t56 125l49 346h99l-49 -346q-16 -119 -94 -193.5t-195 -74.5zM237 -136q0 29 21.5 50t49.5 21q24 0 39.5 -16.5t15.5 -40.5q0 -29 -21.5 -49.5t-50.5 -20.5
q-23 0 -38.5 16t-15.5 40z" />
    <glyph glyph-name="uni1EE5" unicode="&#x1ee5;" horiz-adv-x="510" 
d="M376 174l35 246h98l-59 -420h-64l-9 58h-4q-59 -68 -148 -68q-81 0 -119 51.5t-26 137.5l34 241h98l-33 -232q-7 -53 13 -84.5t67 -31.5q49 0 81 32.5t36 69.5zM172 -136q0 29 21.5 50t49.5 21q24 0 39.5 -16.5t15.5 -40.5q0 -29 -21.5 -49.5t-50.5 -20.5q-23 0 -38.5 16
t-15.5 40z" />
    <glyph glyph-name="uni1EE6" unicode="&#x1ee6;" horiz-adv-x="634" 
d="M315 -14q-116 0 -172.5 74.5t-40.5 193.5l49 346h99l-49 -346q-10 -77 22.5 -125t105.5 -48q74 0 120 48t56 125l49 346h99l-49 -346q-16 -119 -94 -193.5t-195 -74.5zM358 734l-27 59q23 16 30 19q22 12 52 12q37 0 59 -17.5t22 -49.5q-3 -30 -16.5 -48.5t-25 -24.5
t-11.5 -9l-5 -21h-59l4 32q4 28 30 47q10 9 10 16q0 8 -15 8q-8 0 -22 -6z" />
    <glyph glyph-name="uni1EE7" unicode="&#x1ee7;" horiz-adv-x="510" 
d="M376 174l35 246h98l-59 -420h-64l-9 58h-4q-59 -68 -148 -68q-81 0 -119 51.5t-26 137.5l34 241h98l-33 -232q-7 -53 13 -84.5t67 -31.5q49 0 81 32.5t36 69.5zM280 578l-27 59q23 16 30 19q22 12 52 12q37 0 59 -17.5t22 -49.5q-3 -30 -16.5 -48.5t-25 -24.5t-11.5 -9
l-5 -21h-59l4 32q4 28 30 47q10 9 10 16q0 8 -15 8q-8 0 -22 -6z" />
    <glyph glyph-name="uni1EE8" unicode="&#x1ee8;" horiz-adv-x="634" 
d="M645 547l-41 -293q-16 -119 -94 -193.5t-195 -74.5q-116 0 -172.5 74.5t-40.5 193.5l49 346h99l-49 -346q-10 -77 22.5 -125t105.5 -48q74 0 120 48t56 125l49 346h50q17 4 34 18q23 19 31 50h74q-14 -60 -62 -99q-19 -15 -36 -22zM557 786l-118 -132h-67l72 145z" />
    <glyph glyph-name="uni1EE9" unicode="&#x1ee9;" horiz-adv-x="510" 
d="M501 363l-51 -363h-64l-9 58h-4q-59 -68 -148 -68q-81 0 -119 51.5t-26 137.5l34 241h98l-33 -232q-7 -53 13 -84.5t67 -31.5q49 0 81 32.5t36 69.5l35 246h54q22 5 38 19q23 19 31 50h74q-14 -60 -62 -99q-21 -16 -45 -27zM455 629l-118 -132h-67l72 145z" />
    <glyph glyph-name="uni1EEA" unicode="&#x1eea;" horiz-adv-x="634" 
d="M645 547l-41 -293q-16 -119 -94 -193.5t-195 -74.5q-116 0 -172.5 74.5t-40.5 193.5l49 346h99l-49 -346q-10 -77 22.5 -125t105.5 -48q74 0 120 48t56 125l49 346h50q17 4 34 18q23 19 31 50h74q-14 -60 -62 -99q-19 -15 -36 -22zM379 654l-72 134l115 17l24 -151h-67z
" />
    <glyph glyph-name="uni1EEB" unicode="&#x1eeb;" horiz-adv-x="510" 
d="M501 363l-51 -363h-64l-9 58h-4q-59 -68 -148 -68q-81 0 -119 51.5t-26 137.5l34 241h98l-33 -232q-7 -53 13 -84.5t67 -31.5q49 0 81 32.5t36 69.5l35 246h54q22 5 38 19q23 19 31 50h74q-14 -60 -62 -99q-21 -16 -45 -27zM289 497l-72 134l115 17l24 -151h-67z" />
    <glyph glyph-name="uni1EEC" unicode="&#x1eec;" horiz-adv-x="634" 
d="M645 547l-41 -293q-16 -119 -94 -193.5t-195 -74.5q-116 0 -172.5 74.5t-40.5 193.5l49 346h99l-49 -346q-10 -77 22.5 -125t105.5 -48q74 0 120 48t56 125l49 346h50q17 4 34 18q23 19 31 50h74q-14 -60 -62 -99q-19 -15 -36 -22zM362 734l-27 59q23 16 30 19
q22 12 52 12q37 0 59 -17.5t22 -49.5q-3 -30 -16.5 -48.5t-25 -24.5t-11.5 -9l-5 -21h-59l4 32q4 28 30 47q10 9 10 16q0 8 -15 8q-8 0 -22 -6z" />
    <glyph glyph-name="uni1EED" unicode="&#x1eed;" horiz-adv-x="510" 
d="M501 363l-51 -363h-64l-9 58h-4q-59 -68 -148 -68q-81 0 -119 51.5t-26 137.5l34 241h98l-33 -232q-7 -53 13 -84.5t67 -31.5q49 0 81 32.5t36 69.5l35 246h54q22 5 38 19q23 19 31 50h74q-14 -60 -62 -99q-21 -16 -45 -27zM283 578l-27 59q23 16 30 19q22 12 52 12
q37 0 59 -17.5t22 -49.5q-3 -30 -16.5 -48.5t-25 -24.5t-11.5 -9l-5 -21h-59l4 32q4 28 30 47q10 9 10 16q0 8 -15 8q-8 0 -22 -6z" />
    <glyph glyph-name="uni1EEE" unicode="&#x1eee;" horiz-adv-x="634" 
d="M645 547l-41 -293q-16 -119 -94 -193.5t-195 -74.5q-116 0 -172.5 74.5t-40.5 193.5l49 346h99l-49 -346q-10 -77 22.5 -125t105.5 -48q74 0 120 48t56 125l49 346h50q17 4 34 18q23 19 31 50h74q-14 -60 -62 -99q-19 -15 -36 -22zM489 656q-33 0 -73 25t-57 25
q-29 0 -44 -36l-6 -16l-68 7l9 30q28 90 108 90q32 0 72 -25t58 -25q33 0 45 37l5 15l68 -6l-9 -30q-27 -91 -108 -91z" />
    <glyph glyph-name="uni1EEF" unicode="&#x1eef;" horiz-adv-x="510" 
d="M501 363l-51 -363h-64l-9 58h-4q-59 -68 -148 -68q-81 0 -119 51.5t-26 137.5l34 241h98l-33 -232q-7 -53 13 -84.5t67 -31.5q49 0 81 32.5t36 69.5l35 246h54q22 5 38 19q23 19 31 50h74q-14 -60 -62 -99q-21 -16 -45 -27zM391 499q-33 0 -73 25t-57 25q-29 0 -44 -36
l-6 -16l-68 7l9 30q28 90 108 90q32 0 72 -25t58 -25q33 0 45 37l5 15l68 -6l-9 -30q-27 -91 -108 -91z" />
    <glyph glyph-name="uni1EF0" unicode="&#x1ef0;" horiz-adv-x="634" 
d="M645 547l-41 -293q-16 -119 -94 -193.5t-195 -74.5q-116 0 -172.5 74.5t-40.5 193.5l49 346h99l-49 -346q-10 -77 22.5 -125t105.5 -48q74 0 120 48t56 125l49 346h50q17 4 34 18q23 19 31 50h74q-14 -60 -62 -99q-19 -15 -36 -22zM220 -136q0 29 21.5 50t49.5 21
q24 0 39.5 -16.5t15.5 -40.5q0 -29 -21.5 -49.5t-50.5 -20.5q-23 0 -38.5 16t-15.5 40z" />
    <glyph glyph-name="uni1EF1" unicode="&#x1ef1;" horiz-adv-x="510" 
d="M501 363l-51 -363h-64l-9 58h-4q-59 -68 -148 -68q-81 0 -119 51.5t-26 137.5l34 241h98l-33 -232q-7 -53 13 -84.5t67 -31.5q49 0 81 32.5t36 69.5l35 246h54q22 5 38 19q23 19 31 50h74q-14 -60 -62 -99q-21 -16 -45 -27zM187 -136q0 29 21.5 50t49.5 21
q24 0 39.5 -16.5t15.5 -40.5q0 -29 -21.5 -49.5t-50.5 -20.5q-23 0 -38.5 16t-15.5 40z" />
    <glyph glyph-name="Ygrave" unicode="&#x1ef2;" horiz-adv-x="537" 
d="M342 365l167 235h110l-269 -370l-32 -230h-99l32 230l-165 370h111l101 -235l15 -49zM336 654l-72 134l115 17l24 -151h-67z" />
    <glyph glyph-name="ygrave" unicode="&#x1ef3;" horiz-adv-x="508" 
d="M377 176l34 244h96l-56 -402q-12 -89 -71.5 -143t-158.5 -54q-65 0 -105.5 22t-54.5 43l58 62q5 -8 15.5 -17.5t37 -20.5t57.5 -11q108 0 125 116l4 26q-51 -51 -130 -51q-84 0 -123 51t-27 138l34 241h98l-33 -232q-7 -52 13 -84t66 -32q51 0 82.5 31.5t38.5 72.5z
M310 497l-72 134l115 17l24 -151h-67z" />
    <glyph glyph-name="uni1EF4" unicode="&#x1ef4;" horiz-adv-x="537" 
d="M342 365l167 235h110l-269 -370l-32 -230h-99l32 230l-165 370h111l101 -235l15 -49zM187 -136q0 29 21.5 50t49.5 21q24 0 39.5 -16.5t15.5 -40.5q0 -29 -21.5 -49.5t-50.5 -20.5q-23 0 -38.5 16t-15.5 40z" />
    <glyph glyph-name="uni1EF5" unicode="&#x1ef5;" horiz-adv-x="508" 
d="M377 176l34 244h96l-56 -402q-12 -89 -71.5 -143t-158.5 -54q-65 0 -105.5 22t-54.5 43l58 62q5 -8 15.5 -17.5t37 -20.5t57.5 -11q108 0 125 116l4 26q-51 -51 -130 -51q-84 0 -123 51t-27 138l34 241h98l-33 -232q-7 -52 13 -84t66 -32q51 0 82.5 31.5t38.5 72.5z
M435 -136q0 29 21.5 50t49.5 21q24 0 39.5 -16.5t15.5 -40.5q0 -29 -21.5 -49.5t-50.5 -20.5q-23 0 -38.5 16t-15.5 40z" />
    <glyph glyph-name="uni1EF6" unicode="&#x1ef6;" horiz-adv-x="537" 
d="M342 365l167 235h110l-269 -370l-32 -230h-99l32 230l-165 370h111l101 -235l15 -49zM291 734l-27 59q23 16 30 19q22 12 52 12q37 0 59 -17.5t22 -49.5q-3 -30 -16.5 -48.5t-25 -24.5t-11.5 -9l-5 -21h-59l4 32q4 28 30 47q10 9 10 16q0 8 -15 8q-8 0 -22 -6z" />
    <glyph glyph-name="uni1EF7" unicode="&#x1ef7;" horiz-adv-x="508" 
d="M377 176l34 244h96l-56 -402q-12 -89 -71.5 -143t-158.5 -54q-65 0 -105.5 22t-54.5 43l58 62q5 -8 15.5 -17.5t37 -20.5t57.5 -11q108 0 125 116l4 26q-51 -51 -130 -51q-84 0 -123 51t-27 138l34 241h98l-33 -232q-7 -52 13 -84t66 -32q51 0 82.5 31.5t38.5 72.5z
M261 578l-27 59q23 16 30 19q22 12 52 12q37 0 59 -17.5t22 -49.5q-3 -30 -16.5 -48.5t-25 -24.5t-11.5 -9l-5 -21h-59l4 32q4 28 30 47q10 9 10 16q0 8 -15 8q-8 0 -22 -6z" />
    <glyph glyph-name="uni1EF8" unicode="&#x1ef8;" horiz-adv-x="537" 
d="M342 365l167 235h110l-269 -370l-32 -230h-99l32 230l-165 370h111l101 -235l15 -49zM428 656q-33 0 -73 25t-57 25q-29 0 -44 -36l-6 -16l-68 7l9 30q28 90 108 90q32 0 72 -25t58 -25q33 0 45 37l5 15l68 -6l-9 -30q-27 -91 -108 -91z" />
    <glyph glyph-name="uni1EF9" unicode="&#x1ef9;" horiz-adv-x="508" 
d="M377 176l34 244h96l-56 -402q-12 -89 -71.5 -143t-158.5 -54q-65 0 -105.5 22t-54.5 43l58 62q5 -8 15.5 -17.5t37 -20.5t57.5 -11q108 0 125 116l4 26q-51 -51 -130 -51q-84 0 -123 51t-27 138l34 241h98l-33 -232q-7 -52 13 -84t66 -32q51 0 82.5 31.5t38.5 72.5z
M395 499q-33 0 -73 25t-57 25q-29 0 -44 -36l-6 -16l-68 7l9 30q28 90 108 90q32 0 72 -25t58 -25q33 0 45 37l5 15l68 -6l-9 -30q-27 -91 -108 -91z" />
    <glyph glyph-name="endash" unicode="&#x2013;" horiz-adv-x="458" 
d="M94 247l11 81h335l-11 -81h-335z" />
    <glyph glyph-name="emdash" unicode="&#x2014;" horiz-adv-x="711" 
d="M94 247l11 81h588l-11 -81h-588z" />
    <glyph glyph-name="quoteleft" unicode="&#x2018;" horiz-adv-x="220" 
d="M101 428l1 7q9 63 49.5 108t103.5 57l8 -53q-68 -15 -81 -61q18 -4 28.5 -18.5t10.5 -32.5q0 -28 -20.5 -47.5t-48.5 -19.5q-25 0 -40 17t-11 43z" />
    <glyph glyph-name="quoteright" unicode="&#x2019;" horiz-adv-x="222" 
d="M264 540l-1 -7q-9 -64 -49 -108.5t-104 -56.5l-8 53q66 13 81 61q-18 3 -29 17t-11 34q0 27 21 47t48 20q25 0 40.5 -17.5t11.5 -42.5z" />
    <glyph glyph-name="quotesinglbase" unicode="&#x201a;" horiz-adv-x="213" 
d="M172 49l-1 -7q-9 -63 -49.5 -108t-103.5 -57l-8 53q67 16 82 61q-19 4 -30 18t-11 33q0 27 21 47t48 20q25 0 40.5 -17t11.5 -43z" />
    <glyph glyph-name="quotedblleft" unicode="&#x201c;" horiz-adv-x="386" 
d="M267 428l1 7q9 63 49.5 108t103.5 57l8 -53q-68 -15 -81 -61q18 -4 28.5 -18.5t10.5 -32.5q0 -28 -20.5 -47.5t-48.5 -19.5q-25 0 -40 17t-11 43zM101 428l1 7q9 63 49.5 108t103.5 57l8 -53q-68 -15 -81 -61q18 -4 28.5 -18.5t10.5 -32.5q0 -28 -20.5 -47.5t-48.5 -19.5
q-25 0 -40 17t-11 43z" />
    <glyph glyph-name="quotedblright" unicode="&#x201d;" horiz-adv-x="382" 
d="M424 540l-1 -7q-9 -64 -49 -108.5t-104 -56.5l-8 53q66 13 81 61q-40 6 -40 50q0 28 20.5 48t48.5 20q25 0 40.5 -17.5t11.5 -42.5zM263 540l-1 -7q-9 -64 -49 -108.5t-103 -56.5l-9 53q67 13 82 61q-41 7 -41 51q0 27 21 47t48 20q26 0 41 -17.5t11 -42.5z" />
    <glyph glyph-name="quotedblbase" unicode="&#x201e;" horiz-adv-x="450" 
d="M172 49l-1 -7q-9 -63 -49.5 -108t-103.5 -57l-8 53q67 16 82 61q-19 4 -30 18t-11 33q0 27 21 47t48 20q25 0 40.5 -17t11.5 -43zM410 49l-1 -7q-9 -63 -49.5 -108t-103.5 -57l-8 53q67 16 82 61q-19 4 -30 18t-11 33q0 27 21 47t48 20q25 0 40.5 -17t11.5 -43z" />
    <glyph glyph-name="dagger" unicode="&#x2020;" horiz-adv-x="410" 
d="M91 420l11 80h133l19 135h82l-19 -135h131l-11 -80h-131l-44 -256h-66l28 256h-133z" />
    <glyph glyph-name="daggerdbl" unicode="&#x2021;" horiz-adv-x="441" 
d="M113 453l11 80h133l19 135h82l-19 -135h131l-11 -80h-131l-24 -119l-10 -119h131l-11 -80h-131l-19 -135h-82l19 135h-133l11 80h133l23 119l11 119h-133z" />
    <glyph glyph-name="bullet" unicode="&#x2022;" horiz-adv-x="319" 
d="M202 308q32 0 53.5 -21.5t21.5 -53.5q0 -38 -30 -66t-69 -28q-32 0 -53 21t-21 53q0 39 29.5 67t68.5 28z" />
    <glyph glyph-name="ellipsis" unicode="&#x2026;" horiz-adv-x="732" 
d="M55 50q0 32 23.5 54.5t55.5 22.5q26 0 42.5 -17.5t16.5 -43.5q0 -32 -23.5 -53.5t-54.5 -21.5q-26 0 -43 16.5t-17 42.5zM305 50q0 32 23.5 54.5t54.5 22.5q26 0 43 -17.5t17 -43.5q0 -32 -23.5 -53.5t-55.5 -21.5q-26 0 -42.5 16.5t-16.5 42.5zM554 50q0 32 24 54.5
t55 22.5q26 0 42.5 -17.5t16.5 -43.5q0 -32 -23.5 -53.5t-54.5 -21.5q-26 0 -43 16.5t-17 42.5z" />
    <glyph glyph-name="perthousand" unicode="&#x2030;" horiz-adv-x="967" 
d="M257 613q54 0 84 -36.5t30 -90.5q0 -69 -43.5 -120.5t-112.5 -51.5q-54 0 -84 37t-30 91q0 69 43.5 120t112.5 51zM224 379q34 0 53.5 29t19.5 75q0 66 -49 66q-34 0 -53.5 -29t-19.5 -75q0 -31 12.5 -48.5t36.5 -17.5zM605 600h92l-561 -600h-91zM533 291q54 0 84.5 -37
t30.5 -91q0 -68 -44.5 -119.5t-112.5 -51.5q-54 0 -84 37t-30 91q0 69 44 120t112 51zM524 227q-34 0 -53.5 -29t-19.5 -75q0 -30 13 -48t36 -18q34 0 53.5 29t19.5 75q0 66 -49 66zM836 227q-34 0 -54 -29t-20 -75q0 -30 13 -48t37 -18q33 0 52.5 29t19.5 75q0 66 -48 66z
M845 291q53 0 83.5 -37t30.5 -91q0 -68 -44.5 -119.5t-111.5 -51.5q-54 0 -84.5 37t-30.5 91q0 69 44 120t113 51z" />
    <glyph glyph-name="guilsinglleft" unicode="&#x2039;" horiz-adv-x="280" 
d="M64 197l3 22l151 189h83l-2 -10l-146 -186l-1 -6l94 -188l-2 -10h-83z" />
    <glyph glyph-name="guilsinglright" unicode="&#x203a;" horiz-adv-x="280" 
d="M275 219l-3 -22l-151 -189h-83l1 10l148 188l1 6l-95 186l1 10h83z" />
    <glyph glyph-name="fraction" unicode="&#x2044;" horiz-adv-x="576" 
d="M70 0h-81l610 661h81z" />
    <glyph glyph-name="Euro" unicode="&#x20ac;" horiz-adv-x="578" 
d="M439 267l-10 -71h-181q18 -115 134 -115q44 0 90 26q19 10 34 27l43 -74q-19 -19 -47 -36q-59 -36 -134 -36q-101 0 -158 57.5t-67 150.5h-78l10 71h67q2 32 6 51q0 4 1.5 11t2.5 10h-67l10 71h79q38 92 109.5 147.5t172.5 55.5q77 0 124 -36q22 -17 36 -36l-63 -76
q-11 16 -27 26q-39 27 -83 27q-114 0 -164 -108h180l-10 -71h-194q-1 -3 -2 -10t-2 -11q-4 -19 -6 -51h194z" />
    <glyph glyph-name="trademark" unicode="&#x2122;" horiz-adv-x="718" 
d="M442 281h-65l45 319h46l90 -144l134 144h44l-45 -319h-65l28 196l-95 -104h-24l-65 104zM367 600l-8 -57h-93l-37 -262h-64l37 262h-93l8 57h250z" />
    <glyph glyph-name="Omega" unicode="&#x2126;" horiz-adv-x="716" 
d="M49 0l12 86h122q-44 31 -67.5 83t-23.5 111q0 134 97.5 233.5t254.5 99.5q128 0 198.5 -75t70.5 -187q0 -82 -41 -152.5t-115 -112.5h122l-12 -86h-274l13 89q83 8 144.5 80t61.5 163q0 80 -49 133t-132 53q-103 0 -172 -71t-69 -170q0 -74 40.5 -128t105.5 -60l-13 -89
h-274z" />
    <glyph glyph-name="partialdiff" unicode="&#x2202;" horiz-adv-x="505" 
d="M250 -10q-90 0 -140 49.5t-50 136.5q0 111 70.5 182t181.5 71q20 0 37 -3l1 4q-1 2 -3.5 6t-4.5 6q-6 9 -15 28l-116 247l2 11h94l163 -346q33 -69 33 -134q0 -117 -70 -187.5t-183 -70.5zM402 234q0 54 -27.5 84t-74.5 30q-59 0 -99.5 -44.5t-40.5 -117.5
q0 -53 28 -84.5t73 -31.5q60 0 100.5 45t40.5 119z" />
    <glyph glyph-name="increment" unicode="&#x2206;" horiz-adv-x="640" 
d="M26 0l3 18l366 582h18l205 -582l-3 -18h-589zM485 86l-103 338h-5l-199 -338h307z" />
    <glyph glyph-name="product" unicode="&#x220f;" horiz-adv-x="626" 
d="M647 600l-84 -600h-99l72 514h-302l-72 -514h-99l84 600h500z" />
    <glyph glyph-name="summation" unicode="&#x2211;" horiz-adv-x="449" 
d="M129 600h360l-12 -86h-236l122 -191l-6 -49l-172 -188h232l-12 -86h-360l12 86l196 206l2 13l-138 209z" />
    <glyph glyph-name="minus" unicode="&#x2212;" horiz-adv-x="549" 
d="M94 258l11 81h434l-11 -81h-434z" />
    <glyph glyph-name="radical" unicode="&#x221a;" horiz-adv-x="614" 
d="M709 600l-508 -792h-21l-148 399h110l50 -150q1 -5 6 -23t9 -34.5t4 -20.5h10q2 10 41 78l336 543h111z" />
    <glyph glyph-name="infinity" unicode="&#x221e;" horiz-adv-x="757" 
d="M226 115q-66 0 -105.5 43t-39.5 106q0 76 56 134t137 58q52 0 87.5 -30.5t66.5 -84.5q89 115 183 115q62 0 103.5 -41t41.5 -108q0 -76 -55.5 -134t-137.5 -58q-94 0 -154 113q-44 -53 -87 -83t-96 -30zM595 379q-35 0 -65.5 -24t-65.5 -68q24 -47 47 -71t58 -24
q45 0 74.5 31.5t29.5 73.5q0 36 -21.5 59t-56.5 23zM243 192q60 0 130 92q-25 48 -47 71.5t-57 23.5q-46 0 -75 -32.5t-29 -74.5q0 -34 20.5 -57t57.5 -23z" />
    <glyph glyph-name="integral" unicode="&#x222b;" horiz-adv-x="318" 
d="M113 21l71 503q18 125 131 125q28 0 57 -11q10 -4 20 -11l-36 -73l-5 2.5t-5 1.5q-12 5 -24 5q-34 0 -41 -49l-71 -503q-18 -125 -131 -125q-37 0 -57 11q-14 6 -20 11l37 73q5 -3 10 -5q9 -4 23 -4q34 0 41 49z" />
    <glyph glyph-name="approxequal" unicode="&#x2248;" horiz-adv-x="498" 
d="M350 163q-35 0 -77 21.5t-58 21.5q-28 0 -42 -31l-6 -14l-84 6l12 38q30 84 118 84q35 0 76.5 -21.5t58.5 -21.5q28 0 42 31l6 14l84 -6l-12 -39q-30 -83 -118 -83zM378 357q-35 0 -77 21.5t-58 21.5q-29 0 -43 -31l-6 -14l-84 6l13 39q28 83 117 83q35 0 76.5 -21.5
t58.5 -21.5q29 0 43 31l6 14l83 -6l-12 -38q-26 -84 -117 -84z" />
    <glyph glyph-name="notequal" unicode="&#x2260;" horiz-adv-x="474" 
d="M101 349l12 80h195l59 114l64 -24l-46 -90h98l-12 -80h-127l-66 -129h175l-11 -80h-204l-57 -111l-64 24l44 87h-89l11 80h118l66 129h-166z" />
    <glyph glyph-name="lessequal" unicode="&#x2264;" horiz-adv-x="388" 
d="M345 258l-65 -59l-166 183l2 19l219 188l49 -60l-162 -138zM363 145l-11 -81h-292l11 81h292z" />
    <glyph glyph-name="greaterequal" unicode="&#x2265;" horiz-adv-x="388" 
d="M165 199l-50 59l161 133l-124 138l67 60l165 -188l-2 -19zM55 64l11 81h291l-11 -81h-291z" />
    <glyph glyph-name="lozenge" unicode="&#x25ca;" horiz-adv-x="470" 
d="M353 600l128 -300l-212 -300h-68l-127 300l211 300h68zM184 299l63 -166h14l109 166l-63 168h-14z" />
    <glyph glyph-name="cir.acute" unicode="&#xe00d;" horiz-adv-x="0" 
d="M333 654l-40 62l-59 -62h-76l104 121h77l71 -121h-77zM578 880l-118 -132h-67l72 145z" />
    <glyph glyph-name="cir.grave" unicode="&#xe00e;" horiz-adv-x="0" 
d="M333 654l-40 62l-59 -62h-76l104 121h77l71 -121h-77zM155 748l-72 134l115 17l24 -151h-67z" />
    <glyph glyph-name="cir.tilde" unicode="&#xe00f;" horiz-adv-x="0" 
d="M332 655l-40 62l-59 -62h-76l104 121h77l71 -121h-77zM419 788q-33 0 -73 25t-57 25q-29 0 -44 -36l-6 -16l-68 7l9 30q28 90 108 90q32 0 72 -25t58 -25q33 0 45 37l5 15l68 -6l-9 -30q-27 -91 -108 -91z" />
    <glyph glyph-name="breve.tilde" unicode="&#xe010;" horiz-adv-x="0" 
d="M367 771h63q-8 -49 -44.5 -83.5t-89.5 -34.5t-79.5 34t-20.5 84h62q-4 -27 8.5 -44t37.5 -17q23 0 41 17t22 44zM400 787q-33 0 -73 25t-57 25q-29 0 -44 -36l-6 -16l-68 7l9 30q28 90 108 90q32 0 72 -25t58 -25q33 0 45 37l5 15l68 -6l-9 -30q-27 -91 -108 -91z" />
    <glyph glyph-name="breve.acute" unicode="&#xe011;" horiz-adv-x="0" 
d="M367 773h63q-8 -49 -44.5 -83.5t-89.5 -34.5t-79.5 34t-20.5 84h62q-4 -27 8.5 -44t37.5 -17q23 0 41 17t22 44zM449 926l-118 -132h-67l72 145z" />
    <glyph glyph-name="breve.grave" unicode="&#xe012;" horiz-adv-x="0" 
d="M367 773h63q-8 -49 -44.5 -83.5t-89.5 -34.5t-79.5 34t-20.5 84h62q-4 -27 8.5 -44t37.5 -17q23 0 41 17t22 44zM268 775l-72 134l115 17l24 -151h-67z" />
    <glyph glyph-name="breve.hook" unicode="&#xe013;" horiz-adv-x="0" 
d="M368 772h63q-8 -49 -44.5 -83.5t-89.5 -34.5t-79.5 34t-20.5 84h62q-4 -27 8.5 -44t37.5 -17q23 0 41 17t22 44zM272 846l-27 44q21 12 30 14q23 9 52 9q37 0 59 -13t22 -37q-3 -23 -16.5 -36.5t-25 -18.5t-11.5 -7l-5 -15h-59l4 24q4 21 30 34q10 7 10 13t-15 6
q-4 0 -22 -5q-6 -2 -26 -12z" />
    <glyph glyph-name="cir.hook" unicode="&#xe014;" horiz-adv-x="0" 
d="M333 654l-40 62l-59 -62h-76l104 121h77l71 -121h-77zM377 828l-27 59q23 16 30 19q22 12 52 12q37 0 59 -17.5t22 -49.5q-3 -30 -16.5 -48.5t-25 -24.5t-11.5 -9l-5 -21h-59l4 32q4 28 30 47q10 9 10 16q0 8 -15 8q-8 0 -22 -6z" />
    <glyph glyph-name="uniE015" unicode="&#xe015;" horiz-adv-x="279" 
d="M209 497l-72 134l115 17l24 -151h-67z" />
    <glyph glyph-name="uniE016" unicode="&#xe016;" horiz-adv-x="279" 
d="M308 629l-118 -132h-67l72 145z" />
    <glyph glyph-name="uniE017" unicode="&#xe017;" horiz-adv-x="371" 
d="M333 498l-40 62l-59 -62h-76l104 121h77l71 -121h-77z" />
    <glyph glyph-name="uniE018" unicode="&#xe018;" horiz-adv-x="325" 
d="M220 777l40 -62l59 62h76l-94 -109h-92l-66 109h77z" />
    <glyph glyph-name="uniE019" unicode="&#xe019;" horiz-adv-x="485" 
d="M405 499q-33 0 -73 25t-57 25q-29 0 -44 -36l-6 -16l-68 7l9 30q28 90 108 90q32 0 72 -25t58 -25q33 0 45 37l5 15l68 -6l-9 -30q-27 -91 -108 -91z" />
    <glyph glyph-name="uniE01A" unicode="&#xe01a;" horiz-adv-x="485" 
d="M209 497l-72 134l115 17l24 -151h-67z" />
    <glyph glyph-name="uniE01B" unicode="&#xe01b;" horiz-adv-x="395" 
d="M425 577l-102 -158h-65l61 158h106zM262 577l-102 -158h-65l61 158h106z" />
    <glyph glyph-name="uniE01C" unicode="&#xe01c;" horiz-adv-x="396" 
d="M367 616h63q-8 -49 -44.5 -83.5t-89.5 -34.5t-79.5 34t-20.5 84h62q-4 -27 8.5 -44t37.5 -17q23 0 41 17t22 44z" />
    <glyph glyph-name="uniE01D" unicode="&#xe01d;" horiz-adv-x="396" 
d="M367 616h63q-8 -49 -44.5 -83.5t-89.5 -34.5t-79.5 34t-20.5 84h62q-4 -27 8.5 -44t37.5 -17q23 0 41 17t22 44z" />
    <glyph glyph-name="uniE01E" unicode="&#xe01e;" horiz-adv-x="288" 
d="M134 693q0 45 33 72t89 27q45 0 70.5 -21.5t25.5 -55.5q0 -44 -33.5 -72t-87.5 -28q-46 0 -71.5 21t-25.5 57zM294 709q0 34 -45 34q-27 0 -42.5 -11.5t-15.5 -32.5q0 -34 47 -34q56 0 56 44z" />
    <glyph glyph-name="uniE01F" unicode="&#xe01f;" horiz-adv-x="432" 
d="M226 578l-27 59q23 16 30 19q22 12 52 12q37 0 59 -17.5t22 -49.5q-3 -30 -16.5 -48.5t-25 -24.5t-11.5 -9l-5 -21h-59l4 32q4 28 30 47q10 9 10 16q0 8 -15 8q-8 0 -22 -6z" />
    <glyph glyph-name="uniE020" unicode="&#xe020;" horiz-adv-x="584" 
d="M243 550q-26 0 -42 16.5t-16 42.5q0 32 23 54t54 22q26 0 42.5 -17t16.5 -43q0 -32 -22.5 -53.5t-55.5 -21.5zM515 550q-26 0 -42 16.5t-16 42.5q0 32 23 54t54 22q26 0 42.5 -17t16.5 -43q0 -32 -22.5 -53.5t-55.5 -21.5z" />
    </font>
</defs>
</svg>
