<?xml version="1.0" standalone="no"?>
<!DOCTYPE svg PUBLIC "-//W3C//DTD SVG 1.1//EN" "http://www.w3.org/Graphics/SVG/1.1/DTD/svg11.dtd" >
<svg>
<metadata>
Created by FontForge 20090622 at Thu Oct 20 10:13:07 2016
 By deploy user
Copyright (c) 2014 by Daniel Hernandez &#38; Miguel Hernandez. All rights reserved.
</metadata>
<defs>
<font id="iCielTexta-BookItalic" horiz-adv-x="502" >
  <font-face 
    font-family="iCiel Texta Book"
    font-weight="300"
    font-style="italic"
    font-stretch="normal"
    units-per-em="1000"
    panose-1="2 0 0 0 0 0 0 0 0 0"
    ascent="750"
    descent="-250"
    x-height="420"
    cap-height="600"
    bbox="-371 -192 1075 936"
    underline-thickness="50"
    underline-position="-50"
    slope="-8"
    unicode-range="U+001D-U+E020"
  />
<missing-glyph horiz-adv-x="564" 
 />
    <glyph glyph-name=".notdef" horiz-adv-x="564" 
 />
    <glyph glyph-name=".null" horiz-adv-x="0" 
 />
    <glyph glyph-name=".null" horiz-adv-x="0" 
 />
    <glyph glyph-name="nonmarkingreturn" horiz-adv-x="75" 
 />
    <glyph glyph-name="space" unicode=" " horiz-adv-x="229" 
 />
    <glyph glyph-name="acute" unicode="&#xb4;" horiz-adv-x="267" 
d="M177 497h-40l74 144l69 -10z" />
    <glyph glyph-name="Acircumflex" unicode="&#xc2;" horiz-adv-x="589" 
d="M575 0h-59l-41 145h-321l-81 -145h-58l337 600h53zM184 198h277l-92 331zM399 737l-67 -69h-52l98 108h50l71 -108h-54z" />
    <glyph glyph-name="circumflex" unicode="&#x2c6;" horiz-adv-x="356" 
d="M287 568l-67 -69h-52l98 108h50l71 -108h-54z" />
    <glyph glyph-name="Adieresis" unicode="&#xc4;" horiz-adv-x="589" 
d="M575 0h-59l-41 145h-321l-81 -145h-58l337 600h53zM184 198h277l-92 331zM275 706q0 18 15.5 32t32.5 14q15 0 25.5 -11.5t10.5 -26.5q0 -18 -15 -32t-33 -14q-14 0 -25 11.5t-11 26.5zM428 706q0 17 15 31.5t34 14.5q14 0 24.5 -11.5t10.5 -26.5q0 -18 -15 -32t-32 -14
q-16 0 -26.5 11.5t-10.5 26.5z" />
    <glyph glyph-name="dieresis" unicode="&#xa8;" horiz-adv-x="436" 
d="M189 706q0 18 15.5 32t32.5 14q15 0 25.5 -11.5t10.5 -26.5q0 -18 -15 -32t-33 -14q-14 0 -25 11.5t-11 26.5zM342 706q0 17 15 31.5t34 14.5q14 0 24.5 -11.5t10.5 -26.5q0 -18 -15 -32t-32 -14q-16 0 -26.5 11.5t-10.5 26.5z" />
    <glyph glyph-name="Agrave" unicode="&#xc0;" horiz-adv-x="589" 
d="M575 0h-59l-41 145h-321l-81 -145h-58l337 600h53zM184 198h277l-92 331zM297 769l71 10l34 -144h-40z" />
    <glyph glyph-name="grave" unicode="`" horiz-adv-x="269" 
d="M159 631l71 10l34 -144h-40z" />
    <glyph glyph-name="Aring" unicode="&#xc5;" horiz-adv-x="589" 
d="M575 0h-59l-41 145h-321l-81 -145h-58l337 600h53zM184 198h277l-92 331zM294 688q0 42 32.5 67.5t78.5 25.5q38 0 62 -20t24 -53q0 -42 -32.5 -67.5t-77.5 -25.5q-38 0 -62.5 20t-24.5 53zM451 704q0 20 -13.5 30t-37.5 10q-29 0 -47 -13t-18 -39q0 -20 14 -30t38 -10
q29 0 46.5 13.5t17.5 38.5z" />
    <glyph glyph-name="ring" unicode="&#x2da;" horiz-adv-x="286" 
d="M143 688q0 42 32.5 67.5t78.5 25.5q38 0 62 -20t24 -53q0 -42 -32.5 -67.5t-77.5 -25.5q-38 0 -62.5 20t-24.5 53zM300 704q0 20 -13.5 30t-37.5 10q-29 0 -47 -13t-18 -39q0 -20 14 -30t38 -10q29 0 46.5 13.5t17.5 38.5z" />
    <glyph glyph-name="Atilde" unicode="&#xc3;" horiz-adv-x="589" 
d="M575 0h-59l-41 145h-321l-81 -145h-58l337 600h53zM184 198h277l-92 331zM463 668q-22 0 -39.5 9t-33 20t-30 20t-30.5 9q-23 0 -33 -13.5t-18 -30.5l-6 -14l-39 5l8 23q10 29 30.5 52t59.5 23q21 0 38.5 -9t32.5 -20t29.5 -20t31.5 -9q24 0 35 13.5t17 30.5l5 14l40 -4
l-7 -23q-9 -29 -31 -52.5t-60 -23.5z" />
    <glyph glyph-name="tilde" unicode="&#x2dc;" horiz-adv-x="465" 
d="M394 499q-22 0 -39.5 9t-33 20t-30 20t-30.5 9q-23 0 -33 -13.5t-18 -30.5l-6 -14l-39 5l8 23q10 29 30.5 52t59.5 23q21 0 38.5 -9t32.5 -20t29.5 -20t31.5 -9q24 0 35 13.5t17 30.5l5 14l40 -4l-7 -23q-9 -29 -31 -52.5t-60 -23.5z" />
    <glyph glyph-name="B" unicode="B" horiz-adv-x="601" 
d="M579 182q0 -46 -17.5 -80t-48.5 -56.5t-74 -34t-93 -11.5h-261l84 600h247q86 0 134 -35t48 -104q0 -61 -32 -99.5t-84 -55.5v-3q44 -11 70.5 -42t26.5 -79zM181 276l-32 -223h205q34 0 64.5 7.5t53 23.5t35.5 40t13 56q0 47 -37 70.5t-93 25.5h-209zM539 452
q0 51 -35 73t-95 22h-190l-31 -218h190q73 0 117 32.5t44 90.5z" />
    <glyph glyph-name="C" unicode="C" horiz-adv-x="568" 
d="M548 65q-23 -22 -54 -40q-27 -15 -65.5 -27t-89.5 -12q-60 0 -107.5 20.5t-81 57t-51.5 86t-18 107.5q0 74 26.5 139t73 113t110 76t136.5 28q51 0 86 -12.5t58 -26.5q26 -18 43 -39l-38 -44q-16 19 -39 34q-20 13 -49 23.5t-68 10.5q-53 0 -100 -20.5t-83.5 -56t-61 -83
t-31.5 -100.5q-8 -53 3 -100t37.5 -82.5t68 -56t94.5 -20.5q39 0 71 10.5t55 23.5q27 15 49 34z" />
    <glyph glyph-name="AE" unicode="&#xc6;" horiz-adv-x="875" 
d="M496 600h421l-7 -53h-358l-31 -217h308l-7 -53h-308l-32 -224h358l-7 -53h-415l20 145h-253l-119 -145h-69zM229 198h217l43 310h-6z" />
    <glyph glyph-name="Ccedilla" unicode="&#xc7;" horiz-adv-x="568" 
d="M279 -47l22 36q-51 6 -92 28.5t-69.5 58t-43.5 82t-15 99.5q0 74 26.5 139t73 113t110 76t136.5 28q51 0 86 -12.5t58 -26.5q26 -18 43 -39l-38 -44q-16 19 -39 34q-20 13 -49 23.5t-68 10.5q-53 0 -100 -20.5t-83.5 -56t-61 -83t-31.5 -100.5q-8 -53 3 -100t37.5 -82.5
t68 -56t94.5 -20.5q39 0 71 10.5t55 23.5q27 15 49 34l26 -43q-23 -22 -54 -40q-27 -15 -65.5 -27t-89.5 -12h-5l-10 -19q25 -1 41.5 -14t16.5 -40q0 -34 -23.5 -56t-65.5 -22q-18 0 -30.5 4t-20.5 9q-10 6 -15 14l20 24q5 -6 13 -10q7 -4 16 -7t22 -3q23 0 37 11.5t14 30.5
q0 15 -11 23t-30 8q-5 0 -8.5 -0.5t-5.5 -0.5h-5z" />
    <glyph glyph-name="cedilla" unicode="&#xb8;" horiz-adv-x="206" 
d="M59 -47l31 50h34l-20 -36q25 -1 41.5 -14t16.5 -40q0 -34 -23.5 -56t-65.5 -22q-18 0 -30.5 4t-20.5 9q-10 6 -15 14l20 24q5 -6 13 -10q7 -4 16 -7t22 -3q23 0 37 11.5t14 30.5q0 15 -11 23t-30 8q-5 0 -8.5 -0.5t-5.5 -0.5h-5z" />
    <glyph glyph-name="D" unicode="D" horiz-adv-x="629" 
d="M630 343q0 -78 -27.5 -141.5t-75 -108.5t-112 -69t-139.5 -24h-191l84 600h191q61 0 111 -18t85 -51t54.5 -80.5t19.5 -107.5zM219 547l-70 -494h132q59 0 111.5 19.5t92.5 56t63 88.5t23 117q0 50 -16.5 89.5t-45.5 67t-69.5 42t-88.5 14.5h-132z" />
    <glyph glyph-name="Delta" unicode="&#x2206;" horiz-adv-x="612" 
d="M29 13l355 587h12l191 -587l-2 -13h-558zM377 497h-3l-261 -447h399z" />
    <glyph glyph-name="E" unicode="E" horiz-adv-x="542" 
d="M489 277h-308l-32 -224h358l-7 -53h-415l84 600h415l-7 -53h-358l-31 -217h308z" />
    <glyph glyph-name="Eacute" unicode="&#xc9;" horiz-adv-x="542" 
d="M400 635h-40l74 144l69 -10zM489 277h-308l-32 -224h358l-7 -53h-415l84 600h415l-7 -53h-358l-31 -217h308z" />
    <glyph glyph-name="Ecircumflex" unicode="&#xca;" horiz-adv-x="542" 
d="M401 737l-67 -69h-52l98 108h50l71 -108h-54zM489 277h-308l-32 -224h358l-7 -53h-415l84 600h415l-7 -53h-358l-31 -217h308z" />
    <glyph glyph-name="Edieresis" unicode="&#xcb;" horiz-adv-x="542" 
d="M275 706q0 18 15.5 32t32.5 14q15 0 25.5 -11.5t10.5 -26.5q0 -18 -15 -32t-33 -14q-14 0 -25 11.5t-11 26.5zM428 706q0 17 15 31.5t34 14.5q14 0 24.5 -11.5t10.5 -26.5q0 -18 -15 -32t-32 -14q-16 0 -26.5 11.5t-10.5 26.5zM489 277h-308l-32 -224h358l-7 -53h-415
l84 600h415l-7 -53h-358l-31 -217h308z" />
    <glyph glyph-name="Egrave" unicode="&#xc8;" horiz-adv-x="542" 
d="M489 277h-308l-32 -224h358l-7 -53h-415l84 600h415l-7 -53h-358l-31 -217h308zM305 769l71 10l34 -144h-40z" />
    <glyph glyph-name="Eth" unicode="&#xd0;" horiz-adv-x="630" 
d="M72 330h59l38 270h191q61 0 111 -18t85 -51t54.5 -80.5t19.5 -107.5q0 -78 -27.5 -141.5t-75 -108.5t-112 -69t-139.5 -24h-191l39 278h-59zM219 547l-31 -217h187l-7 -52h-187l-32 -225h132q59 0 111.5 19.5t92.5 56t63 88.5t23 117q0 50 -16.5 89.5t-45.5 67t-69.5 42
t-88.5 14.5h-132z" />
    <glyph glyph-name="Euro" unicode="&#x20ac;" horiz-adv-x="575" 
d="M427 208h-214q3 -36 13.5 -66.5t30 -52.5t49 -34.5t69.5 -12.5q32 0 58 9t44 20q21 13 37 30l23 -40q-18 -20 -44 -36q-22 -14 -53.5 -24.5t-73.5 -10.5q-52 0 -90.5 17t-64.5 46.5t-40 69t-17 85.5h-83l6 44h76l2 24t3 25t4.5 26t5.5 26h-77l7 45h84q16 45 41.5 84
t59.5 67.5t77 45t94 16.5q42 0 71 -11t47 -25q21 -16 34 -36l-36 -42q-11 17 -29 30q-15 11 -38.5 20.5t-55.5 9.5q-80 0 -130 -44.5t-76 -114.5h213l-7 -45h-221q-6 -25 -9 -52q-2 -13 -3.5 -25t-1.5 -24h221z" />
    <glyph glyph-name="F" unicode="F" horiz-adv-x="528" 
d="M489 277h-308l-39 -277h-57l84 600h415l-7 -53h-358l-31 -217h308z" />
    <glyph glyph-name="G" unicode="G" horiz-adv-x="640" 
d="M368 324h281l-5 -39q-9 -69 -35 -124t-65.5 -94t-92 -60t-114.5 -21q-61 0 -108.5 20.5t-80 56.5t-49.5 85.5t-17 106.5q0 74 26 139.5t72 114t109.5 76.5t138.5 28q54 0 92 -12.5t62 -27.5q28 -18 46 -40l-39 -43q-16 19 -41 34q-21 13 -52.5 24t-75.5 11
q-63 0 -114 -24.5t-87.5 -65.5t-56.5 -95t-20 -113q0 -46 13 -86t38.5 -70t63 -47.5t87.5 -17.5q46 0 86 15.5t71 44.5t52 69.5t30 90.5l2 11h-224z" />
    <glyph glyph-name="H" unicode="H" horiz-adv-x="641" 
d="M556 0h-57l38 271h-357l-38 -271h-57l84 600h57l-38 -276h357l38 276h57z" />
    <glyph glyph-name="I" unicode="I" horiz-adv-x="228" 
d="M142 0h-57l84 600h57z" />
    <glyph glyph-name="Iacute" unicode="&#xcd;" horiz-adv-x="228" 
d="M142 0h-57l84 600h57zM224 635h-40l74 144l69 -10z" />
    <glyph glyph-name="Icircumflex" unicode="&#xce;" horiz-adv-x="228" 
d="M142 0h-57l84 600h57zM219 737l-67 -69h-52l98 108h50l71 -108h-54z" />
    <glyph glyph-name="Idieresis" unicode="&#xcf;" horiz-adv-x="228" 
d="M142 0h-57l84 600h57zM95 706q0 18 15.5 32t32.5 14q15 0 25.5 -11.5t10.5 -26.5q0 -18 -15 -32t-33 -14q-14 0 -25 11.5t-11 26.5zM248 706q0 17 15 31.5t34 14.5q14 0 24.5 -11.5t10.5 -26.5q0 -18 -15 -32t-32 -14q-16 0 -26.5 11.5t-10.5 26.5z" />
    <glyph glyph-name="Igrave" unicode="&#xcc;" horiz-adv-x="228" 
d="M142 0h-57l84 600h57zM116 769l71 10l34 -144h-40z" />
    <glyph glyph-name="J" unicode="J" horiz-adv-x="424" 
d="M57 76q12 -10 27 -18q13 -7 31.5 -12t42.5 -5q63 0 104 36.5t53 121.5l57 401h57l-58 -411q-14 -103 -70 -153t-145 -50q-33 0 -57.5 7t-41 15.5t-25 15.5t-9.5 8z" />
    <glyph glyph-name="K" unicode="K" horiz-adv-x="560" 
d="M178 256l381 344h64l-1 -11l-262 -236l184 -342l-2 -11h-53l-173 314l-149 -135l-25 -179h-57l84 600h57z" />
    <glyph glyph-name="L" unicode="L" horiz-adv-x="486" 
d="M85 0l84 600h57l-77 -547h320l-7 -53h-377z" />
    <glyph glyph-name="Lslash" unicode="&#x141;" horiz-adv-x="488" 
d="M58 284l72 41l39 275h57l-34 -240l182 104l-6 -44l-182 -103l-37 -264h320l-7 -53h-377l39 282l-72 -41z" />
    <glyph glyph-name="M" unicode="M" horiz-adv-x="723" 
d="M651 497l-247 -272h-20l-173 269l-69 -494h-57l84 600h37l195 -301l278 301h42l-84 -600h-56z" />
    <glyph glyph-name="N" unicode="N" horiz-adv-x="665" 
d="M579 0h-44l-322 503l-71 -503h-57l84 600h46l321 -500l70 500h57z" />
    <glyph glyph-name="A" unicode="A" horiz-adv-x="589" 
d="M575 0h-59l-41 145h-321l-81 -145h-58l337 600h53zM184 198h277l-92 331z" />
    <glyph glyph-name="Ntilde" unicode="&#xd1;" horiz-adv-x="665" 
d="M579 0h-44l-322 503l-71 -503h-57l84 600h46l321 -500l70 500h57zM503 668q-22 0 -39.5 9t-33 20t-30 20t-30.5 9q-23 0 -33 -13.5t-18 -30.5l-6 -14l-39 5l8 23q10 29 30.5 52t59.5 23q21 0 38.5 -9t32.5 -20t29.5 -20t31.5 -9q24 0 35 13.5t17 30.5l5 14l40 -4l-7 -23
q-9 -29 -31 -52.5t-60 -23.5z" />
    <glyph glyph-name="O" unicode="O" horiz-adv-x="678" 
d="M337 -14q-60 0 -107.5 20.5t-80.5 57t-50 85.5t-17 106q0 74 25.5 139.5t71.5 114t108.5 76.5t137.5 28q60 0 107.5 -20.5t80 -56.5t49.5 -85t17 -107q0 -74 -25.5 -139t-70.5 -114t-108 -77t-138 -28zM344 40q61 0 112 24t88 65t57 94.5t20 112.5q0 46 -13.5 86.5
t-39.5 71t-64 48t-87 17.5q-61 0 -111.5 -24t-87 -65t-56.5 -95t-20 -113q0 -46 13 -86.5t38.5 -70.5t63.5 -47.5t87 -17.5z" />
    <glyph glyph-name="OE" unicode="&#x152;" horiz-adv-x="1033" 
d="M335 -14q-60 0 -107.5 20.5t-80.5 57t-50 85.5t-17 106q0 74 25.5 139.5t71.5 114t108.5 76.5t137.5 28q79 0 134.5 -34t86.5 -92l16 113h415l-7 -53h-358l-31 -217h308l-7 -53h-308l-32 -224h358l-7 -53h-415l14 101q-46 -54 -111 -84.5t-144 -30.5zM342 40q61 0 112 24
t88 65t57 94.5t20 112.5q0 46 -13.5 86.5t-39.5 71t-64 48t-87 17.5q-61 0 -111.5 -24t-87 -65t-56.5 -95t-20 -113q0 -46 13 -86.5t38.5 -70.5t63.5 -47.5t87 -17.5z" />
    <glyph glyph-name="Oacute" unicode="&#xd3;" horiz-adv-x="678" 
d="M450 668h-40l74 144l69 -10zM337 -14q-60 0 -107.5 20.5t-80.5 57t-50 85.5t-17 106q0 74 25.5 139.5t71.5 114t108.5 76.5t137.5 28q60 0 107.5 -20.5t80 -56.5t49.5 -85t17 -107q0 -74 -25.5 -139t-70.5 -114t-108 -77t-138 -28zM344 40q61 0 112 24t88 65t57 94.5
t20 112.5q0 46 -13.5 86.5t-39.5 71t-64 48t-87 17.5q-61 0 -111.5 -24t-87 -65t-56.5 -95t-20 -113q0 -46 13 -86.5t38.5 -70.5t63.5 -47.5t87 -17.5z" />
    <glyph glyph-name="Ocircumflex" unicode="&#xd4;" horiz-adv-x="678" 
d="M444 737l-67 -69h-52l98 108h50l71 -108h-54zM337 -14q-60 0 -107.5 20.5t-80.5 57t-50 85.5t-17 106q0 74 25.5 139.5t71.5 114t108.5 76.5t137.5 28q60 0 107.5 -20.5t80 -56.5t49.5 -85t17 -107q0 -74 -25.5 -139t-70.5 -114t-108 -77t-138 -28zM344 40q61 0 112 24
t88 65t57 94.5t20 112.5q0 46 -13.5 86.5t-39.5 71t-64 48t-87 17.5q-61 0 -111.5 -24t-87 -65t-56.5 -95t-20 -113q0 -46 13 -86.5t38.5 -70.5t63.5 -47.5t87 -17.5z" />
    <glyph glyph-name="Odieresis" unicode="&#xd6;" horiz-adv-x="678" 
d="M319 706q0 18 15.5 32t32.5 14q15 0 25.5 -11.5t10.5 -26.5q0 -18 -15 -32t-33 -14q-14 0 -25 11.5t-11 26.5zM472 706q0 17 15 31.5t34 14.5q14 0 24.5 -11.5t10.5 -26.5q0 -18 -15 -32t-32 -14q-16 0 -26.5 11.5t-10.5 26.5zM337 -14q-60 0 -107.5 20.5t-80.5 57
t-50 85.5t-17 106q0 74 25.5 139.5t71.5 114t108.5 76.5t137.5 28q60 0 107.5 -20.5t80 -56.5t49.5 -85t17 -107q0 -74 -25.5 -139t-70.5 -114t-108 -77t-138 -28zM344 40q61 0 112 24t88 65t57 94.5t20 112.5q0 46 -13.5 86.5t-39.5 71t-64 48t-87 17.5q-61 0 -111.5 -24
t-87 -65t-56.5 -95t-20 -113q0 -46 13 -86.5t38.5 -70.5t63.5 -47.5t87 -17.5z" />
    <glyph glyph-name="Ograve" unicode="&#xd2;" horiz-adv-x="678" 
d="M337 -14q-60 0 -107.5 20.5t-80.5 57t-50 85.5t-17 106q0 74 25.5 139.5t71.5 114t108.5 76.5t137.5 28q60 0 107.5 -20.5t80 -56.5t49.5 -85t17 -107q0 -74 -25.5 -139t-70.5 -114t-108 -77t-138 -28zM344 40q61 0 112 24t88 65t57 94.5t20 112.5q0 46 -13.5 86.5
t-39.5 71t-64 48t-87 17.5q-61 0 -111.5 -24t-87 -65t-56.5 -95t-20 -113q0 -46 13 -86.5t38.5 -70.5t63.5 -47.5t87 -17.5zM350 802l71 10l34 -144h-40z" />
    <glyph glyph-name="Omega" unicode="&#x2126;" horiz-adv-x="711" 
d="M60 50h150q-28 15 -49.5 39t-36 53t-22 62t-7.5 67q0 64 24 125.5t68.5 109.5t109 77.5t145.5 29.5q66 0 115 -21.5t81.5 -58t49 -85t16.5 -101.5q0 -47 -13.5 -91.5t-38 -83.5t-59.5 -70.5t-77 -51.5h150l-7 -50h-268l7 51q49 2 94 26.5t79 64.5t54 90.5t20 104.5
q0 45 -13.5 85.5t-39.5 70.5t-65.5 48t-91.5 18q-65 0 -117.5 -24.5t-89.5 -65t-57 -92t-20 -106.5q0 -42 12.5 -81t36 -69t56 -49t73.5 -21l-7 -51h-269z" />
    <glyph glyph-name="Oslash" unicode="&#xd8;" horiz-adv-x="681" 
d="M337 -14q-60 0 -107.5 20.5t-79.5 55.5l-69 -62h-66l108 98q-41 67 -41 157q0 74 25.5 139.5t71.5 114t108.5 76.5t137.5 28q60 0 106.5 -20t79.5 -55l69 62h65l-108 -98q42 -68 42 -158q0 -74 -25.5 -139t-70.5 -114t-108 -77t-138 -28zM344 40q61 0 112 24t88 65
t57 94.5t20 112.5q0 35 -8 66.5t-22 57.5l-396 -357q26 -29 63 -46t86 -17zM142 262q0 -68 28 -122l395 356q-26 29 -63 46t-85 17q-61 0 -111.5 -24t-87 -65t-56.5 -95t-20 -113z" />
    <glyph glyph-name="Otilde" unicode="&#xd5;" horiz-adv-x="678" 
d="M337 -14q-60 0 -107.5 20.5t-80.5 57t-50 85.5t-17 106q0 74 25.5 139.5t71.5 114t108.5 76.5t137.5 28q60 0 107.5 -20.5t80 -56.5t49.5 -85t17 -107q0 -74 -25.5 -139t-70.5 -114t-108 -77t-138 -28zM344 40q61 0 112 24t88 65t57 94.5t20 112.5q0 46 -13.5 86.5
t-39.5 71t-64 48t-87 17.5q-61 0 -111.5 -24t-87 -65t-56.5 -95t-20 -113q0 -46 13 -86.5t38.5 -70.5t63.5 -47.5t87 -17.5zM506 675q-22 0 -39.5 9t-33 20t-30 20t-30.5 9q-23 0 -33 -13.5t-18 -30.5l-6 -14l-39 5l8 23q10 29 30.5 52t59.5 23q21 0 38.5 -9t32.5 -20
t29.5 -20t31.5 -9q24 0 35 13.5t17 30.5l5 14l40 -4l-7 -23q-9 -29 -31 -52.5t-60 -23.5z" />
    <glyph glyph-name="P" unicode="P" horiz-adv-x="574" 
d="M169 600h230q97 0 149 -45t52 -125q0 -54 -18.5 -97.5t-52.5 -74t-82 -46.5t-107 -16h-170l-28 -196h-57zM542 421q0 62 -41 94t-110 32h-172l-42 -298h172q43 0 78.5 11t61 32.5t39.5 54t14 74.5z" />
    <glyph glyph-name="Q" unicode="Q" horiz-adv-x="678" 
d="M337 -14q-60 0 -107.5 20.5t-80.5 57t-50 85.5t-17 106q0 74 25.5 139.5t71.5 114t108.5 76.5t137.5 28q60 0 107.5 -20.5t80 -56.5t49.5 -85t17 -107q0 -56 -15 -107t-42.5 -94t-67 -76.5t-87.5 -54.5l65 -134h-65l-56 116q-18 -4 -36 -6t-38 -2zM344 40q61 0 112 24
t88 65t57 94.5t20 112.5q0 46 -13.5 86.5t-39.5 71t-64 48t-87 17.5q-61 0 -111.5 -24t-87 -65t-56.5 -95t-20 -113q0 -46 13 -86.5t38.5 -70.5t63.5 -47.5t87 -17.5z" />
    <glyph glyph-name="R" unicode="R" horiz-adv-x="595" 
d="M398 600q97 0 149.5 -44t52.5 -125q0 -88 -48 -142.5t-124 -74.5v-2l126 -198l-2 -14h-55l-131 204h-195l-29 -204h-57l84 600h229zM541 422q0 63 -40.5 94t-109.5 31h-172l-41 -290h181q38 0 71.5 10.5t58 31t38.5 51.5t14 72z" />
    <glyph glyph-name="S" unicode="S" horiz-adv-x="507" 
d="M89 99q16 -17 41 -30q21 -11 52 -20t74 -9q92 0 134 35.5t42 90.5q0 43 -35.5 67.5t-111.5 48.5q-84 26 -130.5 59.5t-46.5 93.5q0 41 17 74t47.5 56t73.5 35.5t95 12.5t88 -9t58 -20q26 -12 41 -28l-37 -48q-15 14 -37 25q-20 10 -49 18t-71 8q-35 0 -65 -7.5t-53 -22
t-36 -36t-13 -49.5q0 -39 36.5 -62t112.5 -46q90 -28 132.5 -64.5t42.5 -96.5q0 -40 -15 -74.5t-45.5 -60t-76 -40t-105.5 -14.5q-53 0 -90 10.5t-61 23.5q-28 15 -46 35z" />
    <glyph glyph-name="Scaron" unicode="&#x160;" horiz-adv-x="507" 
d="M349 707l67 70h53l-99 -109h-50l-70 109h53zM89 99q16 -17 41 -30q21 -11 52 -20t74 -9q92 0 134 35.5t42 90.5q0 43 -35.5 67.5t-111.5 48.5q-84 26 -130.5 59.5t-46.5 93.5q0 41 17 74t47.5 56t73.5 35.5t95 12.5t88 -9t58 -20q26 -12 41 -28l-37 -48q-15 14 -37 25
q-20 10 -49 18t-71 8q-35 0 -65 -7.5t-53 -22t-36 -36t-13 -49.5q0 -39 36.5 -62t112.5 -46q90 -28 132.5 -64.5t42.5 -96.5q0 -40 -15 -74.5t-45.5 -60t-76 -40t-105.5 -14.5q-53 0 -90 10.5t-61 23.5q-28 15 -46 35z" />
    <glyph glyph-name="caron" unicode="&#x2c7;" horiz-adv-x="325" 
d="M259 707l67 70h53l-99 -109h-50l-70 109h53z" />
    <glyph glyph-name="T" unicode="T" horiz-adv-x="513" 
d="M109 600h463l-7 -53h-203l-77 -547h-57l77 547h-203z" />
    <glyph glyph-name="Thorn" unicode="&#xde;" horiz-adv-x="572" 
d="M212 501h173q97 0 149 -45t52 -125q0 -55 -18.5 -98.5t-53 -73.5t-82.5 -46t-106 -16h-170l-14 -97h-57l84 600h57zM527 322q0 61 -40 93t-110 32h-172l-42 -297h172q43 0 78.5 11t60.5 32.5t39 53.5t14 75z" />
    <glyph glyph-name="U" unicode="U" horiz-adv-x="628" 
d="M312 -14q-56 0 -97.5 19t-67 53.5t-34.5 83.5t-1 108l49 350h57l-49 -350q-6 -46 -0.5 -84.5t24.5 -66.5t50.5 -43.5t76.5 -15.5t81 15.5t62.5 43.5t43 66.5t22.5 84.5l49 350h57l-49 -350q-8 -59 -30.5 -108t-57.5 -83.5t-82 -53.5t-104 -19z" />
    <glyph glyph-name="Uacute" unicode="&#xda;" horiz-adv-x="628" 
d="M420 635h-40l74 144l69 -10zM312 -14q-56 0 -97.5 19t-67 53.5t-34.5 83.5t-1 108l49 350h57l-49 -350q-6 -46 -0.5 -84.5t24.5 -66.5t50.5 -43.5t76.5 -15.5t81 15.5t62.5 43.5t43 66.5t22.5 84.5l49 350h57l-49 -350q-8 -59 -30.5 -108t-57.5 -83.5t-82 -53.5t-104 -19
z" />
    <glyph glyph-name="Ucircumflex" unicode="&#xdb;" horiz-adv-x="628" 
d="M414 703l-67 -69h-52l98 108h50l71 -108h-54zM312 -14q-56 0 -97.5 19t-67 53.5t-34.5 83.5t-1 108l49 350h57l-49 -350q-6 -46 -0.5 -84.5t24.5 -66.5t50.5 -43.5t76.5 -15.5t81 15.5t62.5 43.5t43 66.5t22.5 84.5l49 350h57l-49 -350q-8 -59 -30.5 -108t-57.5 -83.5
t-82 -53.5t-104 -19z" />
    <glyph glyph-name="Udieresis" unicode="&#xdc;" horiz-adv-x="628" 
d="M296 706q0 18 15.5 32t32.5 14q15 0 25.5 -11.5t10.5 -26.5q0 -18 -15 -32t-33 -14q-14 0 -25 11.5t-11 26.5zM449 706q0 17 15 31.5t34 14.5q14 0 24.5 -11.5t10.5 -26.5q0 -18 -15 -32t-32 -14q-16 0 -26.5 11.5t-10.5 26.5zM312 -14q-56 0 -97.5 19t-67 53.5
t-34.5 83.5t-1 108l49 350h57l-49 -350q-6 -46 -0.5 -84.5t24.5 -66.5t50.5 -43.5t76.5 -15.5t81 15.5t62.5 43.5t43 66.5t22.5 84.5l49 350h57l-49 -350q-8 -59 -30.5 -108t-57.5 -83.5t-82 -53.5t-104 -19z" />
    <glyph glyph-name="Ugrave" unicode="&#xd9;" horiz-adv-x="628" 
d="M312 -14q-56 0 -97.5 19t-67 53.5t-34.5 83.5t-1 108l49 350h57l-49 -350q-6 -46 -0.5 -84.5t24.5 -66.5t50.5 -43.5t76.5 -15.5t81 15.5t62.5 43.5t43 66.5t22.5 84.5l49 350h57l-49 -350q-8 -59 -30.5 -108t-57.5 -83.5t-82 -53.5t-104 -19zM318 769l71 10l34 -144h-40
z" />
    <glyph glyph-name="V" unicode="V" horiz-adv-x="589" 
d="M99 600h58l147 -529l296 529h59l-338 -600h-53z" />
    <glyph glyph-name="W" unicode="W" horiz-adv-x="796" 
d="M469 511l-212 -511h-46l-107 600h59l79 -511l212 511h56l68 -511l224 511h58l-274 -600h-46z" />
    <glyph glyph-name="X" unicode="X" horiz-adv-x="519" 
d="M343 308l161 -308h-68l-122 234l-17 39l-28 -39l-186 -234h-67l245 308l-153 292h68l118 -225l14 -34l24 34l180 225h67z" />
    <glyph glyph-name="Y" unicode="Y" horiz-adv-x="533" 
d="M536 600h66l-275 -369l-32 -231h-57l32 231l-171 369h67l127 -282l12 -36h3l23 36z" />
    <glyph glyph-name="Yacute" unicode="&#xdd;" horiz-adv-x="533" 
d="M536 600h66l-275 -369l-32 -231h-57l32 231l-171 369h67l127 -282l12 -36h3l23 36zM379 659h-40l74 144l69 -10z" />
    <glyph glyph-name="Ydieresis" unicode="&#x178;" horiz-adv-x="533" 
d="M536 600h66l-275 -369l-32 -231h-57l32 231l-171 369h67l127 -282l12 -36h3l23 36zM249 706q0 18 15.5 32t32.5 14q15 0 25.5 -11.5t10.5 -26.5q0 -18 -15 -32t-33 -14q-14 0 -25 11.5t-11 26.5zM402 706q0 17 15 31.5t34 14.5q14 0 24.5 -11.5t10.5 -26.5q0 -18 -15 -32
t-32 -14q-16 0 -26.5 11.5t-10.5 26.5z" />
    <glyph glyph-name="Z" unicode="Z" horiz-adv-x="518" 
d="M36 39l451 508h-370l7 53h447l-5 -39l-447 -508h366l-7 -53h-447z" />
    <glyph glyph-name="Zcaron" unicode="&#x17d;" horiz-adv-x="518" 
d="M353 707l67 70h53l-99 -109h-50l-70 109h53zM36 39l451 508h-370l7 53h447l-5 -39l-447 -508h366l-7 -53h-447z" />
    <glyph glyph-name="ae" unicode="&#xe6;" horiz-adv-x="762" 
d="M709 37q-16 -13 -39 -24q-20 -9 -48.5 -16.5t-66.5 -7.5q-61 0 -104 25t-63 70q-29 -42 -77 -68t-113 -26q-78 0 -113.5 34.5t-35.5 82.5q0 32 13 60t39.5 48.5t65 32t89.5 11.5q44 0 73.5 -6.5t47.5 -14.5l3 18q20 124 -112 124q-26 0 -49.5 -5.5t-40.5 -11.5
q-21 -8 -38 -17l-16 46q20 10 45 19q21 7 49 13t62 6q66 0 101.5 -23t48.5 -62q30 40 74 62.5t96 22.5q46 0 78.5 -16t52 -43.5t26 -65.5t0.5 -82l-2 -14h-324l-1 -1q-6 -41 2 -73t26.5 -53.5t45.5 -32.5t60 -11q29 0 53 6t41 14q19 9 35 21zM206 36q33 0 61 10.5t49 27
t34 38t16 43.5l5 37q-14 7 -42.5 15.5t-73.5 8.5q-41 0 -69.5 -8t-46 -22t-25.5 -33t-8 -41q0 -32 23.5 -54t76.5 -22zM593 382q-54 0 -94 -31.5t-59 -95.5h264q2 60 -25.5 93.5t-85.5 33.5z" />
    <glyph glyph-name="ampersand" unicode="&#x26;" horiz-adv-x="582" 
d="M568 272q-14 -45 -34.5 -87.5t-49.5 -78.5l91 -106h-82l-51 61q-38 -33 -84.5 -52.5t-102.5 -19.5q-45 0 -79.5 11t-58.5 30.5t-36 46t-12 56.5q0 37 13 65.5t34.5 50.5t50 39t58.5 32l-10 12q-47 58 -47 120q0 34 13 63t36 51t54.5 34.5t68.5 12.5q63 0 98.5 -33.5
t35.5 -86.5q0 -37 -13.5 -64.5t-36 -49t-51.5 -38.5t-60 -33l139 -163q43 60 64 140zM260 38q43 0 81 15.5t69 44.5l-152 183q-26 -13 -48.5 -27t-40 -30.5t-27.5 -37t-10 -46.5q0 -23 10 -42t27 -32.5t40.5 -20.5t50.5 -7zM226 456q0 -27 11 -48.5t33 -47.5l11 -13
q27 13 51.5 26.5t43 29.5t29.5 36t11 46q0 37 -22 58.5t-60 21.5q-45 0 -76.5 -29t-31.5 -80z" />
    <glyph glyph-name="approxequal" unicode="&#x2248;" horiz-adv-x="439" 
d="M316 180q-21 0 -38 7.5t-31.5 17t-28 17t-27.5 7.5q-21 0 -31 -11.5t-16 -25.5l-5 -12l-46 4l8 25q10 27 31 48t60 21q20 0 36.5 -8t31 -17l28 -17t28.5 -8q21 0 31 11.5t15 25.5l5 13l47 -4l-8 -26q-9 -27 -30.5 -47.5t-59.5 -20.5zM343 368q-21 0 -38 8t-31.5 17
l-28 17t-27.5 8q-21 0 -31 -11.5t-16 -25.5l-5 -13l-47 4l8 26q9 28 31 48t61 20q20 0 36.5 -7.5t31 -17t28 -17t28.5 -7.5q21 0 30.5 11.5t15.5 25.5l5 12l46 -4l-8 -25q-9 -27 -30 -48t-59 -21z" />
    <glyph glyph-name="asciicircum" unicode="^" horiz-adv-x="423" 
d="M302 643l-129 -146h-50l165 189h40l112 -189h-52z" />
    <glyph glyph-name="asciitilde" unicode="~" horiz-adv-x="469" 
d="M350 307q18 0 33 3t26 8q13 5 24 12l15 -34q-12 -10 -28 -18q-14 -7 -33.5 -12t-42.5 -5q-21 0 -37 5t-31.5 10.5t-32.5 10.5t-39 5q-18 0 -33 -3.5t-26 -8.5q-13 -5 -24 -11l-14 34q12 9 28 17q14 7 33 12.5t42 5.5q21 0 37 -5t31.5 -10.5t32.5 -10.5t39 -5z" />
    <glyph glyph-name="asterisk" unicode="*" horiz-adv-x="391" 
d="M255 541l-128 25l27 55l110 -64l2 136h56l-40 -137l131 65l11 -55l-138 -25l80 -101l-51 -33l-45 122l-80 -122l-41 33z" />
    <glyph glyph-name="at" unicode="@" horiz-adv-x="1004" 
d="M759 51q-58 0 -85 30.5t-28 73.5h-3q-15 -19 -33.5 -36.5t-41.5 -31t-52 -21.5t-63 -8q-68 0 -108.5 43t-40.5 115q0 62 22.5 113.5t59.5 88.5t84 57.5t96 20.5q30 0 53 -7t39.5 -19t27 -27.5t16.5 -31.5l30 76h40l-67 -254q-2 -9 -5 -27t-3 -32q0 -35 18.5 -55.5
t53.5 -20.5q36 0 69 19t58 53.5t40 82.5t15 105q0 63 -22 123.5t-65.5 108t-107.5 76t-148 28.5q-102 0 -190 -38.5t-153.5 -102.5t-103 -148t-37.5 -175q0 -77 26.5 -144t74.5 -117.5t115 -79.5t147 -29q48 0 88.5 8.5t69.5 19.5q34 12 62 29l15 -42q-28 -18 -65 -31
q-32 -11 -76 -20.5t-100 -9.5q-95 0 -170 33t-127.5 89.5t-80.5 130.5t-28 156q0 102 41 196t113.5 165.5t171.5 114.5t214 43q88 0 160 -29.5t123.5 -81t79.5 -120t28 -146.5q0 -66 -19 -123t-52.5 -99.5t-78.5 -67t-97 -24.5zM468 107q40 0 77 19t65.5 51t45.5 73t17 86
q0 51 -29.5 81.5t-80.5 30.5q-38 0 -73.5 -16.5t-64 -45.5t-45.5 -69.5t-17 -89.5q0 -57 27 -88.5t78 -31.5z" />
    <glyph glyph-name="b" unicode="b" horiz-adv-x="524" 
d="M155 605h56l-36 -252h3q15 21 39 38q20 14 52 26.5t77 12.5q37 0 67.5 -13.5t53 -38.5t35 -59.5t12.5 -76.5q0 -56 -19 -102.5t-50.5 -79.5t-73 -51.5t-87.5 -18.5q-48 0 -77.5 13.5t-46.5 30.5q-19 19 -27 44h-2l-20 -78h-41zM149 184q0 -35 10.5 -62t28.5 -45.5
t42 -28.5t51 -10q35 0 67 15t56 41.5t38.5 62.5t14.5 79q0 66 -35 106t-92 40q-35 0 -67.5 -14.5t-57.5 -41t-40.5 -63t-15.5 -79.5z" />
    <glyph glyph-name="backslash" unicode="\" horiz-adv-x="345" 
d="M147 798h58l87 -926h-57z" />
    <glyph glyph-name="bar" unicode="|" horiz-adv-x="185" 
d="M101 -128h-53l115 815h53z" />
    <glyph glyph-name="braceleft" unicode="{" horiz-adv-x="254" 
d="M84 313q30 0 51.5 24t28.5 71l27 193q8 51 36 80t82 34l2 -48q-14 -2 -24.5 -6.5t-18 -13t-12 -22t-7.5 -32.5l-27 -188q-6 -45 -24.5 -74.5t-48.5 -39.5l-1 -8q27 -11 37 -40.5t4 -72.5l-27 -192q-5 -38 5 -53.5t37 -18.5l-16 -48q-53 5 -73.5 33.5t-12.5 79.5l28 196
q7 46 -8 70.5t-45 24.5h-21l7 51h21z" />
    <glyph glyph-name="braceright" unicode="}" horiz-adv-x="254" 
d="M279 313l-7 -51h-21q-29 0 -50.5 -24.5t-28.5 -70.5l-28 -196q-8 -51 -36 -79.5t-82 -33.5l-2 48q29 3 43 18.5t19 53.5l27 192q6 43 24.5 72.5t48.5 40.5l1 8q-27 10 -37 39.5t-4 74.5l27 188q5 39 -5 54t-37 20l16 48q53 -5 73.5 -34t12.5 -80l-28 -193q-7 -47 8.5 -71
t44.5 -24h21z" />
    <glyph glyph-name="bracketleft" unicode="[" horiz-adv-x="304" 
d="M165 700h222l-7 -48h-167l-103 -734h167l-7 -48h-222z" />
    <glyph glyph-name="bracketright" unicode="]" horiz-adv-x="304" 
d="M5 -82h167l103 734h-167l7 48h222l-117 -830h-222z" />
    <glyph glyph-name="breve" unicode="&#x2d8;" horiz-adv-x="383" 
d="M409 614q-4 -25 -15 -46.5t-28 -36.5t-37.5 -23.5t-41.5 -8.5q-22 0 -40.5 8.5t-30.5 23.5t-17.5 36.5t-2.5 46.5h37q-4 -33 12 -55.5t47 -22.5q30 0 52.5 22t27.5 56h37z" />
    <glyph glyph-name="brokenbar" unicode="&#xa6;" horiz-adv-x="192" 
d="M116 330l48 343h52l-48 -343h-52zM48 -153l48 343h52l-48 -343h-52z" />
    <glyph glyph-name="bullet" unicode="&#x2022;" horiz-adv-x="303" 
d="M193 290q26 0 42 -17t16 -42q0 -31 -23.5 -53t-53.5 -22q-26 0 -42.5 17t-16.5 42q0 31 23.5 53t54.5 22z" />
    <glyph glyph-name="c" unicode="c" horiz-adv-x="415" 
d="M247 -10q-41 0 -74 13t-56 37.5t-36 59t-13 76.5q0 56 19 102.5t51.5 80.5t76.5 52.5t94 18.5q34 0 57 -6t38 -13q17 -8 28 -18l-24 -43q-11 9 -27 16q-14 6 -33 11t-43 5q-35 0 -67 -14t-57.5 -40t-40.5 -63t-15 -84q0 -35 10 -61.5t28 -44.5t42 -27.5t52 -9.5
q24 0 44.5 5t35.5 11q18 7 31 16l10 -43q-14 -11 -32 -19q-17 -7 -41 -12.5t-58 -5.5z" />
    <glyph glyph-name="ccedilla" unicode="&#xe7;" horiz-adv-x="415" 
d="M202 -54l27 45q-74 5 -117.5 54.5t-43.5 130.5q0 56 19 102.5t51.5 80.5t76.5 52.5t94 18.5q34 0 57 -6t38 -13q17 -8 28 -18l-24 -43q-11 9 -27 16q-14 6 -33 11t-43 5q-35 0 -67 -14t-57.5 -40t-40.5 -63t-15 -84q0 -35 10 -61.5t28 -44.5t42 -27.5t52 -9.5
q24 0 44.5 5t35.5 11q18 7 31 16l10 -43q-11 -10 -28 -17q-14 -7 -35.5 -12t-50.5 -7l-17 -31q25 -1 41.5 -14t16.5 -40q0 -34 -23.5 -56t-65.5 -22q-18 0 -30.5 4t-20.5 9q-10 6 -15 14l20 24q5 -6 13 -10q7 -4 16 -7t22 -3q23 0 37 11.5t14 30.5q0 15 -11 23t-30 8
q-5 0 -8.5 -0.5t-5.5 -0.5h-5z" />
    <glyph glyph-name="cent" unicode="&#xa2;" horiz-adv-x="430" 
d="M203 86q-55 17 -87 63.5t-32 114.5q0 55 18.5 101t51 79.5t75.5 53t92 20.5l23 82h42l-23 -85q22 -3 38.5 -9t27.5 -12q13 -7 22 -14l-23 -42q-10 7 -21 13q-11 5 -25 10t-33 7l-93 -342q5 -1 10 -1h10q25 0 45.5 5t35.5 11q18 7 31 17l10 -43q-15 -11 -35 -19
q-17 -7 -41.5 -12.5t-55.5 -5.5h-11.5t-11.5 1l-21 -79h-42zM142 271q0 -50 20.5 -85t54.5 -50l91 333q-32 -3 -62 -18.5t-53 -41.5t-37 -61t-14 -77z" />
    <glyph glyph-name="colon" unicode=":" horiz-adv-x="205" 
d="M96 0q-14 2 -20.5 14t-1.5 26t18 22t27 6q15 -3 21 -15.5t1 -26.5t-18 -21.5t-27 -4.5zM145 350q-14 3 -20.5 15t-1.5 26t18 22t27 5t20.5 -15t1.5 -26t-18 -22t-27 -5z" />
    <glyph glyph-name="comma" unicode="," horiz-adv-x="199" 
d="M5 -83q35 8 58.5 28.5t28.5 45.5q-14 2 -22 11.5t-8 23.5q0 19 14 33t33 14q17 0 27 -12.5t9 -29.5v-4l-1 -5q-10 -54 -44 -91t-90 -48l-5 34v0z" />
    <glyph glyph-name="copyright" unicode="&#xa9;" horiz-adv-x="692" 
d="M432 604q63 0 111.5 -20.5t81.5 -56.5t50 -84t17 -103q0 -69 -25 -131.5t-70.5 -110t-109 -75.5t-140.5 -28q-63 0 -111.5 20.5t-82 56.5t-50.5 84t-17 103q0 69 25 131.5t71 110t109.5 75.5t140.5 28zM427 568q-67 0 -122.5 -24.5t-95.5 -66.5t-62 -97.5t-22 -116.5
q0 -48 15 -90.5t44 -74t71 -49.5t97 -18q67 0 123 24.5t96 66.5t62 97t22 116q0 49 -15 91.5t-44 74t-71.5 49.5t-97.5 18zM489 393q-8 8 -19 15q-10 5 -23.5 10t-33.5 5q-30 0 -55 -11t-43 -30.5t-28 -45t-10 -53.5q0 -45 26 -75t75 -30q19 0 35 4.5t27 10.5q13 6 24 15
l16 -32q-11 -11 -27 -19q-14 -7 -34.5 -12.5t-46.5 -5.5q-33 0 -59 10.5t-43 29t-26 44t-9 54.5q0 37 13 71t36.5 59t57 40t75.5 15q26 0 45 -6t31 -13q14 -8 22 -18z" />
    <glyph glyph-name="d" unicode="d" horiz-adv-x="525" 
d="M447 349l36 256h56l-85 -605h-39l3 79h-3q-16 -26 -41 -45q-21 -17 -54.5 -30.5t-80.5 -13.5q-37 0 -68.5 13.5t-54 38t-35 59.5t-12.5 77q0 55 19 101.5t51 80t73.5 52t87.5 18.5q45 0 73.5 -13t44.5 -28q18 -18 27 -40h2zM434 237q0 69 -37.5 107t-93.5 38
q-35 0 -67 -14.5t-56 -41t-38.5 -62.5t-14.5 -79q0 -66 35.5 -106.5t92.5 -40.5q34 0 66.5 15t57.5 41.5t40 63t15 79.5z" />
    <glyph glyph-name="dagger" unicode="&#x2020;" horiz-adv-x="389" 
d="M103 488h137l20 147h48l-20 -147h136l-7 -48h-136l-44 -273h-36l32 273h-137z" />
    <glyph glyph-name="daggerdbl" unicode="&#x2021;" horiz-adv-x="422" 
d="M124 514h136l21 154h49l-21 -154h136l-7 -48h-137l-24 -128l-12 -129h137l-7 -48h-136l-23 -161h-49l23 161h-136l7 48h136l23 129l13 128h-136z" />
    <glyph glyph-name="degree" unicode="&#xb0;" horiz-adv-x="305" 
d="M246 672q46 0 72 -27.5t26 -67.5q0 -25 -9.5 -46.5t-26.5 -37.5t-40.5 -25.5t-51.5 -9.5q-45 0 -71 26.5t-26 66.5q0 25 9.5 47t26.5 38.5t40.5 26t50.5 9.5zM242 638q-38 0 -62 -24.5t-24 -58.5q0 -26 17 -44.5t48 -18.5q38 0 62 24t24 58q0 27 -17 45.5t-48 18.5z" />
    <glyph glyph-name="divide" unicode="&#xf7;" horiz-adv-x="489" 
d="M222 149q0 20 15.5 35t35.5 15q16 0 26.5 -11.5t10.5 -28.5q0 -20 -15.5 -34t-34.5 -14q-17 0 -27.5 11t-10.5 27zM262 437q0 20 15.5 34.5t35.5 14.5q16 0 26.5 -11t10.5 -28q0 -20 -15 -34t-34 -14q-17 0 -28 11t-11 27zM107 319h365l-7 -47h-365z" />
    <glyph glyph-name="dollar" unicode="$" horiz-adv-x="506" 
d="M89 99q15 -15 36 -27q18 -11 45.5 -20.5t64.5 -11.5l35 246q-78 26 -120 58.5t-42 90.5q0 77 57 124t151 53l15 104h48l-15 -104q45 -2 76 -11t51 -19q23 -11 37 -26l-37 -48q-13 11 -32 22q-17 9 -42.5 17t-60.5 11l-32 -225q85 -27 126 -63t41 -95q0 -38 -13.5 -70.5
t-40.5 -57.5t-67 -41t-94 -19l-13 -94h-48l13 94q-48 2 -81 13t-54 23q-25 14 -41 32zM432 166q0 38 -28 61.5t-88 44.5l-33 -231q78 5 113.5 39.5t35.5 85.5zM167 444q0 -34 27.5 -55t84.5 -41l29 210q-60 -5 -100.5 -34t-40.5 -80z" />
    <glyph glyph-name="dotaccent" unicode="&#x2d9;" horiz-adv-x="330" 
d="M243 550q-20 0 -33 13t-13 33q0 25 18 42t43 17q20 0 33 -13t13 -33q0 -25 -18.5 -42t-42.5 -17z" />
    <glyph glyph-name="dotlessi" unicode="&#x131;" horiz-adv-x="200" 
d="M131 420h56l-59 -420h-56z" />
    <glyph glyph-name="e" unicode="e" horiz-adv-x="458" 
d="M404 37q-17 -13 -40 -24q-20 -9 -48.5 -16.5t-66.5 -7.5q-85 0 -133 51t-48 135q0 55 17.5 102t48 81t72.5 53t91 19q45 0 77 -16t51.5 -43.5t26 -65.5t0.5 -82l-2 -14h-322v-1q-6 -41 1.5 -73t25.5 -53.5t44.5 -32.5t59.5 -11q30 0 53.5 6t40.5 14q19 9 35 20zM290 382
q-54 0 -93.5 -31.5t-58.5 -95.5h261q2 60 -25 93.5t-84 33.5z" />
    <glyph glyph-name="eacute" unicode="&#xe9;" horiz-adv-x="458" 
d="M323 497h-40l74 144l69 -10zM404 37q-17 -13 -40 -24q-20 -9 -48.5 -16.5t-66.5 -7.5q-85 0 -133 51t-48 135q0 55 17.5 102t48 81t72.5 53t91 19q45 0 77 -16t51.5 -43.5t26 -65.5t0.5 -82l-2 -14h-322v-1q-6 -41 1.5 -73t25.5 -53.5t44.5 -32.5t59.5 -11q30 0 53.5 6
t40.5 14q19 9 35 20zM290 382q-54 0 -93.5 -31.5t-58.5 -95.5h261q2 60 -25 93.5t-84 33.5z" />
    <glyph glyph-name="ecircumflex" unicode="&#xea;" horiz-adv-x="458" 
d="M314 565l-67 -69h-52l98 108h50l71 -108h-54zM404 37q-17 -13 -40 -24q-20 -9 -48.5 -16.5t-66.5 -7.5q-85 0 -133 51t-48 135q0 55 17.5 102t48 81t72.5 53t91 19q45 0 77 -16t51.5 -43.5t26 -65.5t0.5 -82l-2 -14h-322v-1q-6 -41 1.5 -73t25.5 -53.5t44.5 -32.5
t59.5 -11q30 0 53.5 6t40.5 14q19 9 35 20zM290 382q-54 0 -93.5 -31.5t-58.5 -95.5h261q2 60 -25 93.5t-84 33.5z" />
    <glyph glyph-name="edieresis" unicode="&#xeb;" horiz-adv-x="458" 
d="M192 535q0 18 15.5 32t32.5 14q15 0 25.5 -11.5t10.5 -26.5q0 -18 -15 -32t-33 -14q-14 0 -25 11.5t-11 26.5zM345 535q0 17 15 31.5t34 14.5q14 0 24.5 -11.5t10.5 -26.5q0 -18 -15 -32t-32 -14q-16 0 -26.5 11.5t-10.5 26.5zM404 37q-17 -13 -40 -24
q-20 -9 -48.5 -16.5t-66.5 -7.5q-85 0 -133 51t-48 135q0 55 17.5 102t48 81t72.5 53t91 19q45 0 77 -16t51.5 -43.5t26 -65.5t0.5 -82l-2 -14h-322v-1q-6 -41 1.5 -73t25.5 -53.5t44.5 -32.5t59.5 -11q30 0 53.5 6t40.5 14q19 9 35 20zM290 382q-54 0 -93.5 -31.5
t-58.5 -95.5h261q2 60 -25 93.5t-84 33.5z" />
    <glyph glyph-name="egrave" unicode="&#xe8;" horiz-adv-x="458" 
d="M404 37q-17 -13 -40 -24q-20 -9 -48.5 -16.5t-66.5 -7.5q-85 0 -133 51t-48 135q0 55 17.5 102t48 81t72.5 53t91 19q45 0 77 -16t51.5 -43.5t26 -65.5t0.5 -82l-2 -14h-322v-1q-6 -41 1.5 -73t25.5 -53.5t44.5 -32.5t59.5 -11q30 0 53.5 6t40.5 14q19 9 35 20zM290 382
q-54 0 -93.5 -31.5t-58.5 -95.5h261q2 60 -25 93.5t-84 33.5zM219 631l71 10l34 -144h-40z" />
    <glyph glyph-name="eight" unicode="8" horiz-adv-x="511" 
d="M254 -14q-44 0 -78 12.5t-57.5 34t-35.5 50.5t-12 61q0 58 33.5 102t87.5 68q-32 18 -49.5 49t-17.5 68q0 38 16 71t44.5 58t68.5 39t88 14q40 0 71.5 -11t53 -30.5t32.5 -46t11 -57.5q0 -51 -27 -90.5t-77 -63.5q38 -19 58.5 -52.5t20.5 -77.5q0 -39 -16.5 -75
t-47 -63.5t-73 -43.5t-94.5 -16zM427 178q0 48 -35.5 78.5t-95.5 30.5q-35 0 -65.5 -10.5t-53 -29t-35 -43.5t-12.5 -54q0 -47 35 -78.5t96 -31.5q36 0 66 10.5t52.5 29.5t35 44t12.5 54zM303 337q35 0 62.5 10t47 27.5t29.5 40t10 47.5q0 40 -29.5 68.5t-88.5 28.5
q-35 0 -63 -10t-47.5 -27t-29.5 -39t-10 -47q0 -42 30 -70.5t89 -28.5z" />
    <glyph glyph-name="ellipsis" unicode="&#x2026;" horiz-adv-x="659" 
d="M65 33q0 23 16.5 39.5t39.5 16.5q19 0 31 -13t12 -31q0 -23 -17 -38.5t-40 -15.5q-19 0 -30.5 12t-11.5 30zM285 33q0 23 17.5 39.5t39.5 16.5q19 0 30.5 -13t11.5 -31q0 -23 -17 -38.5t-39 -15.5q-19 0 -31 12t-12 30zM506 33q0 23 16.5 39.5t39.5 16.5q19 0 31 -13
t12 -31q0 -23 -17 -38.5t-40 -15.5q-19 0 -30.5 12t-11.5 30z" />
    <glyph glyph-name="emdash" unicode="&#x2014;" horiz-adv-x="721" 
d="M107 312h587l-7 -48h-587z" />
    <glyph glyph-name="endash" unicode="&#x2013;" horiz-adv-x="463" 
d="M107 312h329l-7 -48h-329z" />
    <glyph glyph-name="equal" unicode="=" horiz-adv-x="463" 
d="M121 411h335l-6 -47h-335zM95 220h335l-7 -47h-335z" />
    <glyph glyph-name="eth" unicode="&#xf0;" horiz-adv-x="499" 
d="M248 -10q-85 0 -132 50.5t-47 135.5q0 55 18 102t50 80.5t76 52.5t97 19q39 0 72 -12q-2 3 -7.5 12.5t-10.5 20.5l-48 97l-131 -74l-16 35l130 74l-66 136l1 9h53l58 -119l133 75l16 -35l-132 -75l95 -193q11 -24 18 -44t10.5 -39t3.5 -38.5t-2 -40.5l-1 -9
q-6 -50 -26 -90.5t-51.5 -69t-72.5 -44.5t-88 -16zM433 238q0 70 -37 107t-93 37q-35 0 -67 -13.5t-56 -39.5t-38.5 -63t-14.5 -84q0 -69 35.5 -106.5t92.5 -37.5q35 0 67 13.5t57 39t39.5 62.5t14.5 85z" />
    <glyph glyph-name="partialdiff" unicode="&#x2202;" horiz-adv-x="499" 
d="M248 -10q-85 0 -132 50.5t-47 135.5q0 55 18 102t50 80.5t76 52.5t97 19q39 0 72 -12q-2 3 -7.5 12.5t-10.5 20.5l-131 268l1 9h53l170 -347q11 -24 18 -44t10.5 -39t3.5 -38.5t-2 -40.5l-1 -9q-6 -50 -26 -90.5t-51.5 -69t-72.5 -44.5t-88 -16zM433 238q0 70 -37 107
t-93 37q-35 0 -67 -13.5t-56 -39.5t-38.5 -63t-14.5 -84q0 -69 35.5 -106.5t92.5 -37.5q35 0 67 13.5t57 39t39.5 62.5t14.5 85z" />
    <glyph glyph-name="exclam" unicode="!" horiz-adv-x="198" 
d="M140 158h-39l47 442h69zM62 31q0 19 14.5 33t33.5 14q17 0 27 -11t10 -26q0 -20 -14.5 -34.5t-34.5 -14.5q-16 0 -26 11t-10 28z" />
    <glyph glyph-name="exclamdown" unicode="&#xa1;" horiz-adv-x="187" 
d="M102 -177h-68l77 443h39zM105 383q0 20 14.5 34t33.5 14q17 0 27.5 -11t10.5 -27q0 -20 -15 -34t-35 -14q-16 0 -26 11t-10 27z" />
    <glyph glyph-name="f" unicode="f" horiz-adv-x="294" 
d="M207 373l-52 -373h-56l52 373h-80l7 47h80l7 50q9 67 52 104.5t106 37.5q20 0 34.5 -3t24.5 -6q11 -4 19 -8l-23 -46q-7 3 -17 6q-8 2 -19.5 4.5t-25.5 2.5q-36 0 -62.5 -23t-32.5 -68l-7 -51h131l-7 -47h-131z" />
    <glyph glyph-name="i" unicode="i" horiz-adv-x="200" 
d="M174 525q-16 0 -26 10t-10 25q0 18 14 31.5t33 13.5q15 0 25 -10.5t10 -25.5q0 -19 -14 -31.5t-32 -12.5zM131 420h56l-59 -420h-56z" />
    <glyph glyph-name="five" unicode="5" horiz-adv-x="478" 
d="M209 547l-33 -200q19 5 43.5 8.5t56.5 3.5q93 0 140 -43t47 -113q0 -48 -17 -88t-48.5 -68.5t-75 -44.5t-96.5 -16q-48 0 -81.5 12.5t-54.5 28.5q-25 18 -39 41l41 41q13 -20 33 -35q17 -13 44 -23.5t65 -10.5q37 0 68.5 10.5t54 30.5t35 49t12.5 65q0 51 -36.5 81
t-100.5 30q-32 0 -58 -4t-44.5 -8.5t-29 -8.5l-10.5 -4l-12 10l53 309h326l-8 -53h-275z" />
    <glyph glyph-name="l" unicode="l" horiz-adv-x="203" 
d="M158 605h56l-85 -605h-56z" />
    <glyph glyph-name="florin" unicode="&#x192;" horiz-adv-x="507" 
d="M280 375h-86l6 45h96l12 35q27 79 78 116.5t119 37.5q18 0 32 -2.5t23 -5.5q11 -4 18 -8l-29 -47q-6 3 -15 6q-8 2 -18 4t-24 2q-46 0 -78 -23.5t-51 -79.5l-12 -35h147l-6 -45h-156l-96 -279q-14 -41 -39.5 -68.5t-79.5 -27.5q-17 0 -30 3t-22 7q-11 4 -18 11l23 43
q6 -4 13 -7q14 -7 32 -7q27 0 43 13.5t27 45.5z" />
    <glyph glyph-name="four" unicode="4" horiz-adv-x="538" 
d="M51 189l397 411h43l-57 -401h103l-7 -53h-103l-21 -146h-57l21 146h-325zM129 199h248l43 304l-278 -291q-2 -2 -4 -3.5t-4 -3.5q-3 -2 -4 -3z" />
    <glyph glyph-name="fraction" unicode="&#x2044;" horiz-adv-x="560" 
d="M-7 0l617 673h53l-620 -673h-50z" />
    <glyph glyph-name="germandbls" unicode="&#xdf;" horiz-adv-x="486" 
d="M280 323q75 8 108.5 46.5t33.5 90.5q0 40 -25.5 68t-73.5 28q-25 0 -48 -9t-41.5 -26t-31.5 -41.5t-17 -56.5l-59 -423h-56l58 415q13 92 67.5 141.5t139.5 49.5q69 0 108 -39t39 -102q0 -54 -27.5 -94t-74.5 -60q44 -14 66 -49.5t22 -80.5q0 -42 -15 -77t-42.5 -60
t-67 -39t-88.5 -14q-35 0 -55 5q-11 3 -19 6l14 44q7 -2 17 -4q8 -2 20 -3t28 -1q31 0 58.5 10.5t47.5 29t31.5 43.5t11.5 55q0 50 -32 77.5t-84 27.5h-19z" />
    <glyph glyph-name="greater" unicode="&#x3e;" horiz-adv-x="375" 
d="M376 282l-297 -200l8 60l228 154l-184 153l8 60l241 -199z" />
    <glyph glyph-name="greaterequal" unicode="&#x2265;" horiz-adv-x="387" 
d="M129 245l174 146l-132 153l39 35l157 -181l-2 -13l-206 -176zM74 139h273l-7 -48h-273z" />
    <glyph glyph-name="guillemotleft" unicode="&#xab;" horiz-adv-x="430" 
d="M75 219l140 180h50l-1 -10l-138 -177l-1 -5l88 -180l-1 -9h-50l-90 180zM249 219l140 180h49l-1 -10l-138 -177l-1 -5l88 -180l-1 -9h-49l-90 180z" />
    <glyph glyph-name="guillemotright" unicode="&#xbb;" horiz-adv-x="429" 
d="M241 198l-140 -180h-50l1 9l139 180v5l-88 177l2 10h50l89 -180zM414 198l-140 -180h-51l1 9l140 180v5l-89 177l2 10h51l89 -180z" />
    <glyph glyph-name="guilsinglleft" unicode="&#x2039;" horiz-adv-x="257" 
d="M75 219l140 180h50l-1 -10l-138 -177l-1 -5l88 -180l-1 -9h-50l-90 180z" />
    <glyph glyph-name="guilsinglright" unicode="&#x203a;" horiz-adv-x="256" 
d="M241 198l-140 -180h-50l1 9l139 180v5l-88 177l2 10h50l89 -180z" />
    <glyph glyph-name="h" unicode="h" horiz-adv-x="508" 
d="M155 605h56l-34 -239h3q10 10 23.5 21t31.5 20.5t41.5 16t53.5 6.5q41 0 71.5 -14.5t49 -40.5t25 -61.5t0.5 -78.5l-33 -235h-56l32 229q4 33 0 61t-17 48.5t-35 32t-54 11.5q-35 0 -61.5 -13t-45.5 -32t-30 -41t-14 -41l-36 -255h-56z" />
    <glyph glyph-name="hungarumlaut" unicode="&#x2dd;" horiz-adv-x="395" 
d="M297 419h-39l71 158h68zM156 419h-39l70 158h69z" />
    <glyph glyph-name="hyphen" unicode="-" horiz-adv-x="399" 
d="M97 253h277l-7 -48h-277z" />
    <glyph glyph-name="iacute" unicode="&#xed;" horiz-adv-x="200" 
d="M190 497h-40l74 144l69 -10zM131 420h56l-59 -420h-56z" />
    <glyph glyph-name="icircumflex" unicode="&#xee;" horiz-adv-x="200" 
d="M184 590l-67 -69h-52l98 108h50l71 -108h-54zM131 420h56l-59 -420h-56z" />
    <glyph glyph-name="idieresis" unicode="&#xef;" horiz-adv-x="200" 
d="M62 558q0 18 15.5 32t32.5 14q15 0 25.5 -11.5t10.5 -26.5q0 -18 -15 -32t-33 -14q-14 0 -25 11.5t-11 26.5zM215 558q0 17 15 31.5t34 14.5q14 0 24.5 -11.5t10.5 -26.5q0 -18 -15 -32t-32 -14q-16 0 -26.5 11.5t-10.5 26.5zM131 420h56l-59 -420h-56z" />
    <glyph glyph-name="igrave" unicode="&#xec;" horiz-adv-x="200" 
d="M131 420h56l-59 -420h-56zM83 631l71 10l34 -144h-40z" />
    <glyph glyph-name="infinity" unicode="&#x221e;" horiz-adv-x="759" 
d="M228 118q-34 0 -60 11.5t-44 31.5t-27 46.5t-9 56.5q0 37 14 71t38.5 60.5t59 42.5t76.5 16q31 0 54 -11t40.5 -29t30.5 -41.5t24 -49.5q18 26 37.5 49.5t42.5 41.5t49.5 29t56.5 11t56 -10.5t44.5 -29t29 -45.5t10.5 -60q0 -37 -13.5 -71.5t-38 -61t-59 -42.5t-77.5 -16
q-31 0 -54 10.5t-41 28.5t-31.5 41t-24.5 49q-18 -26 -37 -49t-41.5 -41t-48.5 -28.5t-57 -10.5zM601 408q-25 0 -46.5 -10t-40.5 -27t-36 -38.5t-32 -45.5q9 -24 20 -46t25 -39.5t32.5 -27.5t43.5 -10q31 0 56 11.5t42.5 31t27 44.5t9.5 52q0 48 -28 76.5t-73 28.5z
M238 164q25 0 46.5 10t40.5 27t36 38.5t32 45.5q-9 24 -20 46t-25 39.5t-32.5 27.5t-43.5 10q-31 0 -56 -12t-43 -31.5t-27.5 -44.5t-9.5 -51q0 -43 25.5 -74t76.5 -31z" />
    <glyph glyph-name="integral" unicode="&#x222b;" horiz-adv-x="290" 
d="M193 539q8 54 34 82t75 28q14 0 26 -3t20 -7q10 -4 17 -9l-23 -43q-5 3 -11 6q-5 2 -12 4t-15 2q-23 0 -37 -15t-19 -50l-75 -538q-8 -54 -34 -82t-75 -28q-15 0 -26.5 2.5t-19.5 6.5q-10 4 -17 10l23 43q5 -3 11 -6q5 -2 12 -4t15 -2q24 0 37 15t18 50z" />
    <glyph glyph-name="j" unicode="j" horiz-adv-x="200" 
d="M-10 -109h9q30 0 45.5 17t20.5 46l65 466h57l-66 -468q-8 -51 -36 -79.5t-82 -28.5h-20zM174 525q-16 0 -26 10t-10 25q0 18 14 31.5t33 13.5q15 0 25 -10.5t10 -25.5q0 -19 -14 -31.5t-32 -12.5z" />
    <glyph glyph-name="k" unicode="k" horiz-adv-x="434" 
d="M478 420l-223 -181l166 -239h-65l-144 204l-65 -52l-21 -152h-56l85 605h56l-53 -380h1l244 195h75z" />
    <glyph glyph-name="less" unicode="&#x3c;" horiz-adv-x="375" 
d="M84 310l296 199l-9 -60l-227 -153l184 -154l-8 -60l-240 200z" />
    <glyph glyph-name="lessequal" unicode="&#x2264;" horiz-adv-x="388" 
d="M289 209l-159 176l2 13l209 181l29 -35l-176 -153l134 -146zM347 91h-274l7 48h274z" />
    <glyph glyph-name="logicalnot" unicode="&#xac;" horiz-adv-x="549" 
d="M100 346h431l-49 -346h-49l42 298h-382z" />
    <glyph glyph-name="lozenge" unicode="&#x25ca;" horiz-adv-x="428" 
d="M435 300l-203 -300h-36l-119 300l203 300h36zM222 84h9l139 215l-79 217h-9l-140 -217z" />
    <glyph glyph-name="lslash" unicode="&#x142;" horiz-adv-x="224" 
d="M59 266l69 39l42 300h56l-37 -265l70 41l-6 -40l-70 -40l-42 -301h-56l37 266l-69 -40z" />
    <glyph glyph-name="m" unicode="m" horiz-adv-x="820" 
d="M129 420h40l-4 -69h4q11 13 25 27t32.5 25.5t43.5 19t57 7.5q58 0 94 -24t50 -66h4q10 13 23.5 28.5t33 29t47 23t64.5 9.5q42 0 72 -14.5t48 -40.5t24.5 -61.5t0.5 -78.5l-33 -235h-56l32 229q4 33 0.5 61t-16.5 48.5t-35 32t-54 11.5q-35 0 -61.5 -13t-45 -32.5
t-29 -42.5t-14.5 -44l-35 -250h-56l35 248q8 58 -18.5 96t-91.5 38q-35 0 -61.5 -12.5t-44.5 -31.5t-28.5 -41.5t-13.5 -41.5l-36 -255h-56z" />
    <glyph glyph-name="macron" unicode="&#xaf;" horiz-adv-x="516" 
d="M222 707h280l-5 -39h-280z" />
    <glyph glyph-name="minus" unicode="&#x2212;" horiz-adv-x="540" 
d="M110 323h412l-7 -48h-412z" />
    <glyph glyph-name="mu" unicode="&#xb5;" horiz-adv-x="496" 
d="M43 -145l53 377h1l27 188h56l-32 -229q-5 -33 -1.5 -61t15.5 -48.5t33.5 -32t53.5 -11.5q35 0 62 12.5t46 31.5t30.5 41.5t14.5 41.5l36 255h56l-59 -420h-37v68h-2q-3 -3 -13.5 -16t-30 -26.5t-49.5 -24.5t-70 -11q-74 0 -111 45l-24 -180h-55z" />
    <glyph glyph-name="u" unicode="u" horiz-adv-x="505" 
d="M435 0h-37v68h-2q-3 -3 -13.5 -16t-30 -26.5t-49.5 -24.5t-70 -11q-42 0 -71.5 14.5t-47 40.5t-23.5 61.5t0 78.5l33 235h56l-32 -229q-5 -33 -1.5 -61t15.5 -48.5t33.5 -32t53.5 -11.5q35 0 62 12.5t46 31.5t30.5 41.5t14.5 41.5l36 255h56z" />
    <glyph glyph-name="multiply" unicode="&#xd7;" horiz-adv-x="495" 
d="M82 140l176 161l-131 161l39 33l129 -160l176 160l28 -33l-176 -161l131 -161l-38 -33l-130 160l-175 -160z" />
    <glyph glyph-name="n" unicode="n" horiz-adv-x="509" 
d="M129 420h40l-4 -69h4q9 12 23 26t33.5 25.5t45.5 19.5t59 8q42 0 72 -14.5t49 -40.5t25.5 -61.5t0.5 -78.5l-33 -235h-56l32 229q4 33 0 61t-17 48.5t-35.5 32t-54.5 11.5q-35 0 -61.5 -12.5t-45.5 -31.5t-30 -41.5t-14 -41.5l-36 -255h-56z" />
    <glyph glyph-name="nine" unicode="9" horiz-adv-x="517" 
d="M454 297q1 7 1.5 14t0.5 14q-29 -42 -78 -66.5t-108 -24.5q-40 0 -72 13t-54.5 35.5t-34.5 52t-12 63.5q0 43 17.5 82t48.5 68.5t73.5 47t91.5 17.5q41 0 75.5 -13.5t59 -42.5t38.5 -74t14 -109q0 -96 -20 -168.5t-56.5 -121.5t-87 -73.5t-110.5 -24.5q-48 0 -79 12.5
t-50 27.5q-22 18 -35 41l41 41q11 -19 29 -34q15 -13 38 -23.5t57 -10.5q38 0 73 15.5t63 47t48 80t28 114.5zM279 288q31 0 59 9.5t51.5 26t40 39.5t25.5 51q-7 79 -44 112t-91 33q-34 0 -64 -12.5t-52.5 -33.5t-36 -49.5t-13.5 -60.5q0 -50 34 -82.5t91 -32.5z" />
    <glyph glyph-name="notequal" unicode="&#x2260;" horiz-adv-x="453" 
d="M118 416h187l62 123l41 -16l-54 -107h99l-7 -47h-116l-83 -165h176l-7 -48h-194l-61 -123l-41 16l54 107h-93l7 48h110l83 165h-170z" />
    <glyph glyph-name="ntilde" unicode="&#xf1;" horiz-adv-x="509" 
d="M129 420h40l-4 -69h4q9 12 23 26t33.5 25.5t45.5 19.5t59 8q42 0 72 -14.5t49 -40.5t25.5 -61.5t0.5 -78.5l-33 -235h-56l32 229q4 33 0 61t-17 48.5t-35.5 32t-54.5 11.5q-35 0 -61.5 -12.5t-45.5 -31.5t-30 -41.5t-14 -41.5l-36 -255h-56zM401 521q-22 0 -39.5 9
t-33 20t-30 20t-30.5 9q-23 0 -33 -13.5t-18 -30.5l-6 -14l-39 5l8 23q10 29 30.5 52t59.5 23q21 0 38.5 -9t32.5 -20t29.5 -20t31.5 -9q24 0 35 13.5t17 30.5l5 14l40 -4l-7 -23q-9 -29 -31 -52.5t-60 -23.5z" />
    <glyph glyph-name="numbersign" unicode="#" horiz-adv-x="607" 
d="M515 418h118l-15 -39h-118l-64 -178h114l-13 -38h-114l-59 -163h-40l58 163h-166l-58 -163h-41l59 163h-120l13 38h120l64 178h-115l14 39h116l59 165h40l-59 -165h165l59 165h42zM230 201h165l63 178h-165z" />
    <glyph glyph-name="o" unicode="o" 
d="M492 239q0 -57 -20 -103t-53.5 -78.5t-77.5 -50t-91 -17.5q-39 0 -72.5 13t-58 37.5t-38 59t-13.5 77.5q0 57 20 103.5t54 79.5t78 51.5t92 18.5q39 0 72 -13.5t57 -38.5t37.5 -60.5t13.5 -78.5zM257 36q34 0 66 13.5t57 39t40.5 62.5t15.5 83q0 34 -10 62t-28 47.5
t-42 30t-51 10.5q-34 0 -66.5 -14.5t-58 -41t-41 -63.5t-15.5 -83q0 -34 10.5 -61t28.5 -46t42 -29t52 -10z" />
    <glyph glyph-name="oacute" unicode="&#xf3;" 
d="M339 497h-40l74 144l69 -10zM492 239q0 -57 -20 -103t-53.5 -78.5t-77.5 -50t-91 -17.5q-39 0 -72.5 13t-58 37.5t-38 59t-13.5 77.5q0 57 20 103.5t54 79.5t78 51.5t92 18.5q39 0 72 -13.5t57 -38.5t37.5 -60.5t13.5 -78.5zM257 36q34 0 66 13.5t57 39t40.5 62.5
t15.5 83q0 34 -10 62t-28 47.5t-42 30t-51 10.5q-34 0 -66.5 -14.5t-58 -41t-41 -63.5t-15.5 -83q0 -34 10.5 -61t28.5 -46t42 -29t52 -10z" />
    <glyph glyph-name="ocircumflex" unicode="&#xf4;" 
d="M334 590l-67 -69h-52l98 108h50l71 -108h-54zM492 239q0 -57 -20 -103t-53.5 -78.5t-77.5 -50t-91 -17.5q-39 0 -72.5 13t-58 37.5t-38 59t-13.5 77.5q0 57 20 103.5t54 79.5t78 51.5t92 18.5q39 0 72 -13.5t57 -38.5t37.5 -60.5t13.5 -78.5zM257 36q34 0 66 13.5t57 39
t40.5 62.5t15.5 83q0 34 -10 62t-28 47.5t-42 30t-51 10.5q-34 0 -66.5 -14.5t-58 -41t-41 -63.5t-15.5 -83q0 -34 10.5 -61t28.5 -46t42 -29t52 -10z" />
    <glyph glyph-name="odieresis" unicode="&#xf6;" 
d="M210 559q0 18 15.5 32t32.5 14q15 0 25.5 -11.5t10.5 -26.5q0 -18 -15 -32t-33 -14q-14 0 -25 11.5t-11 26.5zM363 559q0 17 15 31.5t34 14.5q14 0 24.5 -11.5t10.5 -26.5q0 -18 -15 -32t-32 -14q-16 0 -26.5 11.5t-10.5 26.5zM492 239q0 -57 -20 -103t-53.5 -78.5
t-77.5 -50t-91 -17.5q-39 0 -72.5 13t-58 37.5t-38 59t-13.5 77.5q0 57 20 103.5t54 79.5t78 51.5t92 18.5q39 0 72 -13.5t57 -38.5t37.5 -60.5t13.5 -78.5zM257 36q34 0 66 13.5t57 39t40.5 62.5t15.5 83q0 34 -10 62t-28 47.5t-42 30t-51 10.5q-34 0 -66.5 -14.5t-58 -41
t-41 -63.5t-15.5 -83q0 -34 10.5 -61t28.5 -46t42 -29t52 -10z" />
    <glyph glyph-name="oe" unicode="&#x153;" horiz-adv-x="818" 
d="M766 37q-17 -13 -40 -24q-20 -9 -48.5 -16.5t-66.5 -7.5q-63 0 -105 27.5t-62 76.5q-34 -49 -86 -76t-111 -27q-39 0 -72.5 13t-58 37.5t-38 59t-13.5 77.5q0 57 20 103.5t54 79.5t78 51.5t92 18.5q56 0 98.5 -27.5t63.5 -76.5q31 48 79.5 76t108.5 28q45 0 77 -16
t51.5 -43.5t26 -65.5t0.5 -82l-2 -14h-322v-1q-6 -41 1.5 -73t25.5 -53.5t44.5 -32.5t59.5 -11q30 0 53.5 6t40.5 14q19 9 35 20zM254 36q39 0 72 16.5t56.5 44t37 63t13.5 74.5q0 34 -10 62t-28 47.5t-42 30t-51 10.5q-34 0 -66.5 -14.5t-58 -41t-41 -63.5t-15.5 -83
q0 -34 10.5 -61t28.5 -46t42 -29t52 -10zM652 382q-54 0 -93.5 -31.5t-58.5 -95.5h261q2 60 -25 93.5t-84 33.5z" />
    <glyph glyph-name="ogonek" unicode="&#x2db;" horiz-adv-x="192" 
d="M148 -113q-7 -7 -17 -12q-8 -5 -20 -8t-26 -3q-29 0 -45 15t-16 41q0 29 15.5 48t35.5 31q22 14 51 23l4 -21q-20 -7 -35 -18q-13 -9 -23.5 -22t-10.5 -31q0 -32 32 -32q16 0 28 7q6 3 11 7z" />
    <glyph glyph-name="ograve" unicode="&#xf2;" 
d="M492 239q0 -57 -20 -103t-53.5 -78.5t-77.5 -50t-91 -17.5q-39 0 -72.5 13t-58 37.5t-38 59t-13.5 77.5q0 57 20 103.5t54 79.5t78 51.5t92 18.5q39 0 72 -13.5t57 -38.5t37.5 -60.5t13.5 -78.5zM257 36q34 0 66 13.5t57 39t40.5 62.5t15.5 83q0 34 -10 62t-28 47.5
t-42 30t-51 10.5q-34 0 -66.5 -14.5t-58 -41t-41 -63.5t-15.5 -83q0 -34 10.5 -61t28.5 -46t42 -29t52 -10zM235 631l71 10l34 -144h-40z" />
    <glyph glyph-name="one" unicode="1" horiz-adv-x="283" 
d="M98 600h195l-84 -600h-57l77 547h-138z" />
    <glyph glyph-name="onehalf" unicode="&#xbd;" horiz-adv-x="681" 
d="M36 0l552 600h52l-553 -600h-51zM407 36l167 127q28 21 39 40t11 40q0 24 -15 39t-50 15q-19 0 -36 -5.5t-30 -12.5t-21 -12.5t-8 -6.5l-18 32q15 11 33 21q16 8 37.5 15t47.5 7q56 0 79.5 -25.5t23.5 -61.5q0 -32 -13 -57t-50 -53l-134 -100h179l-5 -38h-242zM125 600
h116l-45 -326h-42l40 288h-74z" />
    <glyph glyph-name="onequarter" unicode="&#xbc;" horiz-adv-x="616" 
d="M324 119l209 207l1 -1l1 1h29l-28 -198h61l-5 -37h-61l-13 -91h-40l13 91h-171zM36 0l552 600h53l-554 -600h-51zM123 600h116l-45 -326h-42l40 288h-74zM374 124l58 4h64l14 100l5 32h-1l-98 -97l-14 -14t-13 -12l-14 -12z" />
    <glyph glyph-name="uni00B9" unicode="&#xb9;" horiz-adv-x="206" 
d="M118 668h116l-45 -326h-43l40 288h-73z" />
    <glyph glyph-name="ordfeminine" unicode="&#xaa;" horiz-adv-x="402" 
d="M93 359q0 54 41.5 85.5t110.5 31.5q42 0 68.5 -12.5t37.5 -24.5l3 20q4 26 2.5 47t-10.5 35.5t-27.5 22.5t-49.5 8q-17 0 -34.5 -3.5t-32.5 -8.5q-18 -5 -35 -11l-9 39q18 7 38 13q17 5 39.5 9t46.5 4q42 0 67.5 -11.5t39 -32t16 -49.5t-2.5 -64l-26 -183h-34l-2 43h-3
q-14 -19 -47.5 -35t-81.5 -16q-53 0 -84 25.5t-31 67.5zM140 363q0 -28 23 -44t62 -16q26 0 48 7.5t37.5 18.5t24.5 24.5t9 25.5q0 26 -27 43.5t-69 17.5q-49 0 -78.5 -21t-29.5 -56z" />
    <glyph glyph-name="ordmasculine" unicode="&#xba;" horiz-adv-x="415" 
d="M293 613q66 0 104.5 -39.5t38.5 -107.5q0 -44 -15 -80t-40.5 -62t-60.5 -40t-75 -14q-64 0 -103 39.5t-39 105.5q0 45 15 81.5t40.5 62.5t60.5 40t74 14zM287 570q-29 0 -54 -11t-43 -30.5t-28.5 -47t-10.5 -61.5q0 -49 27 -78.5t73 -29.5q29 0 54.5 11t44 30.5t29 47
t10.5 60.5q0 51 -27 80t-75 29z" />
    <glyph glyph-name="oslash" unicode="&#xf8;" horiz-adv-x="503" 
d="M492 239q0 -57 -20 -103t-53.5 -78.5t-77.5 -50t-91 -17.5q-79 0 -129 48l-41 -38h-49l69 63q-15 23 -23.5 51.5t-8.5 62.5q0 57 20 103.5t54 79.5t78 51.5t92 18.5q37 0 68.5 -13t55.5 -36l42 39h49l-70 -63q17 -23 26 -53t9 -65zM257 36q34 0 66 13.5t57 39t40.5 62.5
t15.5 83q0 25 -5.5 46t-15.5 38l-254 -242q37 -40 96 -40zM124 182q0 -45 19 -80l254 242q-37 40 -92 40q-34 0 -66.5 -14.5t-58 -41t-41 -63.5t-15.5 -83z" />
    <glyph glyph-name="otilde" unicode="&#xf5;" 
d="M492 239q0 -57 -20 -103t-53.5 -78.5t-77.5 -50t-91 -17.5q-39 0 -72.5 13t-58 37.5t-38 59t-13.5 77.5q0 57 20 103.5t54 79.5t78 51.5t92 18.5q39 0 72 -13.5t57 -38.5t37.5 -60.5t13.5 -78.5zM257 36q34 0 66 13.5t57 39t40.5 62.5t15.5 83q0 34 -10 62t-28 47.5
t-42 30t-51 10.5q-34 0 -66.5 -14.5t-58 -41t-41 -63.5t-15.5 -83q0 -34 10.5 -61t28.5 -46t42 -29t52 -10zM394 522q-22 0 -39.5 9t-33 20t-30 20t-30.5 9q-23 0 -33 -13.5t-18 -30.5l-6 -14l-39 5l8 23q10 29 30.5 52t59.5 23q21 0 38.5 -9t32.5 -20t29.5 -20t31.5 -9
q24 0 35 13.5t17 30.5l5 14l40 -4l-7 -23q-9 -29 -31 -52.5t-60 -23.5z" />
    <glyph glyph-name="p" unicode="p" horiz-adv-x="524" 
d="M136 64l-32 -220h-56l81 576h39l-3 -75h5q16 24 42 42q22 16 54.5 29.5t78.5 13.5q37 0 68 -13.5t53.5 -38t35 -59.5t12.5 -77q0 -56 -19 -102t-50.5 -79.5t-73 -52t-86.5 -18.5t-72.5 11.5t-44.5 25.5q-19 16 -29 37h-3zM149 184q0 -36 10.5 -63t28.5 -45.5t42 -28
t51 -9.5q35 0 67 14.5t56 41t38 62.5t14 79q0 66 -34.5 106.5t-91.5 40.5q-35 0 -67.5 -15t-57.5 -41.5t-40.5 -62.5t-15.5 -79z" />
    <glyph glyph-name="paragraph" unicode="&#xb6;" horiz-adv-x="508" 
d="M399 145h-79q-53 0 -97 13t-75.5 38.5t-48.5 62.5t-17 86q0 62 22.5 109.5t62.5 80t95 49.5t120 17h138l-96 -683h-57z" />
    <glyph glyph-name="parenleft" unicode="(" horiz-adv-x="262" 
d="M141 287q-11 -77 -4.5 -138.5t22.5 -109.5t36.5 -82.5t37.5 -57.5l-39 -35q-21 25 -45 62.5t-43 89.5t-27 119t4 152t39 152t60 119t68 89.5t63 62.5l29 -35q-24 -23 -54 -57.5t-59.5 -82.5t-53.5 -110t-34 -138z" />
    <glyph glyph-name="parenright" unicode=")" horiz-adv-x="262" 
d="M208 360q0 60 -10 109t-24.5 88.5t-31.5 68.5t-32 49l39 35q18 -21 38.5 -53t38 -75t29.5 -97.5t12 -121.5q0 -102 -25 -181.5t-61.5 -140.5t-77.5 -104.5t-73 -72.5l-29 35q28 27 63.5 67.5t67.5 97t54 130t22 166.5z" />
    <glyph glyph-name="percent" unicode="%" horiz-adv-x="649" 
d="M253 613q27 0 47 -10t33.5 -27t20 -40t6.5 -49q0 -33 -10.5 -64.5t-30 -55.5t-47 -39t-61.5 -15q-27 0 -46.5 10.5t-33 27.5t-20 40t-6.5 49q0 33 10.5 64.5t29.5 55.5t46.5 38.5t61.5 14.5zM247 566q-22 0 -39 -10t-28.5 -27t-17.5 -39.5t-6 -46.5q0 -35 15 -59t47 -24
q21 0 38 10t28.5 27t18 39.5t6.5 46.5q0 35 -15.5 59t-46.5 24zM522 292q27 0 47 -10t33.5 -27.5t20.5 -40.5t7 -49q0 -33 -10.5 -64t-30 -55.5t-47.5 -39t-62 -14.5q-26 0 -46 10.5t-33.5 27.5t-20 40t-6.5 49q0 33 10.5 64.5t30 55.5t46.5 38.5t61 14.5zM516 246
q-21 0 -38 -10t-28.5 -27t-18 -39t-6.5 -47q0 -35 15 -59t47 -24q21 0 38 10t28.5 27t18 39.5t6.5 46.5q0 35 -15 59t-47 24zM677 600l-561 -600h-62l559 600h64z" />
    <glyph glyph-name="period" unicode="." horiz-adv-x="196" 
d="M97 -9q-16 0 -26 10t-10 25q0 19 14 33t33 14q16 0 26 -11t10 -26q0 -20 -14 -32.5t-33 -12.5z" />
    <glyph glyph-name="periodcentered" unicode="&#xb7;" horiz-adv-x="202" 
d="M108 355q0 20 15.5 34t34.5 14q17 0 27 -11t10 -27q0 -20 -15 -34.5t-35 -14.5q-16 0 -26.5 11.5t-10.5 27.5z" />
    <glyph glyph-name="perthousand" unicode="&#x2030;" horiz-adv-x="944" 
d="M253 613q27 0 47 -10t33.5 -27t20 -40t6.5 -49q0 -33 -10.5 -64.5t-30 -55.5t-47 -39t-61.5 -15q-27 0 -46.5 10.5t-33 27.5t-20 40t-6.5 49q0 33 10.5 64.5t29.5 55.5t46.5 38.5t61.5 14.5zM218 360q21 0 38 10t28.5 27t18 39.5t6.5 46.5q0 35 -15.5 59t-46.5 24
q-22 0 -39 -10t-28.5 -27t-17.5 -39.5t-6 -46.5q0 -35 15 -59t47 -24zM677 600l-561 -600h-62l559 600h64zM522 292q27 0 47 -10t33.5 -27.5t20.5 -40.5t7 -49q0 -33 -10.5 -64t-30 -55.5t-47.5 -39t-62 -14.5q-26 0 -46 10.5t-33.5 27.5t-20 40t-6.5 49q0 33 10.5 64.5
t30 55.5t46.5 38.5t61 14.5zM516 246q-21 0 -38 -10t-28.5 -27t-18 -39t-6.5 -47q0 -35 15 -59t47 -24q21 0 38 10t28.5 27t18 39.5t6.5 46.5q0 35 -15 59t-47 24zM822 246q-21 0 -38 -10t-29 -27t-18.5 -39t-6.5 -47q0 -35 15.5 -59t47.5 -24q21 0 37.5 10t28 27t18 39.5
t6.5 46.5q0 35 -15 59t-46 24zM828 292q27 0 47 -10t33.5 -27.5t20 -40.5t6.5 -49q0 -33 -10.5 -64t-30 -55.5t-47 -39t-61.5 -14.5q-27 0 -47 10.5t-33.5 27.5t-20 40t-6.5 49q0 33 10.5 64.5t30 55.5t47 38.5t61.5 14.5z" />
    <glyph glyph-name="pi" unicode="&#x3c0;" horiz-adv-x="478" 
d="M507 420l-7 -47h-65l-52 -373h-56l52 373h-176l-52 -373h-56l52 373h-66l7 47h419z" />
    <glyph glyph-name="plus" unicode="+" horiz-adv-x="499" 
d="M319 320h181l-7 -48h-181l-25 -180h-49l25 180h-182l7 48h182l26 187h49z" />
    <glyph glyph-name="plusminus" unicode="&#xb1;" horiz-adv-x="536" 
d="M271 175l25 178h-177l7 47h177l25 181h49l-25 -181h173l-7 -47h-173l-25 -178h-49zM476 54h-399l7 48h399z" />
    <glyph glyph-name="product" unicode="&#x220f;" horiz-adv-x="607" 
d="M538 0h-56l77 550h-356l-77 -550h-57l83 591h2l1 9h465l-1 -9h2z" />
    <glyph glyph-name="q" unicode="q" horiz-adv-x="525" 
d="M432 -156h-56l32 222h-2q-17 -21 -41 -38q-21 -14 -52 -26t-75 -12q-37 0 -68 13.5t-53.5 38.5t-35 59.5t-12.5 76.5q0 56 19 102.5t51 79.5t74 51.5t88 18.5t75.5 -14t46.5 -31q19 -19 29 -44h3l19 79h39zM434 237q0 69 -37.5 107t-93.5 38q-35 0 -67 -15t-56 -41
t-38.5 -62t-14.5 -79q0 -33 9.5 -60t26.5 -46.5t40.5 -30t51.5 -10.5q34 0 66.5 15t57.5 42t40 63.5t15 78.5z" />
    <glyph glyph-name="question" unicode="?" horiz-adv-x="414" 
d="M109 560q19 14 44 25q21 10 51.5 18t68.5 8q80 0 125.5 -36t45.5 -99q0 -41 -14 -70.5t-35 -51.5t-46 -39.5t-47.5 -35t-39.5 -37t-22 -46.5l-7 -41h-40l7 50q4 29 19 51.5t35.5 41.5t43.5 36t42 36t31.5 41.5t12.5 52.5q0 42 -30.5 67.5t-87.5 25.5q-32 0 -57.5 -7
t-44.5 -15q-22 -10 -39 -22zM155 28q0 20 14.5 34t34.5 14q16 0 26.5 -11t10.5 -27q0 -20 -15 -34t-34 -14q-17 0 -27 10.5t-10 27.5z" />
    <glyph glyph-name="questiondown" unicode="&#xbf;" horiz-adv-x="407" 
d="M362 -137q-19 -15 -44 -26q-21 -10 -51.5 -17.5t-68.5 -7.5q-81 0 -126 36t-45 99q0 41 13.5 70.5t34.5 51.5t46 39.5t47.5 35t40 37t22.5 46.5l8 41h38l-7 -50q-4 -29 -19 -51.5t-35.5 -41.5t-43 -36t-41.5 -36t-31.5 -42t-12.5 -52q0 -42 31 -67.5t88 -25.5q31 0 57 7
t44 15q21 10 38 22zM316 395q0 -20 -15 -34t-34 -14q-17 0 -27 11t-10 27q0 20 14.5 34t34.5 14q16 0 26.5 -11t10.5 -27z" />
    <glyph glyph-name="quotedbl" unicode="&#x22;" horiz-adv-x="301" 
d="M157 475h-35l47 209h58zM287 475h-34l47 209h58z" />
    <glyph glyph-name="quotedblbase" unicode="&#x201e;" horiz-adv-x="401" 
d="M5 -83q35 8 58.5 28.5t28.5 45.5q-14 2 -22 11.5t-8 23.5q0 19 14 33t33 14q17 0 27 -12.5t9 -29.5v-4l-1 -5q-10 -54 -44 -91t-90 -48zM207 -83q35 8 58.5 28.5t28.5 45.5q-14 2 -22 11.5t-8 23.5q0 19 14 33t33 14q17 0 27 -12.5t9 -29.5v-4l-1 -5q-10 -54 -44 -91
t-90 -48z" />
    <glyph glyph-name="quotedblleft" unicode="&#x201c;" horiz-adv-x="352" 
d="M116 461q11 54 44 91t89 48l5 -34q-37 -8 -60.5 -28.5t-27.5 -45.5q14 -2 23 -12t9 -24q0 -18 -15 -32t-33 -14q-17 0 -28.5 12.5t-7.5 29.5zM259 461q11 54 44 91t88 48l5 -34q-36 -8 -59.5 -28.5t-27.5 -45.5q14 -2 23 -11.5t9 -23.5q0 -19 -15 -33t-34 -14
q-17 0 -28 12.5t-7 29.5z" />
    <glyph glyph-name="quotedblright" unicode="&#x201d;" horiz-adv-x="356" 
d="M391 550q-7 -56 -42.5 -92.5t-91.5 -47.5l-4 34q35 8 58.5 28.5t28.5 45.5q-14 2 -22.5 12t-8.5 24q0 19 14.5 32.5t33.5 13.5q17 0 27 -12t8 -29zM248 550q-7 -56 -42 -92.5t-91 -47.5l-5 34q35 8 58.5 28.5t28.5 45.5q-14 2 -22 12t-8 24q0 18 14 32t33 14q17 0 27 -12
t8 -29z" />
    <glyph glyph-name="quoteleft" unicode="&#x2018;" horiz-adv-x="210" 
d="M116 461q11 54 44 91t89 48l5 -34q-36 -8 -59.5 -29t-27.5 -46q14 -2 22.5 -11t8.5 -23q0 -19 -14.5 -33t-33.5 -14q-17 0 -28.5 12.5t-7.5 29.5z" />
    <glyph glyph-name="quoteright" unicode="&#x2019;" horiz-adv-x="215" 
d="M249 550q-7 -56 -42.5 -92.5t-90.5 -47.5l-5 34q35 8 58.5 28.5t28.5 45.5q-14 2 -22.5 12t-8.5 24q0 19 14.5 32.5t33.5 13.5q17 0 27 -12t8 -29z" />
    <glyph glyph-name="quotesinglbase" unicode="&#x201a;" horiz-adv-x="199" 
d="M5 -83q35 8 58.5 28.5t28.5 45.5q-14 2 -22 11.5t-8 23.5q0 19 14 33t33 14q17 0 27 -12.5t9 -29.5v-4l-1 -5q-10 -54 -44 -91t-90 -48l-5 34v0z" />
    <glyph glyph-name="quotesingle" unicode="'" horiz-adv-x="169" 
d="M157 475h-35l47 209h58z" />
    <glyph glyph-name="r" unicode="r" horiz-adv-x="276" 
d="M318 375h-21q-26 0 -48.5 -10t-40.5 -26.5t-30.5 -39t-16.5 -47.5l-35 -252h-56l59 420h40l-5 -78h3q7 13 19.5 27t30 25.5t38.5 19t47 7.5h22z" />
    <glyph glyph-name="radical" unicode="&#x221a;" horiz-adv-x="596" 
d="M38 207h62l84 -253q5 -14 9.5 -29t4.5 -25h2q2 10 10 25t17 29l396 646h63l-493 -792h-16z" />
    <glyph glyph-name="registered" unicode="&#xae;" horiz-adv-x="555" 
d="M560 411q0 -52 -19 -99.5t-53.5 -84t-83 -58t-106.5 -21.5q-48 0 -84.5 16t-61 43.5t-37.5 64t-13 77.5q0 52 19 100t53 84t82 57.5t107 21.5q48 0 84.5 -16t61.5 -43t38 -63.5t13 -78.5zM521 407q0 36 -11 67t-32 53.5t-51 35.5t-69 13q-47 0 -86.5 -17.5t-68.5 -47.5
t-45.5 -70.5t-16.5 -86.5q0 -36 11 -67t32 -53.5t51 -35.5t68 -13q47 0 87 17.5t69 47.5t45.5 70.5t16.5 86.5zM352 485q35 0 54 -16.5t19 -43.5q0 -26 -13.5 -43.5t-36.5 -27.5v-1l36 -62l-1 -8h-33l-38 63h-64l-9 -63h-32l28 202h90zM290 454l-11 -78h56q26 0 41 12t15 34
q0 32 -43 32h-58z" />
    <glyph glyph-name="s" unicode="s" horiz-adv-x="404" 
d="M76 78q16 -11 36 -20q17 -8 42.5 -13.5t57.5 -5.5q64 0 91.5 22.5t27.5 54.5q0 23 -18.5 36.5t-46 23t-59.5 18t-59.5 21t-46 32.5t-18.5 53q0 54 42.5 92t129.5 38q38 0 66.5 -5.5t47.5 -11.5q22 -8 38 -17l-29 -48q-15 9 -33 17q-17 6 -40 11.5t-53 5.5
q-116 0 -116 -73q0 -22 18.5 -34.5t46 -21t59.5 -16.5t59.5 -20.5t46 -33.5t18.5 -56q0 -26 -10 -51t-31.5 -44t-55.5 -30.5t-82 -11.5q-43 0 -73 7.5t-49 16.5q-23 11 -37 25z" />
    <glyph glyph-name="scaron" unicode="&#x161;" horiz-adv-x="404" 
d="M281 536l67 70h53l-99 -109h-50l-70 109h53zM76 78q16 -11 36 -20q17 -8 42.5 -13.5t57.5 -5.5q64 0 91.5 22.5t27.5 54.5q0 23 -18.5 36.5t-46 23t-59.5 18t-59.5 21t-46 32.5t-18.5 53q0 54 42.5 92t129.5 38q38 0 66.5 -5.5t47.5 -11.5q22 -8 38 -17l-29 -48
q-15 9 -33 17q-17 6 -40 11.5t-53 5.5q-116 0 -116 -73q0 -22 18.5 -34.5t46 -21t59.5 -16.5t59.5 -20.5t46 -33.5t18.5 -56q0 -26 -10 -51t-31.5 -44t-55.5 -30.5t-82 -11.5q-43 0 -73 7.5t-49 16.5q-23 11 -37 25z" />
    <glyph glyph-name="section" unicode="&#xa7;" horiz-adv-x="508" 
d="M87 90q18 -14 44 -25q22 -9 54 -16.5t75 -7.5q85 0 121.5 23t36.5 57q0 16 -7.5 27.5t-24 21.5t-42.5 19.5t-63 21.5q-67 20 -100 44.5t-33 59.5q0 29 15.5 44.5t30.5 23.5q-35 17 -53.5 40.5t-18.5 53.5q0 28 14 53t42 43.5t70 29t99 10.5q51 0 86 -7.5t58 -15.5
q26 -10 43 -22l-39 -47q-15 11 -37 20q-19 8 -48 14.5t-70 6.5q-80 0 -116.5 -22t-36.5 -57q0 -30 29.5 -48t87.5 -35q70 -20 111 -47.5t41 -64.5q0 -28 -15.5 -46t-27.5 -26q69 -37 69 -93q0 -26 -13 -50t-40.5 -43.5t-71 -31t-104.5 -11.5q-54 0 -93 8.5t-64 19.5
q-29 12 -48 28zM278 354q-11 2 -20.5 5.5t-19.5 6.5q-8 -3 -21 -13.5t-13 -30.5q0 -19 24.5 -33.5t78.5 -31.5q33 -11 60 -21q8 5 19 15.5t11 30.5q0 21 -29.5 38t-89.5 34z" />
    <glyph glyph-name="semicolon" unicode=";" horiz-adv-x="235" 
d="M167 24q-7 -55 -42.5 -91.5t-91.5 -47.5l-4 34q35 8 58.5 28.5t28.5 45.5q-14 2 -22.5 11.5t-8.5 23.5q0 19 14.5 33t33.5 14q17 0 27 -12.5t8 -29.5zM171 343q-16 0 -26.5 10.5t-10.5 25.5q0 20 14.5 33t33.5 13q15 0 25.5 -10.5t10.5 -25.5q0 -20 -15 -33t-32 -13z" />
    <glyph glyph-name="seven" unicode="7" horiz-adv-x="429" 
d="M111 600h388l-5 -39l-345 -561h-69l340 547h-316z" />
    <glyph glyph-name="six" unicode="6" horiz-adv-x="518" 
d="M86 229q0 97 23.5 169t62.5 120t90.5 71.5t108.5 23.5q47 0 77.5 -13.5t48.5 -29.5q21 -18 33 -42l-40 -41q-11 20 -29 36q-15 14 -39 25t-59 11q-37 0 -71 -14t-62.5 -44t-49.5 -78t-33 -117q-1 -7 -1.5 -14t-0.5 -14q29 42 78 66.5t108 24.5q42 0 74.5 -13t54 -35.5
t33 -52t11.5 -63.5q0 -43 -17.5 -82t-48.5 -68.5t-73.5 -47t-91.5 -17.5q-41 0 -75.5 13.5t-59 42.5t-38.5 74t-14 109zM322 315q-31 0 -59 -9.5t-51.5 -26t-40 -39.5t-25.5 -51q7 -79 44 -112t91 -33q34 0 64 12.5t52.5 33.5t36 49.5t13.5 60.5q0 50 -32.5 82.5t-92.5 32.5
z" />
    <glyph glyph-name="slash" unicode="/" horiz-adv-x="553" 
d="M6 -112l575 895h60l-574 -894z" />
    <glyph glyph-name="Aacute" unicode="&#xc1;" horiz-adv-x="589" 
d="M575 0h-59l-41 145h-321l-81 -145h-58l337 600h53zM184 198h277l-92 331zM405 635h-40l74 144l69 -10z" />
    <glyph glyph-name="sterling" unicode="&#xa3;" horiz-adv-x="495" 
d="M437 0h-369l7 53h1v1q21 11 38 29q14 15 26.5 39.5t12.5 61.5q0 17 -3 40l-6 46h-65l6 46h52q-1 11 -1.5 26t-0.5 27q0 48 15.5 91t46 75.5t75 51.5t102.5 19q43 0 72 -10t47 -22q21 -14 34 -31l-40 -42q-11 14 -28 25q-14 10 -37 18t-55 8q-43 0 -75 -14t-53 -39
t-31.5 -58.5t-10.5 -72.5q0 -12 0.5 -26.5t1.5 -25.5h228l-6 -46h-215q3 -20 5.5 -41t2.5 -39q0 -48 -20 -82t-43 -55h293z" />
    <glyph glyph-name="summation" unicode="&#x2211;" horiz-adv-x="442" 
d="M479 600l-7 -50h-281l150 -237l-4 -26l-215 -237h280l-7 -50h-353l7 50l227 245l2 9l-159 246l7 50h353z" />
    <glyph glyph-name="t" unicode="t" horiz-adv-x="308" 
d="M155 420l18 128h55l-18 -128h127l-6 -46h-127l-37 -262q-10 -74 57 -74q12 0 23.5 2.5t20.5 6.5q11 4 20 10l13 -41q-11 -8 -25 -13q-12 -5 -28 -9t-36 -4q-60 0 -84 32.5t-16 88.5l37 263h-81l6 46h81z" />
    <glyph glyph-name="thorn" unicode="&#xfe;" horiz-adv-x="525" 
d="M139 93l-35 -249h-56l106 756h56l-38 -271h3q15 28 40 50q20 19 52.5 35t78.5 16q37 0 68 -13.5t53 -38t34.5 -59t12.5 -76.5q0 -56 -18.5 -102t-50 -80t-73 -52.5t-87.5 -18.5q-47 0 -75 15.5t-43 35.5q-18 23 -25 52h-3zM151 184q0 -35 10 -62t27.5 -45.5t41.5 -28.5
t51 -10q35 0 67 14.5t56.5 41t39 62.5t14.5 79q0 66 -35.5 106.5t-92.5 40.5q-34 0 -66 -13.5t-57 -39t-40.5 -62.5t-15.5 -83z" />
    <glyph glyph-name="three" unicode="3" horiz-adv-x="492" 
d="M198 293l7 37l229 217h-303l7 53h382l-7 -46l-218 -210q80 0 124 -37.5t44 -110.5q0 -42 -16.5 -80t-46.5 -67t-73 -46t-95 -17t-86.5 12.5t-55.5 28.5q-25 18 -39 41l41 41q13 -20 33 -35q17 -13 45 -23.5t69 -10.5q37 0 67.5 11.5t52 32t33.5 47.5t12 59
q0 48 -31.5 75.5t-95.5 27.5h-79z" />
    <glyph glyph-name="threequarters" unicode="&#xbe;" horiz-adv-x="712" 
d="M422 119l209 207l1 -1l1 1h29l-28 -198h61l-5 -37h-61l-13 -91h-40l13 91h-171zM134 600h222l-4 -31l-94 -101q41 -3 62 -24.5t21 -56.5q0 -24 -9.5 -46t-27.5 -38.5t-44.5 -26.5t-61.5 -10q-27 0 -48 7t-35.5 15t-22.5 15.5t-9 8.5l28 31q10 -11 24 -20
q12 -8 28.5 -13.5t38.5 -5.5q47 0 71 23t24 54q0 26 -17 40t-50 14h-33l4 28l93 99h-165zM129 0l552 600h52l-553 -600h-51zM473 124l57 4h64l14 100l5 32h-2l-97 -97l-14 -14t-13 -12l-14 -12v-1z" />
    <glyph glyph-name="uni00B3" unicode="&#xb3;" horiz-adv-x="339" 
d="M149 668h223l-4 -31l-95 -101q42 -3 63 -24.5t21 -56.5q0 -24 -9.5 -46t-27.5 -38.5t-44.5 -26.5t-61.5 -10q-27 0 -48.5 7t-36 15t-22.5 15.5t-9 8.5l28 31q10 -11 24 -20q12 -8 29 -13.5t39 -5.5q46 0 70.5 23t24.5 54q0 26 -17 40t-50 14h-33l4 28l93 99h-166z" />
    <glyph glyph-name="trademark" unicode="&#x2122;" horiz-adv-x="704" 
d="M374 281l45 319h34l92 -158l138 158h33l-45 -319h-41l35 245l-121 -139h-13l-80 137l-35 -243h-42zM352 563h-100l-40 -282h-40l40 282h-100l5 37h240z" />
    <glyph glyph-name="two" unicode="2" horiz-adv-x="486" 
d="M52 39l297 265q28 25 44 44t24.5 35.5t11 32t2.5 32.5q0 48 -32 79.5t-89 31.5q-36 0 -66.5 -11.5t-53 -25t-35.5 -25.5t-14 -13l-26 44q24 24 56 42q27 16 64 29.5t83 13.5q86 0 129 -43.5t43 -110.5q0 -23 -3.5 -44t-13 -42t-27.5 -43.5t-47 -48.5l-255 -228h304
l-7 -53h-394z" />
    <glyph glyph-name="uni00B2" unicode="&#xb2;" horiz-adv-x="352" 
d="M108 378l166 127q28 21 39 40t11 40q0 24 -15 39t-50 15q-19 0 -36 -5.5t-30 -12.5t-21 -12.5t-8 -6.5l-18 32q15 11 33 21q16 8 37.5 15t47.5 7q56 0 79.5 -25.5t23.5 -61.5q0 -32 -13 -57t-50 -53l-134 -100h179l-5 -38h-241z" />
    <glyph glyph-name="uacute" unicode="&#xfa;" horiz-adv-x="505" 
d="M336 497h-40l74 144l69 -10zM435 0h-37v68h-2q-3 -3 -13.5 -16t-30 -26.5t-49.5 -24.5t-70 -11q-42 0 -71.5 14.5t-47 40.5t-23.5 61.5t0 78.5l33 235h56l-32 -229q-5 -33 -1.5 -61t15.5 -48.5t33.5 -32t53.5 -11.5q35 0 62 12.5t46 31.5t30.5 41.5t14.5 41.5l36 255h56z
" />
    <glyph glyph-name="ucircumflex" unicode="&#xfb;" horiz-adv-x="505" 
d="M326 565l-67 -69h-52l98 108h50l71 -108h-54zM435 0h-37v68h-2q-3 -3 -13.5 -16t-30 -26.5t-49.5 -24.5t-70 -11q-42 0 -71.5 14.5t-47 40.5t-23.5 61.5t0 78.5l33 235h56l-32 -229q-5 -33 -1.5 -61t15.5 -48.5t33.5 -32t53.5 -11.5q35 0 62 12.5t46 31.5t30.5 41.5
t14.5 41.5l36 255h56z" />
    <glyph glyph-name="udieresis" unicode="&#xfc;" horiz-adv-x="505" 
d="M204 534q0 18 15.5 32t32.5 14q15 0 25.5 -11.5t10.5 -26.5q0 -18 -15 -32t-33 -14q-14 0 -25 11.5t-11 26.5zM357 534q0 17 15 31.5t34 14.5q14 0 24.5 -11.5t10.5 -26.5q0 -18 -15 -32t-32 -14q-16 0 -26.5 11.5t-10.5 26.5zM435 0h-37v68h-2q-3 -3 -13.5 -16
t-30 -26.5t-49.5 -24.5t-70 -11q-42 0 -71.5 14.5t-47 40.5t-23.5 61.5t0 78.5l33 235h56l-32 -229q-5 -33 -1.5 -61t15.5 -48.5t33.5 -32t53.5 -11.5q35 0 62 12.5t46 31.5t30.5 41.5t14.5 41.5l36 255h56z" />
    <glyph glyph-name="ugrave" unicode="&#xf9;" horiz-adv-x="505" 
d="M435 0h-37v68h-2q-3 -3 -13.5 -16t-30 -26.5t-49.5 -24.5t-70 -11q-42 0 -71.5 14.5t-47 40.5t-23.5 61.5t0 78.5l33 235h56l-32 -229q-5 -33 -1.5 -61t15.5 -48.5t33.5 -32t53.5 -11.5q35 0 62 12.5t46 31.5t30.5 41.5t14.5 41.5l36 255h56zM233 631l71 10l34 -144h-40z
" />
    <glyph glyph-name="underscore" unicode="_" horiz-adv-x="543" 
d="M46 -40h442l-7 -48h-442z" />
    <glyph glyph-name="uni00A0" unicode="&#xa0;" horiz-adv-x="229" 
 />
    <glyph glyph-name="v" unicode="v" horiz-adv-x="455" 
d="M247 0h-39l-134 420h63l95 -328q2 -7 3 -14.5t0 -12.5h3q1 5 4.5 12.5t7.5 14.5l187 328h61z" />
    <glyph glyph-name="w" unicode="w" horiz-adv-x="649" 
d="M79 420h59l62 -328l2 -14.5t0 -12.5h6q1 5 4.5 12.5l6.5 14.5l141 328h49l50 -328l2 -14.5t0 -12.5h6q1 5 4 12.5l6 14.5l155 328h55l-211 -420h-51l-48 330q-1 7 -1 13.5v9.5h-2q-2 -6 -3 -10.5t-4 -12.5l-141 -330h-53z" />
    <glyph glyph-name="x" unicode="x" horiz-adv-x="424" 
d="M209 220l-121 200h66l93 -165h3l140 165h64l-177 -200l131 -220h-65l-103 185h-3l-157 -185h-63z" />
    <glyph glyph-name="yen" unicode="&#xa5;" horiz-adv-x="565" 
d="M552 600h66l-242 -325h144l-6 -47h-172l-12 -87h171l-6 -46h-171l-13 -95h-57l13 95h-171l6 46h171l12 87h-170l6 47h144l-150 325h67l127 -282l12 -36h3l23 36z" />
    <glyph glyph-name="z" unicode="z" horiz-adv-x="418" 
d="M358 373h-268l7 47h343l-4 -28l-314 -345h266l-7 -47h-344l4 30z" />
    <glyph glyph-name="zcaron" unicode="&#x17e;" horiz-adv-x="418" 
d="M281 536l67 70h53l-99 -109h-50l-70 109h53zM358 373h-268l7 47h343l-4 -28l-314 -345h266l-7 -47h-344l4 30z" />
    <glyph glyph-name="zero" unicode="0" horiz-adv-x="591" 
d="M294 -14q-51 0 -90 20t-65.5 55t-39.5 82t-13 102q0 74 21 140.5t60 117t93.5 80.5t121.5 30q51 0 89.5 -20t65 -55t39.5 -82t13 -102q0 -74 -21 -140.5t-59.5 -117t-93 -80.5t-121.5 -30zM301 40q54 0 96.5 25.5t72.5 68.5t45.5 98.5t15.5 115.5q0 44 -9.5 82.5t-29 67
t-49 45t-69.5 16.5q-54 0 -97 -26t-72.5 -68.5t-45 -98.5t-15.5 -116q0 -44 9.5 -82t29 -66.5t49 -45t69.5 -16.5z" />
    <glyph glyph-name="a" unicode="a" horiz-adv-x="524" 
d="M455 341l19 79h39l-59 -420h-39l3 79h-3q-16 -26 -41 -45q-21 -17 -54.5 -30.5t-80.5 -13.5q-37 0 -68.5 13.5t-54 38t-35 59.5t-12.5 77q0 55 19 101.5t50.5 80t73.5 52t87 18.5q48 0 77.5 -14t46.5 -31q19 -19 29 -44h3zM434 237q0 69 -37.5 107t-93.5 38
q-35 0 -67 -14.5t-56 -41t-38.5 -62.5t-14.5 -79q0 -66 35.5 -106.5t92.5 -40.5q34 0 66.5 15t57.5 42t40 63.5t15 78.5z" />
    <glyph glyph-name="aacute" unicode="&#xe1;" horiz-adv-x="524" 
d="M455 341l19 79h39l-59 -420h-39l3 79h-3q-16 -26 -41 -45q-21 -17 -54.5 -30.5t-80.5 -13.5q-37 0 -68.5 13.5t-54 38t-35 59.5t-12.5 77q0 55 19 101.5t50.5 80t73.5 52t87 18.5q48 0 77.5 -14t46.5 -31q19 -19 29 -44h3zM434 237q0 69 -37.5 107t-93.5 38
q-35 0 -67 -14.5t-56 -41t-38.5 -62.5t-14.5 -79q0 -66 35.5 -106.5t92.5 -40.5q34 0 66.5 13.5t57.5 39.5t40 62.5t15 83.5zM338 497h-40l74 144l69 -10z" />
    <glyph glyph-name="acircumflex" unicode="&#xe2;" horiz-adv-x="524" 
d="M455 341l19 79h39l-59 -420h-39l3 79h-3q-16 -26 -41 -45q-21 -17 -54.5 -30.5t-80.5 -13.5q-37 0 -68.5 13.5t-54 38t-35 59.5t-12.5 77q0 55 19 101.5t50.5 80t73.5 52t87 18.5q48 0 77.5 -14t46.5 -31q19 -19 29 -44h3zM434 237q0 69 -37.5 107t-93.5 38
q-35 0 -67 -14.5t-56 -41t-38.5 -62.5t-14.5 -79q0 -66 35.5 -106.5t92.5 -40.5q34 0 66.5 13.5t57.5 39.5t40 62.5t15 83.5zM336 599l-67 -69h-52l98 108h50l71 -108h-54z" />
    <glyph glyph-name="atilde" unicode="&#xe3;" horiz-adv-x="524" 
d="M455 341l19 79h39l-59 -420h-39l3 79h-3q-16 -26 -41 -45q-21 -17 -54.5 -30.5t-80.5 -13.5q-37 0 -68.5 13.5t-54 38t-35 59.5t-12.5 77q0 55 19 101.5t50.5 80t73.5 52t87 18.5q48 0 77.5 -14t46.5 -31q19 -19 29 -44h3zM434 237q0 69 -37.5 107t-93.5 38
q-35 0 -67 -14.5t-56 -41t-38.5 -62.5t-14.5 -79q0 -66 35.5 -106.5t92.5 -40.5q34 0 66.5 13.5t57.5 39.5t40 62.5t15 83.5zM394 497q-22 0 -39.5 9t-33 20t-30 20t-30.5 9q-23 0 -33 -13.5t-18 -30.5l-6 -14l-39 5l8 23q10 29 30.5 52t59.5 23q21 0 38.5 -9t32.5 -20
t29.5 -20t31.5 -9q24 0 35 13.5t17 30.5l5 14l40 -4l-7 -23q-9 -29 -31 -52.5t-60 -23.5z" />
    <glyph glyph-name="adieresis" unicode="&#xe4;" horiz-adv-x="524" 
d="M455 341l19 79h39l-59 -420h-39l3 79h-3q-16 -26 -41 -45q-21 -17 -54.5 -30.5t-80.5 -13.5q-37 0 -68.5 13.5t-54 38t-35 59.5t-12.5 77q0 55 19 101.5t50.5 80t73.5 52t87 18.5q48 0 77.5 -14t46.5 -31q19 -19 29 -44h3zM434 237q0 69 -37.5 107t-93.5 38
q-35 0 -67 -14.5t-56 -41t-38.5 -62.5t-14.5 -79q0 -66 35.5 -106.5t92.5 -40.5q34 0 66.5 13.5t57.5 39.5t40 62.5t15 83.5zM206 535q0 18 15.5 32t32.5 14q15 0 25.5 -11.5t10.5 -26.5q0 -18 -15 -32t-33 -14q-14 0 -25 11.5t-11 26.5zM359 535q0 17 15 31.5t34 14.5
q14 0 24.5 -11.5t10.5 -26.5q0 -18 -15 -32t-32 -14q-16 0 -26.5 11.5t-10.5 26.5z" />
    <glyph glyph-name="aring" unicode="&#xe5;" horiz-adv-x="524" 
d="M455 341l19 79h39l-59 -420h-39l3 79h-3q-16 -26 -41 -45q-21 -17 -54.5 -30.5t-80.5 -13.5q-37 0 -68.5 13.5t-54 38t-35 59.5t-12.5 77q0 55 19 101.5t50.5 80t73.5 52t87 18.5q48 0 77.5 -14t46.5 -31q19 -19 29 -44h3zM434 237q0 69 -37.5 107t-93.5 38
q-35 0 -67 -14.5t-56 -41t-38.5 -62.5t-14.5 -79q0 -66 35.5 -106.5t92.5 -40.5q34 0 66.5 13.5t57.5 39.5t40 62.5t15 83.5zM231 569q0 42 32.5 67.5t78.5 25.5q38 0 62 -20t24 -53q0 -42 -32.5 -67.5t-77.5 -25.5q-38 0 -62.5 20t-24.5 53zM388 585q0 20 -13.5 30
t-37.5 10q-29 0 -47 -13t-18 -39q0 -20 14 -30t38 -10q29 0 46.5 13.5t17.5 38.5z" />
    <glyph glyph-name="agrave" unicode="&#xe0;" horiz-adv-x="524" 
d="M455 341l19 79h39l-59 -420h-39l3 79h-3q-16 -26 -41 -45q-21 -17 -54.5 -30.5t-80.5 -13.5q-37 0 -68.5 13.5t-54 38t-35 59.5t-12.5 77q0 55 19 101.5t50.5 80t73.5 52t87 18.5q48 0 77.5 -14t46.5 -31q19 -19 29 -44h3zM434 237q0 69 -37.5 107t-93.5 38
q-35 0 -67 -14.5t-56 -41t-38.5 -62.5t-14.5 -79q0 -66 35.5 -106.5t92.5 -40.5q34 0 66.5 13.5t57.5 39.5t40 62.5t15 83.5zM240 631l71 10l34 -144h-40z" />
    <glyph glyph-name="y" unicode="y" 
d="M492 420l-58 -412q-6 -42 -23 -76t-44 -59t-64.5 -38.5t-83.5 -13.5q-44 0 -73 9.5t-47 21.5q-21 13 -33 31l36 38q12 -15 30 -26q15 -10 38 -17.5t55 -7.5q67 0 105 35.5t47 101.5l7 49q-7 -8 -19.5 -19.5t-31 -22t-42.5 -17.5t-55 -7q-44 0 -75 14.5t-49 40t-24 61
t0 78.5l33 236h56l-32 -230q-5 -33 -1.5 -61t16 -48.5t34 -32t53.5 -11.5q35 0 62 13t45.5 32t30 41t14.5 41l36 256h57z" />
    <glyph glyph-name="yacute" unicode="&#xfd;" 
d="M492 420l-58 -412q-6 -42 -23 -76t-44 -59t-64.5 -38.5t-83.5 -13.5q-44 0 -73 9.5t-47 21.5q-21 13 -33 31l36 38q12 -15 30 -26q15 -10 38 -17.5t55 -7.5q67 0 105 35.5t47 101.5l7 49q-7 -8 -19.5 -19.5t-31 -22t-42.5 -17.5t-55 -7q-44 0 -75 14.5t-49 40t-24 61
t0 78.5l33 236h56l-32 -230q-5 -33 -1.5 -61t16 -48.5t34 -32t53.5 -11.5q35 0 62 13t45.5 32t30 41t14.5 41l36 256h57zM335 497h-40l74 144l69 -10z" />
    <glyph glyph-name="ydieresis" unicode="&#xff;" 
d="M492 420l-58 -412q-6 -42 -23 -76t-44 -59t-64.5 -38.5t-83.5 -13.5q-44 0 -73 9.5t-47 21.5q-21 13 -33 31l36 38q12 -15 30 -26q15 -10 38 -17.5t55 -7.5q67 0 105 35.5t47 101.5l7 49q-7 -8 -19.5 -19.5t-31 -22t-42.5 -17.5t-55 -7q-44 0 -75 14.5t-49 40t-24 61
t0 78.5l33 236h56l-32 -230q-5 -33 -1.5 -61t16 -48.5t34 -32t53.5 -11.5q35 0 62 13t45.5 32t30 41t14.5 41l36 256h57zM204 535q0 18 15.5 32t32.5 14q15 0 25.5 -11.5t10.5 -26.5q0 -18 -15 -32t-33 -14q-14 0 -25 11.5t-11 26.5zM357 535q0 17 15 31.5t34 14.5
q14 0 24.5 -11.5t10.5 -26.5q0 -18 -15 -32t-32 -14q-16 0 -26.5 11.5t-10.5 26.5z" />
    <glyph glyph-name="g" unicode="g" horiz-adv-x="524" 
d="M458 27q-6 -45 -24.5 -83t-47.5 -65t-68.5 -42.5t-88.5 -15.5q-43 0 -72.5 9.5t-47.5 20.5q-21 13 -34 31l36 39q12 -15 30 -26q15 -10 38 -17.5t55 -7.5q73 0 115.5 41.5t52.5 114.5l6 41h-2q-16 -22 -40 -39q-20 -14 -52 -26t-76 -12q-37 0 -68 13.5t-53.5 38.5
t-35 59.5t-12.5 76.5q0 56 19 102.5t51 79.5t74 51.5t88 18.5t75.5 -14t46.5 -31q19 -19 29 -44h3l19 79h39zM434 237q0 69 -37.5 107t-93.5 38q-35 0 -67 -15t-56 -41t-38.5 -62t-14.5 -79q0 -33 9.5 -60t26.5 -46.5t40.5 -30t51.5 -10.5q34 0 66.5 15t57.5 42t40 63.5
t15 78.5z" />
    <glyph glyph-name="dcroat" unicode="&#x111;" horiz-adv-x="525" 
d="M434 237q0 69 -37.5 107t-93.5 38q-35 0 -67 -14.5t-56 -41t-38.5 -62.5t-14.5 -79q0 -66 35.5 -106.5t92.5 -40.5q34 0 66.5 15t57.5 41.5t40 63t15 79.5zM521 479l-67 -479h-39l3 79h-3q-16 -26 -41 -45q-21 -17 -54.5 -30.5t-80.5 -13.5q-37 0 -68.5 13.5t-54 38
t-35 59.5t-12.5 77q0 55 19 101.5t51 80t73.5 52t87.5 18.5q45 0 73.5 -13t44.5 -28q18 -18 27 -40h2l18 130h-161l4 48h164l11 78h56l-11 -78h36l-4 -48h-39z" />
    <glyph glyph-name="Dcroat" unicode="&#x110;" horiz-adv-x="630" 
d="M72 330h59l38 270h191q61 0 111 -18t85 -51t54.5 -80.5t19.5 -107.5q0 -78 -27.5 -141.5t-75 -108.5t-112 -69t-139.5 -24h-191l39 278h-59zM219 547l-31 -217h187l-7 -52h-187l-32 -225h132q59 0 111.5 19.5t92.5 56t63 88.5t23 117q0 50 -16.5 89.5t-45.5 67t-69.5 42
t-88.5 14.5h-132z" />
    <glyph glyph-name="Itilde" unicode="&#x128;" horiz-adv-x="228" 
d="M142 0h-57l84 600h57zM284 668q-22 0 -39.5 9t-33 20t-30 20t-30.5 9q-23 0 -33 -13.5t-18 -30.5l-6 -14l-39 5l8 23q10 29 30.5 52t59.5 23q21 0 38.5 -9t32.5 -20t29.5 -20t31.5 -9q24 0 35 13.5t17 30.5l5 14l40 -4l-7 -23q-9 -29 -31 -52.5t-60 -23.5z" />
    <glyph glyph-name="Utilde" unicode="&#x168;" horiz-adv-x="628" 
d="M312 -14q-56 0 -97.5 19t-67 53.5t-34.5 83.5t-1 108l49 350h57l-49 -350q-6 -46 -0.5 -84.5t24.5 -66.5t50.5 -43.5t76.5 -15.5t81 15.5t62.5 43.5t43 66.5t22.5 84.5l49 350h57l-49 -350q-8 -59 -30.5 -108t-57.5 -83.5t-82 -53.5t-104 -19zM482 668q-22 0 -39.5 9
t-33 20t-30 20t-30.5 9q-23 0 -33 -13.5t-18 -30.5l-6 -14l-39 5l8 23q10 29 30.5 52t59.5 23q21 0 38.5 -9t32.5 -20t29.5 -20t31.5 -9q24 0 35 13.5t17 30.5l5 14l40 -4l-7 -23q-9 -29 -31 -52.5t-60 -23.5z" />
    <glyph glyph-name="utilde" unicode="&#x169;" horiz-adv-x="505" 
d="M435 0h-37v68h-2q-3 -3 -13.5 -16t-30 -26.5t-49.5 -24.5t-70 -11q-42 0 -71.5 14.5t-47 40.5t-23.5 61.5t0 78.5l33 235h56l-32 -229q-5 -33 -1.5 -61t15.5 -48.5t33.5 -32t53.5 -11.5q35 0 62 12.5t46 31.5t30.5 41.5t14.5 41.5l36 255h56zM392 499q-22 0 -39.5 9
t-33 20t-30 20t-30.5 9q-23 0 -33 -13.5t-18 -30.5l-6 -14l-39 5l8 23q10 29 30.5 52t59.5 23q21 0 38.5 -9t32.5 -20t29.5 -20t31.5 -9q24 0 35 13.5t17 30.5l5 14l40 -4l-7 -23q-9 -29 -31 -52.5t-60 -23.5z" />
    <glyph glyph-name="Ohorn" unicode="&#x1a0;" horiz-adv-x="678" 
d="M344 40q61 0 112 24t88 65t57 94.5t20 112.5q0 46 -13.5 86.5t-39.5 71t-64 48t-87 17.5q-61 0 -111.5 -24t-87 -65t-56.5 -95t-20 -113q0 -46 13 -86.5t38.5 -70.5t63.5 -47.5t87 -17.5zM577 567q20 -13 36 -31q32 -36 49 -85t17 -107q0 -74 -25.5 -139t-70.5 -114
t-108 -77t-138 -28q-60 0 -107.5 20.5t-80.5 57t-50 85.5t-17 106q0 74 25.5 139.5t71.5 114t108.5 76.5t137.5 28q54 0 98 -17q37 3 66 28q32 26 41 66h48q-13 -59 -61 -98q-19 -15 -40 -25z" />
    <glyph glyph-name="ohorn" unicode="&#x1a1;" 
d="M257 36q34 0 66 13.5t57 39t40.5 62.5t15.5 83q0 34 -10 62t-28 47.5t-42 30t-51 10.5q-34 0 -66.5 -14.5t-58 -41t-41 -63.5t-15.5 -83q0 -34 10.5 -61t28.5 -46t42 -29t52 -10zM432 387l9 -9q24 -25 37.5 -60.5t13.5 -78.5q0 -57 -20 -103t-53.5 -78.5t-77.5 -50
t-91 -17.5q-39 0 -72.5 13t-58 37.5t-38 59t-13.5 77.5q0 57 20 103.5t54 79.5t78 51.5t92 18.5q35 0 65 -11q42 1 74 28q32 26 41 66h48q-13 -59 -61 -98q-22 -18 -47 -28z" />
    <glyph glyph-name="Uhorn" unicode="&#x1af;" horiz-adv-x="628" 
d="M629 560l-43 -310q-8 -59 -30.5 -108t-57.5 -83.5t-82 -53.5t-104 -19q-56 0 -97.5 19t-67 53.5t-34.5 83.5t-1 108l49 350h57l-49 -350q-6 -46 -0.5 -84.5t24.5 -66.5t50.5 -43.5t76.5 -15.5t81 15.5t62.5 43.5t43 66.5t22.5 84.5l49 350h38q24 7 45 24q32 26 41 66h48
q-13 -59 -61 -98q-27 -22 -60 -32z" />
    <glyph glyph-name="uhorn" unicode="&#x1b0;" horiz-adv-x="505" 
d="M489 383l-54 -383h-37v68h-2q-3 -3 -13.5 -16t-30 -26.5t-49.5 -24.5t-70 -11q-42 0 -71.5 14.5t-47 40.5t-23.5 61.5t0 78.5l33 235h56l-32 -229q-5 -33 -1.5 -61t15.5 -48.5t33.5 -32t53.5 -11.5q35 0 62 12.5t46 31.5t30.5 41.5t14.5 41.5l36 255h20q34 4 61 27
q32 26 41 66h48q-13 -59 -61 -98q-27 -22 -58 -32z" />
    <glyph glyph-name="uni1EA0" unicode="&#x1ea0;" horiz-adv-x="589" 
d="M575 0h-59l-41 145h-321l-81 -145h-58l337 600h53zM184 198h277l-92 331zM228 -127q0 20 15.5 34t34.5 14q17 0 27 -11t10 -27q0 -20 -15 -34.5t-35 -14.5q-16 0 -26.5 11.5t-10.5 27.5z" />
    <glyph glyph-name="uni1EA1" unicode="&#x1ea1;" horiz-adv-x="524" 
d="M455 341l19 79h39l-59 -420h-39l3 79h-3q-16 -26 -41 -45q-21 -17 -54.5 -30.5t-80.5 -13.5q-37 0 -68.5 13.5t-54 38t-35 59.5t-12.5 77q0 55 19 101.5t50.5 80t73.5 52t87 18.5q48 0 77.5 -14t46.5 -31q19 -19 29 -44h3zM434 237q0 69 -37.5 107t-93.5 38
q-35 0 -67 -14.5t-56 -41t-38.5 -62.5t-14.5 -79q0 -66 35.5 -106.5t92.5 -40.5q34 0 66.5 15t57.5 42t40 63.5t15 78.5zM180 -127q0 20 15.5 34t34.5 14q17 0 27 -11t10 -27q0 -20 -15 -34.5t-35 -14.5q-16 0 -26.5 11.5t-10.5 27.5z" />
    <glyph glyph-name="uni1EA2" unicode="&#x1ea2;" horiz-adv-x="589" 
d="M575 0h-59l-41 145h-321l-81 -145h-58l337 600h53zM184 198h277l-92 331zM313 804q15 11 25 15q8 4 20 7t27 3q32 0 52 -15.5t20 -43.5q0 -17 -4 -26.5t-9 -16.5t-11 -12t-11.5 -8.5t-8.5 -6t-4 -8.5l-4 -24h-38l4 31q2 13 7.5 20.5t11 11.5t9 8t6.5 8t5 7.5t2 11.5
q0 9 -7 14.5t-22 5.5q-10 0 -17.5 -2t-13.5 -4q-7 -3 -25 -16z" />
    <glyph glyph-name="uni1EA3" unicode="&#x1ea3;" horiz-adv-x="524" 
d="M455 341l19 79h39l-59 -420h-39l3 79h-3q-16 -26 -41 -45q-21 -17 -54.5 -30.5t-80.5 -13.5q-37 0 -68.5 13.5t-54 38t-35 59.5t-12.5 77q0 55 19 101.5t50.5 80t73.5 52t87 18.5q48 0 77.5 -14t46.5 -31q19 -19 29 -44h3zM434 237q0 69 -37.5 107t-93.5 38
q-35 0 -67 -14.5t-56 -41t-38.5 -62.5t-14.5 -79q0 -66 35.5 -106.5t92.5 -40.5q34 0 66.5 15t57.5 42t40 63.5t15 78.5zM256 631q15 11 25 15q8 4 20 7t27 3q32 0 52 -15.5t20 -43.5q0 -17 -4 -26.5t-9 -16.5t-11 -12t-11.5 -8.5t-8.5 -6t-4 -8.5l-4 -24h-38l4 31
q2 13 7.5 20.5t11 11.5t9 8t6.5 8t5 7.5t2 11.5q0 9 -7 14.5t-22 5.5q-10 0 -17.5 -2t-13.5 -4q-7 -3 -25 -16z" />
    <glyph glyph-name="uni1EA4" unicode="&#x1ea4;" horiz-adv-x="589" 
d="M575 0h-59l-41 145h-321l-81 -145h-58l337 600h53zM184 198h277l-92 331zM400 737l-67 -69h-52l98 108h50l71 -108h-54zM513 757h-40l74 144l69 -10z" />
    <glyph glyph-name="uni1EA5" unicode="&#x1ea5;" horiz-adv-x="524" 
d="M455 341l19 79h39l-59 -420h-39l3 79h-3q-16 -26 -41 -45q-21 -17 -54.5 -30.5t-80.5 -13.5q-37 0 -68.5 13.5t-54 38t-35 59.5t-12.5 77q0 55 19 101.5t50.5 80t73.5 52t87 18.5q48 0 77.5 -14t46.5 -31q19 -19 29 -44h3zM434 237q0 69 -37.5 107t-93.5 38
q-35 0 -67 -14.5t-56 -41t-38.5 -62.5t-14.5 -79q0 -66 35.5 -106.5t92.5 -40.5q34 0 66.5 15t57.5 42t40 63.5t15 78.5zM335 568l-67 -69h-52l98 108h50l71 -108h-54zM465 577h-40l74 144l69 -10z" />
    <glyph glyph-name="uni1EA6" unicode="&#x1ea6;" horiz-adv-x="589" 
d="M575 0h-59l-41 145h-321l-81 -145h-58l337 600h53zM184 198h277l-92 331zM399 737l-67 -69h-52l98 108h50l71 -108h-54zM224 893l71 10l34 -144h-40z" />
    <glyph glyph-name="uni1EA7" unicode="&#x1ea7;" horiz-adv-x="524" 
d="M455 341l19 79h39l-59 -420h-39l3 79h-3q-16 -26 -41 -45q-21 -17 -54.5 -30.5t-80.5 -13.5q-37 0 -68.5 13.5t-54 38t-35 59.5t-12.5 77q0 55 19 101.5t50.5 80t73.5 52t87 18.5q48 0 77.5 -14t46.5 -31q19 -19 29 -44h3zM434 237q0 69 -37.5 107t-93.5 38
q-35 0 -67 -14.5t-56 -41t-38.5 -62.5t-14.5 -79q0 -66 35.5 -106.5t92.5 -40.5q34 0 66.5 15t57.5 42t40 63.5t15 78.5zM335 568l-67 -69h-52l98 108h50l71 -108h-54zM157 723l71 10l34 -144h-40z" />
    <glyph glyph-name="uni1EA8" unicode="&#x1ea8;" horiz-adv-x="589" 
d="M575 0h-59l-41 145h-321l-81 -145h-58l337 600h53zM184 198h277l-92 331zM399 737l-67 -69h-52l98 108h50l71 -108h-54zM418 895q15 11 25 15q8 4 20 7t27 3q32 0 52 -15.5t20 -43.5q0 -17 -4 -26.5t-9 -16.5t-11 -12t-11.5 -8.5t-8.5 -6t-4 -8.5l-4 -24h-38l4 31
q2 13 7.5 20.5t11 11.5t9 8t6.5 8t5 7.5t2 11.5q0 9 -7 14.5t-22 5.5q-10 0 -17.5 -2t-13.5 -4q-7 -3 -25 -16z" />
    <glyph glyph-name="uni1EA9" unicode="&#x1ea9;" horiz-adv-x="524" 
d="M455 341l19 79h39l-59 -420h-39l3 79h-3q-16 -26 -41 -45q-21 -17 -54.5 -30.5t-80.5 -13.5q-37 0 -68.5 13.5t-54 38t-35 59.5t-12.5 77q0 55 19 101.5t50.5 80t73.5 52t87 18.5q48 0 77.5 -14t46.5 -31q19 -19 29 -44h3zM434 237q0 69 -37.5 107t-93.5 38
q-35 0 -67 -14.5t-56 -41t-38.5 -62.5t-14.5 -79q0 -66 35.5 -106.5t92.5 -40.5q34 0 66.5 15t57.5 42t40 63.5t15 78.5zM335 568l-67 -69h-52l98 108h50l71 -108h-54zM368 710q15 11 25 15q8 4 20 7t27 3q32 0 52 -15.5t20 -43.5q0 -17 -4 -26.5t-9 -16.5t-11 -12
t-11.5 -8.5t-8.5 -6t-4 -8.5l-4 -24h-38l4 31q2 13 7.5 20.5t11 11.5t9 8t6.5 8t5 7.5t2 11.5q0 9 -7 14.5t-22 5.5q-10 0 -17.5 -2t-13.5 -4q-7 -3 -25 -16z" />
    <glyph glyph-name="uni1EAA" unicode="&#x1eaa;" horiz-adv-x="589" 
d="M575 0h-59l-41 145h-321l-81 -145h-58l337 600h53zM184 198h277l-92 331zM400 737l-67 -69h-52l98 108h50l71 -108h-54zM524 796q-22 0 -39.5 9t-33 20t-30 20t-30.5 9q-23 0 -33 -13.5t-18 -30.5l-6 -14l-39 5l8 23q10 29 30.5 52t59.5 23q21 0 38.5 -9t32.5 -20
t29.5 -20t31.5 -9q24 0 35 13.5t17 30.5l5 14l40 -4l-7 -23q-9 -29 -31 -52.5t-60 -23.5z" />
    <glyph glyph-name="uni1EAB" unicode="&#x1eab;" horiz-adv-x="524" 
d="M455 341l19 79h39l-59 -420h-39l3 79h-3q-16 -26 -41 -45q-21 -17 -54.5 -30.5t-80.5 -13.5q-37 0 -68.5 13.5t-54 38t-35 59.5t-12.5 77q0 55 19 101.5t50.5 80t73.5 52t87 18.5q48 0 77.5 -14t46.5 -31q19 -19 29 -44h3zM434 237q0 69 -37.5 107t-93.5 38
q-35 0 -67 -14.5t-56 -41t-38.5 -62.5t-14.5 -79q0 -66 35.5 -106.5t92.5 -40.5q34 0 66.5 15t57.5 42t40 63.5t15 78.5zM335 568l-67 -69h-52l98 108h50l71 -108h-54zM443 627q-22 0 -39.5 9t-33 20t-30 20t-30.5 9q-23 0 -33 -13.5t-18 -30.5l-6 -14l-39 5l8 23
q10 29 30.5 52t59.5 23q21 0 38.5 -9t32.5 -20t29.5 -20t31.5 -9q24 0 35 13.5t17 30.5l5 14l40 -4l-7 -23q-9 -29 -31 -52.5t-60 -23.5z" />
    <glyph glyph-name="uni1EAC" unicode="&#x1eac;" horiz-adv-x="589" 
d="M575 0h-59l-41 145h-321l-81 -145h-58l337 600h53zM184 198h277l-92 331zM400 737l-67 -69h-52l98 108h50l71 -108h-54zM228 -127q0 20 15.5 34t34.5 14q17 0 27 -11t10 -27q0 -20 -15 -34.5t-35 -14.5q-16 0 -26.5 11.5t-10.5 27.5z" />
    <glyph glyph-name="uni1EAD" unicode="&#x1ead;" horiz-adv-x="524" 
d="M455 341l19 79h39l-59 -420h-39l3 79h-3q-16 -26 -41 -45q-21 -17 -54.5 -30.5t-80.5 -13.5q-37 0 -68.5 13.5t-54 38t-35 59.5t-12.5 77q0 55 19 101.5t50.5 80t73.5 52t87 18.5q48 0 77.5 -14t46.5 -31q19 -19 29 -44h3zM434 237q0 69 -37.5 107t-93.5 38
q-35 0 -67 -14.5t-56 -41t-38.5 -62.5t-14.5 -79q0 -66 35.5 -106.5t92.5 -40.5q34 0 66.5 15t57.5 42t40 63.5t15 78.5zM335 568l-67 -69h-52l98 108h50l71 -108h-54zM180 -127q0 20 15.5 34t34.5 14q17 0 27 -11t10 -27q0 -20 -15 -34.5t-35 -14.5q-16 0 -26.5 11.5
t-10.5 27.5z" />
    <glyph glyph-name="uni1EAE" unicode="&#x1eae;" horiz-adv-x="589" 
d="M575 0h-59l-41 145h-321l-81 -145h-58l337 600h53zM184 198h277l-92 331zM511 783q-4 -25 -15 -46.5t-28 -36.5t-37.5 -23.5t-41.5 -8.5q-22 0 -40.5 8.5t-30.5 23.5t-17.5 36.5t-2.5 46.5h37q-4 -33 12 -55.5t47 -22.5q30 0 52.5 22t27.5 56h37zM423 791h-40l74 144
l69 -10z" />
    <glyph glyph-name="uni1EAF" unicode="&#x1eaf;" horiz-adv-x="524" 
d="M455 341l19 79h39l-59 -420h-39l3 79h-3q-16 -26 -41 -45q-21 -17 -54.5 -30.5t-80.5 -13.5q-37 0 -68.5 13.5t-54 38t-35 59.5t-12.5 77q0 55 19 101.5t50.5 80t73.5 52t87 18.5q48 0 77.5 -14t46.5 -31q19 -19 29 -44h3zM434 237q0 69 -37.5 107t-93.5 38
q-35 0 -67 -14.5t-56 -41t-38.5 -62.5t-14.5 -79q0 -66 35.5 -106.5t92.5 -40.5q34 0 66.5 15t57.5 42t40 63.5t15 78.5zM472 614q-4 -25 -15 -46.5t-28 -36.5t-37.5 -23.5t-41.5 -8.5q-22 0 -40.5 8.5t-30.5 23.5t-17.5 36.5t-2.5 46.5h37q-4 -33 12 -55.5t47 -22.5
q30 0 52.5 22t27.5 56h37zM385 633h-40l74 144l69 -10z" />
    <glyph glyph-name="uni1EB0" unicode="&#x1eb0;" horiz-adv-x="589" 
d="M575 0h-59l-41 145h-321l-81 -145h-58l337 600h53zM184 198h277l-92 331zM512 784q-4 -25 -15 -46.5t-28 -36.5t-37.5 -23.5t-41.5 -8.5q-22 0 -40.5 8.5t-30.5 23.5t-17.5 36.5t-2.5 46.5h37q-4 -33 12 -55.5t47 -22.5q30 0 52.5 22t27.5 56h37zM321 926l71 10l34 -144
h-40z" />
    <glyph glyph-name="uni1EB1" unicode="&#x1eb1;" horiz-adv-x="524" 
d="M455 341l19 79h39l-59 -420h-39l3 79h-3q-16 -26 -41 -45q-21 -17 -54.5 -30.5t-80.5 -13.5q-37 0 -68.5 13.5t-54 38t-35 59.5t-12.5 77q0 55 19 101.5t50.5 80t73.5 52t87 18.5q48 0 77.5 -14t46.5 -31q19 -19 29 -44h3zM434 237q0 69 -37.5 107t-93.5 38
q-35 0 -67 -14.5t-56 -41t-38.5 -62.5t-14.5 -79q0 -66 35.5 -106.5t92.5 -40.5q34 0 66.5 15t57.5 42t40 63.5t15 78.5zM454 614q-4 -25 -15 -46.5t-28 -36.5t-37.5 -23.5t-41.5 -8.5q-22 0 -40.5 8.5t-30.5 23.5t-17.5 36.5t-2.5 46.5h37q-4 -33 12 -55.5t47 -22.5
q30 0 52.5 22t27.5 56h37zM268 750l71 10l34 -144h-40z" />
    <glyph glyph-name="uni1EB2" unicode="&#x1eb2;" horiz-adv-x="589" 
d="M575 0h-59l-41 145h-321l-81 -145h-58l337 600h53zM184 198h277l-92 331zM512 783q-4 -25 -15 -46.5t-28 -36.5t-37.5 -23.5t-41.5 -8.5q-22 0 -40.5 8.5t-30.5 23.5t-17.5 36.5t-2.5 46.5h37q-4 -33 12 -55.5t47 -22.5q30 0 52.5 22t27.5 56h37zM336 895.25
q15 8.25 25 11.25q8 3 20 5.25t27 2.25q32 0 52 -11.625t20 -32.625q0 -12.75 -4 -19.875t-9 -12.375t-11 -9t-11.5 -6.375t-8.5 -4.5t-4 -6.375l-4 -18h-38l4 23.25q2 9.75 7.5 15.375t11 8.625t9 6t6.5 6t5 5.625t2 8.625q0 6.75 -7 10.875t-22 4.125q-10 0 -17.5 -1.5
t-13.5 -3q-7 -2.25 -25 -12z" />
    <glyph glyph-name="uni1EB3" unicode="&#x1eb3;" horiz-adv-x="524" 
d="M455 341l19 79h39l-59 -420h-39l3 79h-3q-16 -26 -41 -45q-21 -17 -54.5 -30.5t-80.5 -13.5q-37 0 -68.5 13.5t-54 38t-35 59.5t-12.5 77q0 55 19 101.5t50.5 80t73.5 52t87 18.5q48 0 77.5 -14t46.5 -31q19 -19 29 -44h3zM434 237q0 69 -37.5 107t-93.5 38
q-35 0 -67 -14.5t-56 -41t-38.5 -62.5t-14.5 -79q0 -66 35.5 -106.5t92.5 -40.5q34 0 66.5 15t57.5 42t40 63.5t15 78.5zM456 614q-4 -25 -15 -46.5t-28 -36.5t-37.5 -23.5t-41.5 -8.5q-22 0 -40.5 8.5t-30.5 23.5t-17.5 36.5t-2.5 46.5h37q-4 -33 12 -55.5t47 -22.5
q30 0 52.5 22t27.5 56h37zM275 757q15 11 25 15q8 4 20 7t27 3q32 0 52 -15.5t20 -43.5q0 -17 -4 -26.5t-9 -16.5t-11 -12t-11.5 -8.5t-8.5 -6t-4 -8.5l-4 -24h-38l4 31q2 13 7.5 20.5t11 11.5t9 8t6.5 8t5 7.5t2 11.5q0 9 -7 14.5t-22 5.5q-10 0 -17.5 -2t-13.5 -4
q-7 -3 -25 -16z" />
    <glyph glyph-name="uni1EB4" unicode="&#x1eb4;" horiz-adv-x="589" 
d="M575 0h-59l-41 145h-321l-81 -145h-58l337 600h53zM184 198h277l-92 331zM515 783q-4 -25 -15 -46.5t-28 -36.5t-37.5 -23.5t-41.5 -8.5q-22 0 -40.5 8.5t-30.5 23.5t-17.5 36.5t-2.5 46.5h37q-4 -33 12 -55.5t47 -22.5q30 0 52.5 22t27.5 56h37zM483 798q-22 0 -39.5 9
t-33 20t-30 20t-30.5 9q-23 0 -33 -13.5t-18 -30.5l-6 -14l-39 5l8 23q10 29 30.5 52t59.5 23q21 0 38.5 -9t32.5 -20t29.5 -20t31.5 -9q24 0 35 13.5t17 30.5l5 14l40 -4l-7 -23q-9 -29 -31 -52.5t-60 -23.5z" />
    <glyph glyph-name="uni1EB5" unicode="&#x1eb5;" horiz-adv-x="524" 
d="M455 341l19 79h39l-59 -420h-39l3 79h-3q-16 -26 -41 -45q-21 -17 -54.5 -30.5t-80.5 -13.5q-37 0 -68.5 13.5t-54 38t-35 59.5t-12.5 77q0 55 19 101.5t50.5 80t73.5 52t87 18.5q48 0 77.5 -14t46.5 -31q19 -19 29 -44h3zM434 237q0 69 -37.5 107t-93.5 38
q-35 0 -67 -14.5t-56 -41t-38.5 -62.5t-14.5 -79q0 -66 35.5 -106.5t92.5 -40.5q34 0 66.5 15t57.5 42t40 63.5t15 78.5zM453 614q-4 -25 -15 -46.5t-28 -36.5t-37.5 -23.5t-41.5 -8.5q-22 0 -40.5 8.5t-30.5 23.5t-17.5 36.5t-2.5 46.5h37q-4 -33 12 -55.5t47 -22.5
q30 0 52.5 22t27.5 56h37zM428 636q-22 0 -39.5 9t-33 20t-30 20t-30.5 9q-23 0 -33 -13.5t-18 -30.5l-6 -14l-39 5l8 23q10 29 30.5 52t59.5 23q21 0 38.5 -9t32.5 -20t29.5 -20t31.5 -9q24 0 35 13.5t17 30.5l5 14l40 -4l-7 -23q-9 -29 -31 -52.5t-60 -23.5z" />
    <glyph glyph-name="uni1EB6" unicode="&#x1eb6;" horiz-adv-x="589" 
d="M575 0h-59l-41 145h-321l-81 -145h-58l337 600h53zM184 198h277l-92 331zM511 783q-4 -25 -15 -46.5t-28 -36.5t-37.5 -23.5t-41.5 -8.5q-22 0 -40.5 8.5t-30.5 23.5t-17.5 36.5t-2.5 46.5h37q-4 -33 12 -55.5t47 -22.5q30 0 52.5 22t27.5 56h37zM228 -127q0 20 15.5 34
t34.5 14q17 0 27 -11t10 -27q0 -20 -15 -34.5t-35 -14.5q-16 0 -26.5 11.5t-10.5 27.5z" />
    <glyph glyph-name="uni1EB7" unicode="&#x1eb7;" horiz-adv-x="524" 
d="M455 341l19 79h39l-59 -420h-39l3 79h-3q-16 -26 -41 -45q-21 -17 -54.5 -30.5t-80.5 -13.5q-37 0 -68.5 13.5t-54 38t-35 59.5t-12.5 77q0 55 19 101.5t50.5 80t73.5 52t87 18.5q48 0 77.5 -14t46.5 -31q19 -19 29 -44h3zM434 237q0 69 -37.5 107t-93.5 38
q-35 0 -67 -14.5t-56 -41t-38.5 -62.5t-14.5 -79q0 -66 35.5 -106.5t92.5 -40.5q34 0 66.5 15t57.5 42t40 63.5t15 78.5zM477 614q-4 -25 -15 -46.5t-28 -36.5t-37.5 -23.5t-41.5 -8.5q-22 0 -40.5 8.5t-30.5 23.5t-17.5 36.5t-2.5 46.5h37q-4 -33 12 -55.5t47 -22.5
q30 0 52.5 22t27.5 56h37zM213 -127q0 20 15.5 34t34.5 14q17 0 27 -11t10 -27q0 -20 -15 -34.5t-35 -14.5q-16 0 -26.5 11.5t-10.5 27.5z" />
    <glyph glyph-name="uni1EB8" unicode="&#x1eb8;" horiz-adv-x="542" 
d="M489 277h-308l-32 -224h358l-7 -53h-415l84 600h415l-7 -53h-358l-31 -217h308zM225 -127q0 20 15.5 34t34.5 14q17 0 27 -11t10 -27q0 -20 -15 -34.5t-35 -14.5q-16 0 -26.5 11.5t-10.5 27.5z" />
    <glyph glyph-name="uni1EB9" unicode="&#x1eb9;" horiz-adv-x="458" 
d="M404 37q-17 -13 -40 -24q-20 -9 -48.5 -16.5t-66.5 -7.5q-85 0 -133 51t-48 135q0 55 17.5 102t48 81t72.5 53t91 19q45 0 77 -16t51.5 -43.5t26 -65.5t0.5 -82l-2 -14h-322v-1q-6 -41 1.5 -73t25.5 -53.5t44.5 -32.5t59.5 -11q30 0 53.5 6t40.5 14q19 9 35 20zM290 382
q-54 0 -93.5 -31.5t-58.5 -95.5h261q2 60 -25 93.5t-84 33.5zM163 -127q0 20 15.5 34t34.5 14q17 0 27 -11t10 -27q0 -20 -15 -34.5t-35 -14.5q-16 0 -26.5 11.5t-10.5 27.5z" />
    <glyph glyph-name="uni1EBA" unicode="&#x1eba;" horiz-adv-x="542" 
d="M489 277h-308l-32 -224h358l-7 -53h-415l84 600h415l-7 -53h-358l-31 -217h308zM298 804q15 11 25 15q8 4 20 7t27 3q32 0 52 -15.5t20 -43.5q0 -17 -4 -26.5t-9 -16.5t-11 -12t-11.5 -8.5t-8.5 -6t-4 -8.5l-4 -24h-38l4 31q2 13 7.5 20.5t11 11.5t9 8t6.5 8t5 7.5
t2 11.5q0 9 -7 14.5t-22 5.5q-10 0 -17.5 -2t-13.5 -4q-7 -3 -25 -16z" />
    <glyph glyph-name="uni1EBB" unicode="&#x1ebb;" horiz-adv-x="458" 
d="M404 37q-17 -13 -40 -24q-20 -9 -48.5 -16.5t-66.5 -7.5q-85 0 -133 51t-48 135q0 55 17.5 102t48 81t72.5 53t91 19q45 0 77 -16t51.5 -43.5t26 -65.5t0.5 -82l-2 -14h-322v-1q-6 -41 1.5 -73t25.5 -53.5t44.5 -32.5t59.5 -11q30 0 53.5 6t40.5 14q19 9 35 20zM290 382
q-54 0 -93.5 -31.5t-58.5 -95.5h261q2 60 -25 93.5t-84 33.5zM239 631q15 11 25 15q8 4 20 7t27 3q32 0 52 -15.5t20 -43.5q0 -17 -4 -26.5t-9 -16.5t-11 -12t-11.5 -8.5t-8.5 -6t-4 -8.5l-4 -24h-38l4 31q2 13 7.5 20.5t11 11.5t9 8t6.5 8t5 7.5t2 11.5q0 9 -7 14.5
t-22 5.5q-10 0 -17.5 -2t-13.5 -4q-7 -3 -25 -16z" />
    <glyph glyph-name="uni1EBC" unicode="&#x1ebc;" horiz-adv-x="542" 
d="M489 277h-308l-32 -224h358l-7 -53h-415l84 600h415l-7 -53h-358l-31 -217h308zM467 668q-22 0 -39.5 9t-33 20t-30 20t-30.5 9q-23 0 -33 -13.5t-18 -30.5l-6 -14l-39 5l8 23q10 29 30.5 52t59.5 23q21 0 38.5 -9t32.5 -20t29.5 -20t31.5 -9q24 0 35 13.5t17 30.5l5 14
l40 -4l-7 -23q-9 -29 -31 -52.5t-60 -23.5z" />
    <glyph glyph-name="uni1EBD" unicode="&#x1ebd;" horiz-adv-x="458" 
d="M404 37q-17 -13 -40 -24q-20 -9 -48.5 -16.5t-66.5 -7.5q-85 0 -133 51t-48 135q0 55 17.5 102t48 81t72.5 53t91 19q45 0 77 -16t51.5 -43.5t26 -65.5t0.5 -82l-2 -14h-322v-1q-6 -41 1.5 -73t25.5 -53.5t44.5 -32.5t59.5 -11q30 0 53.5 6t40.5 14q19 9 35 20zM290 382
q-54 0 -93.5 -31.5t-58.5 -95.5h261q2 60 -25 93.5t-84 33.5zM373 499q-22 0 -39.5 9t-33 20t-30 20t-30.5 9q-23 0 -33 -13.5t-18 -30.5l-6 -14l-39 5l8 23q10 29 30.5 52t59.5 23q21 0 38.5 -9t32.5 -20t29.5 -20t31.5 -9q24 0 35 13.5t17 30.5l5 14l40 -4l-7 -23
q-9 -29 -31 -52.5t-60 -23.5z" />
    <glyph glyph-name="uni1EBE" unicode="&#x1ebe;" horiz-adv-x="542" 
d="M489 277h-308l-32 -224h358l-7 -53h-415l84 600h415l-7 -53h-358l-31 -217h308zM392 737l-67 -69h-52l98 108h50l71 -108h-54zM505 757h-40l74 144l69 -10z" />
    <glyph glyph-name="uni1EBF" unicode="&#x1ebf;" horiz-adv-x="458" 
d="M404 37q-17 -13 -40 -24q-20 -9 -48.5 -16.5t-66.5 -7.5q-85 0 -133 51t-48 135q0 55 17.5 102t48 81t72.5 53t91 19q45 0 77 -16t51.5 -43.5t26 -65.5t0.5 -82l-2 -14h-322v-1q-6 -41 1.5 -73t25.5 -53.5t44.5 -32.5t59.5 -11q30 0 53.5 6t40.5 14q19 9 35 20zM290 382
q-54 0 -93.5 -31.5t-58.5 -95.5h261q2 60 -25 93.5t-84 33.5zM318 568l-67 -69h-52l98 108h50l71 -108h-54zM438 580h-40l74 144l69 -10z" />
    <glyph glyph-name="uni1EC0" unicode="&#x1ec0;" horiz-adv-x="542" 
d="M489 277h-308l-32 -224h358l-7 -53h-415l84 600h415l-7 -53h-358l-31 -217h308zM390 737l-67 -69h-52l98 108h50l71 -108h-54zM215 893l71 10l34 -144h-40z" />
    <glyph glyph-name="uni1EC1" unicode="&#x1ec1;" horiz-adv-x="458" 
d="M404 37q-17 -13 -40 -24q-20 -9 -48.5 -16.5t-66.5 -7.5q-85 0 -133 51t-48 135q0 55 17.5 102t48 81t72.5 53t91 19q45 0 77 -16t51.5 -43.5t26 -65.5t0.5 -82l-2 -14h-322v-1q-6 -41 1.5 -73t25.5 -53.5t44.5 -32.5t59.5 -11q30 0 53.5 6t40.5 14q19 9 35 20zM290 382
q-54 0 -93.5 -31.5t-58.5 -95.5h261q2 60 -25 93.5t-84 33.5zM318 568l-67 -69h-52l98 108h50l71 -108h-54zM135 722l71 10l34 -144h-40z" />
    <glyph glyph-name="uni1EC2" unicode="&#x1ec2;" horiz-adv-x="542" 
d="M489 277h-308l-32 -224h358l-7 -53h-415l84 600h415l-7 -53h-358l-31 -217h308zM393 738l-67 -69h-52l98 108h50l71 -108h-54zM412 896q15 11 25 15q8 4 20 7t27 3q32 0 52 -15.5t20 -43.5q0 -17 -4 -26.5t-9 -16.5t-11 -12t-11.5 -8.5t-8.5 -6t-4 -8.5l-4 -24h-38l4 31
q2 13 7.5 20.5t11 11.5t9 8t6.5 8t5 7.5t2 11.5q0 9 -7 14.5t-22 5.5q-10 0 -17.5 -2t-13.5 -4q-7 -3 -25 -16z" />
    <glyph glyph-name="uni1EC3" unicode="&#x1ec3;" horiz-adv-x="458" 
d="M404 37q-17 -13 -40 -24q-20 -9 -48.5 -16.5t-66.5 -7.5q-85 0 -133 51t-48 135q0 55 17.5 102t48 81t72.5 53t91 19q45 0 77 -16t51.5 -43.5t26 -65.5t0.5 -82l-2 -14h-322v-1q-6 -41 1.5 -73t25.5 -53.5t44.5 -32.5t59.5 -11q30 0 53.5 6t40.5 14q19 9 35 20zM290 382
q-54 0 -93.5 -31.5t-58.5 -95.5h261q2 60 -25 93.5t-84 33.5zM318 568l-67 -69h-52l98 108h50l71 -108h-54zM348 715q15 11 25 15q8 4 20 7t27 3q32 0 52 -15.5t20 -43.5q0 -17 -4 -26.5t-9 -16.5t-11 -12t-11.5 -8.5t-8.5 -6t-4 -8.5l-4 -24h-38l4 31q2 13 7.5 20.5
t11 11.5t9 8t6.5 8t5 7.5t2 11.5q0 9 -7 14.5t-22 5.5q-10 0 -17.5 -2t-13.5 -4q-7 -3 -25 -16z" />
    <glyph glyph-name="uni1EC4" unicode="&#x1ec4;" horiz-adv-x="542" 
d="M489 277h-308l-32 -224h358l-7 -53h-415l84 600h415l-7 -53h-358l-31 -217h308zM393 737l-67 -69h-52l98 108h50l71 -108h-54zM517 796q-22 0 -39.5 9t-33 20t-30 20t-30.5 9q-23 0 -33 -13.5t-18 -30.5l-6 -14l-39 5l8 23q10 29 30.5 52t59.5 23q21 0 38.5 -9t32.5 -20
t29.5 -20t31.5 -9q24 0 35 13.5t17 30.5l5 14l40 -4l-7 -23q-9 -29 -31 -52.5t-60 -23.5z" />
    <glyph glyph-name="uni1EC5" unicode="&#x1ec5;" horiz-adv-x="458" 
d="M404 37q-17 -13 -40 -24q-20 -9 -48.5 -16.5t-66.5 -7.5q-85 0 -133 51t-48 135q0 55 17.5 102t48 81t72.5 53t91 19q45 0 77 -16t51.5 -43.5t26 -65.5t0.5 -82l-2 -14h-322v-1q-6 -41 1.5 -73t25.5 -53.5t44.5 -32.5t59.5 -11q30 0 53.5 6t40.5 14q19 9 35 20zM290 382
q-54 0 -93.5 -31.5t-58.5 -95.5h261q2 60 -25 93.5t-84 33.5zM318 568l-67 -69h-52l98 108h50l71 -108h-54zM434 618q-22 0 -39.5 9t-33 20t-30 20t-30.5 9q-23 0 -33 -13.5t-18 -30.5l-6 -14l-39 5l8 23q10 29 30.5 52t59.5 23q21 0 38.5 -9t32.5 -20t29.5 -20t31.5 -9
q24 0 35 13.5t17 30.5l5 14l40 -4l-7 -23q-9 -29 -31 -52.5t-60 -23.5z" />
    <glyph glyph-name="uni1EC6" unicode="&#x1ec6;" horiz-adv-x="542" 
d="M489 277h-308l-32 -224h358l-7 -53h-415l84 600h415l-7 -53h-358l-31 -217h308zM393 737l-67 -69h-52l98 108h50l71 -108h-54zM225 -127q0 20 15.5 34t34.5 14q17 0 27 -11t10 -27q0 -20 -15 -34.5t-35 -14.5q-16 0 -26.5 11.5t-10.5 27.5z" />
    <glyph glyph-name="uni1EC7" unicode="&#x1ec7;" horiz-adv-x="458" 
d="M404 37q-17 -13 -40 -24q-20 -9 -48.5 -16.5t-66.5 -7.5q-85 0 -133 51t-48 135q0 55 17.5 102t48 81t72.5 53t91 19q45 0 77 -16t51.5 -43.5t26 -65.5t0.5 -82l-2 -14h-322v-1q-6 -41 1.5 -73t25.5 -53.5t44.5 -32.5t59.5 -11q30 0 53.5 6t40.5 14q19 9 35 20zM290 382
q-54 0 -93.5 -31.5t-58.5 -95.5h261q2 60 -25 93.5t-84 33.5zM318 568l-67 -69h-52l98 108h50l71 -108h-54zM163 -127q0 20 15.5 34t34.5 14q17 0 27 -11t10 -27q0 -20 -15 -34.5t-35 -14.5q-16 0 -26.5 11.5t-10.5 27.5z" />
    <glyph glyph-name="uni1EC8" unicode="&#x1ec8;" horiz-adv-x="228" 
d="M142 0h-57l84 600h57zM130 804q15 11 25 15q8 4 20 7t27 3q32 0 52 -15.5t20 -43.5q0 -17 -4 -26.5t-9 -16.5t-11 -12t-11.5 -8.5t-8.5 -6t-4 -8.5l-4 -24h-38l4 31q2 13 7.5 20.5t11 11.5t9 8t6.5 8t5 7.5t2 11.5q0 9 -7 14.5t-22 5.5q-10 0 -17.5 -2t-13.5 -4
q-7 -3 -25 -16z" />
    <glyph glyph-name="uni1EC9" unicode="&#x1ec9;" horiz-adv-x="200" 
d="M131 420h56l-59 -420h-56zM109 631q15 11 25 15q8 4 20 7t27 3q32 0 52 -15.5t20 -43.5q0 -17 -4 -26.5t-9 -16.5t-11 -12t-11.5 -8.5t-8.5 -6t-4 -8.5l-4 -24h-38l4 31q2 13 7.5 20.5t11 11.5t9 8t6.5 8t5 7.5t2 11.5q0 9 -7 14.5t-22 5.5q-10 0 -17.5 -2t-13.5 -4
q-7 -3 -25 -16z" />
    <glyph glyph-name="uni1ECA" unicode="&#x1eca;" horiz-adv-x="228" 
d="M142 0h-57l84 600h57zM46 -127q0 20 15.5 34t34.5 14q17 0 27 -11t10 -27q0 -20 -15 -34.5t-35 -14.5q-16 0 -26.5 11.5t-10.5 27.5z" />
    <glyph glyph-name="uni1ECB" unicode="&#x1ecb;" horiz-adv-x="200" 
d="M174 525q-16 0 -26 10t-10 25q0 18 14 31.5t33 13.5q15 0 25 -10.5t10 -25.5q0 -19 -14 -31.5t-32 -12.5zM131 420h56l-59 -420h-56zM32 -127q0 20 15.5 34t34.5 14q17 0 27 -11t10 -27q0 -20 -15 -34.5t-35 -14.5q-16 0 -26.5 11.5t-10.5 27.5z" />
    <glyph glyph-name="uni1ECC" unicode="&#x1ecc;" horiz-adv-x="678" 
d="M337 -14q-60 0 -107.5 20.5t-80.5 57t-50 85.5t-17 106q0 74 25.5 139.5t71.5 114t108.5 76.5t137.5 28q60 0 107.5 -20.5t80 -56.5t49.5 -85t17 -107q0 -74 -25.5 -139t-70.5 -114t-108 -77t-138 -28zM344 40q61 0 112 24t88 65t57 94.5t20 112.5q0 46 -13.5 86.5
t-39.5 71t-64 48t-87 17.5q-61 0 -111.5 -24t-87 -65t-56.5 -95t-20 -113q0 -46 13 -86.5t38.5 -70.5t63.5 -47.5t87 -17.5zM271 -127q0 20 15.5 34t34.5 14q17 0 27 -11t10 -27q0 -20 -15 -34.5t-35 -14.5q-16 0 -26.5 11.5t-10.5 27.5z" />
    <glyph glyph-name="uni1ECD" unicode="&#x1ecd;" 
d="M492 239q0 -57 -20 -103t-53.5 -78.5t-77.5 -50t-91 -17.5q-39 0 -72.5 13t-58 37.5t-38 59t-13.5 77.5q0 57 20 103.5t54 79.5t78 51.5t92 18.5q39 0 72 -13.5t57 -38.5t37.5 -60.5t13.5 -78.5zM257 36q34 0 66 13.5t57 39t40.5 62.5t15.5 83q0 34 -10 62t-28 47.5
t-42 30t-51 10.5q-34 0 -66.5 -14.5t-58 -41t-41 -63.5t-15.5 -83q0 -34 10.5 -61t28.5 -46t42 -29t52 -10zM183 -127q0 20 15.5 34t34.5 14q17 0 27 -11t10 -27q0 -20 -15 -34.5t-35 -14.5q-16 0 -26.5 11.5t-10.5 27.5z" />
    <glyph glyph-name="uni1ECE" unicode="&#x1ece;" horiz-adv-x="678" 
d="M337 -14q-60 0 -107.5 20.5t-80.5 57t-50 85.5t-17 106q0 74 25.5 139.5t71.5 114t108.5 76.5t137.5 28q60 0 107.5 -20.5t80 -56.5t49.5 -85t17 -107q0 -74 -25.5 -139t-70.5 -114t-108 -77t-138 -28zM344 40q61 0 112 24t88 65t57 94.5t20 112.5q0 46 -13.5 86.5
t-39.5 71t-64 48t-87 17.5q-61 0 -111.5 -24t-87 -65t-56.5 -95t-20 -113q0 -46 13 -86.5t38.5 -70.5t63.5 -47.5t87 -17.5zM362 804q15 11 25 15q8 4 20 7t27 3q32 0 52 -15.5t20 -43.5q0 -17 -4 -26.5t-9 -16.5t-11 -12t-11.5 -8.5t-8.5 -6t-4 -8.5l-4 -24h-38l4 31
q2 13 7.5 20.5t11 11.5t9 8t6.5 8t5 7.5t2 11.5q0 9 -7 14.5t-22 5.5q-10 0 -17.5 -2t-13.5 -4q-7 -3 -25 -16z" />
    <glyph glyph-name="uni1ECF" unicode="&#x1ecf;" 
d="M492 239q0 -57 -20 -103t-53.5 -78.5t-77.5 -50t-91 -17.5q-39 0 -72.5 13t-58 37.5t-38 59t-13.5 77.5q0 57 20 103.5t54 79.5t78 51.5t92 18.5q39 0 72 -13.5t57 -38.5t37.5 -60.5t13.5 -78.5zM257 36q34 0 66 13.5t57 39t40.5 62.5t15.5 83q0 34 -10 62t-28 47.5
t-42 30t-51 10.5q-34 0 -66.5 -14.5t-58 -41t-41 -63.5t-15.5 -83q0 -34 10.5 -61t28.5 -46t42 -29t52 -10zM260 631q15 11 25 15q8 4 20 7t27 3q32 0 52 -15.5t20 -43.5q0 -17 -4 -26.5t-9 -16.5t-11 -12t-11.5 -8.5t-8.5 -6t-4 -8.5l-4 -24h-38l4 31q2 13 7.5 20.5
t11 11.5t9 8t6.5 8t5 7.5t2 11.5q0 9 -7 14.5t-22 5.5q-10 0 -17.5 -2t-13.5 -4q-7 -3 -25 -16z" />
    <glyph glyph-name="uni1ED0" unicode="&#x1ed0;" horiz-adv-x="678" 
d="M337 -14q-60 0 -107.5 20.5t-80.5 57t-50 85.5t-17 106q0 74 25.5 139.5t71.5 114t108.5 76.5t137.5 28q60 0 107.5 -20.5t80 -56.5t49.5 -85t17 -107q0 -74 -25.5 -139t-70.5 -114t-108 -77t-138 -28zM344 40q61 0 112 24t88 65t57 94.5t20 112.5q0 46 -13.5 86.5
t-39.5 71t-64 48t-87 17.5q-61 0 -111.5 -24t-87 -65t-56.5 -95t-20 -113q0 -46 13 -86.5t38.5 -70.5t63.5 -47.5t87 -17.5zM444 737l-67 -69h-52l98 108h50l71 -108h-54zM557 757h-40l74 144l69 -10z" />
    <glyph glyph-name="uni1ED1" unicode="&#x1ed1;" 
d="M492 239q0 -57 -20 -103t-53.5 -78.5t-77.5 -50t-91 -17.5q-39 0 -72.5 13t-58 37.5t-38 59t-13.5 77.5q0 57 20 103.5t54 79.5t78 51.5t92 18.5q39 0 72 -13.5t57 -38.5t37.5 -60.5t13.5 -78.5zM257 36q34 0 66 13.5t57 39t40.5 62.5t15.5 83q0 34 -10 62t-28 47.5
t-42 30t-51 10.5q-34 0 -66.5 -14.5t-58 -41t-41 -63.5t-15.5 -83q0 -34 10.5 -61t28.5 -46t42 -29t52 -10zM338 568l-67 -69h-52l98 108h50l71 -108h-54zM459 591h-40l74 144l69 -10z" />
    <glyph glyph-name="uni1ED2" unicode="&#x1ed2;" horiz-adv-x="678" 
d="M337 -14q-60 0 -107.5 20.5t-80.5 57t-50 85.5t-17 106q0 74 25.5 139.5t71.5 114t108.5 76.5t137.5 28q60 0 107.5 -20.5t80 -56.5t49.5 -85t17 -107q0 -74 -25.5 -139t-70.5 -114t-108 -77t-138 -28zM344 40q61 0 112 24t88 65t57 94.5t20 112.5q0 46 -13.5 86.5
t-39.5 71t-64 48t-87 17.5q-61 0 -111.5 -24t-87 -65t-56.5 -95t-20 -113q0 -46 13 -86.5t38.5 -70.5t63.5 -47.5t87 -17.5zM446 736l-67 -69h-52l98 108h50l71 -108h-54zM271 892l71 10l34 -144h-40z" />
    <glyph glyph-name="uni1ED3" unicode="&#x1ed3;" 
d="M492 239q0 -57 -20 -103t-53.5 -78.5t-77.5 -50t-91 -17.5q-39 0 -72.5 13t-58 37.5t-38 59t-13.5 77.5q0 57 20 103.5t54 79.5t78 51.5t92 18.5q39 0 72 -13.5t57 -38.5t37.5 -60.5t13.5 -78.5zM257 36q34 0 66 13.5t57 39t40.5 62.5t15.5 83q0 34 -10 62t-28 47.5
t-42 30t-51 10.5q-34 0 -66.5 -14.5t-58 -41t-41 -63.5t-15.5 -83q0 -34 10.5 -61t28.5 -46t42 -29t52 -10zM338 568l-67 -69h-52l98 108h50l71 -108h-54zM168 725l71 10l34 -144h-40z" />
    <glyph glyph-name="uni1ED4" unicode="&#x1ed4;" horiz-adv-x="678" 
d="M337 -14q-60 0 -107.5 20.5t-80.5 57t-50 85.5t-17 106q0 74 25.5 139.5t71.5 114t108.5 76.5t137.5 28q60 0 107.5 -20.5t80 -56.5t49.5 -85t17 -107q0 -74 -25.5 -139t-70.5 -114t-108 -77t-138 -28zM344 40q61 0 112 24t88 65t57 94.5t20 112.5q0 46 -13.5 86.5
t-39.5 71t-64 48t-87 17.5q-61 0 -111.5 -24t-87 -65t-56.5 -95t-20 -113q0 -46 13 -86.5t38.5 -70.5t63.5 -47.5t87 -17.5zM444 738l-67 -69h-52l98 108h50l71 -108h-54zM463 896q15 11 25 15q8 4 20 7t27 3q32 0 52 -15.5t20 -43.5q0 -17 -4 -26.5t-9 -16.5t-11 -12
t-11.5 -8.5t-8.5 -6t-4 -8.5l-4 -24h-38l4 31q2 13 7.5 20.5t11 11.5t9 8t6.5 8t5 7.5t2 11.5q0 9 -7 14.5t-22 5.5q-10 0 -17.5 -2t-13.5 -4q-7 -3 -25 -16z" />
    <glyph glyph-name="uni1ED5" unicode="&#x1ed5;" 
d="M492 239q0 -57 -20 -103t-53.5 -78.5t-77.5 -50t-91 -17.5q-39 0 -72.5 13t-58 37.5t-38 59t-13.5 77.5q0 57 20 103.5t54 79.5t78 51.5t92 18.5q39 0 72 -13.5t57 -38.5t37.5 -60.5t13.5 -78.5zM257 36q34 0 66 13.5t57 39t40.5 62.5t15.5 83q0 34 -10 62t-28 47.5
t-42 30t-51 10.5q-34 0 -66.5 -14.5t-58 -41t-41 -63.5t-15.5 -83q0 -34 10.5 -61t28.5 -46t42 -29t52 -10zM338 568l-67 -69h-52l98 108h50l71 -108h-54zM368 720q15 11 25 15q8 4 20 7t27 3q32 0 52 -15.5t20 -43.5q0 -17 -4 -26.5t-9 -16.5t-11 -12t-11.5 -8.5t-8.5 -6
t-4 -8.5l-4 -24h-38l4 31q2 13 7.5 20.5t11 11.5t9 8t6.5 8t5 7.5t2 11.5q0 9 -7 14.5t-22 5.5q-10 0 -17.5 -2t-13.5 -4q-7 -3 -25 -16z" />
    <glyph glyph-name="uni1ED6" unicode="&#x1ed6;" horiz-adv-x="678" 
d="M337 -14q-60 0 -107.5 20.5t-80.5 57t-50 85.5t-17 106q0 74 25.5 139.5t71.5 114t108.5 76.5t137.5 28q60 0 107.5 -20.5t80 -56.5t49.5 -85t17 -107q0 -74 -25.5 -139t-70.5 -114t-108 -77t-138 -28zM344 40q61 0 112 24t88 65t57 94.5t20 112.5q0 46 -13.5 86.5
t-39.5 71t-64 48t-87 17.5q-61 0 -111.5 -24t-87 -65t-56.5 -95t-20 -113q0 -46 13 -86.5t38.5 -70.5t63.5 -47.5t87 -17.5zM444 737l-67 -69h-52l98 108h50l71 -108h-54zM568 796q-22 0 -39.5 9t-33 20t-30 20t-30.5 9q-23 0 -33 -13.5t-18 -30.5l-6 -14l-39 5l8 23
q10 29 30.5 52t59.5 23q21 0 38.5 -9t32.5 -20t29.5 -20t31.5 -9q24 0 35 13.5t17 30.5l5 14l40 -4l-7 -23q-9 -29 -31 -52.5t-60 -23.5z" />
    <glyph glyph-name="uni1ED7" unicode="&#x1ed7;" 
d="M492 239q0 -57 -20 -103t-53.5 -78.5t-77.5 -50t-91 -17.5q-39 0 -72.5 13t-58 37.5t-38 59t-13.5 77.5q0 57 20 103.5t54 79.5t78 51.5t92 18.5q39 0 72 -13.5t57 -38.5t37.5 -60.5t13.5 -78.5zM257 36q34 0 66 13.5t57 39t40.5 62.5t15.5 83q0 34 -10 62t-28 47.5
t-42 30t-51 10.5q-34 0 -66.5 -14.5t-58 -41t-41 -63.5t-15.5 -83q0 -34 10.5 -61t28.5 -46t42 -29t52 -10zM338 568l-67 -69h-52l98 108h50l71 -108h-54zM451 625q-22 0 -39.5 9t-33 20t-30 20t-30.5 9q-23 0 -33 -13.5t-18 -30.5l-6 -14l-39 5l8 23q10 29 30.5 52t59.5 23
q21 0 38.5 -9t32.5 -20t29.5 -20t31.5 -9q24 0 35 13.5t17 30.5l5 14l40 -4l-7 -23q-9 -29 -31 -52.5t-60 -23.5z" />
    <glyph glyph-name="uni1ED8" unicode="&#x1ed8;" horiz-adv-x="678" 
d="M337 -14q-60 0 -107.5 20.5t-80.5 57t-50 85.5t-17 106q0 74 25.5 139.5t71.5 114t108.5 76.5t137.5 28q60 0 107.5 -20.5t80 -56.5t49.5 -85t17 -107q0 -74 -25.5 -139t-70.5 -114t-108 -77t-138 -28zM344 40q61 0 112 24t88 65t57 94.5t20 112.5q0 46 -13.5 86.5
t-39.5 71t-64 48t-87 17.5q-61 0 -111.5 -24t-87 -65t-56.5 -95t-20 -113q0 -46 13 -86.5t38.5 -70.5t63.5 -47.5t87 -17.5zM444 737l-67 -69h-52l98 108h50l71 -108h-54zM271 -127q0 20 15.5 34t34.5 14q17 0 27 -11t10 -27q0 -20 -15 -34.5t-35 -14.5q-16 0 -26.5 11.5
t-10.5 27.5z" />
    <glyph glyph-name="uni1ED9" unicode="&#x1ed9;" 
d="M492 239q0 -57 -20 -103t-53.5 -78.5t-77.5 -50t-91 -17.5q-39 0 -72.5 13t-58 37.5t-38 59t-13.5 77.5q0 57 20 103.5t54 79.5t78 51.5t92 18.5q39 0 72 -13.5t57 -38.5t37.5 -60.5t13.5 -78.5zM257 36q34 0 66 13.5t57 39t40.5 62.5t15.5 83q0 34 -10 62t-28 47.5
t-42 30t-51 10.5q-34 0 -66.5 -14.5t-58 -41t-41 -63.5t-15.5 -83q0 -34 10.5 -61t28.5 -46t42 -29t52 -10zM338 568l-67 -69h-52l98 108h50l71 -108h-54zM183 -127q0 20 15.5 34t34.5 14q17 0 27 -11t10 -27q0 -20 -15 -34.5t-35 -14.5q-16 0 -26.5 11.5t-10.5 27.5z" />
    <glyph glyph-name="uni1EDB" unicode="&#x1edb;" 
d="M257 36q34 0 66 13.5t57 39t40.5 62.5t15.5 83q0 34 -10 62t-28 47.5t-42 30t-51 10.5q-34 0 -66.5 -14.5t-58 -41t-41 -63.5t-15.5 -83q0 -34 10.5 -61t28.5 -46t42 -29t52 -10zM432 387l9 -9q24 -25 37.5 -60.5t13.5 -78.5q0 -57 -20 -103t-53.5 -78.5t-77.5 -50
t-91 -17.5q-39 0 -72.5 13t-58 37.5t-38 59t-13.5 77.5q0 57 20 103.5t54 79.5t78 51.5t92 18.5q35 0 65 -11q42 1 74 28q32 26 41 66h48q-13 -59 -61 -98q-22 -18 -47 -28zM338 499h-40l74 144l69 -10z" />
    <glyph glyph-name="uni1EDA" unicode="&#x1eda;" horiz-adv-x="678" 
d="M344 40q61 0 112 24t88 65t57 94.5t20 112.5q0 46 -13.5 86.5t-39.5 71t-64 48t-87 17.5q-61 0 -111.5 -24t-87 -65t-56.5 -95t-20 -113q0 -46 13 -86.5t38.5 -70.5t63.5 -47.5t87 -17.5zM577 567q20 -13 36 -31q32 -36 49 -85t17 -107q0 -74 -25.5 -139t-70.5 -114
t-108 -77t-138 -28q-60 0 -107.5 20.5t-80.5 57t-50 85.5t-17 106q0 74 25.5 139.5t71.5 114t108.5 76.5t137.5 28q54 0 98 -17q37 3 66 28q32 26 41 66h48q-13 -59 -61 -98q-19 -15 -40 -25zM428 668h-40l74 144l69 -10z" />
    <glyph glyph-name="uni1EDC" unicode="&#x1edc;" horiz-adv-x="678" 
d="M344 40q61 0 112 24t88 65t57 94.5t20 112.5q0 46 -13.5 86.5t-39.5 71t-64 48t-87 17.5q-61 0 -111.5 -24t-87 -65t-56.5 -95t-20 -113q0 -46 13 -86.5t38.5 -70.5t63.5 -47.5t87 -17.5zM577 567q20 -13 36 -31q32 -36 49 -85t17 -107q0 -74 -25.5 -139t-70.5 -114
t-108 -77t-138 -28q-60 0 -107.5 20.5t-80.5 57t-50 85.5t-17 106q0 74 25.5 139.5t71.5 114t108.5 76.5t137.5 28q54 0 98 -17q37 3 66 28q32 26 41 66h48q-13 -59 -61 -98q-19 -15 -40 -25zM355 802l71 10l34 -144h-40z" />
    <glyph glyph-name="uni1EDE" unicode="&#x1ede;" horiz-adv-x="678" 
d="M344 40q61 0 112 24t88 65t57 94.5t20 112.5q0 46 -13.5 86.5t-39.5 71t-64 48t-87 17.5q-61 0 -111.5 -24t-87 -65t-56.5 -95t-20 -113q0 -46 13 -86.5t38.5 -70.5t63.5 -47.5t87 -17.5zM577 567q20 -13 36 -31q32 -36 49 -85t17 -107q0 -74 -25.5 -139t-70.5 -114
t-108 -77t-138 -28q-60 0 -107.5 20.5t-80.5 57t-50 85.5t-17 106q0 74 25.5 139.5t71.5 114t108.5 76.5t137.5 28q54 0 98 -17q37 3 66 28q32 26 41 66h48q-13 -59 -61 -98q-19 -15 -40 -25zM355 804q15 11 25 15q8 4 20 7t27 3q32 0 52 -15.5t20 -43.5q0 -17 -4 -26.5
t-9 -16.5t-11 -12t-11.5 -8.5t-8.5 -6t-4 -8.5l-4 -24h-38l4 31q2 13 7.5 20.5t11 11.5t9 8t6.5 8t5 7.5t2 11.5q0 9 -7 14.5t-22 5.5q-10 0 -17.5 -2t-13.5 -4q-7 -3 -25 -16z" />
    <glyph glyph-name="uni1EDF" unicode="&#x1edf;" 
d="M257 36q34 0 66 13.5t57 39t40.5 62.5t15.5 83q0 34 -10 62t-28 47.5t-42 30t-51 10.5q-34 0 -66.5 -14.5t-58 -41t-41 -63.5t-15.5 -83q0 -34 10.5 -61t28.5 -46t42 -29t52 -10zM432 387l9 -9q24 -25 37.5 -60.5t13.5 -78.5q0 -57 -20 -103t-53.5 -78.5t-77.5 -50
t-91 -17.5q-39 0 -72.5 13t-58 37.5t-38 59t-13.5 77.5q0 57 20 103.5t54 79.5t78 51.5t92 18.5q35 0 65 -11q42 1 74 28q32 26 41 66h48q-13 -59 -61 -98q-22 -18 -47 -28zM266 635q15 11 25 15q8 4 20 7t27 3q32 0 52 -15.5t20 -43.5q0 -17 -4 -26.5t-9 -16.5t-11 -12
t-11.5 -8.5t-8.5 -6t-4 -8.5l-4 -24h-38l4 31q2 13 7.5 20.5t11 11.5t9 8t6.5 8t5 7.5t2 11.5q0 9 -7 14.5t-22 5.5q-10 0 -17.5 -2t-13.5 -4q-7 -3 -25 -16z" />
    <glyph glyph-name="uni1EE0" unicode="&#x1ee0;" horiz-adv-x="678" 
d="M344 40q61 0 112 24t88 65t57 94.5t20 112.5q0 46 -13.5 86.5t-39.5 71t-64 48t-87 17.5q-61 0 -111.5 -24t-87 -65t-56.5 -95t-20 -113q0 -46 13 -86.5t38.5 -70.5t63.5 -47.5t87 -17.5zM577 567q20 -13 36 -31q32 -36 49 -85t17 -107q0 -74 -25.5 -139t-70.5 -114
t-108 -77t-138 -28q-60 0 -107.5 20.5t-80.5 57t-50 85.5t-17 106q0 74 25.5 139.5t71.5 114t108.5 76.5t137.5 28q54 0 98 -17q37 3 66 28q32 26 41 66h48q-13 -59 -61 -98q-19 -15 -40 -25zM488 668q-22 0 -39.5 9t-33 20t-30 20t-30.5 9q-23 0 -33 -13.5t-18 -30.5
l-6 -14l-39 5l8 23q10 29 30.5 52t59.5 23q21 0 38.5 -9t32.5 -20t29.5 -20t31.5 -9q24 0 35 13.5t17 30.5l5 14l40 -4l-7 -23q-9 -29 -31 -52.5t-60 -23.5z" />
    <glyph glyph-name="uni1EE1" unicode="&#x1ee1;" 
d="M257 36q34 0 66 13.5t57 39t40.5 62.5t15.5 83q0 34 -10 62t-28 47.5t-42 30t-51 10.5q-34 0 -66.5 -14.5t-58 -41t-41 -63.5t-15.5 -83q0 -34 10.5 -61t28.5 -46t42 -29t52 -10zM432 387l9 -9q24 -25 37.5 -60.5t13.5 -78.5q0 -57 -20 -103t-53.5 -78.5t-77.5 -50
t-91 -17.5q-39 0 -72.5 13t-58 37.5t-38 59t-13.5 77.5q0 57 20 103.5t54 79.5t78 51.5t92 18.5q35 0 65 -11q42 1 74 28q32 26 41 66h48q-13 -59 -61 -98q-22 -18 -47 -28zM333 499q-22 0 -39.5 9t-33 20t-30 20t-30.5 9q-23 0 -33 -13.5t-18 -30.5l-6 -14l-39 5l8 23
q10 29 30.5 52t59.5 23q21 0 38.5 -9t32.5 -20t29.5 -20t31.5 -9q24 0 35 13.5t17 30.5l5 14l40 -4l-7 -23q-9 -29 -31 -52.5t-60 -23.5z" />
    <glyph glyph-name="uni1EE2" unicode="&#x1ee2;" horiz-adv-x="678" 
d="M344 40q61 0 112 24t88 65t57 94.5t20 112.5q0 46 -13.5 86.5t-39.5 71t-64 48t-87 17.5q-61 0 -111.5 -24t-87 -65t-56.5 -95t-20 -113q0 -46 13 -86.5t38.5 -70.5t63.5 -47.5t87 -17.5zM577 567q20 -13 36 -31q32 -36 49 -85t17 -107q0 -74 -25.5 -139t-70.5 -114
t-108 -77t-138 -28q-60 0 -107.5 20.5t-80.5 57t-50 85.5t-17 106q0 74 25.5 139.5t71.5 114t108.5 76.5t137.5 28q54 0 98 -17q37 3 66 28q32 26 41 66h48q-13 -59 -61 -98q-19 -15 -40 -25zM290 -127q0 20 15.5 34t34.5 14q17 0 27 -11t10 -27q0 -20 -15 -34.5t-35 -14.5
q-16 0 -26.5 11.5t-10.5 27.5z" />
    <glyph glyph-name="uni1EE3" unicode="&#x1ee3;" 
d="M257 36q34 0 66 13.5t57 39t40.5 62.5t15.5 83q0 34 -10 62t-28 47.5t-42 30t-51 10.5q-34 0 -66.5 -14.5t-58 -41t-41 -63.5t-15.5 -83q0 -34 10.5 -61t28.5 -46t42 -29t52 -10zM432 387l9 -9q24 -25 37.5 -60.5t13.5 -78.5q0 -57 -20 -103t-53.5 -78.5t-77.5 -50
t-91 -17.5q-39 0 -72.5 13t-58 37.5t-38 59t-13.5 77.5q0 57 20 103.5t54 79.5t78 51.5t92 18.5q35 0 65 -11q42 1 74 28q32 26 41 66h48q-13 -59 -61 -98q-22 -18 -47 -28zM224 -127q0 20 15.5 34t34.5 14q17 0 27 -11t10 -27q0 -20 -15 -34.5t-35 -14.5q-16 0 -26.5 11.5
t-10.5 27.5z" />
    <glyph glyph-name="uni1EE4" unicode="&#x1ee4;" horiz-adv-x="628" 
d="M312 -14q-56 0 -97.5 19t-67 53.5t-34.5 83.5t-1 108l49 350h57l-49 -350q-6 -46 -0.5 -84.5t24.5 -66.5t50.5 -43.5t76.5 -15.5t81 15.5t62.5 43.5t43 66.5t22.5 84.5l49 350h57l-49 -350q-8 -59 -30.5 -108t-57.5 -83.5t-82 -53.5t-104 -19zM246 -127q0 20 15.5 34
t34.5 14q17 0 27 -11t10 -27q0 -20 -15 -34.5t-35 -14.5q-16 0 -26.5 11.5t-10.5 27.5z" />
    <glyph glyph-name="uni1EE5" unicode="&#x1ee5;" horiz-adv-x="505" 
d="M435 0h-37v68h-2q-3 -3 -13.5 -16t-30 -26.5t-49.5 -24.5t-70 -11q-42 0 -71.5 14.5t-47 40.5t-23.5 61.5t0 78.5l33 235h56l-32 -229q-5 -33 -1.5 -61t15.5 -48.5t33.5 -32t53.5 -11.5q35 0 62 12.5t46 31.5t30.5 41.5t14.5 41.5l36 255h56zM182 -127q0 20 15.5 34
t34.5 14q17 0 27 -11t10 -27q0 -20 -15 -34.5t-35 -14.5q-16 0 -26.5 11.5t-10.5 27.5z" />
    <glyph glyph-name="uni1EE6" unicode="&#x1ee6;" horiz-adv-x="628" 
d="M312 -14q-56 0 -97.5 19t-67 53.5t-34.5 83.5t-1 108l49 350h57l-49 -350q-6 -46 -0.5 -84.5t24.5 -66.5t50.5 -43.5t76.5 -15.5t81 15.5t62.5 43.5t43 66.5t22.5 84.5l49 350h57l-49 -350q-8 -59 -30.5 -108t-57.5 -83.5t-82 -53.5t-104 -19zM344 804q15 11 25 15
q8 4 20 7t27 3q32 0 52 -15.5t20 -43.5q0 -17 -4 -26.5t-9 -16.5t-11 -12t-11.5 -8.5t-8.5 -6t-4 -8.5l-4 -24h-38l4 31q2 13 7.5 20.5t11 11.5t9 8t6.5 8t5 7.5t2 11.5q0 9 -7 14.5t-22 5.5q-10 0 -17.5 -2t-13.5 -4q-7 -3 -25 -16z" />
    <glyph glyph-name="uni1EE7" unicode="&#x1ee7;" horiz-adv-x="505" 
d="M435 0h-37v68h-2q-3 -3 -13.5 -16t-30 -26.5t-49.5 -24.5t-70 -11q-42 0 -71.5 14.5t-47 40.5t-23.5 61.5t0 78.5l33 235h56l-32 -229q-5 -33 -1.5 -61t15.5 -48.5t33.5 -32t53.5 -11.5q35 0 62 12.5t46 31.5t30.5 41.5t14.5 41.5l36 255h56zM259 631q15 11 25 15
q8 4 20 7t27 3q32 0 52 -15.5t20 -43.5q0 -17 -4 -26.5t-9 -16.5t-11 -12t-11.5 -8.5t-8.5 -6t-4 -8.5l-4 -24h-38l4 31q2 13 7.5 20.5t11 11.5t9 8t6.5 8t5 7.5t2 11.5q0 9 -7 14.5t-22 5.5q-10 0 -17.5 -2t-13.5 -4q-7 -3 -25 -16z" />
    <glyph glyph-name="uni1EE8" unicode="&#x1ee8;" horiz-adv-x="628" 
d="M629 560l-43 -310q-8 -59 -30.5 -108t-57.5 -83.5t-82 -53.5t-104 -19q-56 0 -97.5 19t-67 53.5t-34.5 83.5t-1 108l49 350h57l-49 -350q-6 -46 -0.5 -84.5t24.5 -66.5t50.5 -43.5t76.5 -15.5t81 15.5t62.5 43.5t43 66.5t22.5 84.5l49 350h38q24 7 45 24q32 26 41 66h48
q-13 -59 -61 -98q-27 -22 -60 -32zM423 668h-40l74 144l69 -10z" />
    <glyph glyph-name="uni1EE9" unicode="&#x1ee9;" horiz-adv-x="505" 
d="M489 383l-54 -383h-37v68h-2q-3 -3 -13.5 -16t-30 -26.5t-49.5 -24.5t-70 -11q-42 0 -71.5 14.5t-47 40.5t-23.5 61.5t0 78.5l33 235h56l-32 -229q-5 -33 -1.5 -61t15.5 -48.5t33.5 -32t53.5 -11.5q35 0 62 12.5t46 31.5t30.5 41.5t14.5 41.5l36 255h20q34 4 61 27
q32 26 41 66h48q-13 -59 -61 -98q-27 -22 -58 -32zM337 497h-40l74 144l69 -10z" />
    <glyph glyph-name="uni1EEA" unicode="&#x1eea;" horiz-adv-x="628" 
d="M629 560l-43 -310q-8 -59 -30.5 -108t-57.5 -83.5t-82 -53.5t-104 -19q-56 0 -97.5 19t-67 53.5t-34.5 83.5t-1 108l49 350h57l-49 -350q-6 -46 -0.5 -84.5t24.5 -66.5t50.5 -43.5t76.5 -15.5t81 15.5t62.5 43.5t43 66.5t22.5 84.5l49 350h38q24 7 45 24q32 26 41 66h48
q-13 -59 -61 -98q-27 -22 -60 -32zM325 802l71 10l34 -144h-40z" />
    <glyph glyph-name="uni1EEB" unicode="&#x1eeb;" horiz-adv-x="505" 
d="M489 383l-54 -383h-37v68h-2q-3 -3 -13.5 -16t-30 -26.5t-49.5 -24.5t-70 -11q-42 0 -71.5 14.5t-47 40.5t-23.5 61.5t0 78.5l33 235h56l-32 -229q-5 -33 -1.5 -61t15.5 -48.5t33.5 -32t53.5 -11.5q35 0 62 12.5t46 31.5t30.5 41.5t14.5 41.5l36 255h20q34 4 61 27
q32 26 41 66h48q-13 -59 -61 -98q-27 -22 -58 -32zM240 631l71 10l34 -144h-40z" />
    <glyph glyph-name="uni1EEC" unicode="&#x1eec;" horiz-adv-x="628" 
d="M629 560l-43 -310q-8 -59 -30.5 -108t-57.5 -83.5t-82 -53.5t-104 -19q-56 0 -97.5 19t-67 53.5t-34.5 83.5t-1 108l49 350h57l-49 -350q-6 -46 -0.5 -84.5t24.5 -66.5t50.5 -43.5t76.5 -15.5t81 15.5t62.5 43.5t43 66.5t22.5 84.5l49 350h38q24 7 45 24q32 26 41 66h48
q-13 -59 -61 -98q-27 -22 -60 -32zM349 804q15 11 25 15q8 4 20 7t27 3q32 0 52 -15.5t20 -43.5q0 -17 -4 -26.5t-9 -16.5t-11 -12t-11.5 -8.5t-8.5 -6t-4 -8.5l-4 -24h-38l4 31q2 13 7.5 20.5t11 11.5t9 8t6.5 8t5 7.5t2 11.5q0 9 -7 14.5t-22 5.5q-10 0 -17.5 -2t-13.5 -4
q-7 -3 -25 -16z" />
    <glyph glyph-name="uni1EED" unicode="&#x1eed;" horiz-adv-x="505" 
d="M489 383l-54 -383h-37v68h-2q-3 -3 -13.5 -16t-30 -26.5t-49.5 -24.5t-70 -11q-42 0 -71.5 14.5t-47 40.5t-23.5 61.5t0 78.5l33 235h56l-32 -229q-5 -33 -1.5 -61t15.5 -48.5t33.5 -32t53.5 -11.5q35 0 62 12.5t46 31.5t30.5 41.5t14.5 41.5l36 255h20q34 4 61 27
q32 26 41 66h48q-13 -59 -61 -98q-27 -22 -58 -32zM248 635q15 11 25 15q8 4 20 7t27 3q32 0 52 -15.5t20 -43.5q0 -17 -4 -26.5t-9 -16.5t-11 -12t-11.5 -8.5t-8.5 -6t-4 -8.5l-4 -24h-38l4 31q2 13 7.5 20.5t11 11.5t9 8t6.5 8t5 7.5t2 11.5q0 9 -7 14.5t-22 5.5
q-10 0 -17.5 -2t-13.5 -4q-7 -3 -25 -16z" />
    <glyph glyph-name="uni1EEE" unicode="&#x1eee;" horiz-adv-x="628" 
d="M629 560l-43 -310q-8 -59 -30.5 -108t-57.5 -83.5t-82 -53.5t-104 -19q-56 0 -97.5 19t-67 53.5t-34.5 83.5t-1 108l49 350h57l-49 -350q-6 -46 -0.5 -84.5t24.5 -66.5t50.5 -43.5t76.5 -15.5t81 15.5t62.5 43.5t43 66.5t22.5 84.5l49 350h38q24 7 45 24q32 26 41 66h48
q-13 -59 -61 -98q-27 -22 -60 -32zM482 668q-22 0 -39.5 9t-33 20t-30 20t-30.5 9q-23 0 -33 -13.5t-18 -30.5l-6 -14l-39 5l8 23q10 29 30.5 52t59.5 23q21 0 38.5 -9t32.5 -20t29.5 -20t31.5 -9q24 0 35 13.5t17 30.5l5 14l40 -4l-7 -23q-9 -29 -31 -52.5t-60 -23.5z" />
    <glyph glyph-name="uni1EEF" unicode="&#x1eef;" horiz-adv-x="505" 
d="M489 383l-54 -383h-37v68h-2q-3 -3 -13.5 -16t-30 -26.5t-49.5 -24.5t-70 -11q-42 0 -71.5 14.5t-47 40.5t-23.5 61.5t0 78.5l33 235h56l-32 -229q-5 -33 -1.5 -61t15.5 -48.5t33.5 -32t53.5 -11.5q35 0 62 12.5t46 31.5t30.5 41.5t14.5 41.5l36 255h20q34 4 61 27
q32 26 41 66h48q-13 -59 -61 -98q-27 -22 -58 -32zM397 499q-22 0 -39.5 9t-33 20t-30 20t-30.5 9q-23 0 -33 -13.5t-18 -30.5l-6 -14l-39 5l8 23q10 29 30.5 52t59.5 23q21 0 38.5 -9t32.5 -20t29.5 -20t31.5 -9q24 0 35 13.5t17 30.5l5 14l40 -4l-7 -23q-9 -29 -31 -52.5
t-60 -23.5z" />
    <glyph glyph-name="uni1EF0" unicode="&#x1ef0;" horiz-adv-x="628" 
d="M629 560l-43 -310q-8 -59 -30.5 -108t-57.5 -83.5t-82 -53.5t-104 -19q-56 0 -97.5 19t-67 53.5t-34.5 83.5t-1 108l49 350h57l-49 -350q-6 -46 -0.5 -84.5t24.5 -66.5t50.5 -43.5t76.5 -15.5t81 15.5t62.5 43.5t43 66.5t22.5 84.5l49 350h38q24 7 45 24q32 26 41 66h48
q-13 -59 -61 -98q-27 -22 -60 -32zM255 -127q0 20 15.5 34t34.5 14q17 0 27 -11t10 -27q0 -20 -15 -34.5t-35 -14.5q-16 0 -26.5 11.5t-10.5 27.5z" />
    <glyph glyph-name="uni1EF1" unicode="&#x1ef1;" horiz-adv-x="505" 
d="M489 383l-54 -383h-37v68h-2q-3 -3 -13.5 -16t-30 -26.5t-49.5 -24.5t-70 -11q-42 0 -71.5 14.5t-47 40.5t-23.5 61.5t0 78.5l33 235h56l-32 -229q-5 -33 -1.5 -61t15.5 -48.5t33.5 -32t53.5 -11.5q35 0 62 12.5t46 31.5t30.5 41.5t14.5 41.5l36 255h20q34 4 61 27
q32 26 41 66h48q-13 -59 -61 -98q-27 -22 -58 -32zM208 -127q0 20 15.5 34t34.5 14q17 0 27 -11t10 -27q0 -20 -15 -34.5t-35 -14.5q-16 0 -26.5 11.5t-10.5 27.5z" />
    <glyph glyph-name="Ygrave" unicode="&#x1ef2;" horiz-adv-x="533" 
d="M536 600h66l-275 -369l-32 -231h-57l32 231l-171 369h67l127 -282l12 -36h3l23 36zM272 802l71 10l34 -144h-40z" />
    <glyph glyph-name="ygrave" unicode="&#x1ef3;" 
d="M492 420l-58 -412q-6 -42 -23 -76t-44 -59t-64.5 -38.5t-83.5 -13.5q-44 0 -73 9.5t-47 21.5q-21 13 -33 31l36 38q12 -15 30 -26q15 -10 38 -17.5t55 -7.5q67 0 105 35.5t47 101.5l7 49q-7 -8 -19.5 -19.5t-31 -22t-42.5 -17.5t-55 -7q-44 0 -75 14.5t-49 40t-24 61
t0 78.5l33 236h56l-32 -230q-5 -33 -1.5 -61t16 -48.5t34 -32t53.5 -11.5q35 0 62 13t45.5 32t30 41t14.5 41l36 256h57zM220 633l71 10l34 -144h-40z" />
    <glyph glyph-name="uni1EF4" unicode="&#x1ef4;" horiz-adv-x="533" 
d="M536 600h66l-275 -369l-32 -231h-57l32 231l-171 369h67l127 -282l12 -36h3l23 36zM199 -127q0 20 15.5 34t34.5 14q17 0 27 -11t10 -27q0 -20 -15 -34.5t-35 -14.5q-16 0 -26.5 11.5t-10.5 27.5z" />
    <glyph glyph-name="uni1EF5" unicode="&#x1ef5;" 
d="M492 420l-58 -412q-6 -42 -23 -76t-44 -59t-64.5 -38.5t-83.5 -13.5q-44 0 -73 9.5t-47 21.5q-21 13 -33 31l36 38q12 -15 30 -26q15 -10 38 -17.5t55 -7.5q67 0 105 35.5t47 101.5l7 49q-7 -8 -19.5 -19.5t-31 -22t-42.5 -17.5t-55 -7q-44 0 -75 14.5t-49 40t-24 61
t0 78.5l33 236h56l-32 -230q-5 -33 -1.5 -61t16 -48.5t34 -32t53.5 -11.5q35 0 62 13t45.5 32t30 41t14.5 41l36 256h57zM408 -127q0 20 15.5 34t34.5 14q17 0 27 -11t10 -27q0 -20 -15 -34.5t-35 -14.5q-16 0 -26.5 11.5t-10.5 27.5z" />
    <glyph glyph-name="uni1EF6" unicode="&#x1ef6;" horiz-adv-x="533" 
d="M536 600h66l-275 -369l-32 -231h-57l32 231l-171 369h67l127 -282l12 -36h3l23 36zM283 804q15 11 25 15q8 4 20 7t27 3q32 0 52 -15.5t20 -43.5q0 -17 -4 -26.5t-9 -16.5t-11 -12t-11.5 -8.5t-8.5 -6t-4 -8.5l-4 -24h-38l4 31q2 13 7.5 20.5t11 11.5t9 8t6.5 8t5 7.5
t2 11.5q0 9 -7 14.5t-22 5.5q-10 0 -17.5 -2t-13.5 -4q-7 -3 -25 -16z" />
    <glyph glyph-name="uni1EF7" unicode="&#x1ef7;" 
d="M492 420l-58 -412q-6 -42 -23 -76t-44 -59t-64.5 -38.5t-83.5 -13.5q-44 0 -73 9.5t-47 21.5q-21 13 -33 31l36 38q12 -15 30 -26q15 -10 38 -17.5t55 -7.5q67 0 105 35.5t47 101.5l7 49q-7 -8 -19.5 -19.5t-31 -22t-42.5 -17.5t-55 -7q-44 0 -75 14.5t-49 40t-24 61
t0 78.5l33 236h56l-32 -230q-5 -33 -1.5 -61t16 -48.5t34 -32t53.5 -11.5q35 0 62 13t45.5 32t30 41t14.5 41l36 256h57zM235 635q15 11 25 15q8 4 20 7t27 3q32 0 52 -15.5t20 -43.5q0 -17 -4 -26.5t-9 -16.5t-11 -12t-11.5 -8.5t-8.5 -6t-4 -8.5l-4 -24h-38l4 31
q2 13 7.5 20.5t11 11.5t9 8t6.5 8t5 7.5t2 11.5q0 9 -7 14.5t-22 5.5q-10 0 -17.5 -2t-13.5 -4q-7 -3 -25 -16z" />
    <glyph glyph-name="uni1EF8" unicode="&#x1ef8;" horiz-adv-x="533" 
d="M536 600h66l-275 -369l-32 -231h-57l32 231l-171 369h67l127 -282l12 -36h3l23 36zM422 668q-22 0 -39.5 9t-33 20t-30 20t-30.5 9q-23 0 -33 -13.5t-18 -30.5l-6 -14l-39 5l8 23q10 29 30.5 52t59.5 23q21 0 38.5 -9t32.5 -20t29.5 -20t31.5 -9q24 0 35 13.5t17 30.5
l5 14l40 -4l-7 -23q-9 -29 -31 -52.5t-60 -23.5z" />
    <glyph glyph-name="uni1EF9" unicode="&#x1ef9;" 
d="M492 420l-58 -412q-6 -42 -23 -76t-44 -59t-64.5 -38.5t-83.5 -13.5q-44 0 -73 9.5t-47 21.5q-21 13 -33 31l36 38q12 -15 30 -26q15 -10 38 -17.5t55 -7.5q67 0 105 35.5t47 101.5l7 49q-7 -8 -19.5 -19.5t-31 -22t-42.5 -17.5t-55 -7q-44 0 -75 14.5t-49 40t-24 61
t0 78.5l33 236h56l-32 -230q-5 -33 -1.5 -61t16 -48.5t34 -32t53.5 -11.5q35 0 62 13t45.5 32t30 41t14.5 41l36 256h57zM390 499q-22 0 -39.5 9t-33 20t-30 20t-30.5 9q-23 0 -33 -13.5t-18 -30.5l-6 -14l-39 5l8 23q10 29 30.5 52t59.5 23q21 0 38.5 -9t32.5 -20t29.5 -20
t31.5 -9q24 0 35 13.5t17 30.5l5 14l40 -4l-7 -23q-9 -29 -31 -52.5t-60 -23.5z" />
    <glyph glyph-name="abreve" unicode="&#x103;" horiz-adv-x="524" 
d="M455 341l19 79h39l-59 -420h-39l3 79h-3q-16 -26 -41 -45q-21 -17 -54.5 -30.5t-80.5 -13.5q-37 0 -68.5 13.5t-54 38t-35 59.5t-12.5 77q0 55 19 101.5t50.5 80t73.5 52t87 18.5q48 0 77.5 -14t46.5 -31q19 -19 29 -44h3zM434 237q0 69 -37.5 107t-93.5 38
q-35 0 -67 -14.5t-56 -41t-38.5 -62.5t-14.5 -79q0 -66 35.5 -106.5t92.5 -40.5q34 0 66.5 15t57.5 42t40 63.5t15 78.5zM461 614q-4 -25 -15 -46.5t-28 -36.5t-37.5 -23.5t-41.5 -8.5q-22 0 -40.5 8.5t-30.5 23.5t-17.5 36.5t-2.5 46.5h37q-4 -33 12 -55.5t47 -22.5
q30 0 52.5 22t27.5 56h37z" />
    <glyph glyph-name="Abreve" unicode="&#x102;" horiz-adv-x="589" 
d="M575 0h-59l-41 145h-321l-81 -145h-58l337 600h53zM184 198h277l-92 331zM512 783q-4 -25 -15 -46.5t-28 -36.5t-37.5 -23.5t-41.5 -8.5q-22 0 -40.5 8.5t-30.5 23.5t-17.5 36.5t-2.5 46.5h37q-4 -33 12 -55.5t47 -22.5q30 0 52.5 22t27.5 56h37z" />
    <glyph glyph-name="itilde" unicode="&#x129;" horiz-adv-x="200" 
d="M131 420h56l-59 -420h-56zM242 499q-22 0 -39.5 9t-33 20t-30 20t-30.5 9q-23 0 -33 -13.5t-18 -30.5l-6 -14l-39 5l8 23q10 29 30.5 52t59.5 23q21 0 38.5 -9t32.5 -20t29.5 -20t31.5 -9q24 0 35 13.5t17 30.5l5 14l40 -4l-7 -23q-9 -29 -31 -52.5t-60 -23.5z" />
    <glyph glyph-name="uni1EDD" unicode="&#x1edd;" 
d="M257 36q34 0 66 13.5t57 39t40.5 62.5t15.5 83q0 34 -10 62t-28 47.5t-42 30t-51 10.5q-34 0 -66.5 -14.5t-58 -41t-41 -63.5t-15.5 -83q0 -34 10.5 -61t28.5 -46t42 -29t52 -10zM432 387l9 -9q24 -25 37.5 -60.5t13.5 -78.5q0 -57 -20 -103t-53.5 -78.5t-77.5 -50
t-91 -17.5q-39 0 -72.5 13t-58 37.5t-38 59t-13.5 77.5q0 57 20 103.5t54 79.5t78 51.5t92 18.5q35 0 65 -11q42 1 74 28q32 26 41 66h48q-13 -59 -61 -98q-22 -18 -47 -28zM240 633l71 10l34 -144h-40z" />
    <glyph glyph-name="cir.acute" unicode="&#xe00d;" horiz-adv-x="0" 
d="M287 738l-67 -69h-52l98 108h50l71 -108h-54zM400 758h-40l74 144l69 -10z" />
    <glyph glyph-name="cir.grave" unicode="&#xe00e;" horiz-adv-x="0" 
d="M287 738l-67 -69h-52l98 108h50l71 -108h-54zM112 894l71 10l34 -144h-40z" />
    <glyph glyph-name="cir.tilde" unicode="&#xe00f;" horiz-adv-x="0" 
d="M287 737l-67 -69h-52l98 108h50l71 -108h-54zM411 796q-22 0 -39.5 9t-33 20t-30 20t-30.5 9q-23 0 -33 -13.5t-18 -30.5l-6 -14l-39 5l8 23q10 29 30.5 52t59.5 23q21 0 38.5 -9t32.5 -20t29.5 -20t31.5 -9q24 0 35 13.5t17 30.5l5 14l40 -4l-7 -23q-9 -29 -31 -52.5
t-60 -23.5z" />
    <glyph glyph-name="breve.tilde" unicode="&#xe010;" horiz-adv-x="0" 
d="M409 783q-4 -25 -15 -46.5t-28 -36.5t-37.5 -23.5t-41.5 -8.5q-22 0 -40.5 8.5t-30.5 23.5t-17.5 36.5t-2.5 46.5h37q-4 -33 12 -55.5t47 -22.5q30 0 52.5 22t27.5 56h37zM377 798q-22 0 -39.5 9t-33 20t-30 20t-30.5 9q-23 0 -33 -13.5t-18 -30.5l-6 -14l-39 5l8 23
q10 29 30.5 52t59.5 23q21 0 38.5 -9t32.5 -20t29.5 -20t31.5 -9q24 0 35 13.5t17 30.5l5 14l40 -4l-7 -23q-9 -29 -31 -52.5t-60 -23.5z" />
    <glyph glyph-name="breve.acute" unicode="&#xe011;" horiz-adv-x="0" 
d="M409 784q-4 -25 -15 -46.5t-28 -36.5t-37.5 -23.5t-41.5 -8.5q-22 0 -40.5 8.5t-30.5 23.5t-17.5 36.5t-2.5 46.5h37q-4 -33 12 -55.5t47 -22.5q30 0 52.5 22t27.5 56h37zM321 792h-40l74 144l69 -10z" />
    <glyph glyph-name="breve.grave" unicode="&#xe012;" horiz-adv-x="0" 
d="M409 784q-4 -25 -15 -46.5t-28 -36.5t-37.5 -23.5t-41.5 -8.5q-22 0 -40.5 8.5t-30.5 23.5t-17.5 36.5t-2.5 46.5h37q-4 -33 12 -55.5t47 -22.5q30 0 52.5 22t27.5 56h37zM218 926l71 10l34 -144h-40z" />
    <glyph glyph-name="breve.hook" unicode="&#xe013;" horiz-adv-x="0" 
d="M409 782q-4 -25 -15 -46.5t-28 -36.5t-37.5 -23.5t-41.5 -8.5q-22 0 -40.5 8.5t-30.5 23.5t-17.5 36.5t-2.5 46.5h37q-4 -33 12 -55.5t47 -22.5q30 0 52.5 22t27.5 56h37zM233 894.25q15 8.25 25 11.25q8 3 20 5.25t27 2.25q32 0 52 -11.625t20 -32.625
q0 -12.75 -4 -19.875t-9 -12.375t-11 -9t-11.5 -6.375t-8.5 -4.5t-4 -6.375l-4 -18h-38l4 23.25q2 9.75 7.5 15.375t11 8.625t9 6t6.5 6t5 5.625t2 8.625q0 6.75 -7 10.875t-22 4.125q-10 0 -17.5 -1.5t-13.5 -3q-7 -2.25 -25 -12z" />
    <glyph glyph-name="cir.hook" unicode="&#xe014;" horiz-adv-x="0" 
d="M287 738l-67 -69h-52l98 108h50l71 -108h-54zM306 896q15 11 25 15q8 4 20 7t27 3q32 0 52 -15.5t20 -43.5q0 -17 -4 -26.5t-9 -16.5t-11 -12t-11.5 -8.5t-8.5 -6t-4 -8.5l-4 -24h-38l4 31q2 13 7.5 20.5t11 11.5t9 8t6.5 8t5 7.5t2 11.5q0 9 -7 14.5t-22 5.5
q-10 0 -17.5 -2t-13.5 -4q-7 -3 -25 -16z" />
    <glyph glyph-name="uniE015" unicode="&#xe015;" horiz-adv-x="269" 
d="M159 631l71 10l34 -144h-40z" />
    <glyph glyph-name="uniE016" unicode="&#xe016;" horiz-adv-x="267" 
d="M177 497h-40l74 144l69 -10z" />
    <glyph glyph-name="uniE017" unicode="&#xe017;" horiz-adv-x="356" 
d="M287 568l-67 -69h-52l98 108h50l71 -108h-54z" />
    <glyph glyph-name="uniE018" unicode="&#xe018;" horiz-adv-x="325" 
d="M259 707l67 70h53l-99 -109h-50l-70 109h53z" />
    <glyph glyph-name="uniE019" unicode="&#xe019;" horiz-adv-x="465" 
d="M394 499q-22 0 -39.5 9t-33 20t-30 20t-30.5 9q-23 0 -33 -13.5t-18 -30.5l-6 -14l-39 5l8 23q10 29 30.5 52t59.5 23q21 0 38.5 -9t32.5 -20t29.5 -20t31.5 -9q24 0 35 13.5t17 30.5l5 14l40 -4l-7 -23q-9 -29 -31 -52.5t-60 -23.5z" />
    <glyph glyph-name="uniE01A" unicode="&#xe01a;" horiz-adv-x="465" 
d="M159 631l71 10l34 -144h-40z" />
    <glyph glyph-name="uniE01B" unicode="&#xe01b;" horiz-adv-x="395" 
d="M297 419h-39l71 158h68zM156 419h-39l70 158h69z" />
    <glyph glyph-name="uniE01C" unicode="&#xe01c;" horiz-adv-x="383" 
d="M409 614q-4 -25 -15 -46.5t-28 -36.5t-37.5 -23.5t-41.5 -8.5q-22 0 -40.5 8.5t-30.5 23.5t-17.5 36.5t-2.5 46.5h37q-4 -33 12 -55.5t47 -22.5q30 0 52.5 22t27.5 56h37z" />
    <glyph glyph-name="uniE01D" unicode="&#xe01d;" horiz-adv-x="383" 
d="M409 614q-4 -25 -15 -46.5t-28 -36.5t-37.5 -23.5t-41.5 -8.5q-22 0 -40.5 8.5t-30.5 23.5t-17.5 36.5t-2.5 46.5h37q-4 -33 12 -55.5t47 -22.5q30 0 52.5 22t27.5 56h37z" />
    <glyph glyph-name="uniE01E" unicode="&#xe01e;" horiz-adv-x="286" 
d="M143 688q0 42 32.5 67.5t78.5 25.5q38 0 62 -20t24 -53q0 -42 -32.5 -67.5t-77.5 -25.5q-38 0 -62.5 20t-24.5 53zM300 704q0 20 -13.5 30t-37.5 10q-29 0 -47 -13t-18 -39q0 -20 14 -30t38 -10q29 0 46.5 13.5t17.5 38.5z" />
    <glyph glyph-name="uniE01F" unicode="&#xe01f;" horiz-adv-x="414" 
d="M202 631q15 11 25 15q8 4 20 7t27 3q32 0 52 -15.5t20 -43.5q0 -17 -4 -26.5t-9 -16.5t-11 -12t-11.5 -8.5t-8.5 -6t-4 -8.5l-4 -24h-38l4 31q2 13 7.5 20.5t11 11.5t9 8t6.5 8t5 7.5t2 11.5q0 9 -7 14.5t-22 5.5q-10 0 -17.5 -2t-13.5 -4q-7 -3 -25 -16z" />
    <glyph glyph-name="uniE020" unicode="&#xe020;" horiz-adv-x="520" 
d="M235 550q-20 0 -33 13t-13 33q0 25 18 42t43 17q20 0 33 -13t13 -33q0 -25 -18.5 -42t-42.5 -17zM449 550q-20 0 -33 13t-13 33q0 25 18 42t43 17q20 0 33 -13t13 -33q0 -25 -18.5 -42t-42.5 -17z" />
    <glyph glyph-name="gravecomb" unicode="&#x300;" horiz-adv-x="0" 
d="M-342 631l71 10l34 -144h-40z" />
    <glyph glyph-name="acutecomb" unicode="&#x301;" horiz-adv-x="0" 
d="M-287 497h-40l74 144l69 -10z" />
    <glyph glyph-name="tildecomb" unicode="&#x303;" horiz-adv-x="0" 
d="M-142 499q-22 0 -39.5 9t-33 20t-30 20t-30.5 9q-23 0 -33 -13.5t-18 -30.5l-6 -14l-39 5l8 23q10 29 30.5 52t59.5 23q21 0 38.5 -9t32.5 -20t29.5 -20t31.5 -9q24 0 35 13.5t17 30.5l5 14l40 -4l-7 -23q-9 -29 -31 -52.5t-60 -23.5z" />
    <glyph glyph-name="dotbelowcomb" unicode="&#x323;" horiz-adv-x="0" 
d="M-273 -127q0 20 15.5 34t34.5 14q17 0 27 -11t10 -27q0 -20 -15 -34.5t-35 -14.5q-16 0 -26.5 11.5t-10.5 27.5z" />
    <glyph glyph-name="uni031B" unicode="&#x31b;" horiz-adv-x="305" 
d="M408 596q-13 -59 -61 -98q-49 -40 -115 -40l10 44q44 0 77 28q32 26 41 66h48z" />
    <glyph glyph-name="hookabovecomb" unicode="&#x309;" horiz-adv-x="414" 
d="M202 631q15 11 25 15q8 4 20 7t27 3q32 0 52 -15.5t20 -43.5q0 -17 -4 -26.5t-9 -16.5t-11 -12t-11.5 -8.5t-8.5 -6t-4 -8.5l-4 -24h-38l4 31q2 13 7.5 20.5t11 11.5t9 8t6.5 8t5 7.5t2 11.5q0 9 -7 14.5t-22 5.5q-10 0 -17.5 -2t-13.5 -4q-7 -3 -25 -16z" />
    </font>
</defs>
</svg>
