<?xml version="1.0" standalone="no"?>
<!DOCTYPE svg PUBLIC "-//W3C//DTD SVG 1.1//EN" "http://www.w3.org/Graphics/SVG/1.1/DTD/svg11.dtd" >
<svg>
<metadata>
Created by FontForge 20090622 at Thu Oct 20 10:17:50 2016
 By deploy user
Copyright (c) 2014 by Daniel Hernandez &#38; Miguel Hernandez. All rights reserved.
</metadata>
<defs>
<font id="iCielTexta-LightItalic" horiz-adv-x="525" >
  <font-face 
    font-family="iCiel Texta Light"
    font-weight="300"
    font-style="italic"
    font-stretch="normal"
    units-per-em="1000"
    panose-1="2 0 0 0 0 0 0 0 0 0"
    ascent="750"
    descent="-250"
    x-height="420"
    cap-height="600"
    bbox="-371 -192 1080 940"
    underline-thickness="50"
    underline-position="-50"
    slope="-8"
    unicode-range="U+001D-U+E020"
  />
<missing-glyph horiz-adv-x="564" 
 />
    <glyph glyph-name=".notdef" horiz-adv-x="564" 
 />
    <glyph glyph-name=".null" horiz-adv-x="0" 
 />
    <glyph glyph-name=".null" horiz-adv-x="0" 
 />
    <glyph glyph-name="nonmarkingreturn" horiz-adv-x="46" 
 />
    <glyph glyph-name="space" unicode=" " horiz-adv-x="234" 
 />
    <glyph glyph-name="acute" unicode="&#xb4;" horiz-adv-x="256" 
d="M173 497h-31l75 143l55 -8z" />
    <glyph glyph-name="Acircumflex" unicode="&#xc2;" horiz-adv-x="584" 
d="M564 0h-46l-43 157h-322l-87 -157h-46l335 600h42zM176 198h288l-95 348zM397 745l-70 -77h-42l94 109h42l66 -109h-42z" />
    <glyph glyph-name="circumflex" unicode="&#x2c6;" horiz-adv-x="341" 
d="M280 574l-70 -77h-42l94 109h42l66 -109h-42z" />
    <glyph glyph-name="Adieresis" unicode="&#xc4;" horiz-adv-x="584" 
d="M564 0h-46l-43 157h-322l-87 -157h-46l335 600h42zM176 198h288l-95 348zM283 701q0 17 12.5 29t28.5 12q14 0 23 -9.5t9 -23.5q0 -17 -13.5 -29t-28.5 -12q-13 0 -22 9.5t-9 23.5zM427 701q0 17 13 29t29 12q14 0 22.5 -9.5t8.5 -23.5q0 -17 -13 -29t-28 -12
q-14 0 -23 9.5t-9 23.5z" />
    <glyph glyph-name="dieresis" unicode="&#xa8;" horiz-adv-x="417" 
d="M182 701q0 17 12.5 29t28.5 12q14 0 23 -9.5t9 -23.5q0 -17 -13.5 -29t-28.5 -12q-13 0 -22 9.5t-9 23.5zM326 701q0 17 13 29t29 12q14 0 22.5 -9.5t8.5 -23.5q0 -17 -13 -29t-28 -12q-14 0 -23 9.5t-9 23.5z" />
    <glyph glyph-name="Agrave" unicode="&#xc0;" horiz-adv-x="584" 
d="M564 0h-46l-43 157h-322l-87 -157h-46l335 600h42zM176 198h288l-95 348zM303 770l57 8l35 -143h-31z" />
    <glyph glyph-name="grave" unicode="`" horiz-adv-x="259" 
d="M167 632l57 8l35 -143h-31z" />
    <glyph glyph-name="Aring" unicode="&#xc5;" horiz-adv-x="584" 
d="M564 0h-46l-43 157h-322l-87 -157h-46l335 600h42zM176 198h288l-95 348zM297 684q0 41 30 65t74 24q36 0 58 -18.5t22 -50.5q0 -41 -30 -65t-73 -24q-37 0 -59 18.5t-22 50.5zM448 701q0 41 -52 41q-29 0 -47.5 -14t-18.5 -40q0 -20 14 -31t39 -11q30 0 47.5 14.5
t17.5 40.5z" />
    <glyph glyph-name="ring" unicode="&#x2da;" horiz-adv-x="284" 
d="M149 684q0 41 30 65t74 24q36 0 58 -18.5t22 -50.5q0 -41 -30 -65t-73 -24q-37 0 -59 18.5t-22 50.5zM300 701q0 41 -52 41q-29 0 -47.5 -14t-18.5 -40q0 -20 14 -31t39 -11q30 0 47.5 14.5t17.5 40.5z" />
    <glyph glyph-name="Atilde" unicode="&#xc3;" horiz-adv-x="584" 
d="M564 0h-46l-43 157h-322l-87 -157h-46l335 600h42zM176 198h288l-95 348zM455 668q-21 0 -37.5 9t-31.5 19.5l-29 19.5t-29 9q-23 0 -33 -13t-18 -30l-6 -13l-30 3l7 21q8 25 27 46.5t55 21.5q20 0 36.5 -9t31 -20t28.5 -20t30 -9q24 0 35 13.5t18 30.5l5 13l30 -4
l-6 -19q-8 -26 -27.5 -47.5t-55.5 -21.5z" />
    <glyph glyph-name="tilde" unicode="&#x2dc;" horiz-adv-x="445" 
d="M379 497q-21 0 -37.5 9t-31.5 19.5l-29 19.5t-29 9q-23 0 -33 -13t-18 -30l-6 -13l-30 3l7 21q8 25 27 46.5t55 21.5q20 0 36.5 -9t31 -20t28.5 -20t30 -9q24 0 35 13.5t18 30.5l5 13l30 -4l-6 -19q-8 -26 -27.5 -47.5t-55.5 -21.5z" />
    <glyph glyph-name="B" unicode="B" horiz-adv-x="598" 
d="M572 180q0 -45 -17 -79t-47.5 -56.5t-72.5 -33.5t-91 -11h-255l84 600h241q84 0 131 -35t47 -103q0 -63 -32.5 -101.5t-85.5 -55.5l-1 -3q45 -11 72 -42.5t27 -79.5zM172 281l-33 -240h213q37 0 69 8.5t55.5 26t37 43t13.5 59.5q0 50 -39 75.5t-100 27.5h-216zM546 454
q0 55 -37.5 80t-99.5 25h-197l-34 -237h197q80 0 125.5 34t45.5 98z" />
    <glyph glyph-name="C" unicode="C" horiz-adv-x="571" 
d="M548 66q-24 -22 -55 -40q-27 -15 -65 -27.5t-88 -12.5q-59 0 -106 20.5t-80.5 57t-51.5 86t-18 106.5q0 74 27 139t73.5 113.5t109 76.5t134.5 28q50 0 84.5 -12.5t57.5 -27.5q26 -18 44 -39l-30 -33q-16 19 -39 35q-20 13 -50 24t-72 11q-56 0 -105.5 -22t-88 -59
t-64 -87t-32.5 -105q-8 -54 3.5 -103t39.5 -86t71.5 -59t99.5 -22q42 0 75 11t57 25q27 16 49 36z" />
    <glyph glyph-name="AE" unicode="&#xc6;" horiz-adv-x="872" 
d="M501 600h412l-5 -41h-364l-33 -235h316l-6 -41h-316l-34 -242h364l-6 -41h-408l22 157h-261l-130 -157h-53zM217 198h232l46 328h-6z" />
    <glyph glyph-name="Ccedilla" unicode="&#xc7;" horiz-adv-x="571" 
d="M282 -48l21 37q-51 6 -91.5 28.5t-69 58t-43.5 81.5t-15 99q0 74 27 139t73.5 113.5t109 76.5t134.5 28q50 0 84.5 -12.5t57.5 -27.5q26 -18 44 -39l-30 -33q-16 19 -39 35q-20 13 -50 24t-72 11q-56 0 -105.5 -22t-88 -59t-64 -87t-32.5 -105q-8 -54 3.5 -103t39.5 -86
t71.5 -59t99.5 -22q42 0 75 11t57 25q27 16 49 36l20 -34q-24 -22 -55 -40q-27 -15 -65 -27.5t-88 -12.5h-8l-12 -21q27 0 44 -13.5t17 -40.5q0 -32 -23.5 -54t-65.5 -22q-17 0 -28.5 3.5t-19.5 8.5q-9 5 -15 13l17 21q6 -6 13 -10q14 -9 37 -9q26 0 41 12t15 34
q0 16 -11.5 24.5t-31.5 8.5q-5 0 -8.5 -0.5t-5.5 -0.5q-3 -1 -5 -1z" />
    <glyph glyph-name="cedilla" unicode="&#xb8;" horiz-adv-x="206" 
d="M61 -48l30 51h30l-22 -38q27 0 44 -13.5t17 -40.5q0 -32 -23.5 -54t-65.5 -22q-17 0 -28.5 3.5t-19.5 8.5q-9 5 -15 13l17 21q6 -6 13 -10q14 -9 37 -9q26 0 41 12t15 34q0 16 -11.5 24.5t-31.5 8.5q-5 0 -8.5 -0.5t-5.5 -0.5q-3 -1 -5 -1z" />
    <glyph glyph-name="D" unicode="D" horiz-adv-x="628" 
d="M627 342q0 -79 -28 -142.5t-76 -107.5t-113 -68t-139 -24h-182l84 600h182q60 0 110 -17.5t86 -51t56 -81.5t20 -108zM212 559l-73 -518h137q61 0 116.5 20.5t97.5 58.5t66.5 92.5t24.5 122.5q0 52 -17.5 94t-48.5 70.5t-73.5 44t-92.5 15.5h-137z" />
    <glyph glyph-name="Delta" unicode="&#x2206;" horiz-adv-x="607" 
d="M30 12l352 588h11l188 -588l-2 -12h-551zM93 39h428l-144 479h-4z" />
    <glyph glyph-name="E" unicode="E" horiz-adv-x="540" 
d="M489 283h-316l-34 -242h364l-6 -41h-408l84 600h408l-5 -41h-364l-33 -235h316z" />
    <glyph glyph-name="Eacute" unicode="&#xc9;" horiz-adv-x="540" 
d="M395 635h-31l75 143l55 -8zM489 283h-316l-34 -242h364l-6 -41h-408l84 600h408l-5 -41h-364l-33 -235h316z" />
    <glyph glyph-name="Ecircumflex" unicode="&#xca;" horiz-adv-x="540" 
d="M401 745l-70 -77h-42l94 109h42l66 -109h-42zM489 283h-316l-34 -242h364l-6 -41h-408l84 600h408l-5 -41h-364l-33 -235h316z" />
    <glyph glyph-name="Edieresis" unicode="&#xcb;" horiz-adv-x="540" 
d="M285 701q0 17 12.5 29t28.5 12q14 0 23 -9.5t9 -23.5q0 -17 -13.5 -29t-28.5 -12q-13 0 -22 9.5t-9 23.5zM429 701q0 17 13 29t29 12q14 0 22.5 -9.5t8.5 -23.5q0 -17 -13 -29t-28 -12q-14 0 -23 9.5t-9 23.5zM489 283h-316l-34 -242h364l-6 -41h-408l84 600h408l-5 -41
h-364l-33 -235h316z" />
    <glyph glyph-name="Egrave" unicode="&#xc8;" horiz-adv-x="540" 
d="M489 283h-316l-34 -242h364l-6 -41h-408l84 600h408l-5 -41h-364l-33 -235h316zM312 769l57 8l35 -143h-31z" />
    <glyph glyph-name="Eth" unicode="&#xd0;" horiz-adv-x="628" 
d="M74 324h60l39 276h182q60 0 110 -17.5t86 -51t56 -81.5t20 -108q0 -79 -28 -142.5t-76 -107.5t-113 -68t-139 -24h-182l39 283h-60zM212 559l-33 -235h193l-6 -41h-193l-34 -242h137q61 0 116.5 20.5t97.5 58.5t66.5 92.5t24.5 122.5q0 52 -17.5 94t-48.5 70.5t-73.5 44
t-92.5 15.5h-137z" />
    <glyph glyph-name="Euro" unicode="&#x20ac;" horiz-adv-x="586" 
d="M431 212h-220q4 -38 15.5 -70.5t32.5 -56.5t51.5 -38t71.5 -14q34 0 60.5 9.5t45.5 20.5q22 13 38 31l19 -31q-17 -20 -43 -36q-22 -14 -53.5 -24.5t-73.5 -10.5q-50 0 -88 17.5t-64 47.5t-40.5 70t-18.5 85h-90l5 36h84q0 54 12 107h-81l5 36h86q15 46 40 85.5t60 68.5
t79 46t98 17q42 0 70.5 -11t46.5 -24q21 -16 34 -35l-29 -33q-12 17 -30 31q-16 11 -39.5 21t-57.5 10q-45 0 -81 -13.5t-64 -37t-48 -56t-33 -69.5h225l-5 -36h-230q-12 -51 -12 -107h227z" />
    <glyph glyph-name="F" unicode="F" 
d="M488 283h-315l-40 -283h-44l84 600h408l-5 -41h-364l-33 -235h315z" />
    <glyph glyph-name="G" unicode="G" horiz-adv-x="641" 
d="M369 320h279l-5 -35q-10 -69 -35.5 -124.5t-65 -94.5t-91 -59.5t-112.5 -20.5q-60 0 -107 20.5t-80 56.5t-50 85t-17 106q0 75 26 140t71.5 114t108.5 77t138 28q54 0 92 -12.5t62 -27.5q28 -18 46 -40l-31 -33q-16 19 -42 35q-22 14 -55 25t-78 11q-66 0 -120 -25.5
t-92.5 -68.5t-59 -99.5t-20.5 -117.5q0 -48 13.5 -90t40.5 -73.5t67 -50t93 -18.5q48 0 90.5 16t75.5 46.5t55 74t30 98.5l2 16h-235z" />
    <glyph glyph-name="H" unicode="H" horiz-adv-x="639" 
d="M550 0h-44l39 279h-373l-39 -279h-44l84 600h44l-39 -280h373l39 280h44z" />
    <glyph glyph-name="I" unicode="I" horiz-adv-x="222" 
d="M133 0h-44l84 600h44z" />
    <glyph glyph-name="Iacute" unicode="&#xcd;" horiz-adv-x="222" 
d="M133 0h-44l84 600h44zM216 635h-31l75 143l55 -8z" />
    <glyph glyph-name="Icircumflex" unicode="&#xce;" horiz-adv-x="222" 
d="M133 0h-44l84 600h44zM217 745l-70 -77h-42l94 109h42l66 -109h-42z" />
    <glyph glyph-name="Idieresis" unicode="&#xcf;" horiz-adv-x="222" 
d="M133 0h-44l84 600h44zM102 701q0 17 12.5 29t28.5 12q14 0 23 -9.5t9 -23.5q0 -17 -13.5 -29t-28.5 -12q-13 0 -22 9.5t-9 23.5zM246 701q0 17 13 29t29 12q14 0 22.5 -9.5t8.5 -23.5q0 -17 -13 -29t-28 -12q-14 0 -23 9.5t-9 23.5z" />
    <glyph glyph-name="Igrave" unicode="&#xcc;" horiz-adv-x="222" 
d="M133 0h-44l84 600h44zM122 770l57 8l35 -143h-31z" />
    <glyph glyph-name="J" unicode="J" horiz-adv-x="418" 
d="M52 65q11 -10 27 -18q13 -7 32 -12.5t44 -5.5q66 0 108.5 38t55.5 127l57 406h44l-58 -414q-15 -105 -71 -152t-139 -47q-32 0 -55.5 6.5t-39.5 14.5t-24 14.5t-8 7.5z" />
    <glyph glyph-name="K" unicode="K" horiz-adv-x="553" 
d="M167 243l399 357h49l-1 -9l-267 -239l186 -343l-1 -9h-44l-72 132l-30 54.5l-29 52.5l-25.5 46l-19.5 35l-153 -137l-26 -183h-44l84 600h44z" />
    <glyph glyph-name="L" unicode="L" horiz-adv-x="483" 
d="M89 0l84 600h44l-78 -559h328l-6 -41h-372z" />
    <glyph glyph-name="Lslash" unicode="&#x141;" horiz-adv-x="485" 
d="M57 282l77 44l39 274h44l-35 -247l185 105l-5 -37l-185 -105l-38 -275h328l-6 -41h-372l40 289l-77 -44z" />
    <glyph glyph-name="M" unicode="M" horiz-adv-x="722" 
d="M663 523l-259 -286h-20l-178 285l-73 -522h-44l84 600h38l191 -307l278 307h38l-84 -600h-45z" />
    <glyph glyph-name="N" unicode="N" horiz-adv-x="664" 
d="M576 0h-39l-330 528l-74 -528h-44l84 600h39l330 -527l74 527h44z" />
    <glyph glyph-name="A" unicode="A" horiz-adv-x="584" 
d="M564 0h-46l-43 157h-322l-87 -157h-46l335 600h42zM176 198h288l-95 348z" />
    <glyph glyph-name="Ntilde" unicode="&#xd1;" horiz-adv-x="664" 
d="M576 0h-39l-330 528l-74 -528h-44l84 600h39l330 -527l74 527h44zM499 668q-21 0 -37.5 9t-31.5 19.5l-29 19.5t-29 9q-23 0 -33 -13t-18 -30l-6 -13l-30 3l7 21q8 25 27 46.5t55 21.5q20 0 36.5 -9t31 -20t28.5 -20t30 -9q24 0 35 13.5t18 30.5l5 13l30 -4l-6 -19
q-8 -26 -27.5 -47.5t-55.5 -21.5z" />
    <glyph glyph-name="O" unicode="O" horiz-adv-x="679" 
d="M337 -14q-60 0 -106.5 20.5t-79 56.5t-49.5 85t-17 106q0 75 25.5 140t70.5 114t107.5 77t136.5 28q60 0 107 -20.5t79.5 -56.5t49.5 -85.5t17 -107.5q0 -74 -25.5 -139t-71 -113.5t-108 -76.5t-136.5 -28zM343 28q66 0 119 25.5t91 68.5t58.5 99t20.5 117
q0 48 -13.5 90.5t-40.5 74t-67 50t-92 18.5q-65 0 -118 -25.5t-90.5 -68.5t-58.5 -99.5t-21 -117.5q0 -47 13.5 -89.5t40.5 -74t66.5 -50t91.5 -18.5z" />
    <glyph glyph-name="OE" unicode="&#x152;" horiz-adv-x="1040" 
d="M335 -14q-60 0 -106.5 20.5t-79 56.5t-49.5 85t-17 106q0 75 25.5 140t70.5 114t107.5 77t136.5 28q85 0 143.5 -40.5t86.5 -107.5l19 135h408l-5 -41h-364l-33 -235h316l-6 -41h-316l-34 -242h364l-6 -41h-408l17 121q-46 -62 -115.5 -98.5t-154.5 -36.5zM341 28
q66 0 119 25.5t91 68.5t58.5 99t20.5 117q0 48 -13.5 90.5t-40.5 74t-67 50t-92 18.5q-65 0 -118 -25.5t-90.5 -68.5t-58.5 -99.5t-21 -117.5q0 -47 13.5 -89.5t40.5 -74t66.5 -50t91.5 -18.5z" />
    <glyph glyph-name="Oacute" unicode="&#xd3;" horiz-adv-x="679" 
d="M447 668h-31l75 143l55 -8zM337 -14q-60 0 -106.5 20.5t-79 56.5t-49.5 85t-17 106q0 75 25.5 140t70.5 114t107.5 77t136.5 28q60 0 107 -20.5t79.5 -56.5t49.5 -85.5t17 -107.5q0 -74 -25.5 -139t-71 -113.5t-108 -76.5t-136.5 -28zM343 28q66 0 119 25.5t91 68.5
t58.5 99t20.5 117q0 48 -13.5 90.5t-40.5 74t-67 50t-92 18.5q-65 0 -118 -25.5t-90.5 -68.5t-58.5 -99.5t-21 -117.5q0 -47 13.5 -89.5t40.5 -74t66.5 -50t91.5 -18.5z" />
    <glyph glyph-name="Ocircumflex" unicode="&#xd4;" horiz-adv-x="679" 
d="M445 745l-70 -77h-42l94 109h42l66 -109h-42zM337 -14q-60 0 -106.5 20.5t-79 56.5t-49.5 85t-17 106q0 75 25.5 140t70.5 114t107.5 77t136.5 28q60 0 107 -20.5t79.5 -56.5t49.5 -85.5t17 -107.5q0 -74 -25.5 -139t-71 -113.5t-108 -76.5t-136.5 -28zM343 28
q66 0 119 25.5t91 68.5t58.5 99t20.5 117q0 48 -13.5 90.5t-40.5 74t-67 50t-92 18.5q-65 0 -118 -25.5t-90.5 -68.5t-58.5 -99.5t-21 -117.5q0 -47 13.5 -89.5t40.5 -74t66.5 -50t91.5 -18.5z" />
    <glyph glyph-name="Odieresis" unicode="&#xd6;" horiz-adv-x="679" 
d="M329 701q0 17 12.5 29t28.5 12q14 0 23 -9.5t9 -23.5q0 -17 -13.5 -29t-28.5 -12q-13 0 -22 9.5t-9 23.5zM473 701q0 17 13 29t29 12q14 0 22.5 -9.5t8.5 -23.5q0 -17 -13 -29t-28 -12q-14 0 -23 9.5t-9 23.5zM337 -14q-60 0 -106.5 20.5t-79 56.5t-49.5 85t-17 106
q0 75 25.5 140t70.5 114t107.5 77t136.5 28q60 0 107 -20.5t79.5 -56.5t49.5 -85.5t17 -107.5q0 -74 -25.5 -139t-71 -113.5t-108 -76.5t-136.5 -28zM343 28q66 0 119 25.5t91 68.5t58.5 99t20.5 117q0 48 -13.5 90.5t-40.5 74t-67 50t-92 18.5q-65 0 -118 -25.5
t-90.5 -68.5t-58.5 -99.5t-21 -117.5q0 -47 13.5 -89.5t40.5 -74t66.5 -50t91.5 -18.5z" />
    <glyph glyph-name="Ograve" unicode="&#xd2;" horiz-adv-x="679" 
d="M337 -14q-60 0 -106.5 20.5t-79 56.5t-49.5 85t-17 106q0 75 25.5 140t70.5 114t107.5 77t136.5 28q60 0 107 -20.5t79.5 -56.5t49.5 -85.5t17 -107.5q0 -74 -25.5 -139t-71 -113.5t-108 -76.5t-136.5 -28zM343 28q66 0 119 25.5t91 68.5t58.5 99t20.5 117
q0 48 -13.5 90.5t-40.5 74t-67 50t-92 18.5q-65 0 -118 -25.5t-90.5 -68.5t-58.5 -99.5t-21 -117.5q0 -47 13.5 -89.5t40.5 -74t66.5 -50t91.5 -18.5zM358 803l57 8l35 -143h-31z" />
    <glyph glyph-name="Omega" unicode="&#x2126;" horiz-adv-x="712" 
d="M58 39h163q-30 15 -53.5 39t-39.5 54.5t-24 65.5t-8 71q0 64 23.5 125.5t68.5 110t109 78.5t145 30q66 0 115 -22t81.5 -58.5t48.5 -85t16 -102.5q0 -49 -14.5 -95.5t-41.5 -87t-64 -72.5t-82 -51h163l-5 -39h-268l6 40q52 1 99.5 27t83.5 67.5t57.5 94.5t21.5 109
q0 47 -14 89t-42 74t-70 51t-97 19q-69 0 -124 -26t-93.5 -68.5t-59 -96.5t-20.5 -110q0 -44 13.5 -85t38 -73t59.5 -51.5t78 -20.5l-6 -40h-269z" />
    <glyph glyph-name="Oslash" unicode="&#xd8;" horiz-adv-x="680" 
d="M337 -14q-61 0 -108.5 21t-79.5 58l-72 -65h-54l104 95q-42 68 -42 159q0 75 25.5 140t70.5 114t107.5 77t136.5 28q60 0 107 -20.5t80 -57.5l71 65h55l-104 -94q21 -34 32.5 -75t11.5 -88q0 -74 -25.5 -139t-71 -113.5t-108 -76.5t-136.5 -28zM343 28q66 0 119 25.5
t91 68.5t58.5 99t20.5 117q0 76 -34 135l-414 -376q27 -32 66.5 -50.5t92.5 -18.5zM131 260q0 -76 32 -132l414 375q-27 32 -66.5 50t-91.5 18q-65 0 -118 -25.5t-90.5 -68.5t-58.5 -99.5t-21 -117.5z" />
    <glyph glyph-name="Otilde" unicode="&#xd5;" horiz-adv-x="679" 
d="M337 -14q-60 0 -106.5 20.5t-79 56.5t-49.5 85t-17 106q0 75 25.5 140t70.5 114t107.5 77t136.5 28q60 0 107 -20.5t79.5 -56.5t49.5 -85.5t17 -107.5q0 -74 -25.5 -139t-71 -113.5t-108 -76.5t-136.5 -28zM343 28q66 0 119 25.5t91 68.5t58.5 99t20.5 117
q0 48 -13.5 90.5t-40.5 74t-67 50t-92 18.5q-65 0 -118 -25.5t-90.5 -68.5t-58.5 -99.5t-21 -117.5q0 -47 13.5 -89.5t40.5 -74t66.5 -50t91.5 -18.5zM503 682q-21 0 -37.5 9t-31.5 19.5l-29 19.5t-29 9q-23 0 -33 -13t-18 -30l-6 -13l-30 3l7 21q8 25 27 46.5t55 21.5
q20 0 36.5 -9t31 -20t28.5 -20t30 -9q24 0 35 13.5t18 30.5l5 13l30 -4l-6 -19q-8 -26 -27.5 -47.5t-55.5 -21.5z" />
    <glyph glyph-name="P" unicode="P" horiz-adv-x="570" 
d="M396 600q97 0 148 -46t51 -124q0 -51 -18 -93.5t-52 -73t-81.5 -47t-105.5 -16.5h-177l-28 -200h-44l84 600h223zM550 423q0 64 -42.5 100t-117.5 36h-178l-45 -318h178q45 0 82.5 12.5t65 36t42.5 57.5t15 76z" />
    <glyph glyph-name="Q" unicode="Q" horiz-adv-x="679" 
d="M337 -14q-60 0 -106.5 20.5t-79 56.5t-49.5 85t-17 106q0 75 25.5 140t70.5 114t107.5 77t136.5 28q60 0 107 -20.5t79.5 -56.5t49.5 -85.5t17 -107.5t-16 -111t-45.5 -96.5t-71 -76.5t-92.5 -52l62 -129h-51l-55 116q-37 -8 -72 -8zM343 28q66 0 119 25.5t91 68.5
t58.5 99t20.5 117q0 48 -13.5 90.5t-40.5 74t-67 50t-92 18.5q-65 0 -118 -25.5t-90.5 -68.5t-58.5 -99.5t-21 -117.5q0 -47 13.5 -89.5t40.5 -74t66.5 -50t91.5 -18.5z" />
    <glyph glyph-name="R" unicode="R" horiz-adv-x="591" 
d="M395 600q97 0 148.5 -44t51.5 -124q0 -44 -13 -80t-37 -63t-56.5 -45.5t-71.5 -27.5v-2l131 -202l-2 -12h-45l-136 209h-203l-29 -209h-44l84 600h222zM550 425q0 66 -43 100t-117 34h-178l-44 -309h189q40 0 75 11.5t61.5 33.5t41.5 54.5t15 75.5z" />
    <glyph glyph-name="S" unicode="S" horiz-adv-x="505" 
d="M84 88q16 -17 41 -30q21 -11 52 -20.5t75 -9.5q98 0 143.5 38.5t45.5 97.5q0 25 -10.5 43t-30 32.5t-48 26t-63.5 22.5q-39 12 -71.5 25.5t-56.5 31t-37 40t-13 54.5q0 40 17 72.5t47.5 55t73 34.5t92.5 12q51 0 86.5 -8.5t57.5 -19.5q26 -12 41 -28l-30 -37
q-15 14 -38 25q-20 10 -50 18t-73 8q-36 0 -68 -8t-56.5 -24t-39 -39.5t-14.5 -53.5q0 -23 10.5 -40t30 -30t48 -24t63.5 -22q41 -13 73.5 -27t55.5 -33t35.5 -43t12.5 -57q0 -38 -14.5 -71.5t-44 -58.5t-74.5 -39t-106 -14q-51 0 -87.5 10t-59.5 23q-27 15 -46 34z" />
    <glyph glyph-name="Scaron" unicode="&#x160;" horiz-adv-x="505" 
d="M349 700l70 77h42l-94 -109h-42l-66 109h42zM84 88q16 -17 41 -30q21 -11 52 -20.5t75 -9.5q98 0 143.5 38.5t45.5 97.5q0 25 -10.5 43t-30 32.5t-48 26t-63.5 22.5q-39 12 -71.5 25.5t-56.5 31t-37 40t-13 54.5q0 40 17 72.5t47.5 55t73 34.5t92.5 12q51 0 86.5 -8.5
t57.5 -19.5q26 -12 41 -28l-30 -37q-15 14 -38 25q-20 10 -50 18t-73 8q-36 0 -68 -8t-56.5 -24t-39 -39.5t-14.5 -53.5q0 -23 10.5 -40t30 -30t48 -24t63.5 -22q41 -13 73.5 -27t55.5 -33t35.5 -43t12.5 -57q0 -38 -14.5 -71.5t-44 -58.5t-74.5 -39t-106 -14
q-51 0 -87.5 10t-59.5 23q-27 15 -46 34z" />
    <glyph glyph-name="caron" unicode="&#x2c7;" horiz-adv-x="325" 
d="M258 700l70 77h42l-94 -109h-42l-66 109h42z" />
    <glyph glyph-name="T" unicode="T" horiz-adv-x="507" 
d="M109 600h459l-6 -41h-208l-79 -559h-44l79 559h-207z" />
    <glyph glyph-name="Thorn" unicode="&#xde;" horiz-adv-x="568" 
d="M203 499h179q97 0 148 -45.5t51 -123.5q0 -51 -18 -93.5t-52 -73t-81.5 -47.5t-105.5 -17h-177l-14 -99h-44l84 600h44zM535 323q0 63 -42.5 99t-117.5 36h-178l-44 -317h178q45 0 82.5 12.5t64.5 36t42 57t15 76.5z" />
    <glyph glyph-name="U" unicode="U" horiz-adv-x="627" 
d="M311 -13q-56 0 -96.5 18.5t-65.5 53t-33.5 82.5t-0.5 107l49 352h44l-49 -352q-7 -49 -0.5 -89.5t26 -69.5t52.5 -45t80 -16q48 0 85.5 16t65.5 45t45 69.5t24 89.5l49 352h44l-49 -352q-8 -59 -30.5 -107t-57 -82.5t-80.5 -53t-102 -18.5z" />
    <glyph glyph-name="Uacute" unicode="&#xda;" horiz-adv-x="627" 
d="M416 635h-31l75 143l55 -8zM311 -13q-56 0 -96.5 18.5t-65.5 53t-33.5 82.5t-0.5 107l49 352h44l-49 -352q-7 -49 -0.5 -89.5t26 -69.5t52.5 -45t80 -16q48 0 85.5 16t65.5 45t45 69.5t24 89.5l49 352h44l-49 -352q-8 -59 -30.5 -107t-57 -82.5t-80.5 -53t-102 -18.5z
" />
    <glyph glyph-name="Ucircumflex" unicode="&#xdb;" horiz-adv-x="627" 
d="M414 712l-70 -77h-42l94 109h42l66 -109h-42zM311 -13q-56 0 -96.5 18.5t-65.5 53t-33.5 82.5t-0.5 107l49 352h44l-49 -352q-7 -49 -0.5 -89.5t26 -69.5t52.5 -45t80 -16q48 0 85.5 16t65.5 45t45 69.5t24 89.5l49 352h44l-49 -352q-8 -59 -30.5 -107t-57 -82.5
t-80.5 -53t-102 -18.5z" />
    <glyph glyph-name="Udieresis" unicode="&#xdc;" horiz-adv-x="627" 
d="M305 701q0 17 12.5 29t28.5 12q14 0 23 -9.5t9 -23.5q0 -17 -13.5 -29t-28.5 -12q-13 0 -22 9.5t-9 23.5zM449 701q0 17 13 29t29 12q14 0 22.5 -9.5t8.5 -23.5q0 -17 -13 -29t-28 -12q-14 0 -23 9.5t-9 23.5zM311 -13q-56 0 -96.5 18.5t-65.5 53t-33.5 82.5t-0.5 107
l49 352h44l-49 -352q-7 -49 -0.5 -89.5t26 -69.5t52.5 -45t80 -16q48 0 85.5 16t65.5 45t45 69.5t24 89.5l49 352h44l-49 -352q-8 -59 -30.5 -107t-57 -82.5t-80.5 -53t-102 -18.5z" />
    <glyph glyph-name="Ugrave" unicode="&#xd9;" horiz-adv-x="627" 
d="M311 -13q-56 0 -96.5 18.5t-65.5 53t-33.5 82.5t-0.5 107l49 352h44l-49 -352q-7 -49 -0.5 -89.5t26 -69.5t52.5 -45t80 -16q48 0 85.5 16t65.5 45t45 69.5t24 89.5l49 352h44l-49 -352q-8 -59 -30.5 -107t-57 -82.5t-80.5 -53t-102 -18.5zM325 770l57 8l35 -143h-31z
" />
    <glyph glyph-name="V" unicode="V" horiz-adv-x="584" 
d="M104 600h46l149 -546l303 546h46l-335 -600h-42z" />
    <glyph glyph-name="W" unicode="W" horiz-adv-x="787" 
d="M467 530l-224 -530h-38l-97 600h45l79 -530l224 530h43l75 -530l227 530h46l-265 -600h-38z" />
    <glyph glyph-name="X" unicode="X" horiz-adv-x="511" 
d="M328 308l166 -308h-53l-130 243l-17 38l-27 -38l-198 -243h-51l249 308l-157 292h53l126 -234l14 -32l22 32l191 234h52z" />
    <glyph glyph-name="Y" unicode="Y" horiz-adv-x="537" 
d="M548 600h51l-277 -370l-32 -230h-44l32 231l-172 369h52l135 -297l12 -33h3l22 33z" />
    <glyph glyph-name="Yacute" unicode="&#xdd;" horiz-adv-x="537" 
d="M548 600h51l-277 -370l-32 -230h-44l32 231l-172 369h52l135 -297l12 -33h3l22 33zM375 651h-31l75 143l55 -8z" />
    <glyph glyph-name="Ydieresis" unicode="&#x178;" horiz-adv-x="537" 
d="M548 600h51l-277 -370l-32 -230h-44l32 231l-172 369h52l135 -297l12 -33h3l22 33zM260 701q0 17 12.5 29t28.5 12q14 0 23 -9.5t9 -23.5q0 -17 -13.5 -29t-28.5 -12q-13 0 -22 9.5t-9 23.5zM404 701q0 17 13 29t29 12q14 0 22.5 -9.5t8.5 -23.5q0 -17 -13 -29t-28 -12
q-14 0 -23 9.5t-9 23.5z" />
    <glyph glyph-name="Z" unicode="Z" horiz-adv-x="515" 
d="M36 31l468 528h-386l5 41h446l-4 -31l-465 -528h380l-6 -41h-442z" />
    <glyph glyph-name="Zcaron" unicode="&#x17d;" horiz-adv-x="515" 
d="M352 700l70 77h42l-94 -109h-42l-66 109h42zM36 31l468 528h-386l5 41h446l-4 -31l-465 -528h380l-6 -41h-442z" />
    <glyph glyph-name="ae" unicode="&#xe6;" horiz-adv-x="775" 
d="M719 36q-17 -13 -40 -23q-20 -9 -48 -16t-64 -7q-63 0 -108 28t-63 79q-29 -47 -80 -77t-118 -30q-39 0 -67 9.5t-45.5 25.5t-26 37t-8.5 44q0 31 13 59t38.5 48t64 32t88.5 12q49 0 82 -8t52 -16l3 20q10 64 -18.5 101t-102.5 37q-26 0 -49.5 -5.5t-41.5 -12.5
q-21 -8 -40 -17l-13 37q19 10 44 18q21 7 49 13t61 6q69 0 104.5 -26.5t46.5 -71.5q32 47 78 72.5t101 25.5q46 0 79 -15.5t53 -43t26.5 -65t-0.5 -81.5l-2 -11h-337l-1 -6q-7 -44 2 -77.5t29 -56t49.5 -34.5t63.5 -12q31 0 56 6t42 14q20 9 36 21zM207 26q35 0 64.5 11.5
t52 29.5t36.5 40t17 44l6 44q-13 7 -45 17.5t-83 10.5q-44 0 -74.5 -9t-49.5 -24.5t-27.5 -36t-8.5 -43.5q0 -33 26 -58.5t86 -25.5zM604 392q-57 0 -101.5 -35.5t-64.5 -106.5h290q4 63 -26.5 102.5t-97.5 39.5z" />
    <glyph glyph-name="ampersand" unicode="&#x26;" horiz-adv-x="579" 
d="M571 282q-12 -47 -34.5 -94t-56.5 -88l85 -100h-63l-54 66q-38 -35 -86.5 -56.5t-107.5 -21.5q-87 0 -135 40.5t-48 103.5q0 38 13.5 67t36 51t52 39.5t60.5 33.5l-7 8q-26 30 -40 60t-14 66q0 33 12.5 61.5t35 49.5t53 33t66.5 12q59 0 92 -32.5t33 -83.5
q0 -37 -14 -64.5t-37 -49t-53 -38.5t-61 -32l156 -184q28 35 46.5 77t29.5 86zM258 27q49 0 90.5 18t74.5 50l-165 197q-28 -14 -53 -29t-44 -33t-30.5 -40.5t-11.5 -51.5q0 -25 10.5 -45.5t29.5 -35t44 -22.5t55 -8zM217 459q0 -29 13 -53t36 -53l8 -10l54.5 28t47 31
t32.5 38.5t12 50.5q0 38 -23 61t-65 23q-24 0 -44.5 -8t-36.5 -23t-25 -36.5t-9 -48.5z" />
    <glyph glyph-name="approxequal" unicode="&#x2248;" horiz-adv-x="422" 
d="M306 185q-20 0 -36 8t-30 17.5t-27.5 17.5t-27.5 8q-23 0 -33.5 -12t-16.5 -26l-5 -12l-34 3l7 22q8 23 27 43t55 20q20 0 36 -8t30.5 -17.5t28 -17.5t28.5 -8q22 0 31.5 12t15.5 27l5 12l34 -4l-6 -22q-8 -24 -27.5 -43.5t-54.5 -19.5zM333 372q-20 0 -36 8t-30.5 17.5
t-28 17.5t-27.5 8q-23 0 -33 -12t-16 -27l-5 -12l-35 4l8 22q8 24 26.5 43.5t54.5 19.5q20 0 36 -8t30.5 -17.5t28 -17.5t28.5 -8q22 0 31.5 12t15.5 26l5 12l35 -3l-7 -22q-4 -12 -10.5 -23t-16 -20t-23 -14.5t-31.5 -5.5z" />
    <glyph glyph-name="asciicircum" unicode="^" horiz-adv-x="408" 
d="M295 643l-129 -146h-40l158 183h33l105 -183h-40z" />
    <glyph glyph-name="asciitilde" unicode="~" horiz-adv-x="457" 
d="M342 301q18 0 32 3t25 8q12 4 22 11l13 -27q-11 -9 -25 -16q-13 -6 -31 -11t-41 -5q-20 0 -36 4.5t-31.5 10.5t-33 10.5t-38.5 4.5q-18 0 -32.5 -3.5t-25.5 -7.5q-12 -5 -21 -11l-11 27q11 9 25 16q12 6 29.5 11t40.5 5q19 0 35.5 -4.5t32 -10.5t33 -10.5t38.5 -4.5z" />
    <glyph glyph-name="asterisk" unicode="*" horiz-adv-x="395" 
d="M259 541l-130 28l23 49l114 -62l6 140h48l-37 -140l134 62l9 -49l-138 -27l77 -106l-45 -29l-48 124l-84 -124l-36 29z" />
    <glyph glyph-name="at" unicode="@" horiz-adv-x="1000" 
d="M754 51q-26 0 -47 8t-35.5 22t-22 31.5t-7.5 37.5h-4q-29 -39 -73 -64.5t-107 -25.5q-69 0 -110.5 42.5t-41.5 114.5q0 61 22 112.5t58 88t82.5 57t96.5 20.5q33 0 56.5 -8.5t39.5 -22t24.5 -29.5t11.5 -31l30 83h32l-67 -252q-5 -21 -8 -37t-3 -30q0 -37 22 -58.5
t59 -21.5q38 0 73.5 21t63 58t44 86t16.5 106q0 67 -23.5 128.5t-68.5 109t-110.5 76t-149.5 28.5q-104 0 -193.5 -39t-155.5 -104t-104 -150t-38 -178q0 -77 26.5 -145t75 -119t116 -81t150.5 -30q51 0 91.5 8.5t69.5 19.5q34 12 61 29l13 -33q-28 -18 -64 -31
q-31 -11 -75.5 -20.5t-100.5 -9.5q-93 0 -167.5 33t-126 89t-79.5 130t-28 155q0 101 41 193.5t113 163.5t169.5 113.5t210.5 42.5q88 0 159.5 -29.5t122.5 -80t79 -118.5t28 -146q0 -63 -18.5 -120t-51 -100t-78 -68t-99.5 -25zM469 98q43 0 81 21t65.5 55.5t43.5 79
t16 91.5t-29.5 79.5t-84.5 32.5q-40 0 -77.5 -17t-67 -48t-47.5 -73.5t-18 -94.5q0 -60 32.5 -93t85.5 -33z" />
    <glyph glyph-name="b" unicode="b" 
d="M158 605h43l-37 -268h2q17 26 43 46q22 17 55 32t80 15q37 0 67.5 -13.5t53 -38.5t35 -59.5t12.5 -76.5q0 -56 -19 -102.5t-50.5 -79.5t-73 -51.5t-87.5 -18.5q-48 0 -77.5 15.5t-47.5 34.5q-21 22 -32 51h-2l-19 -91h-31zM140 182q0 -37 11 -65.5t30 -48.5t44.5 -30.5
t55.5 -10.5q37 0 71 15.5t59.5 43.5t41 66.5t15.5 84.5q0 34 -10 63t-28 49.5t-43 32t-55 11.5q-36 0 -70.5 -16.5t-61.5 -45t-43.5 -67t-16.5 -82.5z" />
    <glyph glyph-name="backslash" unicode="\" horiz-adv-x="336" 
d="M149 799h44l88 -927h-44z" />
    <glyph glyph-name="bar" unicode="|" horiz-adv-x="178" 
d="M91 -128h-41l115 815h41z" />
    <glyph glyph-name="braceleft" unicode="{" horiz-adv-x="237" 
d="M83 310q28 0 50 23.5t28 68.5l29 211q7 46 31 71.5t71 30.5v-38q-26 -4 -39.5 -18.5t-18.5 -52.5l-28 -205q-6 -43 -23 -71.5t-46 -38.5l-1 -7q26 -9 35 -37.5t3 -70.5l-29 -210q-5 -37 3.5 -52t34.5 -19l-12 -37q-45 5 -62 30t-10 71l30 216q6 45 -9 69t-43 24h-16l6 42
h16z" />
    <glyph glyph-name="braceright" unicode="}" horiz-adv-x="237" 
d="M256 310l-6 -42h-16q-28 0 -49.5 -24t-27.5 -69l-30 -216q-7 -46 -30.5 -71t-70.5 -30l-2 37q27 4 40 19t18 52l30 210q6 42 23 70.5t46 37.5l1 7q-26 10 -35.5 38.5t-3.5 71.5l29 205q5 38 -3.5 52.5t-34.5 18.5l12 38q45 -5 62.5 -30.5t10.5 -71.5l-30 -211
q-6 -45 8.5 -68.5t42.5 -23.5h16z" />
    <glyph glyph-name="bracketleft" unicode="[" horiz-adv-x="289" 
d="M167 700h205l-6 -38h-162l-106 -754h162l-5 -38h-205z" />
    <glyph glyph-name="bracketright" unicode="]" horiz-adv-x="289" 
d="M2 -92h163l106 754h-163l6 38h206l-117 -830h-206z" />
    <glyph glyph-name="breve" unicode="&#x2d8;" horiz-adv-x="371" 
d="M402 615q-4 -28 -15.5 -49.5t-28 -36.5t-37 -23.5t-42.5 -8.5q-46 0 -71.5 31.5t-18.5 86.5h29q-5 -40 12.5 -64.5t52.5 -24.5q34 0 58.5 24t31.5 65h29z" />
    <glyph glyph-name="brokenbar" unicode="&#xa6;" horiz-adv-x="182" 
d="M117 330l48 343h41l-48 -343h-41zM49 -153l48 343h41l-48 -343h-41z" />
    <glyph glyph-name="bullet" unicode="&#x2022;" horiz-adv-x="296" 
d="M188 285q23 0 38.5 -16t15.5 -39q0 -28 -21.5 -48t-49.5 -20q-24 0 -39 15.5t-15 38.5q0 28 21 48.5t50 20.5z" />
    <glyph glyph-name="c" unicode="c" horiz-adv-x="418" 
d="M248 -10q-40 0 -72.5 13t-56 37.5t-36.5 59t-13 76.5q0 56 19 103t52 80.5t76.5 52t92.5 18.5q32 0 55.5 -6t38.5 -13q18 -9 29 -19l-20 -33q-12 9 -28 17q-14 6 -33.5 11.5t-45.5 5.5q-36 0 -70.5 -14.5t-61.5 -42t-43.5 -67t-16.5 -88.5q0 -37 11 -65.5t30 -48
t44.5 -30t54.5 -10.5q26 0 47 5t37 12q18 7 33 17l10 -33q-15 -11 -34 -19q-17 -8 -42 -13.5t-57 -5.5z" />
    <glyph glyph-name="ccedilla" unicode="&#xe7;" horiz-adv-x="418" 
d="M204 -55l27 46q-36 3 -66 17t-51 38t-32.5 57t-11.5 73q0 56 19 103t52 80.5t76.5 52t92.5 18.5q32 0 55.5 -6t38.5 -13q18 -9 29 -19l-20 -33q-12 9 -28 17q-14 6 -33.5 11.5t-45.5 5.5q-36 0 -70.5 -14.5t-61.5 -42t-43.5 -67t-16.5 -88.5q0 -37 11 -65.5t30 -48
t44.5 -30t54.5 -10.5q26 0 47 5t37 12q18 7 33 17l10 -33q-13 -9 -31 -17q-16 -7 -38.5 -13t-51.5 -7l-18 -33q27 0 44 -13.5t17 -40.5q0 -32 -23.5 -54t-65.5 -22q-17 0 -28.5 3.5t-19.5 8.5q-9 5 -15 13l17 21q6 -6 13 -10q14 -9 37 -9q26 0 41 12t15 34q0 16 -11.5 24.5
t-31.5 8.5q-5 0 -8.5 -0.5t-5.5 -0.5q-3 -1 -5 -1z" />
    <glyph glyph-name="cent" unicode="&#xa2;" horiz-adv-x="432" 
d="M204 85q-54 17 -86 63t-32 115q0 56 19 102t51 79.5t75 52.5t91 20l23 83h35l-23 -85q23 -3 40.5 -8.5t29.5 -11.5q13 -7 23 -15l-19 -34q-10 8 -22 14q-11 5 -26.5 10.5t-35.5 7.5l-99 -361q6 -1 12.5 -1.5t12.5 -0.5q26 0 47.5 5t36.5 11q18 7 32 17l9 -33
q-16 -11 -36 -19q-17 -8 -41.5 -13.5t-54.5 -5.5q-8 0 -14.5 0.5t-14.5 1.5l-21 -79h-35zM131 269q0 -54 23.5 -91.5t61.5 -52.5l96 354q-35 -3 -67.5 -18.5t-57.5 -43t-40.5 -65t-15.5 -83.5z" />
    <glyph glyph-name="colon" unicode=":" horiz-adv-x="198" 
d="M148 352q-13 0 -22 9t-9 22q0 17 12.5 28.5t28.5 11.5q14 0 22.5 -9t8.5 -23q0 -16 -12 -27.5t-29 -11.5zM97 -9q-13 0 -22 9t-9 22q0 17 13 28.5t28 11.5q14 0 23 -9t9 -23q0 -16 -12.5 -27.5t-29.5 -11.5z" />
    <glyph glyph-name="comma" unicode="," horiz-adv-x="197" 
d="M136 16q-5 -49 -37.5 -83t-86.5 -44l-4 28q37 7 60 29t27 45q-13 1 -21 9.5t-8 21.5q0 17 12 28.5t28 11.5q15 0 24 -10.5t7 -25.5z" />
    <glyph glyph-name="copyright" unicode="&#xa9;" horiz-adv-x="696" 
d="M433 602q63 0 111.5 -20.5t81.5 -56t50 -83.5t17 -103q0 -69 -25 -131t-70.5 -109t-109 -75t-140.5 -28q-62 0 -110.5 20.5t-81.5 56t-50.5 83.5t-17.5 103q0 69 25.5 131t71 109.5t109 75t139.5 27.5zM429 572q-69 0 -125.5 -25t-97 -67.5t-63 -98.5t-22.5 -119
q0 -49 15.5 -92t44.5 -75t72 -50.5t99 -18.5q68 0 125 25t98 67.5t64 98.5t23 119q0 49 -15.5 92.5t-45.5 75t-73.5 50t-98.5 18.5zM497 399q-9 8 -20 15q-10 6 -25.5 11t-36.5 5q-33 0 -59.5 -12t-45.5 -32t-29.5 -47t-10.5 -57q0 -48 27.5 -80t80.5 -32q20 0 37 4.5
t29 10.5q14 7 25 16l14 -26q-12 -11 -28 -19q-14 -7 -34.5 -12.5t-47.5 -5.5q-34 0 -59.5 11t-43 29.5t-26.5 44t-9 55.5q0 37 13 70.5t37 59t58 40.5t76 15q27 0 46 -6t31 -13q14 -9 22 -19z" />
    <glyph glyph-name="d" unicode="d" 
d="M457 338l37 267h43l-85 -605h-31l6 91h-2q-17 -29 -43 -51q-23 -19 -57 -34.5t-83 -15.5q-38 0 -69 13.5t-54 38t-35.5 59.5t-12.5 77q0 55 19 101.5t51 80t74 52t88 18.5t75.5 -14.5t46.5 -31.5q20 -20 30 -46h2zM444 238q0 37 -11 65.5t-30 48.5t-44.5 30.5t-54.5 10.5
q-37 0 -71 -15.5t-60.5 -43.5t-42 -66.5t-15.5 -84.5q0 -35 10 -63.5t28.5 -49t43.5 -32t55 -11.5q36 0 70.5 17t61.5 46.5t43.5 67.5t16.5 80z" />
    <glyph glyph-name="dagger" unicode="&#x2020;" horiz-adv-x="389" 
d="M102 478h140l22 157h39l-22 -157h140l-5 -37h-140l-45 -281h-27l33 281h-140z" />
    <glyph glyph-name="daggerdbl" unicode="&#x2021;" horiz-adv-x="420" 
d="M121 498h139l24 170h39l-24 -170h140l-5 -38h-140l-23 -118l-11 -120h140l-5 -38h-140l-26 -184h-39l26 184h-139l5 38h139l23 120l11 118h-139z" />
    <glyph glyph-name="degree" unicode="&#xb0;" horiz-adv-x="310" 
d="M249 671q46 0 71.5 -26.5t25.5 -66.5q0 -25 -9.5 -46.5t-26.5 -37.5t-40 -25.5t-51 -9.5q-46 0 -72 26.5t-26 66.5q0 25 9.5 46.5t27 37.5t41 25.5t50.5 9.5zM245 643q-41 0 -67 -26t-26 -62q0 -29 19 -48t52 -19q41 0 66.5 25.5t25.5 61.5q0 29 -18.5 48.5t-51.5 19.5z
" />
    <glyph glyph-name="divide" unicode="&#xf7;" horiz-adv-x="489" 
d="M229 157q0 17 13.5 29.5t30.5 12.5q14 0 23.5 -10t9.5 -24q0 -17 -13.5 -29.5t-30.5 -12.5q-14 0 -23.5 10t-9.5 24zM268 431q0 17 13.5 30t30.5 13q14 0 23.5 -10.5t9.5 -24.5q0 -17 -13.5 -29.5t-30.5 -12.5q-14 0 -23.5 10t-9.5 24zM108 314h361l-5 -38h-361z" />
    <glyph glyph-name="dollar" unicode="$" horiz-adv-x="506" 
d="M84 88q16 -16 38 -28q19 -11 47.5 -20.5t68.5 -11.5l37 264q-36 12 -66.5 25t-52 30t-33.5 39.5t-12 52.5q0 38 15.5 69t43 53.5t66 35.5t84.5 15l15 104h39l-15 -104q46 -2 78 -10.5t52 -18.5q23 -11 37 -26l-30 -37q-14 12 -34 23q-17 9 -44 17t-65 10l-34 -243
q39 -13 69.5 -27t52.5 -32.5t33.5 -42.5t11.5 -55q0 -36 -13 -68t-40 -56.5t-67.5 -39.5t-94.5 -18l-13 -95h-39l13 94q-47 2 -80.5 12.5t-55.5 22.5q-26 14 -42 32zM441 164q0 45 -34 70.5t-94 45.5l-36 -251q85 5 124.5 42t39.5 93zM157 446q0 -41 33 -65t92 -43l32 232
q-32 -2 -60.5 -11t-50 -25t-34 -38t-12.5 -50z" />
    <glyph glyph-name="dotaccent" unicode="&#x2d9;" horiz-adv-x="329" 
d="M242 550q-17 0 -28.5 11.5t-11.5 28.5q0 22 16 37.5t37 15.5q19 0 30 -12t11 -29q0 -22 -15.5 -37t-38.5 -15z" />
    <glyph glyph-name="dotlessi" unicode="&#x131;" horiz-adv-x="194" 
d="M134 420h43l-59 -420h-43z" />
    <glyph glyph-name="e" unicode="e" horiz-adv-x="459" 
d="M402 36q-18 -13 -41 -23q-20 -9 -48.5 -16t-64.5 -7q-82 0 -129.5 50t-47.5 135q0 57 17.5 104t48.5 80.5t72 52t89 18.5q43 0 75 -15.5t51.5 -42.5t26 -64.5t-0.5 -82.5l-2 -11h-330l-1 -6q-7 -44 1 -77.5t27.5 -56.5t48 -35t62.5 -12q31 0 55.5 6.5t41.5 14.5
q20 9 35 21zM292 392q-57 0 -101.5 -35.5t-64.5 -106.5h284q3 62 -25.5 102t-92.5 40z" />
    <glyph glyph-name="eacute" unicode="&#xe9;" horiz-adv-x="459" 
d="M316 497h-31l75 143l55 -8zM402 36q-18 -13 -41 -23q-20 -9 -48.5 -16t-64.5 -7q-82 0 -129.5 50t-47.5 135q0 57 17.5 104t48.5 80.5t72 52t89 18.5q43 0 75 -15.5t51.5 -42.5t26 -64.5t-0.5 -82.5l-2 -11h-330l-1 -6q-7 -44 1 -77.5t27.5 -56.5t48 -35t62.5 -12
q31 0 55.5 6.5t41.5 14.5q20 9 35 21zM292 392q-57 0 -101.5 -35.5t-64.5 -106.5h284q3 62 -25.5 102t-92.5 40z" />
    <glyph glyph-name="ecircumflex" unicode="&#xea;" horiz-adv-x="459" 
d="M314 574l-70 -77h-42l94 109h42l66 -109h-42zM402 36q-18 -13 -41 -23q-20 -9 -48.5 -16t-64.5 -7q-82 0 -129.5 50t-47.5 135q0 57 17.5 104t48.5 80.5t72 52t89 18.5q43 0 75 -15.5t51.5 -42.5t26 -64.5t-0.5 -82.5l-2 -11h-330l-1 -6q-7 -44 1 -77.5t27.5 -56.5
t48 -35t62.5 -12q31 0 55.5 6.5t41.5 14.5q20 9 35 21zM292 392q-57 0 -101.5 -35.5t-64.5 -106.5h284q3 62 -25.5 102t-92.5 40z" />
    <glyph glyph-name="edieresis" unicode="&#xeb;" horiz-adv-x="459" 
d="M199 530q0 17 12.5 29t28.5 12q14 0 23 -9.5t9 -23.5q0 -17 -13.5 -29t-28.5 -12q-13 0 -22 9.5t-9 23.5zM343 530q0 17 13 29t29 12q14 0 22.5 -9.5t8.5 -23.5q0 -17 -13 -29t-28 -12q-14 0 -23 9.5t-9 23.5zM402 36q-18 -13 -41 -23q-20 -9 -48.5 -16t-64.5 -7
q-82 0 -129.5 50t-47.5 135q0 57 17.5 104t48.5 80.5t72 52t89 18.5q43 0 75 -15.5t51.5 -42.5t26 -64.5t-0.5 -82.5l-2 -11h-330l-1 -6q-7 -44 1 -77.5t27.5 -56.5t48 -35t62.5 -12q31 0 55.5 6.5t41.5 14.5q20 9 35 21zM292 392q-57 0 -101.5 -35.5t-64.5 -106.5h284
q3 62 -25.5 102t-92.5 40z" />
    <glyph glyph-name="egrave" unicode="&#xe8;" horiz-adv-x="459" 
d="M402 36q-18 -13 -41 -23q-20 -9 -48.5 -16t-64.5 -7q-82 0 -129.5 50t-47.5 135q0 57 17.5 104t48.5 80.5t72 52t89 18.5q43 0 75 -15.5t51.5 -42.5t26 -64.5t-0.5 -82.5l-2 -11h-330l-1 -6q-7 -44 1 -77.5t27.5 -56.5t48 -35t62.5 -12q31 0 55.5 6.5t41.5 14.5
q20 9 35 21zM292 392q-57 0 -101.5 -35.5t-64.5 -106.5h284q3 62 -25.5 102t-92.5 40zM225 632l57 8l35 -143h-31z" />
    <glyph glyph-name="eight" unicode="8" horiz-adv-x="508" 
d="M252 -13q-42 0 -75.5 12t-56.5 33t-35 49.5t-12 60.5q0 60 36.5 104.5t93.5 66.5q-37 17 -56 49.5t-19 70.5q0 37 15.5 70t43.5 57.5t67 38.5t86 14q39 0 70 -11t52.5 -30t32.5 -45t11 -57q0 -52 -30 -93.5t-84 -63.5q41 -17 64.5 -52t23.5 -81q0 -39 -17 -74
t-47.5 -61.5t-72.5 -42t-91 -15.5zM435 175q0 52 -39 84.5t-101 32.5q-36 0 -68 -11t-56.5 -30t-38.5 -46t-14 -58q0 -25 10 -47t28 -38t44 -25t58 -9q37 0 69.5 11.5t56.5 32t37.5 47t13.5 56.5zM301 331q36 0 65.5 11t50.5 29t32.5 42.5t11.5 51.5q0 45 -33 75.5t-94 30.5
q-36 0 -66 -10.5t-51 -29t-32.5 -42.5t-11.5 -51q0 -45 33 -76t95 -31z" />
    <glyph glyph-name="ellipsis" unicode="&#x2026;" horiz-adv-x="611" 
d="M66 27q0 18 14 32t33 14q15 0 25.5 -11t10.5 -26q0 -19 -14.5 -32t-32.5 -13q-16 0 -26 10.5t-10 25.5zM269 27q0 18 14 32t32 14q16 0 26 -11t10 -25q0 -19 -14 -32.5t-33 -13.5q-15 0 -25 10.5t-10 25.5zM471 27q0 18 14 32t33 14q15 0 25.5 -11t10.5 -26
q0 -19 -14.5 -32t-32.5 -13q-16 0 -26 10.5t-10 25.5z" />
    <glyph glyph-name="emdash" unicode="&#x2014;" horiz-adv-x="724" 
d="M107 307h586l-5 -38h-586z" />
    <glyph glyph-name="endash" unicode="&#x2013;" horiz-adv-x="461" 
d="M107 307h324l-5 -38h-324z" />
    <glyph glyph-name="equal" unicode="=" horiz-adv-x="458" 
d="M123 406h326l-5 -38h-326zM96 215h326l-5 -38h-326z" />
    <glyph glyph-name="eth" unicode="&#xf0;" horiz-adv-x="498" 
d="M247 -10q-40 0 -72.5 13.5t-55.5 38t-35.5 59t-12.5 76.5q0 55 18.5 101.5t50.5 80.5t75.5 52.5t93.5 18.5q27 0 49 -5.5t38 -14.5l1 2q-9 9 -20 32l-55 112l-130 -74l-13 29l130 74l-66 136l1 7h41l60 -123l130 75l13 -29l-129 -74l90 -182q20 -41 29 -77.5t9 -69.5
q0 -52 -15.5 -99t-46 -82t-75.5 -56t-103 -21zM443 239q0 75 -38 114.5t-101 39.5q-37 0 -71 -15t-60.5 -42.5t-42 -66.5t-15.5 -87q0 -72 38.5 -113.5t98.5 -41.5q38 0 72.5 14.5t61 41.5t42 66.5t15.5 89.5z" />
    <glyph glyph-name="partialdiff" unicode="&#x2202;" horiz-adv-x="498" 
d="M247 -10q-40 0 -72.5 13.5t-55.5 38t-35.5 59t-12.5 76.5q0 55 18.5 101.5t50.5 80.5t75.5 52.5t93.5 18.5q27 0 49 -5.5t38 -14.5l1 2q-9 9 -20 32l-134 277l1 7h41l164 -333q20 -41 29 -77.5t9 -69.5q0 -52 -15.5 -99t-46 -82t-75.5 -56t-103 -21zM443 239
q0 75 -38 114.5t-101 39.5q-37 0 -71 -15t-60.5 -42.5t-42 -66.5t-15.5 -87q0 -72 38.5 -113.5t98.5 -41.5q38 0 72.5 14.5t61 41.5t42 66.5t15.5 89.5z" />
    <glyph glyph-name="exclam" unicode="!" horiz-adv-x="189" 
d="M130 148h-29l51 452h52zM62 25q0 17 12.5 29t28.5 12q14 0 23 -9.5t9 -23.5q0 -17 -12.5 -29t-29.5 -12q-14 0 -22.5 9.5t-8.5 23.5z" />
    <glyph glyph-name="exclamdown" unicode="&#xa1;" horiz-adv-x="178" 
d="M90 -176h-52l74 451h29zM108 390q0 17 12.5 29.5t28.5 12.5q14 0 23 -10t9 -24q0 -17 -12.5 -29t-29.5 -12q-14 0 -22.5 9.5t-8.5 23.5z" />
    <glyph glyph-name="f" unicode="f" horiz-adv-x="284" 
d="M197 383l-54 -383h-43l54 383h-80l5 37h80l7 48q10 68 52.5 105.5t102.5 37.5q18 0 31.5 -2.5t22.5 -4.5l19 -7l-19 -36q-7 3 -16 6q-8 2 -19 4t-25 2q-39 0 -68.5 -26t-37.5 -78l-7 -49h141l-5 -37h-141z" />
    <glyph glyph-name="i" unicode="i" horiz-adv-x="194" 
d="M172 537q-13 0 -21.5 8.5t-8.5 21.5q0 16 12 27t28 11q13 0 21.5 -8.5t8.5 -21.5q0 -16 -12 -27t-28 -11zM134 420h43l-59 -420h-43z" />
    <glyph glyph-name="five" unicode="5" horiz-adv-x="475" 
d="M201 559l-37 -220q19 5 47 9.5t66 4.5q87 0 134 -41.5t47 -111.5q0 -50 -17.5 -89.5t-48.5 -67t-73.5 -42.5t-92.5 -15q-48 0 -80.5 12.5t-52.5 27.5q-24 18 -39 40l31 31q14 -20 35 -35q18 -13 45.5 -23.5t65.5 -10.5q39 0 72.5 11t57.5 32.5t38 52t14 69.5
q0 57 -38.5 88.5t-103.5 31.5q-32 0 -59 -4t-46.5 -8.5t-30 -8.5l-10.5 -4l-10 9l51 303h323l-6 -41h-282z" />
    <glyph glyph-name="l" unicode="l" horiz-adv-x="197" 
d="M162 605h43l-85 -605h-43z" />
    <glyph glyph-name="florin" unicode="&#x192;" horiz-adv-x="510" 
d="M294 384h-84l5 36h92l14 39q27 77 76.5 114t114.5 37q17 0 30 -2.5t22 -5.5l17 -7l-23 -37q-6 3 -14 6q-7 2 -17.5 4t-24.5 2q-46 0 -82 -26.5t-57 -84.5l-14 -39h142l-5 -36h-149l-100 -291q-14 -42 -39 -68t-76 -26q-15 0 -27 2.5t-20 6.5q-10 4 -17 10l19 35
q6 -4 13 -7q14 -7 33 -7q29 0 46 15.5t29 48.5z" />
    <glyph glyph-name="four" unicode="4" horiz-adv-x="527" 
d="M51 183l397 417h34l-57 -408h99l-6 -42h-99l-21 -150h-44l21 150h-329zM111 192h270l46 332l-306 -322l-3.5 -3.5t-3.5 -2.5q-2 -2 -3 -2v-2z" />
    <glyph glyph-name="fraction" unicode="&#x2044;" horiz-adv-x="539" 
d="M-5 0l597 647h43l-598 -647h-42z" />
    <glyph glyph-name="germandbls" unicode="&#xdf;" horiz-adv-x="475" 
d="M278 315q75 5 113.5 45.5t38.5 97.5q0 45 -28.5 76t-79.5 31q-27 0 -51.5 -9.5t-44 -27.5t-33 -44t-17.5 -58l-60 -426h-43l59 422q12 85 65.5 133.5t134.5 48.5q67 0 105.5 -39.5t38.5 -101.5q0 -57 -30.5 -98.5t-81.5 -60.5q42 -13 65.5 -47.5t23.5 -80.5
q0 -41 -14.5 -75t-41.5 -58t-64.5 -37.5t-83.5 -13.5q-34 0 -56 5q-11 3 -19 6l13 35q7 -3 18 -5q9 -2 21 -3t29 -1q32 0 60 11t48.5 30.5t32 45t11.5 55.5q0 51 -32.5 80.5t-86.5 29.5h-15z" />
    <glyph glyph-name="greater" unicode="&#x3e;" horiz-adv-x="376" 
d="M372 279l-293 -202l7 49l242 167l-195 166l7 49l236 -202z" />
    <glyph glyph-name="greaterequal" unicode="&#x2265;" horiz-adv-x="390" 
d="M134 241l180 150l-137 157l31 28l156 -179l-2 -12l-205 -172zM77 137h269l-5 -38h-269z" />
    <glyph glyph-name="guillemotleft" unicode="&#xab;" horiz-adv-x="409" 
d="M78 218l134 171h39l-1 -8l-132 -170l-1 -3l84 -173l-1 -8h-39l-86 172zM238 218l134 171h39l-1 -8l-132 -170l-1 -3l84 -173l-1 -8h-39l-86 172z" />
    <glyph glyph-name="guillemotright" unicode="&#xbb;" horiz-adv-x="408" 
d="M230 199l-134 -172h-40l1 8l133 173l1 3l-85 170l1 8h40l86 -171zM390 199l-134 -172h-40l1 8l133 173l1 3l-85 170l1 8h40l86 -171z" />
    <glyph glyph-name="guilsinglleft" unicode="&#x2039;" horiz-adv-x="249" 
d="M78 218l134 171h39l-1 -8l-132 -170l-1 -3l84 -173l-1 -8h-39l-86 172z" />
    <glyph glyph-name="guilsinglright" unicode="&#x203a;" horiz-adv-x="248" 
d="M230 199l-134 -172h-40l1 8l133 173l1 3l-85 170l1 8h40l86 -171z" />
    <glyph glyph-name="h" unicode="h" horiz-adv-x="507" 
d="M158 605h43l-35 -252h2q6 6 18 19t31.5 25.5t46 22.5t62.5 10q42 0 72 -14.5t49 -40.5t25.5 -62t0.5 -79l-33 -234h-43l32 229q5 35 0.5 65t-19 52t-38.5 34.5t-59 12.5q-37 0 -65.5 -14t-48.5 -34.5t-32 -44.5t-15 -43l-36 -257h-43z" />
    <glyph glyph-name="hungarumlaut" unicode="&#x2dd;" horiz-adv-x="396" 
d="M289 419h-31l73 158h55zM158 419h-30l73 158h55z" />
    <glyph glyph-name="hyphen" unicode="-" horiz-adv-x="400" 
d="M98 248h273l-5 -37h-273z" />
    <glyph glyph-name="iacute" unicode="&#xed;" horiz-adv-x="194" 
d="M183 497h-31l75 143l55 -8zM134 420h43l-59 -420h-43z" />
    <glyph glyph-name="icircumflex" unicode="&#xee;" horiz-adv-x="194" 
d="M181 590l-70 -77h-42l94 109h42l66 -109h-42zM134 420h43l-59 -420h-43z" />
    <glyph glyph-name="idieresis" unicode="&#xef;" horiz-adv-x="194" 
d="M67 545q0 17 12.5 29t28.5 12q14 0 23 -9.5t9 -23.5q0 -17 -13.5 -29t-28.5 -12q-13 0 -22 9.5t-9 23.5zM211 545q0 17 13 29t29 12q14 0 22.5 -9.5t8.5 -23.5q0 -17 -13 -29t-28 -12q-14 0 -23 9.5t-9 23.5zM134 420h43l-59 -420h-43z" />
    <glyph glyph-name="igrave" unicode="&#xec;" horiz-adv-x="194" 
d="M134 420h43l-59 -420h-43zM89 632l57 8l35 -143h-31z" />
    <glyph glyph-name="infinity" unicode="&#x221e;" horiz-adv-x="763" 
d="M229 119q-34 0 -60 11.5t-43.5 31.5t-26.5 46t-9 56q0 36 13.5 70.5t38 60.5t58.5 42t76 16q31 0 54.5 -11t41.5 -30t30.5 -43t23.5 -51q17 27 36.5 51t42.5 43t49.5 30t57.5 11q63 0 102 -39t39 -105q0 -36 -13 -70.5t-37 -61t-59 -42.5t-79 -16q-31 0 -54.5 11
t-41 29.5t-30.5 42.5t-23 51q-18 -27 -37.5 -51t-42.5 -42.5t-49.5 -29.5t-57.5 -11zM605 416q-27 0 -49.5 -11t-42.5 -29t-37 -41.5t-33 -48.5q9 -25 20 -48.5t26 -41.5t34.5 -29t45.5 -11q34 0 61 12.5t46 33t29 47t10 55.5q0 51 -31 81.5t-79 30.5zM237 156q27 0 50 11
t43 29t37.5 41.5t32.5 48.5q-9 25 -20 48.5t-25.5 41.5t-34.5 29t-47 11q-34 0 -61 -12.5t-45.5 -33t-28.5 -47.5t-10 -55q0 -46 27 -79t82 -33z" />
    <glyph glyph-name="integral" unicode="&#x222b;" horiz-adv-x="282" 
d="M196 543q8 54 32.5 80t70.5 26q14 0 24.5 -3t18.5 -6q9 -4 16 -9l-20 -34l-12 6q-5 2 -12.5 4.5t-15.5 2.5q-26 0 -40.5 -16.5t-19.5 -53.5l-77 -548q-8 -54 -32 -80t-70 -26q-14 0 -24.5 2.5t-18.5 6.5q-9 4 -16 9l20 34q6 -4 12 -7q5 -2 12.5 -4t15.5 -2q26 0 40 16.5
t19 53.5z" />
    <glyph glyph-name="j" unicode="j" horiz-adv-x="194" 
d="M-14 -119h10q63 0 72 70l66 469h43l-66 -471q-8 -52 -34.5 -78.5t-78.5 -26.5h-17zM172 537q-13 0 -21.5 8.5t-8.5 21.5q0 16 12 27t28 11q13 0 21.5 -8.5t8.5 -21.5q0 -16 -12 -27t-28 -11z" />
    <glyph glyph-name="k" unicode="k" horiz-adv-x="428" 
d="M468 420l-225 -179l171 -241h-53l-152 214l-71 -57l-22 -157h-43l85 605h43l-55 -391h1l263 206h58z" />
    <glyph glyph-name="less" unicode="&#x3c;" horiz-adv-x="376" 
d="M85 306l293 202l-7 -49l-241 -166l194 -167l-6 -49l-237 202z" />
    <glyph glyph-name="lessequal" unicode="&#x2264;" horiz-adv-x="391" 
d="M293 213l-157 172l2 12l206 179l23 -28l-180 -157l137 -150zM347 99h-270l5 38h270z" />
    <glyph glyph-name="logicalnot" unicode="&#xac;" horiz-adv-x="554" 
d="M101 346h431l-48 -346h-38l43 308h-393z" />
    <glyph glyph-name="lozenge" unicode="&#x25ca;" horiz-adv-x="419" 
d="M424 300l-201 -300h-27l-117 300l201 300h27zM216 69h7l149 230l-85 232h-7l-150 -232z" />
    <glyph glyph-name="lslash" unicode="&#x142;" horiz-adv-x="222" 
d="M58 262l76 43l42 300h43l-38 -274l76 44l-5 -34l-76 -44l-42 -297h-43l38 270l-76 -43z" />
    <glyph glyph-name="m" unicode="m" horiz-adv-x="826" 
d="M132 420h31l-5 -76h3l19.5 22.5t32 28.5t47 24.5t65.5 10.5q61 0 97.5 -27.5t47.5 -72.5h4q6 7 17.5 24t32 33.5t50.5 29.5t73 13q42 0 72 -14.5t48 -40.5t24.5 -62t0.5 -79l-33 -234h-43l32 230q5 34 0.5 64t-18.5 52t-38 34.5t-58 12.5q-38 0 -66 -14.5t-48 -36.5
t-31.5 -47.5t-15.5 -46.5l-35 -248h-43l35 251q4 30 -1 56t-19.5 45t-39 30t-58.5 11q-38 0 -66 -14t-48 -34.5t-31.5 -44t-14.5 -42.5l-36 -258h-43z" />
    <glyph glyph-name="macron" unicode="&#xaf;" horiz-adv-x="505" 
d="M222 700h266l-4 -32h-266z" />
    <glyph glyph-name="minus" unicode="&#x2212;" horiz-adv-x="521" 
d="M110 318h390l-5 -38h-390z" />
    <glyph glyph-name="mu" unicode="&#xb5;" horiz-adv-x="492" 
d="M42 -162l46 327q0 5 0.5 10.5t1.5 10.5l33 234h43l-32 -230q-5 -35 -1.5 -64.5t17 -51.5t36.5 -34.5t58 -12.5q37 0 66 14t49 34t31.5 43.5t15.5 43.5l36 258h43l-59 -420h-28l1 75h-2q-1 -2 -11.5 -15.5t-30.5 -29t-51 -28t-73 -12.5t-72 15t-47 41l-28 -208h-42z" />
    <glyph glyph-name="u" unicode="u" horiz-adv-x="503" 
d="M429 0h-28l1 75h-2q-1 -2 -11.5 -15.5t-30.5 -29t-51 -28t-73 -12.5t-71.5 14.5t-47 40.5t-23 62t0.5 79l33 234h43l-32 -230q-5 -35 -1.5 -64.5t17 -51.5t36.5 -34.5t58 -12.5q37 0 66 14t49 34t31.5 43.5t15.5 43.5l36 258h43z" />
    <glyph glyph-name="multiply" unicode="&#xd7;" horiz-adv-x="495" 
d="M84 137l180 164l-134 165l31 26l133 -164l179 164l22 -26l-180 -165l134 -164l-30 -26l-133 163l-179 -163z" />
    <glyph glyph-name="n" unicode="n" horiz-adv-x="507" 
d="M116 0h-43l59 420h31l-5 -76h3l18 21.5t32.5 28.5t49 25t66.5 11q42 0 72 -14.5t48.5 -40.5t25 -62t0.5 -79l-33 -234h-43l32 230q5 34 0.5 64t-19 52t-38.5 34.5t-59 12.5q-38 0 -67 -14.5t-49 -36t-31 -45.5t-14 -43z" />
    <glyph glyph-name="nine" unicode="9" horiz-adv-x="518" 
d="M469 343q-29 -47 -77.5 -77t-117.5 -30q-41 0 -72.5 13.5t-54 36t-34 52.5t-11.5 63q0 42 16.5 80.5t46.5 68t70.5 46.5t88.5 17q40 0 74.5 -14t60 -42.5t40 -73.5t14.5 -106q0 -99 -22.5 -172t-61 -121t-88.5 -72t-105 -24q-45 0 -75 11.5t-48 25.5q-22 17 -34 38l31 32
q13 -19 31 -33q16 -12 41 -22t60 -10q39 0 76.5 16.5t68 50.5t51.5 85.5t28 121.5zM279 278q33 0 63 10.5t55 29t43.5 43t27.5 52.5q-3 42 -16 72t-33 49t-46 28t-55 9q-36 0 -67.5 -13t-54.5 -35t-36.5 -52.5t-13.5 -64.5q0 -27 9.5 -50.5t27 -40.5t42 -27t54.5 -10z" />
    <glyph glyph-name="notequal" unicode="&#x2260;" horiz-adv-x="448" 
d="M118 409h184l65 128l34 -12l-58 -116h101l-5 -38h-115l-85 -167h176l-5 -38h-190l-65 -131l-35 12l60 119h-96l5 38h110l84 167h-170z" />
    <glyph glyph-name="ntilde" unicode="&#xf1;" horiz-adv-x="507" 
d="M116 0h-43l59 420h31l-5 -76h3l18 21.5t32.5 28.5t49 25t66.5 11q42 0 72 -14.5t48.5 -40.5t25 -62t0.5 -79l-33 -234h-43l32 230q5 34 0.5 64t-19 52t-38.5 34.5t-59 12.5q-38 0 -67 -14.5t-49 -36t-31 -45.5t-14 -43zM397 513q-21 0 -37.5 9t-31.5 19.5l-29 19.5t-29 9
q-23 0 -33 -13t-18 -30l-6 -13l-30 3l7 21q8 25 27 46.5t55 21.5q20 0 36.5 -9t31 -20t28.5 -20t30 -9q24 0 35 13.5t18 30.5l5 13l30 -4l-6 -19q-8 -26 -27.5 -47.5t-55.5 -21.5z" />
    <glyph glyph-name="numbersign" unicode="#" horiz-adv-x="602" 
d="M505 414h121l-12 -32h-121l-66 -184h115l-11 -32h-115l-60 -166h-34l59 166h-167l-60 -166h-34l59 166h-122l11 32h122l67 184h-117l12 32h117l61 169h35l-62 -169h168l61 169h35zM225 198h167l67 184h-168z" />
    <glyph glyph-name="o" unicode="o" horiz-adv-x="502" 
d="M490 239q0 -57 -20 -103t-53.5 -78.5t-77 -50t-90.5 -17.5q-39 0 -72 13t-56.5 37t-37 58.5t-13.5 77.5q0 57 20 103.5t53 80t76.5 52t91.5 18.5q39 0 71.5 -13.5t56.5 -38.5t37.5 -60.5t13.5 -78.5zM254 26q36 0 70.5 14.5t61.5 41.5t43.5 66t16.5 87q0 36 -11 65.5
t-30 50.5t-44.5 32t-54.5 11q-36 0 -70.5 -15t-61.5 -43t-44 -67.5t-17 -87.5q0 -36 11 -65t30.5 -49t45 -30.5t54.5 -10.5z" />
    <glyph glyph-name="oacute" unicode="&#xf3;" horiz-adv-x="502" 
d="M335 497h-31l75 143l55 -8zM490 239q0 -57 -20 -103t-53.5 -78.5t-77 -50t-90.5 -17.5q-39 0 -72 13t-56.5 37t-37 58.5t-13.5 77.5q0 57 20 103.5t53 80t76.5 52t91.5 18.5q39 0 71.5 -13.5t56.5 -38.5t37.5 -60.5t13.5 -78.5zM254 26q36 0 70.5 14.5t61.5 41.5t43.5 66
t16.5 87q0 36 -11 65.5t-30 50.5t-44.5 32t-54.5 11q-36 0 -70.5 -15t-61.5 -43t-44 -67.5t-17 -87.5q0 -36 11 -65t30.5 -49t45 -30.5t54.5 -10.5z" />
    <glyph glyph-name="ocircumflex" unicode="&#xf4;" horiz-adv-x="502" 
d="M334 590l-70 -77h-42l94 109h42l66 -109h-42zM490 239q0 -57 -20 -103t-53.5 -78.5t-77 -50t-90.5 -17.5q-39 0 -72 13t-56.5 37t-37 58.5t-13.5 77.5q0 57 20 103.5t53 80t76.5 52t91.5 18.5q39 0 71.5 -13.5t56.5 -38.5t37.5 -60.5t13.5 -78.5zM254 26q36 0 70.5 14.5
t61.5 41.5t43.5 66t16.5 87q0 36 -11 65.5t-30 50.5t-44.5 32t-54.5 11q-36 0 -70.5 -15t-61.5 -43t-44 -67.5t-17 -87.5q0 -36 11 -65t30.5 -49t45 -30.5t54.5 -10.5z" />
    <glyph glyph-name="odieresis" unicode="&#xf6;" horiz-adv-x="502" 
d="M219 546q0 17 12.5 29t28.5 12q14 0 23 -9.5t9 -23.5q0 -17 -13.5 -29t-28.5 -12q-13 0 -22 9.5t-9 23.5zM363 546q0 17 13 29t29 12q14 0 22.5 -9.5t8.5 -23.5q0 -17 -13 -29t-28 -12q-14 0 -23 9.5t-9 23.5zM490 239q0 -57 -20 -103t-53.5 -78.5t-77 -50t-90.5 -17.5
q-39 0 -72 13t-56.5 37t-37 58.5t-13.5 77.5q0 57 20 103.5t53 80t76.5 52t91.5 18.5q39 0 71.5 -13.5t56.5 -38.5t37.5 -60.5t13.5 -78.5zM254 26q36 0 70.5 14.5t61.5 41.5t43.5 66t16.5 87q0 36 -11 65.5t-30 50.5t-44.5 32t-54.5 11q-36 0 -70.5 -15t-61.5 -43
t-44 -67.5t-17 -87.5q0 -36 11 -65t30.5 -49t45 -30.5t54.5 -10.5z" />
    <glyph glyph-name="oe" unicode="&#x153;" horiz-adv-x="828" 
d="M772 36q-18 -13 -41 -23q-20 -9 -48.5 -16t-64.5 -7q-63 0 -106.5 30t-60.5 84q-33 -54 -87 -84t-117 -30q-39 0 -72 13t-56.5 37t-37 58.5t-13.5 77.5q0 57 20 103.5t53 80t76.5 52t91.5 18.5q59 0 102.5 -30.5t63.5 -84.5q30 54 80.5 84.5t112.5 30.5q43 0 75 -15.5
t51.5 -42.5t26 -64.5t-0.5 -82.5l-2 -11h-330l-1 -6q-7 -44 1 -77.5t27.5 -56.5t48 -35t62.5 -12q31 0 55.5 6.5t41.5 14.5q20 9 35 21zM252 26q41 0 76.5 17.5t61 46.5t40 66.5t14.5 78.5q0 36 -11 65.5t-30 50.5t-44.5 32t-54.5 11q-36 0 -70.5 -15t-61.5 -43t-44 -67.5
t-17 -87.5q0 -36 11 -65t30.5 -49t45 -30.5t54.5 -10.5zM662 392q-57 0 -101.5 -35.5t-64.5 -106.5h284q3 62 -25.5 102t-92.5 40z" />
    <glyph glyph-name="ogonek" unicode="&#x2db;" horiz-adv-x="192" 
d="M146 -114q-7 -7 -16 -11q-8 -4 -19.5 -7t-26.5 -3q-27 0 -43 14.5t-16 39.5q0 28 15.5 47t34.5 31q22 14 51 23l3 -19q-20 -7 -36 -18q-14 -9 -25 -23.5t-11 -33.5q0 -15 8.5 -24t25.5 -9t31 7q6 3 12 7z" />
    <glyph glyph-name="ograve" unicode="&#xf2;" horiz-adv-x="502" 
d="M490 239q0 -57 -20 -103t-53.5 -78.5t-77 -50t-90.5 -17.5q-39 0 -72 13t-56.5 37t-37 58.5t-13.5 77.5q0 57 20 103.5t53 80t76.5 52t91.5 18.5q39 0 71.5 -13.5t56.5 -38.5t37.5 -60.5t13.5 -78.5zM254 26q36 0 70.5 14.5t61.5 41.5t43.5 66t16.5 87q0 36 -11 65.5
t-30 50.5t-44.5 32t-54.5 11q-36 0 -70.5 -15t-61.5 -43t-44 -67.5t-17 -87.5q0 -36 11 -65t30.5 -49t45 -30.5t54.5 -10.5zM244 632l57 8l35 -143h-31z" />
    <glyph glyph-name="one" unicode="1" horiz-adv-x="272" 
d="M98 600h184l-85 -600h-44l79 559h-140z" />
    <glyph glyph-name="onehalf" unicode="&#xbd;" horiz-adv-x="679" 
d="M402 28l172 132q27 20 40 40.5t13 44.5q0 26 -16.5 42t-54.5 16q-20 0 -37.5 -5.5t-30.5 -12t-21 -12.5l-8 -6l-15 26q15 11 33 21q16 8 37 14.5t47 6.5q55 0 78 -25t23 -60q0 -33 -15 -59.5t-50 -52.5l-142 -107h191l-4 -31h-244zM38 0l555 600h43l-556 -600h-42z
M124 600h112l-45 -326h-35l41 295h-77z" />
    <glyph glyph-name="onequarter" unicode="&#xbc;" horiz-adv-x="612" 
d="M320 119l212 207l2 -1l1 1h22l-28 -201h62l-5 -30h-62l-13 -95h-33l13 95h-175zM40 0l555 600h43l-556 -600h-42zM121 600h113l-45 -326h-35l41 295h-78zM362 122l66 3h68l15 110l5 36h-2l-108 -106q-8 -8 -16 -15t-14 -13q-8 -7 -14 -14v-1z" />
    <glyph glyph-name="uni00B9" unicode="&#xb9;" horiz-adv-x="204" 
d="M117 668h113l-45 -326h-35l41 295h-78z" />
    <glyph glyph-name="ordfeminine" unicode="&#xaa;" horiz-adv-x="403" 
d="M96 359q0 53 42 85t110 32q54 0 78.5 -14.5t32.5 -28.5l4 26q4 27 2.5 49.5t-11.5 38t-29.5 24.5t-52.5 9q-21 0 -40 -3.5t-33.5 -8t-23 -8.5t-9.5 -4l-8 32q17 7 37 13q17 5 39 9t47 4q42 0 67.5 -11.5t39 -32t16 -49.5t-2.5 -63l-26 -184h-26l-1 48h-2q-5 -8 -15 -18
t-25.5 -18.5t-38.5 -14t-54 -5.5q-54 0 -85.5 25.5t-31.5 67.5zM134 362q0 -30 24.5 -48t66.5 -18q28 0 49.5 7t37 18t25 24.5t13.5 27.5l1 3q7 30 -23 50t-79 20q-52 0 -83.5 -23t-31.5 -61z" />
    <glyph glyph-name="ordmasculine" unicode="&#xba;" horiz-adv-x="419" 
d="M296 613q64 0 103 -39t39 -108q0 -44 -15 -80t-40.5 -62t-60 -40t-74.5 -14q-64 0 -103.5 39.5t-39.5 106.5q0 45 15 81t41 62t60.5 40t74.5 14zM292 578q-31 0 -58 -11.5t-47 -32t-31.5 -49.5t-11.5 -65q0 -53 29.5 -84t79.5 -31q31 0 58 11.5t46.5 32t31 49.5t11.5 64
q0 54 -29 85t-79 31z" />
    <glyph glyph-name="oslash" unicode="&#xf8;" horiz-adv-x="503" 
d="M490 239q0 -57 -20 -103t-53.5 -78.5t-77 -50t-90.5 -17.5q-79 0 -129 50l-42 -40h-42l66 61q-32 46 -32 115q0 57 20 103.5t53 80t76.5 52t91.5 18.5q38 0 70.5 -13.5t56.5 -38.5l45 42h41l-69 -63q17 -24 26 -53.5t9 -64.5zM254 26q36 0 70.5 14.5t61.5 41.5t43.5 66
t16.5 87q0 27 -6.5 50t-17.5 42l-270 -258q40 -43 102 -43zM113 181q0 -52 23 -89l270 257q-40 45 -100 45q-36 0 -70.5 -15t-61.5 -43t-44 -67.5t-17 -87.5z" />
    <glyph glyph-name="otilde" unicode="&#xf5;" horiz-adv-x="502" 
d="M490 239q0 -57 -20 -103t-53.5 -78.5t-77 -50t-90.5 -17.5q-39 0 -72 13t-56.5 37t-37 58.5t-13.5 77.5q0 57 20 103.5t53 80t76.5 52t91.5 18.5q39 0 71.5 -13.5t56.5 -38.5t37.5 -60.5t13.5 -78.5zM254 26q36 0 70.5 14.5t61.5 41.5t43.5 66t16.5 87q0 36 -11 65.5
t-30 50.5t-44.5 32t-54.5 11q-36 0 -70.5 -15t-61.5 -43t-44 -67.5t-17 -87.5q0 -36 11 -65t30.5 -49t45 -30.5t54.5 -10.5zM390 513q-21 0 -37.5 9t-31.5 19.5l-29 19.5t-29 9q-23 0 -33 -13t-18 -30l-6 -13l-30 3l7 21q8 25 27 46.5t55 21.5q20 0 36.5 -9t31 -20t28.5 -20
t30 -9q24 0 35 13.5t18 30.5l5 13l30 -4l-6 -19q-8 -26 -27.5 -47.5t-55.5 -21.5z" />
    <glyph glyph-name="p" unicode="p" 
d="M128 86l-34 -242h-43l81 576h31l-5 -88h4q17 27 43 49q22 18 56 33.5t82 15.5q37 0 68 -13.5t53.5 -38t35 -59.5t12.5 -77q0 -56 -19 -102t-50.5 -79.5t-73 -52t-86.5 -18.5q-48 0 -77.5 15t-46.5 33q-20 21 -29 48h-2zM141 182q0 -36 11 -64.5t30 -49t44.5 -31
t54.5 -10.5q37 0 71 15.5t59.5 43.5t41 66.5t15.5 84.5q0 34 -10 63t-28 49.5t-43 32t-55 11.5q-36 0 -70 -16.5t-61 -45t-43.5 -67t-16.5 -82.5z" />
    <glyph glyph-name="paragraph" unicode="&#xb6;" horiz-adv-x="495" 
d="M401 168h-93q-103 0 -163 48.5t-60 140.5q0 58 20.5 103t57.5 76.5t89.5 48t115.5 16.5h138l-96 -683h-44z" />
    <glyph glyph-name="parenleft" unicode="(" horiz-adv-x="265" 
d="M129 287q-12 -85 -2.5 -150.5t29 -114t43 -80.5t38.5 -50l-30 -28q-18 20 -44 54.5t-48 86t-33 121.5t2 161t43.5 161t67 121.5t72 85.5t58.5 54l23 -28q-20 -18 -52.5 -50t-65.5 -80.5t-61 -114t-40 -149.5z" />
    <glyph glyph-name="parenright" unicode=")" horiz-adv-x="265" 
d="M223 357q0 67 -13 120t-31 93t-37.5 67.5t-32.5 43.5l29 28q15 -17 37.5 -46.5t43 -72t35 -99.5t14.5 -130q0 -109 -29 -191.5t-69 -143t-82 -100t-69 -62.5l-21 28l61 58t74.5 94t63 134.5t26.5 178.5z" />
    <glyph glyph-name="percent" unicode="%" horiz-adv-x="647" 
d="M251 613q26 0 45.5 -10t32 -27t19 -40t6.5 -48q0 -33 -10 -64t-29 -55t-46 -39t-60 -15q-26 0 -45.5 10t-32.5 27.5t-19.5 40t-6.5 48.5q0 33 10 64t29 55t46 38.5t61 14.5zM246 576q-23 0 -42 -11t-32 -29t-20 -42t-7 -50q0 -38 17.5 -64.5t52.5 -26.5q23 0 41.5 11
t31 29t19.5 42t7 50q0 38 -17 64.5t-51 26.5zM522 290q26 0 45.5 -10t32.5 -27t19.5 -40t6.5 -48q0 -33 -10.5 -64t-29.5 -55.5t-46 -39t-60 -14.5q-26 0 -45.5 10.5t-32.5 27.5t-19.5 40t-6.5 48q0 33 10.5 64t29.5 55t46 38.5t60 14.5zM517 253q-23 0 -41.5 -11t-31.5 -29
t-20 -42t-7 -50q0 -38 16.5 -64.5t51.5 -26.5q23 0 41.5 11t31.5 29.5t20 42t7 49.5q0 38 -16.5 64.5t-51.5 26.5zM671 600l-560 -600h-50l560 600h50z" />
    <glyph glyph-name="period" unicode="." horiz-adv-x="193" 
d="M94 -9q-13 0 -22 9t-9 22q0 17 13 28.5t28 11.5q14 0 23 -9t9 -23q0 -16 -12.5 -27.5t-29.5 -11.5z" />
    <glyph glyph-name="periodcentered" unicode="&#xb7;" horiz-adv-x="197" 
d="M111 356q0 17 13 29.5t30 12.5q14 0 23.5 -10t9.5 -24q0 -17 -13.5 -29t-30.5 -12q-14 0 -23 9.5t-9 23.5z" />
    <glyph glyph-name="perthousand" unicode="&#x2030;" horiz-adv-x="942" 
d="M251 613q26 0 45.5 -10t32 -27t19 -40t6.5 -48q0 -33 -10 -64t-29 -55t-46 -39t-60 -15q-26 0 -45.5 10t-32.5 27.5t-19.5 40t-6.5 48.5q0 33 10 64t29 55t46 38.5t61 14.5zM215 353q23 0 41.5 11t31 29t19.5 42t7 50q0 38 -17 64.5t-51 26.5q-23 0 -42 -11t-32 -29
t-20 -42t-7 -50q0 -38 17.5 -64.5t52.5 -26.5zM671 600l-560 -600h-50l560 600h50zM522 290q26 0 45.5 -10t32.5 -27t19.5 -40t6.5 -48q0 -33 -10.5 -64t-29.5 -55.5t-46 -39t-60 -14.5q-26 0 -45.5 10.5t-32.5 27.5t-19.5 40t-6.5 48q0 33 10.5 64t29.5 55t46 38.5t60 14.5
zM517 253q-23 0 -41.5 -11t-31.5 -29t-20 -42t-7 -50q0 -38 16.5 -64.5t51.5 -26.5q23 0 41.5 11t31.5 29.5t20 42t7 49.5q0 38 -16.5 64.5t-51.5 26.5zM822 253q-23 0 -41.5 -11t-31.5 -29t-20 -42t-7 -50q0 -38 16.5 -64.5t51.5 -26.5q23 0 42 11t32 29t20 42t7 50
q0 38 -17 64.5t-52 26.5zM827 290q26 0 46 -10t33 -27t19.5 -40t6.5 -48q0 -33 -10.5 -64t-29.5 -55.5t-46 -39t-61 -14.5q-26 0 -45.5 10.5t-32 27.5t-19 40t-6.5 48q0 33 10.5 64t29 55t45.5 38.5t60 14.5z" />
    <glyph glyph-name="pi" unicode="&#x3c0;" horiz-adv-x="468" 
d="M499 420l-5 -37h-67l-54 -383h-43l54 383h-191l-54 -383h-43l54 383h-68l5 37h412z" />
    <glyph glyph-name="plus" unicode="+" horiz-adv-x="484" 
d="M306 317h175l-5 -38h-175l-25 -176h-39l25 176h-176l5 38h176l26 182h39z" />
    <glyph glyph-name="plusminus" unicode="&#xb1;" horiz-adv-x="547" 
d="M283 181l26 183h-183l5 38h183l26 185h38l-26 -185h178l-5 -38h-178l-26 -183h-38zM483 68h-399l5 38h399z" />
    <glyph glyph-name="product" unicode="&#x220f;" horiz-adv-x="602" 
d="M531 0h-44l79 561h-372l-79 -561h-44l83 594h4l1 6h451l-1 -6h5z" />
    <glyph glyph-name="q" unicode="q" 
d="M430 -156h-43l34 236h-2q-16 -26 -42 -45q-22 -17 -55.5 -31t-80.5 -14q-37 0 -68.5 13.5t-54 38.5t-35 59.5t-12.5 76.5q0 56 19 102.5t51.5 79.5t74.5 51.5t88 18.5q48 0 78.5 -16t47.5 -35q20 -22 29 -50h2l19 91h31zM444 238q0 37 -11 65.5t-30 48.5t-44.5 30.5
t-55.5 10.5q-37 0 -71 -15.5t-60 -43.5t-41.5 -66.5t-15.5 -84.5q0 -69 37.5 -112.5t102.5 -43.5q36 0 70 17.5t60.5 46.5t42.5 67.5t16 79.5z" />
    <glyph glyph-name="question" unicode="?" horiz-adv-x="411" 
d="M109 560q18 13 43 24q21 9 51 17t68 8q80 0 124.5 -35.5t44.5 -97.5q0 -42 -13.5 -71t-34.5 -51t-46 -39.5l-47.5 -34.5t-39.5 -36.5t-22 -46.5l-10 -53h-29l9 61q4 29 19.5 50.5t36.5 39.5t44 35t42.5 36.5t32 43.5t12.5 57q0 45 -33 73t-96 28q-32 0 -58 -7t-45 -15
q-22 -10 -39 -22zM160 20q0 17 13 29t30 12q14 0 22.5 -9t8.5 -23q0 -17 -12.5 -29.5t-29.5 -12.5q-14 0 -23 9.5t-9 23.5z" />
    <glyph glyph-name="questiondown" unicode="&#xbf;" horiz-adv-x="404" 
d="M358 -140q-19 -14 -44 -25q-21 -9 -51 -16.5t-68 -7.5q-79 0 -123.5 35.5t-44.5 97.5q0 41 13.5 70.5t34.5 51.5t46 39.5l47.5 34.5t39.5 36.5t22 46.5l10 53h29l-9 -61q-4 -29 -19.5 -50.5t-36.5 -39.5t-44 -35t-42.5 -36.5t-32 -43.5t-12.5 -56q0 -46 33 -73.5
t95 -27.5q32 0 58.5 6.5t45.5 14.5q22 10 39 22zM306 400q0 -17 -12.5 -29t-29.5 -12q-14 0 -23 9.5t-9 23.5q0 17 13 29t30 12q14 0 22.5 -9.5t8.5 -23.5z" />
    <glyph glyph-name="quotedbl" unicode="&#x22;" horiz-adv-x="286" 
d="M151 475h-26l45 209h49zM272 475h-26l46 209h48z" />
    <glyph glyph-name="quotedblbase" unicode="&#x201e;" horiz-adv-x="375" 
d="M136 16q-5 -49 -37.5 -83t-86.5 -44l-4 28q37 7 60 29t27 45q-13 1 -21 9.5t-8 21.5q0 17 12 28.5t28 11.5q15 0 24 -10.5t7 -25.5zM314 16q-5 -49 -37.5 -83t-86.5 -44l-4 28q37 7 60 29t27 45q-13 1 -21 9.5t-8 21.5q0 17 12 28.5t28 11.5q15 0 24 -10.5t7 -25.5z" />
    <glyph glyph-name="quotedblleft" unicode="&#x201c;" horiz-adv-x="345" 
d="M120 472q5 50 38 84t87 44l3 -28q-36 -8 -59 -29.5t-27 -44.5q13 -1 21 -10t8 -22q0 -16 -12 -28t-29 -12q-14 0 -23.5 11t-7.5 25zM389 572q-37 -8 -60 -29.5t-27 -44.5q13 -1 21 -10t8 -22q0 -16 -12 -28t-29 -12q-14 0 -22.5 11t-7.5 25v3l1 7q7 50 38.5 84t85.5 44z
" />
    <glyph glyph-name="quotedblright" unicode="&#x201d;" horiz-adv-x="351" 
d="M244 554q-5 -50 -38 -83.5t-86 -44.5l-4 29q36 7 59 28.5t27 45.5q-13 1 -21 9t-8 22q0 17 12 28.5t29 11.5q15 0 24 -10.5t7 -25.5zM384 554q-5 -50 -37.5 -83.5t-86.5 -44.5l-4 29q37 7 60 28.5t27 45.5q-13 0 -21.5 8.5t-8.5 22.5q0 17 12.5 28.5t28.5 11.5
q15 0 24 -10.5t7 -25.5z" />
    <glyph glyph-name="quoteleft" unicode="&#x2018;" horiz-adv-x="206" 
d="M121 472q5 50 37.5 84t86.5 44l4 -28q-37 -8 -60 -29.5t-27 -44.5q12 -1 21 -10t9 -22q0 -16 -13 -28t-28 -12t-24 11t-7 25z" />
    <glyph glyph-name="quoteright" unicode="&#x2019;" horiz-adv-x="212" 
d="M116 455q37 7 60 28.5t27 45.5q-13 0 -21 8.5t-8 22.5q0 17 12 28.5t28 11.5q15 0 23.5 -10.5t7.5 -25.5v-3l-1 -7q-7 -50 -38.5 -83.5t-85.5 -44.5l-4 29v0z" />
    <glyph glyph-name="quotesinglbase" unicode="&#x201a;" horiz-adv-x="197" 
d="M136 16q-5 -49 -37.5 -83t-86.5 -44l-4 28q37 7 60 29t27 45q-13 1 -21 9.5t-8 21.5q0 17 12 28.5t28 11.5q15 0 24 -10.5t7 -25.5z" />
    <glyph glyph-name="quotesingle" unicode="'" horiz-adv-x="165" 
d="M151 475h-26l45 209h49z" />
    <glyph glyph-name="r" unicode="r" horiz-adv-x="269" 
d="M312 384h-19q-28 0 -52 -10.5t-42.5 -29t-31 -43t-16.5 -51.5l-35 -250h-43l59 420h31l-5 -81h2q5 8 15.5 21.5t28 27t41 23t53.5 9.5h19z" />
    <glyph glyph-name="radical" unicode="&#x221a;" horiz-adv-x="593" 
d="M39 207h49l96 -289q4 -11 7 -22.5t3 -18.5h2q2 7 7.5 18.5t12.5 22.5l417 682h50l-492 -792h-15z" />
    <glyph glyph-name="registered" unicode="&#xae;" horiz-adv-x="560" 
d="M563 410q0 -52 -19.5 -99.5t-54 -83.5t-83 -57t-106.5 -21q-47 0 -83.5 16t-61.5 43.5t-38 64t-13 77.5q0 52 19 99.5t53.5 83.5t82.5 57.5t106 21.5q48 0 84.5 -16t62 -43.5t38.5 -64t13 -78.5zM531 407q0 37 -11.5 68.5t-33.5 55t-53.5 37t-71.5 13.5q-49 0 -90 -18
t-71 -49t-46.5 -72.5t-16.5 -88.5q0 -36 11.5 -68t33 -55.5t52.5 -37t70 -13.5q49 0 91 18t72 49.5t47 72.5t17 88zM353 485q35 0 53.5 -16.5t18.5 -42.5t-14 -44t-37 -28l38 -63l-1 -8h-27l-40 64h-70l-9 -64h-28l28 202h88zM290 458l-12 -84h59q27 0 42.5 13.5t15.5 35.5
q0 16 -11 25.5t-34 9.5h-60z" />
    <glyph glyph-name="s" unicode="s" horiz-adv-x="400" 
d="M72 67q15 -11 35 -20q17 -8 42 -13.5t57 -5.5q69 0 100 26.5t31 61.5q0 26 -18.5 40.5t-46.5 24.5t-60 18t-60 20t-46.5 31.5t-18.5 52.5q0 54 42 90.5t127 36.5q36 0 63.5 -5.5t45.5 -11.5q21 -7 36 -16l-22 -36q-15 8 -33 15q-17 6 -40 11t-54 5q-124 0 -124 -82
q0 -25 18.5 -38.5t46.5 -22.5t60 -16.5t60 -19.5t46.5 -32.5t18.5 -55.5q0 -26 -9.5 -50.5t-30.5 -43t-54.5 -29.5t-81.5 -11q-42 0 -70.5 7t-47.5 15q-22 10 -36 22z" />
    <glyph glyph-name="scaron" unicode="&#x161;" horiz-adv-x="400" 
d="M278 529l70 77h42l-94 -109h-42l-66 109h42zM72 67q15 -11 35 -20q17 -8 42 -13.5t57 -5.5q69 0 100 26.5t31 61.5q0 26 -18.5 40.5t-46.5 24.5t-60 18t-60 20t-46.5 31.5t-18.5 52.5q0 54 42 90.5t127 36.5q36 0 63.5 -5.5t45.5 -11.5q21 -7 36 -16l-22 -36
q-15 8 -33 15q-17 6 -40 11t-54 5q-124 0 -124 -82q0 -25 18.5 -38.5t46.5 -22.5t60 -16.5t60 -19.5t46.5 -32.5t18.5 -55.5q0 -26 -9.5 -50.5t-30.5 -43t-54.5 -29.5t-81.5 -11q-42 0 -70.5 7t-47.5 15q-22 10 -36 22z" />
    <glyph glyph-name="section" unicode="&#xa7;" horiz-adv-x="506" 
d="M81 78q18 -14 44 -25q22 -9 54.5 -16.5t77.5 -7.5q92 0 132 26.5t40 64.5q0 17 -7.5 29.5t-25 23.5t-45 21.5t-67.5 23.5q-69 21 -98.5 44t-29.5 52t16 44.5t31 23.5q-80 37 -80 97q0 28 14 52.5t41.5 42.5t69.5 28.5t98 10.5q50 0 84.5 -7t57.5 -15q26 -10 43 -22
l-30 -37q-15 11 -38 20q-20 8 -50 14.5t-72 6.5q-87 0 -127 -25t-40 -64q0 -33 30.5 -53.5t92.5 -37.5q72 -20 109.5 -46.5t37.5 -59.5q0 -26 -15 -43.5t-28 -25.5q39 -20 58 -43t19 -53q0 -25 -12.5 -49.5t-39.5 -43.5t-70 -30.5t-104 -11.5q-54 0 -91.5 8t-62.5 19
q-29 11 -48 27zM277 356q-10 2 -20 5.5l-18 6.5q-10 -3 -24.5 -14t-14.5 -34q0 -18 23.5 -32.5t81.5 -32.5l61 -22q8 5 20.5 17.5t12.5 32.5q0 21 -29.5 38t-92.5 35z" />
    <glyph glyph-name="semicolon" unicode=";" horiz-adv-x="235" 
d="M162 21q-5 -50 -37.5 -84t-86.5 -44l-4 28q37 8 60 29.5t27 44.5q-13 1 -21.5 9.5t-8.5 22.5q0 16 13 28t29 12q15 0 23.5 -11t6.5 -25zM173 352q-13 0 -22.5 9t-9.5 22q0 17 13 28.5t29 11.5q14 0 22.5 -9t8.5 -23q0 -16 -12 -27.5t-29 -11.5z" />
    <glyph glyph-name="seven" unicode="7" horiz-adv-x="423" 
d="M111 600h383l-4 -32l-349 -568h-53l346 559h-328z" />
    <glyph glyph-name="six" unicode="6" horiz-adv-x="517" 
d="M135 298q-1 -8 -1.5 -18t-0.5 -18q29 46 79 74.5t114 28.5q41 0 73.5 -13.5t54.5 -36t33.5 -52.5t11.5 -63q0 -41 -16 -79.5t-45.5 -68t-69.5 -47t-88 -17.5q-41 0 -76 14t-61 43.5t-40.5 74t-14.5 106.5q0 99 23.5 172t62.5 120.5t89.5 71t104.5 23.5q47 0 78 -13.5
t49 -29.5q21 -18 33 -42l-31 -32q-13 20 -31 37q-17 14 -42 26t-62 12q-38 0 -75 -14.5t-68.5 -46.5t-54 -84.5t-29.5 -127.5zM320 323q-66 0 -116.5 -38t-70.5 -96q3 -43 16 -73t33.5 -49t47 -28t55.5 -9q36 0 66.5 13t53.5 35t36 52t13 65q0 27 -9.5 50t-26.5 40.5
t-42 27.5t-56 10z" />
    <glyph glyph-name="slash" unicode="/" horiz-adv-x="540" 
d="M6 -111l575 894h46l-574 -894h-47z" />
    <glyph glyph-name="Aacute" unicode="&#xc1;" horiz-adv-x="584" 
d="M564 0h-46l-43 157h-322l-87 -157h-46l335 600h42zM176 198h288l-95 348zM397 635h-31l75 143l55 -8z" />
    <glyph glyph-name="sterling" unicode="&#xa3;" horiz-adv-x="496" 
d="M434 0h-366l6 41h1l-1 1q21 12 39 32q15 17 27.5 43.5t12.5 64.5q0 20 -3 44t-5 49h-65l5 36h55q-1 10 -1.5 25t-0.5 27q0 49 15 93.5t44.5 77.5t73.5 52.5t102 19.5q42 0 71 -10.5t47 -22.5q21 -15 34 -33l-33 -32q-12 16 -30 28q-15 11 -39 19.5t-57 8.5
q-45 0 -79 -15.5t-56.5 -41.5t-33.5 -62t-11 -76q0 -14 0.5 -30t2.5 -28h238l-5 -36h-229q2 -23 4.5 -46t2.5 -42q0 -27 -6.5 -49.5t-16 -40.5t-21.5 -32t-23 -24h307z" />
    <glyph glyph-name="summation" unicode="&#x2211;" horiz-adv-x="442" 
d="M478 600l-5 -39h-297l160 -251l-3 -20l-230 -251h296l-5 -39h-353l5 39l240 257l1 7l-167 258l5 39h353z" />
    <glyph glyph-name="t" unicode="t" horiz-adv-x="297" 
d="M156 420l18 128h43l-18 -128h129l-5 -36h-129l-39 -278q-6 -42 10.5 -60t49.5 -18q13 0 24.5 2.5t20.5 6.5q11 4 19 9l10 -33q-10 -7 -22 -12q-11 -5 -26.5 -8t-34.5 -3q-55 0 -78.5 31t-15.5 84l39 279h-81l5 36h81z" />
    <glyph glyph-name="thorn" unicode="&#xfe;" 
d="M128 86l-34 -242h-43l106 756h43l-37 -263h2q17 26 43 46q22 17 55.5 32t80.5 15q37 0 68 -13.5t53 -38t34.5 -59.5t12.5 -77q0 -56 -19 -102t-50.5 -79.5t-73 -52t-86.5 -18.5q-48 0 -77.5 15t-46.5 33q-20 21 -29 48h-2zM141 182q0 -37 11 -65.5t30 -48.5t45 -30.5
t55 -10.5q37 0 71 15.5t59.5 43.5t40.5 66.5t15 84.5q0 34 -10 63t-27.5 49.5t-42.5 32t-55 11.5q-36 0 -70.5 -16t-61.5 -44.5t-43.5 -67t-16.5 -83.5z" />
    <glyph glyph-name="three" unicode="3" horiz-adv-x="485" 
d="M203 299l4 31l242 229h-316l5 41h375l-6 -39l-234 -223h17q80 0 124 -36t44 -109q0 -44 -16.5 -81.5t-46.5 -65.5t-72.5 -44t-94.5 -16q-48 0 -81 12.5t-54 27.5q-25 18 -39 40l31 31q14 -20 35 -35q18 -13 45.5 -23.5t65.5 -10.5q43 0 77 13t57.5 35t35.5 51t12 61
q0 56 -30.5 83.5t-96.5 27.5h-83z" />
    <glyph glyph-name="threequarters" unicode="&#xbe;" horiz-adv-x="715" 
d="M427 119l212 207l2 -1l1 1h22l-28 -201h62l-4 -30h-62l-14 -95h-33l14 95h-175zM136 600h220l-3 -28l-100 -106q42 -2 64.5 -23t22.5 -59q0 -24 -9 -45t-26.5 -37.5t-44 -26t-60.5 -9.5q-27 0 -48 7t-35.5 15.5t-22.5 15.5t-9 8l24 25q11 -11 25 -20q12 -8 29.5 -14
t40.5 -6q50 0 75.5 24.5t25.5 59.5q0 27 -18 42t-53 15h-31l3 25l103 106h-177zM132 0l555 600h43l-556 -600h-42zM469 122l66 3h68l15 110l5 36h-1l-109 -106q-8 -8 -16 -15t-14 -13q-8 -7 -14 -14v-1z" />
    <glyph glyph-name="uni00B3" unicode="&#xb3;" horiz-adv-x="342" 
d="M152 668h220l-3 -28l-100 -106q42 -2 64.5 -23t22.5 -59q0 -24 -9 -45t-26.5 -37.5t-44 -26t-60.5 -9.5q-27 0 -48 7t-35.5 15.5t-22.5 15.5t-9 8l24 25q11 -11 25 -20q12 -8 29.5 -14t40.5 -6q50 0 75.5 24.5t25.5 59.5q0 27 -18 42t-53 15h-31l3 25l103 106h-177z" />
    <glyph glyph-name="trademark" unicode="&#x2122;" horiz-adv-x="704" 
d="M376 281l44 319h32l91 -166l139 166h32l-44 -319h-35l36 259l-127 -152h-13l-85 153l-36 -260h-34zM351 569h-102l-40 -288h-34l40 288h-101l4 31h237z" />
    <glyph glyph-name="two" unicode="2" horiz-adv-x="482" 
d="M53 32l302 268q28 24 44.5 44t25.5 38t12 35t3 36q0 52 -34 85t-94 33q-38 0 -69.5 -12t-54.5 -26t-36 -26t-14 -13l-21 34q24 24 55 42q26 16 63.5 29.5t82.5 13.5q82 0 125 -42.5t43 -108.5q0 -23 -3.5 -44.5t-14 -43.5t-29 -45t-48.5 -50l-270 -238h320l-6 -41h-387z
" />
    <glyph glyph-name="uni00B2" unicode="&#xb2;" horiz-adv-x="358" 
d="M108 370l172 132q27 20 40.5 40.5t13.5 44.5q0 26 -17 42t-55 16q-20 0 -37.5 -5.5t-30.5 -12t-21 -12.5l-8 -6l-15 26q15 11 33 21q16 8 37 14.5t47 6.5q56 0 78.5 -25t22.5 -60q0 -34 -15.5 -60t-49.5 -52l-142 -107h191l-4 -31h-244z" />
    <glyph glyph-name="uacute" unicode="&#xfa;" horiz-adv-x="503" 
d="M330 497h-31l75 143l55 -8zM429 0h-28l1 75h-2q-1 -2 -11.5 -15.5t-30.5 -29t-51 -28t-73 -12.5t-71.5 14.5t-47 40.5t-23 62t0.5 79l33 234h43l-32 -230q-5 -35 -1.5 -64.5t17 -51.5t36.5 -34.5t58 -12.5q37 0 66 14t49 34t31.5 43.5t15.5 43.5l36 258h43z" />
    <glyph glyph-name="ucircumflex" unicode="&#xfb;" horiz-adv-x="503" 
d="M325 574l-70 -77h-42l94 109h42l66 -109h-42zM429 0h-28l1 75h-2q-1 -2 -11.5 -15.5t-30.5 -29t-51 -28t-73 -12.5t-71.5 14.5t-47 40.5t-23 62t0.5 79l33 234h43l-32 -230q-5 -35 -1.5 -64.5t17 -51.5t36.5 -34.5t58 -12.5q37 0 66 14t49 34t31.5 43.5t15.5 43.5l36 258
h43z" />
    <glyph glyph-name="udieresis" unicode="&#xfc;" horiz-adv-x="503" 
d="M211 530q0 17 12.5 29t28.5 12q14 0 23 -9.5t9 -23.5q0 -17 -13.5 -29t-28.5 -12q-13 0 -22 9.5t-9 23.5zM355 530q0 17 13 29t29 12q14 0 22.5 -9.5t8.5 -23.5q0 -17 -13 -29t-28 -12q-14 0 -23 9.5t-9 23.5zM429 0h-28l1 75h-2q-1 -2 -11.5 -15.5t-30.5 -29t-51 -28
t-73 -12.5t-71.5 14.5t-47 40.5t-23 62t0.5 79l33 234h43l-32 -230q-5 -35 -1.5 -64.5t17 -51.5t36.5 -34.5t58 -12.5q37 0 66 14t49 34t31.5 43.5t15.5 43.5l36 258h43z" />
    <glyph glyph-name="ugrave" unicode="&#xf9;" horiz-adv-x="503" 
d="M429 0h-28l1 75h-2q-1 -2 -11.5 -15.5t-30.5 -29t-51 -28t-73 -12.5t-71.5 14.5t-47 40.5t-23 62t0.5 79l33 234h43l-32 -230q-5 -35 -1.5 -64.5t17 -51.5t36.5 -34.5t58 -12.5q37 0 66 14t49 34t31.5 43.5t15.5 43.5l36 258h43zM239 632l57 8l35 -143h-31z" />
    <glyph glyph-name="underscore" unicode="_" horiz-adv-x="537" 
d="M41 -40h442l-5 -38h-442z" />
    <glyph glyph-name="uni00A0" unicode="&#xa0;" horiz-adv-x="235" 
 />
    <glyph glyph-name="v" unicode="v" horiz-adv-x="453" 
d="M241 0h-29l-135 420h49l103 -345q2 -6 3 -13.5t0 -11.5h3q1 4 4 11.5t7 13.5l200 345h48z" />
    <glyph glyph-name="w" unicode="w" horiz-adv-x="645" 
d="M472 0h-39l-53 343q-2 8 -2 14.5v11.5h-3q-2 -8 -9 -24l-151 -345h-41l-91 420h45l66 -340q2 -8 2.5 -16.5t0.5 -13.5h5q1 3 4.5 10.5l6.5 14.5l150 345h39l53 -339q2 -10 2.5 -18.5t0.5 -12.5h5q1 4 4 11.5t6 13.5l164 345h43z" />
    <glyph glyph-name="x" unicode="x" horiz-adv-x="417" 
d="M213 221l-121 199h51l99 -172h3l148 172h50l-177 -198l133 -222h-52l-110 194h-3l-166 -194h-50z" />
    <glyph glyph-name="yen" unicode="&#xa5;" horiz-adv-x="558" 
d="M559 600h51l-251 -335h153l-5 -37h-175l-12 -88h174l-5 -37h-174l-14 -103h-44l14 103h-176l5 37h176l12 88h-175l5 37h155l-156 335h52l135 -297l12 -33h3l22 33z" />
    <glyph glyph-name="z" unicode="z" horiz-adv-x="415" 
d="M374 383h-281l5 37h338l-3 -25l-331 -358h280l-5 -37h-339l4 26z" />
    <glyph glyph-name="zcaron" unicode="&#x17e;" horiz-adv-x="415" 
d="M278 529l70 77h42l-94 -109h-42l-66 109h42zM374 383h-281l5 37h338l-3 -25l-331 -358h280l-5 -37h-339l4 26z" />
    <glyph glyph-name="zero" unicode="0" horiz-adv-x="585" 
d="M291 -14q-50 0 -88 20t-63.5 54.5t-38.5 81.5t-13 102q0 75 21 142t59 117.5t91.5 80t119.5 29.5q49 0 87 -19.5t63.5 -54t38.5 -82t13 -102.5q0 -75 -20.5 -142t-58.5 -117.5t-91.5 -80t-119.5 -29.5zM297 28q57 0 101.5 27.5t74.5 72.5t46 103t16 120q0 45 -9.5 85
t-29.5 70t-50.5 47.5t-72.5 17.5q-58 0 -102.5 -27.5t-75 -72.5t-46.5 -103.5t-16 -120.5q0 -45 9.5 -85t30 -69.5t51.5 -47t73 -17.5z" />
    <glyph glyph-name="a" unicode="a" 
d="M461 329l19 91h31l-59 -420h-31l6 91h-2q-17 -29 -43 -51q-23 -19 -57 -34.5t-83 -15.5q-38 0 -69 13.5t-54 38t-35.5 59.5t-12.5 77q0 55 19 101.5t51 80t74 52t87 18.5q50 0 80.5 -16t47.5 -35q20 -22 29 -50h2zM444 238q0 37 -11 65.5t-30 48.5t-44.5 30.5t-54.5 10.5
q-37 0 -71 -15.5t-60.5 -43.5t-42 -66.5t-15.5 -84.5q0 -35 10 -63.5t28.5 -49t43.5 -32t55 -11.5q36 0 70.5 17t61.5 46t43.5 67t16.5 81z" />
    <glyph glyph-name="aacute" unicode="&#xe1;" 
d="M461 329l19 91h31l-59 -420h-31l6 91h-2q-17 -29 -43 -51q-23 -19 -57 -34.5t-83 -15.5q-38 0 -69 13.5t-54 38t-35.5 59.5t-12.5 77q0 55 19 101.5t51 80t74 52t87 18.5q50 0 80.5 -16t47.5 -35q20 -22 29 -50h2zM444 238q0 37 -11 65.5t-30 48.5t-44.5 30.5t-54.5 10.5
q-37 0 -71 -15.5t-60.5 -43.5t-42 -66.5t-15.5 -84.5q0 -35 10 -63.5t28.5 -49t43.5 -32t55 -11.5q36 0 70.5 17t61.5 46t43.5 67t16.5 81zM336 497h-31l75 143l55 -8z" />
    <glyph glyph-name="acircumflex" unicode="&#xe2;" 
d="M461 329l19 91h31l-59 -420h-31l6 91h-2q-17 -29 -43 -51q-23 -19 -57 -34.5t-83 -15.5q-38 0 -69 13.5t-54 38t-35.5 59.5t-12.5 77q0 55 19 101.5t51 80t74 52t87 18.5q50 0 80.5 -16t47.5 -35q20 -22 29 -50h2zM444 238q0 37 -11 65.5t-30 48.5t-44.5 30.5t-54.5 10.5
q-37 0 -71 -15.5t-60.5 -43.5t-42 -66.5t-15.5 -84.5q0 -35 10 -63.5t28.5 -49t43.5 -32t55 -11.5q36 0 70.5 17t61.5 46t43.5 67t16.5 81zM337 607l-70 -77h-42l94 109h42l66 -109h-42z" />
    <glyph glyph-name="atilde" unicode="&#xe3;" 
d="M461 329l19 91h31l-59 -420h-31l6 91h-2q-17 -29 -43 -51q-23 -19 -57 -34.5t-83 -15.5q-38 0 -69 13.5t-54 38t-35.5 59.5t-12.5 77q0 55 19 101.5t51 80t74 52t87 18.5q50 0 80.5 -16t47.5 -35q20 -22 29 -50h2zM444 238q0 37 -11 65.5t-30 48.5t-44.5 30.5t-54.5 10.5
q-37 0 -71 -15.5t-60.5 -43.5t-42 -66.5t-15.5 -84.5q0 -35 10 -63.5t28.5 -49t43.5 -32t55 -11.5q36 0 70.5 17t61.5 46t43.5 67t16.5 81zM387 497q-21 0 -37.5 9t-31.5 19.5l-29 19.5t-29 9q-23 0 -33 -13t-18 -30l-6 -13l-30 3l7 21q8 25 27 46.5t55 21.5q20 0 36.5 -9
t31 -20t28.5 -20t30 -9q24 0 35 13.5t18 30.5l5 13l30 -4l-6 -19q-8 -26 -27.5 -47.5t-55.5 -21.5z" />
    <glyph glyph-name="adieresis" unicode="&#xe4;" 
d="M461 329l19 91h31l-59 -420h-31l6 91h-2q-17 -29 -43 -51q-23 -19 -57 -34.5t-83 -15.5q-38 0 -69 13.5t-54 38t-35.5 59.5t-12.5 77q0 55 19 101.5t51 80t74 52t87 18.5q50 0 80.5 -16t47.5 -35q20 -22 29 -50h2zM444 238q0 37 -11 65.5t-30 48.5t-44.5 30.5t-54.5 10.5
q-37 0 -71 -15.5t-60.5 -43.5t-42 -66.5t-15.5 -84.5q0 -35 10 -63.5t28.5 -49t43.5 -32t55 -11.5q36 0 70.5 17t61.5 46t43.5 67t16.5 81zM216 530q0 17 12.5 29t28.5 12q14 0 23 -9.5t9 -23.5q0 -17 -13.5 -29t-28.5 -12q-13 0 -22 9.5t-9 23.5zM360 530q0 17 13 29t29 12
q14 0 22.5 -9.5t8.5 -23.5q0 -17 -13 -29t-28 -12q-14 0 -23 9.5t-9 23.5z" />
    <glyph glyph-name="aring" unicode="&#xe5;" 
d="M461 329l19 91h31l-59 -420h-31l6 91h-2q-17 -29 -43 -51q-23 -19 -57 -34.5t-83 -15.5q-38 0 -69 13.5t-54 38t-35.5 59.5t-12.5 77q0 55 19 101.5t51 80t74 52t87 18.5q50 0 80.5 -16t47.5 -35q20 -22 29 -50h2zM444 238q0 37 -11 65.5t-30 48.5t-44.5 30.5t-54.5 10.5
q-37 0 -71 -15.5t-60.5 -43.5t-42 -66.5t-15.5 -84.5q0 -35 10 -63.5t28.5 -49t43.5 -32t55 -11.5q36 0 70.5 17t61.5 46t43.5 67t16.5 81zM236 566q0 41 30 65t74 24q36 0 58 -18.5t22 -50.5q0 -41 -30 -65t-73 -24q-37 0 -59 18.5t-22 50.5zM387 583q0 41 -52 41
q-29 0 -47.5 -14t-18.5 -40q0 -20 14 -31t39 -11q30 0 47.5 14.5t17.5 40.5z" />
    <glyph glyph-name="agrave" unicode="&#xe0;" 
d="M461 329l19 91h31l-59 -420h-31l6 91h-2q-17 -29 -43 -51q-23 -19 -57 -34.5t-83 -15.5q-38 0 -69 13.5t-54 38t-35.5 59.5t-12.5 77q0 55 19 101.5t51 80t74 52t87 18.5q50 0 80.5 -16t47.5 -35q20 -22 29 -50h2zM444 238q0 37 -11 65.5t-30 48.5t-44.5 30.5t-54.5 10.5
q-37 0 -71 -15.5t-60.5 -43.5t-42 -66.5t-15.5 -84.5q0 -35 10 -63.5t28.5 -49t43.5 -32t55 -11.5q36 0 70.5 17t61.5 46t43.5 67t16.5 81zM246 632l57 8l35 -143h-31z" />
    <glyph glyph-name="g" unicode="g" 
d="M455 27q-6 -45 -24 -83t-47 -65t-68 -42.5t-87 -15.5q-41 0 -69.5 9t-46.5 20q-21 12 -34 29l29 30q13 -14 31 -25q16 -9 39.5 -16.5t55.5 -7.5q78 0 122.5 46t55.5 120l8 55h-2q-16 -26 -42 -46q-22 -17 -55.5 -31t-80.5 -14q-37 0 -68.5 13.5t-54 38.5t-35 59.5
t-12.5 76.5q0 56 19 102.5t51.5 79.5t74.5 51.5t88 18.5q48 0 78.5 -16t47.5 -35q20 -22 29 -50h2l19 91h31zM443 238q0 37 -11 65.5t-30 48.5t-44.5 30.5t-55.5 10.5q-37 0 -71 -15.5t-60 -43.5t-41.5 -66.5t-15.5 -84.5q0 -35 10 -63.5t28.5 -49t43.5 -32t55 -11.5
q36 0 70.5 17t61.5 46.5t43.5 67.5t16.5 80z" />
    <glyph glyph-name="y" unicode="y" horiz-adv-x="500" 
d="M485 420l-58 -414q-12 -85 -65.5 -135t-144.5 -50q-42 0 -69.5 9t-45.5 20q-21 12 -34 29l29 31q12 -14 30 -25q15 -10 38.5 -17.5t55.5 -7.5q72 0 112.5 38t50.5 107l9 63q-6 -8 -18 -21t-31.5 -26t-46.5 -22t-62 -9q-43 0 -73 14.5t-48 40.5t-24 62t0 79l33 234h43
l-32 -229q-5 -35 -1.5 -65t17 -51.5t36.5 -34t58 -12.5q37 0 66 13.5t49 34t31.5 43.5t15.5 43l36 258h43z" />
    <glyph glyph-name="yacute" unicode="&#xfd;" horiz-adv-x="500" 
d="M485 420l-58 -414q-12 -85 -65.5 -135t-144.5 -50q-42 0 -69.5 9t-45.5 20q-21 12 -34 29l29 31q12 -14 30 -25q15 -10 38.5 -17.5t55.5 -7.5q72 0 112.5 38t50.5 107l9 63q-6 -8 -18 -21t-31.5 -26t-46.5 -22t-62 -9q-43 0 -73 14.5t-48 40.5t-24 62t0 79l33 234h43
l-32 -229q-5 -35 -1.5 -65t17 -51.5t36.5 -34t58 -12.5q37 0 66 13.5t49 34t31.5 43.5t15.5 43l36 258h43zM330 497h-31l75 143l55 -8z" />
    <glyph glyph-name="ydieresis" unicode="&#xff;" horiz-adv-x="500" 
d="M485 420l-58 -414q-12 -85 -65.5 -135t-144.5 -50q-42 0 -69.5 9t-45.5 20q-21 12 -34 29l29 31q12 -14 30 -25q15 -10 38.5 -17.5t55.5 -7.5q72 0 112.5 38t50.5 107l9 63q-6 -8 -18 -21t-31.5 -26t-46.5 -22t-62 -9q-43 0 -73 14.5t-48 40.5t-24 62t0 79l33 234h43
l-32 -229q-5 -35 -1.5 -65t17 -51.5t36.5 -34t58 -12.5q37 0 66 13.5t49 34t31.5 43.5t15.5 43l36 258h43zM212 530q0 17 12.5 29t28.5 12q14 0 23 -9.5t9 -23.5q0 -17 -13.5 -29t-28.5 -12q-13 0 -22 9.5t-9 23.5zM356 530q0 17 13 29t29 12q14 0 22.5 -9.5t8.5 -23.5
q0 -17 -13 -29t-28 -12q-14 0 -23 9.5t-9 23.5z" />
    <glyph glyph-name="dcroat" unicode="&#x111;" 
d="M444 238q0 37 -11 65.5t-30 48.5t-44.5 30.5t-54.5 10.5q-37 0 -71 -15.5t-60.5 -43.5t-42 -66.5t-15.5 -84.5q0 -35 10 -63.5t28.5 -49t43.5 -32t55 -11.5q36 0 70.5 17t61.5 46.5t43.5 67.5t16.5 80zM519 479l-67 -479h-31l6 91h-2q-17 -29 -43 -51q-23 -19 -57 -34.5
t-83 -15.5q-38 0 -69 13.5t-54 38t-35.5 59.5t-12.5 77q0 55 19 101.5t51 80t74 52t88 18.5t75.5 -14.5t46.5 -31.5q20 -20 30 -46h2l20 141h-159l3 38h161l12 88h43l-12 -88h36l-3 -38h-39z" />
    <glyph glyph-name="Dcroat" unicode="&#x110;" horiz-adv-x="628" 
d="M74 324h60l39 276h182q60 0 110 -17.5t86 -51t56 -81.5t20 -108q0 -79 -28 -142.5t-76 -107.5t-113 -68t-139 -24h-182l39 283h-60zM212 559l-33 -235h193l-6 -41h-193l-34 -242h137q61 0 116.5 20.5t97.5 58.5t66.5 92.5t24.5 122.5q0 52 -17.5 94t-48.5 70.5t-73.5 44
t-92.5 15.5h-137z" />
    <glyph glyph-name="Itilde" unicode="&#x128;" horiz-adv-x="222" 
d="M133 0h-44l84 600h44zM281 670q-21 0 -37.5 9t-31.5 19.5l-29 19.5t-29 9q-23 0 -33 -13t-18 -30l-6 -13l-30 3l7 21q8 25 27 46.5t55 21.5q20 0 36.5 -9t31 -20t28.5 -20t30 -9q24 0 35 13.5t18 30.5l5 13l30 -4l-6 -19q-8 -26 -27.5 -47.5t-55.5 -21.5z" />
    <glyph glyph-name="Utilde" unicode="&#x168;" horiz-adv-x="627" 
d="M311 -13q-56 0 -96.5 18.5t-65.5 53t-33.5 82.5t-0.5 107l49 352h44l-49 -352q-7 -49 -0.5 -89.5t26 -69.5t52.5 -45t80 -16q48 0 85.5 16t65.5 45t45 69.5t24 89.5l49 352h44l-49 -352q-8 -59 -30.5 -107t-57 -82.5t-80.5 -53t-102 -18.5zM484 670q-21 0 -37.5 9
t-31.5 19.5l-29 19.5t-29 9q-23 0 -33 -13t-18 -30l-6 -13l-30 3l7 21q8 25 27 46.5t55 21.5q20 0 36.5 -9t31 -20t28.5 -20t30 -9q24 0 35 13.5t18 30.5l5 13l30 -4l-6 -19q-8 -26 -27.5 -47.5t-55.5 -21.5z" />
    <glyph glyph-name="utilde" unicode="&#x169;" horiz-adv-x="503" 
d="M429 0h-28l1 75h-2q-1 -2 -11.5 -15.5t-30.5 -29t-51 -28t-73 -12.5t-71.5 14.5t-47 40.5t-23 62t0.5 79l33 234h43l-32 -230q-5 -35 -1.5 -64.5t17 -51.5t36.5 -34.5t58 -12.5q37 0 66 14t49 34t31.5 43.5t15.5 43.5l36 258h43zM386 497q-21 0 -37.5 9t-31.5 19.5
l-29 19.5t-29 9q-23 0 -33 -13t-18 -30l-6 -13l-30 3l7 21q8 25 27 46.5t55 21.5q20 0 36.5 -9t31 -20t28.5 -20t30 -9q24 0 35 13.5t18 30.5l5 13l30 -4l-6 -19q-8 -26 -27.5 -47.5t-55.5 -21.5z" />
    <glyph glyph-name="Ohorn" unicode="&#x1a0;" horiz-adv-x="679" 
d="M343 28q66 0 119 25.5t91 68.5t58.5 99t20.5 117q0 48 -13.5 90.5t-40.5 74t-67 50t-92 18.5q-65 0 -118 -25.5t-90.5 -68.5t-58.5 -99.5t-21 -117.5q0 -47 13.5 -89.5t40.5 -74t66.5 -50t91.5 -18.5zM569 572q24 -15 43 -36q32 -36 49 -85.5t17 -107.5q0 -74 -25.5 -139
t-71 -113.5t-108 -76.5t-136.5 -28q-60 0 -106.5 20.5t-79 56.5t-49.5 85t-17 106q0 75 25.5 140t70.5 114t107.5 77t136.5 28q51 0 93 -15q43 2 75 29q34 28 43 71h41q-13 -61 -61 -98q-22 -18 -47 -28z" />
    <glyph glyph-name="ohorn" unicode="&#x1a1;" horiz-adv-x="502" 
d="M254 26q36 0 70.5 14.5t61.5 41.5t43.5 66t16.5 87q0 36 -11 65.5t-30 50.5t-44.5 32t-54.5 11q-36 0 -70.5 -15t-61.5 -43t-44 -67.5t-17 -87.5q0 -36 11 -65t30.5 -49t45 -30.5t54.5 -10.5zM426 391q7 -6 13 -13q24 -25 37.5 -60.5t13.5 -78.5q0 -57 -20 -103
t-53.5 -78.5t-77 -50t-90.5 -17.5q-39 0 -72 13t-56.5 37t-37 58.5t-13.5 77.5q0 57 20 103.5t53 80t76.5 52t91.5 18.5q35 0 65 -11q46 1 80 29t43 71h41q-13 -61 -61 -98q-25 -20 -53 -30z" />
    <glyph glyph-name="Uhorn" unicode="&#x1af;" horiz-adv-x="627" 
d="M625 565l-44 -317q-8 -59 -30.5 -107t-57 -82.5t-80.5 -53t-102 -18.5t-96.5 18.5t-65.5 53t-33.5 82.5t-0.5 107l49 352h44l-49 -352q-7 -49 -0.5 -89.5t26 -69.5t52.5 -45t80 -16q48 0 85.5 16t65.5 45t45 69.5t24 89.5l49 352h27q32 6 58 27q34 28 43 71h41
q-13 -61 -61 -98q-31 -26 -69 -35z" />
    <glyph glyph-name="uhorn" unicode="&#x1b0;" horiz-adv-x="503" 
d="M483 385l-54 -385h-28l1 75h-2q-1 -2 -11.5 -15.5t-30.5 -29t-51 -28t-73 -12.5t-71.5 14.5t-47 40.5t-23 62t0.5 79l33 234h43l-32 -230q-5 -35 -1.5 -64.5t17 -51.5t36.5 -34.5t58 -12.5q37 0 66 14t49 34t31.5 43.5t15.5 43.5l36 258h23q36 4 65 28q34 28 43 71h41
q-13 -61 -61 -98q-33 -27 -73 -36z" />
    <glyph glyph-name="uni1EA0" unicode="&#x1ea0;" horiz-adv-x="584" 
d="M564 0h-46l-43 157h-322l-87 -157h-46l335 600h42zM176 198h288l-95 348zM237 -123q0 17 13 29.5t30 12.5q14 0 23.5 -10t9.5 -24q0 -17 -13.5 -29t-30.5 -12q-14 0 -23 9.5t-9 23.5z" />
    <glyph glyph-name="uni1EA1" unicode="&#x1ea1;" 
d="M461 329l19 91h31l-59 -420h-31l6 91h-2q-17 -29 -43 -51q-23 -19 -57 -34.5t-83 -15.5q-38 0 -69 13.5t-54 38t-35.5 59.5t-12.5 77q0 55 19 101.5t51 80t74 52t87 18.5q50 0 80.5 -16t47.5 -35q20 -22 29 -50h2zM444 238q0 37 -11 65.5t-30 48.5t-44.5 30.5t-54.5 10.5
q-37 0 -71 -15.5t-60.5 -43.5t-42 -66.5t-15.5 -84.5q0 -35 10 -63.5t28.5 -49t43.5 -32t55 -11.5q36 0 70.5 17t61.5 46t43.5 67t16.5 81zM192 -123q0 17 13 29.5t30 12.5q14 0 23.5 -10t9.5 -24q0 -17 -13.5 -29t-30.5 -12q-14 0 -23 9.5t-9 23.5z" />
    <glyph glyph-name="uni1EA2" unicode="&#x1ea2;" horiz-adv-x="584" 
d="M564 0h-46l-43 157h-322l-87 -157h-46l335 600h42zM176 198h288l-95 348zM314 794q13 9 23 13q8 4 19.5 7t26.5 3q31 0 49.5 -15t18.5 -41q0 -17 -2.5 -25t-7.5 -14t-9 -10t-9 -7.5l-11 -7.5t-7 -10l-4 -17h-28l3 23q2 13 9 20.5t11 10.5t7.5 6.5t6.5 7t4.5 7t1.5 13.5
q0 11 -8.5 18t-27.5 7q-9 0 -17.5 -2t-14.5 -5q-7 -3 -22 -13z" />
    <glyph glyph-name="uni1EA3" unicode="&#x1ea3;" 
d="M461 329l19 91h31l-59 -420h-31l6 91h-2q-17 -29 -43 -51q-23 -19 -57 -34.5t-83 -15.5q-38 0 -69 13.5t-54 38t-35.5 59.5t-12.5 77q0 55 19 101.5t51 80t74 52t87 18.5q50 0 80.5 -16t47.5 -35q20 -22 29 -50h2zM444 238q0 37 -11 65.5t-30 48.5t-44.5 30.5t-54.5 10.5
q-37 0 -71 -15.5t-60.5 -43.5t-42 -66.5t-15.5 -84.5q0 -35 10 -63.5t28.5 -49t43.5 -32t55 -11.5q36 0 70.5 17t61.5 46t43.5 67t16.5 81zM254 621q13 9 23 13q8 4 19.5 7t26.5 3q31 0 49.5 -15t18.5 -41q0 -17 -2.5 -25t-7.5 -14t-9 -10t-9 -7.5l-11 -7.5t-7 -10l-4 -17
h-28l3 23q2 13 9 20.5t11 10.5t7.5 6.5t6.5 7t4.5 7t1.5 13.5q0 11 -8.5 18t-27.5 7q-9 0 -17.5 -2t-14.5 -5q-7 -3 -22 -13z" />
    <glyph glyph-name="uni1EA4" unicode="&#x1ea4;" horiz-adv-x="584" 
d="M564 0h-46l-43 157h-322l-87 -157h-46l335 600h42zM176 198h288l-95 348zM407 747l-70 -77h-42l94 109h42l66 -109h-42zM501 750h-31l75 143l55 -8z" />
    <glyph glyph-name="uni1EA5" unicode="&#x1ea5;" 
d="M461 329l19 91h31l-59 -420h-31l6 91h-2q-17 -29 -43 -51q-23 -19 -57 -34.5t-83 -15.5q-38 0 -69 13.5t-54 38t-35.5 59.5t-12.5 77q0 55 19 101.5t51 80t74 52t87 18.5q50 0 80.5 -16t47.5 -35q20 -22 29 -50h2zM444 238q0 37 -11 65.5t-30 48.5t-44.5 30.5t-54.5 10.5
q-37 0 -71 -15.5t-60.5 -43.5t-42 -66.5t-15.5 -84.5q0 -35 10 -63.5t28.5 -49t43.5 -32t55 -11.5q36 0 70.5 17t61.5 46t43.5 67t16.5 81zM337 574l-70 -77h-42l94 109h42l66 -109h-42zM448 584h-31l75 143l55 -8z" />
    <glyph glyph-name="uni1EA6" unicode="&#x1ea6;" horiz-adv-x="584" 
d="M564 0h-46l-43 157h-322l-87 -157h-46l335 600h42zM176 198h288l-95 348zM399 747l-70 -77h-42l94 109h42l66 -109h-42zM222 886l57 8l35 -143h-31z" />
    <glyph glyph-name="uni1EA7" unicode="&#x1ea7;" 
d="M461 329l19 91h31l-59 -420h-31l6 91h-2q-17 -29 -43 -51q-23 -19 -57 -34.5t-83 -15.5q-38 0 -69 13.5t-54 38t-35.5 59.5t-12.5 77q0 55 19 101.5t51 80t74 52t87 18.5q50 0 80.5 -16t47.5 -35q20 -22 29 -50h2zM444 238q0 37 -11 65.5t-30 48.5t-44.5 30.5t-54.5 10.5
q-37 0 -71 -15.5t-60.5 -43.5t-42 -66.5t-15.5 -84.5q0 -35 10 -63.5t28.5 -49t43.5 -32t55 -11.5q36 0 70.5 17t61.5 46t43.5 67t16.5 81zM337 574l-70 -77h-42l94 109h42l66 -109h-42zM168 719l57 8l35 -143h-31z" />
    <glyph glyph-name="uni1EA8" unicode="&#x1ea8;" horiz-adv-x="584" 
d="M564 0h-46l-43 157h-322l-87 -157h-46l335 600h42zM176 198h288l-95 348zM399 746l-70 -77h-42l94 109h42l66 -109h-42zM415 875q13 9 23 13q8 4 19.5 7t26.5 3q31 0 49.5 -15t18.5 -41q0 -17 -2.5 -25t-7.5 -14t-9 -10t-9 -7.5l-11 -7.5t-7 -10l-4 -17h-28l3 23
q2 13 9 20.5t11 10.5t7.5 6.5t6.5 7t4.5 7t1.5 13.5q0 11 -8.5 18t-27.5 7q-9 0 -17.5 -2t-14.5 -5q-7 -3 -22 -13z" />
    <glyph glyph-name="uni1EA9" unicode="&#x1ea9;" 
d="M461 329l19 91h31l-59 -420h-31l6 91h-2q-17 -29 -43 -51q-23 -19 -57 -34.5t-83 -15.5q-38 0 -69 13.5t-54 38t-35.5 59.5t-12.5 77q0 55 19 101.5t51 80t74 52t87 18.5q50 0 80.5 -16t47.5 -35q20 -22 29 -50h2zM444 238q0 37 -11 65.5t-30 48.5t-44.5 30.5t-54.5 10.5
q-37 0 -71 -15.5t-60.5 -43.5t-42 -66.5t-15.5 -84.5q0 -35 10 -63.5t28.5 -49t43.5 -32t55 -11.5q36 0 70.5 17t61.5 46t43.5 67t16.5 81zM337 574l-70 -77h-42l94 109h42l66 -109h-42zM367 708q13 9 23 13q8 4 19.5 7t26.5 3q31 0 49.5 -15t18.5 -41q0 -17 -2.5 -25
t-7.5 -14t-9 -10t-9 -7.5l-11 -7.5t-7 -10l-4 -17h-28l3 23q2 13 9 20.5t11 10.5t7.5 6.5t6.5 7t4.5 7t1.5 13.5q0 11 -8.5 18t-27.5 7q-9 0 -17.5 -2t-14.5 -5q-7 -3 -22 -13z" />
    <glyph glyph-name="uni1EAA" unicode="&#x1eaa;" horiz-adv-x="584" 
d="M564 0h-46l-43 157h-322l-87 -157h-46l335 600h42zM176 198h288l-95 348zM399 747l-70 -77h-42l94 109h42l66 -109h-42zM512 779q-21 0 -37.5 9t-31.5 19.5l-29 19.5t-29 9q-23 0 -33 -13t-18 -30l-6 -13l-30 3l7 21q8 25 27 46.5t55 21.5q20 0 36.5 -9t31 -20t28.5 -20
t30 -9q24 0 35 13.5t18 30.5l5 13l30 -4l-6 -19q-8 -26 -27.5 -47.5t-55.5 -21.5z" />
    <glyph glyph-name="uni1EAB" unicode="&#x1eab;" 
d="M461 329l19 91h31l-59 -420h-31l6 91h-2q-17 -29 -43 -51q-23 -19 -57 -34.5t-83 -15.5q-38 0 -69 13.5t-54 38t-35.5 59.5t-12.5 77q0 55 19 101.5t51 80t74 52t87 18.5q50 0 80.5 -16t47.5 -35q20 -22 29 -50h2zM444 238q0 37 -11 65.5t-30 48.5t-44.5 30.5t-54.5 10.5
q-37 0 -71 -15.5t-60.5 -43.5t-42 -66.5t-15.5 -84.5q0 -35 10 -63.5t28.5 -49t43.5 -32t55 -11.5q36 0 70.5 17t61.5 46t43.5 67t16.5 81zM337 574l-70 -77h-42l94 109h42l66 -109h-42zM444 630q-21 0 -37.5 9t-31.5 19.5l-29 19.5t-29 9q-23 0 -33 -13t-18 -30l-6 -13
l-30 3l7 21q8 25 27 46.5t55 21.5q20 0 36.5 -9t31 -20t28.5 -20t30 -9q24 0 35 13.5t18 30.5l5 13l30 -4l-6 -19q-8 -26 -27.5 -47.5t-55.5 -21.5z" />
    <glyph glyph-name="uni1EAC" unicode="&#x1eac;" horiz-adv-x="584" 
d="M564 0h-46l-43 157h-322l-87 -157h-46l335 600h42zM176 198h288l-95 348zM399 747l-70 -77h-42l94 109h42l66 -109h-42zM237 -123q0 17 13 29.5t30 12.5q14 0 23.5 -10t9.5 -24q0 -17 -13.5 -29t-30.5 -12q-14 0 -23 9.5t-9 23.5z" />
    <glyph glyph-name="uni1EAD" unicode="&#x1ead;" 
d="M461 329l19 91h31l-59 -420h-31l6 91h-2q-17 -29 -43 -51q-23 -19 -57 -34.5t-83 -15.5q-38 0 -69 13.5t-54 38t-35.5 59.5t-12.5 77q0 55 19 101.5t51 80t74 52t87 18.5q50 0 80.5 -16t47.5 -35q20 -22 29 -50h2zM444 238q0 37 -11 65.5t-30 48.5t-44.5 30.5t-54.5 10.5
q-37 0 -71 -15.5t-60.5 -43.5t-42 -66.5t-15.5 -84.5q0 -35 10 -63.5t28.5 -49t43.5 -32t55 -11.5q36 0 70.5 17t61.5 46t43.5 67t16.5 81zM337 574l-70 -77h-42l94 109h42l66 -109h-42zM192 -123q0 17 13 29.5t30 12.5q14 0 23.5 -10t9.5 -24q0 -17 -13.5 -29t-30.5 -12
q-14 0 -23 9.5t-9 23.5z" />
    <glyph glyph-name="uni1EAE" unicode="&#x1eae;" horiz-adv-x="584" 
d="M564 0h-46l-43 157h-322l-87 -157h-46l335 600h42zM176 198h288l-95 348zM501 788q-4 -28 -15.5 -49.5t-28 -36.5t-37 -23.5t-42.5 -8.5q-46 0 -71.5 31.5t-18.5 86.5h29q-5 -40 12.5 -64.5t52.5 -24.5q34 0 58.5 24t31.5 65h29zM394 797h-31l75 143l55 -8z" />
    <glyph glyph-name="uni1EAF" unicode="&#x1eaf;" 
d="M461 329l19 91h31l-59 -420h-31l6 91h-2q-17 -29 -43 -51q-23 -19 -57 -34.5t-83 -15.5q-38 0 -69 13.5t-54 38t-35.5 59.5t-12.5 77q0 55 19 101.5t51 80t74 52t87 18.5q50 0 80.5 -16t47.5 -35q20 -22 29 -50h2zM444 238q0 37 -11 65.5t-30 48.5t-44.5 30.5t-54.5 10.5
q-37 0 -71 -15.5t-60.5 -43.5t-42 -66.5t-15.5 -84.5q0 -35 10 -63.5t28.5 -49t43.5 -32t55 -11.5q36 0 70.5 17t61.5 46t43.5 67t16.5 81zM468 615q-4 -28 -15.5 -49.5t-28 -36.5t-37 -23.5t-42.5 -8.5q-46 0 -71.5 31.5t-18.5 86.5h29q-5 -40 12.5 -64.5t52.5 -24.5
q34 0 58.5 24t31.5 65h29zM374 617h-31l75 143l55 -8z" />
    <glyph glyph-name="uni1EB0" unicode="&#x1eb0;" horiz-adv-x="584" 
d="M564 0h-46l-43 157h-322l-87 -157h-46l335 600h42zM176 198h288l-95 348zM502 787q-4 -28 -15.5 -49.5t-28 -36.5t-37 -23.5t-42.5 -8.5q-46 0 -71.5 31.5t-18.5 86.5h29q-5 -40 12.5 -64.5t52.5 -24.5q34 0 58.5 24t31.5 65h29zM328 919l57 8l35 -143h-31z" />
    <glyph glyph-name="uni1EB1" unicode="&#x1eb1;" 
d="M461 329l19 91h31l-59 -420h-31l6 91h-2q-17 -29 -43 -51q-23 -19 -57 -34.5t-83 -15.5q-38 0 -69 13.5t-54 38t-35.5 59.5t-12.5 77q0 55 19 101.5t51 80t74 52t87 18.5q50 0 80.5 -16t47.5 -35q20 -22 29 -50h2zM444 238q0 37 -11 65.5t-30 48.5t-44.5 30.5t-54.5 10.5
q-37 0 -71 -15.5t-60.5 -43.5t-42 -66.5t-15.5 -84.5q0 -35 10 -63.5t28.5 -49t43.5 -32t55 -11.5q36 0 70.5 17t61.5 46t43.5 67t16.5 81zM469 615q-4 -28 -15.5 -49.5t-28 -36.5t-37 -23.5t-42.5 -8.5q-46 0 -71.5 31.5t-18.5 86.5h29q-5 -40 12.5 -64.5t52.5 -24.5
q34 0 58.5 24t31.5 65h29zM291 765l57 8l35 -143h-31z" />
    <glyph glyph-name="uni1EB2" unicode="&#x1eb2;" horiz-adv-x="584" 
d="M564 0h-46l-43 157h-322l-87 -157h-46l335 600h42zM176 198h288l-95 348zM501 788q-4 -28 -15.5 -49.5t-28 -36.5t-37 -23.5t-42.5 -8.5q-46 0 -71.5 31.5t-18.5 86.5h29q-5 -40 12.5 -64.5t52.5 -24.5q34 0 58.5 24t31.5 65h29zM318 880.75q13 6.75 23 9.75
q8 3 19.5 5.25t26.5 2.25q31 0 49.5 -11.25t18.5 -30.75q0 -12.75 -2.5 -18.75t-7.5 -10.5t-9 -7.5t-9 -5.625l-11 -5.625t-7 -7.5l-4 -12.75h-28l3 17.25q2 9.75 9 15.375t11 7.875t7.5 4.875t6.5 5.25t4.5 5.25t1.5 10.125q0 8.25 -8.5 13.5t-27.5 5.25q-9 0 -17.5 -1.5
t-14.5 -3.75q-7 -2.25 -22 -9.75z" />
    <glyph glyph-name="uni1EB3" unicode="&#x1eb3;" 
d="M461 329l19 91h31l-59 -420h-31l6 91h-2q-17 -29 -43 -51q-23 -19 -57 -34.5t-83 -15.5q-38 0 -69 13.5t-54 38t-35.5 59.5t-12.5 77q0 55 19 101.5t51 80t74 52t87 18.5q50 0 80.5 -16t47.5 -35q20 -22 29 -50h2zM444 238q0 37 -11 65.5t-30 48.5t-44.5 30.5t-54.5 10.5
q-37 0 -71 -15.5t-60.5 -43.5t-42 -66.5t-15.5 -84.5q0 -35 10 -63.5t28.5 -49t43.5 -32t55 -11.5q36 0 70.5 17t61.5 46t43.5 67t16.5 81zM469 615q-4 -28 -15.5 -49.5t-28 -36.5t-37 -23.5t-42.5 -8.5q-46 0 -71.5 31.5t-18.5 86.5h29q-5 -40 12.5 -64.5t52.5 -24.5
q34 0 58.5 24t31.5 65h29zM296 739q13 9 23 13q8 4 19.5 7t26.5 3q31 0 49.5 -15t18.5 -41q0 -17 -2.5 -25t-7.5 -14t-9 -10t-9 -7.5l-11 -7.5t-7 -10l-4 -17h-28l3 23q2 13 9 20.5t11 10.5t7.5 6.5t6.5 7t4.5 7t1.5 13.5q0 11 -8.5 18t-27.5 7q-9 0 -17.5 -2t-14.5 -5
q-7 -3 -22 -13z" />
    <glyph glyph-name="uni1EB4" unicode="&#x1eb4;" horiz-adv-x="584" 
d="M564 0h-46l-43 157h-322l-87 -157h-46l335 600h42zM176 198h288l-95 348zM500 788q-4 -28 -15.5 -49.5t-28 -36.5t-37 -23.5t-42.5 -8.5q-46 0 -71.5 31.5t-18.5 86.5h29q-5 -40 12.5 -64.5t52.5 -24.5q34 0 58.5 24t31.5 65h29zM482 810q-21 0 -37.5 9t-31.5 19.5
l-29 19.5t-29 9q-23 0 -33 -13t-18 -30l-6 -13l-30 3l7 21q8 25 27 46.5t55 21.5q20 0 36.5 -9t31 -20t28.5 -20t30 -9q24 0 35 13.5t18 30.5l5 13l30 -4l-6 -19q-8 -26 -27.5 -47.5t-55.5 -21.5z" />
    <glyph glyph-name="uni1EB5" unicode="&#x1eb5;" 
d="M461 329l19 91h31l-59 -420h-31l6 91h-2q-17 -29 -43 -51q-23 -19 -57 -34.5t-83 -15.5q-38 0 -69 13.5t-54 38t-35.5 59.5t-12.5 77q0 55 19 101.5t51 80t74 52t87 18.5q50 0 80.5 -16t47.5 -35q20 -22 29 -50h2zM444 238q0 37 -11 65.5t-30 48.5t-44.5 30.5t-54.5 10.5
q-37 0 -71 -15.5t-60.5 -43.5t-42 -66.5t-15.5 -84.5q0 -35 10 -63.5t28.5 -49t43.5 -32t55 -11.5q36 0 70.5 17t61.5 46t43.5 67t16.5 81zM469 615q-4 -28 -15.5 -49.5t-28 -36.5t-37 -23.5t-42.5 -8.5q-46 0 -71.5 31.5t-18.5 86.5h29q-5 -40 12.5 -64.5t52.5 -24.5
q34 0 58.5 24t31.5 65h29zM443 634q-21 0 -37.5 9t-31.5 19.5l-29 19.5t-29 9q-23 0 -33 -13t-18 -30l-6 -13l-30 3l7 21q8 25 27 46.5t55 21.5q20 0 36.5 -9t31 -20t28.5 -20t30 -9q24 0 35 13.5t18 30.5l5 13l30 -4l-6 -19q-8 -26 -27.5 -47.5t-55.5 -21.5z" />
    <glyph glyph-name="uni1EB6" unicode="&#x1eb6;" horiz-adv-x="584" 
d="M564 0h-46l-43 157h-322l-87 -157h-46l335 600h42zM176 198h288l-95 348zM502 788q-4 -28 -15.5 -49.5t-28 -36.5t-37 -23.5t-42.5 -8.5q-46 0 -71.5 31.5t-18.5 86.5h29q-5 -40 12.5 -64.5t52.5 -24.5q34 0 58.5 24t31.5 65h29zM237 -123q0 17 13 29.5t30 12.5
q14 0 23.5 -10t9.5 -24q0 -17 -13.5 -29t-30.5 -12q-14 0 -23 9.5t-9 23.5z" />
    <glyph glyph-name="uni1EB7" unicode="&#x1eb7;" 
d="M461 329l19 91h31l-59 -420h-31l6 91h-2q-17 -29 -43 -51q-23 -19 -57 -34.5t-83 -15.5q-38 0 -69 13.5t-54 38t-35.5 59.5t-12.5 77q0 55 19 101.5t51 80t74 52t87 18.5q50 0 80.5 -16t47.5 -35q20 -22 29 -50h2zM444 238q0 37 -11 65.5t-30 48.5t-44.5 30.5t-54.5 10.5
q-37 0 -71 -15.5t-60.5 -43.5t-42 -66.5t-15.5 -84.5q0 -35 10 -63.5t28.5 -49t43.5 -32t55 -11.5q36 0 70.5 17t61.5 46t43.5 67t16.5 81zM469 615q-4 -28 -15.5 -49.5t-28 -36.5t-37 -23.5t-42.5 -8.5q-46 0 -71.5 31.5t-18.5 86.5h29q-5 -40 12.5 -64.5t52.5 -24.5
q34 0 58.5 24t31.5 65h29zM202 -123q0 17 13 29.5t30 12.5q14 0 23.5 -10t9.5 -24q0 -17 -13.5 -29t-30.5 -12q-14 0 -23 9.5t-9 23.5z" />
    <glyph glyph-name="uni1EB8" unicode="&#x1eb8;" horiz-adv-x="540" 
d="M489 283h-316l-34 -242h364l-6 -41h-408l84 600h408l-5 -41h-364l-33 -235h316zM238 -123q0 17 13 29.5t30 12.5q14 0 23.5 -10t9.5 -24q0 -17 -13.5 -29t-30.5 -12q-14 0 -23 9.5t-9 23.5z" />
    <glyph glyph-name="uni1EB9" unicode="&#x1eb9;" horiz-adv-x="459" 
d="M402 36q-18 -13 -41 -23q-20 -9 -48.5 -16t-64.5 -7q-82 0 -129.5 50t-47.5 135q0 57 17.5 104t48.5 80.5t72 52t89 18.5q43 0 75 -15.5t51.5 -42.5t26 -64.5t-0.5 -82.5l-2 -11h-330l-1 -6q-7 -44 1 -77.5t27.5 -56.5t48 -35t62.5 -12q31 0 55.5 6.5t41.5 14.5
q20 9 35 21zM292 392q-57 0 -101.5 -35.5t-64.5 -106.5h284q3 62 -25.5 102t-92.5 40zM176 -123q0 17 13 29.5t30 12.5q14 0 23.5 -10t9.5 -24q0 -17 -13.5 -29t-30.5 -12q-14 0 -23 9.5t-9 23.5z" />
    <glyph glyph-name="uni1EBA" unicode="&#x1eba;" horiz-adv-x="540" 
d="M489 283h-316l-34 -242h364l-6 -41h-408l84 600h408l-5 -41h-364l-33 -235h316zM299 794q13 9 23 13q8 4 19.5 7t26.5 3q31 0 49.5 -15t18.5 -41q0 -17 -2.5 -25t-7.5 -14t-9 -10t-9 -7.5l-11 -7.5t-7 -10l-4 -17h-28l3 23q2 13 9 20.5t11 10.5t7.5 6.5t6.5 7t4.5 7
t1.5 13.5q0 11 -8.5 18t-27.5 7q-9 0 -17.5 -2t-14.5 -5q-7 -3 -22 -13z" />
    <glyph glyph-name="uni1EBB" unicode="&#x1ebb;" horiz-adv-x="459" 
d="M402 36q-18 -13 -41 -23q-20 -9 -48.5 -16t-64.5 -7q-82 0 -129.5 50t-47.5 135q0 57 17.5 104t48.5 80.5t72 52t89 18.5q43 0 75 -15.5t51.5 -42.5t26 -64.5t-0.5 -82.5l-2 -11h-330l-1 -6q-7 -44 1 -77.5t27.5 -56.5t48 -35t62.5 -12q31 0 55.5 6.5t41.5 14.5
q20 9 35 21zM292 392q-57 0 -101.5 -35.5t-64.5 -106.5h284q3 62 -25.5 102t-92.5 40zM228 621q13 9 23 13q8 4 19.5 7t26.5 3q31 0 49.5 -15t18.5 -41q0 -17 -2.5 -25t-7.5 -14t-9 -10t-9 -7.5l-11 -7.5t-7 -10l-4 -17h-28l3 23q2 13 9 20.5t11 10.5t7.5 6.5t6.5 7t4.5 7
t1.5 13.5q0 11 -8.5 18t-27.5 7q-9 0 -17.5 -2t-14.5 -5q-7 -3 -22 -13z" />
    <glyph glyph-name="uni1EBC" unicode="&#x1ebc;" horiz-adv-x="540" 
d="M489 283h-316l-34 -242h364l-6 -41h-408l84 600h408l-5 -41h-364l-33 -235h316zM456 670q-21 0 -37.5 9t-31.5 19.5l-29 19.5t-29 9q-23 0 -33 -13t-18 -30l-6 -13l-30 3l7 21q8 25 27 46.5t55 21.5q20 0 36.5 -9t31 -20t28.5 -20t30 -9q24 0 35 13.5t18 30.5l5 13l30 -4
l-6 -19q-8 -26 -27.5 -47.5t-55.5 -21.5z" />
    <glyph glyph-name="uni1EBD" unicode="&#x1ebd;" horiz-adv-x="459" 
d="M402 36q-18 -13 -41 -23q-20 -9 -48.5 -16t-64.5 -7q-82 0 -129.5 50t-47.5 135q0 57 17.5 104t48.5 80.5t72 52t89 18.5q43 0 75 -15.5t51.5 -42.5t26 -64.5t-0.5 -82.5l-2 -11h-330l-1 -6q-7 -44 1 -77.5t27.5 -56.5t48 -35t62.5 -12q31 0 55.5 6.5t41.5 14.5
q20 9 35 21zM292 392q-57 0 -101.5 -35.5t-64.5 -106.5h284q3 62 -25.5 102t-92.5 40zM369 497q-21 0 -37.5 9t-31.5 19.5l-29 19.5t-29 9q-23 0 -33 -13t-18 -30l-6 -13l-30 3l7 21q8 25 27 46.5t55 21.5q20 0 36.5 -9t31 -20t28.5 -20t30 -9q24 0 35 13.5t18 30.5l5 13
l30 -4l-6 -19q-8 -26 -27.5 -47.5t-55.5 -21.5z" />
    <glyph glyph-name="uni1EBE" unicode="&#x1ebe;" horiz-adv-x="540" 
d="M489 283h-316l-34 -242h364l-6 -41h-408l84 600h408l-5 -41h-364l-33 -235h316zM399 747l-70 -77h-42l94 109h42l66 -109h-42zM493 750h-31l75 143l55 -8z" />
    <glyph glyph-name="uni1EBF" unicode="&#x1ebf;" horiz-adv-x="459" 
d="M402 36q-18 -13 -41 -23q-20 -9 -48.5 -16t-64.5 -7q-82 0 -129.5 50t-47.5 135q0 57 17.5 104t48.5 80.5t72 52t89 18.5q43 0 75 -15.5t51.5 -42.5t26 -64.5t-0.5 -82.5l-2 -11h-330l-1 -6q-7 -44 1 -77.5t27.5 -56.5t48 -35t62.5 -12q31 0 55.5 6.5t41.5 14.5
q20 9 35 21zM292 392q-57 0 -101.5 -35.5t-64.5 -106.5h284q3 62 -25.5 102t-92.5 40zM320 574l-70 -77h-42l94 109h42l66 -109h-42zM425 584h-31l75 143l55 -8z" />
    <glyph glyph-name="uni1EC0" unicode="&#x1ec0;" horiz-adv-x="540" 
d="M489 283h-316l-34 -242h364l-6 -41h-408l84 600h408l-5 -41h-364l-33 -235h316zM397 747l-70 -77h-42l94 109h42l66 -109h-42zM220 886l57 8l35 -143h-31z" />
    <glyph glyph-name="uni1EC1" unicode="&#x1ec1;" horiz-adv-x="459" 
d="M402 36q-18 -13 -41 -23q-20 -9 -48.5 -16t-64.5 -7q-82 0 -129.5 50t-47.5 135q0 57 17.5 104t48.5 80.5t72 52t89 18.5q43 0 75 -15.5t51.5 -42.5t26 -64.5t-0.5 -82.5l-2 -11h-330l-1 -6q-7 -44 1 -77.5t27.5 -56.5t48 -35t62.5 -12q31 0 55.5 6.5t41.5 14.5
q20 9 35 21zM292 392q-57 0 -101.5 -35.5t-64.5 -106.5h284q3 62 -25.5 102t-92.5 40zM320 574l-70 -77h-42l94 109h42l66 -109h-42zM162 719l57 8l35 -143h-31z" />
    <glyph glyph-name="uni1EC2" unicode="&#x1ec2;" horiz-adv-x="540" 
d="M489 283h-316l-34 -242h364l-6 -41h-408l84 600h408l-5 -41h-364l-33 -235h316zM400 747l-70 -77h-42l94 109h42l66 -109h-42zM416 876q13 9 23 13q8 4 19.5 7t26.5 3q31 0 49.5 -15t18.5 -41q0 -17 -2.5 -25t-7.5 -14t-9 -10t-9 -7.5l-11 -7.5t-7 -10l-4 -17h-28l3 23
q2 13 9 20.5t11 10.5t7.5 6.5t6.5 7t4.5 7t1.5 13.5q0 11 -8.5 18t-27.5 7q-9 0 -17.5 -2t-14.5 -5q-7 -3 -22 -13z" />
    <glyph glyph-name="uni1EC3" unicode="&#x1ec3;" horiz-adv-x="459" 
d="M402 36q-18 -13 -41 -23q-20 -9 -48.5 -16t-64.5 -7q-82 0 -129.5 50t-47.5 135q0 57 17.5 104t48.5 80.5t72 52t89 18.5q43 0 75 -15.5t51.5 -42.5t26 -64.5t-0.5 -82.5l-2 -11h-330l-1 -6q-7 -44 1 -77.5t27.5 -56.5t48 -35t62.5 -12q31 0 55.5 6.5t41.5 14.5
q20 9 35 21zM292 392q-57 0 -101.5 -35.5t-64.5 -106.5h284q3 62 -25.5 102t-92.5 40zM320 574l-70 -77h-42l94 109h42l66 -109h-42zM334 708q13 9 23 13q8 4 19.5 7t26.5 3q31 0 49.5 -15t18.5 -41q0 -17 -2.5 -25t-7.5 -14t-9 -10t-9 -7.5l-11 -7.5t-7 -10l-4 -17h-28
l3 23q2 13 9 20.5t11 10.5t7.5 6.5t6.5 7t4.5 7t1.5 13.5q0 11 -8.5 18t-27.5 7q-9 0 -17.5 -2t-14.5 -5q-7 -3 -22 -13z" />
    <glyph glyph-name="uni1EC4" unicode="&#x1ec4;" horiz-adv-x="540" 
d="M489 283h-316l-34 -242h364l-6 -41h-408l84 600h408l-5 -41h-364l-33 -235h316zM380 747l-70 -77h-42l94 109h42l66 -109h-42zM493 779q-21 0 -37.5 9t-31.5 19.5l-29 19.5t-29 9q-23 0 -33 -13t-18 -30l-6 -13l-30 3l7 21q8 25 27 46.5t55 21.5q20 0 36.5 -9t31 -20
t28.5 -20t30 -9q24 0 35 13.5t18 30.5l5 13l30 -4l-6 -19q-8 -26 -27.5 -47.5t-55.5 -21.5z" />
    <glyph glyph-name="uni1EC5" unicode="&#x1ec5;" horiz-adv-x="459" 
d="M402 36q-18 -13 -41 -23q-20 -9 -48.5 -16t-64.5 -7q-82 0 -129.5 50t-47.5 135q0 57 17.5 104t48.5 80.5t72 52t89 18.5q43 0 75 -15.5t51.5 -42.5t26 -64.5t-0.5 -82.5l-2 -11h-330l-1 -6q-7 -44 1 -77.5t27.5 -56.5t48 -35t62.5 -12q31 0 55.5 6.5t41.5 14.5
q20 9 35 21zM292 392q-57 0 -101.5 -35.5t-64.5 -106.5h284q3 62 -25.5 102t-92.5 40zM320 574l-70 -77h-42l94 109h42l66 -109h-42zM419 623q-21 0 -37.5 9t-31.5 19.5l-29 19.5t-29 9q-23 0 -33 -13t-18 -30l-6 -13l-30 3l7 21q8 25 27 46.5t55 21.5q20 0 36.5 -9t31 -20
t28.5 -20t30 -9q24 0 35 13.5t18 30.5l5 13l30 -4l-6 -19q-8 -26 -27.5 -47.5t-55.5 -21.5z" />
    <glyph glyph-name="uni1EC6" unicode="&#x1ec6;" horiz-adv-x="540" 
d="M489 283h-316l-34 -242h364l-6 -41h-408l84 600h408l-5 -41h-364l-33 -235h316zM402 748l-70 -77h-42l94 109h42l66 -109h-42zM238 -123q0 17 13 29.5t30 12.5q14 0 23.5 -10t9.5 -24q0 -17 -13.5 -29t-30.5 -12q-14 0 -23 9.5t-9 23.5z" />
    <glyph glyph-name="uni1EC7" unicode="&#x1ec7;" horiz-adv-x="459" 
d="M402 36q-18 -13 -41 -23q-20 -9 -48.5 -16t-64.5 -7q-82 0 -129.5 50t-47.5 135q0 57 17.5 104t48.5 80.5t72 52t89 18.5q43 0 75 -15.5t51.5 -42.5t26 -64.5t-0.5 -82.5l-2 -11h-330l-1 -6q-7 -44 1 -77.5t27.5 -56.5t48 -35t62.5 -12q31 0 55.5 6.5t41.5 14.5
q20 9 35 21zM292 392q-57 0 -101.5 -35.5t-64.5 -106.5h284q3 62 -25.5 102t-92.5 40zM320 574l-70 -77h-42l94 109h42l66 -109h-42zM176 -123q0 17 13 29.5t30 12.5q14 0 23.5 -10t9.5 -24q0 -17 -13.5 -29t-30.5 -12q-14 0 -23 9.5t-9 23.5z" />
    <glyph glyph-name="uni1EC8" unicode="&#x1ec8;" horiz-adv-x="222" 
d="M133 0h-44l84 600h44zM132 794q13 9 23 13q8 4 19.5 7t26.5 3q31 0 49.5 -15t18.5 -41q0 -17 -2.5 -25t-7.5 -14t-9 -10t-9 -7.5l-11 -7.5t-7 -10l-4 -17h-28l3 23q2 13 9 20.5t11 10.5t7.5 6.5t6.5 7t4.5 7t1.5 13.5q0 11 -8.5 18t-27.5 7q-9 0 -17.5 -2t-14.5 -5
q-7 -3 -22 -13z" />
    <glyph glyph-name="uni1EC9" unicode="&#x1ec9;" horiz-adv-x="194" 
d="M134 420h43l-59 -420h-43zM108 613q13 9 23 13q8 4 19.5 7t26.5 3q31 0 49.5 -15t18.5 -41q0 -17 -2.5 -25t-7.5 -14t-9 -10t-9 -7.5l-11 -7.5t-7 -10l-4 -17h-28l3 23q2 13 9 20.5t11 10.5t7.5 6.5t6.5 7t4.5 7t1.5 13.5q0 11 -8.5 18t-27.5 7q-9 0 -17.5 -2t-14.5 -5
q-7 -3 -22 -13z" />
    <glyph glyph-name="uni1ECA" unicode="&#x1eca;" horiz-adv-x="222" 
d="M133 0h-44l84 600h44zM56 -123q0 17 13 29.5t30 12.5q14 0 23.5 -10t9.5 -24q0 -17 -13.5 -29t-30.5 -12q-14 0 -23 9.5t-9 23.5z" />
    <glyph glyph-name="uni1ECB" unicode="&#x1ecb;" horiz-adv-x="194" 
d="M172 537q-13 0 -21.5 8.5t-8.5 21.5q0 16 12 27t28 11q13 0 21.5 -8.5t8.5 -21.5q0 -16 -12 -27t-28 -11zM134 420h43l-59 -420h-43zM42 -123q0 17 13 29.5t30 12.5q14 0 23.5 -10t9.5 -24q0 -17 -13.5 -29t-30.5 -12q-14 0 -23 9.5t-9 23.5z" />
    <glyph glyph-name="uni1ECC" unicode="&#x1ecc;" horiz-adv-x="679" 
d="M337 -14q-60 0 -106.5 20.5t-79 56.5t-49.5 85t-17 106q0 75 25.5 140t70.5 114t107.5 77t136.5 28q60 0 107 -20.5t79.5 -56.5t49.5 -85.5t17 -107.5q0 -74 -25.5 -139t-71 -113.5t-108 -76.5t-136.5 -28zM343 28q66 0 119 25.5t91 68.5t58.5 99t20.5 117
q0 48 -13.5 90.5t-40.5 74t-67 50t-92 18.5q-65 0 -118 -25.5t-90.5 -68.5t-58.5 -99.5t-21 -117.5q0 -47 13.5 -89.5t40.5 -74t66.5 -50t91.5 -18.5zM284 -123q0 17 13 29.5t30 12.5q14 0 23.5 -10t9.5 -24q0 -17 -13.5 -29t-30.5 -12q-14 0 -23 9.5t-9 23.5z" />
    <glyph glyph-name="uni1ECD" unicode="&#x1ecd;" horiz-adv-x="502" 
d="M490 239q0 -57 -20 -103t-53.5 -78.5t-77 -50t-90.5 -17.5q-39 0 -72 13t-56.5 37t-37 58.5t-13.5 77.5q0 57 20 103.5t53 80t76.5 52t91.5 18.5q39 0 71.5 -13.5t56.5 -38.5t37.5 -60.5t13.5 -78.5zM254 26q36 0 70.5 14.5t61.5 41.5t43.5 66t16.5 87q0 36 -11 65.5
t-30 50.5t-44.5 32t-54.5 11q-36 0 -70.5 -15t-61.5 -43t-44 -67.5t-17 -87.5q0 -36 11 -65t30.5 -49t45 -30.5t54.5 -10.5zM196 -123q0 17 13 29.5t30 12.5q14 0 23.5 -10t9.5 -24q0 -17 -13.5 -29t-30.5 -12q-14 0 -23 9.5t-9 23.5z" />
    <glyph glyph-name="uni1ECE" unicode="&#x1ece;" horiz-adv-x="679" 
d="M337 -14q-60 0 -106.5 20.5t-79 56.5t-49.5 85t-17 106q0 75 25.5 140t70.5 114t107.5 77t136.5 28q60 0 107 -20.5t79.5 -56.5t49.5 -85.5t17 -107.5q0 -74 -25.5 -139t-71 -113.5t-108 -76.5t-136.5 -28zM343 28q66 0 119 25.5t91 68.5t58.5 99t20.5 117
q0 48 -13.5 90.5t-40.5 74t-67 50t-92 18.5q-65 0 -118 -25.5t-90.5 -68.5t-58.5 -99.5t-21 -117.5q0 -47 13.5 -89.5t40.5 -74t66.5 -50t91.5 -18.5zM375 794q13 9 23 13q8 4 19.5 7t26.5 3q31 0 49.5 -15t18.5 -41q0 -17 -2.5 -25t-7.5 -14t-9 -10t-9 -7.5l-11 -7.5
t-7 -10l-4 -17h-28l3 23q2 13 9 20.5t11 10.5t7.5 6.5t6.5 7t4.5 7t1.5 13.5q0 11 -8.5 18t-27.5 7q-9 0 -17.5 -2t-14.5 -5q-7 -3 -22 -13z" />
    <glyph glyph-name="uni1ECF" unicode="&#x1ecf;" horiz-adv-x="502" 
d="M490 239q0 -57 -20 -103t-53.5 -78.5t-77 -50t-90.5 -17.5q-39 0 -72 13t-56.5 37t-37 58.5t-13.5 77.5q0 57 20 103.5t53 80t76.5 52t91.5 18.5q39 0 71.5 -13.5t56.5 -38.5t37.5 -60.5t13.5 -78.5zM254 26q36 0 70.5 14.5t61.5 41.5t43.5 66t16.5 87q0 36 -11 65.5
t-30 50.5t-44.5 32t-54.5 11q-36 0 -70.5 -15t-61.5 -43t-44 -67.5t-17 -87.5q0 -36 11 -65t30.5 -49t45 -30.5t54.5 -10.5zM255 621q13 9 23 13q8 4 19.5 7t26.5 3q31 0 49.5 -15t18.5 -41q0 -17 -2.5 -25t-7.5 -14t-9 -10t-9 -7.5l-11 -7.5t-7 -10l-4 -17h-28l3 23
q2 13 9 20.5t11 10.5t7.5 6.5t6.5 7t4.5 7t1.5 13.5q0 11 -8.5 18t-27.5 7q-9 0 -17.5 -2t-14.5 -5q-7 -3 -22 -13z" />
    <glyph glyph-name="uni1ED0" unicode="&#x1ed0;" horiz-adv-x="679" 
d="M337 -14q-60 0 -106.5 20.5t-79 56.5t-49.5 85t-17 106q0 75 25.5 140t70.5 114t107.5 77t136.5 28q60 0 107 -20.5t79.5 -56.5t49.5 -85.5t17 -107.5q0 -74 -25.5 -139t-71 -113.5t-108 -76.5t-136.5 -28zM343 28q66 0 119 25.5t91 68.5t58.5 99t20.5 117
q0 48 -13.5 90.5t-40.5 74t-67 50t-92 18.5q-65 0 -118 -25.5t-90.5 -68.5t-58.5 -99.5t-21 -117.5q0 -47 13.5 -89.5t40.5 -74t66.5 -50t91.5 -18.5zM455 748l-70 -77h-42l94 109h42l66 -109h-42zM549 751h-31l75 143l55 -8z" />
    <glyph glyph-name="uni1ED1" unicode="&#x1ed1;" horiz-adv-x="502" 
d="M490 239q0 -57 -20 -103t-53.5 -78.5t-77 -50t-90.5 -17.5q-39 0 -72 13t-56.5 37t-37 58.5t-13.5 77.5q0 57 20 103.5t53 80t76.5 52t91.5 18.5q39 0 71.5 -13.5t56.5 -38.5t37.5 -60.5t13.5 -78.5zM254 26q36 0 70.5 14.5t61.5 41.5t43.5 66t16.5 87q0 36 -11 65.5
t-30 50.5t-44.5 32t-54.5 11q-36 0 -70.5 -15t-61.5 -43t-44 -67.5t-17 -87.5q0 -36 11 -65t30.5 -49t45 -30.5t54.5 -10.5zM340 574l-70 -77h-42l94 109h42l66 -109h-42zM442 584h-31l75 143l55 -8z" />
    <glyph glyph-name="uni1ED2" unicode="&#x1ed2;" horiz-adv-x="679" 
d="M337 -14q-60 0 -106.5 20.5t-79 56.5t-49.5 85t-17 106q0 75 25.5 140t70.5 114t107.5 77t136.5 28q60 0 107 -20.5t79.5 -56.5t49.5 -85.5t17 -107.5q0 -74 -25.5 -139t-71 -113.5t-108 -76.5t-136.5 -28zM343 28q66 0 119 25.5t91 68.5t58.5 99t20.5 117
q0 48 -13.5 90.5t-40.5 74t-67 50t-92 18.5q-65 0 -118 -25.5t-90.5 -68.5t-58.5 -99.5t-21 -117.5q0 -47 13.5 -89.5t40.5 -74t66.5 -50t91.5 -18.5zM457 747l-70 -77h-42l94 109h42l66 -109h-42zM280 886l57 8l35 -143h-31z" />
    <glyph glyph-name="uni1ED3" unicode="&#x1ed3;" horiz-adv-x="502" 
d="M490 239q0 -57 -20 -103t-53.5 -78.5t-77 -50t-90.5 -17.5q-39 0 -72 13t-56.5 37t-37 58.5t-13.5 77.5q0 57 20 103.5t53 80t76.5 52t91.5 18.5q39 0 71.5 -13.5t56.5 -38.5t37.5 -60.5t13.5 -78.5zM254 26q36 0 70.5 14.5t61.5 41.5t43.5 66t16.5 87q0 36 -11 65.5
t-30 50.5t-44.5 32t-54.5 11q-36 0 -70.5 -15t-61.5 -43t-44 -67.5t-17 -87.5q0 -36 11 -65t30.5 -49t45 -30.5t54.5 -10.5zM340 574l-70 -77h-42l94 109h42l66 -109h-42zM180 719l57 8l35 -143h-31z" />
    <glyph glyph-name="uni1ED4" unicode="&#x1ed4;" horiz-adv-x="679" 
d="M337 -14q-60 0 -106.5 20.5t-79 56.5t-49.5 85t-17 106q0 75 25.5 140t70.5 114t107.5 77t136.5 28q60 0 107 -20.5t79.5 -56.5t49.5 -85.5t17 -107.5q0 -74 -25.5 -139t-71 -113.5t-108 -76.5t-136.5 -28zM343 28q66 0 119 25.5t91 68.5t58.5 99t20.5 117
q0 48 -13.5 90.5t-40.5 74t-67 50t-92 18.5q-65 0 -118 -25.5t-90.5 -68.5t-58.5 -99.5t-21 -117.5q0 -47 13.5 -89.5t40.5 -74t66.5 -50t91.5 -18.5zM455 747l-70 -77h-42l94 109h42l66 -109h-42zM471 876q13 9 23 13q8 4 19.5 7t26.5 3q31 0 49.5 -15t18.5 -41
q0 -17 -2.5 -25t-7.5 -14t-9 -10t-9 -7.5l-11 -7.5t-7 -10l-4 -17h-28l3 23q2 13 9 20.5t11 10.5t7.5 6.5t6.5 7t4.5 7t1.5 13.5q0 11 -8.5 18t-27.5 7q-9 0 -17.5 -2t-14.5 -5q-7 -3 -22 -13z" />
    <glyph glyph-name="uni1ED5" unicode="&#x1ed5;" horiz-adv-x="502" 
d="M490 239q0 -57 -20 -103t-53.5 -78.5t-77 -50t-90.5 -17.5q-39 0 -72 13t-56.5 37t-37 58.5t-13.5 77.5q0 57 20 103.5t53 80t76.5 52t91.5 18.5q39 0 71.5 -13.5t56.5 -38.5t37.5 -60.5t13.5 -78.5zM254 26q36 0 70.5 14.5t61.5 41.5t43.5 66t16.5 87q0 36 -11 65.5
t-30 50.5t-44.5 32t-54.5 11q-36 0 -70.5 -15t-61.5 -43t-44 -67.5t-17 -87.5q0 -36 11 -65t30.5 -49t45 -30.5t54.5 -10.5zM340 574l-70 -77h-42l94 109h42l66 -109h-42zM346 708q13 9 23 13q8 4 19.5 7t26.5 3q31 0 49.5 -15t18.5 -41q0 -17 -2.5 -25t-7.5 -14t-9 -10
t-9 -7.5l-11 -7.5t-7 -10l-4 -17h-28l3 23q2 13 9 20.5t11 10.5t7.5 6.5t6.5 7t4.5 7t1.5 13.5q0 11 -8.5 18t-27.5 7q-9 0 -17.5 -2t-14.5 -5q-7 -3 -22 -13z" />
    <glyph glyph-name="uni1ED6" unicode="&#x1ed6;" horiz-adv-x="679" 
d="M337 -14q-60 0 -106.5 20.5t-79 56.5t-49.5 85t-17 106q0 75 25.5 140t70.5 114t107.5 77t136.5 28q60 0 107 -20.5t79.5 -56.5t49.5 -85.5t17 -107.5q0 -74 -25.5 -139t-71 -113.5t-108 -76.5t-136.5 -28zM343 28q66 0 119 25.5t91 68.5t58.5 99t20.5 117
q0 48 -13.5 90.5t-40.5 74t-67 50t-92 18.5q-65 0 -118 -25.5t-90.5 -68.5t-58.5 -99.5t-21 -117.5q0 -47 13.5 -89.5t40.5 -74t66.5 -50t91.5 -18.5zM454 748l-70 -77h-42l94 109h42l66 -109h-42zM567 780q-21 0 -37.5 9t-31.5 19.5l-29 19.5t-29 9q-23 0 -33 -13t-18 -30
l-6 -13l-30 3l7 21q8 25 27 46.5t55 21.5q20 0 36.5 -9t31 -20t28.5 -20t30 -9q24 0 35 13.5t18 30.5l5 13l30 -4l-6 -19q-8 -26 -27.5 -47.5t-55.5 -21.5z" />
    <glyph glyph-name="uni1ED7" unicode="&#x1ed7;" horiz-adv-x="502" 
d="M490 239q0 -57 -20 -103t-53.5 -78.5t-77 -50t-90.5 -17.5q-39 0 -72 13t-56.5 37t-37 58.5t-13.5 77.5q0 57 20 103.5t53 80t76.5 52t91.5 18.5q39 0 71.5 -13.5t56.5 -38.5t37.5 -60.5t13.5 -78.5zM254 26q36 0 70.5 14.5t61.5 41.5t43.5 66t16.5 87q0 36 -11 65.5
t-30 50.5t-44.5 32t-54.5 11q-36 0 -70.5 -15t-61.5 -43t-44 -67.5t-17 -87.5q0 -36 11 -65t30.5 -49t45 -30.5t54.5 -10.5zM340 574l-70 -77h-42l94 109h42l66 -109h-42zM430 611q-21 0 -37.5 9t-31.5 19.5l-29 19.5t-29 9q-23 0 -33 -13t-18 -30l-6 -13l-30 3l7 21
q8 25 27 46.5t55 21.5q20 0 36.5 -9t31 -20t28.5 -20t30 -9q24 0 35 13.5t18 30.5l5 13l30 -4l-6 -19q-8 -26 -27.5 -47.5t-55.5 -21.5z" />
    <glyph glyph-name="uni1ED8" unicode="&#x1ed8;" horiz-adv-x="679" 
d="M337 -14q-60 0 -106.5 20.5t-79 56.5t-49.5 85t-17 106q0 75 25.5 140t70.5 114t107.5 77t136.5 28q60 0 107 -20.5t79.5 -56.5t49.5 -85.5t17 -107.5q0 -74 -25.5 -139t-71 -113.5t-108 -76.5t-136.5 -28zM343 28q66 0 119 25.5t91 68.5t58.5 99t20.5 117
q0 48 -13.5 90.5t-40.5 74t-67 50t-92 18.5q-65 0 -118 -25.5t-90.5 -68.5t-58.5 -99.5t-21 -117.5q0 -47 13.5 -89.5t40.5 -74t66.5 -50t91.5 -18.5zM459 746l-70 -77h-42l94 109h42l66 -109h-42zM284 -123q0 17 13 29.5t30 12.5q14 0 23.5 -10t9.5 -24q0 -17 -13.5 -29
t-30.5 -12q-14 0 -23 9.5t-9 23.5z" />
    <glyph glyph-name="uni1ED9" unicode="&#x1ed9;" horiz-adv-x="502" 
d="M490 239q0 -57 -20 -103t-53.5 -78.5t-77 -50t-90.5 -17.5q-39 0 -72 13t-56.5 37t-37 58.5t-13.5 77.5q0 57 20 103.5t53 80t76.5 52t91.5 18.5q39 0 71.5 -13.5t56.5 -38.5t37.5 -60.5t13.5 -78.5zM254 26q36 0 70.5 14.5t61.5 41.5t43.5 66t16.5 87q0 36 -11 65.5
t-30 50.5t-44.5 32t-54.5 11q-36 0 -70.5 -15t-61.5 -43t-44 -67.5t-17 -87.5q0 -36 11 -65t30.5 -49t45 -30.5t54.5 -10.5zM340 574l-70 -77h-42l94 109h42l66 -109h-42zM196 -123q0 17 13 29.5t30 12.5q14 0 23.5 -10t9.5 -24q0 -17 -13.5 -29t-30.5 -12q-14 0 -23 9.5
t-9 23.5z" />
    <glyph glyph-name="uni1EDB" unicode="&#x1edb;" horiz-adv-x="502" 
d="M254 26q36 0 70.5 14.5t61.5 41.5t43.5 66t16.5 87q0 36 -11 65.5t-30 50.5t-44.5 32t-54.5 11q-36 0 -70.5 -15t-61.5 -43t-44 -67.5t-17 -87.5q0 -36 11 -65t30.5 -49t45 -30.5t54.5 -10.5zM426 391q7 -6 13 -13q24 -25 37.5 -60.5t13.5 -78.5q0 -57 -20 -103
t-53.5 -78.5t-77 -50t-90.5 -17.5q-39 0 -72 13t-56.5 37t-37 58.5t-13.5 77.5q0 57 20 103.5t53 80t76.5 52t91.5 18.5q35 0 65 -11q46 1 80 29t43 71h41q-13 -61 -61 -98q-25 -20 -53 -30zM334 497h-31l75 143l55 -8z" />
    <glyph glyph-name="uni1EDA" unicode="&#x1eda;" horiz-adv-x="679" 
d="M343 28q66 0 119 25.5t91 68.5t58.5 99t20.5 117q0 48 -13.5 90.5t-40.5 74t-67 50t-92 18.5q-65 0 -118 -25.5t-90.5 -68.5t-58.5 -99.5t-21 -117.5q0 -47 13.5 -89.5t40.5 -74t66.5 -50t91.5 -18.5zM569 572q24 -15 43 -36q32 -36 49 -85.5t17 -107.5q0 -74 -25.5 -139
t-71 -113.5t-108 -76.5t-136.5 -28q-60 0 -106.5 20.5t-79 56.5t-49.5 85t-17 106q0 75 25.5 140t70.5 114t107.5 77t136.5 28q51 0 93 -15q43 2 75 29q34 28 43 71h41q-13 -61 -61 -98q-22 -18 -47 -28zM460 670h-31l75 143l55 -8z" />
    <glyph glyph-name="uni1EDC" unicode="&#x1edc;" horiz-adv-x="679" 
d="M343 28q66 0 119 25.5t91 68.5t58.5 99t20.5 117q0 48 -13.5 90.5t-40.5 74t-67 50t-92 18.5q-65 0 -118 -25.5t-90.5 -68.5t-58.5 -99.5t-21 -117.5q0 -47 13.5 -89.5t40.5 -74t66.5 -50t91.5 -18.5zM569 572q24 -15 43 -36q32 -36 49 -85.5t17 -107.5q0 -74 -25.5 -139
t-71 -113.5t-108 -76.5t-136.5 -28q-60 0 -106.5 20.5t-79 56.5t-49.5 85t-17 106q0 75 25.5 140t70.5 114t107.5 77t136.5 28q51 0 93 -15q43 2 75 29q34 28 43 71h41q-13 -61 -61 -98q-22 -18 -47 -28zM364 805l57 8l35 -143h-31z" />
    <glyph glyph-name="uni1EDE" unicode="&#x1ede;" horiz-adv-x="679" 
d="M343 28q66 0 119 25.5t91 68.5t58.5 99t20.5 117q0 48 -13.5 90.5t-40.5 74t-67 50t-92 18.5q-65 0 -118 -25.5t-90.5 -68.5t-58.5 -99.5t-21 -117.5q0 -47 13.5 -89.5t40.5 -74t66.5 -50t91.5 -18.5zM569 572q24 -15 43 -36q32 -36 49 -85.5t17 -107.5q0 -74 -25.5 -139
t-71 -113.5t-108 -76.5t-136.5 -28q-60 0 -106.5 20.5t-79 56.5t-49.5 85t-17 106q0 75 25.5 140t70.5 114t107.5 77t136.5 28q51 0 93 -15q43 2 75 29q34 28 43 71h41q-13 -61 -61 -98q-22 -18 -47 -28zM373 794q13 9 23 13q8 4 19.5 7t26.5 3q31 0 49.5 -15t18.5 -41
q0 -17 -2.5 -25t-7.5 -14t-9 -10t-9 -7.5l-11 -7.5t-7 -10l-4 -17h-28l3 23q2 13 9 20.5t11 10.5t7.5 6.5t6.5 7t4.5 7t1.5 13.5q0 11 -8.5 18t-27.5 7q-9 0 -17.5 -2t-14.5 -5q-7 -3 -22 -13z" />
    <glyph glyph-name="uni1EDF" unicode="&#x1edf;" horiz-adv-x="502" 
d="M254 26q36 0 70.5 14.5t61.5 41.5t43.5 66t16.5 87q0 36 -11 65.5t-30 50.5t-44.5 32t-54.5 11q-36 0 -70.5 -15t-61.5 -43t-44 -67.5t-17 -87.5q0 -36 11 -65t30.5 -49t45 -30.5t54.5 -10.5zM426 391q7 -6 13 -13q24 -25 37.5 -60.5t13.5 -78.5q0 -57 -20 -103
t-53.5 -78.5t-77 -50t-90.5 -17.5q-39 0 -72 13t-56.5 37t-37 58.5t-13.5 77.5q0 57 20 103.5t53 80t76.5 52t91.5 18.5q35 0 65 -11q46 1 80 29t43 71h41q-13 -61 -61 -98q-25 -20 -53 -30zM255 621q13 9 23 13q8 4 19.5 7t26.5 3q31 0 49.5 -15t18.5 -41q0 -17 -2.5 -25
t-7.5 -14t-9 -10t-9 -7.5l-11 -7.5t-7 -10l-4 -17h-28l3 23q2 13 9 20.5t11 10.5t7.5 6.5t6.5 7t4.5 7t1.5 13.5q0 11 -8.5 18t-27.5 7q-9 0 -17.5 -2t-14.5 -5q-7 -3 -22 -13z" />
    <glyph glyph-name="uni1EE0" unicode="&#x1ee0;" horiz-adv-x="679" 
d="M343 28q66 0 119 25.5t91 68.5t58.5 99t20.5 117q0 48 -13.5 90.5t-40.5 74t-67 50t-92 18.5q-65 0 -118 -25.5t-90.5 -68.5t-58.5 -99.5t-21 -117.5q0 -47 13.5 -89.5t40.5 -74t66.5 -50t91.5 -18.5zM569 572q24 -15 43 -36q32 -36 49 -85.5t17 -107.5q0 -74 -25.5 -139
t-71 -113.5t-108 -76.5t-136.5 -28q-60 0 -106.5 20.5t-79 56.5t-49.5 85t-17 106q0 75 25.5 140t70.5 114t107.5 77t136.5 28q51 0 93 -15q43 2 75 29q34 28 43 71h41q-13 -61 -61 -98q-22 -18 -47 -28zM502 670q-21 0 -37.5 9t-31.5 19.5l-29 19.5t-29 9q-23 0 -33 -13
t-18 -30l-6 -13l-30 3l7 21q8 25 27 46.5t55 21.5q20 0 36.5 -9t31 -20t28.5 -20t30 -9q24 0 35 13.5t18 30.5l5 13l30 -4l-6 -19q-8 -26 -27.5 -47.5t-55.5 -21.5z" />
    <glyph glyph-name="uni1EE1" unicode="&#x1ee1;" horiz-adv-x="502" 
d="M254 26q36 0 70.5 14.5t61.5 41.5t43.5 66t16.5 87q0 36 -11 65.5t-30 50.5t-44.5 32t-54.5 11q-36 0 -70.5 -15t-61.5 -43t-44 -67.5t-17 -87.5q0 -36 11 -65t30.5 -49t45 -30.5t54.5 -10.5zM426 391q7 -6 13 -13q24 -25 37.5 -60.5t13.5 -78.5q0 -57 -20 -103
t-53.5 -78.5t-77 -50t-90.5 -17.5q-39 0 -72 13t-56.5 37t-37 58.5t-13.5 77.5q0 57 20 103.5t53 80t76.5 52t91.5 18.5q35 0 65 -11q46 1 80 29t43 71h41q-13 -61 -61 -98q-25 -20 -53 -30zM331 497q-21 0 -37.5 9t-31.5 19.5l-29 19.5t-29 9q-23 0 -33 -13t-18 -30l-6 -13
l-30 3l7 21q8 25 27 46.5t55 21.5q20 0 36.5 -9t31 -20t28.5 -20t30 -9q24 0 35 13.5t18 30.5l5 13l30 -4l-6 -19q-8 -26 -27.5 -47.5t-55.5 -21.5z" />
    <glyph glyph-name="uni1EE2" unicode="&#x1ee2;" horiz-adv-x="679" 
d="M343 28q66 0 119 25.5t91 68.5t58.5 99t20.5 117q0 48 -13.5 90.5t-40.5 74t-67 50t-92 18.5q-65 0 -118 -25.5t-90.5 -68.5t-58.5 -99.5t-21 -117.5q0 -47 13.5 -89.5t40.5 -74t66.5 -50t91.5 -18.5zM569 572q24 -15 43 -36q32 -36 49 -85.5t17 -107.5q0 -74 -25.5 -139
t-71 -113.5t-108 -76.5t-136.5 -28q-60 0 -106.5 20.5t-79 56.5t-49.5 85t-17 106q0 75 25.5 140t70.5 114t107.5 77t136.5 28q51 0 93 -15q43 2 75 29q34 28 43 71h41q-13 -61 -61 -98q-22 -18 -47 -28zM284 -123q0 17 13 29.5t30 12.5q14 0 23.5 -10t9.5 -24
q0 -17 -13.5 -29t-30.5 -12q-14 0 -23 9.5t-9 23.5z" />
    <glyph glyph-name="uni1EE3" unicode="&#x1ee3;" horiz-adv-x="502" 
d="M254 26q36 0 70.5 14.5t61.5 41.5t43.5 66t16.5 87q0 36 -11 65.5t-30 50.5t-44.5 32t-54.5 11q-36 0 -70.5 -15t-61.5 -43t-44 -67.5t-17 -87.5q0 -36 11 -65t30.5 -49t45 -30.5t54.5 -10.5zM426 391q7 -6 13 -13q24 -25 37.5 -60.5t13.5 -78.5q0 -57 -20 -103
t-53.5 -78.5t-77 -50t-90.5 -17.5q-39 0 -72 13t-56.5 37t-37 58.5t-13.5 77.5q0 57 20 103.5t53 80t76.5 52t91.5 18.5q35 0 65 -11q46 1 80 29t43 71h41q-13 -61 -61 -98q-25 -20 -53 -30zM209 -123q0 17 13 29.5t30 12.5q14 0 23.5 -10t9.5 -24q0 -17 -13.5 -29
t-30.5 -12q-14 0 -23 9.5t-9 23.5z" />
    <glyph glyph-name="uni1EE4" unicode="&#x1ee4;" horiz-adv-x="627" 
d="M311 -13q-56 0 -96.5 18.5t-65.5 53t-33.5 82.5t-0.5 107l49 352h44l-49 -352q-7 -49 -0.5 -89.5t26 -69.5t52.5 -45t80 -16q48 0 85.5 16t65.5 45t45 69.5t24 89.5l49 352h44l-49 -352q-8 -59 -30.5 -107t-57 -82.5t-80.5 -53t-102 -18.5zM258 -123q0 17 13 29.5
t30 12.5q14 0 23.5 -10t9.5 -24q0 -17 -13.5 -29t-30.5 -12q-14 0 -23 9.5t-9 23.5z" />
    <glyph glyph-name="uni1EE5" unicode="&#x1ee5;" horiz-adv-x="503" 
d="M429 0h-28l1 75h-2q-1 -2 -11.5 -15.5t-30.5 -29t-51 -28t-73 -12.5t-71.5 14.5t-47 40.5t-23 62t0.5 79l33 234h43l-32 -230q-5 -35 -1.5 -64.5t17 -51.5t36.5 -34.5t58 -12.5q37 0 66 14t49 34t31.5 43.5t15.5 43.5l36 258h43zM193 -123q0 17 13 29.5t30 12.5
q14 0 23.5 -10t9.5 -24q0 -17 -13.5 -29t-30.5 -12q-14 0 -23 9.5t-9 23.5z" />
    <glyph glyph-name="uni1EE6" unicode="&#x1ee6;" horiz-adv-x="627" 
d="M311 -13q-56 0 -96.5 18.5t-65.5 53t-33.5 82.5t-0.5 107l49 352h44l-49 -352q-7 -49 -0.5 -89.5t26 -69.5t52.5 -45t80 -16q48 0 85.5 16t65.5 45t45 69.5t24 89.5l49 352h44l-49 -352q-8 -59 -30.5 -107t-57 -82.5t-80.5 -53t-102 -18.5zM329 794q13 9 23 13
q8 4 19.5 7t26.5 3q31 0 49.5 -15t18.5 -41q0 -17 -2.5 -25t-7.5 -14t-9 -10t-9 -7.5l-11 -7.5t-7 -10l-4 -17h-28l3 23q2 13 9 20.5t11 10.5t7.5 6.5t6.5 7t4.5 7t1.5 13.5q0 11 -8.5 18t-27.5 7q-9 0 -17.5 -2t-14.5 -5q-7 -3 -22 -13z" />
    <glyph glyph-name="uni1EE7" unicode="&#x1ee7;" horiz-adv-x="503" 
d="M429 0h-28l1 75h-2q-1 -2 -11.5 -15.5t-30.5 -29t-51 -28t-73 -12.5t-71.5 14.5t-47 40.5t-23 62t0.5 79l33 234h43l-32 -230q-5 -35 -1.5 -64.5t17 -51.5t36.5 -34.5t58 -12.5q37 0 66 14t49 34t31.5 43.5t15.5 43.5l36 258h43zM243 621q13 9 23 13q8 4 19.5 7t26.5 3
q31 0 49.5 -15t18.5 -41q0 -17 -2.5 -25t-7.5 -14t-9 -10t-9 -7.5l-11 -7.5t-7 -10l-4 -17h-28l3 23q2 13 9 20.5t11 10.5t7.5 6.5t6.5 7t4.5 7t1.5 13.5q0 11 -8.5 18t-27.5 7q-9 0 -17.5 -2t-14.5 -5q-7 -3 -22 -13z" />
    <glyph glyph-name="uni1EE8" unicode="&#x1ee8;" horiz-adv-x="627" 
d="M625 565l-44 -317q-8 -59 -30.5 -107t-57 -82.5t-80.5 -53t-102 -18.5t-96.5 18.5t-65.5 53t-33.5 82.5t-0.5 107l49 352h44l-49 -352q-7 -49 -0.5 -89.5t26 -69.5t52.5 -45t80 -16q48 0 85.5 16t65.5 45t45 69.5t24 89.5l49 352h27q32 6 58 27q34 28 43 71h41
q-13 -61 -61 -98q-31 -26 -69 -35zM418 670h-31l75 143l55 -8z" />
    <glyph glyph-name="uni1EE9" unicode="&#x1ee9;" horiz-adv-x="503" 
d="M483 385l-54 -385h-28l1 75h-2q-1 -2 -11.5 -15.5t-30.5 -29t-51 -28t-73 -12.5t-71.5 14.5t-47 40.5t-23 62t0.5 79l33 234h43l-32 -230q-5 -35 -1.5 -64.5t17 -51.5t36.5 -34.5t58 -12.5q37 0 66 14t49 34t31.5 43.5t15.5 43.5l36 258h23q36 4 65 28q34 28 43 71h41
q-13 -61 -61 -98q-33 -27 -73 -36zM339 497h-31l75 143l55 -8z" />
    <glyph glyph-name="uni1EEA" unicode="&#x1eea;" horiz-adv-x="627" 
d="M625 565l-44 -317q-8 -59 -30.5 -107t-57 -82.5t-80.5 -53t-102 -18.5t-96.5 18.5t-65.5 53t-33.5 82.5t-0.5 107l49 352h44l-49 -352q-7 -49 -0.5 -89.5t26 -69.5t52.5 -45t80 -16q48 0 85.5 16t65.5 45t45 69.5t24 89.5l49 352h27q32 6 58 27q34 28 43 71h41
q-13 -61 -61 -98q-31 -26 -69 -35zM347 805l57 8l35 -143h-31z" />
    <glyph glyph-name="uni1EEB" unicode="&#x1eeb;" horiz-adv-x="503" 
d="M483 385l-54 -385h-28l1 75h-2q-1 -2 -11.5 -15.5t-30.5 -29t-51 -28t-73 -12.5t-71.5 14.5t-47 40.5t-23 62t0.5 79l33 234h43l-32 -230q-5 -35 -1.5 -64.5t17 -51.5t36.5 -34.5t58 -12.5q37 0 66 14t49 34t31.5 43.5t15.5 43.5l36 258h23q36 4 65 28q34 28 43 71h41
q-13 -61 -61 -98q-33 -27 -73 -36zM251 632l57 8l35 -143h-31z" />
    <glyph glyph-name="uni1EEC" unicode="&#x1eec;" horiz-adv-x="627" 
d="M625 565l-44 -317q-8 -59 -30.5 -107t-57 -82.5t-80.5 -53t-102 -18.5t-96.5 18.5t-65.5 53t-33.5 82.5t-0.5 107l49 352h44l-49 -352q-7 -49 -0.5 -89.5t26 -69.5t52.5 -45t80 -16q48 0 85.5 16t65.5 45t45 69.5t24 89.5l49 352h27q32 6 58 27q34 28 43 71h41
q-13 -61 -61 -98q-31 -26 -69 -35zM338 794q13 9 23 13q8 4 19.5 7t26.5 3q31 0 49.5 -15t18.5 -41q0 -17 -2.5 -25t-7.5 -14t-9 -10t-9 -7.5l-11 -7.5t-7 -10l-4 -17h-28l3 23q2 13 9 20.5t11 10.5t7.5 6.5t6.5 7t4.5 7t1.5 13.5q0 11 -8.5 18t-27.5 7q-9 0 -17.5 -2
t-14.5 -5q-7 -3 -22 -13z" />
    <glyph glyph-name="uni1EED" unicode="&#x1eed;" horiz-adv-x="503" 
d="M483 385l-54 -385h-28l1 75h-2q-1 -2 -11.5 -15.5t-30.5 -29t-51 -28t-73 -12.5t-71.5 14.5t-47 40.5t-23 62t0.5 79l33 234h43l-32 -230q-5 -35 -1.5 -64.5t17 -51.5t36.5 -34.5t58 -12.5q37 0 66 14t49 34t31.5 43.5t15.5 43.5l36 258h23q36 4 65 28q34 28 43 71h41
q-13 -61 -61 -98q-33 -27 -73 -36zM254 621q13 9 23 13q8 4 19.5 7t26.5 3q31 0 49.5 -15t18.5 -41q0 -17 -2.5 -25t-7.5 -14t-9 -10t-9 -7.5l-11 -7.5t-7 -10l-4 -17h-28l3 23q2 13 9 20.5t11 10.5t7.5 6.5t6.5 7t4.5 7t1.5 13.5q0 11 -8.5 18t-27.5 7q-9 0 -17.5 -2
t-14.5 -5q-7 -3 -22 -13z" />
    <glyph glyph-name="uni1EEE" unicode="&#x1eee;" horiz-adv-x="627" 
d="M625 565l-44 -317q-8 -59 -30.5 -107t-57 -82.5t-80.5 -53t-102 -18.5t-96.5 18.5t-65.5 53t-33.5 82.5t-0.5 107l49 352h44l-49 -352q-7 -49 -0.5 -89.5t26 -69.5t52.5 -45t80 -16q48 0 85.5 16t65.5 45t45 69.5t24 89.5l49 352h27q32 6 58 27q34 28 43 71h41
q-13 -61 -61 -98q-31 -26 -69 -35zM498 670q-21 0 -37.5 9t-31.5 19.5l-29 19.5t-29 9q-23 0 -33 -13t-18 -30l-6 -13l-30 3l7 21q8 25 27 46.5t55 21.5q20 0 36.5 -9t31 -20t28.5 -20t30 -9q24 0 35 13.5t18 30.5l5 13l30 -4l-6 -19q-8 -26 -27.5 -47.5t-55.5 -21.5z" />
    <glyph glyph-name="uni1EEF" unicode="&#x1eef;" horiz-adv-x="503" 
d="M483 385l-54 -385h-28l1 75h-2q-1 -2 -11.5 -15.5t-30.5 -29t-51 -28t-73 -12.5t-71.5 14.5t-47 40.5t-23 62t0.5 79l33 234h43l-32 -230q-5 -35 -1.5 -64.5t17 -51.5t36.5 -34.5t58 -12.5q37 0 66 14t49 34t31.5 43.5t15.5 43.5l36 258h23q36 4 65 28q34 28 43 71h41
q-13 -61 -61 -98q-33 -27 -73 -36zM399 497q-21 0 -37.5 9t-31.5 19.5l-29 19.5t-29 9q-23 0 -33 -13t-18 -30l-6 -13l-30 3l7 21q8 25 27 46.5t55 21.5q20 0 36.5 -9t31 -20t28.5 -20t30 -9q24 0 35 13.5t18 30.5l5 13l30 -4l-6 -19q-8 -26 -27.5 -47.5t-55.5 -21.5z" />
    <glyph glyph-name="uni1EF0" unicode="&#x1ef0;" horiz-adv-x="627" 
d="M625 565l-44 -317q-8 -59 -30.5 -107t-57 -82.5t-80.5 -53t-102 -18.5t-96.5 18.5t-65.5 53t-33.5 82.5t-0.5 107l49 352h44l-49 -352q-7 -49 -0.5 -89.5t26 -69.5t52.5 -45t80 -16q48 0 85.5 16t65.5 45t45 69.5t24 89.5l49 352h27q32 6 58 27q34 28 43 71h41
q-13 -61 -61 -98q-31 -26 -69 -35zM254 -123q0 17 13 29.5t30 12.5q14 0 23.5 -10t9.5 -24q0 -17 -13.5 -29t-30.5 -12q-14 0 -23 9.5t-9 23.5z" />
    <glyph glyph-name="uni1EF1" unicode="&#x1ef1;" horiz-adv-x="503" 
d="M483 385l-54 -385h-28l1 75h-2q-1 -2 -11.5 -15.5t-30.5 -29t-51 -28t-73 -12.5t-71.5 14.5t-47 40.5t-23 62t0.5 79l33 234h43l-32 -230q-5 -35 -1.5 -64.5t17 -51.5t36.5 -34.5t58 -12.5q37 0 66 14t49 34t31.5 43.5t15.5 43.5l36 258h23q36 4 65 28q34 28 43 71h41
q-13 -61 -61 -98q-33 -27 -73 -36zM198 -123q0 17 13 29.5t30 12.5q14 0 23.5 -10t9.5 -24q0 -17 -13.5 -29t-30.5 -12q-14 0 -23 9.5t-9 23.5z" />
    <glyph glyph-name="Ygrave" unicode="&#x1ef2;" horiz-adv-x="537" 
d="M548 600h51l-277 -370l-32 -230h-44l32 231l-172 369h52l135 -297l12 -33h3l22 33zM270 805l57 8l35 -143h-31z" />
    <glyph glyph-name="ygrave" unicode="&#x1ef3;" horiz-adv-x="500" 
d="M485 420l-58 -414q-12 -85 -65.5 -135t-144.5 -50q-42 0 -69.5 9t-45.5 20q-21 12 -34 29l29 31q12 -14 30 -25q15 -10 38.5 -17.5t55.5 -7.5q72 0 112.5 38t50.5 107l9 63q-6 -8 -18 -21t-31.5 -26t-46.5 -22t-62 -9q-43 0 -73 14.5t-48 40.5t-24 62t0 79l33 234h43
l-32 -229q-5 -35 -1.5 -65t17 -51.5t36.5 -34t58 -12.5q37 0 66 13.5t49 34t31.5 43.5t15.5 43l36 258h43zM264 632l57 8l35 -143h-31z" />
    <glyph glyph-name="uni1EF4" unicode="&#x1ef4;" horiz-adv-x="537" 
d="M548 600h51l-277 -370l-32 -230h-44l32 231l-172 369h52l135 -297l12 -33h3l22 33zM213 -123q0 17 13 29.5t30 12.5q14 0 23.5 -10t9.5 -24q0 -17 -13.5 -29t-30.5 -12q-14 0 -23 9.5t-9 23.5z" />
    <glyph glyph-name="uni1EF5" unicode="&#x1ef5;" horiz-adv-x="500" 
d="M485 420l-58 -414q-12 -85 -65.5 -135t-144.5 -50q-42 0 -69.5 9t-45.5 20q-21 12 -34 29l29 31q12 -14 30 -25q15 -10 38.5 -17.5t55.5 -7.5q72 0 112.5 38t50.5 107l9 63q-6 -8 -18 -21t-31.5 -26t-46.5 -22t-62 -9q-43 0 -73 14.5t-48 40.5t-24 62t0 79l33 234h43
l-32 -229q-5 -35 -1.5 -65t17 -51.5t36.5 -34t58 -12.5q37 0 66 13.5t49 34t31.5 43.5t15.5 43l36 258h43zM415 -123q0 17 13 29.5t30 12.5q14 0 23.5 -10t9.5 -24q0 -17 -13.5 -29t-30.5 -12q-14 0 -23 9.5t-9 23.5z" />
    <glyph glyph-name="uni1EF6" unicode="&#x1ef6;" horiz-adv-x="537" 
d="M548 600h51l-277 -370l-32 -230h-44l32 231l-172 369h52l135 -297l12 -33h3l22 33zM267 794q13 9 23 13q8 4 19.5 7t26.5 3q31 0 49.5 -15t18.5 -41q0 -17 -2.5 -25t-7.5 -14t-9 -10t-9 -7.5l-11 -7.5t-7 -10l-4 -17h-28l3 23q2 13 9 20.5t11 10.5t7.5 6.5t6.5 7t4.5 7
t1.5 13.5q0 11 -8.5 18t-27.5 7q-9 0 -17.5 -2t-14.5 -5q-7 -3 -22 -13z" />
    <glyph glyph-name="uni1EF7" unicode="&#x1ef7;" horiz-adv-x="500" 
d="M485 420l-58 -414q-12 -85 -65.5 -135t-144.5 -50q-42 0 -69.5 9t-45.5 20q-21 12 -34 29l29 31q12 -14 30 -25q15 -10 38.5 -17.5t55.5 -7.5q72 0 112.5 38t50.5 107l9 63q-6 -8 -18 -21t-31.5 -26t-46.5 -22t-62 -9q-43 0 -73 14.5t-48 40.5t-24 62t0 79l33 234h43
l-32 -229q-5 -35 -1.5 -65t17 -51.5t36.5 -34t58 -12.5q37 0 66 13.5t49 34t31.5 43.5t15.5 43l36 258h43zM256 613q13 9 23 13q8 4 19.5 7t26.5 3q31 0 49.5 -15t18.5 -41q0 -17 -2.5 -25t-7.5 -14t-9 -10t-9 -7.5l-11 -7.5t-7 -10l-4 -17h-28l3 23q2 13 9 20.5t11 10.5
t7.5 6.5t6.5 7t4.5 7t1.5 13.5q0 11 -8.5 18t-27.5 7q-9 0 -17.5 -2t-14.5 -5q-7 -3 -22 -13z" />
    <glyph glyph-name="uni1EF8" unicode="&#x1ef8;" horiz-adv-x="537" 
d="M548 600h51l-277 -370l-32 -230h-44l32 231l-172 369h52l135 -297l12 -33h3l22 33zM409 670q-21 0 -37.5 9t-31.5 19.5l-29 19.5t-29 9q-23 0 -33 -13t-18 -30l-6 -13l-30 3l7 21q8 25 27 46.5t55 21.5q20 0 36.5 -9t31 -20t28.5 -20t30 -9q24 0 35 13.5t18 30.5l5 13
l30 -4l-6 -19q-8 -26 -27.5 -47.5t-55.5 -21.5z" />
    <glyph glyph-name="uni1EF9" unicode="&#x1ef9;" horiz-adv-x="500" 
d="M485 420l-58 -414q-12 -85 -65.5 -135t-144.5 -50q-42 0 -69.5 9t-45.5 20q-21 12 -34 29l29 31q12 -14 30 -25q15 -10 38.5 -17.5t55.5 -7.5q72 0 112.5 38t50.5 107l9 63q-6 -8 -18 -21t-31.5 -26t-46.5 -22t-62 -9q-43 0 -73 14.5t-48 40.5t-24 62t0 79l33 234h43
l-32 -229q-5 -35 -1.5 -65t17 -51.5t36.5 -34t58 -12.5q37 0 66 13.5t49 34t31.5 43.5t15.5 43l36 258h43zM384 497q-21 0 -37.5 9t-31.5 19.5l-29 19.5t-29 9q-23 0 -33 -13t-18 -30l-6 -13l-30 3l7 21q8 25 27 46.5t55 21.5q20 0 36.5 -9t31 -20t28.5 -20t30 -9
q24 0 35 13.5t18 30.5l5 13l30 -4l-6 -19q-8 -26 -27.5 -47.5t-55.5 -21.5z" />
    <glyph glyph-name="abreve" unicode="&#x103;" 
d="M461 329l19 91h31l-59 -420h-31l6 91h-2q-17 -29 -43 -51q-23 -19 -57 -34.5t-83 -15.5q-38 0 -69 13.5t-54 38t-35.5 59.5t-12.5 77q0 55 19 101.5t51 80t74 52t87 18.5q50 0 80.5 -16t47.5 -35q20 -22 29 -50h2zM444 238q0 37 -11 65.5t-30 48.5t-44.5 30.5t-54.5 10.5
q-37 0 -71 -15.5t-60.5 -43.5t-42 -66.5t-15.5 -84.5q0 -35 10 -63.5t28.5 -49t43.5 -32t55 -11.5q36 0 70.5 17t61.5 46t43.5 67t16.5 81zM469 615q-4 -28 -15.5 -49.5t-28 -36.5t-37 -23.5t-42.5 -8.5q-46 0 -71.5 31.5t-18.5 86.5h29q-5 -40 12.5 -64.5t52.5 -24.5
q34 0 58.5 24t31.5 65h29z" />
    <glyph glyph-name="Abreve" unicode="&#x102;" horiz-adv-x="584" 
d="M564 0h-46l-43 157h-322l-87 -157h-46l335 600h42zM176 198h288l-95 348zM510 787q-4 -28 -15.5 -49.5t-28 -36.5t-37 -23.5t-42.5 -8.5q-46 0 -71.5 31.5t-18.5 86.5h29q-5 -40 12.5 -64.5t52.5 -24.5q34 0 58.5 24t31.5 65h29z" />
    <glyph glyph-name="itilde" unicode="&#x129;" horiz-adv-x="194" 
d="M134 420h43l-59 -420h-43zM235 497q-21 0 -37.5 9t-31.5 19.5l-29 19.5t-29 9q-23 0 -33 -13t-18 -30l-6 -13l-30 3l7 21q8 25 27 46.5t55 21.5q20 0 36.5 -9t31 -20t28.5 -20t30 -9q24 0 35 13.5t18 30.5l5 13l30 -4l-6 -19q-8 -26 -27.5 -47.5t-55.5 -21.5z" />
    <glyph glyph-name="uni1EDD" unicode="&#x1edd;" horiz-adv-x="502" 
d="M254 26q36 0 70.5 14.5t61.5 41.5t43.5 66t16.5 87q0 36 -11 65.5t-30 50.5t-44.5 32t-54.5 11q-36 0 -70.5 -15t-61.5 -43t-44 -67.5t-17 -87.5q0 -36 11 -65t30.5 -49t45 -30.5t54.5 -10.5zM426 391q7 -6 13 -13q24 -25 37.5 -60.5t13.5 -78.5q0 -57 -20 -103
t-53.5 -78.5t-77 -50t-90.5 -17.5q-39 0 -72 13t-56.5 37t-37 58.5t-13.5 77.5q0 57 20 103.5t53 80t76.5 52t91.5 18.5q35 0 65 -11q46 1 80 29t43 71h41q-13 -61 -61 -98q-25 -20 -53 -30zM281 632l57 8l35 -143h-31z" />
    <glyph glyph-name="cir.acute" unicode="&#xe00d;" horiz-adv-x="0" 
d="M280 746l-70 -77h-42l94 109h42l66 -109h-42zM374 749h-31l75 143l55 -8z" />
    <glyph glyph-name="cir.grave" unicode="&#xe00e;" horiz-adv-x="0" 
d="M280 747l-70 -77h-42l94 109h42l66 -109h-42zM103 886l57 8l35 -143h-31z" />
    <glyph glyph-name="cir.tilde" unicode="&#xe00f;" horiz-adv-x="0" 
d="M280 748l-70 -77h-42l94 109h42l66 -109h-42zM393 780q-21 0 -37.5 9t-31.5 19.5l-29 19.5t-29 9q-23 0 -33 -13t-18 -30l-6 -13l-30 3l7 21q8 25 27 46.5t55 21.5q20 0 36.5 -9t31 -20t28.5 -20t30 -9q24 0 35 13.5t18 30.5l5 13l30 -4l-6 -19q-8 -26 -27.5 -47.5
t-55.5 -21.5z" />
    <glyph glyph-name="breve.tilde" unicode="&#xe010;" horiz-adv-x="0" 
d="M402 788q-4 -28 -15.5 -49.5t-28 -36.5t-37 -23.5t-42.5 -8.5q-46 0 -71.5 31.5t-18.5 86.5h29q-5 -40 12.5 -64.5t52.5 -24.5q34 0 58.5 24t31.5 65h29zM384 810q-21 0 -37.5 9t-31.5 19.5l-29 19.5t-29 9q-23 0 -33 -13t-18 -30l-6 -13l-30 3l7 21q8 25 27 46.5
t55 21.5q20 0 36.5 -9t31 -20t28.5 -20t30 -9q24 0 35 13.5t18 30.5l5 13l30 -4l-6 -19q-8 -26 -27.5 -47.5t-55.5 -21.5z" />
    <glyph glyph-name="breve.acute" unicode="&#xe011;" horiz-adv-x="0" 
d="M402 788q-4 -28 -15.5 -49.5t-28 -36.5t-37 -23.5t-42.5 -8.5q-46 0 -71.5 31.5t-18.5 86.5h29q-5 -40 12.5 -64.5t52.5 -24.5q34 0 58.5 24t31.5 65h29zM295 797h-31l75 143l55 -8z" />
    <glyph glyph-name="breve.grave" unicode="&#xe012;" horiz-adv-x="0" 
d="M402 788q-4 -28 -15.5 -49.5t-28 -36.5t-37 -23.5t-42.5 -8.5q-46 0 -71.5 31.5t-18.5 86.5h29q-5 -40 12.5 -64.5t52.5 -24.5q34 0 58.5 24t31.5 65h29zM228 920l57 8l35 -143h-31z" />
    <glyph glyph-name="breve.hook" unicode="&#xe013;" horiz-adv-x="0" 
d="M402 787q-4 -28 -15.5 -49.5t-28 -36.5t-37 -23.5t-42.5 -8.5q-46 0 -71.5 31.5t-18.5 86.5h29q-5 -40 12.5 -64.5t52.5 -24.5q34 0 58.5 24t31.5 65h29zM219 879.75q13 6.75 23 9.75q8 3 19.5 5.25t26.5 2.25q31 0 49.5 -11.25t18.5 -30.75q0 -12.75 -2.5 -18.75
t-7.5 -10.5t-9 -7.5t-9 -5.625l-11 -5.625t-7 -7.5l-4 -12.75h-28l3 17.25q2 9.75 9 15.375t11 7.875t7.5 4.875t6.5 5.25t4.5 5.25t1.5 10.125q0 8.25 -8.5 13.5t-27.5 5.25q-9 0 -17.5 -1.5t-14.5 -3.75q-7 -2.25 -22 -9.75z" />
    <glyph glyph-name="cir.hook" unicode="&#xe014;" horiz-adv-x="0" 
d="M280 746l-70 -77h-42l94 109h42l66 -109h-42zM296 875q13 9 23 13q8 4 19.5 7t26.5 3q31 0 49.5 -15t18.5 -41q0 -17 -2.5 -25t-7.5 -14t-9 -10t-9 -7.5l-11 -7.5t-7 -10l-4 -17h-28l3 23q2 13 9 20.5t11 10.5t7.5 6.5t6.5 7t4.5 7t1.5 13.5q0 11 -8.5 18t-27.5 7
q-9 0 -17.5 -2t-14.5 -5q-7 -3 -22 -13z" />
    <glyph glyph-name="uniE015" unicode="&#xe015;" horiz-adv-x="259" 
d="M167 632l57 8l35 -143h-31z" />
    <glyph glyph-name="uniE016" unicode="&#xe016;" horiz-adv-x="256" 
d="M173 497h-31l75 143l55 -8z" />
    <glyph glyph-name="uniE017" unicode="&#xe017;" horiz-adv-x="341" 
d="M280 574l-70 -77h-42l94 109h42l66 -109h-42z" />
    <glyph glyph-name="uniE018" unicode="&#xe018;" horiz-adv-x="325" 
d="M258 700l70 77h42l-94 -109h-42l-66 109h42z" />
    <glyph glyph-name="uniE019" unicode="&#xe019;" horiz-adv-x="445" 
d="M379 497q-21 0 -37.5 9t-31.5 19.5l-29 19.5t-29 9q-23 0 -33 -13t-18 -30l-6 -13l-30 3l7 21q8 25 27 46.5t55 21.5q20 0 36.5 -9t31 -20t28.5 -20t30 -9q24 0 35 13.5t18 30.5l5 13l30 -4l-6 -19q-8 -26 -27.5 -47.5t-55.5 -21.5z" />
    <glyph glyph-name="uniE01A" unicode="&#xe01a;" horiz-adv-x="445" 
d="M167 632l57 8l35 -143h-31z" />
    <glyph glyph-name="uniE01B" unicode="&#xe01b;" horiz-adv-x="396" 
d="M289 419h-31l73 158h55zM158 419h-30l73 158h55z" />
    <glyph glyph-name="uniE01C" unicode="&#xe01c;" horiz-adv-x="371" 
d="M402 615q-4 -28 -15.5 -49.5t-28 -36.5t-37 -23.5t-42.5 -8.5q-46 0 -71.5 31.5t-18.5 86.5h29q-5 -40 12.5 -64.5t52.5 -24.5q34 0 58.5 24t31.5 65h29z" />
    <glyph glyph-name="uniE01D" unicode="&#xe01d;" horiz-adv-x="371" 
d="M402 615q-4 -28 -15.5 -49.5t-28 -36.5t-37 -23.5t-42.5 -8.5q-46 0 -71.5 31.5t-18.5 86.5h29q-5 -40 12.5 -64.5t52.5 -24.5q34 0 58.5 24t31.5 65h29z" />
    <glyph glyph-name="uniE01E" unicode="&#xe01e;" horiz-adv-x="284" 
d="M149 684q0 41 30 65t74 24q36 0 58 -18.5t22 -50.5q0 -41 -30 -65t-73 -24q-37 0 -59 18.5t-22 50.5zM300 701q0 41 -52 41q-29 0 -47.5 -14t-18.5 -40q0 -20 14 -31t39 -11q30 0 47.5 14.5t17.5 40.5z" />
    <glyph glyph-name="uniE01F" unicode="&#xe01f;" horiz-adv-x="411" 
d="M205 613q13 9 23 13q8 4 19.5 7t26.5 3q31 0 49.5 -15t18.5 -41q0 -17 -2.5 -25t-7.5 -14t-9 -10t-9 -7.5l-11 -7.5t-7 -10l-4 -17h-28l3 23q2 13 9 20.5t11 10.5t7.5 6.5t6.5 7t4.5 7t1.5 13.5q0 11 -8.5 18t-27.5 7q-9 0 -17.5 -2t-14.5 -5q-7 -3 -22 -13z" />
    <glyph glyph-name="uniE020" unicode="&#xe020;" horiz-adv-x="482" 
d="M222 550q-17 0 -28.5 11.5t-11.5 28.5q0 22 16 37.5t37 15.5q19 0 30 -12t11 -29q0 -22 -15.5 -37t-38.5 -15zM410 550q-17 0 -28.5 11.5t-11.5 28.5q0 22 16 37.5t37 15.5q19 0 30 -12t11 -29q0 -22 -15.5 -37t-38.5 -15z" />
    <glyph glyph-name="gravecomb" unicode="&#x300;" horiz-adv-x="0" 
d="M-342 632l57 8l35 -143h-31z" />
    <glyph glyph-name="acutecomb" unicode="&#x301;" horiz-adv-x="0" 
d="M-296 497h-31l75 143l55 -8z" />
    <glyph glyph-name="tildecomb" unicode="&#x303;" horiz-adv-x="0" 
d="M-157 497q-21 0 -37.5 9t-31.5 19.5l-29 19.5t-29 9q-23 0 -33 -13t-18 -30l-6 -13l-30 3l7 21q8 25 27 46.5t55 21.5q20 0 36.5 -9t31 -20t28.5 -20t30 -9q24 0 35 13.5t18 30.5l5 13l30 -4l-6 -19q-8 -26 -27.5 -47.5t-55.5 -21.5z" />
    <glyph glyph-name="dotbelowcomb" unicode="&#x323;" horiz-adv-x="0" 
d="M-273 -123q0 17 13 29.5t30 12.5q14 0 23.5 -10t9.5 -24q0 -17 -13.5 -29t-30.5 -12q-14 0 -23 9.5t-9 23.5z" />
    <glyph glyph-name="uni031B" unicode="&#x31b;" horiz-adv-x="310" 
d="M410 597q-13 -61 -61 -98q-48 -40 -113 -40l8 38q47 0 82 29q34 28 43 71h41z" />
    <glyph glyph-name="hookabovecomb" unicode="&#x309;" horiz-adv-x="411" 
d="M205 613q13 9 23 13q8 4 19.5 7t26.5 3q31 0 49.5 -15t18.5 -41q0 -17 -2.5 -25t-7.5 -14t-9 -10t-9 -7.5l-11 -7.5t-7 -10l-4 -17h-28l3 23q2 13 9 20.5t11 10.5t7.5 6.5t6.5 7t4.5 7t1.5 13.5q0 11 -8.5 18t-27.5 7q-9 0 -17.5 -2t-14.5 -5q-7 -3 -22 -13z" />
    </font>
</defs>
</svg>
