<?xml version="1.0" standalone="no"?>
<!DOCTYPE svg PUBLIC "-//W3C//DTD SVG 1.1//EN" "http://www.w3.org/Graphics/SVG/1.1/DTD/svg11.dtd" >
<svg>
<metadata>
Created by FontForge 20090622 at Thu Oct 20 09:57:38 2016
 By deploy user
Copyright (c) 2009 by Hannes von Doehren. All rights reserved.
</metadata>
<defs>
<font id="VN_BrandonGrotesque-Bold" horiz-adv-x="663" >
  <font-face 
    font-family="VN_Brandon Grotesque"
    font-weight="450"
    font-stretch="normal"
    units-per-em="1000"
    panose-1="2 11 8 3 2 2 3 6 2 2"
    ascent="700"
    descent="-300"
    x-height="400"
    cap-height="700"
    bbox="-157 -383.762 1111.33 1106"
    underline-thickness="50"
    underline-position="-50"
    unicode-range="U+000D-U+FB02"
  />
<missing-glyph horiz-adv-x="599" 
d="M50 670q0 30 30 30h439q30 0 30 -30v-640q0 -30 -30 -30h-439q-30 0 -30 30v640zM262 314q0 -5 4.5 -8.5t9.5 -3.5h36q15 0 15 13v26q0 18 16.5 31.5l36 29t36 36t16.5 53.5q0 24 -9.5 44.5t-26.5 35.5t-39.5 23t-49.5 8q-33 0 -57 -10t-41 -21q-19 -13 -32 -30
q-3 -5 -4 -9.5t4 -8.5l22 -22q8 -6 17 0q5 4 12 11t17 14t23.5 11.5t31.5 4.5q30 0 45.5 -16t15.5 -36q0 -24 -15.5 -39t-34 -30t-34 -32.5t-15.5 -45.5v-29zM245 156q0 -20 14 -34t34 -14t34.5 14t14.5 34t-14.5 34t-34.5 14t-34 -14t-14 -34z" />
    <glyph glyph-name="fi" unicode="fi" horiz-adv-x="557" 
d="M84 295h-34q-8 0 -13.5 5.5t-5.5 13.5v67q0 19 19 19h34v109q0 46 15 83t41.5 63t62.5 40.5t78 14.5q25 0 48.5 -5t43.5 -11.5t36 -14t25 -12.5q7 -4 8.5 -11.5t-2.5 -14.5l-34 -63q-5 -11 -11.5 -12.5t-15.5 3.5l-11.5 5.5t-23.5 9.5t-30.5 9t-31.5 4q-27 0 -50 -21
t-23 -68v-108h269q8 0 13.5 -5.5t5.5 -13.5v-362q0 -8 -5.5 -13.5t-13.5 -5.5h-83q-8 0 -13.5 5.5t-5.5 13.5v276h-167v-276q0 -14 -13.5 -16.5t-24.5 -2.5h-68q-8 0 -13.5 5.5t-5.5 13.5v276z" />
    <glyph glyph-name="fl" unicode="fl" horiz-adv-x="570" 
d="M84 296h-36q-8 0 -13.5 5t-5.5 13v66q0 8 5.5 14t13.5 6h36v109q0 49 15.5 86.5t42.5 63t63 38.5t76 13q32 0 58.5 -8.5t45.5 -19.5q22 -12 39 -28l11 28q4 8 9 13t15 5h32q8 0 13.5 -5.5t5.5 -13.5v-662q0 -8 -5.5 -13.5t-13.5 -5.5h-84q-8 0 -13.5 5.5t-5.5 13.5v528
q-2 3 -9.5 11t-20 16.5t-29.5 15t-37 6.5q-16 0 -31 -5t-27 -15.5t-19 -27.5t-7 -40v-108h84q8 0 13.5 -5.5t5.5 -13.5v-66q0 -8 -5.5 -13.5t-13.5 -5.5h-84v-277q0 -8 -5.5 -13.5t-13.5 -5.5h-87q-8 0 -13 5.5t-5 13.5v277z" />
    <glyph glyph-name="f_f" unicode="ff" horiz-adv-x="642" 
d="M84 295h-35q-8 0 -13.5 5.5t-5.5 13.5v67q0 19 19 19h35v89q0 53 17 92.5t45.5 66t66.5 39.5t80 13q52 0 86 -15.5t53 -30.5q51 56 137 56q40 0 72 -13.5t46 -25.5q5 -4 6 -11t-2 -12l-34 -64q-3 -6 -10 -7.5t-14 2.5q-10 6 -26 13t-33 7q-32 0 -49.5 -23.5t-17.5 -67.5
v-108h100q19 0 19 -19v-67q0 -8 -5.5 -13.5t-13.5 -5.5h-100v-276q0 -8 -5.5 -13.5t-13.5 -5.5h-87q-8 0 -13.5 5.5t-5.5 13.5v276h-173v-276q0 -8 -5.5 -13.5t-13.5 -5.5h-87q-8 0 -13.5 5.5t-5.5 13.5v276zM382 400v108q0 12 1 23.5t3 22.5q-10 11 -32.5 23t-53.5 12
q-38 0 -64.5 -26t-26.5 -74v-89h173z" />
    <glyph glyph-name="f_f_i" unicode="ffi" horiz-adv-x="855" 
d="M84 295h-34q-8 0 -13.5 5.5t-5.5 13.5v67q0 19 19 19h34v89q0 43 13.5 80t40 65.5t66 45.5t90.5 20q32 0 57 -6.5t42 -14.5t27 -15.5t12 -9.5q26 28 60.5 42t83.5 14q25 0 49 -5t45 -11.5t37 -14t25 -12.5q7 -4 9 -11.5t-2 -14.5l-36 -67q-9 -14 -26 -5l-11.5 5.5
t-23 9.5t-30 9t-31.5 4q-29 0 -51 -21t-22 -68v-108h268q19 0 19 -19v-362q0 -8 -5.5 -13.5t-13.5 -5.5h-83q-8 0 -13.5 5.5t-5.5 13.5v276h-166v-276q0 -8 -5.5 -13.5t-13.5 -5.5h-87q-8 0 -13.5 5.5t-5.5 13.5v276h-174v-276q0 -8 -5.5 -13.5t-13.5 -5.5h-87
q-8 0 -13.5 5.5t-5.5 13.5v276zM383 400v108q0 25 3 46q-10 11 -32.5 23t-52.5 12q-39 0 -65.5 -26t-26.5 -74v-89h174z" />
    <glyph glyph-name="f_f_l" unicode="ffl" horiz-adv-x="869" 
d="M84 295h-35q-8 0 -13.5 5.5t-5.5 13.5v67q0 19 19 19h35v89q0 53 17 92.5t45.5 66t66.5 39.5t80 13q52 0 86 -15.5t53 -30.5q51 56 150 56q32 0 57.5 -8.5t44.5 -19.5q22 -12 39 -28l11 28q7 18 24 18h32q8 0 13.5 -5.5t5.5 -13.5v-662q0 -8 -5.5 -13.5t-13.5 -5.5h-84
q-8 0 -13.5 5.5t-5.5 13.5v528q-2 3 -9.5 11t-20 16.5t-29.5 15t-37 6.5q-16 0 -31 -5t-27 -15.5t-19 -27.5t-7 -40v-108h84q8 0 13.5 -5.5t5.5 -13.5v-66q0 -8 -5.5 -13.5t-13.5 -5.5h-84v-277q0 -8 -5.5 -13.5t-13.5 -5.5h-87q-8 0 -13.5 5.5t-5.5 13.5v276h-173v-276
q0 -8 -5.5 -13.5t-13.5 -5.5h-87q-8 0 -13.5 5.5t-5.5 13.5v276zM382 400v108q0 12 1 23.5t3 22.5q-10 11 -32.5 23t-53.5 12q-38 0 -64.5 -26t-26.5 -74v-89h173z" />
    <glyph glyph-name="f_f_h" unicode="ffh" horiz-adv-x="1147" 
d="M84 295h-35q-8 0 -13.5 5.5t-5.5 13.5v67q0 19 19 19h35v84q0 52 16 92t44 67.5t66.5 42t82.5 14.5q52 0 86 -15.5t53 -30.5q51 56 150 56q32 0 57.5 -8.5t44.5 -19.5q22 -12 39 -28l11 28q7 18 24 18h32q8 0 13.5 -5.5t5.5 -13.5l1 -304q15 11 43 22t63 11
q48 0 81.5 -17t55.5 -44.5t32 -63.5t10 -74v-192q0 -8 -5.5 -13.5t-13.5 -5.5h-81q-8 0 -13.5 5.5t-5.5 13.5v191q0 42 -21.5 66t-57.5 24q-35 0 -57 -20t-30 -51v-210q0 -19 -21 -19h-83q-8 0 -13.5 5.5t-5.5 13.5v528q-2 3 -9.5 11t-20 16.5t-29.5 15t-37 6.5
q-33 0 -58.5 -21t-25.5 -70v-105h84q8 0 13.5 -5.5t5.5 -13.5v-66q0 -8 -5.5 -13.5t-13.5 -5.5h-84v-277q0 -8 -5.5 -13.5t-13.5 -5.5h-87q-8 0 -13.5 5.5t-5.5 13.5v276h-173v-276q0 -8 -5.5 -13.5t-13.5 -5.5h-87q-8 0 -13.5 5.5t-5.5 13.5v276zM382 400v108q0 12 1 23.5
t3 22.5q-10 11 -32.5 23t-53.5 12q-38 0 -64.5 -26t-26.5 -74v-89h173z" />
    <glyph glyph-name="f_k" unicode="fk" horiz-adv-x="817" 
d="M84 296h-36q-8 0 -13.5 5.5t-5.5 13.5v66q0 19 19 19h36v109q0 49 16 86.5t43 63t62.5 38.5t74.5 13q33 0 59.5 -8.5t45.5 -19.5q22 -12 39 -28l11 28q7 18 24 18h32q8 0 13.5 -5.5t5.5 -13.5v-433l139 140q5 5 11 8.5t14 3.5h91q13 0 17 -10.5t-4 -18.5l-149 -152
l178 -191q8 -8 4 -18t-17 -10h-109q-10 0 -16 8l-159 180v-169q0 -8 -5.5 -13.5t-13.5 -5.5h-84q-8 0 -13.5 5.5t-5.5 13.5v528q-2 3 -9.5 11t-20 16.5t-29.5 15t-37 6.5q-16 0 -31 -5t-27 -15.5t-19 -27.5t-7 -40v-108h84q8 0 13.5 -5.5t5.5 -13.5v-66q0 -8 -5.5 -13.5
t-13.5 -5.5h-84v-277q0 -8 -5.5 -13.5t-13.5 -5.5h-87q-8 0 -13 5.5t-5 13.5v277z" />
    <glyph glyph-name="f_j" unicode="fj" horiz-adv-x="557" 
d="M84 295h-34q-8 0 -13.5 5.5t-5.5 13.5v67q0 19 19 19h34v109q0 46 15 83t41.5 63t62.5 40.5t78 14.5q25 0 48.5 -5t43.5 -11.5t36 -14t25 -12.5q7 -4 8.5 -11.5t-2.5 -14.5l-34 -63q-5 -11 -11.5 -12.5t-15.5 3.5l-11.5 5.5t-23.5 9.5t-30.5 9t-31.5 4q-27 0 -50 -21
t-23 -68v-108h269q8 0 13.5 -5.5t5.5 -13.5v-489q0 -50 -14.5 -87.5t-39.5 -63t-59 -38.5t-74 -13t-72 13.5t-46 25.5q-5 4 -6 11t2 12l34 64q3 6 10 7.5t14 -2.5q10 -6 26 -13t33 -7q34 0 51.5 23.5t17.5 67.5v403h-165v-276q0 -8 -5.5 -13.5t-13.5 -5.5h-87
q-8 0 -13.5 5.5t-5.5 13.5v276z" />
    <glyph glyph-name="f_f_j" unicode="ffj" horiz-adv-x="855" 
d="M84 295h-34q-8 0 -13.5 5.5t-5.5 13.5v67q0 19 19 19h34v84q0 52 16 92t44 67.5t66.5 42t83.5 14.5q32 0 57 -6.5t42 -14.5t27 -15.5t12 -9.5q26 28 60.5 42t83.5 14q25 0 49 -5t44.5 -11.5t37 -14t25.5 -12.5q7 -4 9 -11.5t-2 -14.5l-36 -67q-9 -14 -26 -5l-11.5 5.5
t-23 9.5t-30 9t-31.5 4q-34 0 -53.5 -24.5t-19.5 -76.5v-96h268q19 0 19 -19v-475q0 -25 -3 -47q-9 -84 -60 -126.5t-123 -42.5q-28 0 -52.5 6.5t-42 15.5t-25 20t-2.5 20l33 64q3 6 10 7.5t14 -2.5q10 -6 26 -13t33 -7q34 0 52 23.5t18 67.5v403h-165v-276q0 -8 -5.5 -13.5
t-13.5 -5.5h-87q-8 0 -13.5 5.5t-5.5 13.5v276h-174v-276q0 -8 -5.5 -13.5t-13.5 -5.5h-87q-8 0 -13.5 5.5t-5.5 13.5v276zM383 400v101q0 32 3 53q-10 11 -32.5 23t-52.5 12q-39 0 -65.5 -26t-26.5 -74v-89h174z" />
    <glyph glyph-name="f_b" unicode="fb" horiz-adv-x="828" 
d="M84 296h-36q-8 0 -13.5 5.5t-5.5 13.5v66q0 19 19 19h36v108q0 42 14 79t39.5 64.5t62 43t80.5 15.5q33 0 59.5 -8.5t45.5 -19.5q22 -12 39 -28l11 28q7 18 24 18h32q8 0 13.5 -5.5t5.5 -13.5v-290q14 5 36.5 12t48.5 7q42 0 79 -16.5t64.5 -45t43.5 -66.5t16 -82
q0 -43 -14.5 -81.5t-40.5 -67t-61 -45t-76 -16.5q-32 0 -56 9.5t-41 20.5q-19 13 -34 30l-10 -31q-5 -19 -19 -19h-39q-8 0 -13.5 5.5t-5.5 13.5v528q-2 3 -9.5 11t-20 16.5t-29.5 15t-37 6.5q-16 0 -31 -5t-27 -15.5t-19 -27.5t-7 -40v-108h84q8 0 13.5 -5.5t5.5 -13.5v-66
q0 -8 -5.5 -13.5t-13.5 -5.5h-84v-277q0 -8 -5.5 -13.5t-13.5 -5.5h-87q-8 0 -13 5.5t-5 13.5v277zM507 159q1 -8 7 -18.5t16.5 -20t25 -16t33.5 -6.5q42 0 67.5 30t25.5 72t-27.5 71t-69.5 29q-19 0 -33.5 -3.5t-24.5 -8.5q-11 -5 -20 -11v-118z" />
    <glyph glyph-name="f_f_k" unicode="ffk" horiz-adv-x="1116" 
d="M84 295h-35q-8 0 -13.5 5.5t-5.5 13.5v67q0 19 19 19h35v89q0 53 17 92.5t45.5 66t66.5 39.5t80 13q52 0 86 -15.5t53 -30.5q51 56 148 56q32 0 58.5 -8.5t45.5 -19.5q22 -12 39 -28l13 33q2 5 6.5 9t11.5 4h36q8 0 13.5 -5.5t5.5 -13.5v-433l139 140q5 5 11 8.5t14 3.5
h91q13 0 17 -10.5t-4 -18.5l-149 -152l178 -191q8 -8 4 -18t-17 -10h-109q-10 0 -16 8l-159 180v-169q0 -8 -5.5 -13.5t-13.5 -5.5h-84q-8 0 -13.5 5.5t-5.5 13.5v528q-2 3 -9.5 11t-20 16.5t-29.5 15t-37 6.5q-16 0 -31 -5t-27 -15.5t-19 -27.5t-7 -40v-108h84
q8 0 13.5 -5.5t5.5 -13.5v-66q0 -8 -5.5 -13.5t-13.5 -5.5h-84v-277q0 -8 -5.5 -13.5t-13.5 -5.5h-87q-8 0 -13.5 5.5t-5.5 13.5v276h-173v-276q0 -8 -5.5 -13.5t-13.5 -5.5h-87q-8 0 -13.5 5.5t-5.5 13.5v276zM382 400v108q0 12 1 23.5t3 22.5q-10 11 -32.5 23t-53.5 12
q-38 0 -64.5 -26t-26.5 -74v-89h173z" />
    <glyph glyph-name="f_h" unicode="fh" horiz-adv-x="848" 
d="M84 296h-36q-8 0 -13.5 5.5t-5.5 13.5v66q0 19 19 19h36v108q0 43 14 80t40.5 64t63 42.5t81.5 15.5q32 0 57.5 -8.5t44.5 -19.5q22 -12 39 -28l11 28q7 18 24 18h32q8 0 13.5 -5.5t5.5 -13.5l1 -304q15 11 43 22t63 11q48 0 81.5 -17t55.5 -44.5t32 -63.5t10 -74v-192
q0 -8 -5.5 -13.5t-13.5 -5.5h-81q-8 0 -13.5 5.5t-5.5 13.5v191q0 42 -21.5 66t-57.5 24q-35 0 -57 -20t-30 -51v-210q0 -19 -21 -19h-83q-8 0 -13.5 5.5t-5.5 13.5v528q-2 3 -9.5 11t-20 16.5t-29.5 15t-37 6.5q-16 0 -31 -5t-27 -15.5t-19 -27.5t-7 -40v-108h84
q8 0 13.5 -5.5t5.5 -13.5v-66q0 -8 -5.5 -13.5t-13.5 -5.5h-84v-277q0 -8 -5.5 -13.5t-13.5 -5.5h-87q-8 0 -13 5.5t-5 13.5v277z" />
    <glyph glyph-name="f_f_b" unicode="ffb" horiz-adv-x="1127" 
d="M84 295h-35q-8 0 -13.5 5.5t-5.5 13.5v67q0 19 19 19h35v88q0 46 14.5 85t42 67t66 44t86.5 16q52 0 86 -15.5t53 -30.5q51 56 148 56q32 0 58.5 -8.5t45.5 -19.5q22 -12 39 -28l11 28q7 18 24 18h32q8 0 13.5 -5.5t5.5 -13.5v-290q14 5 36.5 12t48.5 7q42 0 79 -16.5
t64.5 -45t43.5 -66.5t16 -82q0 -43 -14.5 -81.5t-40.5 -67t-61 -45t-76 -16.5q-32 0 -56 9.5t-41 20.5q-19 13 -34 30l-10 -31q-5 -19 -19 -19h-39q-8 0 -13.5 5.5t-5.5 13.5v528q-2 3 -9.5 11t-20 16.5t-29.5 15t-37 6.5q-16 0 -31 -5t-27 -15.5t-19 -27.5t-7 -40v-108h84
q8 0 13.5 -5.5t5.5 -13.5v-66q0 -8 -5.5 -13.5t-13.5 -5.5h-84v-277q0 -8 -5.5 -13.5t-13.5 -5.5h-87q-8 0 -13.5 5.5t-5.5 13.5v276h-173v-276q0 -8 -5.5 -13.5t-13.5 -5.5h-87q-8 0 -13.5 5.5t-5.5 13.5v276zM382 400v108q0 12 1 23.5t3 22.5q-10 11 -32.5 23t-53.5 12
q-38 0 -64.5 -26t-26.5 -74v-89h173zM806 159q1 -8 7 -18.5t16.5 -20t25 -16t33.5 -6.5q42 0 67.5 30t25.5 72t-27.5 71t-69.5 29q-19 0 -33.5 -3.5t-24.5 -8.5q-11 -5 -20 -11v-118z" />
    <glyph glyph-name=".notdef" horiz-adv-x="599" 
d="M50 670q0 30 30 30h439q30 0 30 -30v-640q0 -30 -30 -30h-439q-30 0 -30 30v640zM262 314q0 -5 4.5 -8.5t9.5 -3.5h36q15 0 15 13v26q0 18 16.5 31.5l36 29t36 36t16.5 53.5q0 24 -9.5 44.5t-26.5 35.5t-39.5 23t-49.5 8q-33 0 -57 -10t-41 -21q-19 -13 -32 -30
q-3 -5 -4 -9.5t4 -8.5l22 -22q8 -6 17 0q5 4 12 11t17 14t23.5 11.5t31.5 4.5q30 0 45.5 -16t15.5 -36q0 -24 -15.5 -39t-34 -30t-34 -32.5t-15.5 -45.5v-29zM245 156q0 -20 14 -34t34 -14t34.5 14t14.5 34t-14.5 34t-34.5 14t-34 -14t-14 -34z" />
    <glyph glyph-name=".null" horiz-adv-x="0" 
 />
    <glyph glyph-name=".null" horiz-adv-x="0" 
 />
    <glyph glyph-name="nonmarkingreturn" unicode="&#xd;" horiz-adv-x="0" 
 />
    <glyph glyph-name="space" unicode=" " horiz-adv-x="221" 
 />
    <glyph glyph-name="exclam" unicode="!" horiz-adv-x="310" 
d="M139 272q-7 0 -12.5 5t-6.5 11l-39 279v114q0 8 5.5 13.5t13.5 5.5h110q8 0 13.5 -5.5t5.5 -13.5v-112l-39 -281q-1 -6 -6.5 -11t-12.5 -5h-32zM73 72q0 34 24 58.5t57 24.5q35 0 59 -24.5t24 -58.5t-24 -58t-59 -24q-33 0 -57 24t-24 58z" />
    <glyph glyph-name="quotedbl" unicode="&#x22;" horiz-adv-x="343" 
d="M226 501q-8 0 -13.5 5.5t-5.5 13.5v161q0 8 5.5 13.5t13.5 5.5h80q10 0 15.5 -7t2.5 -18l-41 -159q-2 -6 -7.5 -10.5t-10.5 -4.5h-39zM55 501q-8 0 -13.5 5.5t-5.5 13.5v161q0 8 5.5 13.5t13.5 5.5h80q10 0 15.5 -7t2.5 -18l-41 -159q-2 -6 -7.5 -10.5t-10.5 -4.5h-39z
" />
    <glyph glyph-name="numbersign" unicode="#" horiz-adv-x="538" 
d="M127 188h-71q-8 0 -13.5 5.5t-5.5 13.5v14q0 19 19 19h78l23 164h-72q-8 0 -13.5 5.5t-5.5 13.5v14q0 8 5.5 13.5t13.5 5.5h79l32 228q1 6 6 11t12 5h14q8 0 14 -6.5t4 -15.5l-30 -222h158l33 228q1 6 6.5 11t12.5 5h12q9 0 15 -6.5t4 -15.5l-32 -222h64q8 0 13.5 -5.5
t5.5 -13.5v-14q0 -8 -5.5 -13.5t-13.5 -5.5h-71l-23 -164h65q8 0 13.5 -5.5t5.5 -13.5v-14q0 -8 -5.5 -13.5t-13.5 -5.5h-73l-22 -172q-2 -16 -19 -16h-13q-9 0 -14.5 6.5t-4.5 15.5l22 166h-159l-23 -172q-1 -7 -6.5 -11.5t-12.5 -4.5h-12q-10 0 -15.5 6.5t-3.5 15.5z
M344 240l22 164h-158l-23 -164h159z" />
    <glyph glyph-name="dollar" unicode="$" horiz-adv-x="525" 
d="M46 68q-7 7 -10 13t5 17l15 27t17 27t18.5 17.5t20.5 -2.5q1 -1 12.5 -9t28.5 -17.5t38.5 -19.5t44.5 -16q0 49 0.5 96t0.5 96q-35 14 -70.5 32t-64 43.5t-46.5 61t-18 85.5q0 36 12 68.5t36.5 58t62.5 42.5t89 21v32q0 8 5.5 13.5t13.5 5.5h13q8 0 13.5 -5.5t5.5 -13.5
v-33q33 -3 62 -11.5t51.5 -19t38 -20t22.5 -14.5q8 -5 9.5 -15t-3.5 -18q-8 -11 -16.5 -25.5t-18 -26t-19 -17.5t-18.5 0q-3 1 -13 7.5t-25 15t-33.5 17t-36.5 14.5v-180q33 -14 69 -32.5t66.5 -45.5t50.5 -63.5t20 -85.5q0 -82 -53.5 -136.5t-154.5 -60.5v-104q0 -8 -6 -13
t-14 -5q-9 0 -20 2.5t-11 15.5v104q-41 3 -73 13t-56 22t-39 24zM235 598q-38 -5 -56.5 -23.5t-18.5 -41.5q0 -30 18.5 -53t56.5 -43v161zM289 99q32 5 53.5 25.5t21.5 49.5q0 56 -75 100v-175z" />
    <glyph glyph-name="percent" unicode="%" horiz-adv-x="662" 
d="M157 440q-28 0 -52.5 10.5t-43 29t-29 43t-10.5 52.5t10.5 52.5t29 43t43 29t52.5 10.5t52.5 -10.5t43 -29t29 -43t10.5 -52.5t-10.5 -52.5t-29 -43t-43 -29t-52.5 -10.5zM447 690q5 10 17 10h50q11 0 16.5 -8.5t0.5 -18.5l-345 -663q-2 -3 -6.5 -6.5t-10.5 -3.5h-48
q-11 0 -16.5 8.5t-0.5 18.5zM157 526q20 0 34 14.5t14 34.5t-14 34t-34 14t-34.5 -14t-14.5 -34t14.5 -34.5t34.5 -14.5zM351 125q0 28 10.5 52.5t29 43t43 29t52.5 10.5t53 -10.5t43.5 -29t29 -43t10.5 -52.5t-10.5 -52.5t-29 -43t-43.5 -29t-53 -10.5t-52.5 10.5t-43 29
t-29 43t-10.5 52.5zM437 125q0 -20 14.5 -34.5t34.5 -14.5t34.5 14.5t14.5 34.5t-14.5 34t-34.5 14t-34.5 -14t-14.5 -34z" />
    <glyph glyph-name="ampersand" unicode="&#x26;" horiz-adv-x="689" 
d="M74 178q0 49 19 85.5t43 60.5t46.5 37.5l29.5 17.5v2l-21 23q-30 32 -49.5 65.5t-18.5 78.5q0 28 12 57t35.5 52.5t59 38t82.5 14.5q42 0 77 -13t59.5 -35t38.5 -51.5t14 -63.5q0 -39 -16.5 -69.5t-37.5 -53.5t-41 -37.5t-27 -21.5l115 -116q12 24 21.5 53t14.5 58
q3 16 9.5 23t23.5 2l55 -16q10 -3 14 -8t5 -10.5t0 -11t-2 -9.5q-13 -54 -32.5 -97.5t-29.5 -61.5l89 -84q9 -9 12.5 -19t-14.5 -27l-41 -42q-9 -8 -20.5 -8.5t-23.5 11.5l-72 73q-7 -8 -23.5 -22t-43.5 -28t-64.5 -24.5t-86.5 -10.5q-48 0 -86.5 15t-66.5 40.5t-43 60
t-15 72.5zM308 436q6 3 20 11.5t28.5 21.5t25.5 31t11 41q0 29 -23 52t-62 23q-35 0 -54.5 -20t-19.5 -48q-1 -26 14 -46t38 -44zM193 191q0 -42 30 -68t75 -26q28 0 49.5 7t37.5 16.5t26 19.5l16 16l-149 158q-6 -4 -20 -12.5t-28.5 -23t-25.5 -36t-11 -51.5z" />
    <glyph glyph-name="quotesingle" unicode="'" horiz-adv-x="172" 
d="M55 501q-8 0 -13.5 5.5t-5.5 13.5v161q0 8 5.5 13.5t13.5 5.5h80q10 0 15.5 -7t2.5 -18l-41 -159q-2 -6 -7.5 -10.5t-10.5 -4.5h-39v0z" />
    <glyph glyph-name="parenleft" unicode="(" horiz-adv-x="342" 
d="M291 -79q-43 3 -87 21t-80 61.5t-58.5 118.5t-22.5 193t22.5 193.5t58.5 119t80 61.5t87 20q8 1 13.5 -3.5t5.5 -11.5l3 -66q1 -6 -3 -11.5t-9 -6.5q-74 -20 -104.5 -95t-30.5 -200q0 -126 30.5 -200t104.5 -94q7 -2 10 -7.5t2 -11.5l-3 -65q-2 -16 -19 -16z" />
    <glyph glyph-name="parenright" unicode=")" horiz-adv-x="343" 
d="M29 2q-1 6 2 11.5t10 7.5q74 20 104.5 94t30.5 200q0 125 -30.5 200t-104.5 95q-5 1 -9 6.5t-3 11.5l3 66q0 7 5.5 11.5t13.5 3.5q43 -2 87 -20t80 -61.5t58.5 -119t22.5 -193.5t-22.5 -193t-58.5 -118.5t-80 -61.5t-87 -21q-17 0 -19 16l-3 65v0z" />
    <glyph glyph-name="asterisk" unicode="*" horiz-adv-x="350" 
d="M159 370q-8 0 -13.5 5.5t-5.5 13.5l2 87l-72 -50q-6 -5 -14 -3t-12 8l-17 27q-5 7 -3.5 14.5t8.5 12.5l83 50l-83 50q-7 5 -8.5 12.5t2.5 14.5q6 8 10 14l9 13q4 5 11.5 7t13.5 -3l72 -50l-2 88q0 8 5.5 13.5t13.5 5.5h32q8 0 13.5 -5.5t5.5 -13.5l-2 -88l72 51
q6 4 14 2.5t12 -7.5l17 -27q5 -7 4 -14.5t-9 -12.5l-83 -50l83 -51q8 -5 9 -12.5t-3 -13.5l-19 -27q-4 -7 -11.5 -8.5t-13.5 2.5l-72 50l2 -86q0 -8 -5.5 -13.5t-13.5 -5.5h-32v0z" />
    <glyph glyph-name="plus" unicode="+" horiz-adv-x="560" 
d="M233 299h-150q-8 0 -13.5 5.5t-5.5 13.5v56q0 8 5.5 13.5t13.5 5.5h150v151q0 8 5.5 13t13.5 5h56q8 0 13.5 -5t5.5 -13v-151h151q8 0 13 -5.5t5 -13.5v-56q0 -8 -5 -13.5t-13 -5.5h-151v-149q0 -8 -5.5 -13t-13.5 -5h-56q-8 0 -13.5 5t-5.5 13v149z" />
    <glyph glyph-name="comma" unicode="," horiz-adv-x="259" 
d="M36 71q0 34 25 58.5t63 24.5q16 0 34 -6.5t33 -22t24.5 -40.5t9.5 -62q0 -46 -12.5 -82.5t-30.5 -63t-37.5 -44t-33.5 -26.5q-7 -5 -12.5 -5t-12.5 7l-15 16q-12 14 4 27q4 4 17 15.5t27 30t25 43.5t11 57q-1 0 -11.5 -4t-26.5 -4q-33 0 -57 24t-24 57z" />
    <glyph glyph-name="hyphen" unicode="-" horiz-adv-x="369" 
d="M73 192q-8 0 -13.5 5t-5.5 13v67q0 19 19 19h223q19 0 19 -19v-67q0 -8 -5.5 -13t-13.5 -5h-223v0z" />
    <glyph glyph-name="period" unicode="." horiz-adv-x="235" 
d="M35 72q0 34 24 58.5t58 24.5t58.5 -24.5t24.5 -58.5t-24.5 -58t-58.5 -24t-58 24t-24 58z" />
    <glyph glyph-name="slash" unicode="/" horiz-adv-x="353" 
d="M225 687q4 13 18 13h72q11 0 16 -7t2 -18l-195 -662q-2 -5 -7.5 -9t-10.5 -4h-73q-10 0 -15.5 7t-2.5 18z" />
    <glyph glyph-name="zero" unicode="0" horiz-adv-x="626" 
d="M313 -10q-60 0 -107 24t-79 69t-49 110t-17 147t17 147t49 110t79 69t107 24t107 -24t79 -69t49 -110t17 -147t-17 -147t-49 -110t-79 -69t-107 -24zM313 108q58 0 89.5 60t31.5 172t-31.5 172t-89.5 60t-89.5 -60t-31.5 -172t31.5 -172t89.5 -60z" />
    <glyph glyph-name="one" unicode="1" horiz-adv-x="357" 
d="M141 498l-88 -19q-7 -2 -13 2t-7 11l-6 49q-1 12 5 18l144 121h70q8 0 13 -5.5t5 -13.5v-642q0 -8 -5 -13.5t-13 -5.5h-86q-8 0 -13.5 5.5t-5.5 13.5v479z" />
    <glyph glyph-name="two" unicode="2" horiz-adv-x="518" 
d="M31 42l59 73.5l70 90l70.5 91.5l59.5 78q23 29 37 57t14 54q0 17 -6.5 33.5t-19.5 29t-33 20.5t-47 8q-18 0 -34.5 -5.5t-31 -14.5t-26 -19.5t-20.5 -19.5q-6 -6 -13.5 -6t-13.5 6l-48 48q-5 5 -5.5 12.5t4.5 13.5q24 27 54 49q26 18 62 33.5t81 15.5q54 0 95.5 -16
t70 -43t43 -63.5t14.5 -76.5q0 -24 -5 -44.5t-14 -39.5t-21 -38t-27 -40q-16 -23 -37.5 -51l-45 -57.5l-46.5 -59l-43 -54.5h216q8 0 13.5 -5.5t5.5 -13.5v-69q0 -8 -5.5 -13.5t-13.5 -5.5h-394q-8 0 -13.5 5.5t-5.5 13.5v23z" />
    <glyph glyph-name="three" unicode="3" horiz-adv-x="522" 
d="M36 79q-5 5 -4.5 12.5t5.5 12.5l51 49q14 12 26 0q1 -2 12 -10.5t28 -18t38.5 -17.5t44.5 -8q20 0 39 7t34 19.5t24 29.5t9 38q0 39 -35 69t-103 30h-56q-19 0 -19 20v63q0 20 19 20h56q62 0 93 27t31 65q0 21 -8 38t-21.5 29t-31 18.5t-36.5 6.5q-39 0 -63.5 -16.5
t-37.5 -31.5q-12 -14 -27 -1l-49 46q-6 5 -5.5 13t5.5 13q23 25 52 44q25 17 59.5 30.5t76.5 13.5q43 0 82 -13t68 -36.5t46 -57.5t17 -76q0 -29 -10 -54t-25 -45t-33 -34.5t-35 -22.5v-3q18 -8 39 -21.5t39 -34t30.5 -47.5t12.5 -60q0 -42 -16.5 -78t-46.5 -62t-72.5 -40.5
t-94.5 -14.5q-47 0 -82 10t-60.5 24.5t-41.5 29.5t-24 25z" />
    <glyph glyph-name="four" unicode="4" horiz-adv-x="597" 
d="M35 145q-8 0 -13.5 5.5t-5.5 13.5v83l360 438q6 6 15 6h54q8 0 13.5 -5.5t5.5 -13.5v-426h80q8 0 13.5 -5t5.5 -13v-62q0 -8 -5.5 -13.5t-13.5 -5.5h-80l1 -128q0 -8 -5.5 -13.5t-13.5 -5.5h-83q-8 0 -13.5 5.5t-5.5 13.5v126h-309zM348 249v240l-200 -240h200z" />
    <glyph glyph-name="five" unicode="5" horiz-adv-x="528" 
d="M57 73q-10 11 -10.5 18t8.5 16l50 49q5 5 11.5 5.5t12.5 -4.5q1 -2 12 -10.5t28.5 -19t40.5 -18.5t48 -8t46.5 9.5t37 26t24 37.5t8.5 45q0 47 -30.5 79.5t-90.5 32.5h-154q-15 0 -23 11.5t-8 23.5v295q0 8 5.5 13.5t13.5 5.5h316q8 0 13.5 -5.5t5.5 -13.5v-68
q0 -8 -5.5 -13.5t-13.5 -5.5h-222v-133h86q53 0 95.5 -16.5t72 -45.5t45.5 -70t16 -90q0 -47 -18.5 -88.5t-51 -73t-76.5 -49.5t-96 -18q-40 0 -72.5 8.5t-57 21.5t-41.5 27.5t-26 25.5z" />
    <glyph glyph-name="six" unicode="6" horiz-adv-x="539" 
d="M43 266q0 73 18.5 131.5t48.5 105t67 80.5t74 58.5t70 39t55 21.5q22 6 28 -14l23 -59q4 -9 0 -16.5t-18 -12.5q-18 -6 -50 -21t-66 -39.5t-63 -57.5t-41 -74q6 4 18 8.5t27.5 9t33 7.5t35.5 3q37 0 74 -14t65.5 -41t46.5 -67.5t18 -94.5q0 -47 -18 -89t-49 -73t-72 -49
t-87 -18q-59 0 -103.5 22t-74.5 59.5t-45 88t-15 106.5zM280 104q24 0 44.5 9.5t36 25.5t24.5 37t9 45t-9 45.5t-24.5 37t-36.5 25t-45 9.5q-25 0 -44.5 -8.5t-34 -21.5t-24 -28.5t-13.5 -28.5q0 -26 7 -52t21 -47t36.5 -34.5t52.5 -13.5z" />
    <glyph glyph-name="seven" unicode="7" horiz-adv-x="484" 
d="M53 30l260 542h-264q-8 0 -13.5 5.5t-5.5 13.5v70q0 8 5.5 13.5t13.5 5.5h416q8 0 13.5 -5.5t5.5 -13.5v-7l-298 -627q-5 -12 -13 -19.5t-21 -7.5h-74q-9 0 -17 3.5t-8 15.5v11z" />
    <glyph glyph-name="eight" unicode="8" horiz-adv-x="567" 
d="M47 182q0 33 15 61t35 50t40 36.5t31 19.5v3q-15 8 -33 22.5t-33.5 34t-26 44.5t-10.5 54q0 42 17 75.5t46 57.5t69 37t85 13q47 0 87.5 -13t70 -37t46.5 -57.5t17 -75.5q0 -29 -10.5 -53t-26 -43.5t-33.5 -34t-33 -23.5v-4q17 -9 38 -24t39.5 -36t31 -48t12.5 -59
q0 -41 -16.5 -76t-47.5 -61t-75.5 -40.5t-99.5 -14.5q-54 0 -97 14.5t-74 40.5t-47.5 61t-16.5 76zM284 407q47 11 69 37t22 58q0 36 -27 60.5t-66 24.5q-36 0 -62.5 -24.5t-26.5 -60.5q0 -34 21.5 -59t69.5 -36zM180 184q0 -21 8.5 -38t23 -29t33.5 -18.5t39 -6.5
q21 0 39.5 6.5t33 18.5t23 29t8.5 38q0 34 -26.5 64.5t-77.5 41.5q-51 -11 -77.5 -41.5t-26.5 -64.5z" />
    <glyph glyph-name="nine" unicode="9" horiz-adv-x="539" 
d="M112 57q-4 9 0 16.5t18 12.5q18 6 50 21t66 39.5t63 57.5t41 74q-6 -4 -18 -8.5t-27.5 -9t-33 -7.5t-35.5 -3q-38 0 -74.5 14t-65 41t-46.5 67.5t-18 94.5q0 47 18 89t49 73t72 49t87 18q59 0 103.5 -22t74.5 -59.5t45 -88t15 -106.5q0 -73 -18.5 -131.5t-48.5 -105
t-67 -80.5t-74 -58.5t-70.5 -39t-54.5 -21.5q-22 -6 -28 14zM260 348q25 0 44.5 8.5t34 21.5t24 28t13.5 29q0 25 -7 51.5t-21 47.5t-36.5 34.5t-52.5 13.5q-24 0 -44.5 -9.5t-36 -25.5t-24.5 -37t-9 -45t9 -45.5t24.5 -37t36.5 -25t45 -9.5z" />
    <glyph glyph-name="colon" unicode=":" horiz-adv-x="268" 
d="M134 266q-30 0 -51 21t-21 51t21 51t51 21t51 -21t21 -51t-21 -51t-51 -21zM62 62q0 30 21 51t51 21t51 -21t21 -51t-21 -51t-51 -21t-51 21t-21 51z" />
    <glyph glyph-name="semicolon" unicode=";" horiz-adv-x="247" 
d="M119 266q-30 0 -51 21t-21 51t21 51t51 21t51 -21t21 -51t-21 -51t-51 -21zM51 57q0 27 20 47t51 20q13 0 28 -5.5t27 -18t20 -33t8 -51.5q0 -36 -10.5 -66t-25 -52.5t-29.5 -38t-25 -24.5q-6 -5 -11.5 -5t-11.5 6l-14 15q-5 5 -4 11t6 11q4 3 15 12.5t23 25t21 37
t9 47.5q-1 0 -9.5 -2.5t-20.5 -2.5q-28 0 -47.5 19.5t-19.5 47.5z" />
    <glyph glyph-name="less" unicode="&#x3c;" horiz-adv-x="436" 
d="M29 210q-4 2 -7 7t-3 10v5q0 5 3 10t7 7l347 212q10 6 19 1t9 -17v-70q0 -7 -3 -10.5t-6 -5.5l-215 -128l215 -124q3 -2 6 -5.5t3 -10.5v-70q0 -12 -9 -17t-19 1l-347 205v0z" />
    <glyph glyph-name="equal" unicode="=" horiz-adv-x="488" 
d="M81 338q-8 0 -13.5 5.5t-5.5 13.5v56q0 8 5.5 13.5t13.5 5.5h326q8 0 13.5 -5.5t5.5 -13.5v-56q0 -8 -5.5 -13.5t-13.5 -5.5h-326zM81 127q-8 0 -13.5 5.5t-5.5 13.5v57q0 8 5.5 13.5t13.5 5.5h326q8 0 13.5 -5.5t5.5 -13.5v-57q0 -8 -5.5 -13.5t-13.5 -5.5h-326z" />
    <glyph glyph-name="greater" unicode="&#x3e;" horiz-adv-x="436" 
d="M32 91q0 11 9 16l214 124l-214 128q-9 5 -9 16v70q0 12 9 17t19 -1l347 -212q4 -2 7 -7t3 -10v-5q0 -5 -3 -10t-7 -7l-347 -205q-10 -6 -19 -1t-9 17v70z" />
    <glyph glyph-name="question" unicode="?" horiz-adv-x="449" 
d="M165 272q-8 0 -13.5 5.5t-5.5 13.5v42q0 36 21.5 62t48 48t48 43.5t21.5 47.5q0 27 -21 47t-59 20q-23 0 -40 -6.5t-29.5 -15t-22 -17t-16.5 -13.5q-12 -8 -22 1l-47 46q-6 5 -5.5 13t5.5 13q21 25 50 44q25 17 61.5 30.5t84.5 13.5q39 0 74.5 -12.5t62 -35t42 -53
t15.5 -67.5q0 -30 -11.5 -53.5t-28 -42.5t-36.5 -34.5l-36.5 -29.5t-28 -27.5t-11.5 -28.5v-33q0 -9 -5 -15t-15 -6h-81zM123 72q0 34 24 58.5t58 24.5t58.5 -24.5t24.5 -58.5t-24.5 -58t-58.5 -24t-58 24t-24 58z" />
    <glyph glyph-name="at" unicode="@" horiz-adv-x="986" 
d="M32 223q0 106 34.5 195.5t97 154.5t150 101t194.5 36q104 0 185 -32t137 -88.5t85 -134t29 -167.5q0 -50 -12 -102.5t-38.5 -96t-70 -71.5t-106.5 -28q-52 0 -79.5 23t-39.5 55h-8q-16 -32 -49 -55t-81 -23q-39 0 -72.5 17t-57.5 45.5t-37.5 67t-13.5 81.5
q0 45 13.5 83.5t38 66t58.5 43.5t74 16q24 0 43.5 -7t35 -16.5t26 -19.5l16.5 -16l7 21.5t7 15.5t11.5 9t21.5 3h17q8 0 13.5 -5.5t5.5 -13.5v-183q0 -34 5 -54.5t13.5 -32t20 -15.5t23.5 -4q24 0 43.5 15.5t32.5 42t20 61t7 72.5q0 69 -20.5 128t-61.5 102.5t-102.5 68.5
t-143.5 25q-83 0 -150 -26.5t-114.5 -76.5t-73 -121t-25.5 -160q0 -61 18 -115.5t50 -99.5t76 -80t97 -57q17 -8 11 -24l-24 -63q-7 -17 -22 -11q-68 25 -125.5 68.5t-99.5 102t-66 129.5t-24 150zM383 208q-2 -24 5 -44.5t19 -35t28.5 -23t34.5 -8.5q24 0 40 9.5t25.5 24.5
t14 34.5t5.5 40.5v37q-2 9 -9 20.5t-18 21.5t-26 17t-33 7q-36 0 -60 -28t-26 -73z" />
    <glyph glyph-name="A" unicode="A" 
d="M17 0q-11 0 -16.5 8t-0.5 18l311 673q5 11 17 11h10q8 0 11.5 -3t5.5 -8l308 -673q5 -10 -0.5 -18t-16.5 -8h-87q-11 0 -17.5 4.5t-11.5 15.5l-49 108h-299l-49 -108q-3 -8 -10 -14t-19 -6h-87zM432 239l-100 220h-3l-98 -220h201z" />
    <glyph glyph-name="B" unicode="B" horiz-adv-x="617" 
d="M91 681q0 8 5.5 13.5t13.5 5.5h229q45 0 83.5 -14t67 -39t44.5 -59t16 -73q0 -29 -10.5 -54.5t-27 -46t-35.5 -35.5t-37 -23q20 -6 42.5 -19.5t42 -34t32.5 -48t13 -61.5q0 -42 -17 -77.5t-46.5 -61t-69 -40t-85.5 -14.5h-242q-8 0 -13.5 5.5t-5.5 13.5v662zM327 406
q38 0 62 26t24 64t-24 61.5t-62 23.5h-107v-175h107zM341 118q38 0 64 26t26 65q0 19 -8.5 35t-23 27.5t-33 18t-37.5 6.5h-109v-178h121z" />
    <glyph glyph-name="C" unicode="C" horiz-adv-x="684" 
d="M40 349q0 75 28.5 141t77 114.5t114.5 77t141 28.5q76 0 133.5 -23.5t108.5 -69.5q15 -14 1 -28l-61 -63q-12 -13 -25 0q-32 28 -72 43.5t-82 15.5q-48 0 -89 -18.5t-70.5 -50.5t-46.5 -74.5t-17 -89.5t17 -89t47 -73.5t71 -50t89 -18.5q45 0 83 15.5t70 41.5q6 5 13 5
t12 -5l62 -64q6 -5 5 -13.5t-6 -13.5q-51 -50 -113.5 -73.5t-129.5 -23.5q-75 0 -141 28t-114.5 76.5t-77 114t-28.5 140.5z" />
    <glyph glyph-name="D" unicode="D" horiz-adv-x="738" 
d="M91 681q0 8 5 13.5t13 5.5h237q72 0 136 -27.5t112 -75t75.5 -111t27.5 -135.5q0 -73 -27.5 -137t-75.5 -111.5t-112 -75t-136 -27.5h-237q-8 0 -13 5.5t-5 13.5v662zM334 122q49 0 90 17.5t71 48t47 72.5t17 91t-17 90.5t-47 72t-71 48t-90 17.5h-114v-457h114z" />
    <glyph glyph-name="E" unicode="E" horiz-adv-x="588" 
d="M91 681q0 8 5.5 13.5t13.5 5.5h407q8 0 13.5 -5.5t5.5 -13.5v-82q0 -8 -5.5 -13.5t-13.5 -5.5h-296v-164h247q8 0 13.5 -5.5t5.5 -13.5v-83q0 -8 -5.5 -13.5t-13.5 -5.5h-247v-175h296q8 0 13.5 -5.5t5.5 -13.5v-82q0 -8 -5.5 -13.5t-13.5 -5.5h-407q-8 0 -13.5 5.5
t-5.5 13.5v662z" />
    <glyph glyph-name="F" unicode="F" horiz-adv-x="564" 
d="M91 681q0 8 5.5 13.5t13.5 5.5h407q8 0 13.5 -5.5t5.5 -13.5v-82q0 -8 -5.5 -13.5t-13.5 -5.5h-296v-188h247q8 0 13.5 -5.5t5.5 -13.5v-82q0 -8 -5.5 -13.5t-13.5 -5.5h-247v-253q0 -8 -5.5 -13.5t-13.5 -5.5h-92q-8 0 -13.5 5.5t-5.5 13.5v662z" />
    <glyph glyph-name="G" unicode="G" horiz-adv-x="712" 
d="M41 349q0 75 28 141t77 114.5t114 77t140 28.5q68 0 130.5 -24.5t113.5 -68.5q6 -6 6.5 -14t-5.5 -14l-62 -65q-12 -12 -26 0q-66 58 -151 58q-47 0 -88 -18.5t-71 -50.5t-47.5 -74t-17.5 -89t17.5 -88.5t48 -72.5t71.5 -49.5t88 -18.5q42 0 73 9.5t46 15.5v85h-80
q-8 0 -13.5 5t-5.5 13v79q0 19 19 19h192q8 0 13 -5.5t5 -13.5v-256q0 -10 -8 -16q-31 -19 -70 -33q-33 -12 -78.5 -22t-99.5 -10q-75 0 -140 28t-114 76t-77 113.5t-28 140.5z" />
    <glyph glyph-name="H" unicode="H" horiz-adv-x="769" 
d="M91 681q0 8 5.5 13.5t13.5 5.5h93q8 0 13.5 -5.5t5.5 -13.5v-265h326v265q0 8 5.5 13.5t13.5 5.5h92q8 0 13.5 -5.5t5.5 -13.5v-662q0 -8 -5.5 -13.5t-13.5 -5.5h-92q-8 0 -13.5 5.5t-5.5 13.5v276h-326v-276q0 -8 -5.5 -13.5t-13.5 -5.5h-93q-8 0 -13.5 5.5t-5.5 13.5
v662z" />
    <glyph glyph-name="I" unicode="I" horiz-adv-x="313" 
d="M91 681q0 8 5.5 13.5t13.5 5.5h93q8 0 13.5 -5.5t5.5 -13.5v-662q0 -8 -5.5 -13.5t-13.5 -5.5h-93q-8 0 -13.5 5.5t-5.5 13.5v662z" />
    <glyph glyph-name="J" unicode="J" horiz-adv-x="418" 
d="M-16 63q-8 13 2 25l52 53q15 14 30 -1q10 -11 25.5 -21.5t40.5 -10.5q15 0 29 6t25.5 18.5t18.5 31.5t7 45v472q0 8 5.5 13.5t13.5 5.5h94q8 0 13.5 -5.5t5.5 -13.5v-472q0 -52 -16.5 -93t-45 -69t-66.5 -42.5t-82 -14.5q-33 0 -58.5 8.5t-44 20t-31 24t-18.5 20.5z" />
    <glyph glyph-name="K" unicode="K" horiz-adv-x="655" 
d="M91 676q0 10 6.5 17t17.5 7h88q10 0 17 -7t7 -17v-270l252 284q3 4 7.5 7t11.5 3h100q14 0 20 -12.5t-4 -23.5l-261 -294l280 -335q8 -10 2.5 -22.5t-20.5 -12.5h-109q-8 0 -12 2.5t-6 4.5l-261 322v-305q0 -10 -7 -17t-17 -7h-88q-11 0 -17.5 7t-6.5 17v652z" />
    <glyph glyph-name="L" unicode="L" horiz-adv-x="505" 
d="M91 681q0 8 5.5 13.5t13.5 5.5h92q8 0 13.5 -5.5t5.5 -13.5v-561h255q8 0 13.5 -5.5t5.5 -13.5v-82q0 -8 -5.5 -13.5t-13.5 -5.5h-366q-8 0 -13.5 5.5t-5.5 13.5v662z" />
    <glyph glyph-name="M" unicode="M" horiz-adv-x="873" 
d="M164 695q1 6 5.5 10.5t12.5 4.5h16q12 0 17 -10l220 -472h3l220 472q5 10 17 10h16q8 0 12.5 -4.5t5.5 -10.5l118 -672q2 -11 -3 -17t-15 -6h-91q-7 0 -12 5t-7 10l-59 379h-3l-175 -393q-4 -11 -17 -11h-18q-12 0 -17 11l-177 393h-3l-58 -379q-1 -5 -6 -10t-12 -5h-90
q-22 0 -19 23z" />
    <glyph glyph-name="N" unicode="N" horiz-adv-x="773" 
d="M91 692q0 8 5.5 13t13.5 5h25l416 -442h1v413q0 8 5.5 13.5t13.5 5.5h92q8 0 13.5 -5.5t5.5 -13.5v-673q0 -8 -5.5 -13t-13.5 -5h-24l-418 459h-1v-430q0 -8 -5.5 -13.5t-13.5 -5.5h-91q-8 0 -13.5 5.5t-5.5 13.5v673z" />
    <glyph glyph-name="O" unicode="O" horiz-adv-x="800" 
d="M41 349q0 75 28 141t76.5 114.5t114 77t140.5 28.5t140.5 -28.5t114.5 -77t77 -114.5t28 -141t-28 -140.5t-77 -114t-114.5 -76.5t-140.5 -28t-140.5 28t-114 76.5t-76.5 114t-28 140.5zM171 349q0 -47 18 -89t49 -73t73 -49t89 -18t89 18t73.5 49t49.5 73t18 89t-18 89
t-49.5 73.5t-73.5 50t-89 18.5t-89 -18.5t-73 -50t-49 -73.5t-18 -89z" />
    <glyph glyph-name="P" unicode="P" horiz-adv-x="592" 
d="M91 681q0 8 5.5 13.5t13.5 5.5h235q46 0 87 -17.5t71.5 -47.5t48 -70.5t17.5 -85.5q0 -47 -17.5 -87.5t-48 -71.5t-71 -48.5t-86.5 -17.5h-125v-235q0 -8 -5.5 -13.5t-13.5 -5.5h-92q-8 0 -13.5 5.5t-5.5 13.5v662zM337 376q21 0 39.5 8t33 22t22.5 33t8 41q0 21 -8 38.5
t-22.5 30.5t-33 20.5t-39.5 7.5h-116v-201h116z" />
    <glyph glyph-name="Q" unicode="Q" horiz-adv-x="801" 
d="M41 349q0 75 28 141t76.5 114.5t114 77t140.5 28.5t140.5 -28.5t114.5 -77t77 -114.5t28 -141q0 -51 -14 -98.5t-40 -88.5t-62 -75t-79 -58l125 -197q7 -11 1.5 -20.5t-17.5 -9.5h-106q-3 0 -8.5 2.5t-7.5 7.5l-107 181q-12 -2 -24 -2.5t-21 -0.5q-75 0 -140.5 28
t-114 76.5t-76.5 114t-28 140.5zM171 349q0 -47 18 -89t49 -73t73 -49t89 -18t89 18t73.5 49t49.5 73t18 89t-18 89t-49.5 73.5t-73.5 50t-89 18.5t-89 -18.5t-73 -50t-49 -73.5t-18 -89z" />
    <glyph glyph-name="R" unicode="R" horiz-adv-x="666" 
d="M91 681q0 8 5.5 13.5t13.5 5.5h286q45 0 84.5 -17t69.5 -46t47 -68t17 -84q0 -35 -11 -65.5t-30.5 -56.5t-46.5 -46.5t-60 -33.5l137 -254q5 -10 0.5 -19.5t-17.5 -9.5h-105q-7 0 -10.5 3t-5.5 6l-133 265h-111v-255q0 -8 -5.5 -13.5t-13.5 -5.5h-92q-8 0 -13.5 5.5
t-5.5 13.5v662zM385 381q20 0 38 8t31.5 22t21.5 32.5t8 39.5q0 20 -8 37.5t-21.5 31t-31.5 21t-38 7.5h-163v-199h163z" />
    <glyph glyph-name="S" unicode="S" horiz-adv-x="542" 
d="M55 68q-7 7 -9.5 12.5t4.5 17.5l36 62q6 11 16.5 11.5t17.5 -4.5q2 -1 16.5 -11t36.5 -21t48 -20.5t50 -9.5q39 0 65 22.5t26 54.5q0 38 -32 66t-95 54q-35 14 -69 33t-60.5 45t-42.5 60t-16 78q0 33 13 67.5t40 62t69.5 45t102.5 17.5q38 0 71.5 -8.5t59.5 -19.5
t43.5 -22t25.5 -17q8 -5 9.5 -15t-3.5 -18l-38 -57q-6 -9 -16 -13.5t-19 1.5q-3 2 -17.5 11t-34.5 18.5t-43 17.5t-44 8q-43 0 -65.5 -23t-22.5 -47q0 -35 28.5 -61t89.5 -51q36 -15 73.5 -34t67.5 -45.5t49 -62.5t19 -84q0 -39 -16 -74.5t-46 -63t-72.5 -44t-95.5 -16.5
q-47 0 -84.5 9.5t-65 22.5t-45.5 26t-25 20z" />
    <glyph glyph-name="T" unicode="T" horiz-adv-x="501" 
d="M185 580h-153q-8 0 -13.5 5.5t-5.5 13.5v82q0 8 5.5 13.5t13.5 5.5h437q8 0 13.5 -5.5t5.5 -13.5v-82q0 -8 -5.5 -13.5t-13.5 -5.5h-153v-561q0 -8 -5.5 -13.5t-13.5 -5.5h-93q-8 0 -13.5 5.5t-5.5 13.5v561z" />
    <glyph glyph-name="U" unicode="U" horiz-adv-x="719" 
d="M81 681q0 8 5.5 13.5t13.5 5.5h95q8 0 13.5 -5.5t5.5 -13.5v-409q0 -32 10.5 -59.5t29.5 -48t45.5 -32.5t59.5 -12t59.5 12t46 32t30 47.5t10.5 59.5v410q0 8 5.5 13.5t13.5 5.5h95q8 0 13.5 -5.5t5.5 -13.5v-416q0 -57 -21.5 -107t-59 -87.5t-88.5 -59t-110 -21.5
t-109.5 21.5t-88 59t-59 87.5t-21.5 107v416z" />
    <glyph glyph-name="V" unicode="V" 
d="M0 674q-5 10 0.5 18t16.5 8h102q7 0 11 -3.5t6 -7.5l192 -430h7l192 430q2 4 6 7.5t11 3.5h102q11 0 16.5 -8t0.5 -18l-310 -673q-6 -11 -17 -11h-10q-12 0 -17 11z" />
    <glyph glyph-name="W" unicode="W" horiz-adv-x="899" 
d="M29 676q-3 11 2 17.5t16 6.5h92q6 0 11 -4.5t7 -9.5l104 -399h4l159 412q4 11 17 11h18q13 0 17 -11l160 -412h4l102 399q2 5 7 9.5t11 4.5h92q11 0 16 -6.5t2 -17.5l-189 -672q-4 -14 -18 -14h-16q-13 0 -17 11l-179 453h-5l-177 -453q-2 -5 -5.5 -8t-11.5 -3h-16
q-6 0 -11 4t-7 10z" />
    <glyph glyph-name="X" unicode="X" horiz-adv-x="632" 
d="M238 359l-200 313q-6 10 -1 19t18 9h116q6 0 10 -3t6 -6l128 -212h1l130 212q2 3 6 6t10 3h116q13 0 18 -9t-1 -19l-201 -313l208 -331q6 -11 1 -19.5t-18 -8.5h-108q-6 0 -10.5 3t-6.5 6l-143 229h-3l-141 -229q-2 -3 -6.5 -6t-10.5 -3h-108q-14 0 -19 9t1 19z" />
    <glyph glyph-name="Y" unicode="Y" horiz-adv-x="583" 
d="M225 337l-228 334q-6 10 -1 19.5t17 9.5h102q6 0 10 -3t6 -6l160 -230l160 230q2 3 6 6t10 3h103q12 0 17 -9.5t-1 -19.5l-231 -333v-319q0 -8 -5.5 -13.5t-13.5 -5.5h-92q-8 0 -13.5 5.5t-5.5 13.5v318z" />
    <glyph glyph-name="Z" unicode="Z" horiz-adv-x="538" 
d="M25 37l298 538v4h-250q-8 0 -13.5 5.5t-5.5 13.5v83q0 8 5.5 13.5t13.5 5.5h418q8 0 13.5 -5.5t5.5 -13.5v-13l-294 -545v-2h255q8 0 13.5 -5.5t5.5 -13.5v-83q0 -8 -5.5 -13.5t-13.5 -5.5h-427q-8 0 -13.5 5.5t-5.5 13.5v18z" />
    <glyph glyph-name="bracketleft" unicode="[" horiz-adv-x="349" 
d="M311 -200q8 0 13.5 -5t5.5 -13v-63q0 -8 -5.5 -13.5t-13.5 -5.5h-226q-8 0 -13.5 5.5t-5.5 13.5v962q0 8 5.5 13.5t13.5 5.5h226q8 0 13.5 -5.5t5.5 -13.5v-62q0 -8 -5.5 -13.5t-13.5 -5.5h-130v-800h130z" />
    <glyph glyph-name="backslash" unicode="\" horiz-adv-x="357" 
d="M20 675q-3 11 2 18t16 7h76q14 0 18 -13l196 -662q3 -11 -2.5 -18t-15.5 -7h-77q-5 0 -10.5 4t-7.5 9z" />
    <glyph glyph-name="bracketright" unicode="]" horiz-adv-x="349" 
d="M168 -200v800h-130q-8 0 -13.5 5.5t-5.5 13.5v62q0 8 5.5 13.5t13.5 5.5h226q8 0 13.5 -5.5t5.5 -13.5v-962q0 -8 -5.5 -13.5t-13.5 -5.5h-226q-8 0 -13.5 5.5t-5.5 13.5v63q0 8 5.5 13t13.5 5h130z" />
    <glyph glyph-name="asciicircum" unicode="^" horiz-adv-x="524" 
d="M53 385q-12 0 -17 9t1 19l208 291q2 4 6.5 7t10.5 3h5q6 0 10.5 -3t6.5 -7l203 -291q6 -10 1 -19t-17 -9h-69q-5 0 -9.5 3t-6.5 6l-123 169l-125 -169q-2 -3 -6.5 -6t-9.5 -3h-69v0z" />
    <glyph glyph-name="underscore" unicode="_" horiz-adv-x="415" 
d="M19 -29q0 19 19 19h339q19 0 19 -19v-39q0 -8 -5.5 -13t-13.5 -5h-339q-8 0 -13.5 5t-5.5 13v39v0z" />
    <glyph glyph-name="grave" unicode="`" horiz-adv-x="302" 
d="M59 605q-6 3 -8.5 10t2.5 17l28 51q4 7 11.5 7.5t14.5 -4.5l164 -97q5 -2 7 -7.5t-1 -11.5l-18 -36q-6 -14 -25 -6z" />
    <glyph glyph-name="a" unicode="a" horiz-adv-x="427" 
d="M31 127q0 54 41.5 90t118.5 36q15 0 28 -2t23 -4q11 -3 22 -5q1 38 -11.5 53.5t-40.5 15.5q-14 0 -30 -1.5t-31.5 -3.5t-28.5 -4.5t-22 -5.5q-11 -3 -16 2.5t-7 15.5l-9 52q-2 11 2.5 17t11.5 8q3 1 15.5 4t31.5 6.5t42 6t47 2.5q47 0 77 -12t47 -34.5t23.5 -54.5
t6.5 -73v-217q0 -8 -5.5 -13.5t-13.5 -5.5h-36q-5 0 -9 3t-8 11l-12 27q-17 -16 -46.5 -33.5t-75.5 -17.5q-60 0 -97.5 36.5t-37.5 100.5zM141 127q0 -23 14.5 -37.5t37.5 -14.5q12 0 23.5 4.5t21 10.5t16 12.5t8.5 11.5v55q-8 3 -17 6q-8 2 -18 4t-21 2q-29 0 -47 -15
t-18 -39z" />
    <glyph glyph-name="b" unicode="b" horiz-adv-x="500" 
d="M60 681q0 8 5.5 13.5t13.5 5.5h85q8 0 13.5 -5.5t5.5 -13.5v-289q14 5 36.5 11.5t52.5 6.5q45 0 81.5 -16.5t62.5 -45t40 -66.5t14 -82q0 -43 -14.5 -81.5t-40.5 -67t-61 -45t-76 -16.5q-32 0 -56 9.5t-41 20.5q-19 13 -34 30l-10 -31q-5 -19 -19 -19h-39q-8 0 -13.5 5.5
t-5.5 13.5v662zM179 163q3 -9 9 -20.5t16 -21t24.5 -16.5t34.5 -7q40 0 65.5 30t25.5 72t-27.5 72t-69.5 30q-19 0 -33.5 -3.5t-24.5 -8.5q-11 -5 -20 -11v-116z" />
    <glyph glyph-name="c" unicode="c" horiz-adv-x="426" 
d="M29 200q0 44 17.5 82.5t47 67t68 44.5t80.5 16q47 0 83 -18t65 -53q5 -7 4 -15t-9 -13l-46 -44q-7 -6 -13.5 -4t-11.5 7q-12 14 -30 23t-39 9q-20 0 -38 -8t-31.5 -22t-21 -32.5t-7.5 -39.5q0 -43 28 -72.5t69 -29.5q32 0 49 12.5t31 25.5q12 12 25 3l43 -37
q17 -14 7 -28q-26 -40 -65 -62t-93 -22q-42 0 -80.5 16t-68 44t-46.5 66.5t-17 83.5z" />
    <glyph glyph-name="d" unicode="d" horiz-adv-x="500" 
d="M30 200q0 44 14 82t40 66.5t62.5 45t81.5 16.5q30 0 52.5 -6.5t36.5 -11.5v289q0 8 5.5 13.5t13.5 5.5h85q8 0 13.5 -5.5t5.5 -13.5v-662q0 -8 -5.5 -13.5t-13.5 -5.5h-39q-14 0 -19 19l-10 31q-15 -17 -34 -30q-17 -11 -41 -20.5t-56 -9.5q-41 0 -76 16.5t-61 45
t-40.5 67t-14.5 81.5zM146 200q0 -42 25.5 -72t65.5 -30q20 0 34.5 7t24.5 16.5t16 21t9 20.5v116q-9 6 -20 11q-10 5 -24.5 8.5t-33.5 3.5q-42 0 -69.5 -30t-27.5 -72z" />
    <glyph glyph-name="e" unicode="e" horiz-adv-x="445" 
d="M30 200q0 42 15 80.5t42 67t64.5 45.5t82.5 17q39 0 73 -14t59.5 -38.5t40 -59t14.5 -74.5q0 -5 -0.5 -13.5t-1.5 -13.5q-1 -8 -6.5 -12.5t-12.5 -4.5h-256q1 -15 8 -30.5t19.5 -28t29.5 -20.5t39 -8q23 0 43.5 7.5t34.5 17.5q17 10 26 0l41 -47q5 -5 6 -12.5t-7 -13.5
q-25 -23 -62.5 -39t-86.5 -16q-45 0 -82.5 16.5t-65 45t-42.5 67t-15 81.5zM304 250q-2 28 -23 48t-50 20q-30 0 -52 -19.5t-26 -48.5h151z" />
    <glyph glyph-name="f" unicode="f" horiz-adv-x="344" 
d="M84 295h-34q-8 0 -13.5 5.5t-5.5 13.5v67q0 19 19 19h34v108q0 49 14.5 87t39.5 63.5t59 38.5t74 13t72 -13.5t46 -25.5q5 -4 6 -11t-2 -12l-34 -64q-3 -6 -10 -7.5t-14 2.5q-10 6 -26 13t-33 7q-32 0 -49.5 -23.5t-17.5 -67.5v-108h100q19 0 19 -19v-67q0 -8 -5.5 -13.5
t-13.5 -5.5h-100v-276q0 -8 -5.5 -13.5t-13.5 -5.5h-87q-8 0 -13.5 5.5t-5.5 13.5v276z" />
    <glyph glyph-name="g" unicode="g" horiz-adv-x="462" 
d="M18 30q0 29 11.5 50t25.5 35q17 16 38 27q-9 10 -15 24q-6 12 -10.5 29.5t-4.5 40.5q0 35 13.5 66.5t36.5 55.5t55 38t69 14h182q19 0 19 -19v-33q0 -5 -3 -10t-8 -7l-56 -18q11 -9 20 -24q8 -13 14 -32.5t6 -45.5q0 -30 -12 -58t-34 -50t-54 -35.5t-71 -13.5
q-29 0 -48.5 4t-31.5 4q-11 0 -24 -10t-13 -28q0 -16 11.5 -25t28.5 -9h128q34 0 64 -9.5t52.5 -27.5t35.5 -44t13 -59q0 -35 -14 -65.5t-41.5 -54t-68.5 -37t-95 -13.5q-56 0 -94.5 12.5t-63 32t-35.5 44t-11 48.5q0 22 8 39t18.5 28.5t20 18.5t13.5 9v3q-6 2 -18.5 8.5
t-25 18.5t-22 31.5t-9.5 46.5zM170 231q0 -32 20 -52t50 -20q31 0 50 20t19 52t-19 52t-50 20q-30 0 -50 -20t-20 -52zM148 -151q0 -26 23.5 -42.5t64.5 -16.5q42 0 67.5 17t25.5 46q0 7 -3 15.5t-11.5 16t-22.5 12.5t-36 5q-17 0 -33 -1t-32 -3l-12 -5t-14 -9t-12 -14.5
t-5 -20.5z" />
    <glyph glyph-name="h" unicode="h" horiz-adv-x="520" 
d="M60 681q0 8 5.5 13.5t13.5 5.5h85q8 0 13.5 -5.5t5.5 -13.5v-304q15 11 43 22t63 11q48 0 81.5 -17t55.5 -44.5t32 -63.5t10 -74v-192q0 -8 -5.5 -13.5t-13.5 -5.5h-81q-8 0 -13.5 5.5t-5.5 13.5v193q0 42 -21.5 66t-57.5 24q-35 0 -57 -20t-30 -51v-212q0 -19 -21 -19
h-83q-8 0 -13.5 5.5t-5.5 13.5v662z" />
    <glyph glyph-name="i" unicode="i" horiz-adv-x="241" 
d="M119 472q-29 0 -48.5 20t-19.5 49t19.5 49t48.5 20t49.5 -20t20.5 -49t-20.5 -49t-49.5 -20zM60 381q0 8 5.5 13.5t13.5 5.5h83q8 0 13.5 -5.5t5.5 -13.5v-362q0 -8 -5.5 -13.5t-13.5 -5.5h-83q-8 0 -13.5 5.5t-5.5 13.5v362z" />
    <glyph glyph-name="j" unicode="j" horiz-adv-x="242" 
d="M120 472q-29 0 -48.5 20t-19.5 49t19.5 49t48.5 20t49.5 -20t20.5 -49t-20.5 -49t-49.5 -20zM60 381q0 8 5.5 13.5t13.5 5.5h84q8 0 13.5 -5.5t5.5 -13.5v-489q0 -50 -14 -87.5t-39 -63t-59 -38.5t-74 -13t-72.5 13.5t-45.5 25.5q-5 4 -6 11t2 12l33 64q3 6 10 7.5
t14 -2.5q10 -6 26 -13t33 -7q34 0 52 23.5t18 67.5v489z" />
    <glyph glyph-name="k" unicode="k" horiz-adv-x="489" 
d="M60 681q0 8 5.5 13.5t13.5 5.5h85q8 0 13.5 -5.5t5.5 -13.5v-433l138 140q5 5 11 8.5t14 3.5h91q13 0 17 -10.5t-4 -18.5l-149 -152l178 -191q8 -8 4 -18t-17 -10h-108q-11 0 -17 8l-158 180v-169q0 -8 -5.5 -13.5t-13.5 -5.5h-85q-8 0 -13.5 5.5t-5.5 13.5v662z" />
    <glyph glyph-name="l" unicode="l" horiz-adv-x="242" 
d="M60 681q0 8 5.5 13.5t13.5 5.5h84q8 0 13.5 -5.5t5.5 -13.5v-662q0 -8 -5.5 -13.5t-13.5 -5.5h-84q-8 0 -13.5 5.5t-5.5 13.5v662z" />
    <glyph glyph-name="m" unicode="m" horiz-adv-x="779" 
d="M60 381q0 8 5.5 13.5t13.5 5.5h37q13 0 17 -11l14 -38q6 7 18 17t29 19.5t38.5 16t48.5 6.5q43 0 74 -16t56 -46q6 7 19 17.5t31 20.5t41 17t50 7q48 0 81.5 -16.5t54 -44t30 -64t9.5 -75.5v-191q0 -8 -5.5 -13.5t-13.5 -5.5h-81q-8 0 -13.5 5.5t-5.5 13.5v198
q0 39 -18.5 62t-56.5 23q-22 0 -37.5 -6.5t-26.5 -14.5q-12 -10 -20 -21v-12q0 -5 0.5 -12t0.5 -14v-203q0 -8 -5.5 -13.5t-13.5 -5.5h-75q-8 0 -13.5 5.5t-5.5 13.5v198q0 39 -18 62t-56 23q-19 0 -33 -6t-24 -15.5t-16.5 -20.5t-10.5 -21v-220q0 -8 -5.5 -13.5t-13.5 -5.5
h-81q-8 0 -13.5 5.5t-5.5 13.5v362z" />
    <glyph glyph-name="n" unicode="n" horiz-adv-x="519" 
d="M60 381q0 8 5.5 13.5t13.5 5.5h38q12 0 17 -12l14 -37q6 6 17.5 16t29.5 19.5t41.5 16.5t52.5 7q48 0 81.5 -16.5t55 -44t31.5 -63.5t10 -75v-192q0 -8 -5.5 -13.5t-13.5 -5.5h-82q-8 0 -13.5 5.5t-5.5 13.5v198q0 39 -19.5 62t-55.5 23q-20 0 -35.5 -6t-27.5 -15.5
t-19.5 -20.5t-11.5 -21v-220q0 -11 -5.5 -15t-19.5 -4h-74q-8 0 -13.5 5.5t-5.5 13.5v362z" />
    <glyph glyph-name="o" unicode="o" horiz-adv-x="468" 
d="M29 201q0 42 16 80t44 66.5t65.5 45.5t79.5 17t79.5 -17t65.5 -45.5t44 -66.5t16 -80q0 -43 -16 -81.5t-44 -67t-65.5 -45.5t-79.5 -17t-79.5 17t-65.5 45.5t-44 67t-16 81.5zM138 201q0 -43 27.5 -73t68.5 -30q20 0 37.5 8t30.5 22t20.5 33t7.5 40t-7.5 39.5t-20.5 32
t-30.5 21.5t-37.5 8t-37.5 -8t-30.5 -21.5t-20.5 -32t-7.5 -39.5z" />
    <glyph glyph-name="p" unicode="p" horiz-adv-x="500" 
d="M183 -281q0 -9 -5 -14t-19 -5h-80q-8 0 -13.5 5.5t-5.5 13.5v662q0 8 5.5 13.5t13.5 5.5h39q12 0 17 -12l13 -33q6 7 17.5 17t28 18t38 14t45.5 6q41 0 76.5 -16.5t61.5 -45t40.5 -67t14.5 -81.5q0 -44 -16 -82.5t-43 -67t-63 -44.5t-76 -16q-29 0 -53.5 8t-35.5 14v-293
zM178 121q9 -7 20 -12q10 -5 24.5 -8t33.5 -3q42 0 69.5 30t27.5 72t-25.5 72t-67.5 30q-19 0 -33.5 -6.5t-24.5 -16t-16 -20t-8 -18.5v-120z" />
    <glyph glyph-name="q" unicode="q" horiz-adv-x="500" 
d="M30 200q0 43 14.5 81.5t40.5 67t61.5 45t76.5 16.5q24 0 45.5 -6t38 -14t28 -18t17.5 -17l13 33q4 12 17 12h39q8 0 13.5 -5.5t5.5 -13.5v-662q0 -8 -5.5 -13.5t-13.5 -5.5h-80q-14 0 -19 5t-5 14v293q-11 -6 -35.5 -14t-53.5 -8q-41 0 -77 16t-63 44.5t-42.5 67
t-15.5 82.5zM147 198q0 -42 27.5 -71t69.5 -29q19 0 33.5 3t24.5 8q11 5 20 12v120q-2 8 -8 18.5t-16 20t-24.5 16t-33.5 6.5q-21 0 -38 -8.5t-29 -22.5t-19 -33t-7 -40z" />
    <glyph glyph-name="r" unicode="r" horiz-adv-x="341" 
d="M60 381q0 8 5.5 13.5t13.5 5.5h38q13 0 18 -13l14 -39q5 7 14.5 18t24 20.5t33 16.5t41.5 7q18 0 33.5 -2.5t27 -8t16 -13t0.5 -16.5l-37 -65q-4 -7 -10.5 -9.5t-12.5 0.5q-2 1 -11.5 3.5t-17.5 2.5q-30 0 -48 -15t-23 -26v-242q0 -19 -23 -19h-77q-8 0 -13.5 5.5
t-5.5 13.5v362z" />
    <glyph glyph-name="s" unicode="s" horiz-adv-x="364" 
d="M44 27q-5 4 -7 9.5t1 11.5l27 54q3 8 9.5 9.5t13.5 -2.5q13 -7 28 -12q13 -5 29.5 -8.5t33.5 -3.5q15 0 24.5 6t9.5 19q0 14 -13.5 24t-53.5 26q-58 23 -85.5 54.5t-27.5 77.5q0 23 8.5 44t26.5 37.5t46 26.5t66 10q45 0 76 -10t47 -21q7 -5 10 -12t-1 -15l-25 -51
q-4 -7 -11 -8t-13 1q-13 6 -27 10q-12 4 -27 7.5t-29 3.5q-18 0 -26 -6.5t-8 -16.5q0 -14 13.5 -21t41.5 -18q29 -11 53.5 -23.5t42.5 -29t28.5 -38t10.5 -50.5q0 -25 -10.5 -47t-31 -38.5t-50 -26.5t-67.5 -10q-50 0 -83.5 12.5t-49.5 24.5z" />
    <glyph glyph-name="t" unicode="t" horiz-adv-x="345" 
d="M81 295h-34q-8 0 -13 5.5t-5 13.5v67q0 8 5 13.5t13 5.5h34v111q0 8 5.5 13.5t13.5 5.5l82 1q8 0 13 -5.5t5 -13.5v-112h88q19 0 19 -19v-67q0 -8 -5.5 -13.5t-13.5 -5.5h-88v-160q0 -21 9.5 -26.5t21.5 -5.5q13 0 27 4t22 7q17 6 22 -11l20 -63q3 -8 0 -14.5t-11 -9.5
q-2 -1 -14 -5.5t-29 -9t-37.5 -8t-38.5 -3.5q-58 0 -84.5 34t-26.5 95v176z" />
    <glyph glyph-name="u" unicode="u" horiz-adv-x="503" 
d="M53 381q0 8 5.5 13.5t13.5 5.5h82q8 0 13.5 -5.5t5.5 -13.5v-197q0 -40 19 -63t54 -23q32 0 53.5 24t26.5 51v208q0 11 5 15t17 4h76q8 0 13.5 -5.5t5.5 -13.5v-362q0 -8 -5.5 -13.5t-13.5 -5.5h-37q-8 0 -12.5 4.5t-6.5 10.5l-12 33q-7 -6 -17.5 -16t-26.5 -19t-38 -16
t-52 -7q-47 0 -79 16.5t-52 44t-29 63t-9 73.5v194z" />
    <glyph glyph-name="v" unicode="v" horiz-adv-x="418" 
d="M7 376q-5 10 -1 17t15 7h87q8 0 12 -3t6 -8l81 -186h2l86 186q4 8 10 9.5t14 1.5h78q11 0 15 -7t-1 -17l-183 -376q-2 -4 -6 -7t-11 -3h-5q-7 0 -11 3t-6 7z" />
    <glyph glyph-name="w" unicode="w" horiz-adv-x="616" 
d="M18 377q-5 10 0.5 16.5t16.5 6.5h72q5 0 10.5 -3.5t7.5 -8.5l60 -179h1l102 192q2 3 5.5 6t10.5 3h8q11 0 16 -9l101 -192h1l60 179q3 8 9 10t14 2h65q11 0 16.5 -6.5t1.5 -16.5l-125 -376q-4 -11 -18 -11h-4q-11 0 -16 9l-126 233h-1l-125 -233q-5 -9 -16 -9h-5
q-13 0 -17 11z" />
    <glyph glyph-name="x" unicode="x" horiz-adv-x="451" 
d="M36 0q-13 0 -16 9.5t4 19.5l130 175l-126 167q-8 10 -3 19.5t18 9.5h83q10 0 18 -2t15 -12l65 -94h1l66 94q6 8 12.5 11t17.5 3h90q13 0 16.5 -9.5t-4.5 -19.5l-126 -166l127 -176q7 -10 3.5 -19.5t-15.5 -9.5h-88q-17 0 -28 16l-71 100h-1l-76 -108q-6 -8 -16 -8h-96v0z
" />
    <glyph glyph-name="y" unicode="y" horiz-adv-x="463" 
d="M8 374q-5 10 0.5 18t16.5 8h90q11 0 17 -11l101 -226h1l100 226q4 8 9.5 9.5t14.5 1.5h80q12 0 17 -8t0 -18l-306 -662q-2 -5 -6.5 -8.5t-10.5 -3.5h-86q-11 0 -16.5 8t-0.5 19l142 301z" />
    <glyph glyph-name="z" unicode="z" horiz-adv-x="366" 
d="M30 29l142 262v2h-114q-8 0 -13 5.5t-5 13.5v69q0 8 5 13.5t13 5.5h264q11 0 17 -8.5t0 -18.5l-145 -264v-3h108q19 0 19 -19v-68q0 -8 -5.5 -13.5t-13.5 -5.5h-253q-8 0 -13.5 5.5t-5.5 13.5v10z" />
    <glyph glyph-name="braceleft" unicode="{" horiz-adv-x="394" 
d="M103 87q0 17 -7.5 29t-18 20.5t-22.5 12.5t-21 6q-6 1 -10.5 5.5t-4.5 12.5v49q0 8 4.5 11.5t9.5 5.5q3 1 14.5 5.5t24 13.5t22 21.5t9.5 28.5v127q0 82 24.5 135t61 83.5t80 42.5t82.5 14q18 2 20 -17l4 -63q1 -8 -4 -12.5t-10 -5.5q-59 -13 -96.5 -56.5t-37.5 -120.5
v-105q0 -32 -11.5 -56t-26.5 -40t-28.5 -24.5t-16.5 -9.5v-4q10 -4 24.5 -12.5t27.5 -23.5t22 -37t9 -52v-107q0 -77 37.5 -120t96.5 -55q5 -2 10 -6.5t4 -12.5l-4 -63q-1 -8 -6.5 -13t-13.5 -4q-39 1 -82.5 13.5t-80 42.5t-61 82.5t-24.5 135.5v123z" />
    <glyph glyph-name="bar" unicode="|" horiz-adv-x="180" 
d="M65 741q0 8 5.5 13.5t13.5 5.5h13q8 0 13 -5.5t5 -13.5v-1023q0 -8 -5.5 -13t-13.5 -5h-12q-8 0 -13.5 5t-5.5 13v1023z" />
    <glyph glyph-name="braceright" unicode="}" horiz-adv-x="394" 
d="M167 71q0 30 9 52t22 37t27.5 23.5t24.5 12.5v4q-3 1 -16.5 9.5t-28.5 24.5t-26.5 40t-11.5 56v105q0 77 -37.5 120.5t-96.5 56.5q-5 1 -10 5.5t-4 12.5l4 63q2 19 20 17q39 -2 82.5 -14t80 -42.5t61 -83.5t24.5 -135v-127q0 -16 9.5 -28.5t22 -21.5t24 -13.5t14.5 -5.5
q5 -2 9.5 -5.5t4.5 -11.5v-49q0 -8 -4.5 -12.5t-10.5 -5.5q-9 -2 -21 -6t-22.5 -12.5t-18 -20.5t-7.5 -29v-123q0 -83 -24.5 -135.5t-61 -82.5t-80 -42.5t-82.5 -13.5q-8 -1 -13.5 4t-6.5 13l-4 63q-1 8 4 12.5t10 6.5q59 12 96.5 55t37.5 120v107z" />
    <glyph glyph-name="asciitilde" unicode="~" horiz-adv-x="533" 
d="M78 194l-22 22l-23 22q-5 5 -6 12t4 12q21 27 46 49q21 19 48 34.5t56 15.5q32 0 56 -13.5t45 -27.5q15 -10 33.5 -21t39.5 -11q26 0 45 18.5t29 33.5q6 8 14 8t15 -6l42 -44q5 -5 6 -12t-4 -12q-21 -28 -45 -49q-20 -19 -46.5 -34t-55.5 -15q-36 0 -61.5 14t-48.5 29
q-14 10 -29.5 19t-35.5 9q-26 0 -45 -18t-29 -33q-5 -8 -13.5 -8.5t-14.5 6.5z" />
    <glyph glyph-name="uni00A0" unicode="&#xa0;" horiz-adv-x="221" 
 />
    <glyph glyph-name="Agrave" unicode="&#xc0;" 
d="M17 0q-11 0 -16.5 8t-0.5 18l311 673q5 11 17 11h10q8 0 11.5 -3t5.5 -8l308 -673q5 -10 -0.5 -18t-16.5 -8h-87q-11 0 -17.5 4.5t-11.5 15.5l-49 108h-299l-49 -108q-3 -8 -10 -14t-19 -6h-87zM432 239l-100 220h-3l-98 -220h201zM227 845q-7 3 -9 10.5t3 16.5l28 52
q4 7 12 7t14 -4l164 -98q4 -2 6.5 -7.5t-0.5 -11.5l-18 -35q-3 -7 -8.5 -9.5t-16.5 2.5z" />
    <glyph glyph-name="Aacute" unicode="&#xc1;" 
d="M17 0q-11 0 -16.5 8t-0.5 18l311 673q5 11 17 11h10q8 0 11.5 -3t5.5 -8l308 -673q5 -10 -0.5 -18t-16.5 -8h-87q-11 0 -17.5 4.5t-11.5 15.5l-49 108h-299l-49 -108q-3 -8 -10 -14t-19 -6h-87zM432 239l-100 220h-3l-98 -220h201zM261 768q-11 -5 -16.5 -2.5t-8.5 9.5
l-18 35q-3 6 -0.5 11.5t6.5 7.5l164 98q18 11 26 -3l28 -52q5 -9 3 -16.5t-9 -10.5z" />
    <glyph glyph-name="Acircumflex" unicode="&#xc2;" 
d="M17 0q-11 0 -16.5 8t-0.5 18l311 673q5 11 17 11h10q8 0 11.5 -3t5.5 -8l308 -673q5 -10 -0.5 -18t-16.5 -8h-87q-11 0 -17.5 4.5t-11.5 15.5l-49 108h-299l-49 -108q-3 -8 -10 -14t-19 -6h-87zM432 239l-100 220h-3l-98 -220h201zM234 766q-9 -5 -13.5 -4t-9.5 7l-26 37
q-4 5 -1.5 10.5t7.5 8.5l130 101q10 8 21 0l130 -101q5 -3 7.5 -8.5t-1.5 -10.5l-26 -37q-5 -6 -9.5 -7t-13.5 4l-97 61z" />
    <glyph glyph-name="Atilde" unicode="&#xc3;" 
d="M17 0q-11 0 -16.5 8t-0.5 18l311 673q5 11 17 11h10q8 0 11.5 -3t5.5 -8l308 -673q5 -10 -0.5 -18t-16.5 -8h-87q-11 0 -17.5 4.5t-11.5 15.5l-49 108h-299l-49 -108q-3 -8 -10 -14t-19 -6h-87zM432 239l-100 220h-3l-98 -220h201zM182 810q-5 4 -6.5 11t0.5 12l12 21
t21 28t30.5 24.5t40.5 10.5q19 0 33 -8.5t25.5 -19t23 -19t25.5 -8.5q13 0 21 9.5t14 19t12.5 15t17.5 -2.5l28 -20q7 -5 6.5 -13.5t-5.5 -17.5l-11.5 -20t-19.5 -25.5t-28.5 -21.5t-37.5 -9q-20 0 -34.5 8.5t-27 19l-24 19.5t-23.5 9q-14 0 -21 -9.5t-13 -19t-12.5 -15.5
t-17.5 1z" />
    <glyph glyph-name="Adieresis" unicode="&#xc4;" 
d="M17 0q-11 0 -16.5 8t-0.5 18l311 673q5 11 17 11h10q8 0 11.5 -3t5.5 -8l308 -673q5 -10 -0.5 -18t-16.5 -8h-87q-11 0 -17.5 4.5t-11.5 15.5l-49 108h-299l-49 -108q-3 -8 -10 -14t-19 -6h-87zM432 239l-100 220h-3l-98 -220h201zM454 775q-26 0 -44.5 19t-18.5 45
t18.5 44.5t44.5 18.5t45 -18.5t19 -44.5t-19 -45t-45 -19zM207 775q-26 0 -44.5 19t-18.5 45t18.5 44.5t44.5 18.5t45 -18.5t19 -44.5t-19 -45t-45 -19z" />
    <glyph glyph-name="Amacron" unicode="&#x100;" 
d="M17 0q-11 0 -16.5 8t-0.5 18l311 673q5 11 17 11h10q8 0 11.5 -3t5.5 -8l308 -673q5 -10 -0.5 -18t-16.5 -8h-87q-11 0 -17.5 4.5t-11.5 15.5l-49 108h-299l-49 -108q-3 -8 -10 -14t-19 -6h-87zM432 239l-100 220h-3l-98 -220h201zM203 808q-8 0 -13.5 5t-5.5 13v34
q0 19 19 19h256q19 0 19 -19v-34q0 -8 -5.5 -13t-13.5 -5h-256z" />
    <glyph glyph-name="Abreve" unicode="&#x102;" 
d="M17 0q-11 0 -16.5 8t-0.5 18l311 673q5 11 17 11h10q8 0 11.5 -3t5.5 -8l308 -673q5 -10 -0.5 -18t-16.5 -8h-87q-11 0 -17.5 4.5t-11.5 15.5l-49 108h-299l-49 -108q-3 -8 -10 -14t-19 -6h-87zM432 239l-100 220h-3l-98 -220h201zM332 766q-27 0 -51 9t-42.5 25
t-30.5 37.5t-16 46.5q-2 8 3 14.5t15 6.5h37q7 0 11 -4.5t6 -9.5q8 -23 25.5 -38t42.5 -15q23 0 40.5 16.5t25.5 36.5q2 7 7 10.5t10 3.5h39q9 0 14 -6.5t4 -14.5q-4 -25 -16.5 -46.5t-31 -37.5t-42 -25t-50.5 -9z" />
    <glyph glyph-name="Aring" unicode="&#xc5;" 
d="M17 0q-11 0 -16.5 8t-0.5 18l311 673q5 11 17 11h10q8 0 11.5 -3t5.5 -8l308 -673q5 -10 -0.5 -18t-16.5 -8h-87q-11 0 -17.5 4.5t-11.5 15.5l-49 108h-299l-49 -108q-3 -8 -10 -14t-19 -6h-87zM432 239l-100 220h-3l-98 -220h201zM331 754q-24 0 -44.5 9t-35.5 24
t-24 35.5t-9 44.5t9 44.5t24 35.5t35.5 24t44.5 9q23 0 43.5 -9t36 -24t24.5 -35.5t9 -44.5t-9 -44.5t-24.5 -35.5t-36 -24t-43.5 -9zM331 817q20 0 34 15t14 35t-14 34t-34 14t-35 -14t-15 -34t15 -35t35 -15z" />
    <glyph glyph-name="Aringacute" unicode="&#x1fa;" 
d="M222 921q-3 6 -0.5 11.5t6.5 7.5l164 98q18 11 26 -3l28 -52q5 -9 3 -16.5t-9 -10.5l-175 -77q-11 -5 -16.5 -2.5t-8.5 9.5zM17 0q-11 0 -16.5 8t-0.5 18l293 634q-32 12 -51.5 40.5t-19.5 64.5q0 24 9 44.5t24 35.5t35.5 24t44.5 9q23 0 43.5 -9t36 -24t24.5 -35.5
t9 -44.5q0 -37 -21.5 -66t-53.5 -41l290 -632q5 -10 -0.5 -18t-16.5 -8h-87q-11 0 -17.5 4.5t-11.5 15.5l-49 108h-299l-49 -108q-3 -8 -10 -14t-19 -6h-87zM335 715q20 0 34 15t14 35t-14 34t-34 14t-35 -14t-15 -34t15 -35t35 -15zM432 239l-100 220h-3l-98 -220h201z" />
    <glyph glyph-name="Aogonek" unicode="&#x104;" 
d="M17 0q-11 0 -16.5 8t-0.5 18l311 673q5 11 17 11h10q8 0 11.5 -3t5.5 -8l308 -673q5 -10 -0.5 -18t-16.5 -8h-61q-14 -14 -29.5 -39t-15.5 -57q0 -26 17 -45t49 -19q15 0 26 3.5t20 5.5q8 2 14 -3t6 -14v-30q0 -7 -4.5 -12t-9.5 -7q-3 -1 -23 -5.5t-43 -4.5
q-26 0 -49 6.5t-40.5 20t-27.5 34.5t-10 49t9.5 50.5t21.5 39t23 26.5t14 13l-52 116h-299l-49 -108q-3 -8 -10 -14t-19 -6h-87zM432 239l-100 220h-3l-98 -220h201z" />
    <glyph glyph-name="AE" unicode="&#xc6;" horiz-adv-x="900" 
d="M1 0q-11 0 -14.5 8t2.5 18l401 643q10 15 17 23t27 8h395q8 0 13.5 -5.5t5.5 -13.5v-82q0 -8 -5.5 -13.5t-13.5 -5.5h-299v-164h250q8 0 13.5 -5.5t5.5 -13.5v-83q0 -8 -5.5 -13.5t-13.5 -5.5h-250v-175h299q8 0 13.5 -5.5t5.5 -13.5v-82q0 -8 -5.5 -13.5t-13.5 -5.5
h-408q-8 0 -13.5 5.5t-5.5 13.5v109h-210l-71 -113q-5 -7 -10.5 -11t-14.5 -4h-95zM402 239v226l-140 -226h140z" />
    <glyph glyph-name="AEacute" unicode="&#x1fc;" horiz-adv-x="900" 
d="M1 0q-11 0 -14.5 8t2.5 18l401 643q10 15 17 23t27 8h395q8 0 13.5 -5.5t5.5 -13.5v-82q0 -8 -5.5 -13.5t-13.5 -5.5h-299v-164h250q8 0 13.5 -5.5t5.5 -13.5v-83q0 -8 -5.5 -13.5t-13.5 -5.5h-250v-175h299q8 0 13.5 -5.5t5.5 -13.5v-82q0 -8 -5.5 -13.5t-13.5 -5.5
h-408q-8 0 -13.5 5.5t-5.5 13.5v109h-210l-71 -113q-5 -7 -10.5 -11t-14.5 -4h-95zM402 239v226l-140 -226h140zM551 769q-11 -5 -16.5 -2.5t-8.5 9.5l-18 35q-3 6 -0.5 11.5t6.5 7.5l164 98q18 11 26 -3l28 -52q5 -9 3 -16.5t-9 -10.5z" />
    <glyph glyph-name="Cacute" unicode="&#x106;" horiz-adv-x="684" 
d="M40 349q0 75 28.5 141t77 114.5t114.5 77t141 28.5q76 0 133.5 -23.5t108.5 -69.5q15 -14 1 -28l-61 -63q-12 -13 -25 0q-32 28 -72 43.5t-82 15.5q-48 0 -89 -18.5t-70.5 -50.5t-46.5 -74.5t-17 -89.5t17 -89t47 -73.5t71 -50t89 -18.5q45 0 83 15.5t70 41.5q6 5 13 5
t12 -5l62 -64q6 -5 5 -13.5t-6 -13.5q-51 -50 -113.5 -73.5t-129.5 -23.5q-75 0 -141 28t-114.5 76.5t-77 114t-28.5 140.5zM335 768q-11 -5 -16.5 -2.5t-8.5 9.5l-18 35q-3 6 -0.5 11.5t6.5 7.5l164 98q18 11 26 -3l28 -52q5 -9 3 -16.5t-9 -10.5z" />
    <glyph glyph-name="Ccircumflex" unicode="&#x108;" horiz-adv-x="684" 
d="M40 349q0 75 28.5 141t77 114.5t114.5 77t141 28.5q76 0 133.5 -23.5t108.5 -69.5q15 -14 1 -28l-61 -63q-12 -13 -25 0q-32 28 -72 43.5t-82 15.5q-48 0 -89 -18.5t-70.5 -50.5t-46.5 -74.5t-17 -89.5t17 -89t47 -73.5t71 -50t89 -18.5q45 0 83 15.5t70 41.5q6 5 13 5
t12 -5l62 -64q6 -5 5 -13.5t-6 -13.5q-51 -50 -113.5 -73.5t-129.5 -23.5q-75 0 -141 28t-114.5 76.5t-77 114t-28.5 140.5zM303 766q-9 -5 -13.5 -4t-9.5 7l-26 37q-4 5 -1.5 10.5t7.5 8.5l130 101q10 8 21 0l130 -101q5 -3 7.5 -8.5t-1.5 -10.5l-26 -37q-5 -6 -9.5 -7
t-13.5 4l-97 61z" />
    <glyph glyph-name="Ccaron" unicode="&#x10c;" horiz-adv-x="684" 
d="M40 349q0 75 28.5 141t77 114.5t114.5 77t141 28.5q76 0 133.5 -23.5t108.5 -69.5q15 -14 1 -28l-61 -63q-12 -13 -25 0q-32 28 -72 43.5t-82 15.5q-48 0 -89 -18.5t-70.5 -50.5t-46.5 -74.5t-17 -89.5t17 -89t47 -73.5t71 -50t89 -18.5q45 0 83 15.5t70 41.5q6 5 13 5
t12 -5l62 -64q6 -5 5 -13.5t-6 -13.5q-51 -50 -113.5 -73.5t-129.5 -23.5q-75 0 -141 28t-114.5 76.5t-77 114t-28.5 140.5zM260 865q-5 3 -7.5 8.5t1.5 10.5l26 37q5 6 9.5 7t13.5 -4l97 -61l98 61q9 5 13.5 4t9.5 -7l26 -37q4 -5 1.5 -10.5t-7.5 -8.5l-130 -101
q-10 -8 -21 0z" />
    <glyph glyph-name="Cdotaccent" unicode="&#x10a;" horiz-adv-x="684" 
d="M40 349q0 75 28.5 141t77 114.5t114.5 77t141 28.5q76 0 133.5 -23.5t108.5 -69.5q15 -14 1 -28l-61 -63q-12 -13 -25 0q-32 28 -72 43.5t-82 15.5q-48 0 -89 -18.5t-70.5 -50.5t-46.5 -74.5t-17 -89.5t17 -89t47 -73.5t71 -50t89 -18.5q45 0 83 15.5t70 41.5q6 5 13 5
t12 -5l62 -64q6 -5 5 -13.5t-6 -13.5q-51 -50 -113.5 -73.5t-129.5 -23.5q-75 0 -141 28t-114.5 76.5t-77 114t-28.5 140.5zM402 781q-30 0 -51 21t-21 51t21 51t51 21t51 -21t21 -51t-21 -51t-51 -21z" />
    <glyph glyph-name="Ccedilla" unicode="&#xc7;" horiz-adv-x="686" 
d="M338 -4q-63 11 -117.5 42.5t-94.5 78t-62.5 106t-22.5 126.5q0 75 28.5 141t77 114.5t114.5 77t141 28.5q76 0 133.5 -23.5t108.5 -69.5q15 -14 1 -28l-61 -63q-12 -13 -25 0q-32 28 -72 43.5t-82 15.5q-48 0 -89 -18.5t-70.5 -50.5t-46.5 -74.5t-17 -89.5t17 -89
t47 -73.5t71 -50t89 -18.5q45 0 83 15.5t70 41.5q6 5 13 5t12 -5l62 -64q6 -5 5 -13.5t-6 -13.5q-51 -50 -113 -73t-128 -24v-42q46 -6 71.5 -33.5t25.5 -69.5q0 -22 -8.5 -41t-22.5 -33.5t-33.5 -22.5t-41.5 -8q-23 0 -43 10t-33 25q-6 7 -5 14.5t8 13.5l20 17q5 5 11 4.5
t10 -5.5q6 -7 14.5 -9.5t15.5 -2.5q15 0 25 11t10 26q0 18 -17 32t-56 17q-11 2 -14 8t-3 10v85v0z" />
    <glyph glyph-name="Dcaron" unicode="&#x10e;" horiz-adv-x="738" 
d="M91 681q0 8 5 13.5t13 5.5h237q72 0 136 -27.5t112 -75t75.5 -111t27.5 -135.5q0 -73 -27.5 -137t-75.5 -111.5t-112 -75t-136 -27.5h-237q-8 0 -13 5.5t-5 13.5v662zM334 122q49 0 90 17.5t71 48t47 72.5t17 91t-17 90.5t-47 72t-71 48t-90 17.5h-114v-457h114zM209 865
q-5 3 -7.5 8.5t1.5 10.5l26 37q5 6 9.5 7t13.5 -4l97 -61l98 61q9 5 13.5 4t9.5 -7l26 -37q4 -5 1.5 -10.5t-7.5 -8.5l-130 -101q-10 -8 -21 0z" />
    <glyph glyph-name="Dcroat" unicode="&#x110;" horiz-adv-x="743" 
d="M96 321h-29q-8 0 -13 5.5t-5 13.5v13q0 8 5 13.5t13 5.5h29v309q0 8 5 13.5t13 5.5h237q72 0 136 -27.5t112 -75t75.5 -111t27.5 -135.5q0 -73 -27.5 -137t-75.5 -111.5t-112 -75t-136 -27.5h-237q-8 0 -13 5.5t-5 13.5v302zM339 122q49 0 90 17.5t71 48t47 72.5t17 91
t-17 90.5t-47 72t-71 48t-90 17.5h-114v-207h165q8 0 13.5 -5.5t5.5 -13.5v-14q0 -8 -5.5 -13t-13.5 -5h-165v-199h114z" />
    <glyph glyph-name="Eth" unicode="&#xd0;" horiz-adv-x="743" 
d="M96 321h-29q-8 0 -13 5.5t-5 13.5v13q0 8 5 13.5t13 5.5h29v309q0 8 5 13.5t13 5.5h237q72 0 136 -27.5t112 -75t75.5 -111t27.5 -135.5q0 -73 -27.5 -137t-75.5 -111.5t-112 -75t-136 -27.5h-237q-8 0 -13 5.5t-5 13.5v302zM339 122q49 0 90 17.5t71 48t47 72.5t17 91
t-17 90.5t-47 72t-71 48t-90 17.5h-114v-207h165q8 0 13.5 -5.5t5.5 -13.5v-14q0 -8 -5.5 -13t-13.5 -5h-165v-199h114z" />
    <glyph glyph-name="Egrave" unicode="&#xc8;" horiz-adv-x="588" 
d="M91 681q0 8 5.5 13.5t13.5 5.5h407q8 0 13.5 -5.5t5.5 -13.5v-82q0 -8 -5.5 -13.5t-13.5 -5.5h-296v-164h247q8 0 13.5 -5.5t5.5 -13.5v-83q0 -8 -5.5 -13.5t-13.5 -5.5h-247v-175h296q8 0 13.5 -5.5t5.5 -13.5v-82q0 -8 -5.5 -13.5t-13.5 -5.5h-407q-8 0 -13.5 5.5
t-5.5 13.5v662zM215 845q-7 3 -9 10.5t3 16.5l28 52q4 7 12 7t14 -4l164 -98q4 -2 6.5 -7.5t-0.5 -11.5l-18 -35q-3 -7 -8.5 -9.5t-16.5 2.5z" />
    <glyph glyph-name="Eacute" unicode="&#xc9;" horiz-adv-x="588" 
d="M91 681q0 8 5.5 13.5t13.5 5.5h407q8 0 13.5 -5.5t5.5 -13.5v-82q0 -8 -5.5 -13.5t-13.5 -5.5h-296v-164h247q8 0 13.5 -5.5t5.5 -13.5v-83q0 -8 -5.5 -13.5t-13.5 -5.5h-247v-175h296q8 0 13.5 -5.5t5.5 -13.5v-82q0 -8 -5.5 -13.5t-13.5 -5.5h-407q-8 0 -13.5 5.5
t-5.5 13.5v662zM250 768q-11 -5 -16.5 -2.5t-8.5 9.5l-18 35q-3 6 -0.5 11.5t6.5 7.5l164 98q18 11 26 -3l28 -52q5 -9 3 -16.5t-9 -10.5z" />
    <glyph glyph-name="Ecircumflex" unicode="&#xca;" horiz-adv-x="588" 
d="M91 681q0 8 5.5 13.5t13.5 5.5h407q8 0 13.5 -5.5t5.5 -13.5v-82q0 -8 -5.5 -13.5t-13.5 -5.5h-296v-164h247q8 0 13.5 -5.5t5.5 -13.5v-83q0 -8 -5.5 -13.5t-13.5 -5.5h-247v-175h296q8 0 13.5 -5.5t5.5 -13.5v-82q0 -8 -5.5 -13.5t-13.5 -5.5h-407q-8 0 -13.5 5.5
t-5.5 13.5v662zM217 766q-9 -5 -13.5 -4t-9.5 7l-26 37q-4 5 -1.5 10.5t7.5 8.5l130 101q10 8 21 0l130 -101q5 -3 7.5 -8.5t-1.5 -10.5l-26 -37q-5 -6 -9.5 -7t-13.5 4l-97 61z" />
    <glyph glyph-name="Ecaron" unicode="&#x11a;" horiz-adv-x="588" 
d="M91 681q0 8 5.5 13.5t13.5 5.5h407q8 0 13.5 -5.5t5.5 -13.5v-82q0 -8 -5.5 -13.5t-13.5 -5.5h-296v-164h247q8 0 13.5 -5.5t5.5 -13.5v-83q0 -8 -5.5 -13.5t-13.5 -5.5h-247v-175h296q8 0 13.5 -5.5t5.5 -13.5v-82q0 -8 -5.5 -13.5t-13.5 -5.5h-407q-8 0 -13.5 5.5
t-5.5 13.5v662zM175 865q-5 3 -7.5 8.5t1.5 10.5l26 37q5 6 9.5 7t13.5 -4l97 -61l98 61q9 5 13.5 4t9.5 -7l26 -37q4 -5 1.5 -10.5t-7.5 -8.5l-130 -101q-10 -8 -21 0z" />
    <glyph glyph-name="Edieresis" unicode="&#xcb;" horiz-adv-x="588" 
d="M91 681q0 8 5.5 13.5t13.5 5.5h407q8 0 13.5 -5.5t5.5 -13.5v-82q0 -8 -5.5 -13.5t-13.5 -5.5h-296v-164h247q8 0 13.5 -5.5t5.5 -13.5v-83q0 -8 -5.5 -13.5t-13.5 -5.5h-247v-175h296q8 0 13.5 -5.5t5.5 -13.5v-82q0 -8 -5.5 -13.5t-13.5 -5.5h-407q-8 0 -13.5 5.5
t-5.5 13.5v662zM442 775q-26 0 -44.5 19t-18.5 45t18.5 44.5t44.5 18.5t45 -18.5t19 -44.5t-19 -45t-45 -19zM195 775q-26 0 -44.5 19t-18.5 45t18.5 44.5t44.5 18.5t45 -18.5t19 -44.5t-19 -45t-45 -19z" />
    <glyph glyph-name="Emacron" unicode="&#x112;" horiz-adv-x="588" 
d="M91 681q0 8 5.5 13.5t13.5 5.5h407q8 0 13.5 -5.5t5.5 -13.5v-82q0 -8 -5.5 -13.5t-13.5 -5.5h-296v-164h247q8 0 13.5 -5.5t5.5 -13.5v-83q0 -8 -5.5 -13.5t-13.5 -5.5h-247v-175h296q8 0 13.5 -5.5t5.5 -13.5v-82q0 -8 -5.5 -13.5t-13.5 -5.5h-407q-8 0 -13.5 5.5
t-5.5 13.5v662zM189 808q-8 0 -13.5 5t-5.5 13v34q0 19 19 19h256q19 0 19 -19v-34q0 -8 -5.5 -13t-13.5 -5h-256z" />
    <glyph glyph-name="Ebreve" unicode="&#x114;" horiz-adv-x="588" 
d="M91 681q0 8 5.5 13.5t13.5 5.5h407q8 0 13.5 -5.5t5.5 -13.5v-82q0 -8 -5.5 -13.5t-13.5 -5.5h-296v-164h247q8 0 13.5 -5.5t5.5 -13.5v-83q0 -8 -5.5 -13.5t-13.5 -5.5h-247v-175h296q8 0 13.5 -5.5t5.5 -13.5v-82q0 -8 -5.5 -13.5t-13.5 -5.5h-407q-8 0 -13.5 5.5
t-5.5 13.5v662zM322 766q-27 0 -51 9t-42.5 25t-30.5 37.5t-16 46.5q-2 8 3 14.5t15 6.5h37q7 0 11 -4.5t6 -9.5q8 -23 25.5 -38t42.5 -15q23 0 40.5 16.5t25.5 36.5q2 7 7 10.5t10 3.5h39q9 0 14 -6.5t4 -14.5q-4 -25 -16.5 -46.5t-31 -37.5t-42 -25t-50.5 -9z" />
    <glyph glyph-name="Edotaccent" unicode="&#x116;" horiz-adv-x="588" 
d="M91 681q0 8 5.5 13.5t13.5 5.5h407q8 0 13.5 -5.5t5.5 -13.5v-82q0 -8 -5.5 -13.5t-13.5 -5.5h-296v-164h247q8 0 13.5 -5.5t5.5 -13.5v-83q0 -8 -5.5 -13.5t-13.5 -5.5h-247v-175h296q8 0 13.5 -5.5t5.5 -13.5v-82q0 -8 -5.5 -13.5t-13.5 -5.5h-407q-8 0 -13.5 5.5
t-5.5 13.5v662zM322 781q-30 0 -51 21t-21 51t21 51t51 21t51 -21t21 -51t-21 -51t-51 -21z" />
    <glyph glyph-name="Eogonek" unicode="&#x118;" horiz-adv-x="588" 
d="M91 681q0 8 5.5 13.5t13.5 5.5h407q8 0 13.5 -5.5t5.5 -13.5v-82q0 -8 -5.5 -13.5t-13.5 -5.5h-296v-164h247q8 0 13.5 -5.5t5.5 -13.5v-83q0 -8 -5.5 -13.5t-13.5 -5.5h-247v-175h296q8 0 13.5 -5.5t5.5 -13.5v-69q0 -17 -5 -22t-11 -10q-7 -7 -15 -16.5t-15 -22
t-11.5 -27t-4.5 -30.5q0 -26 17 -45t49 -19q15 0 26 3.5t20 5.5q8 2 14 -3t6 -14v-30q0 -7 -4.5 -12t-9.5 -7q-3 -1 -23 -5.5t-43 -4.5q-26 0 -49 6.5t-40.5 20t-27.5 34.5t-10 49q0 21 5.5 39t13.5 33t18 26t18 19h-344q-8 0 -13.5 5.5t-5.5 13.5v662z" />
    <glyph glyph-name="Gcircumflex" unicode="&#x11c;" horiz-adv-x="712" 
d="M41 349q0 75 28 141t77 114.5t114 77t140 28.5q68 0 130.5 -24.5t113.5 -68.5q6 -6 6.5 -14t-5.5 -14l-62 -65q-12 -12 -26 0q-66 58 -151 58q-47 0 -88 -18.5t-71 -50.5t-47.5 -74t-17.5 -89t17.5 -88.5t48 -72.5t71.5 -49.5t88 -18.5q42 0 73 9.5t46 15.5v85h-80
q-8 0 -13.5 5t-5.5 13v79q0 19 19 19h192q8 0 13 -5.5t5 -13.5v-256q0 -10 -8 -16q-31 -19 -70 -33q-33 -12 -78.5 -22t-99.5 -10q-75 0 -140 28t-114 76t-77 113.5t-28 140.5zM301 766q-9 -5 -13.5 -4t-9.5 7l-26 37q-4 5 -1.5 10.5t7.5 8.5l130 101q10 8 21 0l130 -101
q5 -3 7.5 -8.5t-1.5 -10.5l-26 -37q-5 -6 -9.5 -7t-13.5 4l-97 61z" />
    <glyph glyph-name="Gbreve" unicode="&#x11e;" horiz-adv-x="712" 
d="M41 349q0 75 28 141t77 114.5t114 77t140 28.5q68 0 130.5 -24.5t113.5 -68.5q6 -6 6.5 -14t-5.5 -14l-62 -65q-12 -12 -26 0q-66 58 -151 58q-47 0 -88 -18.5t-71 -50.5t-47.5 -74t-17.5 -89t17.5 -88.5t48 -72.5t71.5 -49.5t88 -18.5q42 0 73 9.5t46 15.5v85h-80
q-8 0 -13.5 5t-5.5 13v79q0 19 19 19h192q8 0 13 -5.5t5 -13.5v-256q0 -10 -8 -16q-31 -19 -70 -33q-33 -12 -78.5 -22t-99.5 -10q-75 0 -140 28t-114 76t-77 113.5t-28 140.5zM401 766q-27 0 -51 9t-42.5 25t-30.5 37.5t-16 46.5q-2 8 3 14.5t15 6.5h37q7 0 11 -4.5t6 -9.5
q8 -23 25.5 -38t42.5 -15q23 0 40.5 16.5t25.5 36.5q2 7 7 10.5t10 3.5h39q9 0 14 -6.5t4 -14.5q-4 -25 -16.5 -46.5t-31 -37.5t-42 -25t-50.5 -9z" />
    <glyph glyph-name="Gdotaccent" unicode="&#x120;" horiz-adv-x="712" 
d="M41 349q0 75 28 141t77 114.5t114 77t140 28.5q68 0 130.5 -24.5t113.5 -68.5q6 -6 6.5 -14t-5.5 -14l-62 -65q-12 -12 -26 0q-66 58 -151 58q-47 0 -88 -18.5t-71 -50.5t-47.5 -74t-17.5 -89t17.5 -88.5t48 -72.5t71.5 -49.5t88 -18.5q42 0 73 9.5t46 15.5v85h-80
q-8 0 -13.5 5t-5.5 13v79q0 19 19 19h192q8 0 13 -5.5t5 -13.5v-256q0 -10 -8 -16q-31 -19 -70 -33q-33 -12 -78.5 -22t-99.5 -10q-75 0 -140 28t-114 76t-77 113.5t-28 140.5zM401 781q-30 0 -51 21t-21 51t21 51t51 21t51 -21t21 -51t-21 -51t-51 -21z" />
    <glyph glyph-name="Gcommaaccent" unicode="&#x122;" horiz-adv-x="712" 
d="M41 349q0 75 28 141t77 114.5t114 77t140 28.5q68 0 130.5 -24.5t113.5 -68.5q6 -6 6.5 -14t-5.5 -14l-62 -65q-12 -12 -26 0q-66 58 -151 58q-47 0 -88 -18.5t-71 -50.5t-47.5 -74t-17.5 -89t17.5 -88.5t48 -72.5t71.5 -49.5t88 -18.5q42 0 73 9.5t46 15.5v85h-80
q-8 0 -13.5 5t-5.5 13v79q0 19 19 19h192q8 0 13 -5.5t5 -13.5v-256q0 -10 -8 -16q-31 -19 -70 -33q-33 -12 -78.5 -22t-99.5 -10q-75 0 -140 28t-114 76t-77 113.5t-28 140.5zM396 -91q13 0 28 -5t27 -17.5t20 -33t8 -51.5q0 -37 -10.5 -66.5t-25 -52t-29.5 -38t-25 -24.5
q-13 -10 -23 1l-15 14q-5 5 -3.5 11.5t6.5 11.5q4 3 15 12.5t22.5 25t21 37t9.5 47.5q-1 0 -9.5 -2.5t-21.5 -2.5q-27 0 -47 19t-20 47t20.5 47.5t51.5 19.5z" />
    <glyph glyph-name="Hcircumflex" unicode="&#x124;" horiz-adv-x="769" 
d="M91 681q0 8 5.5 13.5t13.5 5.5h93q8 0 13.5 -5.5t5.5 -13.5v-265h326v265q0 8 5.5 13.5t13.5 5.5h92q8 0 13.5 -5.5t5.5 -13.5v-662q0 -8 -5.5 -13.5t-13.5 -5.5h-92q-8 0 -13.5 5.5t-5.5 13.5v276h-326v-276q0 -8 -5.5 -13.5t-13.5 -5.5h-93q-8 0 -13.5 5.5t-5.5 13.5
v662zM291 766q-9 -5 -13.5 -4t-9.5 7l-26 37q-4 5 -1.5 10.5t7.5 8.5l130 101q10 8 21 0l130 -101q5 -3 7.5 -8.5t-1.5 -10.5l-26 -37q-5 -6 -9.5 -7t-13.5 4l-97 61z" />
    <glyph glyph-name="Hbar" unicode="&#x126;" horiz-adv-x="769" 
d="M91 533h-26q-8 0 -13 5.5t-5 13.5v13q0 8 5 13.5t13 5.5h26v97q0 8 5.5 13.5t13.5 5.5h93q8 0 13.5 -5.5t5.5 -13.5v-97h326v97q0 8 5.5 13.5t13.5 5.5h92q8 0 13.5 -5.5t5.5 -13.5v-97h26q8 0 13.5 -5.5t5.5 -13.5v-14q0 -8 -5.5 -13t-13.5 -5h-26v-514q0 -8 -5.5 -13.5
t-13.5 -5.5h-92q-8 0 -13.5 5.5t-5.5 13.5v276h-326v-276q0 -8 -5.5 -13.5t-13.5 -5.5h-93q-8 0 -13.5 5.5t-5.5 13.5v514zM548 416v117h-326v-117h326z" />
    <glyph glyph-name="Igrave" unicode="&#xcc;" horiz-adv-x="313" 
d="M91 681q0 8 5.5 13.5t13.5 5.5h93q8 0 13.5 -5.5t5.5 -13.5v-662q0 -8 -5.5 -13.5t-13.5 -5.5h-93q-8 0 -13.5 5.5t-5.5 13.5v662zM51 845q-7 3 -9 10.5t3 16.5l28 52q4 7 12 7t14 -4l164 -98q4 -2 6.5 -7.5t-0.5 -11.5l-18 -35q-3 -7 -8.5 -9.5t-16.5 2.5z" />
    <glyph glyph-name="Iacute" unicode="&#xcd;" horiz-adv-x="313" 
d="M91 681q0 8 5.5 13.5t13.5 5.5h93q8 0 13.5 -5.5t5.5 -13.5v-662q0 -8 -5.5 -13.5t-13.5 -5.5h-93q-8 0 -13.5 5.5t-5.5 13.5v662zM86 768q-11 -5 -16.5 -2.5t-8.5 9.5l-18 35q-3 6 -0.5 11.5t6.5 7.5l164 98q18 11 26 -3l28 -52q5 -9 3 -16.5t-9 -10.5z" />
    <glyph glyph-name="Ibreve" unicode="&#x12c;" horiz-adv-x="313" 
d="M91 681q0 8 5.5 13.5t13.5 5.5h93q8 0 13.5 -5.5t5.5 -13.5v-662q0 -8 -5.5 -13.5t-13.5 -5.5h-93q-8 0 -13.5 5.5t-5.5 13.5v662zM157 766q-27 0 -51 9t-42.5 25t-30.5 37.5t-16 46.5q-2 8 3 14.5t15 6.5h37q7 0 11 -4.5t6 -9.5q8 -23 25.5 -38t42.5 -15q23 0 40.5 16.5
t25.5 36.5q2 7 7 10.5t10 3.5h39q9 0 14 -6.5t4 -14.5q-4 -25 -16.5 -46.5t-31 -37.5t-42 -25t-50.5 -9z" />
    <glyph glyph-name="Icircumflex" unicode="&#xce;" horiz-adv-x="313" 
d="M91 681q0 8 5.5 13.5t13.5 5.5h93q8 0 13.5 -5.5t5.5 -13.5v-662q0 -8 -5.5 -13.5t-13.5 -5.5h-93q-8 0 -13.5 5.5t-5.5 13.5v662zM57 766q-9 -5 -13.5 -4t-9.5 7l-26 37q-4 5 -1.5 10.5t7.5 8.5l130 101q10 8 21 0l130 -101q5 -3 7.5 -8.5t-1.5 -10.5l-26 -37
q-5 -6 -9.5 -7t-13.5 4l-97 61z" />
    <glyph glyph-name="Itilde" unicode="&#x128;" horiz-adv-x="313" 
d="M91 681q0 8 5.5 13.5t13.5 5.5h93q8 0 13.5 -5.5t5.5 -13.5v-662q0 -8 -5.5 -13.5t-13.5 -5.5h-93q-8 0 -13.5 5.5t-5.5 13.5v662zM8 810q-5 4 -6.5 11t0.5 12l12 21t21 28t30.5 24.5t40.5 10.5q19 0 33 -8.5t25.5 -19t23 -19t25.5 -8.5q13 0 21 9.5t14 19t12.5 15
t17.5 -2.5l28 -20q7 -5 6.5 -13.5t-5.5 -17.5l-11.5 -20t-19.5 -25.5t-28.5 -21.5t-37.5 -9q-20 0 -34.5 8.5t-27 19l-24 19.5t-23.5 9q-14 0 -21 -9.5t-13 -19t-12.5 -15.5t-17.5 1z" />
    <glyph glyph-name="Idieresis" unicode="&#xcf;" horiz-adv-x="313" 
d="M91 681q0 8 5.5 13.5t13.5 5.5h93q8 0 13.5 -5.5t5.5 -13.5v-662q0 -8 -5.5 -13.5t-13.5 -5.5h-93q-8 0 -13.5 5.5t-5.5 13.5v662zM279 775q-26 0 -44.5 19t-18.5 45t18.5 44.5t44.5 18.5t45 -18.5t19 -44.5t-19 -45t-45 -19zM32 775q-26 0 -44.5 19t-18.5 45t18.5 44.5
t44.5 18.5t45 -18.5t19 -44.5t-19 -45t-45 -19z" />
    <glyph glyph-name="Imacron" unicode="&#x12a;" horiz-adv-x="313" 
d="M91 681q0 8 5.5 13.5t13.5 5.5h93q8 0 13.5 -5.5t5.5 -13.5v-662q0 -8 -5.5 -13.5t-13.5 -5.5h-93q-8 0 -13.5 5.5t-5.5 13.5v662zM29 808q-8 0 -13.5 5t-5.5 13v34q0 19 19 19h256q19 0 19 -19v-34q0 -8 -5.5 -13t-13.5 -5h-256z" />
    <glyph glyph-name="Idotaccent" unicode="&#x130;" horiz-adv-x="313" 
d="M91 681q0 8 5.5 13.5t13.5 5.5h93q8 0 13.5 -5.5t5.5 -13.5v-662q0 -8 -5.5 -13.5t-13.5 -5.5h-93q-8 0 -13.5 5.5t-5.5 13.5v662zM157 781q-30 0 -51 21t-21 51t21 51t51 21t51 -21t21 -51t-21 -51t-51 -21z" />
    <glyph glyph-name="Iogonek" unicode="&#x12e;" horiz-adv-x="313" 
d="M91 681q0 8 5.5 13.5t13.5 5.5h93q8 0 13.5 -5.5t5.5 -13.5v-662q0 -8 -5.5 -13.5t-13.5 -5.5h-18q-14 -14 -29.5 -39t-15.5 -57q0 -26 17 -45t49 -19q15 0 26 3.5t20 5.5q8 2 14 -3t6 -14v-30q0 -7 -4.5 -12t-9.5 -7q-3 -1 -23 -5.5t-43 -4.5q-26 0 -49 6.5t-40.5 20
t-27.5 34.5t-10 49q0 21 5.5 39t13.5 33t18 26t18 19h-10q-8 0 -13.5 5.5t-5.5 13.5v662z" />
    <glyph glyph-name="Jcircumflex" unicode="&#x134;" horiz-adv-x="418" 
d="M-16 63q-8 13 2 25l52 53q15 14 30 -1q10 -11 25.5 -21.5t40.5 -10.5q15 0 29 6t25.5 18.5t18.5 31.5t7 45v472q0 8 5.5 13.5t13.5 5.5h94q8 0 13.5 -5.5t5.5 -13.5v-472q0 -52 -16.5 -93t-45 -69t-66.5 -42.5t-82 -14.5q-33 0 -58.5 8.5t-44 20t-31 24t-18.5 20.5z
M184 766q-9 -5 -13.5 -4t-9.5 7l-26 37q-4 5 -1.5 10.5t7.5 8.5l130 101q10 8 21 0l130 -101q5 -3 7.5 -8.5t-1.5 -10.5l-26 -37q-5 -6 -9.5 -7t-13.5 4l-97 61z" />
    <glyph glyph-name="Kcommaaccent" unicode="&#x136;" horiz-adv-x="655" 
d="M91 676q0 10 6.5 17t17.5 7h88q10 0 17 -7t7 -17v-270l252 284q3 4 7.5 7t11.5 3h100q14 0 20 -12.5t-4 -23.5l-261 -294l280 -335q8 -10 2.5 -22.5t-20.5 -12.5h-109q-8 0 -12 2.5t-6 4.5l-261 322v-305q0 -10 -7 -17t-17 -7h-88q-11 0 -17.5 7t-6.5 17v652zM349 -91
q13 0 28 -5t27 -17.5t20 -33t8 -51.5q0 -37 -10.5 -66.5t-25 -52t-29.5 -38t-25 -24.5q-13 -10 -23 1l-15 14q-5 5 -3.5 11.5t6.5 11.5q4 3 15 12.5t22.5 25t21 37t9.5 47.5q-1 0 -9.5 -2.5t-21.5 -2.5q-27 0 -47 19t-20 47t20.5 47.5t51.5 19.5z" />
    <glyph glyph-name="Lacute" unicode="&#x139;" horiz-adv-x="505" 
d="M91 681q0 8 5.5 13.5t13.5 5.5h92q8 0 13.5 -5.5t5.5 -13.5v-561h255q8 0 13.5 -5.5t5.5 -13.5v-82q0 -8 -5.5 -13.5t-13.5 -5.5h-366q-8 0 -13.5 5.5t-5.5 13.5v662zM85 768q-11 -5 -16.5 -2.5t-8.5 9.5l-18 35q-3 6 -0.5 11.5t6.5 7.5l164 98q18 11 26 -3l28 -52
q5 -9 3 -16.5t-9 -10.5z" />
    <glyph glyph-name="Lcaron" unicode="&#x13d;" horiz-adv-x="505" 
d="M91 681q0 8 5.5 13.5t13.5 5.5h92q8 0 13.5 -5.5t5.5 -13.5v-561h255q8 0 13.5 -5.5t5.5 -13.5v-82q0 -8 -5.5 -13.5t-13.5 -5.5h-366q-8 0 -13.5 5.5t-5.5 13.5v662zM397 710q13 0 28 -5t27 -17.5t20 -33t8 -51.5q0 -37 -10.5 -66.5t-25 -52t-29.5 -38t-25 -24.5
q-13 -10 -23 1l-15 14q-5 5 -3.5 11.5t6.5 11.5q4 3 15 12.5t22.5 25t21 37t9.5 47.5q-1 0 -9.5 -2.5t-21.5 -2.5q-27 0 -47 19t-20 47t20.5 47.5t51.5 19.5z" />
    <glyph glyph-name="Lcommaaccent" unicode="&#x13b;" horiz-adv-x="506" 
d="M91 681q0 8 5.5 13.5t13.5 5.5h92q8 0 13.5 -5.5t5.5 -13.5v-561h255q8 0 13.5 -5.5t5.5 -13.5v-82q0 -8 -5.5 -13.5t-13.5 -5.5h-366q-8 0 -13.5 5.5t-5.5 13.5v662zM292 -91q13 0 28 -5t27 -17.5t20 -33t8 -51.5q0 -37 -10.5 -66.5t-25 -52t-29.5 -38t-25 -24.5
q-13 -10 -23 1l-15 14q-5 5 -3.5 11.5t6.5 11.5q4 3 15 12.5t22.5 25t21 37t9.5 47.5q-1 0 -9.5 -2.5t-21.5 -2.5q-27 0 -47 19t-20 47t20.5 47.5t51.5 19.5z" />
    <glyph glyph-name="Lslash" unicode="&#x141;" horiz-adv-x="518" 
d="M104 306l-23 -12q-6 -4 -13.5 -2t-11.5 9l-7 12q-4 6 -2.5 13.5t8.5 11.5l49 27v316q0 8 5.5 13.5t13.5 5.5h92q8 0 13.5 -5.5t5.5 -13.5v-240l87 51q8 4 15 1.5t11 -8.5l7 -13q4 -6 2 -13t-9 -12l-113 -66v-261h255q8 0 13.5 -5.5t5.5 -13.5v-82q0 -8 -5.5 -13.5
t-13.5 -5.5h-366q-8 0 -13.5 5.5t-5.5 13.5v287z" />
    <glyph glyph-name="Ldot" unicode="&#x13f;" horiz-adv-x="577" 
d="M91 681q0 8 5.5 13.5t13.5 5.5h92q8 0 13.5 -5.5t5.5 -13.5v-561h255q8 0 13.5 -5.5t5.5 -13.5v-82q0 -8 -5.5 -13.5t-13.5 -5.5h-366q-8 0 -13.5 5.5t-5.5 13.5v662zM481 284q-30 0 -51 21t-21 51t21 51t51 21t51 -21t21 -51t-21 -51t-51 -21z" />
    <glyph glyph-name="Nacute" unicode="&#x143;" horiz-adv-x="773" 
d="M91 692q0 8 5.5 13t13.5 5h25l416 -442h1v413q0 8 5.5 13.5t13.5 5.5h92q8 0 13.5 -5.5t5.5 -13.5v-673q0 -8 -5.5 -13t-13.5 -5h-24l-418 459h-1v-430q0 -8 -5.5 -13.5t-13.5 -5.5h-91q-8 0 -13.5 5.5t-5.5 13.5v673zM319 768q-11 -5 -16.5 -2.5t-8.5 9.5l-18 35
q-3 6 -0.5 11.5t6.5 7.5l164 98q18 11 26 -3l28 -52q5 -9 3 -16.5t-9 -10.5z" />
    <glyph glyph-name="Ncaron" unicode="&#x147;" horiz-adv-x="773" 
d="M91 692q0 8 5.5 13t13.5 5h25l416 -442h1v413q0 8 5.5 13.5t13.5 5.5h92q8 0 13.5 -5.5t5.5 -13.5v-673q0 -8 -5.5 -13t-13.5 -5h-24l-418 459h-1v-430q0 -8 -5.5 -13.5t-13.5 -5.5h-91q-8 0 -13.5 5.5t-5.5 13.5v673zM244 865q-5 3 -7.5 8.5t1.5 10.5l26 37q5 6 9.5 7
t13.5 -4l97 -61l98 61q9 5 13.5 4t9.5 -7l26 -37q4 -5 1.5 -10.5t-7.5 -8.5l-130 -101q-10 -8 -21 0z" />
    <glyph glyph-name="Ntilde" unicode="&#xd1;" horiz-adv-x="773" 
d="M91 692q0 8 5.5 13t13.5 5h25l416 -442h1v413q0 8 5.5 13.5t13.5 5.5h92q8 0 13.5 -5.5t5.5 -13.5v-673q0 -8 -5.5 -13t-13.5 -5h-24l-418 459h-1v-430q0 -8 -5.5 -13.5t-13.5 -5.5h-91q-8 0 -13.5 5.5t-5.5 13.5v673zM237 810q-5 4 -6.5 11t0.5 12l12 21t21 28
t30.5 24.5t40.5 10.5q19 0 33 -8.5t25.5 -19t23 -19t25.5 -8.5q13 0 21 9.5t14 19t12.5 15t17.5 -2.5l28 -20q7 -5 6.5 -13.5t-5.5 -17.5l-11.5 -20t-19.5 -25.5t-28.5 -21.5t-37.5 -9q-20 0 -34.5 8.5t-27 19l-24 19.5t-23.5 9q-14 0 -21 -9.5t-13 -19t-12.5 -15.5t-17.5 1
z" />
    <glyph glyph-name="Ncommaaccent" unicode="&#x145;" horiz-adv-x="773" 
d="M91 692q0 8 5.5 13t13.5 5h25l416 -442h1v413q0 8 5.5 13.5t13.5 5.5h92q8 0 13.5 -5.5t5.5 -13.5v-673q0 -8 -5.5 -13t-13.5 -5h-24l-418 459h-1v-430q0 -8 -5.5 -13.5t-13.5 -5.5h-91q-8 0 -13.5 5.5t-5.5 13.5v673zM399 -91q13 0 28 -5t27 -17.5t20 -33t8 -51.5
q0 -37 -10.5 -66.5t-25 -52t-29.5 -38t-25 -24.5q-13 -10 -23 1l-15 14q-5 5 -3.5 11.5t6.5 11.5q4 3 15 12.5t22.5 25t21 37t9.5 47.5q-1 0 -9.5 -2.5t-21.5 -2.5q-27 0 -47 19t-20 47t20.5 47.5t51.5 19.5z" />
    <glyph glyph-name="Ograve" unicode="&#xd2;" horiz-adv-x="800" 
d="M41 349q0 75 28 141t76.5 114.5t114 77t140.5 28.5t140.5 -28.5t114.5 -77t77 -114.5t28 -141t-28 -140.5t-77 -114t-114.5 -76.5t-140.5 -28t-140.5 28t-114 76.5t-76.5 114t-28 140.5zM171 349q0 -47 18 -89t49 -73t73 -49t89 -18t89 18t73.5 49t49.5 73t18 89t-18 89
t-49.5 73.5t-73.5 50t-89 18.5t-89 -18.5t-73 -50t-49 -73.5t-18 -89zM298 845q-7 3 -9 10.5t3 16.5l28 52q4 7 12 7t14 -4l164 -98q4 -2 6.5 -7.5t-0.5 -11.5l-18 -35q-3 -7 -8.5 -9.5t-16.5 2.5z" />
    <glyph glyph-name="Oacute" unicode="&#xd3;" horiz-adv-x="800" 
d="M41 349q0 75 28 141t76.5 114.5t114 77t140.5 28.5t140.5 -28.5t114.5 -77t77 -114.5t28 -141t-28 -140.5t-77 -114t-114.5 -76.5t-140.5 -28t-140.5 28t-114 76.5t-76.5 114t-28 140.5zM171 349q0 -47 18 -89t49 -73t73 -49t89 -18t89 18t73.5 49t49.5 73t18 89t-18 89
t-49.5 73.5t-73.5 50t-89 18.5t-89 -18.5t-73 -50t-49 -73.5t-18 -89zM331 768q-11 -5 -16.5 -2.5t-8.5 9.5l-18 35q-3 6 -0.5 11.5t6.5 7.5l164 98q18 11 26 -3l28 -52q5 -9 3 -16.5t-9 -10.5z" />
    <glyph glyph-name="Ocircumflex" unicode="&#xd4;" horiz-adv-x="800" 
d="M41 349q0 75 28 141t76.5 114.5t114 77t140.5 28.5t140.5 -28.5t114.5 -77t77 -114.5t28 -141t-28 -140.5t-77 -114t-114.5 -76.5t-140.5 -28t-140.5 28t-114 76.5t-76.5 114t-28 140.5zM171 349q0 -47 18 -89t49 -73t73 -49t89 -18t89 18t73.5 49t49.5 73t18 89t-18 89
t-49.5 73.5t-73.5 50t-89 18.5t-89 -18.5t-73 -50t-49 -73.5t-18 -89zM302 766q-9 -5 -13.5 -4t-9.5 7l-26 37q-4 5 -1.5 10.5t7.5 8.5l130 101q10 8 21 0l130 -101q5 -3 7.5 -8.5t-1.5 -10.5l-26 -37q-5 -6 -9.5 -7t-13.5 4l-97 61z" />
    <glyph glyph-name="Otilde" unicode="&#xd5;" horiz-adv-x="800" 
d="M41 349q0 75 28 141t76.5 114.5t114 77t140.5 28.5t140.5 -28.5t114.5 -77t77 -114.5t28 -141t-28 -140.5t-77 -114t-114.5 -76.5t-140.5 -28t-140.5 28t-114 76.5t-76.5 114t-28 140.5zM171 349q0 -47 18 -89t49 -73t73 -49t89 -18t89 18t73.5 49t49.5 73t18 89t-18 89
t-49.5 73.5t-73.5 50t-89 18.5t-89 -18.5t-73 -50t-49 -73.5t-18 -89zM252 810q-5 4 -6.5 11t0.5 12l12 21t21 28t30.5 24.5t40.5 10.5q19 0 33 -8.5t25.5 -19t23 -19t25.5 -8.5q13 0 21 9.5t14 19t12.5 15t17.5 -2.5l28 -20q7 -5 6.5 -13.5t-5.5 -17.5l-11.5 -20
t-19.5 -25.5t-28.5 -21.5t-37.5 -9q-20 0 -34.5 8.5t-27 19l-24 19.5t-23.5 9q-14 0 -21 -9.5t-13 -19t-12.5 -15.5t-17.5 1z" />
    <glyph glyph-name="Odieresis" unicode="&#xd6;" horiz-adv-x="800" 
d="M41 349q0 75 28 141t76.5 114.5t114 77t140.5 28.5t140.5 -28.5t114.5 -77t77 -114.5t28 -141t-28 -140.5t-77 -114t-114.5 -76.5t-140.5 -28t-140.5 28t-114 76.5t-76.5 114t-28 140.5zM171 349q0 -47 18 -89t49 -73t73 -49t89 -18t89 18t73.5 49t49.5 73t18 89t-18 89
t-49.5 73.5t-73.5 50t-89 18.5t-89 -18.5t-73 -50t-49 -73.5t-18 -89zM523 775q-26 0 -44.5 19t-18.5 45t18.5 44.5t44.5 18.5t45 -18.5t19 -44.5t-19 -45t-45 -19zM276 775q-26 0 -44.5 19t-18.5 45t18.5 44.5t44.5 18.5t45 -18.5t19 -44.5t-19 -45t-45 -19z" />
    <glyph glyph-name="Omacron" unicode="&#x14c;" horiz-adv-x="800" 
d="M41 349q0 75 28 141t76.5 114.5t114 77t140.5 28.5t140.5 -28.5t114.5 -77t77 -114.5t28 -141t-28 -140.5t-77 -114t-114.5 -76.5t-140.5 -28t-140.5 28t-114 76.5t-76.5 114t-28 140.5zM171 349q0 -47 18 -89t49 -73t73 -49t89 -18t89 18t73.5 49t49.5 73t18 89t-18 89
t-49.5 73.5t-73.5 50t-89 18.5t-89 -18.5t-73 -50t-49 -73.5t-18 -89zM272 808q-8 0 -13.5 5t-5.5 13v34q0 19 19 19h256q19 0 19 -19v-34q0 -8 -5.5 -13t-13.5 -5h-256z" />
    <glyph glyph-name="Obreve" unicode="&#x14e;" horiz-adv-x="800" 
d="M41 349q0 75 28 141t76.5 114.5t114 77t140.5 28.5t140.5 -28.5t114.5 -77t77 -114.5t28 -141t-28 -140.5t-77 -114t-114.5 -76.5t-140.5 -28t-140.5 28t-114 76.5t-76.5 114t-28 140.5zM171 349q0 -47 18 -89t49 -73t73 -49t89 -18t89 18t73.5 49t49.5 73t18 89t-18 89
t-49.5 73.5t-73.5 50t-89 18.5t-89 -18.5t-73 -50t-49 -73.5t-18 -89zM400 766q-27 0 -51 9t-42.5 25t-30.5 37.5t-16 46.5q-2 8 3 14.5t15 6.5h37q7 0 11 -4.5t6 -9.5q8 -23 25.5 -38t42.5 -15q23 0 40.5 16.5t25.5 36.5q2 7 7 10.5t10 3.5h39q9 0 14 -6.5t4 -14.5
q-4 -25 -16.5 -46.5t-31 -37.5t-42 -25t-50.5 -9z" />
    <glyph glyph-name="Ohungarumlaut" unicode="&#x150;" horiz-adv-x="800" 
d="M41 349q0 75 28 141t76.5 114.5t114 77t140.5 28.5t140.5 -28.5t114.5 -77t77 -114.5t28 -141t-28 -140.5t-77 -114t-114.5 -76.5t-140.5 -28t-140.5 28t-114 76.5t-76.5 114t-28 140.5zM171 349q0 -47 18 -89t49 -73t73 -49t89 -18t89 18t73.5 49t49.5 73t18 89t-18 89
t-49.5 73.5t-73.5 50t-89 18.5t-89 -18.5t-73 -50t-49 -73.5t-18 -89zM479 768q-12 0 -16.5 5.5t-2.5 13.5l37 141q2 8 6.5 13.5t12.5 5.5h76q14 0 18.5 -8t-0.5 -17l-78 -139q-3 -6 -8 -10.5t-10 -4.5h-35zM313 768q-12 0 -16.5 5.5t-2.5 13.5l37 141q2 8 6.5 13.5
t12.5 5.5h76q14 0 18.5 -7.5t-0.5 -17.5l-78 -139q-3 -6 -8 -10.5t-10 -4.5h-35z" />
    <glyph glyph-name="Oslash" unicode="&#xd8;" horiz-adv-x="799" 
d="M63 23q-5 5 -5.5 13t4.5 13l65 64q-41 48 -63.5 107.5t-22.5 128.5q0 75 28 141t76.5 114.5t114 77t140.5 28.5q68 0 128 -23.5t108 -64.5l68 67q5 5 13 5t13 -5l10 -10q12 -12 0 -26l-68 -68q41 -48 64.5 -107.5t23.5 -127.5q0 -75 -28 -140.5t-77 -114.5t-114.5 -77
t-140.5 -28q-69 0 -129 22.5t-107 64.5l-65 -65q-5 -5 -13 -4.5t-13 5.5zM544 529q-30 23 -66.5 37t-77.5 14q-47 0 -89 -18.5t-73 -50t-49 -73.5t-18 -89q0 -41 13.5 -77t36.5 -65zM257 170q29 -23 65.5 -36.5t77.5 -13.5q47 0 89 18t73.5 49.5t49.5 73.5t18 89
q0 41 -13.5 77t-37.5 65z" />
    <glyph glyph-name="Oslashacute" unicode="&#x1fe;" horiz-adv-x="799" 
d="M63 23q-5 5 -5.5 13t4.5 13l65 64q-41 48 -63.5 107.5t-22.5 128.5q0 75 28 141t76.5 114.5t114 77t140.5 28.5q68 0 128 -23.5t108 -64.5l68 67q5 5 13 5t13 -5l10 -10q12 -12 0 -26l-68 -68q41 -48 64.5 -107.5t23.5 -127.5q0 -75 -28 -140.5t-77 -114.5t-114.5 -77
t-140.5 -28q-69 0 -129 22.5t-107 64.5l-65 -65q-5 -5 -13 -4.5t-13 5.5zM544 529q-30 23 -66.5 37t-77.5 14q-47 0 -89 -18.5t-73 -50t-49 -73.5t-18 -89q0 -41 13.5 -77t36.5 -65zM257 170q29 -23 65.5 -36.5t77.5 -13.5q47 0 89 18t73.5 49.5t49.5 73.5t18 89
q0 41 -13.5 77t-37.5 65zM330 768q-11 -5 -16.5 -2.5t-8.5 9.5l-18 35q-3 6 -0.5 11.5t6.5 7.5l164 98q18 11 26 -3l28 -52q5 -9 3 -16.5t-9 -10.5z" />
    <glyph glyph-name="OE" unicode="&#x152;" horiz-adv-x="975" 
d="M41 349q0 75 28 141t76.5 114.5t114 77t140.5 28.5q20 0 37.5 -1.5t31.5 -3.5q15 -3 28 -5h407q8 0 13.5 -5.5t5.5 -13.5v-82q0 -8 -5.5 -13.5t-13.5 -5.5h-296v-164h247q8 0 13.5 -5.5t5.5 -13.5v-83q0 -8 -5.5 -13.5t-13.5 -5.5h-247v-175h296q8 0 13.5 -5.5t5.5 -13.5
v-82q0 -8 -5.5 -13.5t-13.5 -5.5h-407q-16 -3 -33 -5q-14 -2 -31.5 -3.5t-32.5 -1.5q-75 0 -140.5 28t-114 76.5t-76.5 114t-28 140.5zM171 349q0 -47 18 -89t49 -73.5t73 -50t89 -18.5q20 0 39.5 2.5t38.5 10.5v437q-39 14 -78 14q-47 0 -89 -18.5t-73 -50.5t-49 -74.5
t-18 -89.5z" />
    <glyph glyph-name="Racute" unicode="&#x154;" horiz-adv-x="666" 
d="M91 681q0 8 5.5 13.5t13.5 5.5h286q45 0 84.5 -17t69.5 -46t47 -68t17 -84q0 -35 -11 -65.5t-30.5 -56.5t-46.5 -46.5t-60 -33.5l137 -254q5 -10 0.5 -19.5t-17.5 -9.5h-105q-7 0 -10.5 3t-5.5 6l-133 265h-111v-255q0 -8 -5.5 -13.5t-13.5 -5.5h-92q-8 0 -13.5 5.5
t-5.5 13.5v662zM385 381q20 0 38 8t31.5 22t21.5 32.5t8 39.5q0 20 -8 37.5t-21.5 31t-31.5 21t-38 7.5h-163v-199h163zM258 768q-11 -5 -16.5 -2.5t-8.5 9.5l-18 35q-3 6 -0.5 11.5t6.5 7.5l164 98q18 11 26 -3l28 -52q5 -9 3 -16.5t-9 -10.5z" />
    <glyph glyph-name="Rcaron" unicode="&#x158;" horiz-adv-x="666" 
d="M91 681q0 8 5.5 13.5t13.5 5.5h286q45 0 84.5 -17t69.5 -46t47 -68t17 -84q0 -35 -11 -65.5t-30.5 -56.5t-46.5 -46.5t-60 -33.5l137 -254q5 -10 0.5 -19.5t-17.5 -9.5h-105q-7 0 -10.5 3t-5.5 6l-133 265h-111v-255q0 -8 -5.5 -13.5t-13.5 -5.5h-92q-8 0 -13.5 5.5
t-5.5 13.5v662zM385 381q20 0 38 8t31.5 22t21.5 32.5t8 39.5q0 20 -8 37.5t-21.5 31t-31.5 21t-38 7.5h-163v-199h163zM183 865q-5 3 -7.5 8.5t1.5 10.5l26 37q5 6 9.5 7t13.5 -4l97 -61l98 61q9 5 13.5 4t9.5 -7l26 -37q4 -5 1.5 -10.5t-7.5 -8.5l-130 -101q-10 -8 -21 0z
" />
    <glyph glyph-name="Rcommaaccent" unicode="&#x156;" horiz-adv-x="666" 
d="M91 681q0 8 5.5 13.5t13.5 5.5h286q45 0 84.5 -17t69.5 -46t47 -68t17 -84q0 -35 -11 -65.5t-30.5 -56.5t-46.5 -46.5t-60 -33.5l137 -254q5 -10 0.5 -19.5t-17.5 -9.5h-105q-7 0 -10.5 3t-5.5 6l-133 265h-111v-255q0 -8 -5.5 -13.5t-13.5 -5.5h-92q-8 0 -13.5 5.5
t-5.5 13.5v662zM385 381q20 0 38 8t31.5 22t21.5 32.5t8 39.5q0 20 -8 37.5t-21.5 31t-31.5 21t-38 7.5h-163v-199h163zM338 -91q13 0 28 -5t27 -17.5t20 -33t8 -51.5q0 -37 -10.5 -66.5t-25 -52t-29.5 -38t-25 -24.5q-13 -10 -23 1l-15 14q-5 5 -3.5 11.5t6.5 11.5
q4 3 15 12.5t22.5 25t21 37t9.5 47.5q-1 0 -9.5 -2.5t-21.5 -2.5q-27 0 -47 19t-20 47t20.5 47.5t51.5 19.5z" />
    <glyph glyph-name="Sacute" unicode="&#x15a;" horiz-adv-x="542" 
d="M55 68q-7 7 -9.5 12.5t4.5 17.5l36 62q6 11 16.5 11.5t17.5 -4.5q2 -1 16.5 -11t36.5 -21t48 -20.5t50 -9.5q39 0 65 22.5t26 54.5q0 38 -32 66t-95 54q-35 14 -69 33t-60.5 45t-42.5 60t-16 78q0 33 13 67.5t40 62t69.5 45t102.5 17.5q38 0 71.5 -8.5t59.5 -19.5
t43.5 -22t25.5 -17q8 -5 9.5 -15t-3.5 -18l-38 -57q-6 -9 -16 -13.5t-19 1.5q-3 2 -17.5 11t-34.5 18.5t-43 17.5t-44 8q-43 0 -65.5 -23t-22.5 -47q0 -35 28.5 -61t89.5 -51q36 -15 73.5 -34t67.5 -45.5t49 -62.5t19 -84q0 -39 -16 -74.5t-46 -63t-72.5 -44t-95.5 -16.5
q-47 0 -84.5 9.5t-65 22.5t-45.5 26t-25 20zM203 768q-11 -5 -16.5 -2.5t-8.5 9.5l-18 35q-3 6 -0.5 11.5t6.5 7.5l164 98q18 11 26 -3l28 -52q5 -9 3 -16.5t-9 -10.5z" />
    <glyph glyph-name="Scircumflex" unicode="&#x15c;" horiz-adv-x="542" 
d="M55 68q-7 7 -9.5 12.5t4.5 17.5l36 62q6 11 16.5 11.5t17.5 -4.5q2 -1 16.5 -11t36.5 -21t48 -20.5t50 -9.5q39 0 65 22.5t26 54.5q0 38 -32 66t-95 54q-35 14 -69 33t-60.5 45t-42.5 60t-16 78q0 33 13 67.5t40 62t69.5 45t102.5 17.5q38 0 71.5 -8.5t59.5 -19.5
t43.5 -22t25.5 -17q8 -5 9.5 -15t-3.5 -18l-38 -57q-6 -9 -16 -13.5t-19 1.5q-3 2 -17.5 11t-34.5 18.5t-43 17.5t-44 8q-43 0 -65.5 -23t-22.5 -47q0 -35 28.5 -61t89.5 -51q36 -15 73.5 -34t67.5 -45.5t49 -62.5t19 -84q0 -39 -16 -74.5t-46 -63t-72.5 -44t-95.5 -16.5
q-47 0 -84.5 9.5t-65 22.5t-45.5 26t-25 20zM173 766q-9 -5 -13.5 -4t-9.5 7l-26 37q-4 5 -1.5 10.5t7.5 8.5l130 101q10 8 21 0l130 -101q5 -3 7.5 -8.5t-1.5 -10.5l-26 -37q-5 -6 -9.5 -7t-13.5 4l-97 61z" />
    <glyph glyph-name="Scaron" unicode="&#x160;" horiz-adv-x="542" 
d="M55 68q-7 7 -9.5 12.5t4.5 17.5l36 62q6 11 16.5 11.5t17.5 -4.5q2 -1 16.5 -11t36.5 -21t48 -20.5t50 -9.5q39 0 65 22.5t26 54.5q0 38 -32 66t-95 54q-35 14 -69 33t-60.5 45t-42.5 60t-16 78q0 33 13 67.5t40 62t69.5 45t102.5 17.5q38 0 71.5 -8.5t59.5 -19.5
t43.5 -22t25.5 -17q8 -5 9.5 -15t-3.5 -18l-38 -57q-6 -9 -16 -13.5t-19 1.5q-3 2 -17.5 11t-34.5 18.5t-43 17.5t-44 8q-43 0 -65.5 -23t-22.5 -47q0 -35 28.5 -61t89.5 -51q36 -15 73.5 -34t67.5 -45.5t49 -62.5t19 -84q0 -39 -16 -74.5t-46 -63t-72.5 -44t-95.5 -16.5
q-47 0 -84.5 9.5t-65 22.5t-45.5 26t-25 20zM131 865q-5 3 -7.5 8.5t1.5 10.5l26 37q5 6 9.5 7t13.5 -4l97 -61l98 61q9 5 13.5 4t9.5 -7l26 -37q4 -5 1.5 -10.5t-7.5 -8.5l-130 -101q-10 -8 -21 0z" />
    <glyph glyph-name="Scedilla" unicode="&#x15e;" horiz-adv-x="543" 
d="M55 68q-7 7 -9.5 12.5t4.5 17.5l36 62q6 11 16.5 11.5t17.5 -4.5q2 -1 16.5 -11t36.5 -21t48 -20.5t50 -9.5q39 0 65 22.5t26 54.5q0 38 -32 66t-95 54q-35 14 -69 33t-60.5 45t-42.5 60t-16 78q0 33 13 67.5t40 62t69.5 45t102.5 17.5q38 0 71.5 -8.5t59.5 -19.5
t43.5 -22t25.5 -17q8 -5 9.5 -15t-3.5 -18l-38 -57q-6 -9 -16 -13.5t-19 1.5q-3 2 -17.5 11t-34.5 18.5t-43 17.5t-44 8q-43 0 -65.5 -23t-22.5 -47q0 -35 28.5 -61t89.5 -51q36 -15 73.5 -34t67.5 -45.5t49 -62.5t19 -84q0 -38 -16 -73.5t-45 -63t-70.5 -44t-93.5 -17.5
v-42q46 -6 71.5 -33.5t25.5 -69.5q0 -22 -8.5 -41t-22.5 -33.5t-33.5 -22.5t-41.5 -8q-23 0 -43 10t-33 25q-6 7 -5 14.5t8 13.5l20 17q5 5 11 4.5t10 -5.5q6 -7 14.5 -9.5t15.5 -2.5q15 0 25 11t10 26q0 18 -17 32t-56 17q-11 2 -14 8t-3 10v84q-33 5 -60 15t-47 21t-33 21
t-19 16z" />
    <glyph glyph-name="Scommaaccent" unicode="&#x218;" horiz-adv-x="542" 
d="M55 68q-7 7 -9.5 12.5t4.5 17.5l36 62q6 11 16.5 11.5t17.5 -4.5q2 -1 16.5 -11t36.5 -21t48 -20.5t50 -9.5q39 0 65 22.5t26 54.5q0 38 -32 66t-95 54q-35 14 -69 33t-60.5 45t-42.5 60t-16 78q0 33 13 67.5t40 62t69.5 45t102.5 17.5q38 0 71.5 -8.5t59.5 -19.5
t43.5 -22t25.5 -17q8 -5 9.5 -15t-3.5 -18l-38 -57q-6 -9 -16 -13.5t-19 1.5q-3 2 -17.5 11t-34.5 18.5t-43 17.5t-44 8q-43 0 -65.5 -23t-22.5 -47q0 -35 28.5 -61t89.5 -51q36 -15 73.5 -34t67.5 -45.5t49 -62.5t19 -84q0 -39 -16 -74.5t-46 -63t-72.5 -44t-95.5 -16.5
q-47 0 -84.5 9.5t-65 22.5t-45.5 26t-25 20zM275 -91q13 0 28 -5t27 -17.5t20 -33t8 -51.5q0 -37 -10.5 -66.5t-25 -52t-29.5 -38t-25 -24.5q-13 -10 -23 1l-15 14q-5 5 -3.5 11.5t6.5 11.5q4 3 15 12.5t22.5 25t21 37t9.5 47.5q-1 0 -9.5 -2.5t-21.5 -2.5q-27 0 -47 19
t-20 47t20.5 47.5t51.5 19.5z" />
    <glyph glyph-name="Tcaron" unicode="&#x164;" horiz-adv-x="501" 
d="M185 580h-153q-8 0 -13.5 5.5t-5.5 13.5v82q0 8 5.5 13.5t13.5 5.5h437q8 0 13.5 -5.5t5.5 -13.5v-82q0 -8 -5.5 -13.5t-13.5 -5.5h-153v-561q0 -8 -5.5 -13.5t-13.5 -5.5h-93q-8 0 -13.5 5.5t-5.5 13.5v561zM109 865q-5 3 -7.5 8.5t1.5 10.5l26 37q5 6 9.5 7t13.5 -4
l97 -61l98 61q9 5 13.5 4t9.5 -7l26 -37q4 -5 1.5 -10.5t-7.5 -8.5l-130 -101q-10 -8 -21 0z" />
    <glyph glyph-name="Tcommaaccent" unicode="&#x162;" horiz-adv-x="501" 
d="M185 580h-153q-8 0 -13.5 5.5t-5.5 13.5v82q0 8 5.5 13.5t13.5 5.5h437q8 0 13.5 -5.5t5.5 -13.5v-82q0 -8 -5.5 -13.5t-13.5 -5.5h-153v-561q0 -8 -5.5 -13.5t-13.5 -5.5h-93q-8 0 -13.5 5.5t-5.5 13.5v561zM245 -91q13 0 28 -5t27 -17.5t20 -33t8 -51.5
q0 -37 -10.5 -66.5t-25 -52t-29.5 -38t-25 -24.5q-13 -10 -23 1l-15 14q-5 5 -3.5 11.5t6.5 11.5q4 3 15 12.5t22.5 25t21 37t9.5 47.5q-1 0 -9.5 -2.5t-21.5 -2.5q-27 0 -47 19t-20 47t20.5 47.5t51.5 19.5z" />
    <glyph glyph-name="uni021A" unicode="&#x21a;" horiz-adv-x="501" 
d="M185 580h-153q-8 0 -13.5 5.5t-5.5 13.5v82q0 8 5.5 13.5t13.5 5.5h437q8 0 13.5 -5.5t5.5 -13.5v-82q0 -8 -5.5 -13.5t-13.5 -5.5h-153v-561q0 -8 -5.5 -13.5t-13.5 -5.5h-93q-8 0 -13.5 5.5t-5.5 13.5v561zM246 -91q13 0 28 -5t27 -17.5t20 -33t8 -51.5
q0 -37 -10.5 -66.5t-25 -52t-29.5 -38t-25 -24.5q-13 -10 -23 1l-15 14q-5 5 -3.5 11.5t6.5 11.5q4 3 15 12.5t22.5 25t21 37t9.5 47.5q-1 0 -9.5 -2.5t-21.5 -2.5q-27 0 -47 19t-20 47t20.5 47.5t51.5 19.5z" />
    <glyph glyph-name="Tbar" unicode="&#x166;" horiz-adv-x="501" 
d="M185 291h-94q-8 0 -13 5.5t-5 13.5v13q0 8 5 13.5t13 5.5h94v238h-153q-8 0 -13.5 5.5t-5.5 13.5v82q0 8 5.5 13.5t13.5 5.5h437q8 0 13.5 -5.5t5.5 -13.5v-82q0 -8 -5.5 -13.5t-13.5 -5.5h-153v-238h98q8 0 13.5 -5.5t5.5 -13.5v-14q0 -8 -5.5 -13t-13.5 -5h-98v-272
q0 -8 -5.5 -13.5t-13.5 -5.5h-93q-8 0 -13.5 5.5t-5.5 13.5v272z" />
    <glyph glyph-name="Thorn" unicode="&#xde;" horiz-adv-x="591" 
d="M91 681q0 8 5.5 13.5t13.5 5.5h92q8 0 13.5 -5.5t5.5 -13.5v-108h124q46 0 87 -17.5t71.5 -47.5t48 -70.5t17.5 -85.5q0 -47 -17.5 -87.5t-48 -71.5t-71 -48.5t-86.5 -17.5h-125v-108q0 -8 -5.5 -13.5t-13.5 -5.5h-92q-8 0 -13.5 5.5t-5.5 13.5v662zM337 249q21 0 39.5 8
t33 22t22.5 33t8 41q0 21 -8 38.5t-22.5 30.5t-33 20.5t-39.5 7.5h-116v-201h116z" />
    <glyph glyph-name="Ugrave" unicode="&#xd9;" horiz-adv-x="721" 
d="M82 681q0 8 5.5 13.5t13.5 5.5h95q8 0 13.5 -5.5t5.5 -13.5v-409q0 -32 10.5 -59.5t29.5 -48t45.5 -32.5t59.5 -12t59.5 12t46 32t30 47.5t10.5 59.5v410q0 8 5.5 13.5t13.5 5.5h95q8 0 13.5 -5.5t5.5 -13.5v-416q0 -57 -21.5 -107t-59 -87.5t-88.5 -59t-110 -21.5
t-109.5 21.5t-88 59t-59 87.5t-21.5 107v416zM255 845q-7 3 -9 10.5t3 16.5l28 52q4 7 12 7t14 -4l164 -98q4 -2 6.5 -7.5t-0.5 -11.5l-18 -35q-3 -7 -8.5 -9.5t-16.5 2.5z" />
    <glyph glyph-name="Uacute" unicode="&#xda;" horiz-adv-x="721" 
d="M82 681q0 8 5.5 13.5t13.5 5.5h95q8 0 13.5 -5.5t5.5 -13.5v-409q0 -32 10.5 -59.5t29.5 -48t45.5 -32.5t59.5 -12t59.5 12t46 32t30 47.5t10.5 59.5v410q0 8 5.5 13.5t13.5 5.5h95q8 0 13.5 -5.5t5.5 -13.5v-416q0 -57 -21.5 -107t-59 -87.5t-88.5 -59t-110 -21.5
t-109.5 21.5t-88 59t-59 87.5t-21.5 107v416zM292 768q-11 -5 -16.5 -2.5t-8.5 9.5l-18 35q-3 6 -0.5 11.5t6.5 7.5l164 98q18 11 26 -3l28 -52q5 -9 3 -16.5t-9 -10.5z" />
    <glyph glyph-name="Ucircumflex" unicode="&#xdb;" horiz-adv-x="721" 
d="M82 681q0 8 5.5 13.5t13.5 5.5h95q8 0 13.5 -5.5t5.5 -13.5v-409q0 -32 10.5 -59.5t29.5 -48t45.5 -32.5t59.5 -12t59.5 12t46 32t30 47.5t10.5 59.5v410q0 8 5.5 13.5t13.5 5.5h95q8 0 13.5 -5.5t5.5 -13.5v-416q0 -57 -21.5 -107t-59 -87.5t-88.5 -59t-110 -21.5
t-109.5 21.5t-88 59t-59 87.5t-21.5 107v416zM263 766q-9 -5 -13.5 -4t-9.5 7l-26 37q-4 5 -1.5 10.5t7.5 8.5l130 101q10 8 21 0l130 -101q5 -3 7.5 -8.5t-1.5 -10.5l-26 -37q-5 -6 -9.5 -7t-13.5 4l-97 61z" />
    <glyph glyph-name="Utilde" unicode="&#x168;" horiz-adv-x="721" 
d="M82 681q0 8 5.5 13.5t13.5 5.5h95q8 0 13.5 -5.5t5.5 -13.5v-409q0 -32 10.5 -59.5t29.5 -48t45.5 -32.5t59.5 -12t59.5 12t46 32t30 47.5t10.5 59.5v410q0 8 5.5 13.5t13.5 5.5h95q8 0 13.5 -5.5t5.5 -13.5v-416q0 -57 -21.5 -107t-59 -87.5t-88.5 -59t-110 -21.5
t-109.5 21.5t-88 59t-59 87.5t-21.5 107v416zM212 810q-5 4 -6.5 11t0.5 12l12 21t21 28t30.5 24.5t40.5 10.5q19 0 33 -8.5t25.5 -19t23 -19t25.5 -8.5q13 0 21 9.5t14 19t12.5 15t17.5 -2.5l28 -20q7 -5 6.5 -13.5t-5.5 -17.5l-11.5 -20t-19.5 -25.5t-28.5 -21.5t-37.5 -9
q-20 0 -34.5 8.5t-27 19l-24 19.5t-23.5 9q-14 0 -21 -9.5t-13 -19t-12.5 -15.5t-17.5 1z" />
    <glyph glyph-name="Udieresis" unicode="&#xdc;" horiz-adv-x="721" 
d="M82 681q0 8 5.5 13.5t13.5 5.5h95q8 0 13.5 -5.5t5.5 -13.5v-409q0 -32 10.5 -59.5t29.5 -48t45.5 -32.5t59.5 -12t59.5 12t46 32t30 47.5t10.5 59.5v410q0 8 5.5 13.5t13.5 5.5h95q8 0 13.5 -5.5t5.5 -13.5v-416q0 -57 -21.5 -107t-59 -87.5t-88.5 -59t-110 -21.5
t-109.5 21.5t-88 59t-59 87.5t-21.5 107v416zM483 775q-26 0 -44.5 19t-18.5 45t18.5 44.5t44.5 18.5t45 -18.5t19 -44.5t-19 -45t-45 -19zM236 775q-26 0 -44.5 19t-18.5 45t18.5 44.5t44.5 18.5t45 -18.5t19 -44.5t-19 -45t-45 -19z" />
    <glyph glyph-name="Umacron" unicode="&#x16a;" horiz-adv-x="721" 
d="M82 681q0 8 5.5 13.5t13.5 5.5h95q8 0 13.5 -5.5t5.5 -13.5v-409q0 -32 10.5 -59.5t29.5 -48t45.5 -32.5t59.5 -12t59.5 12t46 32t30 47.5t10.5 59.5v410q0 8 5.5 13.5t13.5 5.5h95q8 0 13.5 -5.5t5.5 -13.5v-416q0 -57 -21.5 -107t-59 -87.5t-88.5 -59t-110 -21.5
t-109.5 21.5t-88 59t-59 87.5t-21.5 107v416zM233 808q-8 0 -13.5 5t-5.5 13v34q0 19 19 19h256q19 0 19 -19v-34q0 -8 -5.5 -13t-13.5 -5h-256z" />
    <glyph glyph-name="Ubreve" unicode="&#x16c;" horiz-adv-x="721" 
d="M82 681q0 8 5.5 13.5t13.5 5.5h95q8 0 13.5 -5.5t5.5 -13.5v-409q0 -32 10.5 -59.5t29.5 -48t45.5 -32.5t59.5 -12t59.5 12t46 32t30 47.5t10.5 59.5v410q0 8 5.5 13.5t13.5 5.5h95q8 0 13.5 -5.5t5.5 -13.5v-416q0 -57 -21.5 -107t-59 -87.5t-88.5 -59t-110 -21.5
t-109.5 21.5t-88 59t-59 87.5t-21.5 107v416zM362 766q-27 0 -51 9t-42.5 25t-30.5 37.5t-16 46.5q-2 8 3 14.5t15 6.5h37q7 0 11 -4.5t6 -9.5q8 -23 25.5 -38t42.5 -15q23 0 40.5 16.5t25.5 36.5q2 7 7 10.5t10 3.5h39q9 0 14 -6.5t4 -14.5q-4 -25 -16.5 -46.5t-31 -37.5
t-42 -25t-50.5 -9z" />
    <glyph glyph-name="Uring" unicode="&#x16e;" horiz-adv-x="721" 
d="M82 681q0 8 5.5 13.5t13.5 5.5h95q8 0 13.5 -5.5t5.5 -13.5v-409q0 -32 10.5 -59.5t29.5 -48t45.5 -32.5t59.5 -12t59.5 12t46 32t30 47.5t10.5 59.5v410q0 8 5.5 13.5t13.5 5.5h95q8 0 13.5 -5.5t5.5 -13.5v-416q0 -57 -21.5 -107t-59 -87.5t-88.5 -59t-110 -21.5
t-109.5 21.5t-88 59t-59 87.5t-21.5 107v416zM362 754q-24 0 -44.5 9t-35.5 24t-24 35.5t-9 44.5t9 44.5t24 35.5t35.5 24t44.5 9q23 0 43.5 -9t36 -24t24.5 -35.5t9 -44.5t-9 -44.5t-24.5 -35.5t-36 -24t-43.5 -9zM362 817q20 0 34 15t14 35t-14 34t-34 14t-35 -14t-15 -34
t15 -35t35 -15z" />
    <glyph glyph-name="Uhungarumlaut" unicode="&#x170;" horiz-adv-x="721" 
d="M82 681q0 8 5.5 13.5t13.5 5.5h95q8 0 13.5 -5.5t5.5 -13.5v-409q0 -32 10.5 -59.5t29.5 -48t45.5 -32.5t59.5 -12t59.5 12t46 32t30 47.5t10.5 59.5v410q0 8 5.5 13.5t13.5 5.5h95q8 0 13.5 -5.5t5.5 -13.5v-416q0 -57 -21.5 -107t-59 -87.5t-88.5 -59t-110 -21.5
t-109.5 21.5t-88 59t-59 87.5t-21.5 107v416zM432 768q-12 0 -16.5 5.5t-2.5 13.5l37 141q2 8 6.5 13.5t12.5 5.5h76q14 0 18.5 -8t-0.5 -17l-78 -139q-3 -6 -8 -10.5t-10 -4.5h-35zM266 768q-12 0 -16.5 5.5t-2.5 13.5l37 141q2 8 6.5 13.5t12.5 5.5h76q14 0 18.5 -7.5
t-0.5 -17.5l-78 -139q-3 -6 -8 -10.5t-10 -4.5h-35z" />
    <glyph glyph-name="Uogonek" unicode="&#x172;" horiz-adv-x="725" 
d="M84 681q0 8 5.5 13.5t13.5 5.5h95q8 0 13.5 -5.5t5.5 -13.5v-409q0 -32 10.5 -59.5t29.5 -48t45.5 -32.5t59.5 -12t59.5 12t46 32t30 47.5t10.5 59.5v410q0 8 5.5 13.5t13.5 5.5h95q8 0 13.5 -5.5t5.5 -13.5v-416q0 -54 -19.5 -102.5t-53.5 -85t-81 -59.5t-102 -27
q-13 -15 -25 -37t-12 -50q0 -26 17 -45t49 -19q15 0 26 3.5t20 5.5q8 2 14 -3t6 -14v-30q0 -7 -4.5 -12t-9.5 -7q-3 -1 -23 -5.5t-43 -4.5q-26 0 -49 6.5t-40.5 20t-27.5 34.5t-10 49q0 38 16 65.5t32 44.5q-51 7 -94.5 31t-75 60t-49.5 82.5t-18 98.5v416z" />
    <glyph glyph-name="Wacute" unicode="&#x1e82;" horiz-adv-x="899" 
d="M29 676q-3 11 2 17.5t16 6.5h92q6 0 11 -4.5t7 -9.5l104 -399h4l159 412q4 11 17 11h18q13 0 17 -11l160 -412h4l102 399q2 5 7 9.5t11 4.5h92q11 0 16 -6.5t2 -17.5l-189 -672q-4 -14 -18 -14h-16q-13 0 -17 11l-179 453h-5l-177 -453q-2 -5 -5.5 -8t-11.5 -3h-16
q-6 0 -11 4t-7 10zM379 768q-11 -5 -16.5 -2.5t-8.5 9.5l-18 35q-3 6 -0.5 11.5t6.5 7.5l164 98q18 11 26 -3l28 -52q5 -9 3 -16.5t-9 -10.5z" />
    <glyph glyph-name="Wcircumflex" unicode="&#x174;" horiz-adv-x="899" 
d="M29 676q-3 11 2 17.5t16 6.5h92q6 0 11 -4.5t7 -9.5l104 -399h4l159 412q4 11 17 11h18q13 0 17 -11l160 -412h4l102 399q2 5 7 9.5t11 4.5h92q11 0 16 -6.5t2 -17.5l-189 -672q-4 -14 -18 -14h-16q-13 0 -17 11l-179 453h-5l-177 -453q-2 -5 -5.5 -8t-11.5 -3h-16
q-6 0 -11 4t-7 10zM352 766q-9 -5 -13.5 -4t-9.5 7l-26 37q-4 5 -1.5 10.5t7.5 8.5l130 101q10 8 21 0l130 -101q5 -3 7.5 -8.5t-1.5 -10.5l-26 -37q-5 -6 -9.5 -7t-13.5 4l-97 61z" />
    <glyph glyph-name="Wdieresis" unicode="&#x1e84;" horiz-adv-x="899" 
d="M29 676q-3 11 2 17.5t16 6.5h92q6 0 11 -4.5t7 -9.5l104 -399h4l159 412q4 11 17 11h18q13 0 17 -11l160 -412h4l102 399q2 5 7 9.5t11 4.5h92q11 0 16 -6.5t2 -17.5l-189 -672q-4 -14 -18 -14h-16q-13 0 -17 11l-179 453h-5l-177 -453q-2 -5 -5.5 -8t-11.5 -3h-16
q-6 0 -11 4t-7 10zM572 775q-26 0 -44.5 19t-18.5 45t18.5 44.5t44.5 18.5t45 -18.5t19 -44.5t-19 -45t-45 -19zM325 775q-26 0 -44.5 19t-18.5 45t18.5 44.5t44.5 18.5t45 -18.5t19 -44.5t-19 -45t-45 -19z" />
    <glyph glyph-name="Wgrave" unicode="&#x1e80;" horiz-adv-x="899" 
d="M29 676q-3 11 2 17.5t16 6.5h92q6 0 11 -4.5t7 -9.5l104 -399h4l159 412q4 11 17 11h18q13 0 17 -11l160 -412h4l102 399q2 5 7 9.5t11 4.5h92q11 0 16 -6.5t2 -17.5l-189 -672q-4 -14 -18 -14h-16q-13 0 -17 11l-179 453h-5l-177 -453q-2 -5 -5.5 -8t-11.5 -3h-16
q-6 0 -11 4t-7 10zM345 845q-7 3 -9 10.5t3 16.5l28 52q4 7 12 7t14 -4l164 -98q4 -2 6.5 -7.5t-0.5 -11.5l-18 -35q-3 -7 -8.5 -9.5t-16.5 2.5z" />
    <glyph glyph-name="Yacute" unicode="&#xdd;" horiz-adv-x="583" 
d="M225 337l-228 334q-6 10 -1 19.5t17 9.5h102q6 0 10 -3t6 -6l160 -230l160 230q2 3 6 6t10 3h103q12 0 17 -9.5t-1 -19.5l-231 -333v-319q0 -8 -5.5 -13.5t-13.5 -5.5h-92q-8 0 -13.5 5.5t-5.5 13.5v318zM221 768q-11 -5 -16.5 -2.5t-8.5 9.5l-18 35q-3 6 -0.5 11.5
t6.5 7.5l164 98q18 11 26 -3l28 -52q5 -9 3 -16.5t-9 -10.5z" />
    <glyph glyph-name="Ycircumflex" unicode="&#x176;" horiz-adv-x="583" 
d="M225 337l-228 334q-6 10 -1 19.5t17 9.5h102q6 0 10 -3t6 -6l160 -230l160 230q2 3 6 6t10 3h103q12 0 17 -9.5t-1 -19.5l-231 -333v-319q0 -8 -5.5 -13.5t-13.5 -5.5h-92q-8 0 -13.5 5.5t-5.5 13.5v318zM194 766q-9 -5 -13.5 -4t-9.5 7l-26 37q-4 5 -1.5 10.5t7.5 8.5
l130 101q10 8 21 0l130 -101q5 -3 7.5 -8.5t-1.5 -10.5l-26 -37q-5 -6 -9.5 -7t-13.5 4l-97 61z" />
    <glyph glyph-name="Ydieresis" unicode="&#x178;" horiz-adv-x="583" 
d="M225 337l-228 334q-6 10 -1 19.5t17 9.5h102q6 0 10 -3t6 -6l160 -230l160 230q2 3 6 6t10 3h103q12 0 17 -9.5t-1 -19.5l-231 -333v-319q0 -8 -5.5 -13.5t-13.5 -5.5h-92q-8 0 -13.5 5.5t-5.5 13.5v318zM414 775q-26 0 -44.5 19t-18.5 45t18.5 44.5t44.5 18.5t45 -18.5
t19 -44.5t-19 -45t-45 -19zM167 775q-26 0 -44.5 19t-18.5 45t18.5 44.5t44.5 18.5t45 -18.5t19 -44.5t-19 -45t-45 -19z" />
    <glyph glyph-name="Ygrave" unicode="&#x1ef2;" horiz-adv-x="583" 
d="M225 337l-228 334q-6 10 -1 19.5t17 9.5h102q6 0 10 -3t6 -6l160 -230l160 230q2 3 6 6t10 3h103q12 0 17 -9.5t-1 -19.5l-231 -333v-319q0 -8 -5.5 -13.5t-13.5 -5.5h-92q-8 0 -13.5 5.5t-5.5 13.5v318zM187 845q-7 3 -9 10.5t3 16.5l28 52q4 7 12 7t14 -4l164 -98
q4 -2 6.5 -7.5t-0.5 -11.5l-18 -35q-3 -7 -8.5 -9.5t-16.5 2.5z" />
    <glyph glyph-name="Zacute" unicode="&#x179;" horiz-adv-x="538" 
d="M25 37l298 538v4h-250q-8 0 -13.5 5.5t-5.5 13.5v83q0 8 5.5 13.5t13.5 5.5h418q8 0 13.5 -5.5t5.5 -13.5v-13l-294 -545v-2h255q8 0 13.5 -5.5t5.5 -13.5v-83q0 -8 -5.5 -13.5t-13.5 -5.5h-427q-8 0 -13.5 5.5t-5.5 13.5v18zM214 768q-11 -5 -16.5 -2.5t-8.5 9.5l-18 35
q-3 6 -0.5 11.5t6.5 7.5l164 98q18 11 26 -3l28 -52q5 -9 3 -16.5t-9 -10.5z" />
    <glyph glyph-name="Zcaron" unicode="&#x17d;" horiz-adv-x="538" 
d="M25 37l298 538v4h-250q-8 0 -13.5 5.5t-5.5 13.5v83q0 8 5.5 13.5t13.5 5.5h418q8 0 13.5 -5.5t5.5 -13.5v-13l-294 -545v-2h255q8 0 13.5 -5.5t5.5 -13.5v-83q0 -8 -5.5 -13.5t-13.5 -5.5h-427q-8 0 -13.5 5.5t-5.5 13.5v18zM139 865q-5 3 -7.5 8.5t1.5 10.5l26 37
q5 6 9.5 7t13.5 -4l97 -61l98 61q9 5 13.5 4t9.5 -7l26 -37q4 -5 1.5 -10.5t-7.5 -8.5l-130 -101q-10 -8 -21 0z" />
    <glyph glyph-name="Zdotaccent" unicode="&#x17b;" horiz-adv-x="538" 
d="M25 37l298 538v4h-250q-8 0 -13.5 5.5t-5.5 13.5v83q0 8 5.5 13.5t13.5 5.5h418q8 0 13.5 -5.5t5.5 -13.5v-13l-294 -545v-2h255q8 0 13.5 -5.5t5.5 -13.5v-83q0 -8 -5.5 -13.5t-13.5 -5.5h-427q-8 0 -13.5 5.5t-5.5 13.5v18zM281 781q-30 0 -51 21t-21 51t21 51t51 21
t51 -21t21 -51t-21 -51t-51 -21z" />
    <glyph glyph-name="agrave" unicode="&#xe0;" horiz-adv-x="426" 
d="M31 127q0 54 41.5 90t118.5 36q15 0 28 -2t23 -4q11 -3 22 -5q1 38 -11.5 53.5t-40.5 15.5q-14 0 -30 -1.5t-31.5 -3.5t-28.5 -4.5t-22 -5.5q-11 -3 -16 2.5t-7 15.5l-9 52q-2 11 2.5 17t11.5 8q3 1 15.5 4t31.5 6.5t42 6t47 2.5q47 0 77 -12t47 -34.5t23.5 -54.5
t6.5 -73v-217q0 -8 -5.5 -13.5t-13.5 -5.5h-36q-5 0 -9 3t-8 11l-12 27q-17 -16 -46.5 -33.5t-75.5 -17.5q-60 0 -97.5 36.5t-37.5 100.5zM141 127q0 -23 14.5 -37.5t37.5 -14.5q12 0 23.5 4.5t21 10.5t16 12.5t8.5 11.5v55q-8 3 -17 6q-8 2 -18 4t-21 2q-29 0 -47 -15
t-18 -39zM122 535q-6 3 -8.5 10t2.5 17l28 51q4 7 11.5 7.5t14.5 -4.5l164 -97q5 -2 7 -7.5t-1 -11.5l-18 -36q-6 -14 -25 -6z" />
    <glyph glyph-name="aacute" unicode="&#xe1;" horiz-adv-x="426" 
d="M31 127q0 54 41.5 90t118.5 36q15 0 28 -2t23 -4q11 -3 22 -5q1 38 -11.5 53.5t-40.5 15.5q-14 0 -30 -1.5t-31.5 -3.5t-28.5 -4.5t-22 -5.5q-11 -3 -16 2.5t-7 15.5l-9 52q-2 11 2.5 17t11.5 8q3 1 15.5 4t31.5 6.5t42 6t47 2.5q47 0 77 -12t47 -34.5t23.5 -54.5
t6.5 -73v-217q0 -8 -5.5 -13.5t-13.5 -5.5h-36q-5 0 -9 3t-8 11l-12 27q-17 -16 -46.5 -33.5t-75.5 -17.5q-60 0 -97.5 36.5t-37.5 100.5zM141 127q0 -23 14.5 -37.5t37.5 -14.5q12 0 23.5 4.5t21 10.5t16 12.5t8.5 11.5v55q-8 3 -17 6q-8 2 -18 4t-21 2q-29 0 -47 -15
t-18 -39zM156 458q-11 -5 -16.5 -3t-9.5 9l-17 36q-3 6 -1 11t7 8l163 97q7 5 14.5 4.5t11.5 -7.5l29 -51q5 -10 2.5 -17t-8.5 -10z" />
    <glyph glyph-name="acircumflex" unicode="&#xe2;" horiz-adv-x="426" 
d="M31 127q0 54 41.5 90t118.5 36q15 0 28 -2t23 -4q11 -3 22 -5q1 38 -11.5 53.5t-40.5 15.5q-14 0 -30 -1.5t-31.5 -3.5t-28.5 -4.5t-22 -5.5q-11 -3 -16 2.5t-7 15.5l-9 52q-2 11 2.5 17t11.5 8q3 1 15.5 4t31.5 6.5t42 6t47 2.5q47 0 77 -12t47 -34.5t23.5 -54.5
t6.5 -73v-217q0 -8 -5.5 -13.5t-13.5 -5.5h-36q-5 0 -9 3t-8 11l-12 27q-17 -16 -46.5 -33.5t-75.5 -17.5q-60 0 -97.5 36.5t-37.5 100.5zM141 127q0 -23 14.5 -37.5t37.5 -14.5q12 0 23.5 4.5t21 10.5t16 12.5t8.5 11.5v55q-8 3 -17 6q-8 2 -18 4t-21 2q-29 0 -47 -15
t-18 -39zM68 496q-4 5 -1.5 10.5t7.5 8.5l130 101q10 8 21 0l130 -101q5 -3 7.5 -8.5t-1.5 -10.5l-26 -37q-5 -6 -9.5 -7t-13.5 4l-97 61l-98 -61q-9 -5 -13.5 -4t-9.5 7z" />
    <glyph glyph-name="atilde" unicode="&#xe3;" horiz-adv-x="426" 
d="M31 127q0 54 41.5 90t118.5 36q15 0 28 -2t23 -4q11 -3 22 -5q1 38 -11.5 53.5t-40.5 15.5q-14 0 -30 -1.5t-31.5 -3.5t-28.5 -4.5t-22 -5.5q-11 -3 -16 2.5t-7 15.5l-9 52q-2 11 2.5 17t11.5 8q3 1 15.5 4t31.5 6.5t42 6t47 2.5q47 0 77 -12t47 -34.5t23.5 -54.5
t6.5 -73v-217q0 -8 -5.5 -13.5t-13.5 -5.5h-36q-5 0 -9 3t-8 11l-12 27q-17 -16 -46.5 -33.5t-75.5 -17.5q-60 0 -97.5 36.5t-37.5 100.5zM141 127q0 -23 14.5 -37.5t37.5 -14.5q12 0 23.5 4.5t21 10.5t16 12.5t8.5 11.5v55q-8 3 -17 6q-8 2 -18 4t-21 2q-29 0 -47 -15
t-18 -39zM68 513q-5 4 -6.5 11t0.5 12l12 21t21 28t30.5 24.5t40.5 10.5q19 0 33 -8.5t25.5 -19t23 -19t25.5 -8.5q13 0 21 9.5t14 19t12.5 15t17.5 -2.5l28 -20q7 -5 6.5 -13.5t-5.5 -17.5l-11.5 -20t-19.5 -25.5t-28.5 -21.5t-37.5 -9q-20 0 -34.5 8.5t-27 19l-24 19.5
t-23.5 9q-14 0 -21 -9.5t-13 -19t-12.5 -15.5t-17.5 1z" />
    <glyph glyph-name="adieresis" unicode="&#xe4;" horiz-adv-x="426" 
d="M31 127q0 54 41.5 90t118.5 36q15 0 28 -2t23 -4q11 -3 22 -5q1 38 -11.5 53.5t-40.5 15.5q-14 0 -30 -1.5t-31.5 -3.5t-28.5 -4.5t-22 -5.5q-11 -3 -16 2.5t-7 15.5l-9 52q-2 11 2.5 17t11.5 8q3 1 15.5 4t31.5 6.5t42 6t47 2.5q47 0 77 -12t47 -34.5t23.5 -54.5
t6.5 -73v-217q0 -8 -5.5 -13.5t-13.5 -5.5h-36q-5 0 -9 3t-8 11l-12 27q-17 -16 -46.5 -33.5t-75.5 -17.5q-60 0 -97.5 36.5t-37.5 100.5zM141 127q0 -23 14.5 -37.5t37.5 -14.5q12 0 23.5 4.5t21 10.5t16 12.5t8.5 11.5v55q-8 3 -17 6q-8 2 -18 4t-21 2q-29 0 -47 -15
t-18 -39zM319 551q-26 0 -44.5 19t-18.5 45t18.5 44.5t44.5 18.5t45 -18.5t19 -44.5t-19 -45t-45 -19zM118 551q-26 0 -44.5 19t-18.5 45t18.5 44.5t44.5 18.5t45 -18.5t19 -44.5t-19 -45t-45 -19z" />
    <glyph glyph-name="amacron" unicode="&#x101;" horiz-adv-x="426" 
d="M31 127q0 54 41.5 90t118.5 36q15 0 28 -2t23 -4q11 -3 22 -5q1 38 -11.5 53.5t-40.5 15.5q-14 0 -30 -1.5t-31.5 -3.5t-28.5 -4.5t-22 -5.5q-11 -3 -16 2.5t-7 15.5l-9 52q-2 11 2.5 17t11.5 8q3 1 15.5 4t31.5 6.5t42 6t47 2.5q47 0 77 -12t47 -34.5t23.5 -54.5
t6.5 -73v-217q0 -8 -5.5 -13.5t-13.5 -5.5h-36q-5 0 -9 3t-8 11l-12 27q-17 -16 -46.5 -33.5t-75.5 -17.5q-60 0 -97.5 36.5t-37.5 100.5zM141 127q0 -23 14.5 -37.5t37.5 -14.5q12 0 23.5 4.5t21 10.5t16 12.5t8.5 11.5v55q-8 3 -17 6q-8 2 -18 4t-21 2q-29 0 -47 -15
t-18 -39zM89 570q-8 0 -13.5 5t-5.5 13v34q0 19 19 19h256q19 0 19 -19v-34q0 -8 -5.5 -13t-13.5 -5h-256z" />
    <glyph glyph-name="abreve" unicode="&#x103;" horiz-adv-x="426" 
d="M31 127q0 54 41.5 90t118.5 36q15 0 28 -2t23 -4q11 -3 22 -5q1 38 -11.5 53.5t-40.5 15.5q-14 0 -30 -1.5t-31.5 -3.5t-28.5 -4.5t-22 -5.5q-11 -3 -16 2.5t-7 15.5l-9 52q-2 11 2.5 17t11.5 8q3 1 15.5 4t31.5 6.5t42 6t47 2.5q47 0 77 -12t47 -34.5t23.5 -54.5
t6.5 -73v-217q0 -8 -5.5 -13.5t-13.5 -5.5h-36q-5 0 -9 3t-8 11l-12 27q-17 -16 -46.5 -33.5t-75.5 -17.5q-60 0 -97.5 36.5t-37.5 100.5zM141 127q0 -23 14.5 -37.5t37.5 -14.5q12 0 23.5 4.5t21 10.5t16 12.5t8.5 11.5v55q-8 3 -17 6q-8 2 -18 4t-21 2q-29 0 -47 -15
t-18 -39zM224 458q-27 0 -51 9t-42.5 25t-30.5 37.5t-16 46.5q-2 9 3 15.5t15 6.5h37q7 0 11 -4.5t6 -9.5q8 -23 25.5 -38t42.5 -15q23 0 40.5 16t25.5 37q2 6 7 10t10 4h39q9 0 14 -6.5t4 -15.5q-4 -25 -16.5 -46.5t-31 -37.5t-42 -25t-50.5 -9z" />
    <glyph glyph-name="aring" unicode="&#xe5;" horiz-adv-x="426" 
d="M31 127q0 54 41.5 90t118.5 36q15 0 28 -2t23 -4q11 -3 22 -5q1 38 -11.5 53.5t-40.5 15.5q-14 0 -30 -1.5t-31.5 -3.5t-28.5 -4.5t-22 -5.5q-11 -3 -16 2.5t-7 15.5l-9 52q-2 11 2.5 17t11.5 8q3 1 15.5 4t31.5 6.5t42 6t47 2.5q47 0 77 -12t47 -34.5t23.5 -54.5
t6.5 -73v-217q0 -8 -5.5 -13.5t-13.5 -5.5h-36q-5 0 -9 3t-8 11l-12 27q-17 -16 -46.5 -33.5t-75.5 -17.5q-60 0 -97.5 36.5t-37.5 100.5zM141 127q0 -23 14.5 -37.5t37.5 -14.5q12 0 23.5 4.5t21 10.5t16 12.5t8.5 11.5v55q-8 3 -17 6q-8 2 -18 4t-21 2q-29 0 -47 -15
t-18 -39zM220 484q-24 0 -44.5 9t-35.5 24t-24 35.5t-9 44.5t9 44.5t24 35.5t35.5 24t44.5 9q23 0 43.5 -9t36 -24t24.5 -35.5t9 -44.5t-9 -44.5t-24.5 -35.5t-36 -24t-43.5 -9zM220 547q20 0 34 15t14 35t-14 34t-34 14t-35 -14t-15 -34t15 -35t35 -15z" />
    <glyph glyph-name="aringacute" unicode="&#x1fb;" horiz-adv-x="426" 
d="M31 127q0 54 41.5 90t118.5 36q15 0 28 -2t23 -4q11 -3 22 -5q1 38 -11.5 53.5t-40.5 15.5q-14 0 -30 -1.5t-31.5 -3.5t-28.5 -4.5t-22 -5.5q-11 -3 -16 2.5t-7 15.5l-9 52q-2 11 2.5 17t11.5 8q3 1 15.5 4t31.5 6.5t42 6t47 2.5q47 0 77 -12t47 -34.5t23.5 -54.5
t6.5 -73v-217q0 -8 -5.5 -13.5t-13.5 -5.5h-36q-5 0 -9 3t-8 11l-12 27q-17 -16 -46.5 -33.5t-75.5 -17.5q-60 0 -97.5 36.5t-37.5 100.5zM141 127q0 -23 14.5 -37.5t37.5 -14.5q12 0 23.5 4.5t21 10.5t16 12.5t8.5 11.5v55q-8 3 -17 6q-8 2 -18 4t-21 2q-29 0 -47 -15
t-18 -39zM219 427q-24 0 -44.5 9t-35.5 24t-24 35.5t-9 44.5t9 44.5t24 35.5t35.5 24t44.5 9q23 0 43.5 -9t36 -24t24.5 -35.5t9 -44.5t-9 -44.5t-24.5 -35.5t-36 -24t-43.5 -9zM219 490q20 0 34 15t14 35t-14 34t-34 14t-35 -14t-15 -34t15 -35t35 -15zM148 662
q-11 -5 -16.5 -3t-9.5 9l-17 36q-3 6 -1 11t7 8l163 97q7 5 14.5 4.5t11.5 -7.5l29 -51q5 -10 2.5 -17t-8.5 -10z" />
    <glyph glyph-name="aogonek" unicode="&#x105;" horiz-adv-x="426" 
d="M30 127q0 54 41.5 90t118.5 36q15 0 28 -2t23 -4q11 -3 22 -5q1 38 -11 57.5t-47 19.5q-28 0 -58.5 -6t-47.5 -10q-20 -4 -23 18l-9 45q-2 11 2.5 17t11.5 8q3 1 15.5 4t31.5 6.5t42 6t47 2.5q47 0 77 -12t47 -34.5t23.5 -54.5t6.5 -73v-217q0 -8 -5.5 -13.5t-13.5 -5.5
h-4q-14 -14 -29.5 -39t-15.5 -57q0 -26 17 -45t49 -19q15 0 26 3.5t20 5.5q8 2 14 -3t6 -14v-30q0 -7 -4.5 -12t-9.5 -7q-3 -1 -23 -5.5t-43 -4.5q-26 0 -49 6.5t-40.5 20t-27.5 34.5t-10 49q0 30 10.5 53.5t23.5 40.5t24 26t13 10l-12 28q-17 -16 -46.5 -33.5t-75.5 -17.5
q-60 0 -97.5 36.5t-37.5 100.5zM140 127q0 -23 14.5 -38.5t37.5 -15.5q12 0 23.5 4.5t21 11.5t16 14.5t8.5 13.5v52q-8 3 -17 6q-8 2 -18 4t-21 2q-29 0 -47 -15t-18 -39z" />
    <glyph glyph-name="ae" unicode="&#xe6;" horiz-adv-x="670" 
d="M30 127q0 54 41 90t115 36q15 0 28.5 -1t24.5 -3l23 -4q-2 38 -12 55.5t-43 17.5q-29 0 -60.5 -5.5t-48.5 -10.5q-8 -1 -14.5 3.5t-8.5 12.5l-9 54q-1 8 4 13t12 7q22 5 45 9q20 3 44 6t47 3q48 0 76.5 -10.5t44.5 -30.5q25 20 55 30.5t65 10.5q38 0 72 -13.5t59.5 -38
t40.5 -59t15 -75.5q0 -14 -2.5 -29t-18.5 -15h-255q2 -15 9 -31t19 -28.5t29 -20.5t38 -8q23 0 44 8t35 18q7 5 14 6t12 -6l40 -47q5 -6 6 -13t-7 -13q-25 -23 -62.5 -39t-86.5 -16q-46 0 -84.5 16.5t-65.5 48.5q-6 -8 -19 -19.5t-31 -21.5t-41 -17t-51 -7q-62 0 -100 37
t-38 100zM529 251q-2 29 -23 48t-50 19q-30 0 -51.5 -19t-25.5 -48h150zM140 130q0 -25 16.5 -39.5t39.5 -14.5q17 0 29 6.5t20 14.5q10 9 17 21v52q-8 3 -18 6q-8 2 -19.5 4.5t-24.5 2.5q-24 0 -42 -14.5t-18 -38.5z" />
    <glyph glyph-name="aeacute" unicode="&#x1fd;" horiz-adv-x="670" 
d="M30 127q0 54 41 90t115 36q15 0 28.5 -1t24.5 -3l23 -4q-2 38 -12 55.5t-43 17.5q-29 0 -60.5 -5.5t-48.5 -10.5q-8 -1 -14.5 3.5t-8.5 12.5l-9 54q-1 8 4 13t12 7q22 5 45 9q20 3 44 6t47 3q48 0 76.5 -10.5t44.5 -30.5q25 20 55 30.5t65 10.5q38 0 72 -13.5t59.5 -38
t40.5 -59t15 -75.5q0 -14 -2.5 -29t-18.5 -15h-255q2 -15 9 -31t19 -28.5t29 -20.5t38 -8q23 0 44 8t35 18q7 5 14 6t12 -6l40 -47q5 -6 6 -13t-7 -13q-25 -23 -62.5 -39t-86.5 -16q-46 0 -84.5 16.5t-65.5 48.5q-6 -8 -19 -19.5t-31 -21.5t-41 -17t-51 -7q-62 0 -100 37
t-38 100zM529 251q-2 29 -23 48t-50 19q-30 0 -51.5 -19t-25.5 -48h150zM140 130q0 -25 16.5 -39.5t39.5 -14.5q17 0 29 6.5t20 14.5q10 9 17 21v52q-8 3 -18 6q-8 2 -19.5 4.5t-24.5 2.5q-24 0 -42 -14.5t-18 -38.5zM311 528q-11 -5 -16.5 -3t-9.5 9l-17 36q-3 6 -1 11t7 8
l163 97q7 5 14.5 4.5t11.5 -7.5l29 -51q5 -10 2.5 -17t-8.5 -10z" />
    <glyph glyph-name="cacute" unicode="&#x107;" horiz-adv-x="426" 
d="M29 200q0 44 17.5 82.5t47 67t68 44.5t80.5 16q47 0 83 -18t65 -53q5 -7 4 -15t-9 -13l-46 -44q-7 -6 -13.5 -4t-11.5 7q-12 14 -30 23t-39 9q-20 0 -38 -8t-31.5 -22t-21 -32.5t-7.5 -39.5q0 -43 28 -72.5t69 -29.5q32 0 49 12.5t31 25.5q12 12 25 3l43 -37
q17 -14 7 -28q-26 -40 -65 -62t-93 -22q-42 0 -80.5 16t-68 44t-46.5 66.5t-17 83.5zM171 528q-11 -5 -16.5 -3t-9.5 9l-17 36q-3 6 -1 11t7 8l163 97q7 5 14.5 4.5t11.5 -7.5l29 -51q5 -10 2.5 -17t-8.5 -10z" />
    <glyph glyph-name="ccircumflex" unicode="&#x109;" horiz-adv-x="426" 
d="M29 200q0 44 17.5 82.5t47 67t68 44.5t80.5 16q47 0 83 -18t65 -53q5 -7 4 -15t-9 -13l-46 -44q-7 -6 -13.5 -4t-11.5 7q-12 14 -30 23t-39 9q-20 0 -38 -8t-31.5 -22t-21 -32.5t-7.5 -39.5q0 -43 28 -72.5t69 -29.5q32 0 49 12.5t31 25.5q12 12 25 3l43 -37
q17 -14 7 -28q-26 -40 -65 -62t-93 -22q-42 0 -80.5 16t-68 44t-46.5 66.5t-17 83.5zM95 566q-4 5 -1.5 10.5t7.5 8.5l130 101q10 8 21 0l130 -101q5 -3 7.5 -8.5t-1.5 -10.5l-26 -37q-5 -6 -9.5 -7t-13.5 4l-97 61l-98 -61q-9 -5 -13.5 -4t-9.5 7z" />
    <glyph glyph-name="ccaron" unicode="&#x10d;" horiz-adv-x="426" 
d="M29 200q0 44 17.5 82.5t47 67t68 44.5t80.5 16q47 0 83 -18t65 -53q5 -7 4 -15t-9 -13l-46 -44q-7 -6 -13.5 -4t-11.5 7q-12 14 -30 23t-39 9q-20 0 -38 -8t-31.5 -22t-21 -32.5t-7.5 -39.5q0 -43 28 -72.5t69 -29.5q32 0 49 12.5t31 25.5q12 12 25 3l43 -37
q17 -14 7 -28q-26 -40 -65 -62t-93 -22q-42 0 -80.5 16t-68 44t-46.5 66.5t-17 83.5zM101 625q-5 3 -7.5 8.5t1.5 10.5l26 37q5 6 9.5 7t13.5 -4l97 -61l98 61q9 5 13.5 4t9.5 -7l26 -37q4 -5 1.5 -10.5t-7.5 -8.5l-130 -101q-10 -8 -21 0z" />
    <glyph glyph-name="cdotaccent" unicode="&#x10b;" horiz-adv-x="426" 
d="M29 200q0 44 17.5 82.5t47 67t68 44.5t80.5 16q47 0 83 -18t65 -53q5 -7 4 -15t-9 -13l-46 -44q-7 -6 -13.5 -4t-11.5 7q-12 14 -30 23t-39 9q-20 0 -38 -8t-31.5 -22t-21 -32.5t-7.5 -39.5q0 -43 28 -72.5t69 -29.5q32 0 49 12.5t31 25.5q12 12 25 3l43 -37
q17 -14 7 -28q-26 -40 -65 -62t-93 -22q-42 0 -80.5 16t-68 44t-46.5 66.5t-17 83.5zM242 536q-30 0 -51 21t-21 51t21 51t51 21t51 -21t21 -51t-21 -51t-51 -21z" />
    <glyph glyph-name="ccedilla" unicode="&#xe7;" horiz-adv-x="428" 
d="M180 0q-32 9 -59.5 28t-47.5 45t-31.5 58t-11.5 69q0 44 17.5 82.5t47 67t68 44.5t80.5 16q47 0 83 -18t65 -53q5 -7 4 -15t-9 -13l-46 -44q-7 -6 -13.5 -4t-11.5 7q-12 14 -30 23t-39 9q-20 0 -38 -8t-31.5 -22t-21 -32.5t-7.5 -39.5q0 -43 28 -72.5t69 -29.5
q32 0 49 12.5t31 25.5q12 12 25 3l43 -37q17 -14 7 -28q-26 -39 -64 -61t-90 -23v-41q46 -6 71.5 -33.5t25.5 -69.5q0 -22 -8.5 -41t-22.5 -33.5t-33.5 -22.5t-41.5 -8q-23 0 -43 10t-33 25q-6 7 -5 14.5t8 13.5l20 17q5 5 11 4.5t10 -5.5q6 -7 14.5 -9.5t15.5 -2.5
q15 0 25 11t10 26q0 18 -17 32t-56 17q-11 2 -14 8t-3 10v88v0z" />
    <glyph glyph-name="dcaron" unicode="&#x10f;" horiz-adv-x="530" 
d="M30 200q0 44 14 82t40 66.5t62.5 45t81.5 16.5q30 0 52.5 -6.5t36.5 -11.5v289q0 8 5.5 13.5t13.5 5.5h85q8 0 13.5 -5.5t5.5 -13.5v-662q0 -8 -5.5 -13.5t-13.5 -5.5h-39q-14 0 -19 19l-10 31q-15 -17 -34 -30q-17 -11 -41 -20.5t-56 -9.5q-41 0 -76 16.5t-61 45
t-40.5 67t-14.5 81.5zM146 200q0 -42 25.5 -72t65.5 -30q20 0 34.5 7t24.5 16.5t16 21t9 20.5v116q-9 6 -20 11q-10 5 -24.5 8.5t-33.5 3.5q-42 0 -69.5 -30t-27.5 -72zM562 437q-5 5 -4 11.5t6 11.5q4 3 15 12.5t23 25t21 37t9 47.5q-1 0 -9.5 -2.5t-20.5 -2.5
q-28 0 -47.5 19t-19.5 47t20 47.5t51 19.5q13 0 28 -5t27 -17.5t20 -33t8 -51.5q0 -37 -10.5 -66.5t-25 -52t-29.5 -38t-25 -24.5q-6 -5 -11.5 -5t-11.5 6z" />
    <glyph glyph-name="dcroat" unicode="&#x111;" horiz-adv-x="500" 
d="M30 200q0 44 14 82t40 66.5t62.5 45t81.5 16.5q30 0 52.5 -6.5t36.5 -11.5v141h-115q-8 0 -13.5 5t-5.5 13v14q0 8 5.5 13.5t13.5 5.5h115v97q0 8 5.5 13.5t13.5 5.5h85q8 0 13.5 -5.5t5.5 -13.5v-97h33q8 0 13 -5.5t5 -13.5v-13q0 -8 -5 -13.5t-13 -5.5h-33v-514
q0 -8 -5.5 -13.5t-13.5 -5.5h-39q-14 0 -19 19l-10 31q-15 -17 -34 -30q-17 -11 -41 -20.5t-56 -9.5q-41 0 -76 16.5t-61 45t-40.5 67t-14.5 81.5zM146 200q0 -42 25.5 -72t65.5 -30q20 0 34.5 7t24.5 16.5t16 21t9 20.5v114q-9 6 -20 11q-10 5 -24.5 8.5t-33.5 3.5
q-42 0 -69.5 -29t-27.5 -71z" />
    <glyph glyph-name="eth" unicode="&#xf0;" horiz-adv-x="528" 
d="M29 219q0 54 18 94.5t46.5 67.5t65 41t74.5 14q18 0 35.5 -3t33 -7.5t27.5 -9t18 -8.5q-12 42 -41 74.5t-64 57.5l-81 -47q-7 -4 -14 -2t-11 8l-7 13q-4 6 -2.5 13.5t8.5 11.5l58 33q-20 11 -37.5 18.5t-28.5 11.5q-14 5 -18 12.5t0 16.5l23 59q6 20 28 14q23 -9 59 -26
t78 -45l69 40q8 4 15 1.5t11 -9.5l7 -11q4 -7 2.5 -14.5t-8.5 -11.5l-52 -30q30 -26 57.5 -58.5t48.5 -73.5t33.5 -90.5t12.5 -107.5q0 -56 -15 -106.5t-45 -88t-74.5 -59.5t-103.5 -22q-46 0 -87 18t-72 49t-49 73t-18 89zM142 221q0 -24 9 -45t24.5 -37t36 -25.5
t44.5 -9.5q30 0 52.5 13.5t36.5 34.5t21 47t7 52q-4 13 -13.5 28.5t-24 28.5t-34 21.5t-44.5 8.5q-24 0 -45 -9.5t-36.5 -25t-24.5 -37t-9 -45.5z" />
    <glyph glyph-name="egrave" unicode="&#xe8;" horiz-adv-x="445" 
d="M30 200q0 42 15 80.5t42 67t64.5 45.5t82.5 17q39 0 73 -14t59.5 -38.5t40 -59t14.5 -74.5q0 -5 -0.5 -13.5t-1.5 -13.5q-1 -8 -6.5 -12.5t-12.5 -4.5h-256q1 -15 8 -30.5t19.5 -28t29.5 -20.5t39 -8q23 0 43.5 7.5t34.5 17.5q17 10 26 0l41 -47q5 -5 6 -12.5t-7 -13.5
q-25 -23 -62.5 -39t-86.5 -16q-45 0 -82.5 16.5t-65 45t-42.5 67t-15 81.5zM304 250q-2 28 -23 48t-50 20q-30 0 -52 -19.5t-26 -48.5h151zM127 535q-6 3 -8.5 10t2.5 17l28 51q4 7 11.5 7.5t14.5 -4.5l164 -97q5 -2 7 -7.5t-1 -11.5l-18 -36q-6 -14 -25 -6z" />
    <glyph glyph-name="eacute" unicode="&#xe9;" horiz-adv-x="445" 
d="M30 200q0 42 15 80.5t42 67t64.5 45.5t82.5 17q39 0 73 -14t59.5 -38.5t40 -59t14.5 -74.5q0 -5 -0.5 -13.5t-1.5 -13.5q-1 -8 -6.5 -12.5t-12.5 -4.5h-256q1 -15 8 -30.5t19.5 -28t29.5 -20.5t39 -8q23 0 43.5 7.5t34.5 17.5q17 10 26 0l41 -47q5 -5 6 -12.5t-7 -13.5
q-25 -23 -62.5 -39t-86.5 -16q-45 0 -82.5 16.5t-65 45t-42.5 67t-15 81.5zM304 250q-2 28 -23 48t-50 20q-30 0 -52 -19.5t-26 -48.5h151zM160 458q-11 -5 -16.5 -3t-9.5 9l-17 36q-3 6 -1 11t7 8l163 97q7 5 14.5 4.5t11.5 -7.5l29 -51q5 -10 2.5 -17t-8.5 -10z" />
    <glyph glyph-name="ecircumflex" unicode="&#xea;" horiz-adv-x="445" 
d="M30 200q0 42 15 80.5t42 67t64.5 45.5t82.5 17q39 0 73 -14t59.5 -38.5t40 -59t14.5 -74.5q0 -5 -0.5 -13.5t-1.5 -13.5q-1 -8 -6.5 -12.5t-12.5 -4.5h-256q1 -15 8 -30.5t19.5 -28t29.5 -20.5t39 -8q23 0 43.5 7.5t34.5 17.5q17 10 26 0l41 -47q5 -5 6 -12.5t-7 -13.5
q-25 -23 -62.5 -39t-86.5 -16q-45 0 -82.5 16.5t-65 45t-42.5 67t-15 81.5zM304 250q-2 28 -23 48t-50 20q-30 0 -52 -19.5t-26 -48.5h151zM85 496q-4 5 -1.5 10.5t7.5 8.5l130 101q10 8 21 0l130 -101q5 -3 7.5 -8.5t-1.5 -10.5l-26 -37q-5 -6 -9.5 -7t-13.5 4l-97 61
l-98 -61q-9 -5 -13.5 -4t-9.5 7z" />
    <glyph glyph-name="ecaron" unicode="&#x11b;" horiz-adv-x="445" 
d="M30 200q0 42 15 80.5t42 67t64.5 45.5t82.5 17q39 0 73 -14t59.5 -38.5t40 -59t14.5 -74.5q0 -5 -0.5 -13.5t-1.5 -13.5q-1 -8 -6.5 -12.5t-12.5 -4.5h-256q1 -15 8 -30.5t19.5 -28t29.5 -20.5t39 -8q23 0 43.5 7.5t34.5 17.5q17 10 26 0l41 -47q5 -5 6 -12.5t-7 -13.5
q-25 -23 -62.5 -39t-86.5 -16q-45 0 -82.5 16.5t-65 45t-42.5 67t-15 81.5zM304 250q-2 28 -23 48t-50 20q-30 0 -52 -19.5t-26 -48.5h151zM91 625q-5 3 -7.5 8.5t1.5 10.5l26 37q5 6 9.5 7t13.5 -4l97 -61l98 61q9 5 13.5 4t9.5 -7l26 -37q4 -5 1.5 -10.5t-7.5 -8.5
l-130 -101q-10 -8 -21 0z" />
    <glyph glyph-name="edieresis" unicode="&#xeb;" horiz-adv-x="445" 
d="M30 200q0 42 15 80.5t42 67t64.5 45.5t82.5 17q39 0 73 -14t59.5 -38.5t40 -59t14.5 -74.5q0 -5 -0.5 -13.5t-1.5 -13.5q-1 -8 -6.5 -12.5t-12.5 -4.5h-256q1 -15 8 -30.5t19.5 -28t29.5 -20.5t39 -8q23 0 43.5 7.5t34.5 17.5q17 10 26 0l41 -47q5 -5 6 -12.5t-7 -13.5
q-25 -23 -62.5 -39t-86.5 -16q-45 0 -82.5 16.5t-65 45t-42.5 67t-15 81.5zM304 250q-2 28 -23 48t-50 20q-30 0 -52 -19.5t-26 -48.5h151zM332 551q-26 0 -44.5 19t-18.5 45t18.5 44.5t44.5 18.5t45 -18.5t19 -44.5t-19 -45t-45 -19zM131 551q-26 0 -44.5 19t-18.5 45
t18.5 44.5t44.5 18.5t45 -18.5t19 -44.5t-19 -45t-45 -19z" />
    <glyph glyph-name="emacron" unicode="&#x113;" horiz-adv-x="445" 
d="M30 200q0 42 15 80.5t42 67t64.5 45.5t82.5 17q39 0 73 -14t59.5 -38.5t40 -59t14.5 -74.5q0 -5 -0.5 -13.5t-1.5 -13.5q-1 -8 -6.5 -12.5t-12.5 -4.5h-256q1 -15 8 -30.5t19.5 -28t29.5 -20.5t39 -8q23 0 43.5 7.5t34.5 17.5q17 10 26 0l41 -47q5 -5 6 -12.5t-7 -13.5
q-25 -23 -62.5 -39t-86.5 -16q-45 0 -82.5 16.5t-65 45t-42.5 67t-15 81.5zM304 250q-2 28 -23 48t-50 20q-30 0 -52 -19.5t-26 -48.5h151zM103 570q-8 0 -13.5 5t-5.5 13v34q0 19 19 19h256q19 0 19 -19v-34q0 -8 -5.5 -13t-13.5 -5h-256z" />
    <glyph glyph-name="ebreve" unicode="&#x115;" horiz-adv-x="445" 
d="M30 200q0 42 15 80.5t42 67t64.5 45.5t82.5 17q39 0 73 -14t59.5 -38.5t40 -59t14.5 -74.5q0 -5 -0.5 -13.5t-1.5 -13.5q-1 -8 -6.5 -12.5t-12.5 -4.5h-256q1 -15 8 -30.5t19.5 -28t29.5 -20.5t39 -8q23 0 43.5 7.5t34.5 17.5q17 10 26 0l41 -47q5 -5 6 -12.5t-7 -13.5
q-25 -23 -62.5 -39t-86.5 -16q-45 0 -82.5 16.5t-65 45t-42.5 67t-15 81.5zM304 250q-2 28 -23 48t-50 20q-30 0 -52 -19.5t-26 -48.5h151zM232 528q-27 0 -51 9t-42.5 25t-30.5 37.5t-16 46.5q-2 9 3 15.5t15 6.5h37q7 0 11 -4.5t6 -9.5q8 -23 25.5 -38t42.5 -15
q23 0 40.5 16t25.5 37q2 6 7 10t10 4h39q9 0 14 -6.5t4 -15.5q-4 -25 -16.5 -46.5t-31 -37.5t-42 -25t-50.5 -9z" />
    <glyph glyph-name="edotaccent" unicode="&#x117;" horiz-adv-x="445" 
d="M30 200q0 42 15 80.5t42 67t64.5 45.5t82.5 17q39 0 73 -14t59.5 -38.5t40 -59t14.5 -74.5q0 -5 -0.5 -13.5t-1.5 -13.5q-1 -8 -6.5 -12.5t-12.5 -4.5h-256q1 -15 8 -30.5t19.5 -28t29.5 -20.5t39 -8q23 0 43.5 7.5t34.5 17.5q17 10 26 0l41 -47q5 -5 6 -12.5t-7 -13.5
q-25 -23 -62.5 -39t-86.5 -16q-45 0 -82.5 16.5t-65 45t-42.5 67t-15 81.5zM304 250q-2 28 -23 48t-50 20q-30 0 -52 -19.5t-26 -48.5h151zM232 536q-30 0 -51 21t-21 51t21 51t51 21t51 -21t21 -51t-21 -51t-51 -21z" />
    <glyph glyph-name="eogonek" unicode="&#x119;" horiz-adv-x="446" 
d="M153 -117q0 38 16 65.5t32 44.5q-38 6 -69.5 24.5t-54 46t-35 62.5t-12.5 74q0 42 15 80.5t42 67t64.5 45.5t82.5 17q39 0 73 -14t59.5 -38.5t40 -59t14.5 -74.5q0 -5 -0.5 -13.5t-1.5 -13.5q-1 -8 -6.5 -12.5t-12.5 -4.5h-256q1 -15 8 -31t19.5 -28.5t29.5 -20.5t39 -8
q23 0 43.5 8t34.5 18q8 5 14.5 6t11.5 -6q12 -13 20.5 -23.5t20.5 -23.5q5 -5 6 -12.5t-7 -13.5q-21 -20 -50.5 -34t-67.5 -19q-13 -14 -25.5 -36.5t-12.5 -51.5q0 -26 17 -45t49 -19q15 0 26 3.5t20 5.5q8 2 14 -3t6 -14v-30q0 -7 -4.5 -12t-9.5 -7q-3 -1 -23 -5.5
t-43 -4.5q-26 0 -49 6.5t-40.5 20t-27.5 34.5t-10 49zM304 250q-2 28 -23 48t-50 20q-30 0 -52 -19.5t-26 -48.5h151z" />
    <glyph glyph-name="gcircumflex" unicode="&#x11d;" horiz-adv-x="462" 
d="M18 30q0 29 11.5 50t25.5 35q17 16 38 27q-9 10 -15 24q-6 12 -10.5 29.5t-4.5 40.5q0 35 13.5 66.5t36.5 55.5t55 38t69 14h182q19 0 19 -19v-33q0 -5 -3 -10t-8 -7l-56 -18q11 -9 20 -24q8 -13 14 -32.5t6 -45.5q0 -30 -12 -58t-34 -50t-54 -35.5t-71 -13.5
q-29 0 -48.5 4t-31.5 4q-11 0 -24 -10t-13 -28q0 -16 11.5 -25t28.5 -9h128q34 0 64 -9.5t52.5 -27.5t35.5 -44t13 -59q0 -35 -14 -65.5t-41.5 -54t-68.5 -37t-95 -13.5q-56 0 -94.5 12.5t-63 32t-35.5 44t-11 48.5q0 22 8 39t18.5 28.5t20 18.5t13.5 9v3q-6 2 -18.5 8.5
t-25 18.5t-22 31.5t-9.5 46.5zM170 231q0 -32 20 -52t50 -20q31 0 50 20t19 52t-19 52t-50 20q-30 0 -50 -20t-20 -52zM148 -151q0 -26 23.5 -42.5t64.5 -16.5q42 0 67.5 17t25.5 46q0 7 -3 15.5t-11.5 16t-22.5 12.5t-36 5q-17 0 -33 -1t-32 -3l-12 -5t-14 -9t-12 -14.5
t-5 -20.5zM103 566q-4 5 -1.5 10.5t7.5 8.5l130 101q10 8 21 0l130 -101q5 -3 7.5 -8.5t-1.5 -10.5l-26 -37q-5 -6 -9.5 -7t-13.5 4l-97 61l-98 -61q-9 -5 -13.5 -4t-9.5 7z" />
    <glyph glyph-name="gbreve" unicode="&#x11f;" horiz-adv-x="462" 
d="M18 30q0 29 11.5 50t25.5 35q17 16 38 27q-9 10 -15 24q-6 12 -10.5 29.5t-4.5 40.5q0 35 13.5 66.5t36.5 55.5t55 38t69 14h182q19 0 19 -19v-33q0 -5 -3 -10t-8 -7l-56 -18q11 -9 20 -24q8 -13 14 -32.5t6 -45.5q0 -30 -12 -58t-34 -50t-54 -35.5t-71 -13.5
q-29 0 -48.5 4t-31.5 4q-11 0 -24 -10t-13 -28q0 -16 11.5 -25t28.5 -9h128q34 0 64 -9.5t52.5 -27.5t35.5 -44t13 -59q0 -35 -14 -65.5t-41.5 -54t-68.5 -37t-95 -13.5q-56 0 -94.5 12.5t-63 32t-35.5 44t-11 48.5q0 22 8 39t18.5 28.5t20 18.5t13.5 9v3q-6 2 -18.5 8.5
t-25 18.5t-22 31.5t-9.5 46.5zM170 231q0 -32 20 -52t50 -20q31 0 50 20t19 52t-19 52t-50 20q-30 0 -50 -20t-20 -52zM148 -151q0 -26 23.5 -42.5t64.5 -16.5q42 0 67.5 17t25.5 46q0 7 -3 15.5t-11.5 16t-22.5 12.5t-36 5q-17 0 -33 -1t-32 -3l-12 -5t-14 -9t-12 -14.5
t-5 -20.5zM249 528q-27 0 -51 9t-42.5 25t-30.5 37.5t-16 46.5q-2 9 3 15.5t15 6.5h37q7 0 11 -4.5t6 -9.5q8 -23 25.5 -38t42.5 -15q23 0 40.5 16t25.5 37q2 6 7 10t10 4h39q9 0 14 -6.5t4 -15.5q-4 -25 -16.5 -46.5t-31 -37.5t-42 -25t-50.5 -9z" />
    <glyph glyph-name="gdotaccent" unicode="&#x121;" horiz-adv-x="462" 
d="M18 30q0 29 11.5 50t25.5 35q17 16 38 27q-9 10 -15 24q-6 12 -10.5 29.5t-4.5 40.5q0 35 13.5 66.5t36.5 55.5t55 38t69 14h182q19 0 19 -19v-33q0 -5 -3 -10t-8 -7l-56 -18q11 -9 20 -24q8 -13 14 -32.5t6 -45.5q0 -30 -12 -58t-34 -50t-54 -35.5t-71 -13.5
q-29 0 -48.5 4t-31.5 4q-11 0 -24 -10t-13 -28q0 -16 11.5 -25t28.5 -9h128q34 0 64 -9.5t52.5 -27.5t35.5 -44t13 -59q0 -35 -14 -65.5t-41.5 -54t-68.5 -37t-95 -13.5q-56 0 -94.5 12.5t-63 32t-35.5 44t-11 48.5q0 22 8 39t18.5 28.5t20 18.5t13.5 9v3q-6 2 -18.5 8.5
t-25 18.5t-22 31.5t-9.5 46.5zM170 231q0 -32 20 -52t50 -20q31 0 50 20t19 52t-19 52t-50 20q-30 0 -50 -20t-20 -52zM148 -151q0 -26 23.5 -42.5t64.5 -16.5q42 0 67.5 17t25.5 46q0 7 -3 15.5t-11.5 16t-22.5 12.5t-36 5q-17 0 -33 -1t-32 -3l-12 -5t-14 -9t-12 -14.5
t-5 -20.5zM247 536q-30 0 -51 21t-21 51t21 51t51 21t51 -21t21 -51t-21 -51t-51 -21z" />
    <glyph glyph-name="gcommaaccent" unicode="&#x123;" horiz-adv-x="462" 
d="M252 529q-14 0 -28.5 5t-26.5 17.5t-20 33t-8 51.5q0 37 10.5 66.5t25 52t29.5 38t25 24.5q13 10 23 -1l15 -14q5 -5 3.5 -11.5t-6.5 -11.5q-4 -3 -15 -12.5t-22.5 -25t-21 -37t-9.5 -47.5q1 0 9.5 2.5t21.5 2.5q27 0 47 -19t20 -47t-20.5 -47.5t-51.5 -19.5zM18 30
q0 29 11.5 50t25.5 35q17 16 38 27q-9 10 -15 24q-6 12 -10.5 29.5t-4.5 40.5q0 35 13.5 66.5t36.5 55.5t55 38t69 14h182q19 0 19 -19v-33q0 -5 -3 -10t-8 -7l-56 -18q11 -9 20 -24q8 -13 14 -32.5t6 -45.5q0 -30 -12 -58t-34 -50t-54 -35.5t-71 -13.5q-29 0 -48.5 4
t-31.5 4q-11 0 -24 -10t-13 -28q0 -16 11.5 -25t28.5 -9h128q34 0 64 -9.5t52.5 -27.5t35.5 -44t13 -59q0 -35 -14 -65.5t-41.5 -54t-68.5 -37t-95 -13.5q-56 0 -94.5 12.5t-63 32t-35.5 44t-11 48.5q0 22 8 39t18.5 28.5t20 18.5t13.5 9v3q-6 2 -18.5 8.5t-25 18.5
t-22 31.5t-9.5 46.5zM170 231q0 -32 20 -52t50 -20q31 0 50 20t19 52t-19 52t-50 20q-30 0 -50 -20t-20 -52zM148 -151q0 -26 23.5 -42.5t64.5 -16.5q42 0 67.5 17t25.5 46q0 7 -3 15.5t-11.5 16t-22.5 12.5t-36 5q-17 0 -33 -1t-32 -3l-12 -5t-14 -9t-12 -14.5t-5 -20.5z
" />
    <glyph glyph-name="hcircumflex" unicode="&#x125;" horiz-adv-x="520" 
d="M60 681q0 8 5.5 13.5t13.5 5.5h85q8 0 13.5 -5.5t5.5 -13.5v-304q15 11 43 22t63 11q48 0 81.5 -17t55.5 -44.5t32 -63.5t10 -74v-192q0 -8 -5.5 -13.5t-13.5 -5.5h-81q-8 0 -13.5 5.5t-5.5 13.5v193q0 42 -21.5 66t-57.5 24q-35 0 -57 -20t-30 -51v-212q0 -19 -21 -19
h-83q-8 0 -13.5 5.5t-5.5 13.5v662zM-28 783q-4 5 -1.5 10.5t7.5 8.5l130 101q10 8 21 0l130 -101q5 -3 7.5 -8.5t-1.5 -10.5l-26 -37q-5 -6 -9.5 -7t-13.5 4l-97 61l-98 -61q-9 -5 -13.5 -4t-9.5 7z" />
    <glyph glyph-name="hbar" unicode="&#x127;" horiz-adv-x="520" 
d="M60 533h-31q-8 0 -13 5.5t-5 13.5v13q0 8 5 13.5t13 5.5h31v97q0 8 5.5 13.5t13.5 5.5h85q8 0 13.5 -5.5t5.5 -13.5v-97h116q8 0 13.5 -5.5t5.5 -13.5v-14q0 -8 -5.5 -13t-13.5 -5h-116v-156q15 11 43 22t63 11q48 0 81.5 -17t55.5 -44.5t32 -63.5t10 -74v-192
q0 -8 -5.5 -13.5t-13.5 -5.5h-81q-8 0 -13.5 5.5t-5.5 13.5v191q0 42 -21.5 66t-57.5 24q-35 0 -57 -20t-30 -51v-210q0 -19 -21 -19h-83q-8 0 -13.5 5.5t-5.5 13.5v514z" />
    <glyph glyph-name="dotlessi" unicode="&#x131;" horiz-adv-x="241" 
d="M60 381q0 8 5.5 13.5t13.5 5.5h83q8 0 13.5 -5.5t5.5 -13.5v-362q0 -8 -5.5 -13.5t-13.5 -5.5h-83q-8 0 -13.5 5.5t-5.5 13.5v362z" />
    <glyph glyph-name="igrave" unicode="&#xec;" horiz-adv-x="241" 
d="M14 535q-6 3 -8.5 10t2.5 17l28 51q4 7 11.5 7.5t14.5 -4.5l164 -97q5 -2 7 -7.5t-1 -11.5l-18 -36q-6 -14 -25 -6zM60 381q0 8 5.5 13.5t13.5 5.5h83q8 0 13.5 -5.5t5.5 -13.5v-362q0 -8 -5.5 -13.5t-13.5 -5.5h-83q-8 0 -13.5 5.5t-5.5 13.5v362z" />
    <glyph glyph-name="iacute" unicode="&#xed;" horiz-adv-x="241" 
d="M48 458q-11 -5 -16.5 -3t-9.5 9l-17 36q-3 6 -1 11t7 8l163 97q7 5 14.5 4.5t11.5 -7.5l29 -51q5 -10 2.5 -17t-8.5 -10zM60 381q0 8 5.5 13.5t13.5 5.5h83q8 0 13.5 -5.5t5.5 -13.5v-362q0 -8 -5.5 -13.5t-13.5 -5.5h-83q-8 0 -13.5 5.5t-5.5 13.5v362z" />
    <glyph glyph-name="ibreve" unicode="&#x12d;" horiz-adv-x="241" 
d="M121 528q-27 0 -51 9t-42.5 25t-30.5 37.5t-16 46.5q-2 9 3 15.5t15 6.5h37q7 0 11 -4.5t6 -9.5q8 -23 25.5 -38t42.5 -15q23 0 40.5 16t25.5 37q2 6 7 10t10 4h39q9 0 14 -6.5t4 -15.5q-4 -25 -16.5 -46.5t-31 -37.5t-42 -25t-50.5 -9zM60 381q0 8 5.5 13.5t13.5 5.5h83
q8 0 13.5 -5.5t5.5 -13.5v-362q0 -8 -5.5 -13.5t-13.5 -5.5h-83q-8 0 -13.5 5.5t-5.5 13.5v362z" />
    <glyph glyph-name="icircumflex" unicode="&#xee;" horiz-adv-x="241" 
d="M60 381q0 8 5.5 13.5t13.5 5.5h83q8 0 13.5 -5.5t5.5 -13.5v-362q0 -8 -5.5 -13.5t-13.5 -5.5h-83q-8 0 -13.5 5.5t-5.5 13.5v362zM-28 566q-4 5 -1.5 10.5t7.5 8.5l130 101q10 8 21 0l130 -101q5 -3 7.5 -8.5t-1.5 -10.5l-26 -37q-5 -6 -9.5 -7t-13.5 4l-97 61l-98 -61
q-9 -5 -13.5 -4t-9.5 7z" />
    <glyph glyph-name="itilde" unicode="&#x129;" horiz-adv-x="241" 
d="M-28 513q-5 4 -6.5 11t0.5 12l12 21t21 28t30.5 24.5t40.5 10.5q19 0 33 -8.5t25.5 -19t23 -19t25.5 -8.5q13 0 21 9.5t14 19t12.5 15t17.5 -2.5l28 -20q7 -5 6.5 -13.5t-5.5 -17.5l-11.5 -20t-19.5 -25.5t-28.5 -21.5t-37.5 -9q-20 0 -34.5 8.5t-27 19l-24 19.5t-23.5 9
q-14 0 -21 -9.5t-13 -19t-12.5 -15.5t-17.5 1zM60 381q0 8 5.5 13.5t13.5 5.5h83q8 0 13.5 -5.5t5.5 -13.5v-362q0 -8 -5.5 -13.5t-13.5 -5.5h-83q-8 0 -13.5 5.5t-5.5 13.5v362z" />
    <glyph glyph-name="idieresis" unicode="&#xef;" horiz-adv-x="241" 
d="M220 551q-26 0 -44.5 19t-18.5 45t18.5 44.5t44.5 18.5t45 -18.5t19 -44.5t-19 -45t-45 -19zM19 551q-26 0 -44.5 19t-18.5 45t18.5 44.5t44.5 18.5t45 -18.5t19 -44.5t-19 -45t-45 -19zM60 381q0 8 5.5 13.5t13.5 5.5h83q8 0 13.5 -5.5t5.5 -13.5v-362q0 -8 -5.5 -13.5
t-13.5 -5.5h-83q-8 0 -13.5 5.5t-5.5 13.5v362z" />
    <glyph glyph-name="imacron" unicode="&#x12b;" horiz-adv-x="241" 
d="M-7 570q-8 0 -13.5 5t-5.5 13v34q0 19 19 19h256q19 0 19 -19v-34q0 -8 -5.5 -13t-13.5 -5h-256zM60 381q0 8 5.5 13.5t13.5 5.5h83q8 0 13.5 -5.5t5.5 -13.5v-362q0 -8 -5.5 -13.5t-13.5 -5.5h-83q-8 0 -13.5 5.5t-5.5 13.5v362z" />
    <glyph glyph-name="iogonek" unicode="&#x12f;" horiz-adv-x="241" 
d="M119 542q-29 0 -48.5 20t-19.5 49t19.5 49t48.5 20t49.5 -20t20.5 -49t-20.5 -49t-49.5 -20zM60 381q0 8 5.5 13.5t13.5 5.5h83q8 0 13.5 -5.5t5.5 -13.5v-362q0 -8 -5.5 -13.5t-13.5 -5.5h-18q-14 -14 -29.5 -39t-15.5 -57q0 -26 17 -45t49 -19q15 0 26 3.5t20 5.5
q8 2 14 -3t6 -14v-30q0 -7 -4.5 -12t-9.5 -7q-3 -1 -23 -5.5t-43 -4.5q-26 0 -49 6.5t-40.5 20t-27.5 34.5t-10 49q0 21 5.5 39t13.5 33t18 26t18 19q-8 0 -13.5 5.5t-5.5 13.5v362z" />
    <glyph glyph-name="dotlessj" unicode="&#x237;" horiz-adv-x="242" 
d="M60 381q0 8 5.5 13.5t13.5 5.5h84q8 0 13.5 -5.5t5.5 -13.5v-489q0 -50 -14 -87.5t-39 -63t-59 -38.5t-74 -13t-72.5 13.5t-45.5 25.5q-5 4 -6 11t2 12l33 64q3 6 10 7.5t14 -2.5q10 -6 26 -13t33 -7q34 0 52 23.5t18 67.5v489z" />
    <glyph glyph-name="jcircumflex" unicode="&#x135;" horiz-adv-x="242" 
d="M60 381q0 8 5.5 13.5t13.5 5.5h84q8 0 13.5 -5.5t5.5 -13.5v-489q0 -50 -14 -87.5t-39 -63t-59 -38.5t-74 -13t-72.5 13.5t-45.5 25.5q-5 4 -6 11t2 12l33 64q3 6 10 7.5t14 -2.5q10 -6 26 -13t33 -7q34 0 52 23.5t18 67.5v489zM-27 566q-4 5 -1.5 10.5t7.5 8.5l130 101
q10 8 21 0l130 -101q5 -3 7.5 -8.5t-1.5 -10.5l-26 -37q-5 -6 -9.5 -7t-13.5 4l-97 61l-98 -61q-9 -5 -13.5 -4t-9.5 7z" />
    <glyph glyph-name="kcommaaccent" unicode="&#x137;" horiz-adv-x="489" 
d="M60 681q0 8 5.5 13.5t13.5 5.5h85q8 0 13.5 -5.5t5.5 -13.5v-433l138 140q5 5 11 8.5t14 3.5h91q13 0 17 -10.5t-4 -18.5l-149 -152l178 -191q8 -8 4 -18t-17 -10h-108q-11 0 -17 8l-158 180v-169q0 -8 -5.5 -13.5t-13.5 -5.5h-85q-8 0 -13.5 5.5t-5.5 13.5v662zM260 -91
q13 0 28 -5t27 -17.5t20 -33t8 -51.5q0 -37 -10.5 -66.5t-25 -52t-29.5 -38t-25 -24.5q-13 -10 -23 1l-15 14q-5 5 -3.5 11.5t6.5 11.5q4 3 15 12.5t22.5 25t21 37t9.5 47.5q-1 0 -9.5 -2.5t-21.5 -2.5q-27 0 -47 19t-20 47t20.5 47.5t51.5 19.5z" />
    <glyph glyph-name="kgreenlandic" unicode="&#x138;" horiz-adv-x="493" 
d="M60 381q0 8 5.5 13.5t13.5 5.5h85q8 0 13.5 -5.5t5.5 -13.5v-159l151 166q10 12 25 12h91q13 0 17 -10.5t-4 -18.5l-166 -176l182 -167q8 -8 4 -18t-17 -10h-108q-5 0 -9.5 3l-7.5 5l-158 154v-143q0 -8 -5.5 -13.5t-13.5 -5.5h-85q-8 0 -13.5 5.5t-5.5 13.5v362z" />
    <glyph glyph-name="lacute" unicode="&#x13a;" horiz-adv-x="242" 
d="M60 681q0 8 5.5 13.5t13.5 5.5h84q8 0 13.5 -5.5t5.5 -13.5v-662q0 -8 -5.5 -13.5t-13.5 -5.5h-84q-8 0 -13.5 5.5t-5.5 13.5v662zM49 745q-11 -5 -16.5 -3t-9.5 9l-17 36q-3 6 -1 11t7 8l163 97q7 5 14.5 4.5t11.5 -7.5l29 -51q5 -10 2.5 -17t-8.5 -10z" />
    <glyph glyph-name="lcaron" unicode="&#x13e;" horiz-adv-x="272" 
d="M60 681q0 8 5.5 13.5t13.5 5.5h84q8 0 13.5 -5.5t5.5 -13.5v-662q0 -8 -5.5 -13.5t-13.5 -5.5h-84q-8 0 -13.5 5.5t-5.5 13.5v662zM304 437q-5 5 -4 11.5t6 11.5q4 3 15 12.5t23 25t21 37t9 47.5q-1 0 -9.5 -2.5t-20.5 -2.5q-28 0 -47.5 19t-19.5 47t20 47.5t51 19.5
q13 0 28 -5t27 -17.5t20 -33t8 -51.5q0 -37 -10.5 -66.5t-25 -52t-29.5 -38t-25 -24.5q-6 -5 -11.5 -5t-11.5 6z" />
    <glyph glyph-name="lcommaaccent" unicode="&#x13c;" horiz-adv-x="242" 
d="M60 681q0 8 5.5 13.5t13.5 5.5h84q8 0 13.5 -5.5t5.5 -13.5v-662q0 -8 -5.5 -13.5t-13.5 -5.5h-84q-8 0 -13.5 5.5t-5.5 13.5v662zM117 -91q13 0 28 -5t27 -17.5t20 -33t8 -51.5q0 -37 -10.5 -66.5t-25 -52t-29.5 -38t-25 -24.5q-13 -10 -23 1l-15 14q-5 5 -3.5 11.5
t6.5 11.5q4 3 15 12.5t22.5 25t21 37t9.5 47.5q-1 0 -9.5 -2.5t-21.5 -2.5q-27 0 -47 19t-20 47t20.5 47.5t51.5 19.5z" />
    <glyph glyph-name="lslash" unicode="&#x142;" horiz-adv-x="257" 
d="M74 311l-34 -19q-9 -5 -15.5 -2.5t-10.5 9.5l-6 12q-4 6 -2.5 13.5t8.5 11.5l60 34v311q0 8 5.5 13.5t13.5 5.5h84q8 0 13.5 -5.5t5.5 -13.5v-239l63 37q8 5 15 2.5t11 -9.5l7 -13q4 -6 2 -13.5t-9 -11.5l-89 -52v-363q0 -8 -5.5 -13.5t-13.5 -5.5h-84q-8 0 -13.5 5.5
t-5.5 13.5v292z" />
    <glyph glyph-name="ldot" unicode="&#x140;" horiz-adv-x="395" 
d="M60 681q0 8 5.5 13.5t13.5 5.5h84q8 0 13.5 -5.5t5.5 -13.5v-662q0 -8 -5.5 -13.5t-13.5 -5.5h-84q-8 0 -13.5 5.5t-5.5 13.5v662zM318 288q-30 0 -51 21t-21 51t21 51t51 21t51 -21t21 -51t-21 -51t-51 -21z" />
    <glyph glyph-name="nacute" unicode="&#x144;" horiz-adv-x="519" 
d="M60 381q0 8 5.5 13.5t13.5 5.5h38q12 0 17 -12l14 -37q6 6 17.5 16t29.5 19.5t41.5 16.5t52.5 7q48 0 81.5 -16.5t55 -44t31.5 -63.5t10 -75v-192q0 -8 -5.5 -13.5t-13.5 -5.5h-82q-8 0 -13.5 5.5t-5.5 13.5v198q0 39 -19.5 62t-55.5 23q-20 0 -35.5 -6t-27.5 -15.5
t-19.5 -20.5t-11.5 -21v-220q0 -11 -5.5 -15t-19.5 -4h-74q-8 0 -13.5 5.5t-5.5 13.5v362zM198 528q-11 -5 -16.5 -3t-9.5 9l-17 36q-3 6 -1 11t7 8l163 97q7 5 14.5 4.5t11.5 -7.5l29 -51q5 -10 2.5 -17t-8.5 -10z" />
    <glyph glyph-name="ncaron" unicode="&#x148;" horiz-adv-x="519" 
d="M60 381q0 8 5.5 13.5t13.5 5.5h38q12 0 17 -12l14 -37q6 6 17.5 16t29.5 19.5t41.5 16.5t52.5 7q48 0 81.5 -16.5t55 -44t31.5 -63.5t10 -75v-192q0 -8 -5.5 -13.5t-13.5 -5.5h-82q-8 0 -13.5 5.5t-5.5 13.5v198q0 39 -19.5 62t-55.5 23q-20 0 -35.5 -6t-27.5 -15.5
t-19.5 -20.5t-11.5 -21v-220q0 -11 -5.5 -15t-19.5 -4h-74q-8 0 -13.5 5.5t-5.5 13.5v362zM129 625q-5 3 -7.5 8.5t1.5 10.5l26 37q5 6 9.5 7t13.5 -4l97 -61l98 61q9 5 13.5 4t9.5 -7l26 -37q4 -5 1.5 -10.5t-7.5 -8.5l-130 -101q-10 -8 -21 0z" />
    <glyph glyph-name="ntilde" unicode="&#xf1;" horiz-adv-x="519" 
d="M60 381q0 8 5.5 13.5t13.5 5.5h38q12 0 17 -12l14 -37q6 6 17.5 16t29.5 19.5t41.5 16.5t52.5 7q48 0 81.5 -16.5t55 -44t31.5 -63.5t10 -75v-192q0 -8 -5.5 -13.5t-13.5 -5.5h-82q-8 0 -13.5 5.5t-5.5 13.5v198q0 39 -19.5 62t-55.5 23q-20 0 -35.5 -6t-27.5 -15.5
t-19.5 -20.5t-11.5 -21v-220q0 -11 -5.5 -15t-19.5 -4h-74q-8 0 -13.5 5.5t-5.5 13.5v362zM119 583q-5 4 -6.5 11t0.5 12l12 21t21 28t30.5 24.5t40.5 10.5q19 0 33 -8.5t25.5 -19t23 -19t25.5 -8.5q13 0 21 9.5t14 19t12.5 15t17.5 -2.5l28 -20q7 -5 6.5 -13.5t-5.5 -17.5
l-11.5 -20t-19.5 -25.5t-28.5 -21.5t-37.5 -9q-20 0 -34.5 8.5t-27 19l-24 19.5t-23.5 9q-14 0 -21 -9.5t-13 -19t-12.5 -15.5t-17.5 1z" />
    <glyph glyph-name="ncommaaccent" unicode="&#x146;" horiz-adv-x="520" 
d="M60 381q0 8 5.5 13.5t13.5 5.5h38q12 0 17 -12l14 -37q6 6 17.5 16t29.5 19.5t41.5 16.5t52.5 7q48 0 81.5 -16.5t55 -44t31.5 -63.5t10 -75v-192q0 -8 -5.5 -13.5t-13.5 -5.5h-82q-8 0 -13.5 5.5t-5.5 13.5v198q0 39 -19.5 62t-55.5 23q-20 0 -35.5 -6t-27.5 -15.5
t-19.5 -20.5t-11.5 -21v-220q0 -11 -5.5 -15t-19.5 -4h-74q-8 0 -13.5 5.5t-5.5 13.5v362zM259 -91q13 0 28 -5t27 -17.5t20 -33t8 -51.5q0 -37 -10.5 -66.5t-25 -52t-29.5 -38t-25 -24.5q-13 -10 -23 1l-15 14q-5 5 -3.5 11.5t6.5 11.5q4 3 15 12.5t22.5 25t21 37t9.5 47.5
q-1 0 -9.5 -2.5t-21.5 -2.5q-27 0 -47 19t-20 47t20.5 47.5t51.5 19.5z" />
    <glyph glyph-name="napostrophe" unicode="&#x149;" horiz-adv-x="519" 
d="M60 381q0 8 5.5 13.5t13.5 5.5h38q12 0 17 -12l14 -37q6 6 17.5 16t29.5 19.5t41.5 16.5t52.5 7q48 0 81.5 -16.5t55 -44t31.5 -63.5t10 -75v-192q0 -8 -5.5 -13.5t-13.5 -5.5h-82q-8 0 -13.5 5.5t-5.5 13.5v198q0 39 -19.5 62t-55.5 23q-20 0 -35.5 -6t-27.5 -15.5
t-19.5 -20.5t-11.5 -21v-220q0 -11 -5.5 -15t-19.5 -4h-74q-8 0 -13.5 5.5t-5.5 13.5v362zM-85 710q13 0 28 -5t27 -17.5t20 -33t8 -51.5q0 -37 -10.5 -66.5t-25 -52t-29.5 -38t-25 -24.5q-13 -10 -23 1l-15 14q-5 5 -3.5 11.5t6.5 11.5q4 3 15 12.5t22.5 25t21 37t9.5 47.5
q-1 0 -9.5 -2.5t-21.5 -2.5q-27 0 -47 19t-20 47t20.5 47.5t51.5 19.5z" />
    <glyph glyph-name="ograve" unicode="&#xf2;" horiz-adv-x="468" 
d="M29 201q0 42 16 80t44 66.5t65.5 45.5t79.5 17t79.5 -17t65.5 -45.5t44 -66.5t16 -80q0 -43 -16 -81.5t-44 -67t-65.5 -45.5t-79.5 -17t-79.5 17t-65.5 45.5t-44 67t-16 81.5zM138 201q0 -43 27.5 -73t68.5 -30q20 0 37.5 8t30.5 22t20.5 33t7.5 40t-7.5 39.5t-20.5 32
t-30.5 21.5t-37.5 8t-37.5 -8t-30.5 -21.5t-20.5 -32t-7.5 -39.5zM131 535q-6 3 -8.5 10t2.5 17l28 51q4 7 11.5 7.5t14.5 -4.5l164 -97q5 -2 7 -7.5t-1 -11.5l-18 -36q-6 -14 -25 -6z" />
    <glyph glyph-name="oacute" unicode="&#xf3;" horiz-adv-x="468" 
d="M29 201q0 42 16 80t44 66.5t65.5 45.5t79.5 17t79.5 -17t65.5 -45.5t44 -66.5t16 -80q0 -43 -16 -81.5t-44 -67t-65.5 -45.5t-79.5 -17t-79.5 17t-65.5 45.5t-44 67t-16 81.5zM138 201q0 -43 27.5 -73t68.5 -30q20 0 37.5 8t30.5 22t20.5 33t7.5 40t-7.5 39.5t-20.5 32
t-30.5 21.5t-37.5 8t-37.5 -8t-30.5 -21.5t-20.5 -32t-7.5 -39.5zM163 458q-11 -5 -16.5 -3t-9.5 9l-17 36q-3 6 -1 11t7 8l163 97q7 5 14.5 4.5t11.5 -7.5l29 -51q5 -10 2.5 -17t-8.5 -10z" />
    <glyph glyph-name="ocircumflex" unicode="&#xf4;" horiz-adv-x="468" 
d="M29 201q0 42 16 80t44 66.5t65.5 45.5t79.5 17t79.5 -17t65.5 -45.5t44 -66.5t16 -80q0 -43 -16 -81.5t-44 -67t-65.5 -45.5t-79.5 -17t-79.5 17t-65.5 45.5t-44 67t-16 81.5zM138 201q0 -43 27.5 -73t68.5 -30q20 0 37.5 8t30.5 22t20.5 33t7.5 40t-7.5 39.5t-20.5 32
t-30.5 21.5t-37.5 8t-37.5 -8t-30.5 -21.5t-20.5 -32t-7.5 -39.5zM86 486q-4 5 -1.5 10.5t7.5 8.5l130 101q10 8 21 0l130 -101q5 -3 7.5 -8.5t-1.5 -10.5l-26 -37q-5 -6 -9.5 -7t-13.5 4l-97 61l-98 -61q-9 -5 -13.5 -4t-9.5 7z" />
    <glyph glyph-name="otilde" unicode="&#xf5;" horiz-adv-x="468" 
d="M29 201q0 42 16 80t44 66.5t65.5 45.5t79.5 17t79.5 -17t65.5 -45.5t44 -66.5t16 -80q0 -43 -16 -81.5t-44 -67t-65.5 -45.5t-79.5 -17t-79.5 17t-65.5 45.5t-44 67t-16 81.5zM138 201q0 -43 27.5 -73t68.5 -30q20 0 37.5 8t30.5 22t20.5 33t7.5 40t-7.5 39.5t-20.5 32
t-30.5 21.5t-37.5 8t-37.5 -8t-30.5 -21.5t-20.5 -32t-7.5 -39.5zM84 513q-5 4 -6.5 11t0.5 12l12 21t21 28t30.5 24.5t40.5 10.5q19 0 33 -8.5t25.5 -19t23 -19t25.5 -8.5q13 0 21 9.5t14 19t12.5 15t17.5 -2.5l28 -20q7 -5 6.5 -13.5t-5.5 -17.5l-11.5 -20t-19.5 -25.5
t-28.5 -21.5t-37.5 -9q-20 0 -34.5 8.5t-27 19l-24 19.5t-23.5 9q-14 0 -21 -9.5t-13 -19t-12.5 -15.5t-17.5 1z" />
    <glyph glyph-name="odieresis" unicode="&#xf6;" horiz-adv-x="468" 
d="M29 201q0 42 16 80t44 66.5t65.5 45.5t79.5 17t79.5 -17t65.5 -45.5t44 -66.5t16 -80q0 -43 -16 -81.5t-44 -67t-65.5 -45.5t-79.5 -17t-79.5 17t-65.5 45.5t-44 67t-16 81.5zM138 201q0 -43 27.5 -73t68.5 -30q20 0 37.5 8t30.5 22t20.5 33t7.5 40t-7.5 39.5t-20.5 32
t-30.5 21.5t-37.5 8t-37.5 -8t-30.5 -21.5t-20.5 -32t-7.5 -39.5zM333 551q-26 0 -44.5 19t-18.5 45t18.5 44.5t44.5 18.5t45 -18.5t19 -44.5t-19 -45t-45 -19zM132 551q-26 0 -44.5 19t-18.5 45t18.5 44.5t44.5 18.5t45 -18.5t19 -44.5t-19 -45t-45 -19z" />
    <glyph glyph-name="omacron" unicode="&#x14d;" horiz-adv-x="468" 
d="M29 201q0 42 16 80t44 66.5t65.5 45.5t79.5 17t79.5 -17t65.5 -45.5t44 -66.5t16 -80q0 -43 -16 -81.5t-44 -67t-65.5 -45.5t-79.5 -17t-79.5 17t-65.5 45.5t-44 67t-16 81.5zM138 201q0 -43 27.5 -73t68.5 -30q20 0 37.5 8t30.5 22t20.5 33t7.5 40t-7.5 39.5t-20.5 32
t-30.5 21.5t-37.5 8t-37.5 -8t-30.5 -21.5t-20.5 -32t-7.5 -39.5zM106 570q-8 0 -13.5 5t-5.5 13v34q0 19 19 19h256q19 0 19 -19v-34q0 -8 -5.5 -13t-13.5 -5h-256z" />
    <glyph glyph-name="obreve" unicode="&#x14f;" horiz-adv-x="468" 
d="M29 201q0 42 16 80t44 66.5t65.5 45.5t79.5 17t79.5 -17t65.5 -45.5t44 -66.5t16 -80q0 -43 -16 -81.5t-44 -67t-65.5 -45.5t-79.5 -17t-79.5 17t-65.5 45.5t-44 67t-16 81.5zM138 201q0 -43 27.5 -73t68.5 -30q20 0 37.5 8t30.5 22t20.5 33t7.5 40t-7.5 39.5t-20.5 32
t-30.5 21.5t-37.5 8t-37.5 -8t-30.5 -21.5t-20.5 -32t-7.5 -39.5zM235 528q-27 0 -51 9t-42.5 25t-30.5 37.5t-16 46.5q-2 9 3 15.5t15 6.5h37q7 0 11 -4.5t6 -9.5q8 -23 25.5 -38t42.5 -15q23 0 40.5 16t25.5 37q2 6 7 10t10 4h39q9 0 14 -6.5t4 -15.5q-4 -25 -16.5 -46.5
t-31 -37.5t-42 -25t-50.5 -9z" />
    <glyph glyph-name="ohungarumlaut" unicode="&#x151;" horiz-adv-x="468" 
d="M29 201q0 42 16 80t44 66.5t65.5 45.5t79.5 17t79.5 -17t65.5 -45.5t44 -66.5t16 -80q0 -43 -16 -81.5t-44 -67t-65.5 -45.5t-79.5 -17t-79.5 17t-65.5 45.5t-44 67t-16 81.5zM138 201q0 -43 27.5 -73t68.5 -30q20 0 37.5 8t30.5 22t20.5 33t7.5 40t-7.5 39.5t-20.5 32
t-30.5 21.5t-37.5 8t-37.5 -8t-30.5 -21.5t-20.5 -32t-7.5 -39.5zM304 521q-12 0 -16.5 5.5t-2.5 13.5l37 141q2 8 6.5 13.5t12.5 5.5h76q14 0 18.5 -8t-0.5 -17l-78 -139q-3 -6 -8 -10.5t-10 -4.5h-35zM138 521q-12 0 -16.5 5.5t-2.5 13.5l37 141q2 8 6.5 13.5t12.5 5.5h76
q14 0 18.5 -7.5t-0.5 -17.5l-78 -139q-3 -6 -8 -10.5t-10 -4.5h-35z" />
    <glyph glyph-name="oslash" unicode="&#xf8;" horiz-adv-x="468" 
d="M51 24q-5 5 -5.5 13t4.5 13l22 22q-20 26 -31 60t-11 70q0 42 16 80t44 66.5t65.5 45t79.5 16.5q35 0 67.5 -12.5t58.5 -33.5l26 26q5 6 13 5.5t13 -5.5l10 -10q14 -12 0 -26l-26 -26q20 -26 31 -58.5t11 -67.5q0 -43 -16 -81.5t-43.5 -67.5t-65 -46t-79.5 -17
q-36 0 -68.5 12t-58.5 33l-21 -22q-5 -5 -13.5 -5t-13.5 6zM284 287q-21 15 -49 15q-20 0 -37.5 -8t-30.5 -21.5t-20.5 -31.5t-7.5 -39q0 -28 11 -50zM185 112q22 -14 50 -14q20 0 37.5 8t30 22.5t20 33.5t7.5 40q0 25 -11 47z" />
    <glyph glyph-name="oslashacute" unicode="&#x1ff;" horiz-adv-x="468" 
d="M163 528q-11 -5 -16.5 -3t-9.5 9l-17 36q-3 6 -1 11t7 8l163 97q7 5 14.5 4.5t11.5 -7.5l29 -51q5 -10 2.5 -17t-8.5 -10zM51 24q-5 5 -5.5 13t4.5 13l22 22q-20 26 -31 60t-11 70q0 42 16 80t44 66.5t65.5 45t79.5 16.5q35 0 67.5 -12.5t58.5 -33.5l26 26q5 6 13 5.5
t13 -5.5l10 -10q14 -12 0 -26l-26 -26q20 -26 31 -58.5t11 -67.5q0 -43 -16 -81.5t-43.5 -67.5t-65 -46t-79.5 -17q-36 0 -68.5 12t-58.5 33l-21 -22q-5 -5 -13.5 -5t-13.5 6zM284 287q-21 15 -49 15q-20 0 -37.5 -8t-30.5 -21.5t-20.5 -31.5t-7.5 -39q0 -28 11 -50z
M185 112q22 -14 50 -14q20 0 37.5 8t30 22.5t20 33.5t7.5 40q0 25 -11 47z" />
    <glyph glyph-name="oe" unicode="&#x153;" horiz-adv-x="732" 
d="M29 202q0 42 16 80t44 66.5t65.5 45t79.5 16.5t79 -17t64 -46q26 29 62.5 46t81.5 17q38 0 72 -13.5t59.5 -38t40.5 -59t15 -75.5q0 -5 -0.5 -13.5t-1.5 -13.5q-1 -8 -6.5 -12.5t-12.5 -4.5h-255q2 -15 9 -31t19 -28.5t29 -20.5t38 -8q23 0 44 8t35 18q7 5 14 6t12 -6
l40 -47q5 -6 6 -13t-7 -13q-24 -23 -62 -39t-87 -16q-45 0 -81.5 17t-63.5 46q-27 -29 -64 -46t-79 -17t-79.5 17t-65.5 46t-44 67.5t-16 81.5zM591 250q-2 29 -23 48t-50 19q-30 0 -51.5 -19t-25.5 -48h150zM138 202q0 -21 7.5 -40t20.5 -33.5t30.5 -22.5t37.5 -8t37.5 8
t30.5 22.5t20.5 33.5t7.5 40t-7.5 39t-20.5 31.5t-30.5 21.5t-37.5 8t-37.5 -8t-30.5 -21.5t-20.5 -31.5t-7.5 -39z" />
    <glyph glyph-name="racute" unicode="&#x155;" horiz-adv-x="341" 
d="M60 381q0 8 5.5 13.5t13.5 5.5h38q13 0 18 -13l14 -39q5 7 14.5 18t24 20.5t33 16.5t41.5 7q18 0 33.5 -2.5t27 -8t16 -13t0.5 -16.5l-37 -65q-4 -7 -10.5 -9.5t-12.5 0.5q-2 1 -11.5 3.5t-17.5 2.5q-30 0 -48 -15t-23 -26v-242q0 -19 -23 -19h-77q-8 0 -13.5 5.5
t-5.5 13.5v362zM108 528q-11 -5 -16.5 -3t-9.5 9l-17 36q-3 6 -1 11t7 8l163 97q7 5 14.5 4.5t11.5 -7.5l29 -51q5 -10 2.5 -17t-8.5 -10z" />
    <glyph glyph-name="rcaron" unicode="&#x159;" horiz-adv-x="341" 
d="M60 381q0 8 5.5 13.5t13.5 5.5h38q13 0 18 -13l14 -39q5 7 14.5 18t24 20.5t33 16.5t41.5 7q18 0 33.5 -2.5t27 -8t16 -13t0.5 -16.5l-37 -65q-4 -7 -10.5 -9.5t-12.5 0.5q-2 1 -11.5 3.5t-17.5 2.5q-30 0 -48 -15t-23 -26v-242q0 -19 -23 -19h-77q-8 0 -13.5 5.5
t-5.5 13.5v362zM34 625q-5 3 -7.5 8.5t1.5 10.5l26 37q5 6 9.5 7t13.5 -4l97 -61l98 61q9 5 13.5 4t9.5 -7l26 -37q4 -5 1.5 -10.5t-7.5 -8.5l-130 -101q-10 -8 -21 0z" />
    <glyph glyph-name="rcommaaccent" unicode="&#x157;" horiz-adv-x="341" 
d="M60 381q0 8 5.5 13.5t13.5 5.5h38q13 0 18 -13l14 -39q5 7 14.5 18t24 20.5t33 16.5t41.5 7q18 0 33.5 -2.5t27 -8t16 -13t0.5 -16.5l-37 -65q-4 -7 -10.5 -9.5t-12.5 0.5q-2 1 -11.5 3.5t-17.5 2.5q-30 0 -48 -15t-23 -26v-242q0 -19 -23 -19h-77q-8 0 -13.5 5.5
t-5.5 13.5v362zM113 -91q13 0 28 -5t27 -17.5t20 -33t8 -51.5q0 -37 -10.5 -66.5t-25 -52t-29.5 -38t-25 -24.5q-13 -10 -23 1l-15 14q-5 5 -3.5 11.5t6.5 11.5q4 3 15 12.5t22.5 25t21 37t9.5 47.5q-1 0 -9.5 -2.5t-21.5 -2.5q-27 0 -47 19t-20 47t20.5 47.5t51.5 19.5z
" />
    <glyph glyph-name="sacute" unicode="&#x15b;" horiz-adv-x="364" 
d="M44 27q-5 4 -7 9.5t1 11.5l27 54q3 8 9.5 9.5t13.5 -2.5q13 -7 28 -12q13 -5 29.5 -8.5t33.5 -3.5q15 0 24.5 6t9.5 19q0 14 -13.5 24t-53.5 26q-58 23 -85.5 54.5t-27.5 77.5q0 23 8.5 44t26.5 37.5t46 26.5t66 10q45 0 76 -10t47 -21q7 -5 10 -12t-1 -15l-25 -51
q-4 -7 -11 -8t-13 1q-13 6 -27 10q-12 4 -27 7.5t-29 3.5q-18 0 -26 -6.5t-8 -16.5q0 -14 13.5 -21t41.5 -18q29 -11 53.5 -23.5t42.5 -29t28.5 -38t10.5 -50.5q0 -25 -10.5 -47t-31 -38.5t-50 -26.5t-67.5 -10q-50 0 -83.5 12.5t-49.5 24.5zM115 528q-11 -5 -16.5 -3
t-9.5 9l-17 36q-3 6 -1 11t7 8l163 97q7 5 14.5 4.5t11.5 -7.5l29 -51q5 -10 2.5 -17t-8.5 -10z" />
    <glyph glyph-name="scircumflex" unicode="&#x15d;" horiz-adv-x="364" 
d="M44 27q-5 4 -7 9.5t1 11.5l27 54q3 8 9.5 9.5t13.5 -2.5q13 -7 28 -12q13 -5 29.5 -8.5t33.5 -3.5q15 0 24.5 6t9.5 19q0 14 -13.5 24t-53.5 26q-58 23 -85.5 54.5t-27.5 77.5q0 23 8.5 44t26.5 37.5t46 26.5t66 10q45 0 76 -10t47 -21q7 -5 10 -12t-1 -15l-25 -51
q-4 -7 -11 -8t-13 1q-13 6 -27 10q-12 4 -27 7.5t-29 3.5q-18 0 -26 -6.5t-8 -16.5q0 -14 13.5 -21t41.5 -18q29 -11 53.5 -23.5t42.5 -29t28.5 -38t10.5 -50.5q0 -25 -10.5 -47t-31 -38.5t-50 -26.5t-67.5 -10q-50 0 -83.5 12.5t-49.5 24.5zM34 566q-4 5 -1.5 10.5t7.5 8.5
l130 101q10 8 21 0l130 -101q5 -3 7.5 -8.5t-1.5 -10.5l-26 -37q-5 -6 -9.5 -7t-13.5 4l-97 61l-98 -61q-9 -5 -13.5 -4t-9.5 7z" />
    <glyph glyph-name="scaron" unicode="&#x161;" horiz-adv-x="364" 
d="M44 27q-5 4 -7 9.5t1 11.5l27 54q3 8 9.5 9.5t13.5 -2.5q13 -7 28 -12q13 -5 29.5 -8.5t33.5 -3.5q15 0 24.5 6t9.5 19q0 14 -13.5 24t-53.5 26q-58 23 -85.5 54.5t-27.5 77.5q0 23 8.5 44t26.5 37.5t46 26.5t66 10q45 0 76 -10t47 -21q7 -5 10 -12t-1 -15l-25 -51
q-4 -7 -11 -8t-13 1q-13 6 -27 10q-12 4 -27 7.5t-29 3.5q-18 0 -26 -6.5t-8 -16.5q0 -14 13.5 -21t41.5 -18q29 -11 53.5 -23.5t42.5 -29t28.5 -38t10.5 -50.5q0 -25 -10.5 -47t-31 -38.5t-50 -26.5t-67.5 -10q-50 0 -83.5 12.5t-49.5 24.5zM45 625q-5 3 -7.5 8.5t1.5 10.5
l26 37q5 6 9.5 7t13.5 -4l97 -61l98 61q9 5 13.5 4t9.5 -7l26 -37q4 -5 1.5 -10.5t-7.5 -8.5l-130 -101q-10 -8 -21 0z" />
    <glyph glyph-name="scedilla" unicode="&#x15f;" horiz-adv-x="366" 
d="M45 27q-5 4 -7 9.5t1 11.5l27 54q3 8 9.5 9.5t13.5 -2.5q13 -7 28 -12q13 -5 29.5 -8.5t33.5 -3.5q15 0 24.5 6t9.5 19q0 14 -13.5 24t-53.5 26q-58 23 -85.5 54.5t-27.5 77.5q0 23 8.5 44t26.5 37.5t46 26.5t66 10q45 0 76 -10t47 -21q7 -5 10 -12t-1 -15l-25 -51
q-4 -7 -11 -8t-13 1q-13 6 -27 10q-12 4 -27 7.5t-29 3.5q-18 0 -26 -6.5t-8 -16.5q0 -14 13.5 -21t41.5 -18q29 -11 53.5 -23.5t42.5 -29t28.5 -38t10.5 -50.5q0 -48 -38.5 -83t-108.5 -38v-43q46 -6 71.5 -33.5t25.5 -69.5q0 -22 -8.5 -41t-22.5 -33.5t-33.5 -22.5
t-41.5 -8q-23 0 -43 10t-33 25q-6 7 -5 14.5t8 13.5l20 17q5 5 11 4.5t10 -5.5q6 -7 14.5 -9.5t15.5 -2.5q15 0 25 11t10 26q0 18 -17 32t-56 17q-11 2 -14 8t-3 10v84q-29 5 -48.5 14.5t-30.5 17.5z" />
    <glyph glyph-name="scommaaccent" unicode="&#x219;" horiz-adv-x="364" 
d="M44 27q-5 4 -7 9.5t1 11.5l27 54q3 8 9.5 9.5t13.5 -2.5q13 -7 28 -12q13 -5 29.5 -8.5t33.5 -3.5q15 0 24.5 6t9.5 19q0 14 -13.5 24t-53.5 26q-58 23 -85.5 54.5t-27.5 77.5q0 23 8.5 44t26.5 37.5t46 26.5t66 10q45 0 76 -10t47 -21q7 -5 10 -12t-1 -15l-25 -51
q-4 -7 -11 -8t-13 1q-13 6 -27 10q-12 4 -27 7.5t-29 3.5q-18 0 -26 -6.5t-8 -16.5q0 -14 13.5 -21t41.5 -18q29 -11 53.5 -23.5t42.5 -29t28.5 -38t10.5 -50.5q0 -25 -10.5 -47t-31 -38.5t-50 -26.5t-67.5 -10q-50 0 -83.5 12.5t-49.5 24.5zM184 -91q13 0 28 -5t27 -17.5
t20 -33t8 -51.5q0 -37 -10.5 -66.5t-25 -52t-29.5 -38t-25 -24.5q-13 -10 -23 1l-15 14q-5 5 -3.5 11.5t6.5 11.5q4 3 15 12.5t22.5 25t21 37t9.5 47.5q-1 0 -9.5 -2.5t-21.5 -2.5q-27 0 -47 19t-20 47t20.5 47.5t51.5 19.5z" />
    <glyph glyph-name="germandbls" unicode="&#xdf;" horiz-adv-x="517" 
d="M60 412q0 75 17 131t48 93t74.5 55.5t97.5 18.5q31 0 61 -9t54 -28.5t38.5 -49t14.5 -70.5q0 -34 -12.5 -62.5t-27 -53.5l-27 -46.5t-12.5 -40.5q0 -16 16 -35t35 -44t35 -56t16 -71q0 -41 -14.5 -70.5t-38 -48t-52.5 -27t-59 -8.5q-11 0 -26.5 2.5t-17.5 17.5l-9 67
q-1 7 4 13.5t13 5.5q27 -2 51 10.5t24 40.5q0 24 -16.5 45t-36 42.5t-35.5 45t-16 52.5q0 26 12.5 53t28 54.5t28 55t12.5 53.5q0 24 -16 39t-39 15q-18 0 -36 -9.5t-32.5 -31.5t-24 -59t-9.5 -92v-391q0 -8 -5.5 -13.5t-13.5 -5.5h-85q-8 0 -13.5 5.5t-5.5 13.5v393z" />
    <glyph glyph-name="tcaron" unicode="&#x165;" horiz-adv-x="345" 
d="M81 295h-34q-8 0 -13 5.5t-5 13.5v67q0 8 5 13.5t13 5.5h34v111q0 8 5.5 13.5t13.5 5.5l82 1q8 0 13 -5.5t5 -13.5v-112h88q19 0 19 -19v-67q0 -8 -5.5 -13.5t-13.5 -5.5h-88v-160q0 -21 9.5 -26.5t21.5 -5.5q13 0 27 4t22 7q17 6 22 -11l20 -63q3 -8 0 -14.5t-11 -9.5
q-2 -1 -14 -5.5t-29 -9t-37.5 -8t-38.5 -3.5q-58 0 -84.5 34t-26.5 95v176zM384 437q-5 5 -4 11.5t6 11.5q4 3 15 12.5t23 25t21 37t9 47.5q-1 0 -9.5 -2.5t-20.5 -2.5q-28 0 -47.5 19t-19.5 47t20 47.5t51 19.5q13 0 28 -5t27 -17.5t20 -33t8 -51.5q0 -37 -10.5 -66.5
t-25 -52t-29.5 -38t-25 -24.5q-6 -5 -11.5 -5t-11.5 6z" />
    <glyph glyph-name="tcommaaccent" unicode="&#x163;" horiz-adv-x="346" 
d="M81 295h-34q-8 0 -13 5.5t-5 13.5v67q0 8 5 13.5t13 5.5h34v111q0 8 5.5 13.5t13.5 5.5l82 1q8 0 13 -5.5t5 -13.5v-112h88q19 0 19 -19v-67q0 -8 -5.5 -13.5t-13.5 -5.5h-88v-160q0 -21 9.5 -26.5t21.5 -5.5q13 0 27 4t22 7q17 6 22 -11l20 -63q3 -8 0 -14.5t-11 -9.5
q-2 -1 -14 -5.5t-29 -9t-37.5 -8t-38.5 -3.5q-58 0 -84.5 34t-26.5 95v176zM193 -91q13 0 28 -5t27 -17.5t20 -33t8 -51.5q0 -37 -10.5 -66.5t-25 -52t-29.5 -38t-25 -24.5q-13 -10 -23 1l-15 14q-5 5 -3.5 11.5t6.5 11.5q4 3 15 12.5t22.5 25t21 37t9.5 47.5
q-1 0 -9.5 -2.5t-21.5 -2.5q-27 0 -47 19t-20 47t20.5 47.5t51.5 19.5z" />
    <glyph glyph-name="uni021B" unicode="&#x21b;" horiz-adv-x="346" 
d="M81 295h-34q-8 0 -13 5.5t-5 13.5v67q0 8 5 13.5t13 5.5h34v111q0 8 5.5 13.5t13.5 5.5l82 1q8 0 13 -5.5t5 -13.5v-112h88q19 0 19 -19v-67q0 -8 -5.5 -13.5t-13.5 -5.5h-88v-160q0 -21 9.5 -26.5t21.5 -5.5q13 0 27 4t22 7q17 6 22 -11l20 -63q3 -8 0 -14.5t-11 -9.5
q-2 -1 -14 -5.5t-29 -9t-37.5 -8t-38.5 -3.5q-58 0 -84.5 34t-26.5 95v176zM193 -91q13 0 28 -5t27 -17.5t20 -33t8 -51.5q0 -37 -10.5 -66.5t-25 -52t-29.5 -38t-25 -24.5q-13 -10 -23 1l-15 14q-5 5 -3.5 11.5t6.5 11.5q4 3 15 12.5t22.5 25t21 37t9.5 47.5
q-1 0 -9.5 -2.5t-21.5 -2.5q-27 0 -47 19t-20 47t20.5 47.5t51.5 19.5z" />
    <glyph glyph-name="tbar" unicode="&#x167;" horiz-adv-x="345" 
d="M81 170h-31q-8 0 -13 5.5t-5 13.5v13q0 8 5 13.5t13 5.5h31v74h-34q-8 0 -13 5.5t-5 13.5v67q0 8 5 13.5t13 5.5h34v111q0 8 5.5 13.5t13.5 5.5l82 1q8 0 13 -5.5t5 -13.5v-112h88q19 0 19 -19v-67q0 -8 -5.5 -13.5t-13.5 -5.5h-88v-74h81q8 0 13.5 -5.5t5.5 -13.5v-14
q0 -8 -5.5 -13t-13.5 -5h-81v-34q0 -21 9.5 -26.5t21.5 -5.5q13 0 27 3.5t22 6.5q17 6 22 -11l20 -63q2 -8 -0.5 -14.5t-10.5 -9.5q-2 -1 -14 -5.5t-29 -9t-37.5 -8t-38.5 -3.5q-58 0 -84.5 34t-26.5 95v51z" />
    <glyph glyph-name="thorn" unicode="&#xfe;" horiz-adv-x="500" 
d="M183 -282q0 -8 -5.5 -13.5t-13.5 -5.5h-85q-8 0 -13.5 5.5t-5.5 13.5v963q0 8 5.5 13.5t13.5 5.5h85q8 0 13.5 -5.5t5.5 -13.5v-300q12 8 35.5 18t58.5 10q41 0 76.5 -16.5t61.5 -45t40.5 -66.5t14.5 -81q0 -45 -16 -83t-43.5 -66.5t-64.5 -44.5t-79 -16q-26 0 -49 8
t-35 14v-294zM183 126q8 -9 27 -18t47 -9q42 0 69.5 29t27.5 72q0 21 -7 39.5t-19.5 32.5t-30 22t-38.5 8q-35 0 -54 -14.5t-22 -23.5v-138z" />
    <glyph glyph-name="ugrave" unicode="&#xf9;" horiz-adv-x="503" 
d="M53 381q0 8 5.5 13.5t13.5 5.5h82q8 0 13.5 -5.5t5.5 -13.5v-197q0 -40 19 -63t54 -23q32 0 53.5 24t26.5 51v208q0 11 5 15t17 4h76q8 0 13.5 -5.5t5.5 -13.5v-362q0 -8 -5.5 -13.5t-13.5 -5.5h-37q-8 0 -12.5 4.5t-6.5 10.5l-12 33q-7 -6 -17.5 -16t-26.5 -19t-38 -16
t-52 -7q-47 0 -79 16.5t-52 44t-29 63t-9 73.5v194zM149 535q-6 3 -8.5 10t2.5 17l28 51q4 7 11.5 7.5t14.5 -4.5l164 -97q5 -2 7 -7.5t-1 -11.5l-18 -36q-6 -14 -25 -6z" />
    <glyph glyph-name="uacute" unicode="&#xfa;" horiz-adv-x="503" 
d="M53 381q0 8 5.5 13.5t13.5 5.5h82q8 0 13.5 -5.5t5.5 -13.5v-197q0 -40 19 -63t54 -23q32 0 53.5 24t26.5 51v208q0 11 5 15t17 4h76q8 0 13.5 -5.5t5.5 -13.5v-362q0 -8 -5.5 -13.5t-13.5 -5.5h-37q-8 0 -12.5 4.5t-6.5 10.5l-12 33q-7 -6 -17.5 -16t-26.5 -19t-38 -16
t-52 -7q-47 0 -79 16.5t-52 44t-29 63t-9 73.5v194zM182 458q-11 -5 -16.5 -3t-9.5 9l-17 36q-3 6 -1 11t7 8l163 97q7 5 14.5 4.5t11.5 -7.5l29 -51q5 -10 2.5 -17t-8.5 -10z" />
    <glyph glyph-name="ucircumflex" unicode="&#xfb;" horiz-adv-x="503" 
d="M53 381q0 8 5.5 13.5t13.5 5.5h82q8 0 13.5 -5.5t5.5 -13.5v-197q0 -40 19 -63t54 -23q32 0 53.5 24t26.5 51v208q0 11 5 15t17 4h76q8 0 13.5 -5.5t5.5 -13.5v-362q0 -8 -5.5 -13.5t-13.5 -5.5h-37q-8 0 -12.5 4.5t-6.5 10.5l-12 33q-7 -6 -17.5 -16t-26.5 -19t-38 -16
t-52 -7q-47 0 -79 16.5t-52 44t-29 63t-9 73.5v194zM103 566q-4 5 -1.5 10.5t7.5 8.5l130 101q10 8 21 0l130 -101q5 -3 7.5 -8.5t-1.5 -10.5l-26 -37q-5 -6 -9.5 -7t-13.5 4l-97 61l-98 -61q-9 -5 -13.5 -4t-9.5 7z" />
    <glyph glyph-name="utilde" unicode="&#x169;" horiz-adv-x="503" 
d="M53 381q0 8 5.5 13.5t13.5 5.5h82q8 0 13.5 -5.5t5.5 -13.5v-197q0 -40 19 -63t54 -23q32 0 53.5 24t26.5 51v208q0 11 5 15t17 4h76q8 0 13.5 -5.5t5.5 -13.5v-362q0 -8 -5.5 -13.5t-13.5 -5.5h-37q-8 0 -12.5 4.5t-6.5 10.5l-12 33q-7 -6 -17.5 -16t-26.5 -19t-38 -16
t-52 -7q-47 0 -79 16.5t-52 44t-29 63t-9 73.5v194zM104 493q-5 4 -6.5 11t0.5 12l12 21t21 28t30.5 24.5t40.5 10.5q19 0 33 -8.5t25.5 -19t23 -19t25.5 -8.5q13 0 21 9.5t14 19t12.5 15t17.5 -2.5l28 -20q7 -5 6.5 -13.5t-5.5 -17.5l-11.5 -20t-19.5 -25.5t-28.5 -21.5
t-37.5 -9q-20 0 -34.5 8.5t-27 19l-24 19.5t-23.5 9q-14 0 -21 -9.5t-13 -19t-12.5 -15.5t-17.5 1z" />
    <glyph glyph-name="udieresis" unicode="&#xfc;" horiz-adv-x="503" 
d="M53 381q0 8 5.5 13.5t13.5 5.5h82q8 0 13.5 -5.5t5.5 -13.5v-197q0 -40 19 -63t54 -23q32 0 53.5 24t26.5 51v208q0 11 5 15t17 4h76q8 0 13.5 -5.5t5.5 -13.5v-362q0 -8 -5.5 -13.5t-13.5 -5.5h-37q-8 0 -12.5 4.5t-6.5 10.5l-12 33q-7 -6 -17.5 -16t-26.5 -19t-38 -16
t-52 -7q-47 0 -79 16.5t-52 44t-29 63t-9 73.5v194zM357 551q-26 0 -44.5 19t-18.5 45t18.5 44.5t44.5 18.5t45 -18.5t19 -44.5t-19 -45t-45 -19zM156 551q-26 0 -44.5 19t-18.5 45t18.5 44.5t44.5 18.5t45 -18.5t19 -44.5t-19 -45t-45 -19z" />
    <glyph glyph-name="umacron" unicode="&#x16b;" horiz-adv-x="503" 
d="M53 381q0 8 5.5 13.5t13.5 5.5h82q8 0 13.5 -5.5t5.5 -13.5v-197q0 -40 19 -63t54 -23q32 0 53.5 24t26.5 51v208q0 11 5 15t17 4h76q8 0 13.5 -5.5t5.5 -13.5v-362q0 -8 -5.5 -13.5t-13.5 -5.5h-37q-8 0 -12.5 4.5t-6.5 10.5l-12 33q-7 -6 -17.5 -16t-26.5 -19t-38 -16
t-52 -7q-47 0 -79 16.5t-52 44t-29 63t-9 73.5v194zM125 570q-8 0 -13.5 5t-5.5 13v34q0 19 19 19h256q19 0 19 -19v-34q0 -8 -5.5 -13t-13.5 -5h-256z" />
    <glyph glyph-name="ubreve" unicode="&#x16d;" horiz-adv-x="503" 
d="M53 381q0 8 5.5 13.5t13.5 5.5h82q8 0 13.5 -5.5t5.5 -13.5v-197q0 -40 19 -63t54 -23q32 0 53.5 24t26.5 51v208q0 11 5 15t17 4h76q8 0 13.5 -5.5t5.5 -13.5v-362q0 -8 -5.5 -13.5t-13.5 -5.5h-37q-8 0 -12.5 4.5t-6.5 10.5l-12 33q-7 -6 -17.5 -16t-26.5 -19t-38 -16
t-52 -7q-47 0 -79 16.5t-52 44t-29 63t-9 73.5v194zM254 528q-27 0 -51 9t-42.5 25t-30.5 37.5t-16 46.5q-2 9 3 15.5t15 6.5h37q7 0 11 -4.5t6 -9.5q8 -23 25.5 -38t42.5 -15q23 0 40.5 16t25.5 37q2 6 7 10t10 4h39q9 0 14 -6.5t4 -15.5q-4 -25 -16.5 -46.5t-31 -37.5
t-42 -25t-50.5 -9z" />
    <glyph glyph-name="uring" unicode="&#x16f;" horiz-adv-x="503" 
d="M53 381q0 8 5.5 13.5t13.5 5.5h82q8 0 13.5 -5.5t5.5 -13.5v-197q0 -40 19 -63t54 -23q32 0 53.5 24t26.5 51v208q0 11 5 15t17 4h76q8 0 13.5 -5.5t5.5 -13.5v-362q0 -8 -5.5 -13.5t-13.5 -5.5h-37q-8 0 -12.5 4.5t-6.5 10.5l-12 33q-7 -6 -17.5 -16t-26.5 -19t-38 -16
t-52 -7q-47 0 -79 16.5t-52 44t-29 63t-9 73.5v194zM252 484q-24 0 -44.5 9t-35.5 24t-24 35.5t-9 44.5t9 44.5t24 35.5t35.5 24t44.5 9q23 0 43.5 -9t36 -24t24.5 -35.5t9 -44.5t-9 -44.5t-24.5 -35.5t-36 -24t-43.5 -9zM252 547q20 0 34 15t14 35t-14 34t-34 14t-35 -14
t-15 -34t15 -35t35 -15z" />
    <glyph glyph-name="uhungarumlaut" unicode="&#x171;" horiz-adv-x="503" 
d="M53 381q0 8 5.5 13.5t13.5 5.5h82q8 0 13.5 -5.5t5.5 -13.5v-197q0 -40 19 -63t54 -23q32 0 53.5 24t26.5 51v208q0 11 5 15t17 4h76q8 0 13.5 -5.5t5.5 -13.5v-362q0 -8 -5.5 -13.5t-13.5 -5.5h-37q-8 0 -12.5 4.5t-6.5 10.5l-12 33q-7 -6 -17.5 -16t-26.5 -19t-38 -16
t-52 -7q-47 0 -79 16.5t-52 44t-29 63t-9 73.5v194zM325 521q-12 0 -16.5 5.5t-2.5 13.5l37 141q2 8 6.5 13.5t12.5 5.5h76q14 0 18.5 -8t-0.5 -17l-78 -139q-3 -6 -8 -10.5t-10 -4.5h-35zM159 521q-12 0 -16.5 5.5t-2.5 13.5l37 141q2 8 6.5 13.5t12.5 5.5h76
q14 0 18.5 -7.5t-0.5 -17.5l-78 -139q-3 -6 -8 -10.5t-10 -4.5h-35z" />
    <glyph glyph-name="uogonek" unicode="&#x173;" horiz-adv-x="503" 
d="M53 381q0 8 5.5 13.5t13.5 5.5h82q8 0 13.5 -5.5t5.5 -13.5v-191q0 -40 19 -63t54 -23q32 0 53.5 24t26.5 51v202q0 11 5 15t17 4h76q8 0 13.5 -5.5t5.5 -13.5v-362q0 -8 -5.5 -13.5t-13.5 -5.5h-6q-14 -14 -29.5 -39t-15.5 -57q0 -26 17 -45t49 -19q15 0 26 3.5t20 5.5
q8 2 14 -3t6 -14v-30q0 -7 -4.5 -12t-9.5 -7q-3 -1 -23 -5.5t-43 -4.5q-26 0 -49 6.5t-40.5 20t-27.5 34.5t-10 49q0 30 10.5 53.5t23 40t24 26t13.5 10.5l-13 35q-7 -6 -17.5 -16t-26.5 -19t-38 -16t-52 -7q-47 0 -79 16.5t-52 44t-29 63t-9 73.5v194z" />
    <glyph glyph-name="wacute" unicode="&#x1e83;" horiz-adv-x="616" 
d="M18 377q-5 10 0.5 16.5t16.5 6.5h72q5 0 10.5 -3.5t7.5 -8.5l60 -179h1l102 192q2 3 5.5 6t10.5 3h8q11 0 16 -9l101 -192h1l60 179q3 8 9 10t14 2h65q11 0 16.5 -6.5t1.5 -16.5l-125 -376q-4 -11 -18 -11h-4q-11 0 -16 9l-126 233h-1l-125 -233q-5 -9 -16 -9h-5
q-13 0 -17 11zM237 528q-11 -5 -16.5 -3t-9.5 9l-17 36q-3 6 -1 11t7 8l163 97q7 5 14.5 4.5t11.5 -7.5l29 -51q5 -10 2.5 -17t-8.5 -10z" />
    <glyph glyph-name="wcircumflex" unicode="&#x175;" horiz-adv-x="616" 
d="M18 377q-5 10 0.5 16.5t16.5 6.5h72q5 0 10.5 -3.5t7.5 -8.5l60 -179h1l102 192q2 3 5.5 6t10.5 3h8q11 0 16 -9l101 -192h1l60 179q3 8 9 10t14 2h65q11 0 16.5 -6.5t1.5 -16.5l-125 -376q-4 -11 -18 -11h-4q-11 0 -16 9l-126 233h-1l-125 -233q-5 -9 -16 -9h-5
q-13 0 -17 11zM160 566q-4 5 -1.5 10.5t7.5 8.5l130 101q10 8 21 0l130 -101q5 -3 7.5 -8.5t-1.5 -10.5l-26 -37q-5 -6 -9.5 -7t-13.5 4l-97 61l-98 -61q-9 -5 -13.5 -4t-9.5 7z" />
    <glyph glyph-name="wdieresis" unicode="&#x1e85;" horiz-adv-x="616" 
d="M18 377q-5 10 0.5 16.5t16.5 6.5h72q5 0 10.5 -3.5t7.5 -8.5l60 -179h1l102 192q2 3 5.5 6t10.5 3h8q11 0 16 -9l101 -192h1l60 179q3 8 9 10t14 2h65q11 0 16.5 -6.5t1.5 -16.5l-125 -376q-4 -11 -18 -11h-4q-11 0 -16 9l-126 233h-1l-125 -233q-5 -9 -16 -9h-5
q-13 0 -17 11zM407 551q-26 0 -44.5 19t-18.5 45t18.5 44.5t44.5 18.5t45 -18.5t19 -44.5t-19 -45t-45 -19zM206 551q-26 0 -44.5 19t-18.5 45t18.5 44.5t44.5 18.5t45 -18.5t19 -44.5t-19 -45t-45 -19z" />
    <glyph glyph-name="wgrave" unicode="&#x1e81;" horiz-adv-x="616" 
d="M18 377q-5 10 0.5 16.5t16.5 6.5h72q5 0 10.5 -3.5t7.5 -8.5l60 -179h1l102 192q2 3 5.5 6t10.5 3h8q11 0 16 -9l101 -192h1l60 179q3 8 9 10t14 2h65q11 0 16.5 -6.5t1.5 -16.5l-125 -376q-4 -11 -18 -11h-4q-11 0 -16 9l-126 233h-1l-125 -233q-5 -9 -16 -9h-5
q-13 0 -17 11zM202 605q-6 3 -8.5 10t2.5 17l28 51q4 7 11.5 7.5t14.5 -4.5l164 -97q5 -2 7 -7.5t-1 -11.5l-18 -36q-6 -14 -25 -6z" />
    <glyph glyph-name="yacute" unicode="&#xfd;" horiz-adv-x="463" 
d="M8 374q-5 10 0.5 18t16.5 8h90q11 0 17 -11l101 -226h1l100 226q4 8 9.5 9.5t14.5 1.5h80q12 0 17 -8t0 -18l-306 -662q-2 -5 -6.5 -8.5t-10.5 -3.5h-86q-11 0 -16.5 8t-0.5 19l142 301zM164 458q-11 -5 -16.5 -3t-9.5 9l-17 36q-3 6 -1 11t7 8l163 97q7 5 14.5 4.5
t11.5 -7.5l29 -51q5 -10 2.5 -17t-8.5 -10z" />
    <glyph glyph-name="ycircumflex" unicode="&#x177;" horiz-adv-x="463" 
d="M8 374q-5 10 0.5 18t16.5 8h90q11 0 17 -11l101 -226h1l100 226q4 8 9.5 9.5t14.5 1.5h80q12 0 17 -8t0 -18l-306 -662q-2 -5 -6.5 -8.5t-10.5 -3.5h-86q-11 0 -16.5 8t-0.5 19l142 301zM86 566q-4 5 -1.5 10.5t7.5 8.5l130 101q10 8 21 0l130 -101q5 -3 7.5 -8.5
t-1.5 -10.5l-26 -37q-5 -6 -9.5 -7t-13.5 4l-97 61l-98 -61q-9 -5 -13.5 -4t-9.5 7z" />
    <glyph glyph-name="ydieresis" unicode="&#xff;" horiz-adv-x="463" 
d="M8 374q-5 10 0.5 18t16.5 8h90q11 0 17 -11l101 -226h1l100 226q4 8 9.5 9.5t14.5 1.5h80q12 0 17 -8t0 -18l-306 -662q-2 -5 -6.5 -8.5t-10.5 -3.5h-86q-11 0 -16.5 8t-0.5 19l142 301zM333 551q-26 0 -44.5 19t-18.5 45t18.5 44.5t44.5 18.5t45 -18.5t19 -44.5t-19 -45
t-45 -19zM132 551q-26 0 -44.5 19t-18.5 45t18.5 44.5t44.5 18.5t45 -18.5t19 -44.5t-19 -45t-45 -19z" />
    <glyph glyph-name="ygrave" unicode="&#x1ef3;" horiz-adv-x="463" 
d="M8 374q-5 10 0.5 18t16.5 8h90q11 0 17 -11l101 -226h1l100 226q4 8 9.5 9.5t14.5 1.5h80q12 0 17 -8t0 -18l-306 -662q-2 -5 -6.5 -8.5t-10.5 -3.5h-86q-11 0 -16.5 8t-0.5 19l142 301zM128 535q-6 3 -8.5 10t2.5 17l28 51q4 7 11.5 7.5t14.5 -4.5l164 -97q5 -2 7 -7.5
t-1 -11.5l-18 -36q-6 -14 -25 -6z" />
    <glyph glyph-name="zacute" unicode="&#x17a;" horiz-adv-x="366" 
d="M30 29l142 262v2h-114q-8 0 -13 5.5t-5 13.5v69q0 8 5 13.5t13 5.5h264q11 0 17 -8.5t0 -18.5l-145 -264v-3h108q19 0 19 -19v-68q0 -8 -5.5 -13.5t-13.5 -5.5h-253q-8 0 -13.5 5.5t-5.5 13.5v10zM123 528q-11 -5 -16.5 -3t-9.5 9l-17 36q-3 6 -1 11t7 8l163 97
q7 5 14.5 4.5t11.5 -7.5l29 -51q5 -10 2.5 -17t-8.5 -10z" />
    <glyph glyph-name="zcaron" unicode="&#x17e;" horiz-adv-x="366" 
d="M30 29l142 262v2h-114q-8 0 -13 5.5t-5 13.5v69q0 8 5 13.5t13 5.5h264q11 0 17 -8.5t0 -18.5l-145 -264v-3h108q19 0 19 -19v-68q0 -8 -5.5 -13.5t-13.5 -5.5h-253q-8 0 -13.5 5.5t-5.5 13.5v10zM50 625q-5 3 -7.5 8.5t1.5 10.5l26 37q5 6 9.5 7t13.5 -4l97 -61l98 61
q9 5 13.5 4t9.5 -7l26 -37q4 -5 1.5 -10.5t-7.5 -8.5l-130 -101q-10 -8 -21 0z" />
    <glyph glyph-name="zdotaccent" unicode="&#x17c;" horiz-adv-x="366" 
d="M30 29l142 262v2h-114q-8 0 -13 5.5t-5 13.5v69q0 8 5 13.5t13 5.5h264q11 0 17 -8.5t0 -18.5l-145 -264v-3h108q19 0 19 -19v-68q0 -8 -5.5 -13.5t-13.5 -5.5h-253q-8 0 -13.5 5.5t-5.5 13.5v10zM195 536q-30 0 -51 21t-21 51t21 51t51 21t51 -21t21 -51t-21 -51
t-51 -21z" />
    <glyph glyph-name="IJ" unicode="&#x132;" horiz-adv-x="750" 
d="M91 681q0 8 5.5 13.5t13.5 5.5h93q8 0 13.5 -5.5t5.5 -13.5v-662q0 -8 -5.5 -13.5t-13.5 -5.5h-93q-8 0 -13.5 5.5t-5.5 13.5v662zM316 63q-8 13 2 25l52 53q15 14 30 -1q10 -11 25.5 -21.5t40.5 -10.5q15 0 29 6t25.5 18.5t18.5 31.5t7 45v472q0 8 5.5 13.5t13.5 5.5h94
q8 0 13.5 -5.5t5.5 -13.5v-472q0 -52 -16.5 -93t-45 -69t-66.5 -42.5t-82 -14.5q-33 0 -58.5 8.5t-44 20t-31 24t-18.5 20.5z" />
    <glyph glyph-name="ij" unicode="&#x133;" horiz-adv-x="500" 
d="M119 542q-29 0 -48.5 20t-19.5 49t19.5 49t48.5 20t49.5 -20t20.5 -49t-20.5 -49t-49.5 -20zM60 381q0 8 5.5 13.5t13.5 5.5h83q8 0 13.5 -5.5t5.5 -13.5v-362q0 -8 -5.5 -13.5t-13.5 -5.5h-83q-8 0 -13.5 5.5t-5.5 13.5v362zM378 542q-29 0 -48.5 20t-19.5 49t19.5 49
t48.5 20t49.5 -20t20.5 -49t-20.5 -49t-49.5 -20zM318 381q0 8 5.5 13.5t13.5 5.5h84q8 0 13.5 -5.5t5.5 -13.5v-489q0 -50 -14 -87.5t-39 -63t-59 -38.5t-74 -13t-72.5 13.5t-45.5 25.5q-5 4 -6 11t2 12l33 64q3 6 10 7.5t14 -2.5q10 -6 26 -13t33 -7q34 0 52 23.5t18 67.5
v489z" />
    <glyph glyph-name="grave.cap" horiz-adv-x="302" 
d="M49 845q-7 3 -9 10.5t3 16.5l28 52q4 7 12 7t14 -4l164 -98q4 -2 6.5 -7.5t-0.5 -11.5l-18 -35q-3 -7 -8.5 -9.5t-16.5 2.5z" />
    <glyph glyph-name="acute" unicode="&#xb4;" horiz-adv-x="302" 
d="M89 528q-11 -5 -16.5 -3t-9.5 9l-17 36q-3 6 -1 11t7 8l163 97q7 5 14.5 4.5t11.5 -7.5l29 -51q5 -10 2.5 -17t-8.5 -10l-175 -77v0z" />
    <glyph glyph-name="acute.cap" horiz-adv-x="302" 
d="M84 768q-11 -5 -16.5 -2.5t-8.5 9.5l-18 35q-3 6 -0.5 11.5t6.5 7.5l164 98q18 11 26 -3l28 -52q5 -9 3 -16.5t-9 -10.5l-175 -77v0z" />
    <glyph glyph-name="circumflex" unicode="&#x2c6;" horiz-adv-x="373" 
d="M37 566q-4 5 -1.5 10.5t7.5 8.5l130 101q10 8 21 0l130 -101q5 -3 7.5 -8.5t-1.5 -10.5l-26 -37q-5 -6 -9.5 -7t-13.5 4l-97 61l-98 -61q-9 -5 -13.5 -4t-9.5 7z" />
    <glyph glyph-name="circumflex.cap" horiz-adv-x="373" 
d="M86 766q-9 -5 -13.5 -4t-9.5 7l-26 37q-4 5 -1.5 10.5t7.5 8.5l130 101q10 8 21 0l130 -101q5 -3 7.5 -8.5t-1.5 -10.5l-26 -37q-5 -6 -9.5 -7t-13.5 4l-97 61l-98 -61v0z" />
    <glyph glyph-name="caron" unicode="&#x2c7;" horiz-adv-x="373" 
d="M44 625q-5 3 -7.5 8.5t1.5 10.5l26 37q5 6 9.5 7t13.5 -4l97 -61l98 61q9 5 13.5 4t9.5 -7l26 -37q4 -5 1.5 -10.5t-7.5 -8.5l-130 -101q-10 -8 -21 0z" />
    <glyph glyph-name="caron.cap" horiz-adv-x="373" 
d="M44 865q-5 3 -7.5 8.5t1.5 10.5l26 37q5 6 9.5 7t13.5 -4l97 -61l98 61q9 5 13.5 4t9.5 -7l26 -37q4 -5 1.5 -10.5t-7.5 -8.5l-130 -101q-10 -8 -21 0z" />
    <glyph glyph-name="caron.alt" horiz-adv-x="373" 
d="M179 710q13 0 28 -5t27 -17.5t20 -33t8 -51.5q0 -37 -10.5 -66.5t-25 -52t-29.5 -38t-25 -24.5q-13 -10 -23 1l-15 14q-5 5 -3.5 11.5t6.5 11.5q4 3 15 12.5t22.5 25t21 37t9.5 47.5q-1 0 -9.5 -2.5t-21.5 -2.5q-27 0 -47 19t-20 47t20.5 47.5t51.5 19.5z" />
    <glyph glyph-name="tilde" unicode="&#x2dc;" horiz-adv-x="380" 
d="M41 583q-5 4 -6.5 11t0.5 12l12 21t21 28t30.5 24.5t40.5 10.5q19 0 33 -8.5t25.5 -19t23 -19t25.5 -8.5q13 0 21 9.5t14 19t12.5 15t17.5 -2.5l28 -20q7 -5 6.5 -13.5t-5.5 -17.5l-11.5 -20t-19.5 -25.5t-28.5 -21.5t-37.5 -9q-20 0 -34.5 8.5t-27 19l-24 19.5t-23.5 9
q-14 0 -21 -9.5t-13 -19t-12.5 -15.5t-17.5 1z" />
    <glyph glyph-name="tilde.cap" horiz-adv-x="380" 
d="M41 810q-5 4 -6.5 11t0.5 12l12 21t21 28t30.5 24.5t40.5 10.5q19 0 33 -8.5t25.5 -19t23 -19t25.5 -8.5q13 0 21 9.5t14 19t12.5 15t17.5 -2.5l28 -20q7 -5 6.5 -13.5t-5.5 -17.5l-11.5 -20t-19.5 -25.5t-28.5 -21.5t-37.5 -9q-20 0 -34.5 8.5t-27 19l-24 19.5t-23.5 9
q-14 0 -21 -9.5t-13 -19t-12.5 -15.5t-17.5 1z" />
    <glyph glyph-name="dieresis" unicode="&#xa8;" horiz-adv-x="414" 
d="M313 551q-26 0 -44.5 19t-18.5 45t18.5 44.5t44.5 18.5t45 -18.5t19 -44.5t-19 -45t-45 -19zM112 551q-26 0 -44.5 19t-18.5 45t18.5 44.5t44.5 18.5t45 -18.5t19 -44.5t-19 -45t-45 -19z" />
    <glyph glyph-name="dieresis.cap" horiz-adv-x="474" 
d="M360 775q-26 0 -44.5 19t-18.5 45t18.5 44.5t44.5 18.5t45 -18.5t19 -44.5t-19 -45t-45 -19zM113 775q-26 0 -44.5 19t-18.5 45t18.5 44.5t44.5 18.5t45 -18.5t19 -44.5t-19 -45t-45 -19z" />
    <glyph glyph-name="macron" unicode="&#xaf;" horiz-adv-x="414" 
d="M79 570q-8 0 -13.5 5t-5.5 13v34q0 19 19 19h256q19 0 19 -19v-34q0 -8 -5.5 -13t-13.5 -5h-256v0z" />
    <glyph glyph-name="macron.cap" horiz-adv-x="414" 
d="M79 808q-8 0 -13.5 5t-5.5 13v34q0 19 19 19h256q19 0 19 -19v-34q0 -8 -5.5 -13t-13.5 -5h-256v0z" />
    <glyph glyph-name="uni02C9" unicode="&#x2c9;" horiz-adv-x="414" 
d="M79 570q-8 0 -13.5 5t-5.5 13v34q0 19 19 19h256q19 0 19 -19v-34q0 -8 -5.5 -13t-13.5 -5h-256v0z" />
    <glyph glyph-name="breve" unicode="&#x2d8;" horiz-adv-x="346" 
d="M173 528q-27 0 -51 9t-42.5 25t-30.5 37.5t-16 46.5q-2 9 3 15.5t15 6.5h37q7 0 11 -4.5t6 -9.5q8 -23 25.5 -38t42.5 -15q23 0 40.5 16t25.5 37q2 6 7 10t10 4h39q9 0 14 -6.5t4 -15.5q-4 -25 -16.5 -46.5t-31 -37.5t-42 -25t-50.5 -9z" />
    <glyph glyph-name="breve.cap" horiz-adv-x="346" 
d="M173 766q-27 0 -51 9t-42.5 25t-30.5 37.5t-16 46.5q-2 8 3 14.5t15 6.5h37q7 0 11 -4.5t6 -9.5q8 -23 25.5 -38t42.5 -15q23 0 40.5 16.5t25.5 36.5q2 7 7 10.5t10 3.5h39q9 0 14 -6.5t4 -14.5q-4 -25 -16.5 -46.5t-31 -37.5t-42 -25t-50.5 -9z" />
    <glyph glyph-name="ring" unicode="&#x2da;" horiz-adv-x="290" 
d="M145 484q-24 0 -44.5 9t-35.5 24t-24 35.5t-9 44.5t9 44.5t24 35.5t35.5 24t44.5 9q23 0 43.5 -9t36 -24t24.5 -35.5t9 -44.5t-9 -44.5t-24.5 -35.5t-36 -24t-43.5 -9zM145 547q20 0 34 15t14 35t-14 34t-34 14t-35 -14t-15 -34t15 -35t35 -15z" />
    <glyph glyph-name="ring.cap" horiz-adv-x="290" 
d="M145 754q-24 0 -44.5 9t-35.5 24t-24 35.5t-9 44.5t9 44.5t24 35.5t35.5 24t44.5 9q23 0 43.5 -9t36 -24t24.5 -35.5t9 -44.5t-9 -44.5t-24.5 -35.5t-36 -24t-43.5 -9zM145 817q20 0 34 15t14 35t-14 34t-34 14t-35 -14t-15 -34t15 -35t35 -15z" />
    <glyph glyph-name="hungarumlaut" unicode="&#x2dd;" horiz-adv-x="392" 
d="M224 521q-12 0 -16.5 5.5t-2.5 13.5l37 141q2 8 6.5 13.5t12.5 5.5h76q14 0 18.5 -8t-0.5 -17l-78 -139q-3 -6 -8 -10.5t-10 -4.5h-35zM58 521q-12 0 -16.5 5.5t-2.5 13.5l37 141q2 8 6.5 13.5t12.5 5.5h76q14 0 18.5 -7.5t-0.5 -17.5l-78 -139q-3 -6 -8 -10.5t-10 -4.5
h-35z" />
    <glyph glyph-name="hungarumlaut.cap" horiz-adv-x="392" 
d="M220 768q-12 0 -16.5 5.5t-2.5 13.5l37 141q2 8 6.5 13.5t12.5 5.5h76q14 0 18.5 -8t-0.5 -17l-78 -139q-3 -6 -8 -10.5t-10 -4.5h-35zM54 768q-12 0 -16.5 5.5t-2.5 13.5l37 141q2 8 6.5 13.5t12.5 5.5h76q14 0 18.5 -7.5t-0.5 -17.5l-78 -139q-3 -6 -8 -10.5t-10 -4.5
h-35z" />
    <glyph glyph-name="dotaccent" unicode="&#x2d9;" horiz-adv-x="219" 
d="M109 536q-30 0 -51 21t-21 51t21 51t51 21t51 -21t21 -51t-21 -51t-51 -21z" />
    <glyph glyph-name="dotaccent.cap" horiz-adv-x="219" 
d="M109 781q-30 0 -51 21t-21 51t21 51t51 21t51 -21t21 -51t-21 -51t-51 -21z" />
    <glyph glyph-name="cedilla" unicode="&#xb8;" horiz-adv-x="247" 
d="M120 0v-52q46 -6 71.5 -33.5t25.5 -69.5q0 -22 -8.5 -41t-22.5 -33.5t-33.5 -22.5t-41.5 -8q-23 0 -43 10t-33 25q-6 7 -5 14.5t8 13.5l20 17q5 5 11 4.5t10 -5.5q6 -7 14.5 -9.5t15.5 -2.5q15 0 25 11t10 26q0 18 -17 32t-56 17q-11 2 -14 8t-3 10v89h66z" />
    <glyph glyph-name="cedilla.cap" horiz-adv-x="247" 
d="M120 0v-52q46 -6 71.5 -33.5t25.5 -69.5q0 -22 -8.5 -41t-22.5 -33.5t-33.5 -22.5t-41.5 -8q-23 0 -43 10t-33 25q-6 7 -5 14.5t8 13.5l20 17q5 5 11 4.5t10 -5.5q6 -7 14.5 -9.5t15.5 -2.5q15 0 25 11t10 26q0 18 -17 32t-56 17q-11 2 -14 8t-3 10v89h66z" />
    <glyph glyph-name="ogonek" unicode="&#x2db;" horiz-adv-x="276" 
d="M171 14q-18 -14 -31 -32q-11 -15 -20.5 -35t-9.5 -43q0 -26 17 -45t49 -19q15 0 26 3.5t20 5.5q8 2 14 -3t6 -14v-30q0 -7 -4.5 -12t-9.5 -7q-3 -1 -23 -5.5t-43 -4.5q-26 0 -49 6.5t-40.5 20t-27.5 34.5t-10 49q0 30 11 54.5t25 41.5q16 20 36 35h64z" />
    <glyph glyph-name="ogonek.cap" horiz-adv-x="276" 
d="M171 14q-18 -14 -31 -32q-11 -15 -20.5 -35t-9.5 -43q0 -26 17 -45t49 -19q15 0 26 3.5t20 5.5q8 2 14 -3t6 -14v-30q0 -7 -4.5 -12t-9.5 -7q-3 -1 -23 -5.5t-43 -4.5q-26 0 -49 6.5t-40.5 20t-27.5 34.5t-10 49q0 30 11 54.5t25 41.5q16 20 36 35h64z" />
    <glyph glyph-name="commaaccent" horiz-adv-x="292" 
d="M146 -91q13 0 28 -5t27 -17.5t20 -33t8 -51.5q0 -37 -10.5 -66.5t-25 -52t-29.5 -38t-25 -24.5q-13 -10 -23 1l-15 14q-5 5 -3.5 11.5t6.5 11.5q4 3 15 12.5t22.5 25t21 37t9.5 47.5q-1 0 -9.5 -2.5t-21.5 -2.5q-27 0 -47 19t-20 47t20.5 47.5t51.5 19.5z" />
    <glyph glyph-name="commaaccent.alt" horiz-adv-x="292" 
d="M146 -91q13 0 28 -5t27 -17.5t20 -33t8 -51.5q0 -37 -10.5 -66.5t-25 -52t-29.5 -38t-25 -24.5q-13 -10 -23 1l-15 14q-5 5 -3.5 11.5t6.5 11.5q4 3 15 12.5t22.5 25t21 37t9.5 47.5q-1 0 -9.5 -2.5t-21.5 -2.5q-27 0 -47 19t-20 47t20.5 47.5t51.5 19.5z" />
    <glyph glyph-name="commaaccent.cap" horiz-adv-x="292" 
d="M146 -91q13 0 28 -5t27 -17.5t20 -33t8 -51.5q0 -37 -10.5 -66.5t-25 -52t-29.5 -38t-25 -24.5q-13 -10 -23 1l-15 14q-5 5 -3.5 11.5t6.5 11.5q4 3 15 12.5t22.5 25t21 37t9.5 47.5q-1 0 -9.5 -2.5t-21.5 -2.5q-27 0 -47 19t-20 47t20.5 47.5t51.5 19.5z" />
    <glyph glyph-name="ellipsis" unicode="&#x2026;" horiz-adv-x="668" 
d="M477 62q0 30 21 51t51 21t51 -21t21 -51q0 -29 -21 -50.5t-51 -21.5t-51 21.5t-21 50.5zM264 62q0 30 21 51t50 21q30 0 51.5 -21t21.5 -51q0 -29 -21.5 -50.5t-51.5 -21.5q-29 0 -50 21.5t-21 50.5zM47 62q0 30 21 51t50 21q30 0 51.5 -21t21.5 -51q0 -29 -21.5 -50.5
t-51.5 -21.5q-29 0 -50 21.5t-21 50.5z" />
    <glyph glyph-name="uni00AD" unicode="&#xad;" horiz-adv-x="347" 
d="M62 192q-8 0 -13.5 5t-5.5 13v67q0 19 19 19h223q19 0 19 -19v-67q0 -8 -5.5 -13t-13.5 -5h-223v0z" />
    <glyph glyph-name="exclamdown" unicode="&#xa1;" horiz-adv-x="266" 
d="M134 245q-35 0 -59 24.5t-24 58.5t24 58t59 24q33 0 57 -24t24 -58t-24 -58.5t-57 -24.5zM98 112q1 6 6.5 11t12.5 5h32q7 0 12.5 -5t6.5 -11l39 -279v-114q0 -8 -5.5 -13.5t-13.5 -5.5h-110q-8 0 -13.5 5.5t-5.5 13.5v112z" />
    <glyph glyph-name="questiondown" unicode="&#xbf;" horiz-adv-x="434" 
d="M232 245q-34 0 -58.5 24.5t-24.5 58.5t24.5 58t58.5 24t58 -24t24 -58t-24 -58.5t-58 -24.5zM19 -142q0 30 11.5 53.5t28 42.5t36.5 34.5l36.5 29.5t28 27.5t11.5 28.5v33q0 9 5 15t15 6h81q8 0 13.5 -5.5t5.5 -13.5v-42q0 -36 -21.5 -62t-48 -48t-48 -43.5t-21.5 -47.5
q0 -27 21 -47t59 -20q23 0 40 6.5t29.5 15t21.5 17t17 13.5q12 8 22 -1l47 -46q6 -5 5.5 -13t-5.5 -13q-21 -25 -50 -44q-25 -17 -61.5 -30.5t-84.5 -13.5q-39 0 -74.5 12.5t-62 35t-42 53t-15.5 67.5z" />
    <glyph glyph-name="quoteleft" unicode="&#x2018;" horiz-adv-x="198" 
d="M106 414q-14 0 -28.5 5.5t-26.5 18t-19.5 33t-7.5 51.5q0 36 10.5 66t25 52.5t29.5 38t25 24.5q13 10 22 -1l15 -15q10 -12 -3 -22q-4 -4 -15 -13.5t-22.5 -25t-21 -36.5t-9.5 -47q2 0 10 2.5t21 2.5q27 0 47 -19.5t20 -47.5q0 -27 -20.5 -47t-51.5 -20z" />
    <glyph glyph-name="quoteright" unicode="&#x2019;" horiz-adv-x="196" 
d="M48 437q-5 5 -4 11.5t6 11.5q4 3 15 12.5t23 25t21 37t9 47.5q-1 0 -9.5 -2.5t-20.5 -2.5q-28 0 -47.5 19t-19.5 47t20 47.5t51 19.5q13 0 28 -5t27 -17.5t20 -33t8 -51.5q0 -37 -10.5 -66.5t-25 -52t-29.5 -38t-25 -24.5q-13 -9 -23 1z" />
    <glyph glyph-name="quotedblleft" unicode="&#x201c;" horiz-adv-x="392" 
d="M299 416q-14 0 -28.5 5t-26.5 17.5t-20 33t-8 51.5q0 36 10.5 66t25 52.5t29.5 38t25 24.5q13 10 23 -1l15 -14q5 -5 3.5 -11.5t-6.5 -11.5q-4 -3 -15 -13t-22.5 -25.5t-21 -36.5t-9.5 -47q1 0 9.5 2.5t21.5 2.5q27 0 47 -19t20 -47t-20.5 -47.5t-51.5 -19.5zM106 416
q-14 0 -28.5 5t-26.5 17.5t-19.5 33t-7.5 51.5q0 36 10.5 66t25 52.5t29.5 38t25 24.5q13 10 22 -1l15 -14q5 -5 4 -11.5t-7 -11.5q-4 -3 -15 -13t-22.5 -25.5t-21 -36.5t-9.5 -47q2 0 10 2.5t21 2.5q27 0 47 -19t20 -47t-20.5 -47.5t-51.5 -19.5z" />
    <glyph glyph-name="quotedblright" unicode="&#x201d;" horiz-adv-x="389" 
d="M240 437q-5 5 -3.5 11.5t6.5 11.5q4 3 15 12.5t22.5 25t21 37t9.5 47.5q-1 0 -9.5 -2.5t-21.5 -2.5q-27 0 -47 19t-20 47t20.5 47.5t51.5 19.5q13 0 28 -5t27 -17.5t20 -33t8 -51.5q0 -37 -10.5 -66.5t-25 -52t-29.5 -38t-25 -24.5q-13 -10 -23 1zM48 437q-5 5 -4 11.5
t6 11.5q4 3 15 12.5t23 25t21 37t9 47.5q-1 0 -9.5 -2.5t-20.5 -2.5q-28 0 -47.5 19t-19.5 47t20 47.5t51 19.5q13 0 28 -5t27 -17.5t20 -33t8 -51.5q0 -37 -10.5 -66.5t-25 -52t-29.5 -38t-25 -24.5q-13 -9 -23 1z" />
    <glyph glyph-name="quotesinglbase" unicode="&#x201a;" horiz-adv-x="228" 
d="M37 57q0 27 20.5 47t51.5 20q13 0 28 -5.5t27 -18t20 -33t8 -51.5q0 -36 -10.5 -66t-25 -52.5t-29.5 -38t-25 -24.5q-13 -10 -23 1l-15 15q-5 5 -3.5 11t6.5 11q4 3 15 12.5t22.5 25t21 37t9.5 47.5q-1 0 -9.5 -2.5t-21.5 -2.5q-27 0 -47 19.5t-20 47.5z" />
    <glyph glyph-name="quotedblbase" unicode="&#x201e;" horiz-adv-x="421" 
d="M230 57q0 27 20.5 47t51.5 20q13 0 28 -5.5t27 -18t20 -33t8 -51.5q0 -36 -10.5 -66t-25 -52.5t-29.5 -38t-25 -24.5q-13 -10 -23 1l-15 15q-5 5 -3.5 11t6.5 11q4 3 15 12.5t22.5 25t21 37t9.5 47.5q-1 0 -9.5 -2.5t-21.5 -2.5q-27 0 -47 19.5t-20 47.5zM38 57
q0 27 20 47t51 20q13 0 28 -5.5t27 -18t20 -33t8 -51.5q0 -36 -10.5 -66t-25 -52.5t-29.5 -38t-25 -24.5q-6 -5 -11.5 -5t-11.5 6l-14 15q-5 5 -4 11t6 11q4 3 15 12.5t23 25t21 37t9 47.5q-1 0 -9.5 -2.5t-20.5 -2.5q-28 0 -47.5 19.5t-19.5 47.5z" />
    <glyph glyph-name="guilsinglleft" unicode="&#x2039;" horiz-adv-x="271" 
d="M26 194q-5 6 -4 12.5t4 11.5l109 148q2 4 7 8t11 4h57q13 0 17 -9.5t-2 -21.5l-68 -139l65 -147q5 -12 1.5 -21t-16.5 -9h-62q-9 0 -15 8z" />
    <glyph glyph-name="guilsinglright" unicode="&#x203a;" horiz-adv-x="271" 
d="M63 31q-13 0 -16.5 9t1.5 21l65 147l-68 139q-6 12 -2 21.5t17 9.5h57q6 0 11 -4t7 -8l109 -148q3 -5 4 -11.5t-4 -12.5l-104 -155q-6 -8 -15 -8h-62v0z" />
    <glyph glyph-name="guillemotleft" unicode="&#xab;" horiz-adv-x="471" 
d="M226 194q-5 6 -4 12.5t4 11.5l109 148q2 4 7 8t11 4h57q13 0 17 -9.5t-2 -21.5l-68 -139l65 -147q5 -12 1.5 -21t-16.5 -9h-62q-9 0 -15 8zM26 194q-5 6 -4 12.5t4 11.5l109 148q2 4 7 8t11 4h57q13 0 17 -9.5t-2 -21.5l-68 -139l65 -147q5 -12 1.5 -21t-16.5 -9h-62
q-9 0 -15 8z" />
    <glyph glyph-name="guillemotright" unicode="&#xbb;" horiz-adv-x="471" 
d="M313 208l-68 139q-6 12 -2 21.5t17 9.5h57q6 0 11 -4t7 -8l109 -148q3 -5 4 -11.5t-4 -12.5l-104 -155q-6 -8 -15 -8h-62q-13 0 -16.5 9t1.5 21zM63 31q-13 0 -16.5 9t1.5 21l65 147l-68 139q-6 12 -2 21.5t17 9.5h57q6 0 11 -4t7 -8l109 -148q3 -5 4 -11.5t-4 -12.5
l-104 -155q-6 -8 -15 -8h-62z" />
    <glyph glyph-name="endash" unicode="&#x2013;" horiz-adv-x="539" 
d="M72 210q-8 0 -13.5 5t-5.5 13v37q0 19 19 19h395q19 0 19 -19v-37q0 -8 -5.5 -13t-13.5 -5h-395v0z" />
    <glyph glyph-name="emdash" unicode="&#x2014;" horiz-adv-x="759" 
d="M72 210q-8 0 -13.5 5t-5.5 13v37q0 19 19 19h615q19 0 19 -19v-37q0 -8 -5.5 -13t-13.5 -5h-615v0z" />
    <glyph glyph-name="bullet" unicode="&#x2022;" horiz-adv-x="389" 
d="M192 95q-26 0 -49.5 10.5t-41 28t-28 41t-10.5 49.5q0 27 10.5 51.5t28 42.5t41 28.5t49.5 10.5q27 0 51.5 -10.5t42.5 -28.5t28.5 -42.5t10.5 -51.5q0 -26 -10.5 -49.5t-28.5 -41t-42.5 -28t-51.5 -10.5z" />
    <glyph glyph-name="periodcentered" unicode="&#xb7;" horiz-adv-x="258" 
d="M128 167q-18 0 -34 7t-28.5 19.5t-19.5 28.5t-7 34q0 19 7 36t19.5 29.5t28.5 19.5t34 7q19 0 36 -7t29.5 -19.5t19.5 -29.5t7 -36q0 -18 -7 -34t-19.5 -28.5t-29.5 -19.5t-36 -7z" />
    <glyph glyph-name="uni2219" unicode="&#x2219;" horiz-adv-x="389" 
d="M193 167q-18 0 -34 7t-28.5 19.5t-19.5 28.5t-7 34q0 19 7 36t19.5 29.5t28.5 19.5t34 7q19 0 36 -7t29.5 -19.5t19.5 -29.5t7 -36q0 -18 -7 -34t-19.5 -28.5t-29.5 -19.5t-36 -7z" />
    <glyph glyph-name="dagger" unicode="&#x2020;" horiz-adv-x="618" 
d="M69 286q-8 0 -13.5 5.5t-5.5 13.5v76q0 8 5.5 13.5t13.5 5.5h170v281q0 8 5.5 13.5t13.5 5.5h96q8 0 13.5 -5.5t5.5 -13.5v-281h177q8 0 13 -5.5t5 -13.5v-76q0 -8 -5 -13.5t-13 -5.5h-184l-32 -570q0 -6 -6 -11t-13 -5h-18q-7 0 -13 5t-6 11l-32 570h-177v0z" />
    <glyph glyph-name="daggerdbl" unicode="&#x2021;" horiz-adv-x="618" 
d="M80 95q0 8 5.5 13.5t13.5 5.5h155l-15 284v1h-170q-8 0 -13.5 5.5t-5.5 13.5v76q0 8 5.5 13.5t13.5 5.5h170v168q0 8 5.5 13.5t13.5 5.5h96q8 0 13.5 -5.5t5.5 -13.5v-168h177q8 0 13 -5.5t5 -13.5v-76q0 -8 -5 -13.5t-13 -5.5h-177l-15 -285h162q8 0 13 -5.5t5 -13.5
v-75q0 -8 -5 -13.5t-13 -5.5h-170l-16 -285q0 -6 -6 -11t-13 -5h-18q-7 0 -13 5t-6 11l-17 285h-162q-8 0 -13.5 5.5t-5.5 13.5v75z" />
    <glyph glyph-name="section" unicode="&#xa7;" horiz-adv-x="512" 
d="M71 -88q6 10 15 13t20 -5q3 -1 16.5 -10.5t34 -20t45 -19t48.5 -8.5q15 0 30.5 4t27.5 12.5t19.5 21t7.5 30.5q0 22 -10.5 39.5t-28 31.5t-39 25.5t-42.5 20.5q-34 14 -66 32.5t-57.5 43.5t-41 56.5t-15.5 71.5q0 24 7 45t17.5 38t23 30t24.5 23q-10 9 -22.5 22.5
t-23.5 31t-18.5 39.5t-7.5 49q0 32 12 64.5t38 58.5t67 42t98 16q37 0 69 -8t56.5 -19t41.5 -21.5t24 -15.5q7 -4 9.5 -13.5t-2.5 -17.5l-41 -59q-12 -19 -33 -5l-18.5 11.5t-31.5 17t-39 15t-40 6.5q-43 0 -64.5 -20.5t-21.5 -43.5q0 -32 27.5 -57t85.5 -48q36 -14 72 -32
t65 -43t47 -58t18 -77q0 -24 -7.5 -45t-18.5 -39t-24 -32t-23 -23l22 -22t24 -31.5t19 -41.5t8 -51q0 -37 -15.5 -70.5t-44 -59t-69 -41t-91.5 -15.5q-46 0 -82 9.5t-62 21.5t-42.5 24.5t-22.5 18.5q-8 8 -10.5 15t5.5 19zM155 260q0 -23 10.5 -39t30 -29.5t46.5 -26
l60 -27.5q11 8 20 19q8 10 14 25t6 36q0 20 -11.5 37t-31.5 31.5t-47.5 26.5t-60.5 22q-2 -2 -8 -7.5t-12 -15t-11 -22.5t-5 -30z" />
    <glyph glyph-name="paragraph" unicode="&#xb6;" horiz-adv-x="701" 
d="M227 281q-42 0 -80 16t-66.5 44.5t-45 67t-16.5 82.5q0 43 15 81t41 66.5t61.5 45t76.5 16.5l456 -1q8 0 13.5 -5.5t5.5 -13.5v-46q0 -8 -5.5 -13.5t-13.5 -5.5h-78v-896q0 -8 -5.5 -13.5t-13.5 -5.5h-54q-8 0 -13.5 5.5t-5.5 13.5v896h-136v-896q0 -8 -5.5 -13.5
t-13.5 -5.5h-54q-8 0 -13.5 5.5t-5.5 13.5v562h-44v0z" />
    <glyph glyph-name="brokenbar.case" horiz-adv-x="315" 
d="M151 512q-8 0 -13.5 5t-5.5 13v331q0 8 5.5 13.5t13.5 5.5h13q8 0 13 -5.5t5 -13.5v-331q0 -8 -5.5 -13t-13.5 -5h-12zM132 169q0 8 5.5 13.5t13.5 5.5h13q8 0 13 -5.5t5 -13.5v-331q0 -8 -5.5 -13t-13.5 -5h-12q-8 0 -13.5 5t-5.5 13v331z" />
    <glyph glyph-name="copyright" unicode="&#xa9;" horiz-adv-x="804" 
d="M42 350q0 74 28 139.5t77 114.5t114.5 77.5t139.5 28.5t139.5 -28.5t114.5 -77.5t77.5 -114.5t28.5 -139.5t-28.5 -139.5t-77.5 -114.5t-114.5 -77t-139.5 -28t-139.5 28t-114.5 77t-77 114.5t-28 139.5zM120 350q0 -58 22 -109t60.5 -89.5t89.5 -60.5t109 -22t109.5 22
t89.5 60.5t60 89.5t22 109t-22 109.5t-60 89.5t-89.5 60t-109.5 22t-109 -22t-89.5 -60t-60.5 -89.5t-22 -109.5zM223 348q0 39 14.5 73.5t40 60t59.5 40t73 14.5q30 0 58.5 -9t53.5 -29q7 -6 7.5 -14t-5.5 -15l-34 -38q-5 -6 -12 -6t-13 4q-13 9 -26.5 12.5t-27.5 3.5
q-20 0 -37 -7.5t-29 -20.5t-19 -30t-7 -36q0 -40 26 -67t66 -27q28 0 53 16q6 5 13 4t12 -6l36 -40q5 -6 5 -14t-6 -14q-26 -23 -54 -32.5t-60 -9.5q-39 0 -73 14.5t-59.5 40t-40 59.5t-14.5 73z" />
    <glyph glyph-name="registered" unicode="&#xae;" horiz-adv-x="804" 
d="M42 350q0 74 28 139.5t77 114.5t114.5 77.5t139.5 28.5t139.5 -28.5t114.5 -77.5t77.5 -114.5t28.5 -139.5t-28.5 -139.5t-77.5 -114.5t-114.5 -77t-139.5 -28t-139.5 28t-114.5 77t-77 114.5t-28 139.5zM120 350q0 -58 22 -109t60.5 -89.5t89.5 -60.5t109 -22t109.5 22
t89.5 60.5t60 89.5t22 109t-22 109.5t-60 89.5t-89.5 60t-109.5 22t-109 -22t-89.5 -60t-60.5 -89.5t-22 -109.5zM267 515q0 8 5.5 13.5t13.5 5.5h155q23 0 45 -8.5t39.5 -24.5t28 -39t10.5 -52q0 -25 -6.5 -43t-17 -31.5t-23 -22t-24.5 -14.5l46 -104q5 -11 -0.5 -19
t-16.5 -8h-54q-6 0 -11 4.5t-7 9.5l-44 112h-52v-107q0 -8 -5.5 -13.5t-13.5 -5.5h-49q-8 0 -13.5 5.5t-5.5 13.5v328zM430 368q18 0 29.5 12t11.5 29q0 18 -11.5 29.5t-29.5 11.5h-79v-82h79z" />
    <glyph glyph-name="trademark" unicode="&#x2122;" horiz-adv-x="721" 
d="M338 385q-10 0 -15.5 7t-3.5 16l52 282q1 6 5.5 10.5t13.5 4.5h4q7 0 11 -3.5t6 -7.5l87 -185l89 185q5 11 17 11h4q8 0 13 -4.5t6 -10.5l53 -283q2 -9 -4 -15.5t-15 -6.5h-39q-7 0 -12 5t-7 12l-22 125l-64 -136q-4 -9 -16 -9h-6q-12 0 -17 10l-61 135l-24 -126
q-1 -6 -7 -11t-12 -5h-36zM145 385q-8 0 -13.5 5.5t-5.5 13.5v222h-64q-8 0 -13.5 5.5t-5.5 13.5v36q0 8 5.5 13.5t13.5 5.5h205q8 0 13.5 -5.5t5.5 -13.5v-36q0 -19 -19 -19h-64v-222q0 -8 -5.5 -13.5t-13.5 -5.5h-39z" />
    <glyph glyph-name="currency" unicode="&#xa4;" horiz-adv-x="456" 
d="M57 201q-5 5 -5 13.5t5 13.5l48 48q-12 27 -12 56.5t13 55.5l-48 48q-5 5 -5 13.5t5 13.5l40 39q5 5 13.5 5t13.5 -5l47 -47q26 13 56 13t56 -13l47 47q5 5 13 5t14 -5l39 -40q5 -5 5.5 -13t-4.5 -13l-47 -47q12 -27 12.5 -57t-11.5 -57l47 -47q5 -5 5 -13t-5 -14
l-40 -39q-5 -5 -13 -5.5t-13 4.5l-48 48q-27 -13 -57 -13t-57 13l-48 -48q-5 -5 -13.5 -5t-13.5 5zM227 281q23 0 37.5 14.5t14.5 36.5q0 23 -14.5 37.5t-37.5 14.5q-22 0 -36.5 -14.5t-14.5 -37.5q0 -22 14.5 -36.5t36.5 -14.5z" />
    <glyph glyph-name="Euro" unicode="&#x20ac;" horiz-adv-x="718" 
d="M38 250q-8 0 -13 5.5t-5 13.5v13q0 8 5 13.5t13 5.5h39q-3 24 -3 48v10.5t1 10.5h-37q-8 0 -13 5.5t-5 13.5v13q0 8 5 13.5t13 5.5h43q12 62 44.5 115t79.5 91.5t105.5 60.5t124.5 22q76 0 133.5 -23.5t108.5 -69.5q15 -14 1 -28l-60 -62q-5 -6 -13 -6t-14 6
q-32 29 -71.5 43.5t-81.5 14.5q-39 0 -73.5 -12.5t-62 -34.5t-47.5 -52t-30 -65h233q8 0 13.5 -5.5t5.5 -13.5v-15q0 -8 -5.5 -13t-13.5 -5h-243v-17q0 -13 1 -25.5t4 -25.5h198q8 0 13.5 -5.5t5.5 -13.5v-14q0 -8 -5.5 -13t-13.5 -5h-180q26 -57 79.5 -93t121.5 -36
q45 0 83 15.5t70 41.5q6 5 13 5t12 -5l62 -64q6 -5 5 -13.5t-6 -13.5q-51 -50 -113.5 -73.5t-129.5 -23.5q-62 0 -118 19.5t-101.5 54t-78.5 82t-49 104.5h-50v0z" />
    <glyph glyph-name="cent" unicode="&#xa2;" horiz-adv-x="412" 
d="M154 4q-29 11 -54 30t-43 44.5t-28 56t-10 65.5q0 44 17.5 82.5t47 67t68 44.5t80.5 16q8 0 15.5 -0.5t15.5 -1.5l11 41q2 8 8.5 11.5t14.5 1.5l12 -3q8 -2 11.5 -8.5t1.5 -14.5l-12 -42q20 -9 37.5 -23t32.5 -32q5 -7 4 -15t-9 -13l-46 -44q-7 -6 -13.5 -4t-11.5 7
q-8 9 -22 18l-51 -189q35 0 52 12t31 25q12 12 25 3l43 -37q17 -14 7 -28q-26 -40 -65 -62t-93 -22q-8 0 -15 0.5t-14 1.5l-26 -96q-2 -8 -8.5 -11.5t-14.5 -1.5l-11 3q-8 2 -12 8t-2 14zM234 301q-41 -1 -69 -30t-28 -71q0 -29 12.5 -51t33.5 -36z" />
    <glyph glyph-name="sterling" unicode="&#xa3;" horiz-adv-x="485" 
d="M66 37q19 35 29 68.5t13.5 65.5t1.5 62t-7 58h-43q-8 0 -13 5.5t-5 13.5v13q0 8 5 13.5t13 5.5h31q-8 34 -19 73.5t-11 82.5q0 50 16.5 89.5t45.5 66.5t67.5 41.5t82.5 14.5q35 0 62.5 -8t48.5 -19.5t36 -23.5t24 -20q6 -5 6.5 -12.5t-4.5 -13.5l-49 -59q-5 -8 -13 -8
t-14 5l-32 23q-14 8 -30.5 15.5t-33.5 7.5q-35 0 -61.5 -25t-26.5 -69q0 -19 4.5 -39t10.5 -40l12.5 -41t10.5 -41h116q8 0 13.5 -5.5t5.5 -13.5v-14q0 -8 -5.5 -13t-13.5 -5h-106q5 -36 2.5 -85t-16.5 -95h196q8 0 13 -5.5t5 -13.5v-73q0 -8 -5 -13.5t-13 -5.5h-331
q-8 0 -13.5 5.5t-5.5 13.5v18z" />
    <glyph glyph-name="florin" unicode="&#x192;" horiz-adv-x="371" 
d="M111 296h-75q-8 0 -13.5 5.5t-5.5 13.5v66q0 19 19 19h75v109q0 49 14.5 86.5t40 63t61 38.5t77.5 13q43 0 70.5 -14t40.5 -25q5 -5 6.5 -12t-2.5 -12l-37 -62q-10 -14 -24 -5q-4 3 -21 10t-32 7q-27 0 -48 -21t-21 -68v-108h100q19 0 19 -19v-66q0 -8 -5.5 -13.5
t-13.5 -5.5h-100v-405q0 -49 -14.5 -86.5t-40.5 -63t-61.5 -38.5t-77.5 -13q-43 0 -70.5 14t-40.5 25q-5 5 -6 12t2 12l38 62q9 14 24 5q3 -3 20 -10t32 -7q27 0 48.5 21t21.5 68v404z" />
    <glyph glyph-name="yen" unicode="&#xa5;" horiz-adv-x="633" 
d="M139 120q-8 0 -13 5.5t-5 13.5v13q0 8 5 13.5t13 5.5h111v69h-111q-8 0 -13 5.5t-5 13.5v13q0 8 5 13.5t13 5.5h111v46l-228 334q-6 10 -1 19.5t17 9.5h103q5 0 9.5 -3t6.5 -6l160 -230l160 230q2 3 5.5 6t10.5 3h102q12 0 17 -9.5t-1 -19.5l-231 -333v-47h109
q8 0 13.5 -5.5t5.5 -13.5v-14q0 -8 -5.5 -13t-13.5 -5h-109v-69h109q8 0 13.5 -5.5t5.5 -13.5v-14q0 -8 -5.5 -13t-13.5 -5h-109v-101q0 -8 -5.5 -13.5t-13.5 -5.5h-92q-8 0 -13.5 5.5t-5.5 13.5v101h-111v0z" />
    <glyph glyph-name="ordfeminine" unicode="&#xaa;" horiz-adv-x="311" 
d="M121 398q-44 0 -72 27.5t-28 74.5q0 40 30.5 67t87.5 27q11 0 21 -1t18 -3q9 -2 15 -4q0 28 -8 41t-34 13q-20 0 -42.5 -4.5t-35.5 -7.5q-14 -3 -17 15l-6 33q-3 14 9 19q2 1 11.5 3.5t23.5 5t31 4.5t35 2q33 0 55 -8t35 -24.5t18.5 -40.5t5.5 -56v-161q0 -6 -4.5 -10
t-9.5 -4h-27q-9 0 -14 10l-4 10.5l-4 10.5q-14 -13 -34.5 -26t-55.5 -13zM141 462q17 0 31.5 11t19.5 24v33q-5 5 -19 8t-26 3q-19 0 -31.5 -11.5t-12.5 -28.5t10.5 -28t27.5 -11z" />
    <glyph glyph-name="ordmasculine" unicode="&#xba;" horiz-adv-x="302" 
d="M152 394q-63 0 -95 42t-32 116q0 75 32 116.5t95 41.5q62 0 93.5 -41.5t31.5 -116.5q0 -74 -31.5 -116t-93.5 -42zM152 464q20 0 32 22.5t12 65.5t-12 65.5t-32 22.5q-44 0 -44 -88t44 -88z" />
    <glyph glyph-name="onesuperior" unicode="&#xb9;" horiz-adv-x="196" 
d="M83 504q-10 0 -10 9v193l-49 -4q-9 0 -9 9l-2 31q0 5 7 11l74 47h51q9 0 9 -9v-278q0 -9 -9 -9h-62v0z" />
    <glyph glyph-name="twosuperior" unicode="&#xb2;" horiz-adv-x="277" 
d="M37 504q-10 0 -10 9v17l110 126q25 28 25 50q0 15 -11 25t-29 10q-14 0 -26 -6.5t-18 -13.5q-9 -6 -16 3l-22 31q-5 6 -5 10.5t8 10.5q2 2 10 7.5t20 11.5t28 10.5t36 4.5q48 0 77 -25t29 -67q0 -23 -10 -44t-27 -42l-54 -64h80q9 0 9 -9v-46q0 -9 -9 -9h-195v0z" />
    <glyph glyph-name="threesuperior" unicode="&#xb3;" horiz-adv-x="265" 
d="M122 494q-43 0 -65.5 13.5t-29.5 19.5q-8 8 -1 18l22 29q6 9 17 2q1 0 14 -8t33 -8t31 8.5t11 22.5t-12 23.5t-35 9.5h-29q-15 0 -15 14v31q0 14 15 14h29q19 0 30 8.5t11 22.5t-10.5 22t-27.5 8q-11 0 -21.5 -5t-17.5 -11q-5 -2 -7.5 -2.5t-7.5 5.5l-24 29q-4 4 -4 9.5
t5 8.5q10 9 23 16q11 6 28 11t38 5q48 0 78 -22.5t30 -60.5q0 -27 -17 -44.5t-34 -25.5v-1q9 -3 19.5 -9.5t19.5 -15.5t15 -22t6 -29q0 -42 -34.5 -64t-82.5 -22z" />
    <glyph glyph-name="fraction" unicode="&#x2044;" horiz-adv-x="123" 
d="M-60 10q-2 -3 -6.5 -6.5t-10.5 -3.5h-48q-11 0 -16.5 8.5t-0.5 18.5l343 663q5 10 17 10h50q11 0 16.5 -8.5t0.5 -18.5l-345 -663v0z" />
    <glyph glyph-name="uni2215" unicode="&#x2215;" horiz-adv-x="123" 
d="M-60 10q-2 -3 -6.5 -6.5t-10.5 -3.5h-48q-11 0 -16.5 8.5t-0.5 18.5l343 663q5 10 17 10h50q11 0 16.5 -8.5t0.5 -18.5l-345 -663v0z" />
    <glyph glyph-name="onehalf" unicode="&#xbd;" horiz-adv-x="661" 
d="M432 690q5 10 17 10h50q11 0 16.5 -8.5t0.5 -18.5l-345 -663q-2 -3 -6.5 -6.5t-10.5 -3.5h-48q-11 0 -16.5 8.5t-0.5 18.5zM91 404q-10 0 -10 9v193l-49 -4q-9 0 -9 9l-2 31q0 5 7 11l74 47h51q9 0 9 -9v-278q0 -9 -9 -9h-62zM391 26l110 126q25 28 25 50q0 15 -11 25
t-29 10q-14 0 -26 -6.5t-18 -13.5q-9 -6 -16 3l-22 31q-5 6 -5 10.5t8 10.5q2 2 10 7.5t20 11.5t28 10.5t36 4.5q48 0 77 -25t29 -67q0 -23 -10 -44t-27 -42l-54 -64h80q9 0 9 -9v-46q0 -9 -9 -9h-195q-10 0 -10 9v17z" />
    <glyph glyph-name="onethird" unicode="&#x2153;" horiz-adv-x="686" 
d="M461 690q5 10 17 10h50q11 0 16.5 -8.5t0.5 -18.5l-345 -663q-2 -3 -6.5 -6.5t-10.5 -3.5h-48q-11 0 -16.5 8.5t-0.5 18.5zM120 404q-10 0 -10 9v193l-49 -4q-9 0 -9 9l-2 31q0 5 7 11l74 47h51q9 0 9 -9v-278q0 -9 -9 -9h-62zM432 23q-8 8 -1 18l22 29q6 9 17 2
q1 0 14 -8t33 -8t31 8.5t11 22.5t-12 23.5t-35 9.5h-29q-15 0 -15 14v31q0 14 15 14h29q19 0 30 8.5t11 22.5t-10.5 22t-27.5 8q-11 0 -21.5 -5t-17.5 -11q-5 -2 -7.5 -2.5t-7.5 5.5l-24 29q-4 4 -4 9.5t5 8.5q10 9 23 16q11 6 28 11t38 5q48 0 78 -22.5t30 -60.5
q0 -27 -17 -44.5t-34 -25.5v-1q9 -3 19.5 -9.5t19.5 -15.5t15 -22t6 -29q0 -42 -34.5 -64t-82.5 -22q-43 0 -65.5 13.5t-29.5 19.5z" />
    <glyph glyph-name="onequarter" unicode="&#xbc;" horiz-adv-x="664" 
d="M432 690q5 10 17 10h50q11 0 16.5 -8.5t0.5 -18.5l-345 -663q-2 -3 -6.5 -6.5t-10.5 -3.5h-48q-11 0 -16.5 8.5t-0.5 18.5zM91 404q-10 0 -10 9v193l-49 -4q-9 0 -9 9l-2 31q0 5 7 11l74 47h51q9 0 9 -9v-278q0 -9 -9 -9h-62zM351 116l163 177q3 3 8 3h41q9 0 9 -9v-170
h40q9 0 9 -8v-43q0 -9 -9 -9h-40v-48q0 -9 -9 -9h-56q-10 0 -10 9v48h-137q-9 0 -9 8v51zM498 116v83l-74 -83h74z" />
    <glyph glyph-name="oneeighth" unicode="&#x215b;" horiz-adv-x="700" 
d="M461 690q5 10 17 10h50q11 0 16.5 -8.5t0.5 -18.5l-345 -663q-2 -3 -6.5 -6.5t-10.5 -3.5h-48q-11 0 -16.5 8.5t-0.5 18.5zM120 404q-10 0 -10 9v193l-49 -4q-9 0 -9 9l-2 31q0 5 7 11l74 47h51q9 0 9 -9v-278q0 -9 -9 -9h-62zM430 76q0 18 8 31.5t18.5 23t20.5 15
t13 6.5v1q-15 6 -33 23.5t-18 46.5q0 38 32.5 60.5t78.5 22.5q47 0 80 -22.5t33 -60.5q0 -29 -18.5 -46.5t-33.5 -23.5v-1q9 -3 19.5 -8.5t20 -15t15.5 -22.5t6 -30q0 -37 -33 -61.5t-89 -24.5q-54 0 -87 24.5t-33 61.5zM518 213q0 -28 33 -31q15 2 23.5 11t8.5 20
q0 12 -9.5 21.5t-23.5 9.5t-23 -9.5t-9 -21.5zM512 84q0 -14 12 -23t27 -9t26.5 8.5t11.5 23.5q0 13 -10 23.5t-28 12.5q-17 -2 -28 -12.5t-11 -23.5z" />
    <glyph glyph-name="twothirds" unicode="&#x2154;" horiz-adv-x="686" 
d="M17 404q-10 0 -10 9v17l110 126q25 28 25 50q0 15 -11 25t-29 10q-14 0 -26 -6.5t-18 -13.5q-9 -6 -16 3l-22 31q-5 6 -5 10.5t8 10.5q2 2 10 7.5t20 11.5t28 10.5t36 4.5q48 0 77 -25t29 -67q0 -23 -10 -44t-27 -42l-54 -64h80q9 0 9 -9v-46q0 -9 -9 -9h-195zM461 690
q5 10 17 10h50q11 0 16.5 -8.5t0.5 -18.5l-345 -663q-2 -3 -6.5 -6.5t-10.5 -3.5h-48q-11 0 -16.5 8.5t-0.5 18.5zM432 23q-8 8 -1 18l22 29q6 9 17 2q1 0 14 -8t33 -8t31 8.5t11 22.5t-12 23.5t-35 9.5h-29q-15 0 -15 14v31q0 14 15 14h29q19 0 30 8.5t11 22.5t-10.5 22
t-27.5 8q-11 0 -21.5 -5t-17.5 -11q-5 -2 -7.5 -2.5t-7.5 5.5l-24 29q-4 4 -4 9.5t5 8.5q10 9 23 16q11 6 28 11t38 5q48 0 78 -22.5t30 -60.5q0 -27 -17 -44.5t-34 -25.5v-1q9 -3 19.5 -9.5t19.5 -15.5t15 -22t6 -29q0 -42 -34.5 -64t-82.5 -22q-43 0 -65.5 13.5
t-29.5 19.5z" />
    <glyph glyph-name="threequarters" unicode="&#xbe;" horiz-adv-x="701" 
d="M128 394q-43 0 -65.5 13.5t-29.5 19.5q-8 8 -1 18l22 29q6 9 17 2q1 0 14 -8t33 -8t31 8.5t11 22.5t-12 23.5t-35 9.5h-29q-15 0 -15 14v31q0 14 15 14h29q19 0 30 8.5t11 22.5t-10.5 22t-27.5 8q-11 0 -21.5 -5t-17.5 -11q-5 -2 -7.5 -2.5t-7.5 5.5l-24 29q-4 4 -4 9.5
t5 8.5q10 9 23 16q11 6 28 11t38 5q48 0 78 -22.5t30 -60.5q0 -27 -17 -44.5t-34 -25.5v-1q9 -3 19.5 -9.5t19.5 -15.5t15 -22t6 -29q0 -42 -34.5 -64t-82.5 -22zM469 690q5 10 17 10h50q11 0 16.5 -8.5t0.5 -18.5l-345 -663q-2 -3 -6.5 -6.5t-10.5 -3.5h-48
q-11 0 -16.5 8.5t-0.5 18.5zM388 116l163 177q3 3 8 3h41q9 0 9 -9v-170h40q9 0 9 -8v-43q0 -9 -9 -9h-40v-48q0 -9 -9 -9h-56q-10 0 -10 9v48h-137q-9 0 -9 8v51zM535 116v83l-74 -83h74z" />
    <glyph glyph-name="threeeighths" unicode="&#x215c;" horiz-adv-x="700" 
d="M120 394q-43 0 -65.5 13.5t-29.5 19.5q-8 8 -1 18l22 29q6 9 17 2q1 0 14 -8t33 -8t31 8.5t11 22.5t-12 23.5t-35 9.5h-29q-15 0 -15 14v31q0 14 15 14h29q19 0 30 8.5t11 22.5t-10.5 22t-27.5 8q-11 0 -21.5 -5t-17.5 -11q-5 -2 -7.5 -2.5t-7.5 5.5l-24 29q-4 4 -4 9.5
t5 8.5q10 9 23 16q11 6 28 11t38 5q48 0 78 -22.5t30 -60.5q0 -27 -17 -44.5t-34 -25.5v-1q9 -3 19.5 -9.5t19.5 -15.5t15 -22t6 -29q0 -42 -34.5 -64t-82.5 -22zM461 690q5 10 17 10h50q11 0 16.5 -8.5t0.5 -18.5l-345 -663q-2 -3 -6.5 -6.5t-10.5 -3.5h-48
q-11 0 -16.5 8.5t-0.5 18.5zM430 76q0 18 8 31.5t18.5 23t20.5 15t13 6.5v1q-15 6 -33 23.5t-18 46.5q0 38 32.5 60.5t78.5 22.5q47 0 80 -22.5t33 -60.5q0 -29 -18.5 -46.5t-33.5 -23.5v-1q9 -3 19.5 -8.5t20 -15t15.5 -22.5t6 -30q0 -37 -33 -61.5t-89 -24.5
q-54 0 -87 24.5t-33 61.5zM518 213q0 -28 33 -31q15 2 23.5 11t8.5 20q0 12 -9.5 21.5t-23.5 9.5t-23 -9.5t-9 -21.5zM512 84q0 -14 12 -23t27 -9t26.5 8.5t11.5 23.5q0 13 -10 23.5t-28 12.5q-17 -2 -28 -12.5t-11 -23.5z" />
    <glyph glyph-name="fiveeighths" unicode="&#x215d;" horiz-adv-x="700" 
d="M462 690q5 10 17 10h50q11 0 16.5 -8.5t0.5 -18.5l-345 -663q-2 -3 -6.5 -6.5t-10.5 -3.5h-48q-11 0 -16.5 8.5t-0.5 18.5zM121 394q-38 0 -62.5 13.5t-33.5 24.5q-7 7 -1 15l27 33q7 10 15 2q1 -1 16 -11t41 -10q17 0 31 10.5t14 27.5t-12.5 27t-35.5 10h-74
q-8 0 -11.5 5t-3.5 11v139q0 9 9 9h160q9 0 9 -9v-44q0 -9 -9 -9h-103v-39h35q54 0 84 -26t30 -73q0 -46 -34 -76t-91 -30zM431 76q0 18 8 31.5t18.5 23t20.5 15t13 6.5v1q-15 6 -33 23.5t-18 46.5q0 38 32.5 60.5t78.5 22.5q47 0 80 -22.5t33 -60.5q0 -29 -18.5 -46.5
t-33.5 -23.5v-1q9 -3 19.5 -8.5t20 -15t15.5 -22.5t6 -30q0 -37 -33 -61.5t-89 -24.5q-54 0 -87 24.5t-33 61.5zM519 213q0 -28 33 -31q15 2 23.5 11t8.5 20q0 12 -9.5 21.5t-23.5 9.5t-23 -9.5t-9 -21.5zM513 84q0 -14 12 -23t27 -9t26.5 8.5t11.5 23.5q0 13 -10 23.5
t-28 12.5q-17 -2 -28 -12.5t-11 -23.5z" />
    <glyph glyph-name="seveneighths" unicode="&#x215e;" horiz-adv-x="700" 
d="M461 690q5 10 17 10h50q11 0 16.5 -8.5t0.5 -18.5l-345 -663q-2 -3 -6.5 -6.5t-10.5 -3.5h-48q-11 0 -16.5 8.5t-0.5 18.5zM75 404q-11 0 -11 8v6l116 218h-109q-10 0 -10 8v47q0 9 10 9h199q9 0 9 -9v-14l-132 -264q-5 -9 -15 -9h-57zM430 76q0 18 8 31.5t18.5 23
t20.5 15t13 6.5v1q-15 6 -33 23.5t-18 46.5q0 38 32.5 60.5t78.5 22.5q47 0 80 -22.5t33 -60.5q0 -29 -18.5 -46.5t-33.5 -23.5v-1q9 -3 19.5 -8.5t20 -15t15.5 -22.5t6 -30q0 -37 -33 -61.5t-89 -24.5q-54 0 -87 24.5t-33 61.5zM518 213q0 -28 33 -31q15 2 23.5 11t8.5 20
q0 12 -9.5 21.5t-23.5 9.5t-23 -9.5t-9 -21.5zM512 84q0 -14 12 -23t27 -9t26.5 8.5t11.5 23.5q0 13 -10 23.5t-28 12.5q-17 -2 -28 -12.5t-11 -23.5z" />
    <glyph glyph-name="perthousand" unicode="&#x2030;" horiz-adv-x="986" 
d="M178 440q-28 0 -52.5 10.5t-43 29t-29 43t-10.5 52.5t10.5 52.5t29 43t43 29t52.5 10.5t52.5 -10.5t43 -29t29 -43t10.5 -52.5t-10.5 -52.5t-29 -43t-43 -29t-52.5 -10.5zM468 690q5 10 17 10h50q11 0 16.5 -8.5t0.5 -18.5l-345 -663q-2 -3 -6.5 -6.5t-10.5 -3.5h-48
q-11 0 -16.5 8.5t-0.5 18.5zM178 526q20 0 34 14.5t14 34.5t-14 34t-34 14t-34.5 -14t-14.5 -34t14.5 -34.5t34.5 -14.5zM675 125q0 28 10.5 52.5t29 43t43 29t52.5 10.5t53 -10.5t43.5 -29t29 -43t10.5 -52.5t-10.5 -52.5t-29 -43t-43.5 -29t-53 -10.5t-52.5 10.5t-43 29
t-29 43t-10.5 52.5zM372 125q0 28 10.5 52.5t29 43t43 29t52.5 10.5t53 -10.5t43.5 -29t29 -43t10.5 -52.5t-10.5 -52.5t-29 -43t-43.5 -29t-53 -10.5t-52.5 10.5t-43 29t-29 43t-10.5 52.5zM762 125q0 -20 14 -34.5t34 -14.5t34.5 14.5t14.5 34.5t-14.5 34t-34.5 14
t-34 -14t-14 -34zM458 125q0 -20 14.5 -34.5t34.5 -14.5t34.5 14.5t14.5 34.5t-14.5 34t-34.5 14t-34.5 -14t-14.5 -34z" />
    <glyph glyph-name="minus" unicode="&#x2212;" horiz-adv-x="532" 
d="M69 300q-8 0 -13.5 5.5t-5.5 13.5v56q0 8 5.5 13.5t13.5 5.5h394q8 0 13 -5.5t5 -13.5v-56q0 -8 -5 -13.5t-13 -5.5h-394v0z" />
    <glyph glyph-name="plusminus" unicode="&#xb1;" horiz-adv-x="560" 
d="M233 363h-150q-8 0 -13.5 5.5t-5.5 13.5v56q0 8 5.5 13.5t13.5 5.5h150v148q0 8 5.5 13t13.5 5h56q8 0 13.5 -5t5.5 -13v-148h150q8 0 13 -5.5t5 -13.5v-56q0 -8 -5 -13.5t-13 -5.5h-150v-103q0 -8 -5.5 -13t-13.5 -5h-56q-8 0 -13.5 5t-5.5 13v103zM64 122q0 8 5.5 13.5
t13.5 5.5h394q8 0 13 -5.5t5 -13.5v-56q0 -8 -5 -13.5t-13 -5.5h-394q-8 0 -13.5 5.5t-5.5 13.5v56z" />
    <glyph glyph-name="multiply" unicode="&#xd7;" horiz-adv-x="464" 
d="M60 215q-5 5 -5 13t5 13l106 106l-106 106q-5 5 -5 13.5t5 13.5l39 40q5 5 13.5 5t13.5 -5l106 -106l106 107q5 5 13 4.5t13 -5.5l40 -40q5 -5 5.5 -13t-4.5 -13l-106 -107l106 -106q5 -6 4.5 -14t-5.5 -13l-40 -39q-5 -5 -13 -5.5t-13 4.5l-106 107l-106 -106
q-5 -5 -13 -5t-13 5z" />
    <glyph glyph-name="divide" unicode="&#xf7;" horiz-adv-x="505" 
d="M250 471q-29 0 -49 20.5t-20 48.5q0 29 20 49t49 20t49 -20t20 -49q0 -28 -20 -48.5t-49 -20.5zM56 299q-8 0 -13.5 5.5t-5.5 13.5v56q0 8 5.5 13.5t13.5 5.5h394q8 0 13 -5.5t5 -13.5v-56q0 -8 -5 -13.5t-13 -5.5h-394zM181 160q0 29 19.5 48.5t48.5 19.5t49 -19.5
t20 -48.5t-20 -49t-49 -20t-48.5 20t-19.5 49z" />
    <glyph glyph-name="notequal" unicode="&#x2260;" horiz-adv-x="464" 
d="M123 51q-7 3 -10 10t0 14l24 52h-68q-8 0 -13.5 5.5t-5.5 13.5v57q0 8 5.5 13.5t13.5 5.5h113l53 116h-166q-8 0 -13.5 5.5t-5.5 13.5v56q0 8 5.5 13.5t13.5 5.5h210l35 75q3 8 10.5 10t14.5 -1l12 -6q8 -3 11 -10t-2 -14l-25 -54h60q8 0 13.5 -5.5t5.5 -13.5v-56
q0 -8 -5.5 -13.5t-13.5 -5.5h-104l-53 -116h157q8 0 13.5 -5.5t5.5 -13.5v-57q0 -8 -5.5 -13.5t-13.5 -5.5h-201l-34 -74q-3 -7 -10.5 -9t-14.5 1l-12 6v0z" />
    <glyph glyph-name="approxequal" unicode="&#x2248;" horiz-adv-x="463" 
d="M43 347q-5 4 -5.5 10t3.5 10q17 23 36 41q17 16 39 29t47 13q27 0 45.5 -12.5l33.5 -23.5q11 -8 25.5 -16.5t31.5 -8.5q10 0 19 5t16 12t12.5 15.5l9.5 14.5q9 12 23 2l37 -32q4 -4 4.5 -10t-3.5 -11q-16 -23 -35 -41q-17 -16 -38.5 -28.5t-46.5 -12.5q-29 0 -48 14
l-35 25q-11 8 -23 14.5t-28 6.5q-10 0 -19 -5t-16.5 -12t-13.5 -15t-10 -14q-4 -7 -10.5 -7.5t-11.5 4.5zM43 149q-4 4 -5 9.5t3 10.5q17 23 36 41q17 15 39 28t47 13q27 0 45.5 -12.5l33.5 -23.5q11 -8 25.5 -16.5t31.5 -8.5q10 0 19 5t16 12.5t12.5 15.5l9.5 14q9 12 23 2
l37 -32q4 -4 4.5 -10t-3.5 -11q-16 -23 -35 -41q-17 -16 -38.5 -28.5t-46.5 -12.5q-29 0 -48 14l-35 25q-11 8 -23 14.5t-28 6.5q-20 0 -36 -16.5t-23 -29.5q-4 -7 -10.5 -7t-11.5 5z" />
    <glyph glyph-name="lessequal" unicode="&#x2264;" horiz-adv-x="456" 
d="M23 381q-5 2 -7.5 5.5t-2.5 11.5v12q0 11 10 16l395 188q10 5 17.5 0.5t7.5 -15.5v-72q0 -11 -8 -14l-250 -106l250 -102q8 -5 8 -14v-73q0 -11 -8 -15.5t-17 0.5zM30 47q-8 0 -13.5 5.5t-5.5 13.5v56q0 8 5.5 13.5t13.5 5.5h394q8 0 13 -5.5t5 -13.5v-56q0 -8 -5 -13.5
t-13 -5.5h-394z" />
    <glyph glyph-name="greaterequal" unicode="&#x2265;" horiz-adv-x="456" 
d="M36 203q-9 -5 -17 -0.5t-8 15.5v73q0 9 8 14l250 102l-250 106q-8 3 -8 14v72q0 11 7.5 15.5t17.5 -0.5l395 -188q10 -5 10 -16v-12q0 -8 -2.5 -11.5t-7.5 -5.5zM30 47q-8 0 -13 5.5t-5 13.5v56q0 8 5 13.5t13 5.5h394q8 0 13.5 -5.5t5.5 -13.5v-56q0 -8 -5.5 -13.5
t-13.5 -5.5h-394z" />
    <glyph glyph-name="logicalnot" unicode="&#xac;" horiz-adv-x="504" 
d="M42 300q-8 0 -13.5 5.5t-5.5 13.5v56q0 8 5.5 13.5t13.5 5.5h393q8 0 13.5 -6t5.5 -13v-226q0 -8 -5.5 -13t-13.5 -5h-56q-8 0 -13.5 5t-5.5 13v151h-318v0z" />
    <glyph glyph-name="Delta" unicode="&#x2206;" horiz-adv-x="703" 
d="M332 701q5 10 16 10h9q11 0 16 -10l302 -660q7 -15 3 -28t-23 -13h-600q-20 0 -28 10.5t2 32.5zM504 119l-153 340h-1l-150 -340h304z" />
    <glyph glyph-name="uni0394" unicode="&#x394;" horiz-adv-x="703" 
d="M332 701q5 10 16 10h9q11 0 16 -10l302 -660q7 -15 3 -28t-23 -13h-600q-20 0 -28 10.5t2 32.5zM504 119l-153 340h-1l-150 -340h304z" />
    <glyph glyph-name="Omega" unicode="&#x2126;" horiz-adv-x="781" 
d="M33 106q0 7 5 12.5t13 5.5h86q-24 16 -43.5 42t-34 57t-22 65.5t-7.5 67.5q0 75 28 139.5t77 112.5t114.5 75t140.5 27t140.5 -27t114.5 -75t77 -112.5t28 -139.5q0 -33 -8 -67.5t-22 -65.5t-34.5 -57t-44.5 -42h88q8 0 13 -5.5t5 -12.5v-88q0 -8 -5 -13t-13 -5h-270
q-8 0 -12.5 5t-4.5 13v54q0 20 6 25.5t18 12.5q36 18 64 44t47.5 57.5t30 67t10.5 70.5q0 46 -18 88t-49.5 73.5t-73 50t-87.5 18.5q-47 0 -88.5 -18.5t-73 -50t-49.5 -73.5t-18 -88q0 -35 10.5 -70.5t30 -67t47.5 -57.5t64 -44q13 -7 19 -12.5t6 -25.5v-54q0 -8 -5 -13
t-13 -5h-269q-8 0 -13 5t-5 13v88z" />
    <glyph glyph-name="uni03A9" unicode="&#x3a9;" horiz-adv-x="781" 
d="M33 106q0 7 5 12.5t13 5.5h86q-24 16 -43.5 42t-34 57t-22 65.5t-7.5 67.5q0 75 28 139.5t77 112.5t114.5 75t140.5 27t140.5 -27t114.5 -75t77 -112.5t28 -139.5q0 -33 -8 -67.5t-22 -65.5t-34.5 -57t-44.5 -42h88q8 0 13 -5.5t5 -12.5v-88q0 -8 -5 -13t-13 -5h-270
q-8 0 -12.5 5t-4.5 13v54q0 20 6 25.5t18 12.5q36 18 64 44t47.5 57.5t30 67t10.5 70.5q0 46 -18 88t-49.5 73.5t-73 50t-87.5 18.5q-47 0 -88.5 -18.5t-73 -50t-49.5 -73.5t-18 -88q0 -35 10.5 -70.5t30 -67t47.5 -57.5t64 -44q13 -7 19 -12.5t6 -25.5v-54q0 -8 -5 -13
t-13 -5h-269q-8 0 -13 5t-5 13v88z" />
    <glyph glyph-name="mu" unicode="&#xb5;" horiz-adv-x="524" 
d="M181 -281q0 -8 -5.5 -13.5t-13.5 -5.5h-82q-8 0 -13.5 5.5t-5.5 13.5v662q0 8 5.5 13.5t13.5 5.5h82q8 0 13.5 -5.5t5.5 -13.5v-199q2 -37 21 -57.5t52 -20.5q32 0 53.5 24t26.5 51v202q0 11 5 15t17 4h76q8 0 13.5 -5.5t5.5 -13.5v-362q0 -8 -5.5 -13.5t-13.5 -5.5h-37
q-8 0 -12.5 4.5t-6.5 10.5l-12 33q-7 -6 -17.5 -16t-26.5 -19t-38 -16t-52 -7q-27 0 -49 6v-277z" />
    <glyph glyph-name="uni03BC" unicode="&#x3bc;" horiz-adv-x="524" 
d="M181 -281q0 -8 -5.5 -13.5t-13.5 -5.5h-82q-8 0 -13.5 5.5t-5.5 13.5v662q0 8 5.5 13.5t13.5 5.5h82q8 0 13.5 -5.5t5.5 -13.5v-199q2 -37 21 -57.5t52 -20.5q32 0 53.5 24t26.5 51v202q0 11 5 15t17 4h76q8 0 13.5 -5.5t5.5 -13.5v-362q0 -8 -5.5 -13.5t-13.5 -5.5h-37
q-8 0 -12.5 4.5t-6.5 10.5l-12 33q-7 -6 -17.5 -16t-26.5 -19t-38 -16t-52 -7q-27 0 -49 6v-277z" />
    <glyph glyph-name="pi" unicode="&#x3c0;" horiz-adv-x="681" 
d="M121 295h-77q-8 0 -13 5.5t-5 12.5v69q0 8 5 13t13 5h573q17 0 17 -17v-70q0 -8 -4.5 -13t-12.5 -5h-83v-277q0 -8 -5 -13t-13 -5h-89q-7 0 -12.5 5t-5.5 13v277h-163v-277q0 -8 -5.5 -13t-12.5 -5h-89q-8 0 -13 5t-5 13v277z" />
    <glyph glyph-name="degree" unicode="&#xb0;" horiz-adv-x="310" 
d="M155 440q-28 0 -52.5 10.5t-43 29t-29 43t-10.5 52.5t10.5 52.5t29 43t43 29t52.5 10.5t52.5 -10.5t43 -29t29 -43t10.5 -52.5t-10.5 -52.5t-29 -43t-43 -29t-52.5 -10.5zM155 524q20 0 34.5 15.5t14.5 35.5t-14.5 34.5t-34.5 14.5t-35.5 -14.5t-15.5 -34.5t15.5 -35.5
t35.5 -15.5z" />
    <glyph glyph-name="afii61289" unicode="&#x2113;" horiz-adv-x="505" 
d="M94 154q0 14 1 28t3 28q-11 -3 -23.5 -6l-20.5 -5q-14 -2 -15 11l-5 38q-1 6 0.5 12t14.5 8q17 3 33 6.5t31 8.5l7.5 42.5t8.5 42.5q16 82 36 145.5t45 107t56 66.5t70 23q55 0 85 -38t30 -101q0 -65 -23.5 -118t-62.5 -95t-90 -72.5t-105 -51.5q-4 -19 -6.5 -38.5
t-2.5 -39.5q0 -19 4 -36.5t13 -31t23 -22t35 -8.5q45 0 81.5 13t65.5 31q11 7 16 5t10 -10l14 -21q7 -10 7 -14.5t-9 -12.5q-4 -3 -20 -13t-40.5 -20t-56.5 -18t-68 -8q-38 0 -65 13.5t-44 36.5t-25 52.5t-8 61.5zM183 304q42 18 78.5 44t64 59t43 74t15.5 90q0 32 -12.5 51
t-35.5 19q-48 0 -83 -75.5t-60 -208.5z" />
    <glyph glyph-name="estimated" unicode="&#x212e;" horiz-adv-x="823" 
d="M150 168q19 -27 45 -48t57 -35.5t65.5 -22t69.5 -7.5q53 0 105 21.5t97 59.5q7 7 13.5 8.5t14.5 -6.5l21 -22q11 -12 -6 -29q-53 -49 -115 -73t-130 -24q-76 0 -142.5 27.5t-115.5 76t-77 114t-28 141.5t28 142t77 114.5t115.5 76.5t142.5 28t142 -28.5t115 -77.5
t77.5 -115.5t29.5 -142.5q0 -17 -5.5 -23t-18.5 -6h-577v-149zM626 380v150q-41 53 -103 83.5t-136 30.5q-75 0 -135.5 -29t-101.5 -83v-152h476z" />
    <glyph glyph-name="eng" unicode="&#x14b;" horiz-adv-x="519" 
d="M60 381q0 8 5.5 13.5t13.5 5.5h38q12 0 17 -12l14 -37q6 6 17.5 16t29.5 19.5t41.5 16.5t52.5 7q48 0 81.5 -16.5t55 -44t31.5 -63.5t10 -75v-319q0 -50 -14 -87.5t-39 -63t-59 -38.5t-74 -13t-72.5 13.5t-45.5 25.5q-5 4 -6 11t2 12l33 64q3 6 10 7.5t14 -2.5
q10 -6 26 -13t33 -7q34 0 53 23.5t19 67.5v319q0 39 -19.5 62t-55.5 23q-20 0 -35.5 -6t-27.5 -15.5t-19.5 -20.5t-11.5 -21v-214q0 -11 -5.5 -15t-19.5 -4h-74q-8 0 -13.5 5.5t-5.5 13.5v362z" />
    <glyph glyph-name="Eng" unicode="&#x14a;" horiz-adv-x="773" 
d="M91 692q0 8 5.5 13t13.5 5h25l416 -442h1v413q0 8 5.5 13.5t13.5 5.5h92q8 0 13.5 -5.5t5.5 -13.5v-789q0 -50 -14 -87.5t-39 -63t-59 -38.5t-74 -13t-72.5 13.5t-45.5 25.5q-5 4 -6 11t2 12l33 64q3 6 10 7.5t14 -2.5q10 -6 26 -13t33 -7q34 0 50.5 23.5t16.5 67.5v187
l-336 370h-1v-430q0 -8 -5.5 -13.5t-13.5 -5.5h-91q-8 0 -13.5 5.5t-5.5 13.5v673z" />
    <glyph glyph-name="infinity" unicode="&#x221e;" horiz-adv-x="593" 
d="M190 156q-29 0 -54.5 11t-44.5 30t-30 44.5t-11 54.5t11 54.5t30 44.5t44.5 30t54.5 11q32 0 59.5 -16t45.5 -39q20 23 47.5 39t59.5 16q29 0 55 -11t45 -30t30 -44.5t11 -54.5t-11 -54.5t-30 -44.5t-45 -30t-55 -11q-32 0 -59.5 16t-47.5 39q-18 -23 -45.5 -39
t-59.5 -16zM346 296q0 -22 15 -37t37 -15t37.5 15t15.5 37t-15.5 37t-37.5 15t-37 -15t-15 -37zM193 244q22 0 37.5 15t15.5 37t-15.5 37t-37.5 15q-21 0 -36 -15t-15 -37t15 -37t36 -15z" />
    <glyph glyph-name="partialdiff" unicode="&#x2202;" horiz-adv-x="570" 
d="M53 219q0 54 18 94.5t46.5 67.5t65 41t74.5 14q18 0 35.5 -3t33 -7.5t27.5 -9t18 -8.5q-12 41 -41 74t-63 57.5t-66 39.5t-50 21q-14 5 -18 12.5t0 16.5l23 59q6 20 28 14q21 -7 54.5 -21.5t70.5 -39t74 -58.5t67 -80.5t48.5 -105t18.5 -131.5q0 -56 -15 -106.5t-45 -88
t-74.5 -59.5t-103.5 -22q-46 0 -87 18t-72 49t-49 73t-18 89zM166 221q0 -24 9 -45t24.5 -37t36 -25.5t44.5 -9.5q30 0 52.5 13.5t36.5 34.5t21 47t7 52q-4 13 -13.5 28.5t-24 28.5t-34 21.5t-44.5 8.5q-24 0 -45 -9.5t-36.5 -25t-24.5 -37t-9 -45.5z" />
    <glyph glyph-name="integral" unicode="&#x222b;" horiz-adv-x="393" 
d="M121 509q0 49 14.5 86.5t40 63t61 38.5t77.5 13q43 0 70.5 -14t40.5 -25q5 -5 6.5 -12t-2.5 -12l-37 -62q-10 -14 -24 -5q-4 3 -21 10t-32 7q-27 0 -48 -21t-21 -68v-617q0 -49 -14.5 -86.5t-40.5 -63t-61.5 -38.5t-77.5 -13q-43 0 -70.5 14t-40.5 25q-5 5 -6 12t2 12
l38 62q9 14 24 5q3 -3 20 -10t32 -7q27 0 48.5 21t21.5 68v617z" />
    <glyph glyph-name="radical" unicode="&#x221a;" horiz-adv-x="687" 
d="M60 377q-5 9 -0.5 16t15.5 7h94q5 0 9.5 -3.5t5.5 -6.5l67 -153h5l204 452q2 4 6.5 7.5t10.5 3.5h188q8 0 12.5 -5t4.5 -13v-72q0 -8 -4.5 -13t-12.5 -5h-119l-273 -591q-6 -11 -16 -11h-9q-4 0 -9 3t-7 8z" />
    <glyph glyph-name="summation" unicode="&#x2211;" horiz-adv-x="546" 
d="M50 58l278 296l-278 294v34q0 8 4.5 13t12.5 5h411q8 0 13 -5t5 -13v-88q0 -8 -5 -13t-13 -5h-216l167 -157q5 -5 11.5 -13.5t6.5 -22.5v-56q0 -13 -6.5 -21t-11.5 -13l-167 -169h216q8 0 13 -5t5 -13v-88q0 -8 -5 -13t-13 -5h-411q-8 0 -12.5 5t-4.5 13v40z" />
    <glyph glyph-name="product" unicode="&#x220f;" horiz-adv-x="686" 
d="M49 682q0 8 5 13t13 5h552q7 0 12 -5t5 -13v-664q0 -8 -5 -13t-12 -5h-98q-8 0 -12.5 5t-4.5 13v558h-322v-558q0 -8 -5 -13t-13 -5h-97q-8 0 -13 5t-5 13v664z" />
    <glyph glyph-name="lozenge" unicode="&#x25ca;" horiz-adv-x="703" 
d="M92 312q-11 14 -13.5 27t0.5 28q2 9 6 16.5t12 18.5l235 299q5 10 16 10h9q11 0 16 -10l235 -298q12 -16 16.5 -29t1.5 -29q-2 -10 -6.5 -18.5t-12.5 -19.5l-234 -297q-5 -10 -16 -10h-9q-5 0 -9.5 3t-6.5 7zM353 167l143 188l-143 190h-2l-143 -190l143 -188h2z" />
    </font>
</defs>
</svg>
