<?xml version="1.0" standalone="no"?>
<!DOCTYPE svg PUBLIC "-//W3C//DTD SVG 1.1//EN" "http://www.w3.org/Graphics/SVG/1.1/DTD/svg11.dtd" >
<svg>
<metadata>
Created by FontForge 20090622 at Thu Oct 20 09:58:16 2016
 By deploy user
Copyright (c) 2009 by Hannes von Doehren. All rights reserved.
</metadata>
<defs>
<font id="VN_BrandonGrotesque-Black" horiz-adv-x="510" >
  <font-face 
    font-family="VN_Brandon Grotesque"
    font-weight="500"
    font-stretch="normal"
    units-per-em="1000"
    panose-1="2 11 10 3 2 2 3 6 2 2"
    ascent="700"
    descent="-300"
    x-height="400"
    cap-height="700"
    bbox="-165.381 -389.533 1154.92 1114"
    underline-thickness="50"
    underline-position="-50"
    unicode-range="U+000D-U+FB02"
  />
<missing-glyph horiz-adv-x="599" 
d="M50 670q0 30 30 30h439q30 0 30 -30v-640q0 -30 -30 -30h-439q-30 0 -30 30v640zM262 314q0 -5 4.5 -8.5t9.5 -3.5h36q15 0 15 13v26q0 18 16.5 31.5l36 29t36 36t16.5 53.5q0 24 -9.5 44.5t-26.5 35.5t-39.5 23t-49.5 8q-33 0 -57 -10t-41 -21q-19 -13 -32 -30
q-3 -5 -4 -9.5t4 -8.5l22 -22q8 -6 17 0q5 4 12 11t17 14t23.5 11.5t31.5 4.5q30 0 45.5 -16t15.5 -36q0 -24 -15.5 -39t-34 -30t-34 -32.5t-15.5 -45.5v-29zM245 156q0 -20 14 -34t34 -14t34.5 14t14.5 34t-14.5 34t-34.5 14t-34 -14t-14 -34z" />
    <glyph glyph-name="fi" unicode="fi" horiz-adv-x="571" 
d="M75 273h-21q-8 0 -13.5 5.5t-5.5 13.5v89q0 19 19 19h21v93q0 47 16 86.5t44.5 68.5t67.5 45.5t86 16.5q24 0 47.5 -4.5t43.5 -10.5t36.5 -13t27.5 -13q8 -4 10 -11.5t-2 -15.5l-43 -82q-11 -21 -28 -13q-16 7 -32 12q-14 5 -29 9t-29 4q-24 0 -43.5 -19t-19.5 -61v-92
h270q19 0 19 -19v-362q0 -8 -5.5 -13.5t-13.5 -5.5h-109q-8 0 -13.5 5.5t-5.5 13.5v254h-142v-254q0 -9 -5 -13t-12.5 -5.5t-16 -1t-14.5 0.5h-86q-8 0 -13.5 5.5t-5.5 13.5v254z" />
    <glyph glyph-name="fl" unicode="fl" horiz-adv-x="592" 
d="M76 273h-23q-8 0 -13.5 5.5t-5.5 13.5v89q0 19 19 19h23v93q0 51 17 91.5t46 68.5t68 42.5t83 14.5q34 0 61.5 -9.5t47.5 -20.5q23 -13 41 -29l13 30q9 19 26 19h40q8 0 13.5 -5.5t5.5 -13.5v-662q0 -8 -5.5 -13.5t-13.5 -5.5h-111q-8 0 -13.5 5.5t-5.5 13.5v512
q-3 4 -10.5 10.5t-18.5 13.5t-25 12t-30 5q-31 0 -54 -19t-23 -61v-92h67q8 0 13.5 -5.5t5.5 -13.5v-89q0 -8 -5.5 -13.5t-13.5 -5.5h-67v-254q0 -8 -5.5 -13.5t-13.5 -5.5h-115q-8 0 -13 5.5t-5 13.5v254z" />
    <glyph glyph-name="f_f" unicode="ff" horiz-adv-x="667" 
d="M75 273h-21q-8 0 -13.5 5.5t-5.5 13.5v89q0 19 19 19h21v77q0 54 18 96t48.5 70t71 42.5t85.5 14.5q52 0 87.5 -16t55.5 -33q57 59 148 59q19 0 38.5 -3.5t36 -9.5t29 -12.5t18.5 -12.5q5 -4 6 -11t-2 -12l-42 -83q-2 -5 -9.5 -7.5t-13.5 0.5q-10 5 -23.5 10.5t-28.5 5.5
q-32 0 -45.5 -23t-13.5 -60v-92h92q19 0 19 -19v-89q0 -8 -5.5 -13.5t-13.5 -5.5h-92v-254q0 -8 -5.5 -13.5t-13.5 -5.5h-115q-8 0 -13.5 5.5t-5.5 13.5v254h-158v-254q0 -8 -5.5 -13.5t-13.5 -5.5h-115q-8 0 -13.5 5.5t-5.5 13.5v254zM386 400v92q0 10 0.5 19.5t1.5 18.5
q-10 11 -30 23t-49 12q-37 0 -59 -25.5t-22 -62.5v-77h158z" />
    <glyph glyph-name="f_f_i" unicode="ffi" horiz-adv-x="882" 
d="M75 273h-21q-8 0 -13.5 5.5t-5.5 13.5v89q0 19 19 19h21v77q0 51 17 92t47 70.5t70.5 45t88.5 15.5q35 0 62 -8t45 -17q21 -11 36 -24q28 29 64 44t90 15q25 0 49 -4.5t45 -10.5t38 -13t28 -13q8 -4 10.5 -11.5t-2.5 -15.5l-46 -88q-9 -14 -25 -7t-32 12q-14 5 -29 9
t-29 4q-24 0 -43.5 -19t-19.5 -61v-92h270q19 0 19 -19v-362q0 -8 -5.5 -13.5t-13.5 -5.5h-109q-8 0 -13.5 5.5t-5.5 13.5v254h-142v-254q0 -8 -5.5 -13.5t-13.5 -5.5h-115q-8 0 -13.5 5.5t-5.5 13.5v254h-158v-254q0 -8 -5.5 -13.5t-13.5 -5.5h-115q-8 0 -13.5 5.5
t-5.5 13.5v254zM386 400v92q0 10 0.5 19.5t1.5 18.5q-10 11 -30 23t-49 12q-37 0 -59 -25.5t-22 -62.5v-77h158z" />
    <glyph glyph-name="f_f_l" unicode="ffl" horiz-adv-x="903" 
d="M75 273h-21q-8 0 -13.5 5.5t-5.5 13.5v89q0 19 19 19h21v77q0 54 18 96t48.5 70t71 42.5t85.5 14.5q52 0 87.5 -16t55.5 -33q28 29 68 44t94 15q32 0 59 -9.5t47 -20.5q23 -13 42 -29l13 30q7 19 26 19h40q8 0 13.5 -5.5t5.5 -13.5v-662q0 -8 -5.5 -13.5t-13.5 -5.5h-111
q-8 0 -13.5 5.5t-5.5 13.5v512q-3 4 -10.5 10.5t-18.5 13.5t-25 12t-30 5q-31 0 -54 -19t-23 -61v-93h67q8 0 13.5 -5.5t5.5 -13.5v-89q0 -8 -5.5 -13.5t-13.5 -5.5h-67v-253q0 -8 -5.5 -13.5t-13.5 -5.5h-115q-8 0 -13.5 5.5t-5.5 13.5v254h-158v-254q0 -8 -5.5 -13.5
t-13.5 -5.5h-115q-8 0 -13.5 5.5t-5.5 13.5v254zM386 400v92q0 10 0.5 19.5t1.5 18.5q-10 11 -30 23t-49 12q-37 0 -59 -25.5t-22 -62.5v-77h158z" />
    <glyph glyph-name="f_f_h" unicode="ffh" horiz-adv-x="1177" 
d="M75 273h-21q-8 0 -13.5 5.5t-5.5 13.5v89q0 19 19 19h21v77q0 51 17 92t47 70.5t71 45t88 15.5q52 0 87.5 -16t55.5 -33q28 29 68 44t94 15q32 0 59 -9.5t47 -20.5q23 -13 42 -29l13 30q7 19 26 19h40q8 0 13.5 -5.5t5.5 -13.5v-294q23 11 46.5 17t46.5 6
q47 0 82.5 -16.5t59.5 -45t36.5 -66.5t12.5 -81v-182q0 -8 -5.5 -13.5t-13.5 -5.5h-106q-8 0 -13.5 5.5t-5.5 13.5v182q0 33 -20 56t-53 23q-30 0 -48.5 -18.5t-18.5 -50.5v-192q0 -8 -5.5 -13.5t-13.5 -5.5h-111q-8 0 -13.5 5.5t-5.5 13.5v512q-3 4 -10.5 10.5t-18.5 13.5
t-25 12t-30 5q-31 0 -54 -19t-23 -61v-93h67q8 0 13.5 -5.5t5.5 -13.5v-89q0 -8 -5.5 -13.5t-13.5 -5.5h-67v-253q0 -8 -5.5 -13.5t-13.5 -5.5h-115q-8 0 -13.5 5.5t-5.5 13.5v254h-158v-254q0 -8 -5.5 -13.5t-13.5 -5.5h-115q-8 0 -13.5 5.5t-5.5 13.5v254zM386 400v92
q0 10 0.5 19.5t1.5 18.5q-10 11 -30 23t-49 12q-37 0 -59 -25.5t-22 -62.5v-77h158z" />
    <glyph glyph-name="f_k" unicode="fk" horiz-adv-x="846" 
d="M76 272h-23q-8 0 -13.5 5.5t-5.5 13.5v89q0 19 19 19h23v94q0 51 17.5 91.5t47 68.5t68 42.5t80.5 14.5q34 0 62 -9.5t48 -20.5q23 -13 41 -29l13 30q7 19 26 19h40q8 0 13.5 -5.5t5.5 -13.5v-433l121 140q5 5 10.5 8.5t14.5 3.5h112q13 0 18 -10t-3 -21l-132 -153
l160 -186q8 -10 3 -20t-18 -10h-135q-3 0 -8 2.5t-7 5.5l-136 174v-163q0 -8 -5.5 -13.5t-13.5 -5.5h-111q-8 0 -13.5 5.5t-5.5 13.5v512q-3 4 -10.5 10.5t-18.5 13.5t-25 12t-30 5q-31 0 -54 -19t-23 -61v-93h67q8 0 13.5 -5.5t5.5 -13.5v-89q0 -8 -5.5 -13.5t-13.5 -5.5
h-67v-253q0 -8 -5.5 -13.5t-13.5 -5.5h-115q-8 0 -13 5.5t-5 13.5v253z" />
    <glyph glyph-name="f_j" unicode="fj" horiz-adv-x="571" 
d="M75 273h-21q-8 0 -13.5 5.5t-5.5 13.5v89q0 19 19 19h21v93q0 47 16 86.5t44.5 68.5t67.5 45.5t86 16.5q24 0 47.5 -4.5t43.5 -10.5t36.5 -13t27.5 -13q8 -4 10 -11.5t-2 -15.5l-43 -82q-11 -21 -28 -13q-16 7 -32 12q-14 5 -29 9t-29 4q-24 0 -43.5 -19t-19.5 -61v-92
h270q19 0 19 -19v-473q0 -53 -15.5 -93.5t-42.5 -68t-64.5 -42t-80.5 -14.5q-20 0 -39 3.5t-35.5 9.5t-29 12.5t-18.5 12.5q-5 4 -6 11t2 12l42 83q2 5 9.5 7.5t13.5 -0.5q10 -5 23.5 -10.5t28.5 -5.5q34 0 48.5 23t14.5 60v365h-140v-254q0 -8 -5.5 -13.5t-13.5 -5.5h-115
q-8 0 -13.5 5.5t-5.5 13.5v254z" />
    <glyph glyph-name="f_f_j" unicode="ffj" horiz-adv-x="882" 
d="M75 273h-21q-8 0 -13.5 5.5t-5.5 13.5v89q0 19 19 19h21v77q0 51 17 92t47 70.5t70.5 45t88.5 15.5q35 0 62 -8t45 -17q21 -11 36 -24q28 29 64 44t90 15q25 0 49 -4.5t45 -10.5t38 -13t28 -13q8 -4 10.5 -11.5t-2.5 -15.5l-46 -88q-9 -14 -25 -7t-32 12q-14 5 -29 9
t-29 4q-24 0 -43.5 -19t-19.5 -61v-92h270q19 0 19 -19v-473q0 -53 -15.5 -93.5t-42.5 -68t-64.5 -42t-80.5 -14.5q-20 0 -39 3.5t-35.5 9.5t-29 12.5t-18.5 12.5q-5 4 -6 11t2 12l42 83q2 5 9.5 7.5t13.5 -0.5q10 -5 23.5 -10.5t28.5 -5.5q34 0 48.5 23t14.5 60v365h-140
v-254q0 -8 -5.5 -13.5t-13.5 -5.5h-115q-8 0 -13.5 5.5t-5.5 13.5v254h-158v-254q0 -8 -5.5 -13.5t-13.5 -5.5h-115q-8 0 -13.5 5.5t-5.5 13.5v254zM386 400v92q0 10 0.5 19.5t1.5 18.5q-10 11 -30 23t-49 12q-37 0 -59 -25.5t-22 -62.5v-77h158z" />
    <glyph glyph-name="f_b" unicode="fb" horiz-adv-x="845" 
d="M76 272h-23q-8 0 -13.5 5.5t-5.5 13.5v89q0 19 19 19h23v94q0 48 17 88t46 68.5t67.5 44.5t82.5 16q34 0 62 -9.5t48 -20.5q23 -13 41 -29l13 30q7 19 26 19h40q8 0 13.5 -5.5t5.5 -13.5v-286q40 15 83 15q41 0 77 -15t63 -42.5t43 -66.5t16 -86q0 -43 -15 -81.5
t-41.5 -67t-63 -45t-78.5 -16.5q-33 0 -58 9.5t-42 21.5q-20 14 -34 32q-4 -8 -6.5 -17t-6 -17t-8.5 -13.5t-12 -5.5h-47q-8 0 -13.5 5.5t-5.5 13.5v512q-3 4 -10.5 10.5t-18.5 13.5t-25 12t-30 5q-31 0 -54 -19t-23 -61v-93h67q8 0 13.5 -5.5t5.5 -13.5v-89
q0 -8 -5.5 -13.5t-13.5 -5.5h-67v-253q0 -8 -5.5 -13.5t-13.5 -5.5h-115q-8 0 -13 5.5t-5 13.5v253zM522 200q0 -34 22.5 -57t56.5 -23t57 23t23 57q0 33 -23 56t-57 23t-56.5 -23t-22.5 -56z" />
    <glyph glyph-name="f_f_k" unicode="ffk" horiz-adv-x="1157" 
d="M75 273h-21q-8 0 -13.5 5.5t-5.5 13.5v89q0 19 19 19h21v77q0 54 18 96t48.5 70t71 42.5t85.5 14.5q52 0 87.5 -16t55.5 -33q57 59 159 59q33 0 61 -9.5t48 -20.5q24 -13 42 -29l16 38q2 4 7 7.5t10 3.5h46q8 0 13.5 -5.5t5.5 -13.5v-433l121 140q5 5 10.5 8.5t14.5 3.5
h112q13 0 18 -10t-3 -21l-132 -153l160 -186q8 -10 3 -20t-18 -10h-135q-3 0 -8 2.5t-7 5.5l-136 174v-163q0 -8 -5.5 -13.5t-13.5 -5.5h-111q-8 0 -13.5 5.5t-5.5 13.5v512q-3 4 -10.5 10.5t-18.5 13.5t-25 12t-30 5q-31 0 -54 -19t-23 -61v-93h67q8 0 13.5 -5.5t5.5 -13.5
v-89q0 -8 -5.5 -13.5t-13.5 -5.5h-67v-253q0 -8 -5.5 -13.5t-13.5 -5.5h-115q-8 0 -13.5 5.5t-5.5 13.5v254h-158v-254q0 -8 -5.5 -13.5t-13.5 -5.5h-115q-8 0 -13.5 5.5t-5.5 13.5v254zM386 400v92q0 10 0.5 19.5t1.5 18.5q-10 11 -30 23t-49 12q-37 0 -59 -25.5t-22 -62.5
v-77h158z" />
    <glyph glyph-name="f_h" unicode="fh" horiz-adv-x="866" 
d="M76 272h-23q-8 0 -13.5 5.5t-5.5 13.5v89q0 19 19 19h23v94q0 49 17 89t46.5 68.5t69.5 44t85 15.5q32 0 58.5 -9.5t46.5 -20.5q23 -13 41 -29l13 30q7 19 26 19h40q8 0 13.5 -5.5t5.5 -13.5v-294q23 12 46.5 17.5t46.5 5.5q47 0 82.5 -16.5t59.5 -45t36.5 -66.5
t12.5 -81v-182q0 -8 -5.5 -13.5t-13.5 -5.5h-106q-8 0 -13.5 5.5t-5.5 13.5v182q0 33 -20 56t-53 23q-12 0 -23.5 -3.5t-21.5 -11.5t-16 -21.5t-6 -32.5v-192q0 -8 -5.5 -13.5t-13.5 -5.5h-111q-8 0 -13.5 5.5t-5.5 13.5v512q-3 4 -10.5 10.5t-18.5 13.5t-25 12t-30 5
q-31 0 -54 -19t-23 -61v-93h67q8 0 13.5 -5.5t5.5 -13.5v-89q0 -8 -5.5 -13.5t-13.5 -5.5h-67v-253q0 -8 -5.5 -13.5t-13.5 -5.5h-115q-8 0 -13 5.5t-5 13.5v253z" />
    <glyph glyph-name="f_f_b" unicode="ffb" horiz-adv-x="1156" 
d="M75 273h-21q-8 0 -13.5 5.5t-5.5 13.5v89q0 19 19 19h21v77q0 51 17 92t47 70.5t71 45t88 15.5q52 0 87.5 -16t55.5 -33q57 59 159 59q33 0 61 -9.5t48 -20.5q24 -13 42 -29l13 30q7 19 26 19h40q8 0 13.5 -5.5t5.5 -13.5v-286q40 15 84 15q43 0 79 -14.5t62.5 -41.5
t41.5 -66t15 -88q0 -43 -15 -81.5t-41.5 -67t-63 -45t-78.5 -16.5q-33 0 -58 9.5t-42 21.5q-20 14 -34 32q-4 -8 -6.5 -17t-6 -17t-8.5 -13.5t-12 -5.5h-47q-8 0 -13.5 5.5t-5.5 13.5v512q-3 4 -10.5 10.5t-18.5 13.5t-25 12t-30 5q-31 0 -54 -19t-23 -61v-93h67
q8 0 13.5 -5.5t5.5 -13.5v-89q0 -8 -5.5 -13.5t-13.5 -5.5h-67v-253q0 -8 -5.5 -13.5t-13.5 -5.5h-115q-8 0 -13.5 5.5t-5.5 13.5v254h-158v-254q0 -8 -5.5 -13.5t-13.5 -5.5h-115q-8 0 -13.5 5.5t-5.5 13.5v254zM386 400v92q0 10 0.5 19.5t1.5 18.5q-10 11 -30 23t-49 12
q-37 0 -59 -25.5t-22 -62.5v-77h158zM833 200q0 -34 22.5 -57t56.5 -23t57 23t23 57q0 33 -23 56t-57 23t-56.5 -23t-22.5 -56z" />
    <glyph glyph-name=".notdef" horiz-adv-x="599" 
d="M50 670q0 30 30 30h439q30 0 30 -30v-640q0 -30 -30 -30h-439q-30 0 -30 30v640zM262 314q0 -5 4.5 -8.5t9.5 -3.5h36q15 0 15 13v26q0 18 16.5 31.5l36 29t36 36t16.5 53.5q0 24 -9.5 44.5t-26.5 35.5t-39.5 23t-49.5 8q-33 0 -57 -10t-41 -21q-19 -13 -32 -30
q-3 -5 -4 -9.5t4 -8.5l22 -22q8 -6 17 0q5 4 12 11t17 14t23.5 11.5t31.5 4.5q30 0 45.5 -16t15.5 -36q0 -24 -15.5 -39t-34 -30t-34 -32.5t-15.5 -45.5v-29zM245 156q0 -20 14 -34t34 -14t34.5 14t14.5 34t-14.5 34t-34.5 14t-34 -14t-14 -34z" />
    <glyph glyph-name=".null" horiz-adv-x="0" 
 />
    <glyph glyph-name=".null" horiz-adv-x="0" 
 />
    <glyph glyph-name="nonmarkingreturn" unicode="&#xd;" horiz-adv-x="0" 
 />
    <glyph glyph-name="space" unicode=" " horiz-adv-x="221" 
 />
    <glyph glyph-name="exclam" unicode="!" horiz-adv-x="314" 
d="M136 272q-7 0 -12.5 5t-6.5 11l-49 279v114q0 8 5.5 13.5t13.5 5.5h140q8 0 13.5 -5.5t5.5 -13.5v-112l-49 -281q-1 -6 -6.5 -11t-12.5 -5h-42zM62 84q0 19 7.5 36.5t20.5 31t30 21t36 7.5t36.5 -7.5t31 -21t21 -31t7.5 -36.5t-7.5 -36t-21 -30t-31 -20.5t-36.5 -7.5
t-36 7.5t-30 20.5t-20.5 30t-7.5 36z" />
    <glyph glyph-name="quotedbl" unicode="&#x22;" horiz-adv-x="366" 
d="M231 501q-8 0 -13.5 5.5t-5.5 13.5v161q0 8 5.5 13.5t13.5 5.5h104q10 0 15.5 -7t2.5 -18l-48 -159q-2 -6 -7.5 -10.5t-10.5 -4.5h-56zM50 501q-8 0 -13.5 5.5t-5.5 13.5v161q0 8 5.5 13.5t13.5 5.5h104q10 0 15.5 -7t2.5 -18l-48 -159q-2 -6 -7.5 -10.5t-10.5 -4.5h-56z
" />
    <glyph glyph-name="numbersign" unicode="#" horiz-adv-x="535" 
d="M123 185h-71q-8 0 -13.5 5.5t-5.5 13.5v17q0 19 19 19h78l24 161h-73q-8 0 -13.5 5.5t-5.5 13.5v17q0 8 5.5 13.5t13.5 5.5h80l32 228q1 6 6 11t12 5h17q8 0 14 -6.5t4 -15.5l-30 -222h161l31 228q1 6 6.5 11t12.5 5h16q9 0 15 -6.5t4 -15.5l-30 -222h60q8 0 13.5 -5.5
t5.5 -13.5v-17q0 -8 -5.5 -13.5t-13.5 -5.5h-68l-23 -161h62q8 0 13.5 -5.5t5.5 -13.5v-17q0 -8 -5.5 -13.5t-13.5 -5.5h-70l-23 -169q-2 -16 -19 -16h-16q-9 0 -14.5 6.5t-4.5 15.5l23 163h-162l-22 -169q-1 -7 -6.5 -11.5t-12.5 -4.5h-16q-10 0 -15.5 6.5t-3.5 15.5z
M347 240l22 161h-160l-24 -161h162z" />
    <glyph glyph-name="dollar" unicode="$" horiz-adv-x="526" 
d="M40 67q-8 8 -10 12.5t5 15.5l43 76q7 12 17 16.5t21 -3.5q1 -1 12 -8t27.5 -16.5t36.5 -19.5t40 -16l1 162q-33 13 -68.5 33t-65.5 48t-49.5 63.5t-19.5 80.5q0 37 13 71t39 60.5t64 44t88 22.5v32q0 8 5.5 13.5t13.5 5.5h17q8 0 13.5 -5.5t5.5 -13.5v-33q34 -3 63.5 -12
t53.5 -20t41.5 -22.5l27.5 -18.5q9 -5 9 -16t-3 -16l-58 -84q-6 -8 -13.5 -9.5t-13.5 3.5q-3 1 -13.5 7.5l-25.5 15.5l-32.5 19t-35.5 17v-141q29 -12 66 -30.5t69.5 -47t54.5 -67t22 -89.5q0 -39 -15 -74t-42.5 -63t-67.5 -46.5t-89 -22.5v-104q0 -8 -5.5 -13t-13.5 -5h-17
q-8 0 -13.5 5t-5.5 13v104q-41 3 -73.5 12.5t-56 21t-39 23t-23.5 19.5zM230 585q-24 -3 -39.5 -18t-15.5 -34q0 -22 12.5 -41t42.5 -37v130zM290 115q23 6 38 22.5t15 39.5q0 48 -53 84v-146z" />
    <glyph glyph-name="percent" unicode="%" horiz-adv-x="659" 
d="M153 441q-28 0 -52.5 10.5t-43 29t-29 43t-10.5 52.5t10.5 52.5t29 42.5t43 28.5t52.5 10.5t52.5 -10.5t43 -28.5t29 -42.5t10.5 -52.5t-10.5 -52.5t-29 -43t-43 -29t-52.5 -10.5zM435 690q3 5 8 7.5t9 2.5h76q11 0 16.5 -8.5t0.5 -18.5l-345 -663q-2 -3 -7.5 -6.5
t-9.5 -3.5h-74q-11 0 -16.5 8.5t-0.5 18.5zM153 541q14 0 24 10.5t10 24.5t-10 24t-24 10t-24.5 -10t-10.5 -24t10.5 -24.5t24.5 -10.5zM353 125q0 28 10.5 52.5t29 43t43 29t52.5 10.5t53 -10.5t43.5 -29t29 -43t10.5 -52.5t-10.5 -52.5t-29 -43t-43.5 -29t-53 -10.5
t-52.5 10.5t-43 29t-29 43t-10.5 52.5zM454 125q0 -14 10 -24t24 -10t24.5 10t10.5 24t-10.5 24.5t-24.5 10.5t-24 -10.5t-10 -24.5z" />
    <glyph glyph-name="ampersand" unicode="&#x26;" horiz-adv-x="699" 
d="M70 180q0 54 21 92t47 62q30 28 69 47v3l-20 21q-30 32 -48 65.5t-18 77.5q0 28 12.5 57t36.5 52.5t60.5 38t84.5 14.5q43 0 79.5 -13t63.5 -35.5t42 -53t15 -65.5q0 -41 -17 -73t-37.5 -54t-37.5 -34.5t-17 -15.5l90 -92q10 16 19 37.5t14 39.5q5 16 12 25.5t27 1.5
l73 -26q10 -4 14 -10t4.5 -12.5t-2 -13t-3.5 -10.5q-9 -26 -20 -48.5t-20.5 -39.5t-16 -26.5t-6.5 -10.5l85 -79q5 -5 8.5 -9t4.5 -9t-2.5 -12t-12.5 -16l-56 -57q-9 -8 -21 -8.5t-24 11.5l-65 65q-21 -22 -53 -39q-27 -14 -67.5 -26t-97.5 -12q-48 0 -88.5 15t-69.5 41
t-45.5 60.5t-16.5 73.5zM322 449q18 9 32 21q12 11 22.5 27t10.5 37q0 26 -21 45t-53 19q-28 0 -43.5 -14.5t-15.5 -34.5q0 -23 13 -39.5t33 -38.5zM213 200q0 -36 27 -60.5t67 -24.5q29 0 49.5 7.5t33.5 17.5q15 11 25 26l-131 139q-20 -8 -36 -22q-14 -12 -24.5 -32.5
t-10.5 -50.5z" />
    <glyph glyph-name="quotesingle" unicode="'" horiz-adv-x="183" 
d="M50 501q-8 0 -13.5 5.5t-5.5 13.5v161q0 8 5.5 13.5t13.5 5.5h103q10 0 15.5 -7t2.5 -18l-48 -159q-2 -6 -7.5 -10.5t-10.5 -4.5h-55v0z" />
    <glyph glyph-name="parenleft" unicode="(" horiz-adv-x="344" 
d="M291 -79q-28 2 -58 9.5t-58.5 24t-53.5 45t-43.5 71.5t-29.5 103t-11 141q0 121 23.5 197t60.5 118.5t82 59t88 18.5q8 1 14 -4.5t6 -13.5l4 -85q0 -5 -4 -11t-9 -8q-63 -20 -89 -88.5t-26 -182.5q0 -115 26 -183.5t89 -88.5q5 -2 9 -8t4 -11l-4 -84q-2 -19 -20 -19z" />
    <glyph glyph-name="parenright" unicode=")" horiz-adv-x="344" 
d="M29 25q0 5 4 10.5t9 7.5q63 20 89 88.5t26 183.5q0 114 -26 182.5t-89 88.5q-5 2 -9 8t-4 11l4 85q0 8 6 13.5t14 4.5q43 -2 88 -18.5t82 -59t60.5 -118.5t23.5 -197q0 -81 -11 -141t-29.5 -103t-43.5 -71.5t-53.5 -45t-58.5 -24t-58 -9.5q-8 0 -14 5t-6 13l-4 86v0z" />
    <glyph glyph-name="asterisk" unicode="*" horiz-adv-x="364" 
d="M160 347q-8 0 -13.5 5.5t-5.5 13.5l2 90l-74 -51q-6 -5 -14 -3t-12 8l-22 35q-5 7 -4 14.5t9 12.5l86 51l-86 52q-7 5 -8.5 12.5t2.5 14.5q8 11 13 19t11 16q5 5 12 7t13 -3l74 -51l-2 91q0 8 5.5 13.5t13.5 5.5h41q8 0 13.5 -5.5t5.5 -13.5l-2 -91l75 51q6 4 14 2.5
t12 -7.5l22 -34q5 -7 4 -15t-9 -13l-86 -51l86 -52q8 -5 9 -12.5t-3 -13.5l-25 -35q-4 -6 -11.5 -7.5t-13.5 2.5l-74 50l2 -89q0 -8 -5.5 -13.5t-13.5 -5.5h-41v0z" />
    <glyph glyph-name="plus" unicode="+" horiz-adv-x="532" 
d="M212 292h-146q-8 0 -13.5 5.5t-5.5 13.5v70q0 8 5.5 13.5t13.5 5.5h146v147q0 8 5.5 13t13.5 5h70q8 0 13.5 -5t5.5 -13v-147h147q8 0 13 -5.5t5 -13.5v-70q0 -8 -5 -13.5t-13 -5.5h-147v-146q0 -8 -5.5 -13t-13.5 -5h-70q-8 0 -13.5 5t-5.5 13v146z" />
    <glyph glyph-name="comma" unicode="," horiz-adv-x="277" 
d="M28 83q0 19 7.5 36.5t21.5 30.5t33 20.5t42 7.5q18 0 39 -7.5t38.5 -25.5t29 -47t11.5 -71q0 -52 -14.5 -91.5t-34.5 -68t-40 -46.5l-31 -28q-6 -5 -14 -6t-14 6l-21 24q-14 15 2 28q4 4 18.5 16t30.5 32t28.5 47.5t12.5 60.5q-7 -3 -15 -6q-15 -5 -37 -5q-19 0 -36 7.5
t-29.5 20t-20 29.5t-7.5 36z" />
    <glyph glyph-name="hyphen" unicode="-" horiz-adv-x="359" 
d="M65 178q-8 0 -13.5 5t-5.5 13v91q0 19 19 19h229q19 0 19 -19v-91q0 -8 -5.5 -13t-13.5 -5h-229v0z" />
    <glyph glyph-name="period" unicode="." horiz-adv-x="244" 
d="M27 84q0 19 7.5 36.5t20.5 31t30 21t36 7.5t36.5 -7.5t31 -21t21 -31t7.5 -36.5t-7.5 -36t-21 -30t-31 -20.5t-36.5 -7.5t-36 7.5t-30 20.5t-20.5 30t-7.5 36z" />
    <glyph glyph-name="slash" unicode="/" horiz-adv-x="372" 
d="M220 687q4 13 18 13h98q11 0 16 -7t2 -18l-195 -662q-2 -5 -7.5 -9t-10.5 -4h-99q-10 0 -15.5 7t-2.5 18z" />
    <glyph glyph-name="zero" unicode="0" horiz-adv-x="624" 
d="M312 -10q-61 0 -108.5 24t-80.5 69t-50 110t-17 147t17 147t50 110t80.5 69t108.5 24t108.5 -24t80.5 -69t50 -110t17 -147t-17 -147t-50 -110t-80.5 -69t-108.5 -24zM312 135q46 0 70.5 52.5t24.5 152.5q0 99 -24.5 152t-70.5 53t-70.5 -53t-24.5 -152
q0 -100 24.5 -152.5t70.5 -52.5z" />
    <glyph glyph-name="one" unicode="1" horiz-adv-x="374" 
d="M139 469h-96q-8 0 -13 5.5t-5 13.5v63q0 3 2 8t4 7l146 114h92q8 0 13 -5.5t5 -13.5v-642q0 -8 -5 -13.5t-13 -5.5h-111q-8 0 -13.5 5.5t-5.5 13.5v450z" />
    <glyph glyph-name="two" unicode="2" horiz-adv-x="514" 
d="M23 39l36 47.5l45.5 61.5l50.5 69l51 70.5l46 65l36 53.5q10 15 18 35t8 41q0 29 -23 50.5t-65 21.5q-31 0 -57 -17t-40 -33q-6 -6 -14 -6t-14 6l-61 62q-5 5 -5.5 12.5t4.5 13.5q24 27 55 49q26 18 63 33.5t82 15.5q54 0 96 -16t71 -43.5t44.5 -64t15.5 -78.5
q0 -20 -2.5 -36t-8 -31t-12.5 -30l-16 -33q-12 -21 -32 -50.5l-43 -61l-45.5 -62.5l-40.5 -56h176q8 0 13.5 -5.5t5.5 -13.5v-90q0 -8 -5.5 -13.5t-13.5 -5.5h-400q-8 0 -13.5 5.5t-5.5 13.5v20z" />
    <glyph glyph-name="three" unicode="3" horiz-adv-x="517" 
d="M30 79q-5 5 -4.5 12.5t5.5 12.5l63 63q12 12 25 2q18 -13 37 -23q16 -9 35.5 -16t37.5 -7q16 0 31.5 6.5t28 17t20 25t7.5 31.5q0 33 -31.5 57t-87.5 24h-56q-8 0 -13.5 5.5t-5.5 13.5v83q0 8 5.5 13.5t13.5 5.5h56q53 0 80 22.5t27 54.5t-24 53.5t-56 21.5
q-33 0 -54.5 -13.5t-32.5 -26.5q-5 -6 -13 -6t-14 5l-61 60q-6 5 -5.5 13t5.5 13q25 25 55 44q26 17 60 30.5t76 13.5q43 0 82.5 -13t69 -36.5t47 -57.5t17.5 -76q0 -29 -10 -54t-25 -44.5t-33 -34t-35 -22.5v-3q18 -8 39 -23t39 -36.5t30.5 -49t12.5 -59.5q0 -41 -17 -76
t-48 -60.5t-73.5 -40t-94.5 -14.5q-47 0 -83 10t-62 24.5t-42 29.5t-24 25z" />
    <glyph glyph-name="four" unicode="4" horiz-adv-x="600" 
d="M33 141q-8 0 -13.5 5.5t-5.5 13.5v106l349 419q2 2 5 4t10 2h72q8 0 13.5 -5.5t5.5 -13.5l1 -410h79q8 0 13.5 -5t5.5 -13v-83q0 -8 -5.5 -13.5t-13.5 -5.5h-79l1 -123q0 -8 -5.5 -13.5t-13.5 -5.5h-107q-8 0 -13.5 5.5t-5.5 13.5v122h-293zM330 265v186l-159 -186h159z
" />
    <glyph glyph-name="five" unicode="5" horiz-adv-x="527" 
d="M52 73q-10 11 -10.5 18t8.5 16l63 62q11 11 24 3q20 -13 41 -24q18 -9 39 -16.5t39 -7.5q41 0 68 26.5t27 68.5q0 41 -27 69t-76 28h-154q-15 0 -23 11.5t-8 23.5v310q0 8 5.5 13.5t13.5 5.5h322q8 0 13.5 -5.5t5.5 -13.5v-88q0 -8 -5.5 -13.5t-13.5 -5.5h-206v-107h71
q52 0 94 -17t72 -47.5t46 -72.5t16 -91q0 -47 -19 -88.5t-52 -73t-78.5 -49.5t-97.5 -18q-39 0 -71.5 8.5t-57.5 21.5t-42.5 27.5t-26.5 25.5z" />
    <glyph glyph-name="six" unicode="6" horiz-adv-x="538" 
d="M37 262q0 73 19 132.5t49 106t67.5 81.5t75 59.5t70.5 39t55 21.5q11 4 19 -0.5t12 -15.5l29 -77q3 -9 -0.5 -16.5t-18.5 -12.5q-18 -6 -48.5 -17.5t-62 -31.5t-57 -48t-33.5 -67q20 8 47.5 14t47.5 6q35 0 70.5 -13t64 -40t46.5 -68t18 -96q0 -47 -18 -89t-49.5 -73
t-73 -49t-88.5 -18q-58 0 -103 20.5t-75.5 57t-46.5 86t-16 108.5zM180 224q0 -20 7.5 -37t20.5 -30.5t30.5 -21t37.5 -7.5t37.5 7.5t30.5 21t20.5 30.5t7.5 37t-7.5 37.5t-20.5 31t-30.5 21t-37.5 7.5t-37.5 -7.5t-30.5 -21t-20.5 -31t-7.5 -37.5z" />
    <glyph glyph-name="seven" unicode="7" horiz-adv-x="494" 
d="M37 30l250 522h-232q-8 0 -13.5 5.5t-5.5 13.5v90q0 8 5.5 13.5t13.5 5.5h422q8 0 13.5 -5.5t5.5 -13.5v-7l-299 -625q-9 -19 -19.5 -24t-21.5 -5h-99q-8 0 -14 5.5t-6 13.5v11z" />
    <glyph glyph-name="eight" unicode="8" horiz-adv-x="567" 
d="M40 181q0 33 16.5 62t37.5 51t41 36.5t27 18.5v3q-15 8 -32.5 22.5t-33.5 34t-26.5 44t-10.5 54.5q0 42 17.5 76t47.5 57.5t70.5 36.5t86.5 13q48 0 89 -13t72 -36.5t48.5 -57.5t17.5 -76q0 -29 -10.5 -53t-26.5 -43.5t-33.5 -34t-32.5 -23.5v-4q17 -9 38 -24.5t40 -36.5
t31.5 -48t12.5 -59q0 -41 -17.5 -76t-49.5 -60.5t-77.5 -40t-101.5 -14.5q-54 0 -98.5 14.5t-76 40t-49 60.5t-17.5 76zM283 418q35 13 53 35t18 48t-21 45.5t-50 19.5q-28 0 -49 -19.5t-21 -45.5q0 -56 70 -83zM202 188q0 -17 7 -30.5t18.5 -23.5t26.5 -15.5t30 -5.5
t29.5 5.5t26 15.5t18.5 24t7 30q0 28 -20.5 53t-61.5 39q-39 -14 -60 -39t-21 -53z" />
    <glyph glyph-name="nine" unicode="9" horiz-adv-x="537" 
d="M104 77q-3 9 0.5 16.5t18.5 12.5q18 6 48.5 17.5t62 31.5t57 48t33.5 67q-20 -8 -47.5 -14t-47.5 -6q-35 0 -70.5 13t-64 40t-46.5 67.5t-18 96.5q0 47 18 89t49.5 73t73 49t88.5 18q58 0 103 -20.5t75.5 -57t46.5 -86.5t16 -108q0 -73 -18.5 -132.5t-48 -106t-67 -81.5
t-74.5 -59.5t-71 -39t-57 -21.5q-23 -6 -31 16zM261 365q20 0 37.5 7.5t30.5 21t20.5 31t7.5 37.5q0 19 -7.5 36.5t-20.5 31t-30.5 21t-37.5 7.5t-37.5 -7.5t-30.5 -21t-20.5 -31t-7.5 -36.5q0 -20 7.5 -37.5t20.5 -31t30.5 -21t37.5 -7.5z" />
    <glyph glyph-name="colon" unicode=":" horiz-adv-x="260" 
d="M130 251q-33 0 -56 23t-23 56t23 56.5t56 23.5t56.5 -23.5t23.5 -56.5t-23.5 -56t-56.5 -23zM51 69q0 33 23 56.5t56 23.5t56.5 -23.5t23.5 -56.5t-23.5 -56t-56.5 -23t-56 23t-23 56z" />
    <glyph glyph-name="semicolon" unicode=";" horiz-adv-x="237" 
d="M107 251q-33 0 -56 23t-23 56t23 56.5t56 23.5t56.5 -23.5t23.5 -56.5t-23.5 -56t-56.5 -23zM33 61q0 29 22 50.5t57 21.5q14 0 30 -6t29.5 -19.5t22.5 -35.5t9 -55q0 -39 -11.5 -69.5t-26.5 -52.5t-30.5 -36t-24.5 -21q-5 -4 -10.5 -4.5t-11.5 6.5l-15 15q-5 6 -4.5 12
t5.5 10q4 3 15.5 12.5t23.5 25t22 36t10 46.5q-5 -2 -11 -4q-11 -3 -29 -3q-29 0 -50.5 20.5t-21.5 50.5z" />
    <glyph glyph-name="less" unicode="&#x3c;" horiz-adv-x="435" 
d="M27 210q-4 2 -7 7t-3 10v5q0 5 3 10t7 7l350 212q10 6 19 1t9 -17v-87q0 -3 -2.5 -7.5t-5.5 -6.5l-191 -113l191 -109q3 -2 5.5 -6.5t2.5 -7.5v-87q0 -12 -9 -17t-19 1l-350 205v0z" />
    <glyph glyph-name="equal" unicode="=" horiz-adv-x="483" 
d="M72 331q-8 0 -13.5 5.5t-5.5 13.5v70q0 8 5.5 13.5t13.5 5.5h339q8 0 13.5 -5.5t5.5 -13.5v-70q0 -8 -5.5 -13.5t-13.5 -5.5h-339zM72 120q-8 0 -13.5 5.5t-5.5 13.5v71q0 8 5.5 13.5t13.5 5.5h339q8 0 13.5 -5.5t5.5 -13.5v-71q0 -8 -5.5 -13.5t-13.5 -5.5h-339z" />
    <glyph glyph-name="greater" unicode="&#x3e;" horiz-adv-x="435" 
d="M30 108q0 3 2.5 7.5t5.5 6.5l191 109l-191 113q-3 2 -5.5 6.5t-2.5 7.5v87q0 12 9 17t19 -1l350 -212q4 -2 7 -7t3 -10v-5q0 -5 -3 -10t-7 -7l-350 -205q-10 -6 -19 -1t-9 17v87z" />
    <glyph glyph-name="question" unicode="?" horiz-adv-x="453" 
d="M154 272q-8 0 -13.5 5.5t-5.5 13.5v42q0 31 21.5 55t47.5 45t47.5 41t21.5 44q0 23 -21.5 41t-53.5 18q-26 0 -43.5 -9.5t-30 -19.5t-22 -15t-18.5 3l-61 60q-6 5 -5.5 13t5.5 13q22 25 53 44q26 17 63.5 30.5t86.5 13.5q40 0 76.5 -13t65 -36.5t45.5 -55.5t17 -70
q0 -33 -11 -56.5t-28 -41.5t-36 -33t-36 -31t-28 -35.5t-11 -46.5q0 -8 -5.5 -13.5t-13.5 -5.5h-107zM113 84q0 19 7.5 36.5t20.5 31t30 21t36 7.5t36.5 -7.5t31 -21t21 -31t7.5 -36.5t-7.5 -36t-21 -30t-31 -20.5t-36.5 -7.5t-36 7.5t-30 20.5t-20.5 30t-7.5 36z" />
    <glyph glyph-name="at" unicode="@" horiz-adv-x="990" 
d="M26 223q0 106 35.5 195.5t99.5 154.5t153 101t196 36q106 0 188.5 -32t139.5 -88.5t86.5 -134t29.5 -167.5q0 -50 -12.5 -102.5t-41 -96t-73.5 -71.5t-110 -28q-52 0 -79 23t-41 55h-8q-17 -32 -51 -55t-82 -23q-44 0 -78 17.5t-57.5 46.5t-36 66.5t-12.5 78.5
q0 42 14 80.5t39 67.5t59.5 46t75.5 17q21 0 39.5 -6t34 -15t28 -20t21.5 -21q3 7 6 16.5t7 17t9 13t12 5.5h41q8 0 13.5 -5.5t5.5 -13.5v-168q0 -33 5 -52t13 -29.5t18 -13.5t20 -3q22 0 38 15.5t26 39.5t15 53.5t5 56.5q0 65 -19.5 120.5t-58.5 96.5t-97.5 64t-136.5 23
q-79 0 -143 -25t-109.5 -72t-70 -114t-24.5 -150q0 -56 17 -107.5t47.5 -94.5t72.5 -76.5t93 -54.5q7 -3 10.5 -9.5t1.5 -13.5l-30 -82q-3 -8 -9 -11.5t-14 -0.5q-69 23 -127.5 67t-101.5 103t-67.5 130.5t-24.5 149.5zM396 203q0 -42 22 -63.5t51 -21.5q31 0 51 25.5
t20 60.5q0 38 -20.5 62t-53.5 24q-32 0 -51 -25.5t-19 -61.5z" />
    <glyph glyph-name="A" unicode="A" horiz-adv-x="662" 
d="M13 0q-11 0 -16.5 8t-0.5 18l313 673q5 11 17 11h10q11 0 17 -11l313 -673q5 -10 -0.5 -18t-16.5 -8h-111q-14 0 -21 5.5t-14 19.5l-36 79h-272l-36 -80q-4 -9 -12.5 -16.5t-23.5 -7.5h-110zM407 240l-76 165h-1l-75 -165h152z" />
    <glyph glyph-name="B" unicode="B" horiz-adv-x="612" 
d="M86 681q0 8 5.5 13.5t13.5 5.5h233q44 0 83 -14.5t68.5 -39.5t46.5 -59t17 -73q0 -29 -11.5 -53.5t-29 -45t-37.5 -35.5t-38 -24q20 -8 43.5 -21.5t43.5 -33.5t33.5 -47t13.5 -61q0 -42 -17.5 -77.5t-47 -61t-69 -40t-84.5 -14.5h-248q-8 0 -13.5 5.5t-5.5 13.5v662z
M320 416q29 0 49.5 21t20.5 51t-20.5 49t-49.5 19h-78v-140h78zM333 143q29 0 50.5 21t21.5 52q0 15 -7.5 28t-19 22t-26 14.5t-29.5 5.5h-81v-143h91z" />
    <glyph glyph-name="C" unicode="C" horiz-adv-x="673" 
d="M35 349q0 75 28.5 141t77 114.5t114.5 77t141 28.5t133 -23t109 -70q15 -14 1 -28l-78 -81q-5 -5 -12.5 -5t-12.5 5q-28 25 -63 38t-72 13q-42 0 -78 -16.5t-62.5 -44.5t-41 -65.5t-14.5 -79.5t15 -78.5t41 -64.5t62.5 -44t78.5 -16q35 0 71 12.5t63 35.5q5 5 13 4.5
t13 -5.5l78 -83q5 -5 4.5 -13.5t-5.5 -13.5q-51 -50 -113.5 -73.5t-129.5 -23.5q-75 0 -141 28t-114.5 76.5t-77 114t-28.5 140.5z" />
    <glyph glyph-name="D" unicode="D" horiz-adv-x="735" 
d="M86 681q0 8 5 13.5t13 5.5h244q72 0 136 -27.5t112 -75t75.5 -111t27.5 -135.5q0 -73 -27.5 -137t-75.5 -111.5t-112 -75t-136 -27.5h-244q-8 0 -13 5.5t-5 13.5v662zM338 148q42 0 78 15.5t62 43t40.5 64.5t14.5 80q0 42 -14.5 79t-40.5 64.5t-62 43t-78 15.5h-96v-405
h96z" />
    <glyph glyph-name="E" unicode="E" horiz-adv-x="586" 
d="M86 681q0 8 5.5 13.5t13.5 5.5h414q8 0 13.5 -5.5t5.5 -13.5v-109q0 -8 -5.5 -13.5t-13.5 -5.5h-277v-124h228q8 0 13.5 -5.5t5.5 -13.5v-109q0 -8 -5.5 -13.5t-13.5 -5.5h-228v-135h277q8 0 13.5 -5.5t5.5 -13.5v-109q0 -8 -5.5 -13.5t-13.5 -5.5h-414q-8 0 -13.5 5.5
t-5.5 13.5v662z" />
    <glyph glyph-name="F" unicode="F" horiz-adv-x="563" 
d="M86 681q0 8 5.5 13.5t13.5 5.5h414q8 0 13.5 -5.5t5.5 -13.5v-109q0 -8 -5.5 -13.5t-13.5 -5.5h-277v-144h228q8 0 13.5 -5.5t5.5 -13.5v-109q0 -8 -5.5 -13.5t-13.5 -5.5h-228v-243q0 -8 -5.5 -13.5t-13.5 -5.5h-118q-8 0 -13.5 5.5t-5.5 13.5v662z" />
    <glyph glyph-name="G" unicode="G" horiz-adv-x="702" 
d="M36 349q0 75 28 140.5t77 114.5t114 77t140 28q63 0 128 -24.5t116 -69.5q7 -5 7.5 -13t-5.5 -14l-79 -84q-13 -11 -27 -1q-29 26 -61.5 37t-69.5 11q-41 0 -77 -16t-62.5 -43.5t-42 -64.5t-15.5 -78t15.5 -77t42.5 -63t63 -43t77 -16q22 0 44 3.5t45 12.5v58h-63
q-8 0 -13.5 5t-5.5 13v99q0 19 19 19h201q8 0 13 -5.5t5 -13.5l1 -269q0 -10 -8 -16q-31 -19 -70 -33q-33 -12 -78.5 -22t-99.5 -10q-75 0 -140 28t-114 76t-77 113.5t-28 140.5z" />
    <glyph glyph-name="H" unicode="H" horiz-adv-x="772" 
d="M86 681q0 8 5.5 13.5t13.5 5.5h119q8 0 13.5 -5.5t5.5 -13.5v-252h286v252q0 8 5.5 13.5t13.5 5.5h119q8 0 13.5 -5.5t5.5 -13.5v-662q0 -8 -5.5 -13.5t-13.5 -5.5h-119q-8 0 -13.5 5.5t-5.5 13.5v263h-286v-263q0 -8 -5.5 -13.5t-13.5 -5.5h-119q-8 0 -13.5 5.5
t-5.5 13.5v662z" />
    <glyph glyph-name="I" unicode="I" horiz-adv-x="330" 
d="M86 681q0 8 5.5 13.5t13.5 5.5h120q8 0 13.5 -5.5t5.5 -13.5v-662q0 -8 -5.5 -13.5t-13.5 -5.5h-120q-8 0 -13.5 5.5t-5.5 13.5v662z" />
    <glyph glyph-name="J" unicode="J" horiz-adv-x="424" 
d="M-14 63q-8 13 2 25l68 67q6 5 13.5 5.5t13.5 -5.5q9 -9 20 -15t31 -6q21 0 40 19t19 57v471q0 8 5.5 13.5t13.5 5.5h122q8 0 13.5 -5.5t5.5 -13.5v-472q0 -52 -17 -93t-46.5 -69t-68.5 -42.5t-83 -14.5q-33 0 -58.5 8.5t-44 20t-31 24t-18.5 20.5z" />
    <glyph glyph-name="K" unicode="K" horiz-adv-x="673" 
d="M86 676q0 10 6.5 17t17.5 7h117q10 0 17 -7t7 -17v-263l222 277q3 4 8.5 7t10.5 3h126q14 0 20 -13t-2 -24l-234 -293l255 -332q8 -11 1.5 -24t-20.5 -13h-138q-5 0 -10.5 2.5t-7.5 4.5l-231 314v-298q0 -10 -7 -17t-17 -7h-117q-11 0 -17.5 7t-6.5 17v652z" />
    <glyph glyph-name="L" unicode="L" horiz-adv-x="511" 
d="M86 681q0 8 5.5 13.5t13.5 5.5h119q8 0 13.5 -5.5t5.5 -13.5v-534h238q8 0 13.5 -5.5t5.5 -13.5v-109q0 -8 -5.5 -13.5t-13.5 -5.5h-376q-8 0 -13.5 5.5t-5.5 13.5v662z" />
    <glyph glyph-name="M" unicode="M" horiz-adv-x="878" 
d="M155 694q1 7 6.5 11.5t11.5 4.5h16q4 0 9.5 -2.5t7.5 -7.5l232 -432h2l232 432q2 5 7.5 7.5t9.5 2.5h16q6 0 11.5 -4.5t6.5 -11.5l113 -672q2 -10 -4 -16t-15 -6h-118q-7 0 -12.5 5t-6.5 11l-45 309h-2l-168 -324q-2 -5 -7.5 -8t-9.5 -3h-18q-5 0 -10 3t-7 8l-169 324h-2
l-44 -309q-1 -6 -6 -11t-13 -5h-118q-9 0 -15 6t-4 16z" />
    <glyph glyph-name="N" unicode="N" horiz-adv-x="773" 
d="M85 692q0 8 5.5 13t13.5 5h25l399 -384h1v355q0 8 5.5 13.5t13.5 5.5h120q8 0 13.5 -5.5t5.5 -13.5v-673q0 -8 -5.5 -13t-13.5 -5h-16q-2 0 -6.5 1.5t-6.5 3.5l-395 397h-1v-373q0 -8 -5.5 -13.5t-13.5 -5.5h-119q-8 0 -13.5 5.5t-5.5 13.5z" />
    <glyph glyph-name="O" unicode="O" horiz-adv-x="789" 
d="M35 349q0 75 28 141t76.5 114.5t114 77t140.5 28.5t140.5 -28.5t114.5 -77t77 -114.5t28 -141t-28 -140.5t-77 -114t-114.5 -76.5t-140.5 -28t-140.5 28t-114 76.5t-76.5 114t-28 140.5zM195 349q0 -41 16 -77t43 -63t63 -43t77 -16t77.5 16t63.5 43t43 63t16 77
t-16 77.5t-43 64t-63.5 43.5t-77.5 16t-77 -16t-63 -43.5t-43 -64t-16 -77.5z" />
    <glyph glyph-name="P" unicode="P" horiz-adv-x="589" 
d="M86 681q0 8 5.5 13.5t13.5 5.5h241q46 0 87 -17.5t71.5 -47.5t48 -70.5t17.5 -85.5q0 -47 -17.5 -87.5t-48 -71.5t-71 -48.5t-86.5 -17.5h-105v-235q0 -8 -5.5 -13.5t-13.5 -5.5h-118q-8 0 -13.5 5.5t-5.5 13.5v662zM337 400q32 0 55.5 22.5t23.5 56.5q0 32 -23.5 53
t-55.5 21h-95v-153h95z" />
    <glyph glyph-name="Q" unicode="Q" horiz-adv-x="792" 
d="M35 349q0 75 28 141t76.5 114.5t114 77t140.5 28.5t140.5 -28.5t114.5 -77t77 -114.5t28 -141q0 -49 -13.5 -95t-38 -86.5t-58.5 -74.5t-75 -59l129 -202q6 -11 1 -20.5t-17 -9.5h-135q-6 0 -10 3t-6 7l-106 179q-9 -1 -17.5 -1h-13.5q-75 0 -140.5 28t-114 76.5
t-76.5 114t-28 140.5zM195 349q0 -41 16 -77t43 -63t63 -43t77 -16t77.5 16t63.5 43t43 63t16 77t-16 77.5t-43 64t-63.5 43.5t-77.5 16t-77 -16t-63 -43.5t-43 -64t-16 -77.5z" />
    <glyph glyph-name="R" unicode="R" horiz-adv-x="670" 
d="M86 681q0 8 5.5 13.5t13.5 5.5h299q45 0 84.5 -17t69.5 -46.5t47 -68.5t17 -84q0 -69 -41 -122t-107 -79l137 -254q5 -10 0.5 -19.5t-17.5 -9.5h-133q-6 0 -10 3t-6 6l-133 265h-69v-255q0 -8 -5.5 -13.5t-13.5 -5.5h-119q-8 0 -13.5 5.5t-5.5 13.5v662zM391 401
q31 0 53.5 24t22.5 56t-22.5 54t-53.5 22h-148v-156h148z" />
    <glyph glyph-name="S" unicode="S" horiz-adv-x="548" 
d="M51 67q-8 8 -9.5 12.5t4.5 15.5l47 83q6 10 17.5 10t16.5 -4q1 -1 14.5 -9.5t33.5 -18.5t44.5 -18.5t49.5 -8.5q30 0 49.5 17t19.5 43q0 32 -26 56.5t-77 44.5q-32 13 -66.5 32t-63 46t-46.5 62.5t-18 80.5q0 37 14.5 73t43.5 64t72 45t101 17q39 0 73 -8.5t61.5 -20.5
t48 -25t31.5 -21q9 -5 9 -16t-3 -16l-51 -77q-5 -8 -16 -13t-18 0l-17.5 11.5t-34.5 20.5t-44 19.5t-47 8.5q-27 0 -45 -15.5t-18 -35.5q0 -28 24.5 -50.5t84.5 -46.5q29 -12 64.5 -30t66 -45t51 -64.5t20.5 -88.5q0 -39 -16 -76t-46.5 -66t-74.5 -47t-99 -18q-49 0 -87 9
t-65.5 21t-45.5 25t-27 22z" />
    <glyph glyph-name="T" unicode="T" 
d="M176 553h-143q-8 0 -13.5 5.5t-5.5 13.5v109q0 8 5.5 13.5t13.5 5.5h444q8 0 13.5 -5.5t5.5 -13.5v-109q0 -8 -5.5 -13.5t-13.5 -5.5h-143v-534q0 -8 -5.5 -13.5t-13.5 -5.5h-120q-8 0 -13.5 5.5t-5.5 13.5v534z" />
    <glyph glyph-name="U" unicode="U" horiz-adv-x="721" 
d="M76 681q0 8 5.5 13.5t13.5 5.5h123q8 0 13.5 -5.5t5.5 -13.5v-405q0 -26 9 -49t25.5 -40t39 -27t49.5 -10t50 10t39.5 27t26 40t9.5 49v405q0 8 5.5 13.5t13.5 5.5h123q8 0 13.5 -5.5t5.5 -13.5v-413q0 -57 -22.5 -107.5t-61.5 -88.5t-91 -60t-111 -22t-110.5 22t-90 60
t-61 88.5t-22.5 107.5v413z" />
    <glyph glyph-name="V" unicode="V" horiz-adv-x="662" 
d="M-4 674q-5 10 0.5 18t16.5 8h133q6 0 10.5 -3.5t6.5 -7.5l165 -365h6l165 365q2 4 6.5 7.5t10.5 3.5h133q11 0 16.5 -8t0.5 -18l-314 -673q-6 -11 -17 -11h-10q-12 0 -17 11z" />
    <glyph glyph-name="W" unicode="W" horiz-adv-x="896" 
d="M24 676q-3 11 2 17.5t16 6.5h117q6 0 11 -4.5t7 -9.5l86 -339h4l155 352q5 11 17 11h18q13 0 17 -11l155 -352h4l86 339q2 5 7 9.5t11 4.5h117q11 0 16 -6.5t2 -17.5l-189 -672q-4 -14 -18 -14h-16q-12 0 -17 11l-183 409h-3l-182 -409q-6 -11 -17 -11h-16q-6 0 -11 4
t-7 10z" />
    <glyph glyph-name="X" unicode="X" horiz-adv-x="655" 
d="M234 359l-202 313q-6 10 -1 19t18 9h146q5 0 9.5 -3t6.5 -6l115 -186h1l117 186q2 3 6.5 6t9.5 3h146q13 0 18.5 -9t-1.5 -19l-203 -313l210 -331q7 -11 1.5 -19.5t-17.5 -8.5h-139q-5 0 -10 2.5t-7 6.5l-131 202h-2l-128 -202q-2 -3 -6.5 -6t-10.5 -3h-139
q-13 0 -18.5 9t1.5 19z" />
    <glyph glyph-name="Y" unicode="Y" horiz-adv-x="590" 
d="M215 337l-221 334q-6 10 -1 19.5t17 9.5h130q6 0 10 -3t6 -6l139 -205l139 205q2 3 5.5 6t10.5 3h130q12 0 17 -9.5t-1 -19.5l-224 -333v-319q0 -8 -5.5 -13.5t-13.5 -5.5h-119q-8 0 -13.5 5.5t-5.5 13.5v318z" />
    <glyph glyph-name="Z" unicode="Z" horiz-adv-x="542" 
d="M23 37l266 514v2h-218q-8 0 -13.5 5.5t-5.5 13.5v109q0 8 5.5 13.5t13.5 5.5h425q8 0 13.5 -5.5t5.5 -13.5v-13l-257 -519v-2h218q8 0 13.5 -5.5t5.5 -13.5v-109q0 -8 -5.5 -13.5t-13.5 -5.5h-434q-8 0 -13.5 5.5t-5.5 13.5v18z" />
    <glyph glyph-name="bracketleft" unicode="[" horiz-adv-x="361" 
d="M325 -183q8 0 13.5 -5t5.5 -13v-81q0 -8 -5.5 -13.5t-13.5 -5.5h-246q-8 0 -13.5 5.5t-5.5 13.5v963q0 8 5.5 13.5t13.5 5.5h246q8 0 13.5 -5.5t5.5 -13.5v-80q0 -8 -5.5 -13.5t-13.5 -5.5h-127v-765h127z" />
    <glyph glyph-name="backslash" unicode="\" horiz-adv-x="372" 
d="M18 675q-3 11 2 18t16 7h98q14 0 18 -13l196 -662q3 -11 -2.5 -18t-15.5 -7h-99q-5 0 -10.5 4t-7.5 9z" />
    <glyph glyph-name="bracketright" unicode="]" horiz-adv-x="361" 
d="M163 -183v765h-127q-8 0 -13.5 5.5t-5.5 13.5v80q0 8 5.5 13.5t13.5 5.5h246q8 0 13.5 -5.5t5.5 -13.5v-963q0 -8 -5.5 -13.5t-13.5 -5.5h-246q-8 0 -13.5 5.5t-5.5 13.5v81q0 8 5.5 13t13.5 5h127z" />
    <glyph glyph-name="asciicircum" unicode="^" horiz-adv-x="524" 
d="M50 378q-12 0 -17 9t1 19l211 298q2 4 7 7t10 3h5q5 0 10 -3t7 -7l206 -298q6 -10 1 -19t-17 -9h-87q-3 0 -7.5 2.5t-6.5 5.5l-110 149l-112 -149q-2 -3 -6.5 -5.5t-7.5 -2.5h-87v0z" />
    <glyph glyph-name="underscore" unicode="_" horiz-adv-x="431" 
d="M17 -29q0 19 19 19h359q19 0 19 -19v-51q0 -8 -5.5 -13t-13.5 -5h-359q-8 0 -13.5 5t-5.5 13v51v0z" />
    <glyph glyph-name="grave" unicode="`" horiz-adv-x="302" 
d="M50 594q-6 4 -9 11.5t3 18.5l34 59q4 7 12.5 6.5t13.5 -3.5l170 -104q4 -3 6.5 -8t-0.5 -11l-21 -42q-4 -8 -10.5 -11.5t-16.5 2.5z" />
    <glyph glyph-name="a" unicode="a" horiz-adv-x="429" 
d="M27 122q0 58 39 96t108 38q17 0 30.5 -2.5t24.5 -5.5q12 -4 22 -8q0 29 -9 44t-45 15q-10 0 -23.5 -1t-27 -3.5l-26.5 -5t-23 -5.5q-11 -4 -16.5 3t-7.5 18l-9 63q-2 13 3 19t12 8q3 1 17 3.5t33 5t41 4.5t42 2q93 0 131 -41t38 -129v-221q0 -8 -5.5 -13.5t-13.5 -5.5
h-44q-5 0 -9.5 2.5t-8.5 10.5l-14 27q-17 -16 -45.5 -33t-75.5 -17q-30 0 -55 9.5t-43.5 27t-29 41.5t-10.5 54zM157 132q0 -18 12.5 -31t30.5 -13t31 13t13 31q-1 17 -13.5 29.5t-30.5 12.5t-30.5 -12.5t-12.5 -29.5z" />
    <glyph glyph-name="b" unicode="b" 
d="M54 681q0 8 5.5 13.5t13.5 5.5h111q8 0 13.5 -5.5t5.5 -13.5v-290q9 5 33 12t50 7q40 0 76 -13t63.5 -39t43.5 -65.5t16 -92.5q0 -43 -15 -81.5t-41.5 -67t-63 -45t-78.5 -16.5q-33 0 -58 9.5t-42 21.5q-20 14 -34 32l-12 -33q-3 -8 -8 -14t-13 -6h-47q-8 0 -13.5 5.5
t-5.5 13.5v662zM187 201q0 -35 22.5 -58.5t57.5 -23.5t58 23.5t23 58.5q0 34 -23 57t-58 23t-57.5 -23t-22.5 -57z" />
    <glyph glyph-name="c" unicode="c" horiz-adv-x="420" 
d="M23 200q0 44 17.5 82.5t47.5 67t69 44.5t82 16q48 0 84.5 -18.5t65.5 -53.5q5 -7 3.5 -14.5t-8.5 -13.5l-60 -57q-4 -4 -11 -3t-11 5q-11 11 -26 18.5t-32 7.5q-33 0 -56.5 -24t-23.5 -57q0 -34 22.5 -57.5t55.5 -23.5q26 0 41 9.5t27 21.5t22 4l60 -52q7 -6 9.5 -13
t-2.5 -15q-28 -42 -67.5 -63t-93.5 -21q-43 0 -82 16t-68.5 44t-47 66.5t-17.5 83.5z" />
    <glyph glyph-name="d" unicode="d" 
d="M25 200q0 53 16 92.5t43.5 65.5t63.5 39t76 13q26 0 50 -7t33 -12v290q0 8 5.5 13.5t13.5 5.5h111q8 0 13.5 -5.5t5.5 -13.5v-662q0 -8 -5.5 -13.5t-13.5 -5.5h-47q-8 0 -13 6t-8 14l-12 33q-15 -18 -34 -32q-17 -12 -42 -21.5t-58 -9.5q-42 0 -78.5 16.5t-63 45
t-41.5 67t-15 81.5zM162 201q0 -35 23 -58.5t58 -23.5t57.5 23.5t22.5 58.5q0 34 -22.5 57t-57.5 23t-58 -23t-23 -57z" />
    <glyph glyph-name="e" unicode="e" horiz-adv-x="439" 
d="M24 200q0 42 15.5 80.5t43.5 67t66 45.5t82 17q38 0 72.5 -14t60.5 -39t41.5 -59.5t15.5 -75.5q0 -5 -0.5 -13.5t-1.5 -13.5q-1 -8 -6.5 -12.5t-12.5 -4.5h-240q1 -10 6 -21.5t14 -21.5t23 -16.5t34 -6.5q19 0 38.5 7.5t31.5 16.5q15 12 25 0l50 -60q5 -6 5.5 -14
t-6.5 -15q-26 -26 -63 -41.5t-85 -15.5q-45 0 -83 16.5t-66 45t-44 67t-16 81.5zM280 256q-2 20 -17.5 33.5t-35.5 13.5t-35.5 -13.5t-18.5 -33.5h107z" />
    <glyph glyph-name="f" unicode="f" horiz-adv-x="356" 
d="M75 273h-21q-8 0 -13.5 5.5t-5.5 13.5v89q0 19 19 19h21v92q0 52 15.5 93t42.5 68.5t64 42t81 14.5q19 0 38.5 -3.5t36 -9.5t29 -12.5t18.5 -12.5q5 -4 6 -11t-2 -12l-42 -83q-2 -5 -9.5 -7.5t-13.5 0.5q-10 5 -23.5 10.5t-28.5 5.5q-32 0 -45.5 -23t-13.5 -60v-92h92
q19 0 19 -19v-89q0 -8 -5.5 -13.5t-13.5 -5.5h-92v-254q0 -8 -5.5 -13.5t-13.5 -5.5h-115q-8 0 -13.5 5.5t-5.5 13.5v254z" />
    <glyph glyph-name="g" unicode="g" horiz-adv-x="465" 
d="M11 36q0 29 12.5 50t27.5 35q18 16 40 25q-9 10 -15 23q-5 11 -9.5 28t-4.5 40q0 35 14 66.5t38 55t56 37.5t68 14h189q19 0 19 -19v-41q0 -12 -11 -17l-58 -21q10 -10 19 -24q7 -12 13 -30t6 -43q0 -27 -12 -54t-34.5 -48.5t-54.5 -35t-72 -13.5h-72q-16 0 -24.5 -7.5
t-8.5 -19.5q0 -14 10.5 -20.5t21.5 -6.5h120q35 0 66.5 -10.5t55 -29.5t37 -46t13.5 -60q0 -36 -13 -67.5t-40.5 -55.5t-70 -37.5t-101.5 -13.5q-58 0 -98 12.5t-64.5 32t-35.5 43.5t-11 48q0 22 8 39t18.5 29t20.5 19t14 9v3q-5 1 -17.5 7.5t-26 19.5t-23.5 33.5t-10 50.5z
M189 228q0 -23 15 -37.5t38 -14.5t38 14.5t15 37.5t-15 37.5t-38 14.5t-38 -14.5t-15 -37.5zM164 -146q0 -21 18 -34t54 -13q38 0 55 13.5t17 33.5q0 16 -15.5 29t-56.5 13q-27 0 -49.5 -10t-22.5 -32z" />
    <glyph glyph-name="h" unicode="h" horiz-adv-x="530" 
d="M54 681q0 8 5.5 13.5t13.5 5.5h111q8 0 13.5 -5.5t5.5 -13.5v-294q46 23 93 23t83 -17t60 -46t36 -67t12 -80v-181q0 -8 -5.5 -13.5t-13.5 -5.5h-106q-8 0 -13.5 5.5t-5.5 13.5v183q0 33 -20 56t-53 23q-12 0 -24 -4t-21.5 -13t-15.5 -24t-6 -38v-183q0 -10 -4.5 -14.5
t-17.5 -4.5h-108q-8 0 -13.5 5.5t-5.5 13.5v662z" />
    <glyph glyph-name="i" unicode="i" horiz-adv-x="256" 
d="M127 471q-33 0 -56 23t-23 56t23 56.5t56 23.5t56.5 -23.5t23.5 -56.5t-23.5 -56t-56.5 -23zM54 381q0 8 5.5 13.5t13.5 5.5h110q8 0 13.5 -5.5t5.5 -13.5v-362q0 -8 -5.5 -13.5t-13.5 -5.5h-110q-8 0 -13.5 5.5t-5.5 13.5v362z" />
    <glyph glyph-name="j" unicode="j" horiz-adv-x="257" 
d="M128 471q-33 0 -56 23t-23 56t23 56.5t56 23.5t56.5 -23.5t23.5 -56.5t-23.5 -56t-56.5 -23zM54 381q0 8 5.5 13.5t13.5 5.5h111q8 0 13.5 -5.5t5.5 -13.5v-473q0 -53 -15.5 -93.5t-42.5 -68t-64.5 -42t-80.5 -14.5q-20 0 -39 3.5t-35.5 9.5t-29 12.5t-18.5 12.5
q-5 4 -6 11t2 12l42 83q2 5 9.5 7.5t13.5 -0.5q10 -5 23.5 -10.5t28.5 -5.5q34 0 48.5 23t14.5 60v473z" />
    <glyph glyph-name="k" unicode="k" horiz-adv-x="511" 
d="M54 681q0 8 5.5 13.5t13.5 5.5h111q8 0 13.5 -5.5t5.5 -13.5v-433l121 140q5 5 10.5 8.5t14.5 3.5h112q13 0 18 -10t-3 -21l-132 -153l160 -186q8 -10 3 -20t-18 -10h-135q-3 0 -8 2.5t-7 5.5l-136 174v-163q0 -8 -5.5 -13.5t-13.5 -5.5h-111q-8 0 -13.5 5.5t-5.5 13.5
v662z" />
    <glyph glyph-name="l" unicode="l" horiz-adv-x="256" 
d="M54 681q0 8 5.5 13.5t13.5 5.5h110q8 0 13.5 -5.5t5.5 -13.5v-662q0 -8 -5.5 -13.5t-13.5 -5.5h-110q-8 0 -13.5 5.5t-5.5 13.5v662z" />
    <glyph glyph-name="m" unicode="m" horiz-adv-x="786" 
d="M54 381q0 19 19 19h46q11 0 17 -11l17 -41q9 10 22.5 21t30.5 20t37.5 15t44.5 6q42 0 73 -15.5t58 -45.5q9 9 22 19.5t30 19.5t38.5 15.5t47.5 6.5q46 0 81 -17t58 -45.5t34.5 -66.5t11.5 -81v-181q0 -8 -5.5 -13.5t-13.5 -5.5h-106q-8 0 -13.5 5.5t-5.5 13.5v187
q0 30 -16 52.5t-51 22.5q-26 0 -46.5 -19.5t-20.5 -48.5v-194q0 -8 -5.5 -13.5t-13.5 -5.5h-96q-8 0 -13.5 5.5t-5.5 13.5v187q0 30 -14.5 52.5t-48.5 22.5q-30 0 -50 -19.5t-20 -50.5v-192q0 -8 -5.5 -13.5t-13.5 -5.5h-105q-8 0 -13.5 5.5t-5.5 13.5v362z" />
    <glyph glyph-name="n" unicode="n" horiz-adv-x="528" 
d="M54 381q0 8 5.5 13.5t13.5 5.5h47q5 0 10.5 -3.5t7.5 -8.5l16 -40q8 9 21 20t30.5 20t40 15.5t49.5 6.5q46 0 81.5 -16.5t59.5 -45t36.5 -66.5t12.5 -81v-182q0 -8 -5.5 -13.5t-13.5 -5.5h-107q-8 0 -13.5 5.5t-5.5 13.5v187q0 30 -17 52.5t-51 22.5q-30 0 -53 -19.5
t-23 -50.5v-192q0 -7 -3.5 -13t-14.5 -6h-105q-8 0 -13.5 5.5t-5.5 13.5v362z" />
    <glyph glyph-name="o" unicode="o" horiz-adv-x="462" 
d="M23 201q0 42 16.5 80t45 66.5t66 45.5t80.5 17t80.5 -17t66 -45.5t45 -66.5t16.5 -80q0 -43 -16.5 -81.5t-45 -67t-66 -45.5t-80.5 -17t-80.5 17t-66 45.5t-45 67t-16.5 81.5zM152 201q0 -34 23 -58t56 -24t56 24t23 58q0 33 -23 56.5t-56 23.5t-56 -23.5t-23 -56.5z" />
    <glyph glyph-name="p" unicode="p" 
d="M203 -281q0 -8 -5.5 -13.5t-13.5 -5.5h-111q-8 0 -13.5 5.5t-5.5 13.5v662q0 8 5.5 13.5t13.5 5.5h47q8 0 13 -6t8 -14l12 -33q14 17 34 31q17 12 42 22t58 10q42 0 78.5 -16.5t63 -45t41.5 -67t15 -81.5q0 -53 -16 -92.5t-43.5 -65.5t-63.5 -39t-76 -13q-26 0 -50 7
t-33 12v-290zM187 199q0 -34 22.5 -57t57.5 -23t58 23t23 57q0 35 -23 58.5t-58 23.5t-57.5 -23.5t-22.5 -58.5z" />
    <glyph glyph-name="q" unicode="q" 
d="M25 200q0 43 15 81.5t41.5 67t63 45t78.5 16.5q33 0 58 -10t42 -22q19 -14 34 -31l12 33q3 8 8 14t13 6h47q8 0 13.5 -5.5t5.5 -13.5v-662q0 -8 -5.5 -13.5t-13.5 -5.5h-111q-8 0 -13.5 5.5t-5.5 13.5v290q-9 -5 -33 -12t-50 -7q-40 0 -76 13t-63.5 39t-43.5 65.5
t-16 92.5zM162 199q0 -34 23 -57t58 -23t57.5 23t22.5 57q0 35 -22.5 58.5t-57.5 23.5t-58 -23.5t-23 -58.5z" />
    <glyph glyph-name="r" unicode="r" horiz-adv-x="345" 
d="M54 381q0 8 5.5 13.5t13.5 5.5h47q8 0 12 -3.5t6 -8.5l18 -44q7 11 18 22.5t24.5 21.5t30 16t36.5 6q21 0 38 -3.5t28 -9.5t15 -13.5t-1 -16.5l-49 -80q-3 -5 -8.5 -8.5t-13.5 -0.5q-4 2 -10.5 3.5t-13.5 1.5q-23 0 -38 -15.5t-15 -41.5v-207q0 -19 -22 -19h-102
q-8 0 -13.5 5.5t-5.5 13.5v362z" />
    <glyph glyph-name="s" unicode="s" horiz-adv-x="371" 
d="M40 23q-5 5 -8 9.5t1 11.5l35 69q2 5 8.5 8t12.5 0q14 -8 29 -13q13 -5 28.5 -9t32.5 -4q8 0 13.5 4.5t5.5 13.5q0 8 -9.5 18t-47.5 24q-59 20 -85.5 53.5t-26.5 80.5q0 25 9 47t28.5 38.5t48.5 26t70 9.5q48 0 82 -10t51 -21q7 -5 11 -11t-1 -14l-37 -68
q-2 -5 -8.5 -6.5t-12.5 0.5q-14 6 -28 11q-12 5 -27.5 8.5t-29.5 3.5q-22 0 -22 -14q0 -8 9.5 -15.5t35.5 -16.5q30 -11 55.5 -22.5t43.5 -28t28 -38t10 -51.5q0 -26 -10.5 -49.5t-31.5 -40.5t-53 -27t-74 -10q-50 0 -85.5 10.5t-50.5 22.5z" />
    <glyph glyph-name="t" unicode="t" horiz-adv-x="344" 
d="M70 273h-26q-8 0 -13 5.5t-5 13.5v89q0 8 5 13.5t13 5.5h26v111q0 8 5.5 13.5t13.5 5.5h107q8 0 13 -5.5t5 -13.5v-111h74q19 0 19 -19v-89q0 -8 -5.5 -13.5t-13.5 -5.5h-74v-125q0 -17 9 -20.5t18 -3.5q11 0 21 2.5l18 4.5q17 3 22 -13l22 -83q2 -7 -1.5 -14t-11.5 -9
q-21 -7 -42 -11q-18 -5 -39 -8t-40 -3q-57 0 -88.5 35t-31.5 104v144z" />
    <glyph glyph-name="u" unicode="u" 
d="M45 381q0 8 5.5 13.5t13.5 5.5h107q8 0 13.5 -5.5t5.5 -13.5v-185q0 -31 16.5 -54t47.5 -23q29 0 44.5 22.5t15.5 48.5v191q0 12 6.5 15.5t14.5 3.5h102q8 0 13.5 -5.5t5.5 -13.5v-362q0 -8 -5.5 -13.5t-13.5 -5.5h-47q-7 0 -12 4.5t-7 9.5l-15 37l-21.5 -20t-27 -20
t-36.5 -15t-50 -6q-45 0 -78 17t-54.5 45.5t-32.5 66.5t-11 81v181z" />
    <glyph glyph-name="v" unicode="v" horiz-adv-x="426" 
d="M4 373q-5 10 0.5 18.5t16.5 8.5h112q12 0 18 -11l59 -136h3l63 136q5 9 10.5 10t16.5 1h101q11 0 16.5 -8.5t0.5 -18.5l-190 -373q-2 -4 -7 -7t-10 -3h-5q-5 0 -10 3t-7 7z" />
    <glyph glyph-name="w" unicode="w" horiz-adv-x="619" 
d="M10 375q-4 10 1.5 17.5t16.5 7.5h95q5 0 10.5 -3.5t7.5 -8.5l52 -137h1l95 151q2 2 5.5 5t10.5 3h10q11 0 15 -8l96 -151h1l51 137q5 12 20 12h93q11 0 16.5 -7.5t1.5 -17.5l-133 -373q-2 -5 -7.5 -8.5t-10.5 -3.5h-4q-4 0 -9 2.5t-7 5.5l-129 200h-1l-127 -200
q-6 -8 -16 -8h-5q-5 0 -10.5 3.5t-6.5 8.5z" />
    <glyph glyph-name="x" unicode="x" horiz-adv-x="469" 
d="M34 0q-13 0 -17.5 10t2.5 20l130 174l-126 166q-8 10 -3 20t18 10h123q12 0 16 -8l56 -82h3l57 82q2 3 5 5.5t11 2.5h123q13 0 18 -10t-3 -20l-126 -165l127 -175q7 -10 2 -20t-17 -10h-121q-5 0 -9 3t-6 6l-61 86h-3l-33 -45l-31 -42q-6 -8 -16 -8h-119v0z" />
    <glyph glyph-name="y" unicode="y" horiz-adv-x="465" 
d="M6 374q-5 10 0.5 18t16.5 8h114q11 0 17 -11l77 -186h2l79 186q4 11 17 11h113q11 0 16.5 -8t0.5 -18l-306 -662q-2 -5 -6.5 -8.5t-10.5 -3.5h-112q-11 0 -16.5 8t-0.5 19l149 314z" />
    <glyph glyph-name="z" unicode="z" horiz-adv-x="369" 
d="M28 29l117 240v2h-89q-8 0 -13 5.5t-5 13.5v91q0 8 5 13.5t13 5.5h271q11 0 16.5 -8t0.5 -19l-126 -243v-2h89q19 0 19 -19v-90q0 -8 -5.5 -13.5t-13.5 -5.5h-260q-8 0 -13.5 5.5t-5.5 13.5v10z" />
    <glyph glyph-name="braceleft" unicode="{" horiz-adv-x="393" 
d="M101 85q0 17 -7.5 28.5t-18 18.5t-22.5 11t-21 6q-6 1 -10.5 6.5t-4.5 11.5v58q0 6 4 11t9 7q19 7 35 17q14 8 25 19.5t11 27.5v111q0 90 24.5 145.5t62 87t81 44t82.5 14.5q18 2 20 -17q2 -23 2.5 -42.5t2.5 -42.5q0 -6 -4.5 -11.5t-9.5 -7.5q-53 -14 -81.5 -55
t-28.5 -115v-91q0 -30 -13.5 -53.5t-29.5 -40.5q-18 -19 -42 -34v-4q10 -4 24.5 -13t28 -24t23 -35.5t9.5 -47.5v-94q0 -74 28.5 -115t81.5 -55q5 -2 9.5 -7.5t4.5 -11.5q-1 -26 -1.5 -44t-3.5 -41q-1 -8 -6.5 -13t-13.5 -4q-39 2 -82.5 14.5t-81 44t-62 87t-24.5 145.5v104
z" />
    <glyph glyph-name="bar" unicode="|" horiz-adv-x="174" 
d="M60 741q0 8 5.5 13.5t13.5 5.5h17q8 0 13 -5.5t5 -13.5v-1023q0 -8 -5.5 -13t-13.5 -5h-16q-8 0 -13.5 5t-5.5 13v1023z" />
    <glyph glyph-name="braceright" unicode="}" horiz-adv-x="393" 
d="M141 75q0 27 9.5 47.5t23 35.5t28 24t24.5 13v4q-25 15 -43 34q-16 17 -29 40.5t-13 53.5v91q0 74 -28.5 115t-81.5 55q-5 2 -9.5 7.5t-4.5 11.5q2 23 2.5 42.5t2.5 42.5q2 19 20 17q39 -2 82.5 -14.5t81 -44t62 -87t24.5 -145.5v-111q0 -16 10.5 -27.5t24.5 -19.5
q16 -10 36 -17q5 -2 9 -7t4 -11v-58q0 -6 -4.5 -11.5t-10.5 -6.5q-9 -2 -21 -6t-22.5 -11t-18 -18.5t-7.5 -28.5v-104q0 -90 -24.5 -145.5t-62 -87t-81 -44t-82.5 -14.5q-8 -1 -13.5 4t-6.5 13q-3 23 -3.5 41t-1.5 44q0 6 4.5 11.5t9.5 7.5q53 14 81.5 55t28.5 115v94z" />
    <glyph glyph-name="asciitilde" unicode="~" horiz-adv-x="526" 
d="M23 235q-5 5 -6 12t4 12q20 28 46 51q21 19 50 35t62 16q31 0 53.5 -12.5t44.5 -26.5l34 -21t39 -10q20 0 36.5 17t27.5 32q6 8 14 8t15 -7l58 -61q5 -5 6 -12.5t-4 -12.5q-20 -29 -45 -51q-21 -19 -49 -34.5t-60 -15.5q-38 0 -62.5 13.5t-49.5 30.5q-14 9 -28.5 16.5
t-31.5 7.5q-21 0 -37.5 -16.5t-26.5 -31.5q-6 -8 -14.5 -8.5t-14.5 6.5z" />
    <glyph glyph-name="uni00A0" unicode="&#xa0;" horiz-adv-x="221" 
 />
    <glyph glyph-name="Agrave" unicode="&#xc0;" horiz-adv-x="662" 
d="M13 0q-11 0 -16.5 8t-0.5 18l313 673q5 11 17 11h10q11 0 17 -11l313 -673q5 -10 -0.5 -18t-16.5 -8h-111q-14 0 -21 5.5t-14 19.5l-36 79h-272l-36 -80q-4 -9 -12.5 -16.5t-23.5 -7.5h-110zM407 240l-76 165h-1l-75 -165h152zM220 844q-6 4 -9 11.5t3 18.5l34 59
q4 7 12.5 6.5t13.5 -3.5l170 -104q4 -3 6.5 -8t-0.5 -11l-21 -42q-4 -8 -10.5 -11.5t-16.5 2.5z" />
    <glyph glyph-name="Aacute" unicode="&#xc1;" horiz-adv-x="662" 
d="M13 0q-11 0 -16.5 8t-0.5 18l313 673q5 11 17 11h10q11 0 17 -11l313 -673q5 -10 -0.5 -18t-16.5 -8h-111q-14 0 -21 5.5t-14 19.5l-36 79h-272l-36 -80q-4 -9 -12.5 -16.5t-23.5 -7.5h-110zM407 240l-76 165h-1l-75 -165h152zM260 762q-10 -6 -16.5 -2.5t-10.5 11.5
l-21 42q-3 6 -0.5 11t6.5 8l170 104q5 3 13.5 3.5t12.5 -6.5l34 -59q6 -11 3 -18.5t-9 -11.5z" />
    <glyph glyph-name="Acircumflex" unicode="&#xc2;" horiz-adv-x="662" 
d="M13 0q-11 0 -16.5 8t-0.5 18l313 673q5 11 17 11h10q11 0 17 -11l313 -673q5 -10 -0.5 -18t-16.5 -8h-111q-14 0 -21 5.5t-14 19.5l-36 79h-272l-36 -80q-4 -9 -12.5 -16.5t-23.5 -7.5h-110zM407 240l-76 165h-1l-75 -165h152zM232 762q-8 -5 -12.5 -3.5t-9.5 7.5l-33 47
q-4 5 -1 10.5t7 8.5l135 104q6 5 12.5 4t11.5 -4l138 -104q4 -3 6.5 -8t-0.5 -11l-34 -46q-9 -12 -21 -5l-99 58z" />
    <glyph glyph-name="Atilde" unicode="&#xc3;" horiz-adv-x="662" 
d="M13 0q-11 0 -16.5 8t-0.5 18l313 673q5 11 17 11h10q11 0 17 -11l313 -673q5 -10 -0.5 -18t-16.5 -8h-111q-14 0 -21 5.5t-14 19.5l-36 79h-272l-36 -80q-4 -9 -12.5 -16.5t-23.5 -7.5h-110zM407 240l-76 165h-1l-75 -165h152zM179 813q-5 4 -6.5 11t0.5 12q4 7 13.5 21
t23.5 28t32 24.5t38 10.5q18 0 31.5 -7.5t25.5 -16t24 -16t27 -7.5q12 0 22.5 11.5t15.5 19.5q4 6 10.5 7.5t14.5 -5.5l34 -26q14 -10 1 -29l-12.5 -19t-21.5 -26t-29.5 -23t-36.5 -10t-34.5 7.5t-27 16.5t-24 16.5t-24.5 7.5q-7 0 -12.5 -4t-10.5 -9.5t-9.5 -11.5l-7.5 -10
q-9 -9 -22 -1z" />
    <glyph glyph-name="Adieresis" unicode="&#xc4;" horiz-adv-x="662" 
d="M13 0q-11 0 -16.5 8t-0.5 18l313 673q5 11 17 11h10q11 0 17 -11l313 -673q5 -10 -0.5 -18t-16.5 -8h-111q-14 0 -21 5.5t-14 19.5l-36 79h-272l-36 -80q-4 -9 -12.5 -16.5t-23.5 -7.5h-110zM407 240l-76 165h-1l-75 -165h152zM463 768q-29 0 -49.5 21t-20.5 50
t20.5 49.5t49.5 20.5t50 -20.5t21 -49.5t-21 -50t-50 -21zM198 768q-29 0 -49.5 21t-20.5 50t20.5 49.5t49.5 20.5t50 -20.5t21 -49.5t-21 -50t-50 -21z" />
    <glyph glyph-name="Amacron" unicode="&#x100;" horiz-adv-x="662" 
d="M13 0q-11 0 -16.5 8t-0.5 18l313 673q5 11 17 11h10q11 0 17 -11l313 -673q5 -10 -0.5 -18t-16.5 -8h-111q-14 0 -21 5.5t-14 19.5l-36 79h-272l-36 -80q-4 -9 -12.5 -16.5t-23.5 -7.5h-110zM407 240l-76 165h-1l-75 -165h152zM203 801q-8 0 -13.5 5t-5.5 13v41
q0 19 19 19h256q19 0 19 -19v-41q0 -8 -5.5 -13t-13.5 -5h-256z" />
    <glyph glyph-name="Abreve" unicode="&#x102;" horiz-adv-x="662" 
d="M13 0q-11 0 -16.5 8t-0.5 18l313 673q5 11 17 11h10q11 0 17 -11l313 -673q5 -10 -0.5 -18t-16.5 -8h-111q-14 0 -21 5.5t-14 19.5l-36 79h-272l-36 -80q-4 -9 -12.5 -16.5t-23.5 -7.5h-110zM407 240l-76 165h-1l-75 -165h152zM331 763q-56 0 -95 34.5t-47 85.5
q-2 9 3.5 15.5t15.5 6.5h45q6 0 10.5 -3.5t6.5 -8.5q7 -20 23 -34t38 -14q20 0 36 15t23 33q2 5 7 8.5t10 3.5h47q9 0 14.5 -6.5t4.5 -15.5q-4 -26 -16.5 -47.5t-31.5 -38t-43 -25.5t-51 -9z" />
    <glyph glyph-name="Aring" unicode="&#xc5;" horiz-adv-x="662" 
d="M13 0q-11 0 -16.5 8t-0.5 18l313 673q5 11 17 11h10q11 0 17 -11l313 -673q5 -10 -0.5 -18t-16.5 -8h-111q-14 0 -21 5.5t-14 19.5l-36 79h-272l-36 -80q-4 -9 -12.5 -16.5t-23.5 -7.5h-110zM407 240l-76 165h-1l-75 -165h152zM331 752q-24 0 -45 9t-36.5 24.5
t-24.5 36.5t-9 45t9 45t24.5 36.5t36.5 24.5t45 9t44.5 -9t36.5 -24.5t25 -36.5t9 -45t-9 -45t-25 -36.5t-36.5 -24.5t-44.5 -9zM331 823q17 0 30 13.5t13 30.5t-13 30t-30 13t-30.5 -13t-13.5 -30t13.5 -30.5t30.5 -13.5z" />
    <glyph glyph-name="Aringacute" unicode="&#x1fa;" horiz-adv-x="662" 
d="M260 875q-10 -6 -16.5 -2.5t-10.5 11.5l-21 42q-3 6 -0.5 11t6.5 8l170 104q5 3 13.5 3.5t12.5 -6.5l34 -59q6 -11 3 -18.5t-9 -11.5zM13 0q-11 0 -16.5 8t-0.5 18l291 626q-32 13 -51.5 41.5t-19.5 65.5q0 24 9 45t24.5 36.5t36.5 24.5t45 9t44.5 -9t36.5 -24.5
t25 -36.5t9 -45q0 -37 -20 -65.5t-52 -41.5l292 -626q5 -10 -0.5 -18t-16.5 -8h-111q-14 0 -21 5.5t-14 19.5l-36 79h-272l-36 -80q-4 -9 -12.5 -16.5t-23.5 -7.5h-110zM331 715q17 0 30 13.5t13 30.5t-13 30t-30 13t-30.5 -13t-13.5 -30t13.5 -30.5t30.5 -13.5zM407 240
l-76 165h-1l-75 -165h152z" />
    <glyph glyph-name="Aogonek" unicode="&#x104;" horiz-adv-x="662" 
d="M13 0q-11 0 -16.5 8t-0.5 18l314 673q5 11 17 11h10q11 0 17 -11l312 -673q5 -10 -0.5 -18t-16.5 -8h-85q-14 -14 -29.5 -38.5t-15.5 -56.5q0 -27 16.5 -47t53.5 -20q13 0 23 2t18 4q10 2 16 -4t6 -15v-33q0 -7 -4.5 -12t-10.5 -7l-21 -4q-9 -2 -20 -3t-22 -1
q-29 0 -54 7t-43.5 21t-29.5 35.5t-11 50.5q0 31 11 56t24.5 42.5t24.5 27t12 9.5l-41 90h-272l-36 -80q-4 -9 -12.5 -16.5t-23.5 -7.5h-110zM407 240l-77 165h-1l-74 -165h152z" />
    <glyph glyph-name="AE" unicode="&#xc6;" horiz-adv-x="898" 
d="M-3 0q-11 0 -14.5 8t2.5 18l401 643q10 15 17 23t27 8h401q8 0 13.5 -5.5t5.5 -13.5v-109q0 -8 -5.5 -13.5t-13.5 -5.5h-277v-124h228q8 0 13.5 -5.5t5.5 -13.5v-109q0 -8 -5.5 -13.5t-13.5 -5.5h-228v-135h277q8 0 13.5 -5.5t5.5 -13.5v-109q0 -8 -5.5 -13.5t-13.5 -5.5
h-414q-8 0 -13.5 5.5t-5.5 13.5v85h-184l-53 -87q-5 -9 -11.5 -13t-17.5 -4h-135zM398 240v177l-110 -177h110z" />
    <glyph glyph-name="AEacute" unicode="&#x1fc;" horiz-adv-x="898" 
d="M-3 0q-11 0 -14.5 8t2.5 18l401 643q10 15 17 23t27 8h401q8 0 13.5 -5.5t5.5 -13.5v-109q0 -8 -5.5 -13.5t-13.5 -5.5h-277v-124h228q8 0 13.5 -5.5t5.5 -13.5v-109q0 -8 -5.5 -13.5t-13.5 -5.5h-228v-135h277q8 0 13.5 -5.5t5.5 -13.5v-109q0 -8 -5.5 -13.5t-13.5 -5.5
h-414q-8 0 -13.5 5.5t-5.5 13.5v85h-184l-53 -87q-5 -9 -11.5 -13t-17.5 -4h-135zM398 240v177l-110 -177h110zM536 763q-10 -6 -16.5 -2.5t-10.5 11.5l-21 42q-3 6 -0.5 11t6.5 8l170 104q5 3 13.5 3.5t12.5 -6.5l34 -59q6 -11 3 -18.5t-9 -11.5z" />
    <glyph glyph-name="Cacute" unicode="&#x106;" horiz-adv-x="673" 
d="M35 349q0 75 28.5 141t77 114.5t114.5 77t141 28.5t133 -23t109 -70q15 -14 1 -28l-78 -81q-5 -5 -12.5 -5t-12.5 5q-28 25 -63 38t-72 13q-42 0 -78 -16.5t-62.5 -44.5t-41 -65.5t-14.5 -79.5t15 -78.5t41 -64.5t62.5 -44t78.5 -16q35 0 71 12.5t63 35.5q5 5 13 4.5
t13 -5.5l78 -83q5 -5 4.5 -13.5t-5.5 -13.5q-51 -50 -113.5 -73.5t-129.5 -23.5q-75 0 -141 28t-114.5 76.5t-77 114t-28.5 140.5zM326 762q-10 -6 -16.5 -2.5t-10.5 11.5l-21 42q-3 6 -0.5 11t6.5 8l170 104q5 3 13.5 3.5t12.5 -6.5l34 -59q6 -11 3 -18.5t-9 -11.5z" />
    <glyph glyph-name="Ccircumflex" unicode="&#x108;" horiz-adv-x="673" 
d="M35 349q0 75 28.5 141t77 114.5t114.5 77t141 28.5t133 -23t109 -70q15 -14 1 -28l-78 -81q-5 -5 -12.5 -5t-12.5 5q-28 25 -63 38t-72 13q-42 0 -78 -16.5t-62.5 -44.5t-41 -65.5t-14.5 -79.5t15 -78.5t41 -64.5t62.5 -44t78.5 -16q35 0 71 12.5t63 35.5q5 5 13 4.5
t13 -5.5l78 -83q5 -5 4.5 -13.5t-5.5 -13.5q-51 -50 -113.5 -73.5t-129.5 -23.5q-75 0 -141 28t-114.5 76.5t-77 114t-28.5 140.5zM298 762q-8 -5 -12.5 -3.5t-9.5 7.5l-33 47q-4 5 -1 10.5t7 8.5l135 104q6 5 12.5 4t11.5 -4l138 -104q4 -3 6.5 -8t-0.5 -11l-34 -46
q-9 -12 -21 -5l-99 58z" />
    <glyph glyph-name="Ccaron" unicode="&#x10c;" horiz-adv-x="673" 
d="M35 349q0 75 28.5 141t77 114.5t114.5 77t141 28.5t133 -23t109 -70q15 -14 1 -28l-78 -81q-5 -5 -12.5 -5t-12.5 5q-28 25 -63 38t-72 13q-42 0 -78 -16.5t-62.5 -44.5t-41 -65.5t-14.5 -79.5t15 -78.5t41 -64.5t62.5 -44t78.5 -16q35 0 71 12.5t63 35.5q5 5 13 4.5
t13 -5.5l78 -83q5 -5 4.5 -13.5t-5.5 -13.5q-51 -50 -113.5 -73.5t-129.5 -23.5q-75 0 -141 28t-114.5 76.5t-77 114t-28.5 140.5zM248 866q-4 3 -6.5 8t0.5 11l34 46q9 12 21 5l99 -58l100 58q8 5 12.5 3.5t9.5 -7.5l33 -47q4 -5 1 -10.5t-7 -8.5l-135 -104q-6 -5 -12.5 -4
t-11.5 4z" />
    <glyph glyph-name="Cdotaccent" unicode="&#x10a;" horiz-adv-x="673" 
d="M35 349q0 75 28.5 141t77 114.5t114.5 77t141 28.5t133 -23t109 -70q15 -14 1 -28l-78 -81q-5 -5 -12.5 -5t-12.5 5q-28 25 -63 38t-72 13q-42 0 -78 -16.5t-62.5 -44.5t-41 -65.5t-14.5 -79.5t15 -78.5t41 -64.5t62.5 -44t78.5 -16q35 0 71 12.5t63 35.5q5 5 13 4.5
t13 -5.5l78 -83q5 -5 4.5 -13.5t-5.5 -13.5q-51 -50 -113.5 -73.5t-129.5 -23.5q-75 0 -141 28t-114.5 76.5t-77 114t-28.5 140.5zM397 774q-33 0 -56 23t-23 56t23 56.5t56 23.5t56.5 -23.5t23.5 -56.5t-23.5 -56t-56.5 -23z" />
    <glyph glyph-name="Ccedilla" unicode="&#xc7;" horiz-adv-x="675" 
d="M331 -4q-63 11 -117 42.5t-93.5 78.5t-62 106t-22.5 126q0 75 28.5 141t77 114.5t114.5 77t141 28.5t133 -23t109 -70q15 -14 1 -28l-78 -81q-5 -5 -12.5 -5t-12.5 5q-28 25 -63 38t-72 13q-42 0 -78 -16.5t-62.5 -44.5t-41 -65.5t-14.5 -79.5t15 -78.5t41 -64.5
t62.5 -44t78.5 -16q35 0 71 12.5t63 35.5q5 5 13 4.5t13 -5.5l78 -83q5 -5 4.5 -13.5t-5.5 -13.5q-50 -49 -110.5 -72t-125.5 -25v-42q46 -6 69 -33.5t23 -68.5q0 -22 -8.5 -41t-22.5 -33.5t-33.5 -23t-41.5 -8.5q-23 0 -43 10t-33 25q-13 14 4 29l23 20q5 5 11 4t10 -6
t11 -7t13 -2q12 0 21 10t9 22q0 5 -2 12t-9 13t-20.5 11t-36.5 6q-11 2 -14 8t-3 10v91v0z" />
    <glyph glyph-name="Dcaron" unicode="&#x10e;" horiz-adv-x="735" 
d="M86 681q0 8 5 13.5t13 5.5h244q72 0 136 -27.5t112 -75t75.5 -111t27.5 -135.5q0 -73 -27.5 -137t-75.5 -111.5t-112 -75t-136 -27.5h-244q-8 0 -13 5.5t-5 13.5v662zM338 148q42 0 78 15.5t62 43t40.5 64.5t14.5 80q0 42 -14.5 79t-40.5 64.5t-62 43t-78 15.5h-96v-405
h96zM177 866q-4 3 -6.5 8t0.5 11l34 46q9 12 21 5l99 -58l100 58q8 5 12.5 3.5t9.5 -7.5l33 -47q4 -5 1 -10.5t-7 -8.5l-135 -104q-6 -5 -12.5 -4t-11.5 4z" />
    <glyph glyph-name="Dcroat" unicode="&#x110;" horiz-adv-x="740" 
d="M91 319h-29q-8 0 -13 5.5t-5 13.5v17q0 8 5 13.5t13 5.5h29v307q0 8 5 13.5t13 5.5h244q72 0 136 -27.5t112 -75t75.5 -111t27.5 -135.5q0 -73 -27.5 -137t-75.5 -111.5t-112 -75t-136 -27.5h-244q-8 0 -13 5.5t-5 13.5v300zM343 148q42 0 78 15.5t62 43t40.5 64.5
t14.5 80q0 42 -14.5 79t-40.5 64.5t-62 43t-78 15.5h-96v-179h142q8 0 13.5 -5.5t5.5 -13.5v-18q0 -8 -5.5 -13t-13.5 -5h-142v-171h96z" />
    <glyph glyph-name="Eth" unicode="&#xd0;" horiz-adv-x="740" 
d="M91 319h-29q-8 0 -13 5.5t-5 13.5v17q0 8 5 13.5t13 5.5h29v307q0 8 5 13.5t13 5.5h244q72 0 136 -27.5t112 -75t75.5 -111t27.5 -135.5q0 -73 -27.5 -137t-75.5 -111.5t-112 -75t-136 -27.5h-244q-8 0 -13 5.5t-5 13.5v300zM343 148q42 0 78 15.5t62 43t40.5 64.5
t14.5 80q0 42 -14.5 79t-40.5 64.5t-62 43t-78 15.5h-96v-179h142q8 0 13.5 -5.5t5.5 -13.5v-18q0 -8 -5.5 -13t-13.5 -5h-142v-171h96z" />
    <glyph glyph-name="Egrave" unicode="&#xc8;" horiz-adv-x="586" 
d="M86 681q0 8 5.5 13.5t13.5 5.5h414q8 0 13.5 -5.5t5.5 -13.5v-109q0 -8 -5.5 -13.5t-13.5 -5.5h-277v-124h228q8 0 13.5 -5.5t5.5 -13.5v-109q0 -8 -5.5 -13.5t-13.5 -5.5h-228v-135h277q8 0 13.5 -5.5t5.5 -13.5v-109q0 -8 -5.5 -13.5t-13.5 -5.5h-414q-8 0 -13.5 5.5
t-5.5 13.5v662zM206 844q-6 4 -9 11.5t3 18.5l34 59q4 7 12.5 6.5t13.5 -3.5l170 -104q4 -3 6.5 -8t-0.5 -11l-21 -42q-4 -8 -10.5 -11.5t-16.5 2.5z" />
    <glyph glyph-name="Eacute" unicode="&#xc9;" horiz-adv-x="586" 
d="M86 681q0 8 5.5 13.5t13.5 5.5h414q8 0 13.5 -5.5t5.5 -13.5v-109q0 -8 -5.5 -13.5t-13.5 -5.5h-277v-124h228q8 0 13.5 -5.5t5.5 -13.5v-109q0 -8 -5.5 -13.5t-13.5 -5.5h-228v-135h277q8 0 13.5 -5.5t5.5 -13.5v-109q0 -8 -5.5 -13.5t-13.5 -5.5h-414q-8 0 -13.5 5.5
t-5.5 13.5v662zM246 762q-10 -6 -16.5 -2.5t-10.5 11.5l-21 42q-3 6 -0.5 11t6.5 8l170 104q5 3 13.5 3.5t12.5 -6.5l34 -59q6 -11 3 -18.5t-9 -11.5z" />
    <glyph glyph-name="Ecircumflex" unicode="&#xca;" horiz-adv-x="586" 
d="M86 681q0 8 5.5 13.5t13.5 5.5h414q8 0 13.5 -5.5t5.5 -13.5v-109q0 -8 -5.5 -13.5t-13.5 -5.5h-277v-124h228q8 0 13.5 -5.5t5.5 -13.5v-109q0 -8 -5.5 -13.5t-13.5 -5.5h-228v-135h277q8 0 13.5 -5.5t5.5 -13.5v-109q0 -8 -5.5 -13.5t-13.5 -5.5h-414q-8 0 -13.5 5.5
t-5.5 13.5v662zM218 762q-8 -5 -12.5 -3.5t-9.5 7.5l-33 47q-4 5 -1 10.5t7 8.5l135 104q6 5 12.5 4t11.5 -4l138 -104q4 -3 6.5 -8t-0.5 -11l-34 -46q-9 -12 -21 -5l-99 58z" />
    <glyph glyph-name="Ecaron" unicode="&#x11a;" horiz-adv-x="586" 
d="M86 681q0 8 5.5 13.5t13.5 5.5h414q8 0 13.5 -5.5t5.5 -13.5v-109q0 -8 -5.5 -13.5t-13.5 -5.5h-277v-124h228q8 0 13.5 -5.5t5.5 -13.5v-109q0 -8 -5.5 -13.5t-13.5 -5.5h-228v-135h277q8 0 13.5 -5.5t5.5 -13.5v-109q0 -8 -5.5 -13.5t-13.5 -5.5h-414q-8 0 -13.5 5.5
t-5.5 13.5v662zM168 866q-4 3 -6.5 8t0.5 11l34 46q9 12 21 5l99 -58l100 58q8 5 12.5 3.5t9.5 -7.5l33 -47q4 -5 1 -10.5t-7 -8.5l-135 -104q-6 -5 -12.5 -4t-11.5 4z" />
    <glyph glyph-name="Edieresis" unicode="&#xcb;" horiz-adv-x="586" 
d="M86 681q0 8 5.5 13.5t13.5 5.5h414q8 0 13.5 -5.5t5.5 -13.5v-109q0 -8 -5.5 -13.5t-13.5 -5.5h-277v-124h228q8 0 13.5 -5.5t5.5 -13.5v-109q0 -8 -5.5 -13.5t-13.5 -5.5h-228v-135h277q8 0 13.5 -5.5t5.5 -13.5v-109q0 -8 -5.5 -13.5t-13.5 -5.5h-414q-8 0 -13.5 5.5
t-5.5 13.5v662zM446 768q-29 0 -49.5 21t-20.5 50t20.5 49.5t49.5 20.5t50 -20.5t21 -49.5t-21 -50t-50 -21zM181 768q-29 0 -49.5 21t-20.5 50t20.5 49.5t49.5 20.5t50 -20.5t21 -49.5t-21 -50t-50 -21z" />
    <glyph glyph-name="Emacron" unicode="&#x112;" horiz-adv-x="586" 
d="M86 681q0 8 5.5 13.5t13.5 5.5h414q8 0 13.5 -5.5t5.5 -13.5v-109q0 -8 -5.5 -13.5t-13.5 -5.5h-277v-124h228q8 0 13.5 -5.5t5.5 -13.5v-109q0 -8 -5.5 -13.5t-13.5 -5.5h-228v-135h277q8 0 13.5 -5.5t5.5 -13.5v-109q0 -8 -5.5 -13.5t-13.5 -5.5h-414q-8 0 -13.5 5.5
t-5.5 13.5v662zM189 801q-8 0 -13.5 5t-5.5 13v41q0 19 19 19h256q19 0 19 -19v-41q0 -8 -5.5 -13t-13.5 -5h-256z" />
    <glyph glyph-name="Ebreve" unicode="&#x114;" horiz-adv-x="586" 
d="M86 681q0 8 5.5 13.5t13.5 5.5h414q8 0 13.5 -5.5t5.5 -13.5v-109q0 -8 -5.5 -13.5t-13.5 -5.5h-277v-124h228q8 0 13.5 -5.5t5.5 -13.5v-109q0 -8 -5.5 -13.5t-13.5 -5.5h-228v-135h277q8 0 13.5 -5.5t5.5 -13.5v-109q0 -8 -5.5 -13.5t-13.5 -5.5h-414q-8 0 -13.5 5.5
t-5.5 13.5v662zM317 763q-56 0 -95 34.5t-47 85.5q-2 9 3.5 15.5t15.5 6.5h45q6 0 10.5 -3.5t6.5 -8.5q7 -20 23 -34t38 -14q20 0 36 15t23 33q2 5 7 8.5t10 3.5h47q9 0 14.5 -6.5t4.5 -15.5q-4 -26 -16.5 -47.5t-31.5 -38t-43 -25.5t-51 -9z" />
    <glyph glyph-name="Edotaccent" unicode="&#x116;" horiz-adv-x="586" 
d="M86 681q0 8 5.5 13.5t13.5 5.5h414q8 0 13.5 -5.5t5.5 -13.5v-109q0 -8 -5.5 -13.5t-13.5 -5.5h-277v-124h228q8 0 13.5 -5.5t5.5 -13.5v-109q0 -8 -5.5 -13.5t-13.5 -5.5h-228v-135h277q8 0 13.5 -5.5t5.5 -13.5v-109q0 -8 -5.5 -13.5t-13.5 -5.5h-414q-8 0 -13.5 5.5
t-5.5 13.5v662zM317 774q-33 0 -56 23t-23 56t23 56.5t56 23.5t56.5 -23.5t23.5 -56.5t-23.5 -56t-56.5 -23z" />
    <glyph glyph-name="Eogonek" unicode="&#x118;" horiz-adv-x="586" 
d="M86 681q0 8 5.5 13.5t13.5 5.5h414q8 0 13.5 -5.5t5.5 -13.5v-109q0 -8 -5.5 -13.5t-13.5 -5.5h-277v-124h228q8 0 13.5 -5.5t5.5 -13.5v-109q0 -8 -5.5 -13.5t-13.5 -5.5h-228v-135h277q8 0 13.5 -5.5t5.5 -13.5v-93q0 -16 -5.5 -21.5t-14.5 -13.5q-14 -14 -29.5 -38.5
t-15.5 -56.5q0 -27 16.5 -47t53.5 -20q13 0 23 2t18 4q10 2 16 -4t6 -15v-33q0 -7 -4.5 -12t-10.5 -7l-21 -4q-9 -2 -20 -3t-22 -1q-29 0 -54 7t-43.5 21t-29.5 35.5t-11 50.5q0 22 5.5 40.5t14 34t18 27t17.5 19.5h-340q-8 0 -13.5 5.5t-5.5 13.5v662z" />
    <glyph glyph-name="Gcircumflex" unicode="&#x11c;" horiz-adv-x="702" 
d="M36 349q0 75 28 140.5t77 114.5t114 77t140 28q63 0 128 -24.5t116 -69.5q7 -5 7.5 -13t-5.5 -14l-79 -84q-13 -11 -27 -1q-29 26 -61.5 37t-69.5 11q-41 0 -77 -16t-62.5 -43.5t-42 -64.5t-15.5 -78t15.5 -77t42.5 -63t63 -43t77 -16q22 0 44 3.5t45 12.5v58h-63
q-8 0 -13.5 5t-5.5 13v99q0 19 19 19h201q8 0 13 -5.5t5 -13.5l1 -269q0 -10 -8 -16q-31 -19 -70 -33q-33 -12 -78.5 -22t-99.5 -10q-75 0 -140 28t-114 76t-77 113.5t-28 140.5zM297 762q-8 -5 -12.5 -3.5t-9.5 7.5l-33 47q-4 5 -1 10.5t7 8.5l135 104q6 5 12.5 4t11.5 -4
l138 -104q4 -3 6.5 -8t-0.5 -11l-34 -46q-9 -12 -21 -5l-99 58z" />
    <glyph glyph-name="Gbreve" unicode="&#x11e;" horiz-adv-x="702" 
d="M36 349q0 75 28 140.5t77 114.5t114 77t140 28q63 0 128 -24.5t116 -69.5q7 -5 7.5 -13t-5.5 -14l-79 -84q-13 -11 -27 -1q-29 26 -61.5 37t-69.5 11q-41 0 -77 -16t-62.5 -43.5t-42 -64.5t-15.5 -78t15.5 -77t42.5 -63t63 -43t77 -16q22 0 44 3.5t45 12.5v58h-63
q-8 0 -13.5 5t-5.5 13v99q0 19 19 19h201q8 0 13 -5.5t5 -13.5l1 -269q0 -10 -8 -16q-31 -19 -70 -33q-33 -12 -78.5 -22t-99.5 -10q-75 0 -140 28t-114 76t-77 113.5t-28 140.5zM396 763q-56 0 -95 34.5t-47 85.5q-2 9 3.5 15.5t15.5 6.5h45q6 0 10.5 -3.5t6.5 -8.5
q7 -20 23 -34t38 -14q20 0 36 15t23 33q2 5 7 8.5t10 3.5h47q9 0 14.5 -6.5t4.5 -15.5q-4 -26 -16.5 -47.5t-31.5 -38t-43 -25.5t-51 -9z" />
    <glyph glyph-name="Gdotaccent" unicode="&#x120;" horiz-adv-x="702" 
d="M36 349q0 75 28 140.5t77 114.5t114 77t140 28q63 0 128 -24.5t116 -69.5q7 -5 7.5 -13t-5.5 -14l-79 -84q-13 -11 -27 -1q-29 26 -61.5 37t-69.5 11q-41 0 -77 -16t-62.5 -43.5t-42 -64.5t-15.5 -78t15.5 -77t42.5 -63t63 -43t77 -16q22 0 44 3.5t45 12.5v58h-63
q-8 0 -13.5 5t-5.5 13v99q0 19 19 19h201q8 0 13 -5.5t5 -13.5l1 -269q0 -10 -8 -16q-31 -19 -70 -33q-33 -12 -78.5 -22t-99.5 -10q-75 0 -140 28t-114 76t-77 113.5t-28 140.5zM396 774q-33 0 -56 23t-23 56t23 56.5t56 23.5t56.5 -23.5t23.5 -56.5t-23.5 -56t-56.5 -23z
" />
    <glyph glyph-name="Gcommaaccent" unicode="&#x122;" horiz-adv-x="702" 
d="M36 349q0 75 28 140.5t77 114.5t114 77t140 28q63 0 128 -24.5t116 -69.5q7 -5 7.5 -13t-5.5 -14l-79 -84q-13 -11 -27 -1q-29 26 -61.5 37t-69.5 11q-41 0 -77 -16t-62.5 -43.5t-42 -64.5t-15.5 -78t15.5 -77t42.5 -63t63 -43t77 -16q22 0 44 3.5t45 12.5v58h-63
q-8 0 -13.5 5t-5.5 13v99q0 19 19 19h201q8 0 13 -5.5t5 -13.5l1 -269q0 -10 -8 -16q-31 -19 -70 -33q-33 -12 -78.5 -22t-99.5 -10q-75 0 -140 28t-114 76t-77 113.5t-28 140.5zM405 -90q14 0 30 -6t29.5 -19.5t22.5 -35.5t9 -55q0 -39 -11.5 -69.5t-26.5 -52.5t-30.5 -36
t-24.5 -21q-5 -4 -10.5 -4.5t-11.5 6.5l-15 15q-5 6 -4.5 12t5.5 10q4 3 15.5 12.5t23.5 25t22 36t10 46.5q-5 -2 -11 -4q-11 -3 -29 -3q-29 0 -50.5 20.5t-21.5 50.5q0 29 22 50.5t57 21.5z" />
    <glyph glyph-name="Hcircumflex" unicode="&#x124;" horiz-adv-x="772" 
d="M86 681q0 8 5.5 13.5t13.5 5.5h119q8 0 13.5 -5.5t5.5 -13.5v-252h286v252q0 8 5.5 13.5t13.5 5.5h119q8 0 13.5 -5.5t5.5 -13.5v-662q0 -8 -5.5 -13.5t-13.5 -5.5h-119q-8 0 -13.5 5.5t-5.5 13.5v263h-286v-263q0 -8 -5.5 -13.5t-13.5 -5.5h-119q-8 0 -13.5 5.5
t-5.5 13.5v662zM287 762q-8 -5 -12.5 -3.5t-9.5 7.5l-33 47q-4 5 -1 10.5t7 8.5l135 104q6 5 12.5 4t11.5 -4l138 -104q4 -3 6.5 -8t-0.5 -11l-34 -46q-9 -12 -21 -5l-99 58z" />
    <glyph glyph-name="Hbar" unicode="&#x126;" horiz-adv-x="772" 
d="M86 531h-28q-8 0 -13 5.5t-5 13.5v17q0 8 5 13.5t13 5.5h28v95q0 8 5.5 13.5t13.5 5.5h119q8 0 13.5 -5.5t5.5 -13.5v-95h286v95q0 8 5.5 13.5t13.5 5.5h119q8 0 13.5 -5.5t5.5 -13.5v-95h28q8 0 13.5 -5.5t5.5 -13.5v-18q0 -8 -5.5 -13t-13.5 -5h-28v-512
q0 -8 -5.5 -13.5t-13.5 -5.5h-119q-8 0 -13.5 5.5t-5.5 13.5v263h-286v-263q0 -8 -5.5 -13.5t-13.5 -5.5h-119q-8 0 -13.5 5.5t-5.5 13.5v512zM529 429v102h-286v-102h286z" />
    <glyph glyph-name="Igrave" unicode="&#xcc;" horiz-adv-x="330" 
d="M86 681q0 8 5.5 13.5t13.5 5.5h120q8 0 13.5 -5.5t5.5 -13.5v-662q0 -8 -5.5 -13.5t-13.5 -5.5h-120q-8 0 -13.5 5.5t-5.5 13.5v662zM54 844q-6 4 -9 11.5t3 18.5l34 59q4 7 12.5 6.5t13.5 -3.5l170 -104q4 -3 6.5 -8t-0.5 -11l-21 -42q-4 -8 -10.5 -11.5t-16.5 2.5z" />
    <glyph glyph-name="Iacute" unicode="&#xcd;" horiz-adv-x="330" 
d="M86 681q0 8 5.5 13.5t13.5 5.5h120q8 0 13.5 -5.5t5.5 -13.5v-662q0 -8 -5.5 -13.5t-13.5 -5.5h-120q-8 0 -13.5 5.5t-5.5 13.5v662zM94 762q-10 -6 -16.5 -2.5t-10.5 11.5l-21 42q-3 6 -0.5 11t6.5 8l170 104q5 3 13.5 3.5t12.5 -6.5l34 -59q6 -11 3 -18.5t-9 -11.5z
" />
    <glyph glyph-name="Ibreve" unicode="&#x12c;" horiz-adv-x="330" 
d="M86 681q0 8 5.5 13.5t13.5 5.5h120q8 0 13.5 -5.5t5.5 -13.5v-662q0 -8 -5.5 -13.5t-13.5 -5.5h-120q-8 0 -13.5 5.5t-5.5 13.5v662zM165 763q-56 0 -95 34.5t-47 85.5q-2 9 3.5 15.5t15.5 6.5h45q6 0 10.5 -3.5t6.5 -8.5q7 -20 23 -34t38 -14q20 0 36 15t23 33
q2 5 7 8.5t10 3.5h47q9 0 14.5 -6.5t4.5 -15.5q-4 -26 -16.5 -47.5t-31.5 -38t-43 -25.5t-51 -9z" />
    <glyph glyph-name="Icircumflex" unicode="&#xce;" horiz-adv-x="330" 
d="M86 681q0 8 5.5 13.5t13.5 5.5h120q8 0 13.5 -5.5t5.5 -13.5v-662q0 -8 -5.5 -13.5t-13.5 -5.5h-120q-8 0 -13.5 5.5t-5.5 13.5v662zM66 762q-8 -5 -12.5 -3.5t-9.5 7.5l-33 47q-4 5 -1 10.5t7 8.5l135 104q6 5 12.5 4t11.5 -4l138 -104q4 -3 6.5 -8t-0.5 -11l-34 -46
q-9 -12 -21 -5l-99 58z" />
    <glyph glyph-name="Itilde" unicode="&#x128;" horiz-adv-x="330" 
d="M86 681q0 8 5.5 13.5t13.5 5.5h120q8 0 13.5 -5.5t5.5 -13.5v-662q0 -8 -5.5 -13.5t-13.5 -5.5h-120q-8 0 -13.5 5.5t-5.5 13.5v662zM13 813q-5 4 -6.5 11t0.5 12q4 7 13.5 21t23.5 28t32 24.5t38 10.5q18 0 31.5 -7.5t25.5 -16t24 -16t27 -7.5q12 0 22.5 11.5t15.5 19.5
q4 6 10.5 7.5t14.5 -5.5l34 -26q14 -10 1 -29l-12.5 -19t-21.5 -26t-29.5 -23t-36.5 -10t-34.5 7.5t-27 16.5t-24 16.5t-24.5 7.5q-7 0 -12.5 -4t-10.5 -9.5t-9.5 -11.5l-7.5 -10q-9 -9 -22 -1z" />
    <glyph glyph-name="Idieresis" unicode="&#xcf;" horiz-adv-x="330" 
d="M86 681q0 8 5.5 13.5t13.5 5.5h120q8 0 13.5 -5.5t5.5 -13.5v-662q0 -8 -5.5 -13.5t-13.5 -5.5h-120q-8 0 -13.5 5.5t-5.5 13.5v662zM297 768q-29 0 -49.5 21t-20.5 50t20.5 49.5t49.5 20.5t50 -20.5t21 -49.5t-21 -50t-50 -21zM32 768q-29 0 -49.5 21t-20.5 50
t20.5 49.5t49.5 20.5t50 -20.5t21 -49.5t-21 -50t-50 -21z" />
    <glyph glyph-name="Imacron" unicode="&#x12a;" horiz-adv-x="330" 
d="M86 681q0 8 5.5 13.5t13.5 5.5h120q8 0 13.5 -5.5t5.5 -13.5v-662q0 -8 -5.5 -13.5t-13.5 -5.5h-120q-8 0 -13.5 5.5t-5.5 13.5v662zM37 801q-8 0 -13.5 5t-5.5 13v41q0 19 19 19h256q19 0 19 -19v-41q0 -8 -5.5 -13t-13.5 -5h-256z" />
    <glyph glyph-name="Idotaccent" unicode="&#x130;" horiz-adv-x="330" 
d="M86 681q0 8 5.5 13.5t13.5 5.5h120q8 0 13.5 -5.5t5.5 -13.5v-662q0 -8 -5.5 -13.5t-13.5 -5.5h-120q-8 0 -13.5 5.5t-5.5 13.5v662zM165 774q-33 0 -56 23t-23 56t23 56.5t56 23.5t56.5 -23.5t23.5 -56.5t-23.5 -56t-56.5 -23z" />
    <glyph glyph-name="Iogonek" unicode="&#x12e;" horiz-adv-x="330" 
d="M86 681q0 8 5.5 13.5t13.5 5.5h120q8 0 13.5 -5.5t5.5 -13.5v-662q0 -8 -5.5 -13.5t-13.5 -5.5h-29q-14 -14 -29.5 -38.5t-15.5 -56.5q0 -27 16.5 -47t53.5 -20q13 0 23 2t18 4q10 2 16 -4t6 -15v-33q0 -7 -4.5 -12t-10.5 -7l-21 -4q-9 -2 -20 -3t-22 -1q-29 0 -54 7
t-43.5 21t-29.5 35.5t-11 50.5q0 22 5.5 40.5t14 34t18 27t17.5 19.5h-18q-8 0 -13.5 5.5t-5.5 13.5v662z" />
    <glyph glyph-name="Jcircumflex" unicode="&#x134;" horiz-adv-x="425" 
d="M-14 63q-8 13 2 25l68 67q6 5 13.5 5.5t13.5 -5.5q9 -9 20 -15t31 -6q21 0 40 19t19 57v471q0 8 5.5 13.5t13.5 5.5h122q8 0 13.5 -5.5t5.5 -13.5v-472q0 -52 -17 -93t-46.5 -69t-68.5 -42.5t-83 -14.5q-33 0 -58.5 8.5t-44 20t-31 24t-18.5 20.5zM168 762
q-8 -5 -12.5 -3.5t-9.5 7.5l-33 47q-4 5 -1 10.5t7 8.5l135 104q6 5 12.5 4t11.5 -4l138 -104q4 -3 6.5 -8t-0.5 -11l-34 -46q-9 -12 -21 -5l-99 58z" />
    <glyph glyph-name="Kcommaaccent" unicode="&#x136;" horiz-adv-x="673" 
d="M86 676q0 10 6.5 17t17.5 7h117q10 0 17 -7t7 -17v-263l222 277q3 4 8.5 7t10.5 3h126q14 0 20 -13t-2 -24l-234 -293l255 -332q8 -11 1.5 -24t-20.5 -13h-138q-5 0 -10.5 2.5t-7.5 4.5l-231 314v-298q0 -10 -7 -17t-17 -7h-117q-11 0 -17.5 7t-6.5 17v652zM383 -90
q14 0 30 -6t29.5 -19.5t22.5 -35.5t9 -55q0 -39 -11.5 -69.5t-26.5 -52.5t-30.5 -36t-24.5 -21q-5 -4 -10.5 -4.5t-11.5 6.5l-15 15q-5 6 -4.5 12t5.5 10q4 3 15.5 12.5t23.5 25t22 36t10 46.5q-5 -2 -11 -4q-11 -3 -29 -3q-29 0 -50.5 20.5t-21.5 50.5q0 29 22 50.5
t57 21.5z" />
    <glyph glyph-name="Lacute" unicode="&#x139;" horiz-adv-x="511" 
d="M86 681q0 8 5.5 13.5t13.5 5.5h119q8 0 13.5 -5.5t5.5 -13.5v-534h238q8 0 13.5 -5.5t5.5 -13.5v-109q0 -8 -5.5 -13.5t-13.5 -5.5h-376q-8 0 -13.5 5.5t-5.5 13.5v662zM92 762q-10 -6 -16.5 -2.5t-10.5 11.5l-21 42q-3 6 -0.5 11t6.5 8l170 104q5 3 13.5 3.5t12.5 -6.5
l34 -59q6 -11 3 -18.5t-9 -11.5z" />
    <glyph glyph-name="Lcaron" unicode="&#x13d;" horiz-adv-x="511" 
d="M86 681q0 8 5.5 13.5t13.5 5.5h119q8 0 13.5 -5.5t5.5 -13.5v-534h238q8 0 13.5 -5.5t5.5 -13.5v-109q0 -8 -5.5 -13.5t-13.5 -5.5h-376q-8 0 -13.5 5.5t-5.5 13.5v662zM388 710q14 0 30 -6t29.5 -19.5t22.5 -35.5t9 -55q0 -39 -11.5 -69.5t-26.5 -52.5t-30.5 -36
t-24.5 -21q-5 -4 -10.5 -4.5t-11.5 6.5l-15 15q-5 6 -4.5 12t5.5 10q4 3 15.5 12.5t23.5 25t22 36t10 46.5q-5 -2 -11 -4q-11 -3 -29 -3q-29 0 -50.5 20.5t-21.5 50.5q0 29 22 50.5t57 21.5z" />
    <glyph glyph-name="Lcommaaccent" unicode="&#x13b;" horiz-adv-x="511" 
d="M86 681q0 8 5.5 13.5t13.5 5.5h119q8 0 13.5 -5.5t5.5 -13.5v-534h238q8 0 13.5 -5.5t5.5 -13.5v-109q0 -8 -5.5 -13.5t-13.5 -5.5h-376q-8 0 -13.5 5.5t-5.5 13.5v662zM302 -90q14 0 30 -6t29.5 -19.5t22.5 -35.5t9 -55q0 -39 -11.5 -69.5t-26.5 -52.5t-30.5 -36
t-24.5 -21q-5 -4 -10.5 -4.5t-11.5 6.5l-15 15q-5 6 -4.5 12t5.5 10q4 3 15.5 12.5t23.5 25t22 36t10 46.5q-5 -2 -11 -4q-11 -3 -29 -3q-29 0 -50.5 20.5t-21.5 50.5q0 29 22 50.5t57 21.5z" />
    <glyph glyph-name="Lslash" unicode="&#x141;" horiz-adv-x="527" 
d="M102 304l-23 -13q-7 -4 -14.5 -2t-11.5 9l-8 15q-4 6 -2.5 13.5t8.5 11.5l51 29v314q0 8 5.5 13.5t13.5 5.5h119q8 0 13.5 -5.5t5.5 -13.5v-223l75 44q8 4 15 2t11 -9l9 -16q4 -6 2 -13t-9 -12l-103 -60v-247h238q8 0 13.5 -5.5t5.5 -13.5v-109q0 -8 -5.5 -13.5
t-13.5 -5.5h-376q-8 0 -13.5 5.5t-5.5 13.5v285z" />
    <glyph glyph-name="Ldot" unicode="&#x13f;" horiz-adv-x="574" 
d="M86 681q0 8 5.5 13.5t13.5 5.5h119q8 0 13.5 -5.5t5.5 -13.5v-534h238q8 0 13.5 -5.5t5.5 -13.5v-109q0 -8 -5.5 -13.5t-13.5 -5.5h-376q-8 0 -13.5 5.5t-5.5 13.5v662zM475 281q-33 0 -56 23t-23 56t23 56.5t56 23.5t56.5 -23.5t23.5 -56.5t-23.5 -56t-56.5 -23z" />
    <glyph glyph-name="Nacute" unicode="&#x143;" horiz-adv-x="773" 
d="M85 692q0 8 5.5 13t13.5 5h25l399 -384h1v355q0 8 5.5 13.5t13.5 5.5h120q8 0 13.5 -5.5t5.5 -13.5v-673q0 -8 -5.5 -13t-13.5 -5h-16q-2 0 -6.5 1.5t-6.5 3.5l-395 397h-1v-373q0 -8 -5.5 -13.5t-13.5 -5.5h-119q-8 0 -13.5 5.5t-5.5 13.5zM317 762q-10 -6 -16.5 -2.5
t-10.5 11.5l-21 42q-3 6 -0.5 11t6.5 8l170 104q5 3 13.5 3.5t12.5 -6.5l34 -59q6 -11 3 -18.5t-9 -11.5z" />
    <glyph glyph-name="Ncaron" unicode="&#x147;" horiz-adv-x="773" 
d="M85 692q0 8 5.5 13t13.5 5h25l399 -384h1v355q0 8 5.5 13.5t13.5 5.5h120q8 0 13.5 -5.5t5.5 -13.5v-673q0 -8 -5.5 -13t-13.5 -5h-16q-2 0 -6.5 1.5t-6.5 3.5l-395 397h-1v-373q0 -8 -5.5 -13.5t-13.5 -5.5h-119q-8 0 -13.5 5.5t-5.5 13.5zM239 866q-4 3 -6.5 8t0.5 11
l34 46q9 12 21 5l99 -58l100 58q8 5 12.5 3.5t9.5 -7.5l33 -47q4 -5 1 -10.5t-7 -8.5l-135 -104q-6 -5 -12.5 -4t-11.5 4z" />
    <glyph glyph-name="Ntilde" unicode="&#xd1;" horiz-adv-x="773" 
d="M85 692q0 8 5.5 13t13.5 5h25l399 -384h1v355q0 8 5.5 13.5t13.5 5.5h120q8 0 13.5 -5.5t5.5 -13.5v-673q0 -8 -5.5 -13t-13.5 -5h-16q-2 0 -6.5 1.5t-6.5 3.5l-395 397h-1v-373q0 -8 -5.5 -13.5t-13.5 -5.5h-119q-8 0 -13.5 5.5t-5.5 13.5zM236 813q-5 4 -6.5 11t0.5 12
q4 7 13.5 21t23.5 28t32 24.5t38 10.5q18 0 31.5 -7.5t25.5 -16t24 -16t27 -7.5q12 0 22.5 11.5t15.5 19.5q4 6 10.5 7.5t14.5 -5.5l34 -26q14 -10 1 -29l-12.5 -19t-21.5 -26t-29.5 -23t-36.5 -10t-34.5 7.5t-27 16.5t-24 16.5t-24.5 7.5q-7 0 -12.5 -4t-10.5 -9.5
t-9.5 -11.5l-7.5 -10q-9 -9 -22 -1z" />
    <glyph glyph-name="Ncommaaccent" unicode="&#x145;" horiz-adv-x="773" 
d="M85 692q0 8 5.5 13t13.5 5h25l399 -384h1v355q0 8 5.5 13.5t13.5 5.5h120q8 0 13.5 -5.5t5.5 -13.5v-673q0 -8 -5.5 -13t-13.5 -5h-16q-2 0 -6.5 1.5t-6.5 3.5l-395 397h-1v-373q0 -8 -5.5 -13.5t-13.5 -5.5h-119q-8 0 -13.5 5.5t-5.5 13.5zM404 -90q14 0 30 -6
t29.5 -19.5t22.5 -35.5t9 -55q0 -39 -11.5 -69.5t-26.5 -52.5t-30.5 -36t-24.5 -21q-5 -4 -10.5 -4.5t-11.5 6.5l-15 15q-5 6 -4.5 12t5.5 10q4 3 15.5 12.5t23.5 25t22 36t10 46.5q-5 -2 -11 -4q-11 -3 -29 -3q-29 0 -50.5 20.5t-21.5 50.5q0 29 22 50.5t57 21.5z" />
    <glyph glyph-name="Ograve" unicode="&#xd2;" horiz-adv-x="789" 
d="M35 349q0 75 28 141t76.5 114.5t114 77t140.5 28.5t140.5 -28.5t114.5 -77t77 -114.5t28 -141t-28 -140.5t-77 -114t-114.5 -76.5t-140.5 -28t-140.5 28t-114 76.5t-76.5 114t-28 140.5zM195 349q0 -41 16 -77t43 -63t63 -43t77 -16t77.5 16t63.5 43t43 63t16 77
t-16 77.5t-43 64t-63.5 43.5t-77.5 16t-77 -16t-63 -43.5t-43 -64t-16 -77.5zM283 844q-6 4 -9 11.5t3 18.5l34 59q4 7 12.5 6.5t13.5 -3.5l170 -104q4 -3 6.5 -8t-0.5 -11l-21 -42q-4 -8 -10.5 -11.5t-16.5 2.5z" />
    <glyph glyph-name="Oacute" unicode="&#xd3;" horiz-adv-x="789" 
d="M35 349q0 75 28 141t76.5 114.5t114 77t140.5 28.5t140.5 -28.5t114.5 -77t77 -114.5t28 -141t-28 -140.5t-77 -114t-114.5 -76.5t-140.5 -28t-140.5 28t-114 76.5t-76.5 114t-28 140.5zM195 349q0 -41 16 -77t43 -63t63 -43t77 -16t77.5 16t63.5 43t43 63t16 77
t-16 77.5t-43 64t-63.5 43.5t-77.5 16t-77 -16t-63 -43.5t-43 -64t-16 -77.5zM323 762q-10 -6 -16.5 -2.5t-10.5 11.5l-21 42q-3 6 -0.5 11t6.5 8l170 104q5 3 13.5 3.5t12.5 -6.5l34 -59q6 -11 3 -18.5t-9 -11.5z" />
    <glyph glyph-name="Ocircumflex" unicode="&#xd4;" horiz-adv-x="789" 
d="M35 349q0 75 28 141t76.5 114.5t114 77t140.5 28.5t140.5 -28.5t114.5 -77t77 -114.5t28 -141t-28 -140.5t-77 -114t-114.5 -76.5t-140.5 -28t-140.5 28t-114 76.5t-76.5 114t-28 140.5zM195 349q0 -41 16 -77t43 -63t63 -43t77 -16t77.5 16t63.5 43t43 63t16 77
t-16 77.5t-43 64t-63.5 43.5t-77.5 16t-77 -16t-63 -43.5t-43 -64t-16 -77.5zM295 762q-8 -5 -12.5 -3.5t-9.5 7.5l-33 47q-4 5 -1 10.5t7 8.5l135 104q6 5 12.5 4t11.5 -4l138 -104q4 -3 6.5 -8t-0.5 -11l-34 -46q-9 -12 -21 -5l-99 58z" />
    <glyph glyph-name="Otilde" unicode="&#xd5;" horiz-adv-x="789" 
d="M35 349q0 75 28 141t76.5 114.5t114 77t140.5 28.5t140.5 -28.5t114.5 -77t77 -114.5t28 -141t-28 -140.5t-77 -114t-114.5 -76.5t-140.5 -28t-140.5 28t-114 76.5t-76.5 114t-28 140.5zM195 349q0 -41 16 -77t43 -63t63 -43t77 -16t77.5 16t63.5 43t43 63t16 77
t-16 77.5t-43 64t-63.5 43.5t-77.5 16t-77 -16t-63 -43.5t-43 -64t-16 -77.5zM242 813q-5 4 -6.5 11t0.5 12q4 7 13.5 21t23.5 28t32 24.5t38 10.5q18 0 31.5 -7.5t25.5 -16t24 -16t27 -7.5q12 0 22.5 11.5t15.5 19.5q4 6 10.5 7.5t14.5 -5.5l34 -26q14 -10 1 -29l-12.5 -19
t-21.5 -26t-29.5 -23t-36.5 -10t-34.5 7.5t-27 16.5t-24 16.5t-24.5 7.5q-7 0 -12.5 -4t-10.5 -9.5t-9.5 -11.5l-7.5 -10q-9 -9 -22 -1z" />
    <glyph glyph-name="Odieresis" unicode="&#xd6;" horiz-adv-x="789" 
d="M35 349q0 75 28 141t76.5 114.5t114 77t140.5 28.5t140.5 -28.5t114.5 -77t77 -114.5t28 -141t-28 -140.5t-77 -114t-114.5 -76.5t-140.5 -28t-140.5 28t-114 76.5t-76.5 114t-28 140.5zM195 349q0 -41 16 -77t43 -63t63 -43t77 -16t77.5 16t63.5 43t43 63t16 77
t-16 77.5t-43 64t-63.5 43.5t-77.5 16t-77 -16t-63 -43.5t-43 -64t-16 -77.5zM526 768q-29 0 -49.5 21t-20.5 50t20.5 49.5t49.5 20.5t50 -20.5t21 -49.5t-21 -50t-50 -21zM261 768q-29 0 -49.5 21t-20.5 50t20.5 49.5t49.5 20.5t50 -20.5t21 -49.5t-21 -50t-50 -21z" />
    <glyph glyph-name="Omacron" unicode="&#x14c;" horiz-adv-x="789" 
d="M35 349q0 75 28 141t76.5 114.5t114 77t140.5 28.5t140.5 -28.5t114.5 -77t77 -114.5t28 -141t-28 -140.5t-77 -114t-114.5 -76.5t-140.5 -28t-140.5 28t-114 76.5t-76.5 114t-28 140.5zM195 349q0 -41 16 -77t43 -63t63 -43t77 -16t77.5 16t63.5 43t43 63t16 77
t-16 77.5t-43 64t-63.5 43.5t-77.5 16t-77 -16t-63 -43.5t-43 -64t-16 -77.5zM266 801q-8 0 -13.5 5t-5.5 13v41q0 19 19 19h256q19 0 19 -19v-41q0 -8 -5.5 -13t-13.5 -5h-256z" />
    <glyph glyph-name="Obreve" unicode="&#x14e;" horiz-adv-x="789" 
d="M35 349q0 75 28 141t76.5 114.5t114 77t140.5 28.5t140.5 -28.5t114.5 -77t77 -114.5t28 -141t-28 -140.5t-77 -114t-114.5 -76.5t-140.5 -28t-140.5 28t-114 76.5t-76.5 114t-28 140.5zM195 349q0 -41 16 -77t43 -63t63 -43t77 -16t77.5 16t63.5 43t43 63t16 77
t-16 77.5t-43 64t-63.5 43.5t-77.5 16t-77 -16t-63 -43.5t-43 -64t-16 -77.5zM394 763q-56 0 -95 34.5t-47 85.5q-2 9 3.5 15.5t15.5 6.5h45q6 0 10.5 -3.5t6.5 -8.5q7 -20 23 -34t38 -14q20 0 36 15t23 33q2 5 7 8.5t10 3.5h47q9 0 14.5 -6.5t4.5 -15.5q-4 -26 -16.5 -47.5
t-31.5 -38t-43 -25.5t-51 -9z" />
    <glyph glyph-name="Ohungarumlaut" unicode="&#x150;" horiz-adv-x="789" 
d="M35 349q0 75 28 141t76.5 114.5t114 77t140.5 28.5t140.5 -28.5t114.5 -77t77 -114.5t28 -141t-28 -140.5t-77 -114t-114.5 -76.5t-140.5 -28t-140.5 28t-114 76.5t-76.5 114t-28 140.5zM195 349q0 -41 16 -77t43 -63t63 -43t77 -16t77.5 16t63.5 43t43 63t16 77
t-16 77.5t-43 64t-63.5 43.5t-77.5 16t-77 -16t-63 -43.5t-43 -64t-16 -77.5zM465 768q-8 0 -14.5 5.5t-4.5 13.5l30 141q2 8 6.5 13.5t12.5 5.5h94q14 0 19 -8t-1 -17l-78 -139q-4 -5 -8.5 -10t-9.5 -5h-46zM299 768q-8 0 -14.5 5.5t-4.5 13.5l30 141q2 8 6.5 13.5
t12.5 5.5h94q14 0 18.5 -7.5t-0.5 -17.5l-78 -139q-3 -6 -8 -10.5t-10 -4.5h-46z" />
    <glyph glyph-name="Oslash" unicode="&#xd8;" horiz-adv-x="795" 
d="M57 23q-5 5 -5.5 13t4.5 13l67 66q-40 48 -62.5 107t-22.5 127q0 75 28 141t76.5 114.5t114 77t140.5 28.5q68 0 127.5 -23t107.5 -64l70 69q5 6 13 5.5t13 -5.5l12 -12q14 -12 0 -26l-70 -70q41 -48 64 -107.5t23 -127.5q0 -75 -28 -140.5t-77 -114t-114.5 -76.5
t-140.5 -28q-69 0 -128.5 22.5t-106.5 63.5l-67 -66q-5 -5 -13 -4.5t-13 5.5zM518 509q-26 19 -56.5 30t-64.5 11q-41 0 -77 -16t-63 -43.5t-43 -64t-16 -77.5q0 -34 10.5 -64t29.5 -55zM277 191q25 -20 55.5 -30.5t64.5 -10.5q41 0 77.5 16t63.5 43t43 63t16 77
q0 34 -10.5 65t-30.5 56z" />
    <glyph glyph-name="Oslashacute" unicode="&#x1fe;" horiz-adv-x="796" 
d="M57 23q-5 5 -5.5 13t4.5 13l67 66q-40 48 -62.5 107t-22.5 127q0 75 28 141t76.5 114.5t114 77t140.5 28.5q68 0 127.5 -23t107.5 -64l70 69q5 6 13 5.5t13 -5.5l12 -12q14 -12 0 -26l-70 -70q41 -48 64 -107.5t23 -127.5q0 -75 -28 -140.5t-77 -114t-114.5 -76.5
t-140.5 -28q-69 0 -128.5 22.5t-106.5 63.5l-67 -66q-5 -5 -13 -4.5t-13 5.5zM518 509q-26 19 -56.5 30t-64.5 11q-41 0 -77 -16t-63 -43.5t-43 -64t-16 -77.5q0 -34 10.5 -64t29.5 -55zM277 191q25 -20 55.5 -30.5t64.5 -10.5q41 0 77.5 16t63.5 43t43 63t16 77
q0 34 -10.5 65t-30.5 56zM326 762q-10 -6 -16.5 -2.5t-10.5 11.5l-21 42q-3 6 -0.5 11t6.5 8l170 104q5 3 13.5 3.5t12.5 -6.5l34 -59q6 -11 3 -18.5t-9 -11.5z" />
    <glyph glyph-name="OE" unicode="&#x152;" horiz-adv-x="978" 
d="M35 349q0 75 28 141t76.5 114.5t114 77t140.5 28.5q20 0 38.5 -1.5t32.5 -3.5q17 -3 32 -5h414q8 0 13.5 -5.5t5.5 -13.5v-109q0 -8 -5.5 -13.5t-13.5 -5.5h-277v-124h228q8 0 13.5 -5.5t5.5 -13.5v-109q0 -8 -5.5 -13.5t-13.5 -5.5h-228v-135h277q8 0 13.5 -5.5
t5.5 -13.5v-109q0 -8 -5.5 -13.5t-13.5 -5.5h-414q-16 -3 -33 -5q-15 -2 -33 -3.5t-37 -1.5q-75 0 -140.5 28t-114 76.5t-76.5 114t-28 140.5zM195 349q0 -41 16 -77.5t43 -64.5t63 -44t77 -16q23 0 43.5 3.5t40.5 12.5v373q-20 9 -40.5 12.5t-43.5 3.5q-41 0 -77 -16.5
t-63 -44t-43 -64.5t-16 -78z" />
    <glyph glyph-name="Racute" unicode="&#x154;" horiz-adv-x="670" 
d="M86 681q0 8 5.5 13.5t13.5 5.5h299q45 0 84.5 -17t69.5 -46.5t47 -68.5t17 -84q0 -69 -41 -122t-107 -79l137 -254q5 -10 0.5 -19.5t-17.5 -9.5h-133q-6 0 -10 3t-6 6l-133 265h-69v-255q0 -8 -5.5 -13.5t-13.5 -5.5h-119q-8 0 -13.5 5.5t-5.5 13.5v662zM391 401
q31 0 53.5 24t22.5 56t-22.5 54t-53.5 22h-148v-156h148zM253 762q-10 -6 -16.5 -2.5t-10.5 11.5l-21 42q-3 6 -0.5 11t6.5 8l170 104q5 3 13.5 3.5t12.5 -6.5l34 -59q6 -11 3 -18.5t-9 -11.5z" />
    <glyph glyph-name="Rcaron" unicode="&#x158;" horiz-adv-x="670" 
d="M86 681q0 8 5.5 13.5t13.5 5.5h299q45 0 84.5 -17t69.5 -46.5t47 -68.5t17 -84q0 -69 -41 -122t-107 -79l137 -254q5 -10 0.5 -19.5t-17.5 -9.5h-133q-6 0 -10 3t-6 6l-133 265h-69v-255q0 -8 -5.5 -13.5t-13.5 -5.5h-119q-8 0 -13.5 5.5t-5.5 13.5v662zM391 401
q31 0 53.5 24t22.5 56t-22.5 54t-53.5 22h-148v-156h148zM175 866q-4 3 -6.5 8t0.5 11l34 46q9 12 21 5l99 -58l100 58q8 5 12.5 3.5t9.5 -7.5l33 -47q4 -5 1 -10.5t-7 -8.5l-135 -104q-6 -5 -12.5 -4t-11.5 4z" />
    <glyph glyph-name="Rcommaaccent" unicode="&#x156;" horiz-adv-x="669" 
d="M86 681q0 8 5.5 13.5t13.5 5.5h299q45 0 84.5 -17t69.5 -46.5t47 -68.5t17 -84q0 -69 -41 -122t-107 -79l137 -254q5 -10 0.5 -19.5t-17.5 -9.5h-133q-6 0 -10 3t-6 6l-133 265h-69v-255q0 -8 -5.5 -13.5t-13.5 -5.5h-119q-8 0 -13.5 5.5t-5.5 13.5v662zM391 401
q31 0 53.5 24t22.5 56t-22.5 54t-53.5 22h-148v-156h148zM343 -90q14 0 30 -6t29.5 -19.5t22.5 -35.5t9 -55q0 -39 -11.5 -69.5t-26.5 -52.5t-30.5 -36t-24.5 -21q-5 -4 -10.5 -4.5t-11.5 6.5l-15 15q-5 6 -4.5 12t5.5 10q4 3 15.5 12.5t23.5 25t22 36t10 46.5q-5 -2 -11 -4
q-11 -3 -29 -3q-29 0 -50.5 20.5t-21.5 50.5q0 29 22 50.5t57 21.5z" />
    <glyph glyph-name="Sacute" unicode="&#x15a;" horiz-adv-x="548" 
d="M51 67q-8 8 -9.5 12.5t4.5 15.5l47 83q6 10 17.5 10t16.5 -4q1 -1 14.5 -9.5t33.5 -18.5t44.5 -18.5t49.5 -8.5q30 0 49.5 17t19.5 43q0 32 -26 56.5t-77 44.5q-32 13 -66.5 32t-63 46t-46.5 62.5t-18 80.5q0 37 14.5 73t43.5 64t72 45t101 17q39 0 73 -8.5t61.5 -20.5
t48 -25t31.5 -21q9 -5 9 -16t-3 -16l-51 -77q-5 -8 -16 -13t-18 0l-17.5 11.5t-34.5 20.5t-44 19.5t-47 8.5q-27 0 -45 -15.5t-18 -35.5q0 -28 24.5 -50.5t84.5 -46.5q29 -12 64.5 -30t66 -45t51 -64.5t20.5 -88.5q0 -39 -16 -76t-46.5 -66t-74.5 -47t-99 -18q-49 0 -87 9
t-65.5 21t-45.5 25t-27 22zM202 762q-10 -6 -16.5 -2.5t-10.5 11.5l-21 42q-3 6 -0.5 11t6.5 8l170 104q5 3 13.5 3.5t12.5 -6.5l34 -59q6 -11 3 -18.5t-9 -11.5z" />
    <glyph glyph-name="Scircumflex" unicode="&#x15c;" horiz-adv-x="548" 
d="M51 67q-8 8 -9.5 12.5t4.5 15.5l47 83q6 10 17.5 10t16.5 -4q1 -1 14.5 -9.5t33.5 -18.5t44.5 -18.5t49.5 -8.5q30 0 49.5 17t19.5 43q0 32 -26 56.5t-77 44.5q-32 13 -66.5 32t-63 46t-46.5 62.5t-18 80.5q0 37 14.5 73t43.5 64t72 45t101 17q39 0 73 -8.5t61.5 -20.5
t48 -25t31.5 -21q9 -5 9 -16t-3 -16l-51 -77q-5 -8 -16 -13t-18 0l-17.5 11.5t-34.5 20.5t-44 19.5t-47 8.5q-27 0 -45 -15.5t-18 -35.5q0 -28 24.5 -50.5t84.5 -46.5q29 -12 64.5 -30t66 -45t51 -64.5t20.5 -88.5q0 -39 -16 -76t-46.5 -66t-74.5 -47t-99 -18q-49 0 -87 9
t-65.5 21t-45.5 25t-27 22zM174 762q-8 -5 -12.5 -3.5t-9.5 7.5l-33 47q-4 5 -1 10.5t7 8.5l135 104q6 5 12.5 4t11.5 -4l138 -104q4 -3 6.5 -8t-0.5 -11l-34 -46q-9 -12 -21 -5l-99 58z" />
    <glyph glyph-name="Scaron" unicode="&#x160;" horiz-adv-x="548" 
d="M51 67q-8 8 -9.5 12.5t4.5 15.5l47 83q6 10 17.5 10t16.5 -4q1 -1 14.5 -9.5t33.5 -18.5t44.5 -18.5t49.5 -8.5q30 0 49.5 17t19.5 43q0 32 -26 56.5t-77 44.5q-32 13 -66.5 32t-63 46t-46.5 62.5t-18 80.5q0 37 14.5 73t43.5 64t72 45t101 17q39 0 73 -8.5t61.5 -20.5
t48 -25t31.5 -21q9 -5 9 -16t-3 -16l-51 -77q-5 -8 -16 -13t-18 0l-17.5 11.5t-34.5 20.5t-44 19.5t-47 8.5q-27 0 -45 -15.5t-18 -35.5q0 -28 24.5 -50.5t84.5 -46.5q29 -12 64.5 -30t66 -45t51 -64.5t20.5 -88.5q0 -39 -16 -76t-46.5 -66t-74.5 -47t-99 -18q-49 0 -87 9
t-65.5 21t-45.5 25t-27 22zM124 866q-4 3 -6.5 8t0.5 11l34 46q9 12 21 5l99 -58l100 58q8 5 12.5 3.5t9.5 -7.5l33 -47q4 -5 1 -10.5t-7 -8.5l-135 -104q-6 -5 -12.5 -4t-11.5 4z" />
    <glyph glyph-name="Scedilla" unicode="&#x15e;" horiz-adv-x="550" 
d="M52 67q-8 8 -9.5 12.5t4.5 15.5l47 83q6 10 17.5 10t16.5 -4q1 -1 14.5 -9.5t33.5 -18.5t44.5 -18.5t49.5 -8.5q30 0 49.5 17t19.5 43q0 32 -26 56.5t-77 44.5q-32 13 -66.5 32t-63 46t-46.5 62.5t-18 80.5q0 37 14.5 73t43.5 64t72 45t101 17q39 0 73 -8.5t61.5 -20.5
t48 -25t31.5 -21q9 -5 9 -16t-3 -16l-51 -77q-5 -8 -16 -13t-18 0l-17.5 11.5t-34.5 20.5t-44 19.5t-47 8.5q-27 0 -45 -15.5t-18 -35.5q0 -28 24.5 -50.5t84.5 -46.5q29 -12 64.5 -30t66 -45t51 -64.5t20.5 -88.5q0 -38 -16 -75t-45.5 -66t-72.5 -47t-97 -19v-42
q46 -6 69 -33.5t23 -68.5q0 -22 -8.5 -41t-22.5 -33.5t-33.5 -23t-41.5 -8.5q-23 0 -43 10t-33 25q-13 14 4 29l23 20q5 5 11 4t10 -6t11 -7t13 -2q12 0 21 10t9 22q0 5 -2 12t-9 13t-20.5 11t-36.5 6q-11 2 -14 8t-3 10v91q-33 5 -59 14t-45.5 19.5t-32.5 20.5t-20 17z" />
    <glyph glyph-name="Scommaaccent" unicode="&#x218;" horiz-adv-x="548" 
d="M51 67q-8 8 -9.5 12.5t4.5 15.5l47 83q6 10 17.5 10t16.5 -4q1 -1 14.5 -9.5t33.5 -18.5t44.5 -18.5t49.5 -8.5q30 0 49.5 17t19.5 43q0 32 -26 56.5t-77 44.5q-32 13 -66.5 32t-63 46t-46.5 62.5t-18 80.5q0 37 14.5 73t43.5 64t72 45t101 17q39 0 73 -8.5t61.5 -20.5
t48 -25t31.5 -21q9 -5 9 -16t-3 -16l-51 -77q-5 -8 -16 -13t-18 0l-17.5 11.5t-34.5 20.5t-44 19.5t-47 8.5q-27 0 -45 -15.5t-18 -35.5q0 -28 24.5 -50.5t84.5 -46.5q29 -12 64.5 -30t66 -45t51 -64.5t20.5 -88.5q0 -39 -16 -76t-46.5 -66t-74.5 -47t-99 -18q-49 0 -87 9
t-65.5 21t-45.5 25t-27 22zM285 -90q14 0 30 -6t29.5 -19.5t22.5 -35.5t9 -55q0 -39 -11.5 -69.5t-26.5 -52.5t-30.5 -36t-24.5 -21q-5 -4 -10.5 -4.5t-11.5 6.5l-15 15q-5 6 -4.5 12t5.5 10q4 3 15.5 12.5t23.5 25t22 36t10 46.5q-5 -2 -11 -4q-11 -3 -29 -3
q-29 0 -50.5 20.5t-21.5 50.5q0 29 22 50.5t57 21.5z" />
    <glyph glyph-name="Tcaron" unicode="&#x164;" 
d="M176 553h-143q-8 0 -13.5 5.5t-5.5 13.5v109q0 8 5.5 13.5t13.5 5.5h444q8 0 13.5 -5.5t5.5 -13.5v-109q0 -8 -5.5 -13.5t-13.5 -5.5h-143v-534q0 -8 -5.5 -13.5t-13.5 -5.5h-120q-8 0 -13.5 5.5t-5.5 13.5v534zM106 866q-4 3 -6.5 8t0.5 11l34 46q9 12 21 5l99 -58
l100 58q8 5 12.5 3.5t9.5 -7.5l33 -47q4 -5 1 -10.5t-7 -8.5l-135 -104q-6 -5 -12.5 -4t-11.5 4z" />
    <glyph glyph-name="Tcommaaccent" unicode="&#x162;" horiz-adv-x="508" 
d="M175 553h-143q-8 0 -13.5 5.5t-5.5 13.5v109q0 8 5.5 13.5t13.5 5.5h444q8 0 13.5 -5.5t5.5 -13.5v-109q0 -8 -5.5 -13.5t-13.5 -5.5h-143v-534q0 -8 -5.5 -13.5t-13.5 -5.5h-120q-8 0 -13.5 5.5t-5.5 13.5v534zM243 -90q14 0 30 -6t29.5 -19.5t22.5 -35.5t9 -55
q0 -39 -11.5 -69.5t-26.5 -52.5t-30.5 -36t-24.5 -21q-5 -4 -10.5 -4.5t-11.5 6.5l-15 15q-5 6 -4.5 12t5.5 10q4 3 15.5 12.5t23.5 25t22 36t10 46.5q-5 -2 -11 -4q-11 -3 -29 -3q-29 0 -50.5 20.5t-21.5 50.5q0 29 22 50.5t57 21.5z" />
    <glyph glyph-name="uni021A" unicode="&#x21a;" horiz-adv-x="508" 
d="M175 553h-143q-8 0 -13.5 5.5t-5.5 13.5v109q0 8 5.5 13.5t13.5 5.5h444q8 0 13.5 -5.5t5.5 -13.5v-109q0 -8 -5.5 -13.5t-13.5 -5.5h-143v-534q0 -8 -5.5 -13.5t-13.5 -5.5h-120q-8 0 -13.5 5.5t-5.5 13.5v534zM243 -90q14 0 30 -6t29.5 -19.5t22.5 -35.5t9 -55
q0 -39 -11.5 -69.5t-26.5 -52.5t-30.5 -36t-24.5 -21q-5 -4 -10.5 -4.5t-11.5 6.5l-15 15q-5 6 -4.5 12t5.5 10q4 3 15.5 12.5t23.5 25t22 36t10 46.5q-5 -2 -11 -4q-11 -3 -29 -3q-29 0 -50.5 20.5t-21.5 50.5q0 29 22 50.5t57 21.5z" />
    <glyph glyph-name="Tbar" unicode="&#x166;" 
d="M176 289h-82q-8 0 -13 5.5t-5 13.5v17q0 8 5 13.5t13 5.5h82v209h-143q-8 0 -13.5 5.5t-5.5 13.5v109q0 8 5.5 13.5t13.5 5.5h444q8 0 13.5 -5.5t5.5 -13.5v-109q0 -8 -5.5 -13.5t-13.5 -5.5h-143v-209h87q8 0 13.5 -5.5t5.5 -13.5v-18q0 -8 -5.5 -13t-13.5 -5h-87v-270
q0 -8 -5.5 -13.5t-13.5 -5.5h-120q-8 0 -13.5 5.5t-5.5 13.5v270z" />
    <glyph glyph-name="Thorn" unicode="&#xde;" horiz-adv-x="586" 
d="M86 681q0 8 5.5 13.5t13.5 5.5h118q8 0 13.5 -5.5t5.5 -13.5v-108h104q46 0 87 -17.5t71.5 -47.5t48 -70.5t17.5 -85.5q0 -47 -17.5 -87.5t-48 -71.5t-71 -48.5t-86.5 -17.5h-105v-108q0 -8 -5.5 -13.5t-13.5 -5.5h-118q-8 0 -13.5 5.5t-5.5 13.5v662zM337 273
q32 0 55.5 22.5t23.5 56.5q0 32 -23.5 53t-55.5 21h-95v-153h95z" />
    <glyph glyph-name="Ugrave" unicode="&#xd9;" horiz-adv-x="722" 
d="M76 681q0 8 5.5 13.5t13.5 5.5h123q8 0 13.5 -5.5t5.5 -13.5v-405q0 -26 9 -49t25.5 -40t39 -27t49.5 -10t50 10t39.5 27t26 40t9.5 49v405q0 8 5.5 13.5t13.5 5.5h123q8 0 13.5 -5.5t5.5 -13.5v-413q0 -57 -22.5 -107.5t-61.5 -88.5t-91 -60t-111 -22t-110.5 22t-90 60
t-61 88.5t-22.5 107.5v413zM250 844q-6 4 -9 11.5t3 18.5l34 59q4 7 12.5 6.5t13.5 -3.5l170 -104q4 -3 6.5 -8t-0.5 -11l-21 -42q-4 -8 -10.5 -11.5t-16.5 2.5z" />
    <glyph glyph-name="Uacute" unicode="&#xda;" horiz-adv-x="722" 
d="M76 681q0 8 5.5 13.5t13.5 5.5h123q8 0 13.5 -5.5t5.5 -13.5v-405q0 -26 9 -49t25.5 -40t39 -27t49.5 -10t50 10t39.5 27t26 40t9.5 49v405q0 8 5.5 13.5t13.5 5.5h123q8 0 13.5 -5.5t5.5 -13.5v-413q0 -57 -22.5 -107.5t-61.5 -88.5t-91 -60t-111 -22t-110.5 22t-90 60
t-61 88.5t-22.5 107.5v413zM290 762q-10 -6 -16.5 -2.5t-10.5 11.5l-21 42q-3 6 -0.5 11t6.5 8l170 104q5 3 13.5 3.5t12.5 -6.5l34 -59q6 -11 3 -18.5t-9 -11.5z" />
    <glyph glyph-name="Ucircumflex" unicode="&#xdb;" horiz-adv-x="722" 
d="M76 681q0 8 5.5 13.5t13.5 5.5h123q8 0 13.5 -5.5t5.5 -13.5v-405q0 -26 9 -49t25.5 -40t39 -27t49.5 -10t50 10t39.5 27t26 40t9.5 49v405q0 8 5.5 13.5t13.5 5.5h123q8 0 13.5 -5.5t5.5 -13.5v-413q0 -57 -22.5 -107.5t-61.5 -88.5t-91 -60t-111 -22t-110.5 22t-90 60
t-61 88.5t-22.5 107.5v413zM261 762q-8 -5 -12.5 -3.5t-9.5 7.5l-33 47q-4 5 -1 10.5t7 8.5l135 104q6 5 12.5 4t11.5 -4l138 -104q4 -3 6.5 -8t-0.5 -11l-34 -46q-9 -12 -21 -5l-99 58z" />
    <glyph glyph-name="Utilde" unicode="&#x168;" horiz-adv-x="722" 
d="M76 681q0 8 5.5 13.5t13.5 5.5h123q8 0 13.5 -5.5t5.5 -13.5v-405q0 -26 9 -49t25.5 -40t39 -27t49.5 -10t50 10t39.5 27t26 40t9.5 49v405q0 8 5.5 13.5t13.5 5.5h123q8 0 13.5 -5.5t5.5 -13.5v-413q0 -57 -22.5 -107.5t-61.5 -88.5t-91 -60t-111 -22t-110.5 22t-90 60
t-61 88.5t-22.5 107.5v413zM209 813q-5 4 -6.5 11t0.5 12q4 7 13.5 21t23.5 28t32 24.5t38 10.5q18 0 31.5 -7.5t25.5 -16t24 -16t27 -7.5q12 0 22.5 11.5t15.5 19.5q4 6 10.5 7.5t14.5 -5.5l34 -26q14 -10 1 -29l-12.5 -19t-21.5 -26t-29.5 -23t-36.5 -10t-34.5 7.5
t-27 16.5t-24 16.5t-24.5 7.5q-7 0 -12.5 -4t-10.5 -9.5t-9.5 -11.5l-7.5 -10q-9 -9 -22 -1z" />
    <glyph glyph-name="Udieresis" unicode="&#xdc;" horiz-adv-x="722" 
d="M76 681q0 8 5.5 13.5t13.5 5.5h123q8 0 13.5 -5.5t5.5 -13.5v-405q0 -26 9 -49t25.5 -40t39 -27t49.5 -10t50 10t39.5 27t26 40t9.5 49v405q0 8 5.5 13.5t13.5 5.5h123q8 0 13.5 -5.5t5.5 -13.5v-413q0 -57 -22.5 -107.5t-61.5 -88.5t-91 -60t-111 -22t-110.5 22t-90 60
t-61 88.5t-22.5 107.5v413zM492 768q-29 0 -49.5 21t-20.5 50t20.5 49.5t49.5 20.5t50 -20.5t21 -49.5t-21 -50t-50 -21zM227 768q-29 0 -49.5 21t-20.5 50t20.5 49.5t49.5 20.5t50 -20.5t21 -49.5t-21 -50t-50 -21z" />
    <glyph glyph-name="Umacron" unicode="&#x16a;" horiz-adv-x="722" 
d="M76 681q0 8 5.5 13.5t13.5 5.5h123q8 0 13.5 -5.5t5.5 -13.5v-405q0 -26 9 -49t25.5 -40t39 -27t49.5 -10t50 10t39.5 27t26 40t9.5 49v405q0 8 5.5 13.5t13.5 5.5h123q8 0 13.5 -5.5t5.5 -13.5v-413q0 -57 -22.5 -107.5t-61.5 -88.5t-91 -60t-111 -22t-110.5 22t-90 60
t-61 88.5t-22.5 107.5v413zM233 801q-8 0 -13.5 5t-5.5 13v41q0 19 19 19h256q19 0 19 -19v-41q0 -8 -5.5 -13t-13.5 -5h-256z" />
    <glyph glyph-name="Ubreve" unicode="&#x16c;" horiz-adv-x="722" 
d="M76 681q0 8 5.5 13.5t13.5 5.5h123q8 0 13.5 -5.5t5.5 -13.5v-405q0 -26 9 -49t25.5 -40t39 -27t49.5 -10t50 10t39.5 27t26 40t9.5 49v405q0 8 5.5 13.5t13.5 5.5h123q8 0 13.5 -5.5t5.5 -13.5v-413q0 -57 -22.5 -107.5t-61.5 -88.5t-91 -60t-111 -22t-110.5 22t-90 60
t-61 88.5t-22.5 107.5v413zM361 763q-56 0 -95 34.5t-47 85.5q-2 9 3.5 15.5t15.5 6.5h45q6 0 10.5 -3.5t6.5 -8.5q7 -20 23 -34t38 -14q20 0 36 15t23 33q2 5 7 8.5t10 3.5h47q9 0 14.5 -6.5t4.5 -15.5q-4 -26 -16.5 -47.5t-31.5 -38t-43 -25.5t-51 -9z" />
    <glyph glyph-name="Uring" unicode="&#x16e;" horiz-adv-x="722" 
d="M76 681q0 8 5.5 13.5t13.5 5.5h123q8 0 13.5 -5.5t5.5 -13.5v-405q0 -26 9 -49t25.5 -40t39 -27t49.5 -10t50 10t39.5 27t26 40t9.5 49v405q0 8 5.5 13.5t13.5 5.5h123q8 0 13.5 -5.5t5.5 -13.5v-413q0 -57 -22.5 -107.5t-61.5 -88.5t-91 -60t-111 -22t-110.5 22t-90 60
t-61 88.5t-22.5 107.5v413zM361 752q-24 0 -45 9t-36.5 24.5t-24.5 36.5t-9 45t9 45t24.5 36.5t36.5 24.5t45 9t44.5 -9t36.5 -24.5t25 -36.5t9 -45t-9 -45t-25 -36.5t-36.5 -24.5t-44.5 -9zM361 823q17 0 30 13.5t13 30.5t-13 30t-30 13t-30.5 -13t-13.5 -30t13.5 -30.5
t30.5 -13.5z" />
    <glyph glyph-name="Uhungarumlaut" unicode="&#x170;" horiz-adv-x="722" 
d="M76 681q0 8 5.5 13.5t13.5 5.5h123q8 0 13.5 -5.5t5.5 -13.5v-405q0 -26 9 -49t25.5 -40t39 -27t49.5 -10t50 10t39.5 27t26 40t9.5 49v405q0 8 5.5 13.5t13.5 5.5h123q8 0 13.5 -5.5t5.5 -13.5v-413q0 -57 -22.5 -107.5t-61.5 -88.5t-91 -60t-111 -22t-110.5 22t-90 60
t-61 88.5t-22.5 107.5v413zM422 768q-8 0 -14.5 5.5t-4.5 13.5l30 141q2 8 6.5 13.5t12.5 5.5h94q14 0 19 -8t-1 -17l-78 -139q-4 -5 -8.5 -10t-9.5 -5h-46zM256 768q-8 0 -14.5 5.5t-4.5 13.5l30 141q2 8 6.5 13.5t12.5 5.5h94q14 0 18.5 -7.5t-0.5 -17.5l-78 -139
q-3 -6 -8 -10.5t-10 -4.5h-46z" />
    <glyph glyph-name="Uogonek" unicode="&#x172;" horiz-adv-x="727" 
d="M79 681q0 8 5.5 13.5t13.5 5.5h123q8 0 13.5 -5.5t5.5 -13.5v-405q0 -26 9 -49t25.5 -40t39 -27t49.5 -10t50 10t39.5 27t26 40t9.5 49v405q0 8 5.5 13.5t13.5 5.5h123q8 0 13.5 -5.5t5.5 -13.5v-413q0 -54 -20 -102t-55 -85t-82.5 -60.5t-101.5 -28.5q-13 -15 -25 -37.5
t-12 -49.5t16.5 -47t53.5 -20q13 0 23 2t18 4q10 2 16 -4t6 -15v-33q0 -7 -4.5 -12t-10.5 -7l-21 -4q-9 -2 -20 -3t-22 -1q-29 0 -54 7t-43.5 21t-29.5 35.5t-11 50.5q0 39 16 68t33 46q-51 8 -95 32.5t-76 61t-50.5 83t-18.5 98.5v413z" />
    <glyph glyph-name="Wacute" unicode="&#x1e82;" horiz-adv-x="896" 
d="M24 676q-3 11 2 17.5t16 6.5h117q6 0 11 -4.5t7 -9.5l86 -339h4l155 352q5 11 17 11h18q13 0 17 -11l155 -352h4l86 339q2 5 7 9.5t11 4.5h117q11 0 16 -6.5t2 -17.5l-189 -672q-4 -14 -18 -14h-16q-12 0 -17 11l-183 409h-3l-182 -409q-6 -11 -17 -11h-16q-6 0 -11 4
t-7 10zM375 762q-10 -6 -16.5 -2.5t-10.5 11.5l-21 42q-3 6 -0.5 11t6.5 8l170 104q5 3 13.5 3.5t12.5 -6.5l34 -59q6 -11 3 -18.5t-9 -11.5z" />
    <glyph glyph-name="Wcircumflex" unicode="&#x174;" horiz-adv-x="896" 
d="M24 676q-3 11 2 17.5t16 6.5h117q6 0 11 -4.5t7 -9.5l86 -339h4l155 352q5 11 17 11h18q13 0 17 -11l155 -352h4l86 339q2 5 7 9.5t11 4.5h117q11 0 16 -6.5t2 -17.5l-189 -672q-4 -14 -18 -14h-16q-12 0 -17 11l-183 409h-3l-182 -409q-6 -11 -17 -11h-16q-6 0 -11 4
t-7 10zM347 762q-8 -5 -12.5 -3.5t-9.5 7.5l-33 47q-4 5 -1 10.5t7 8.5l135 104q6 5 12.5 4t11.5 -4l138 -104q4 -3 6.5 -8t-0.5 -11l-34 -46q-9 -12 -21 -5l-99 58z" />
    <glyph glyph-name="Wdieresis" unicode="&#x1e84;" horiz-adv-x="896" 
d="M24 676q-3 11 2 17.5t16 6.5h117q6 0 11 -4.5t7 -9.5l86 -339h4l155 352q5 11 17 11h18q13 0 17 -11l155 -352h4l86 339q2 5 7 9.5t11 4.5h117q11 0 16 -6.5t2 -17.5l-189 -672q-4 -14 -18 -14h-16q-12 0 -17 11l-183 409h-3l-182 -409q-6 -11 -17 -11h-16q-6 0 -11 4
t-7 10zM578 768q-29 0 -49.5 21t-20.5 50t20.5 49.5t49.5 20.5t50 -20.5t21 -49.5t-21 -50t-50 -21zM313 768q-29 0 -49.5 21t-20.5 50t20.5 49.5t49.5 20.5t50 -20.5t21 -49.5t-21 -50t-50 -21z" />
    <glyph glyph-name="Wgrave" unicode="&#x1e80;" horiz-adv-x="896" 
d="M24 676q-3 11 2 17.5t16 6.5h117q6 0 11 -4.5t7 -9.5l86 -339h4l155 352q5 11 17 11h18q13 0 17 -11l155 -352h4l86 339q2 5 7 9.5t11 4.5h117q11 0 16 -6.5t2 -17.5l-189 -672q-4 -14 -18 -14h-16q-12 0 -17 11l-183 409h-3l-182 -409q-6 -11 -17 -11h-16q-6 0 -11 4
t-7 10zM336 844q-6 4 -9 11.5t3 18.5l34 59q4 7 12.5 6.5t13.5 -3.5l170 -104q4 -3 6.5 -8t-0.5 -11l-21 -42q-4 -8 -10.5 -11.5t-16.5 2.5z" />
    <glyph glyph-name="Yacute" unicode="&#xdd;" horiz-adv-x="590" 
d="M215 337l-221 334q-6 10 -1 19.5t17 9.5h130q6 0 10 -3t6 -6l139 -205l139 205q2 3 5.5 6t10.5 3h130q12 0 17 -9.5t-1 -19.5l-224 -333v-319q0 -8 -5.5 -13.5t-13.5 -5.5h-119q-8 0 -13.5 5.5t-5.5 13.5v318zM224 762q-10 -6 -16.5 -2.5t-10.5 11.5l-21 42q-3 6 -0.5 11
t6.5 8l170 104q5 3 13.5 3.5t12.5 -6.5l34 -59q6 -11 3 -18.5t-9 -11.5z" />
    <glyph glyph-name="Ycircumflex" unicode="&#x176;" horiz-adv-x="590" 
d="M215 337l-221 334q-6 10 -1 19.5t17 9.5h130q6 0 10 -3t6 -6l139 -205l139 205q2 3 5.5 6t10.5 3h130q12 0 17 -9.5t-1 -19.5l-224 -333v-319q0 -8 -5.5 -13.5t-13.5 -5.5h-119q-8 0 -13.5 5.5t-5.5 13.5v318zM196 762q-8 -5 -12.5 -3.5t-9.5 7.5l-33 47q-4 5 -1 10.5
t7 8.5l135 104q6 5 12.5 4t11.5 -4l138 -104q4 -3 6.5 -8t-0.5 -11l-34 -46q-9 -12 -21 -5l-99 58z" />
    <glyph glyph-name="Ydieresis" unicode="&#x178;" horiz-adv-x="590" 
d="M215 337l-221 334q-6 10 -1 19.5t17 9.5h130q6 0 10 -3t6 -6l139 -205l139 205q2 3 5.5 6t10.5 3h130q12 0 17 -9.5t-1 -19.5l-224 -333v-319q0 -8 -5.5 -13.5t-13.5 -5.5h-119q-8 0 -13.5 5.5t-5.5 13.5v318zM427 768q-29 0 -49.5 21t-20.5 50t20.5 49.5t49.5 20.5
t50 -20.5t21 -49.5t-21 -50t-50 -21zM162 768q-29 0 -49.5 21t-20.5 50t20.5 49.5t49.5 20.5t50 -20.5t21 -49.5t-21 -50t-50 -21z" />
    <glyph glyph-name="Ygrave" unicode="&#x1ef2;" horiz-adv-x="590" 
d="M215 337l-221 334q-6 10 -1 19.5t17 9.5h130q6 0 10 -3t6 -6l139 -205l139 205q2 3 5.5 6t10.5 3h130q12 0 17 -9.5t-1 -19.5l-224 -333v-319q0 -8 -5.5 -13.5t-13.5 -5.5h-119q-8 0 -13.5 5.5t-5.5 13.5v318zM184 844q-6 4 -9 11.5t3 18.5l34 59q4 7 12.5 6.5t13.5 -3.5
l170 -104q4 -3 6.5 -8t-0.5 -11l-21 -42q-4 -8 -10.5 -11.5t-16.5 2.5z" />
    <glyph glyph-name="Zacute" unicode="&#x179;" horiz-adv-x="542" 
d="M23 37l266 514v2h-218q-8 0 -13.5 5.5t-5.5 13.5v109q0 8 5.5 13.5t13.5 5.5h425q8 0 13.5 -5.5t5.5 -13.5v-13l-257 -519v-2h218q8 0 13.5 -5.5t5.5 -13.5v-109q0 -8 -5.5 -13.5t-13.5 -5.5h-434q-8 0 -13.5 5.5t-5.5 13.5v18zM208 762q-10 -6 -16.5 -2.5t-10.5 11.5
l-21 42q-3 6 -0.5 11t6.5 8l170 104q5 3 13.5 3.5t12.5 -6.5l34 -59q6 -11 3 -18.5t-9 -11.5z" />
    <glyph glyph-name="Zcaron" unicode="&#x17d;" horiz-adv-x="542" 
d="M23 37l266 514v2h-218q-8 0 -13.5 5.5t-5.5 13.5v109q0 8 5.5 13.5t13.5 5.5h425q8 0 13.5 -5.5t5.5 -13.5v-13l-257 -519v-2h218q8 0 13.5 -5.5t5.5 -13.5v-109q0 -8 -5.5 -13.5t-13.5 -5.5h-434q-8 0 -13.5 5.5t-5.5 13.5v18zM130 866q-4 3 -6.5 8t0.5 11l34 46
q9 12 21 5l99 -58l100 58q8 5 12.5 3.5t9.5 -7.5l33 -47q4 -5 1 -10.5t-7 -8.5l-135 -104q-6 -5 -12.5 -4t-11.5 4z" />
    <glyph glyph-name="Zdotaccent" unicode="&#x17b;" horiz-adv-x="542" 
d="M23 37l266 514v2h-218q-8 0 -13.5 5.5t-5.5 13.5v109q0 8 5.5 13.5t13.5 5.5h425q8 0 13.5 -5.5t5.5 -13.5v-13l-257 -519v-2h218q8 0 13.5 -5.5t5.5 -13.5v-109q0 -8 -5.5 -13.5t-13.5 -5.5h-434q-8 0 -13.5 5.5t-5.5 13.5v18zM279 774q-33 0 -56 23t-23 56t23 56.5
t56 23.5t56.5 -23.5t23.5 -56.5t-23.5 -56t-56.5 -23z" />
    <glyph glyph-name="agrave" unicode="&#xe0;" horiz-adv-x="429" 
d="M27 122q0 58 39 96t108 38q17 0 30.5 -2.5t24.5 -5.5q12 -4 22 -8q0 29 -9 44t-45 15q-10 0 -23.5 -1t-27 -3.5l-26.5 -5t-23 -5.5q-11 -4 -16.5 3t-7.5 18l-9 63q-2 13 3 19t12 8q3 1 17 3.5t33 5t41 4.5t42 2q93 0 131 -41t38 -129v-221q0 -8 -5.5 -13.5t-13.5 -5.5
h-44q-5 0 -9.5 2.5t-8.5 10.5l-14 27q-17 -16 -45.5 -33t-75.5 -17q-30 0 -55 9.5t-43.5 27t-29 41.5t-10.5 54zM157 132q0 -18 12.5 -31t30.5 -13t31 13t13 31q-1 17 -13.5 29.5t-30.5 12.5t-30.5 -12.5t-12.5 -29.5zM118 534q-6 4 -9 11.5t3 18.5l34 59q4 7 12.5 6.5
t13.5 -3.5l170 -104q4 -3 6.5 -8t-0.5 -11l-21 -42q-4 -8 -10.5 -11.5t-16.5 2.5z" />
    <glyph glyph-name="aacute" unicode="&#xe1;" horiz-adv-x="429" 
d="M27 122q0 58 39 96t108 38q17 0 30.5 -2.5t24.5 -5.5q12 -4 22 -8q0 29 -9 44t-45 15q-10 0 -23.5 -1t-27 -3.5l-26.5 -5t-23 -5.5q-11 -4 -16.5 3t-7.5 18l-9 63q-2 13 3 19t12 8q3 1 17 3.5t33 5t41 4.5t42 2q93 0 131 -41t38 -129v-221q0 -8 -5.5 -13.5t-13.5 -5.5
h-44q-5 0 -9.5 2.5t-8.5 10.5l-14 27q-17 -16 -45.5 -33t-75.5 -17q-30 0 -55 9.5t-43.5 27t-29 41.5t-10.5 54zM157 132q0 -18 12.5 -31t30.5 -13t31 13t13 31q-1 17 -13.5 29.5t-30.5 12.5t-30.5 -12.5t-12.5 -29.5zM148 462q-10 -6 -16.5 -2.5t-10.5 11.5l-21 42
q-3 6 -0.5 11t6.5 8l170 104q5 3 13.5 3.5t12.5 -6.5l34 -59q6 -11 3 -18.5t-9 -11.5z" />
    <glyph glyph-name="acircumflex" unicode="&#xe2;" horiz-adv-x="429" 
d="M27 122q0 58 39 96t108 38q17 0 30.5 -2.5t24.5 -5.5q12 -4 22 -8q0 29 -9 44t-45 15q-10 0 -23.5 -1t-27 -3.5l-26.5 -5t-23 -5.5q-11 -4 -16.5 3t-7.5 18l-9 63q-2 13 3 19t12 8q3 1 17 3.5t33 5t41 4.5t42 2q93 0 131 -41t38 -129v-221q0 -8 -5.5 -13.5t-13.5 -5.5
h-44q-5 0 -9.5 2.5t-8.5 10.5l-14 27q-17 -16 -45.5 -33t-75.5 -17q-30 0 -55 9.5t-43.5 27t-29 41.5t-10.5 54zM157 132q0 -18 12.5 -31t30.5 -13t31 13t13 31q-1 17 -13.5 29.5t-30.5 12.5t-30.5 -12.5t-12.5 -29.5zM120 462q-8 -5 -12.5 -3.5t-9.5 7.5l-33 47
q-4 5 -1 10.5t7 8.5l135 104q6 5 12.5 4t11.5 -4l138 -104q4 -3 6.5 -8t-0.5 -11l-34 -46q-9 -12 -21 -5l-99 58z" />
    <glyph glyph-name="atilde" unicode="&#xe3;" horiz-adv-x="429" 
d="M27 122q0 58 39 96t108 38q17 0 30.5 -2.5t24.5 -5.5q12 -4 22 -8q0 29 -9 44t-45 15q-10 0 -23.5 -1t-27 -3.5l-26.5 -5t-23 -5.5q-11 -4 -16.5 3t-7.5 18l-9 63q-2 13 3 19t12 8q3 1 17 3.5t33 5t41 4.5t42 2q93 0 131 -41t38 -129v-221q0 -8 -5.5 -13.5t-13.5 -5.5
h-44q-5 0 -9.5 2.5t-8.5 10.5l-14 27q-17 -16 -45.5 -33t-75.5 -17q-30 0 -55 9.5t-43.5 27t-29 41.5t-10.5 54zM157 132q0 -18 12.5 -31t30.5 -13t31 13t13 31q-1 17 -13.5 29.5t-30.5 12.5t-30.5 -12.5t-12.5 -29.5zM60 513q-5 4 -6.5 11t0.5 12q4 7 13.5 21t23.5 28
t32 24.5t38 10.5q18 0 31.5 -7.5t25.5 -16t24 -16t27 -7.5q12 0 22.5 11.5t15.5 19.5q4 6 10.5 7.5t14.5 -5.5l34 -26q14 -10 1 -29l-12.5 -19t-21.5 -26t-29.5 -23t-36.5 -10t-34.5 7.5t-27 16.5t-24 16.5t-24.5 7.5q-7 0 -12.5 -4t-10.5 -9.5t-9.5 -11.5l-7.5 -10
q-9 -9 -22 -1z" />
    <glyph glyph-name="adieresis" unicode="&#xe4;" horiz-adv-x="429" 
d="M27 122q0 58 39 96t108 38q17 0 30.5 -2.5t24.5 -5.5q12 -4 22 -8q0 29 -9 44t-45 15q-10 0 -23.5 -1t-27 -3.5l-26.5 -5t-23 -5.5q-11 -4 -16.5 3t-7.5 18l-9 63q-2 13 3 19t12 8q3 1 17 3.5t33 5t41 4.5t42 2q93 0 131 -41t38 -129v-221q0 -8 -5.5 -13.5t-13.5 -5.5
h-44q-5 0 -9.5 2.5t-8.5 10.5l-14 27q-17 -16 -45.5 -33t-75.5 -17q-30 0 -55 9.5t-43.5 27t-29 41.5t-10.5 54zM157 132q0 -18 12.5 -31t30.5 -13t31 13t13 31q-1 17 -13.5 29.5t-30.5 12.5t-30.5 -12.5t-12.5 -29.5zM321 535q-29 0 -49.5 21t-20.5 50t20.5 49.5t49.5 20.5
t50 -20.5t21 -49.5t-21 -50t-50 -21zM116 535q-29 0 -49.5 21t-20.5 50t20.5 49.5t49.5 20.5t50 -20.5t21 -49.5t-21 -50t-50 -21z" />
    <glyph glyph-name="amacron" unicode="&#x101;" horiz-adv-x="429" 
d="M27 122q0 58 39 96t108 38q17 0 30.5 -2.5t24.5 -5.5q12 -4 22 -8q0 29 -9 44t-45 15q-10 0 -23.5 -1t-27 -3.5l-26.5 -5t-23 -5.5q-11 -4 -16.5 3t-7.5 18l-9 63q-2 13 3 19t12 8q3 1 17 3.5t33 5t41 4.5t42 2q93 0 131 -41t38 -129v-221q0 -8 -5.5 -13.5t-13.5 -5.5
h-44q-5 0 -9.5 2.5t-8.5 10.5l-14 27q-17 -16 -45.5 -33t-75.5 -17q-30 0 -55 9.5t-43.5 27t-29 41.5t-10.5 54zM157 132q0 -18 12.5 -31t30.5 -13t31 13t13 31q-1 17 -13.5 29.5t-30.5 12.5t-30.5 -12.5t-12.5 -29.5zM91 563q-8 0 -13.5 5t-5.5 13v41q0 19 19 19h256
q19 0 19 -19v-41q0 -8 -5.5 -13t-13.5 -5h-256z" />
    <glyph glyph-name="abreve" unicode="&#x103;" horiz-adv-x="429" 
d="M27 122q0 58 39 96t108 38q17 0 30.5 -2.5t24.5 -5.5q12 -4 22 -8q0 29 -9 44t-45 15q-10 0 -23.5 -1t-27 -3.5l-26.5 -5t-23 -5.5q-11 -4 -16.5 3t-7.5 18l-9 63q-2 13 3 19t12 8q3 1 17 3.5t33 5t41 4.5t42 2q93 0 131 -41t38 -129v-221q0 -8 -5.5 -13.5t-13.5 -5.5
h-44q-5 0 -9.5 2.5t-8.5 10.5l-14 27q-17 -16 -45.5 -33t-75.5 -17q-30 0 -55 9.5t-43.5 27t-29 41.5t-10.5 54zM157 132q0 -18 12.5 -31t30.5 -13t31 13t13 31q-1 17 -13.5 29.5t-30.5 12.5t-30.5 -12.5t-12.5 -29.5zM219 467q-56 0 -95 34.5t-47 85.5q-2 9 3.5 15.5
t15.5 6.5h45q6 0 10.5 -3.5t6.5 -8.5q7 -20 23 -34t38 -14q20 0 36 15t23 33q2 5 7 8.5t10 3.5h47q9 0 14.5 -6.5t4.5 -15.5q-4 -26 -16.5 -47.5t-31.5 -38t-43 -25.5t-51 -9z" />
    <glyph glyph-name="aring" unicode="&#xe5;" horiz-adv-x="429" 
d="M27 122q0 58 39 96t108 38q17 0 30.5 -2.5t24.5 -5.5q12 -4 22 -8q0 29 -9 44t-45 15q-10 0 -23.5 -1t-27 -3.5l-26.5 -5t-23 -5.5q-11 -4 -16.5 3t-7.5 18l-9 63q-2 13 3 19t12 8q3 1 17 3.5t33 5t41 4.5t42 2q93 0 131 -41t38 -129v-221q0 -8 -5.5 -13.5t-13.5 -5.5
h-44q-5 0 -9.5 2.5t-8.5 10.5l-14 27q-17 -16 -45.5 -33t-75.5 -17q-30 0 -55 9.5t-43.5 27t-29 41.5t-10.5 54zM157 132q0 -18 12.5 -31t30.5 -13t31 13t13 31q-1 17 -13.5 29.5t-30.5 12.5t-30.5 -12.5t-12.5 -29.5zM219 480q-24 0 -45 9t-36.5 24.5t-24.5 36.5t-9 45
t9 45t24.5 36.5t36.5 24.5t45 9t44.5 -9t36.5 -24.5t25 -36.5t9 -45t-9 -45t-25 -36.5t-36.5 -24.5t-44.5 -9zM219 551q17 0 30 13.5t13 30.5t-13 30t-30 13t-30.5 -13t-13.5 -30t13.5 -30.5t30.5 -13.5z" />
    <glyph glyph-name="aringacute" unicode="&#x1fb;" horiz-adv-x="429" 
d="M27 122q0 58 39 96t108 38q17 0 30.5 -2.5t24.5 -5.5q12 -4 22 -8q0 29 -9 44t-45 15q-10 0 -23.5 -1t-27 -3.5l-26.5 -5t-23 -5.5q-11 -4 -16.5 3t-7.5 18l-9 63q-2 13 3 19t12 8q3 1 17 3.5t33 5t41 4.5t42 2q93 0 131 -41t38 -129v-221q0 -8 -5.5 -13.5t-13.5 -5.5
h-44q-5 0 -9.5 2.5t-8.5 10.5l-14 27q-17 -16 -45.5 -33t-75.5 -17q-30 0 -55 9.5t-43.5 27t-29 41.5t-10.5 54zM157 132q0 -18 12.5 -31t30.5 -13t31 13t13 31q-1 17 -13.5 29.5t-30.5 12.5t-30.5 -12.5t-12.5 -29.5zM219 429q-24 0 -45 9t-36.5 24.5t-24.5 36.5t-9 45
t9 45t24.5 36.5t36.5 24.5t45 9t44.5 -9t36.5 -24.5t25 -36.5t9 -45t-9 -45t-25 -36.5t-36.5 -24.5t-44.5 -9zM219 500q17 0 30 13.5t13 30.5t-13 30t-30 13t-30.5 -13t-13.5 -30t13.5 -30.5t30.5 -13.5zM148 661q-10 -6 -16.5 -2.5t-10.5 11.5l-21 42q-3 6 -0.5 11t6.5 8
l170 104q5 3 13.5 3.5t12.5 -6.5l34 -59q6 -11 3 -18.5t-9 -11.5z" />
    <glyph glyph-name="aogonek" unicode="&#x105;" horiz-adv-x="429" 
d="M27 122q0 58 39 96t108 38q17 0 30.5 -2.5t24.5 -5.5q12 -4 22 -8q0 32 -9 47t-45 15q-10 0 -23.5 -1t-27 -3l-26.5 -4t-23 -4q-21 -4 -24 21l-9 57q-2 13 3 19t12 8q3 1 17 3.5t33 5t41 4.5t42 2q93 0 131 -41t38 -129v-221q0 -8 -5.5 -13.5t-13.5 -5.5h-5
q-14 -14 -29.5 -38.5t-15.5 -56.5q0 -27 16.5 -47t53.5 -20q13 0 23 2t18 4q10 2 16 -4t6 -15v-33q0 -7 -4.5 -12t-10.5 -7l-21 -4q-9 -2 -20 -3t-22 -1q-29 0 -54 7t-43.5 21t-29.5 35.5t-11 50.5q0 30 10 53.5t22.5 41t24 27.5t14.5 12l-14 27q-17 -16 -45.5 -33
t-75.5 -17q-30 0 -55 9.5t-43.5 27t-29 41.5t-10.5 54zM157 132q0 -18 12.5 -31t30.5 -13t31 13t13 31q-1 17 -13.5 29.5t-30.5 12.5t-30.5 -12.5t-12.5 -29.5z" />
    <glyph glyph-name="ae" unicode="&#xe6;" horiz-adv-x="661" 
d="M26 123q0 28 10 52t29 42t46.5 28.5t63.5 10.5q15 0 28.5 -2.5t24.5 -5.5l23 -8q1 34 -11 48t-43 14q-10 0 -23.5 -1t-27 -3l-26.5 -4t-23 -4q-8 -1 -14.5 3.5t-8.5 12.5l-11 69q-1 8 4 13.5t12 6.5q22 3 46 7q20 3 43.5 5.5t43.5 2.5q46 0 76.5 -9t49.5 -26q25 17 54 26
t61 9q38 0 72.5 -14t60.5 -39t41.5 -59.5t15.5 -75.5q0 -7 -0.5 -14.5t-2.5 -14t-6 -11t-12 -4.5h-240q1 -10 6 -22t14 -22t23 -16.5t34 -6.5q19 0 37.5 7.5t30.5 16.5q5 4 12.5 4.5t12.5 -4.5l52 -59q5 -5 5.5 -13.5t-4.5 -13.5q-28 -28 -65 -43.5t-85 -15.5q-45 0 -84 17
t-66 48q-5 -6 -16 -16.5t-29 -21.5t-41.5 -19t-53.5 -8q-63 0 -101 36.5t-38 96.5zM502 256q-2 20 -17.5 33.5t-35.5 13.5t-35.5 -13.5t-18.5 -33.5h107zM157 132q0 -18 12.5 -31t30.5 -13t31 13t13 31q-1 17 -13.5 29.5t-30.5 12.5t-30.5 -12.5t-12.5 -29.5z" />
    <glyph glyph-name="aeacute" unicode="&#x1fd;" horiz-adv-x="661" 
d="M26 123q0 28 10 52t29 42t46.5 28.5t63.5 10.5q15 0 28.5 -2.5t24.5 -5.5l23 -8q1 34 -11 48t-43 14q-10 0 -23.5 -1t-27 -3l-26.5 -4t-23 -4q-8 -1 -14.5 3.5t-8.5 12.5l-11 69q-1 8 4 13.5t12 6.5q22 3 46 7q20 3 43.5 5.5t43.5 2.5q46 0 76.5 -9t49.5 -26q25 17 54 26
t61 9q38 0 72.5 -14t60.5 -39t41.5 -59.5t15.5 -75.5q0 -7 -0.5 -14.5t-2.5 -14t-6 -11t-12 -4.5h-240q1 -10 6 -22t14 -22t23 -16.5t34 -6.5q19 0 37.5 7.5t30.5 16.5q5 4 12.5 4.5t12.5 -4.5l52 -59q5 -5 5.5 -13.5t-4.5 -13.5q-28 -28 -65 -43.5t-85 -15.5q-45 0 -84 17
t-66 48q-5 -6 -16 -16.5t-29 -21.5t-41.5 -19t-53.5 -8q-63 0 -101 36.5t-38 96.5zM502 256q-2 20 -17.5 33.5t-35.5 13.5t-35.5 -13.5t-18.5 -33.5h107zM157 132q0 -18 12.5 -31t30.5 -13t31 13t13 31q-1 17 -13.5 29.5t-30.5 12.5t-30.5 -12.5t-12.5 -29.5zM309 512
q-10 -6 -16.5 -2.5t-10.5 11.5l-21 42q-3 6 -0.5 11t6.5 8l170 104q5 3 13.5 3.5t12.5 -6.5l34 -59q6 -11 3 -18.5t-9 -11.5z" />
    <glyph glyph-name="cacute" unicode="&#x107;" horiz-adv-x="420" 
d="M23 200q0 44 17.5 82.5t47.5 67t69 44.5t82 16q48 0 84.5 -18.5t65.5 -53.5q5 -7 3.5 -14.5t-8.5 -13.5l-60 -57q-4 -4 -11 -3t-11 5q-11 11 -26 18.5t-32 7.5q-33 0 -56.5 -24t-23.5 -57q0 -34 22.5 -57.5t55.5 -23.5q26 0 41 9.5t27 21.5t22 4l60 -52q7 -6 9.5 -13
t-2.5 -15q-28 -42 -67.5 -63t-93.5 -21q-43 0 -82 16t-68.5 44t-47 66.5t-17.5 83.5zM167 512q-10 -6 -16.5 -2.5t-10.5 11.5l-21 42q-3 6 -0.5 11t6.5 8l170 104q5 3 13.5 3.5t12.5 -6.5l34 -59q6 -11 3 -18.5t-9 -11.5z" />
    <glyph glyph-name="ccircumflex" unicode="&#x109;" horiz-adv-x="420" 
d="M23 200q0 44 17.5 82.5t47.5 67t69 44.5t82 16q48 0 84.5 -18.5t65.5 -53.5q5 -7 3.5 -14.5t-8.5 -13.5l-60 -57q-4 -4 -11 -3t-11 5q-11 11 -26 18.5t-32 7.5q-33 0 -56.5 -24t-23.5 -57q0 -34 22.5 -57.5t55.5 -23.5q26 0 41 9.5t27 21.5t22 4l60 -52q7 -6 9.5 -13
t-2.5 -15q-28 -42 -67.5 -63t-93.5 -21q-43 0 -82 16t-68.5 44t-47 66.5t-17.5 83.5zM139 512q-8 -5 -12.5 -3.5t-9.5 7.5l-33 47q-4 5 -1 10.5t7 8.5l135 104q6 5 12.5 4t11.5 -4l138 -104q4 -3 6.5 -8t-0.5 -11l-34 -46q-9 -12 -21 -5l-99 58z" />
    <glyph glyph-name="ccaron" unicode="&#x10d;" horiz-adv-x="420" 
d="M23 200q0 44 17.5 82.5t47.5 67t69 44.5t82 16q48 0 84.5 -18.5t65.5 -53.5q5 -7 3.5 -14.5t-8.5 -13.5l-60 -57q-4 -4 -11 -3t-11 5q-11 11 -26 18.5t-32 7.5q-33 0 -56.5 -24t-23.5 -57q0 -34 22.5 -57.5t55.5 -23.5q26 0 41 9.5t27 21.5t22 4l60 -52q7 -6 9.5 -13
t-2.5 -15q-28 -42 -67.5 -63t-93.5 -21q-43 0 -82 16t-68.5 44t-47 66.5t-17.5 83.5zM89 616q-4 3 -6.5 8t0.5 11l34 46q9 12 21 5l99 -58l100 58q8 5 12.5 3.5t9.5 -7.5l33 -47q4 -5 1 -10.5t-7 -8.5l-135 -104q-6 -5 -12.5 -4t-11.5 4z" />
    <glyph glyph-name="cdotaccent" unicode="&#x10b;" horiz-adv-x="420" 
d="M23 200q0 44 17.5 82.5t47.5 67t69 44.5t82 16q48 0 84.5 -18.5t65.5 -53.5q5 -7 3.5 -14.5t-8.5 -13.5l-60 -57q-4 -4 -11 -3t-11 5q-11 11 -26 18.5t-32 7.5q-33 0 -56.5 -24t-23.5 -57q0 -34 22.5 -57.5t55.5 -23.5q26 0 41 9.5t27 21.5t22 4l60 -52q7 -6 9.5 -13
t-2.5 -15q-28 -42 -67.5 -63t-93.5 -21q-43 0 -82 16t-68.5 44t-47 66.5t-17.5 83.5zM238 521q-33 0 -56 23t-23 56t23 56.5t56 23.5t56.5 -23.5t23.5 -56.5t-23.5 -56t-56.5 -23z" />
    <glyph glyph-name="ccedilla" unicode="&#xe7;" horiz-adv-x="421" 
d="M170 1q-31 10 -58 29.5t-46.5 45t-30.5 57t-11 67.5q0 44 17.5 82.5t47.5 67t69 44.5t82 16q48 0 84.5 -18.5t65.5 -53.5q5 -7 3.5 -14.5t-8.5 -13.5l-60 -57q-4 -4 -11 -3t-11 5q-11 11 -26 18.5t-32 7.5q-33 0 -56.5 -24t-23.5 -57q0 -34 22.5 -57.5t55.5 -23.5
q26 0 41 9.5t27 21.5t22 4l60 -52q7 -6 9.5 -13t-2.5 -15q-28 -42 -66 -62.5t-91 -21.5v-43q46 -6 69 -33.5t23 -68.5q0 -22 -8.5 -41t-22.5 -33.5t-33.5 -23t-41.5 -8.5q-23 0 -43 10t-33 25q-13 14 4 29l23 20q5 5 11 4t10 -6t11 -7t13 -2q12 0 21 10t9 22q0 5 -2 12
t-9 13t-20.5 11t-36.5 6q-11 2 -14 8t-3 10v97v0z" />
    <glyph glyph-name="dcaron" unicode="&#x10f;" horiz-adv-x="550" 
d="M25 200q0 53 16 92.5t43.5 65.5t63.5 39t76 13q26 0 50 -7t33 -12v290q0 8 5.5 13.5t13.5 5.5h111q8 0 13.5 -5.5t5.5 -13.5v-662q0 -8 -5.5 -13.5t-13.5 -5.5h-47q-8 0 -13 6t-8 14l-12 33q-15 -18 -34 -32q-17 -12 -42 -21.5t-58 -9.5q-42 0 -78.5 16.5t-63 45
t-41.5 67t-15 81.5zM162 201q0 -35 23 -58.5t58 -23.5t57.5 23.5t22.5 58.5q0 34 -22.5 57t-57.5 23t-58 -23t-23 -57zM566 432q-5 6 -4.5 12t5.5 10q4 3 15.5 12.5t23.5 25t22 36t10 46.5q-5 -2 -11 -4q-11 -3 -29 -3q-29 0 -50.5 20.5t-21.5 50.5q0 29 22 50.5t57 21.5
q14 0 30 -6t29.5 -19.5t22.5 -35.5t9 -55q0 -39 -11.5 -69.5t-26.5 -52.5t-30.5 -36t-24.5 -21q-5 -4 -10.5 -4.5t-11.5 6.5z" />
    <glyph glyph-name="dcroat" unicode="&#x111;" 
d="M25 200q0 53 16 92.5t43.5 65.5t63.5 39t76 13q26 0 50 -7t33 -12v140h-96q-8 0 -13.5 5t-5.5 13v18q0 8 5.5 13.5t13.5 5.5h96v95q0 8 5.5 13.5t13.5 5.5h111q8 0 13.5 -5.5t5.5 -13.5v-95h32q8 0 13 -5.5t5 -13.5v-17q0 -8 -5 -13.5t-13 -5.5h-32v-512q0 -8 -5.5 -13.5
t-13.5 -5.5h-47q-8 0 -13 6t-8 14l-12 33q-15 -18 -34 -32q-17 -12 -42 -21.5t-58 -9.5q-42 0 -78.5 16.5t-63 45t-41.5 67t-15 81.5zM164 200q0 -34 23 -57t57 -23t56.5 23t22.5 57q0 33 -22.5 56t-56.5 23t-57 -23t-23 -56z" />
    <glyph glyph-name="eth" unicode="&#xf0;" horiz-adv-x="523" 
d="M24 219q0 55 18 95.5t46.5 67.5t64 40.5t70.5 13.5q21 0 48 -6t47 -14q-8 38 -33 66t-56 48l-77 -44q-8 -5 -14.5 -3t-10.5 9l-9 15q-4 7 -2.5 14.5t8.5 11.5l47 27l-14.5 7t-17.5 7.5t-17 6t-12 3.5q-19 6 -12 25l29 77q4 10 13 14t25 -1q14 -5 50 -22.5t78 -46.5l71 42
q7 4 14 1.5t11 -9.5l9 -14q4 -7 2.5 -14.5t-8.5 -11.5l-52 -30q30 -26 58 -59.5t49.5 -74.5t34 -90.5t12.5 -107.5q0 -59 -16 -108.5t-46.5 -86t-75.5 -57t-103 -20.5q-47 0 -88.5 18t-73 49t-49.5 73t-18 89zM159 224q0 -20 7.5 -37t20.5 -30.5t30.5 -21t37.5 -7.5
t37.5 7.5t30.5 21t20.5 30.5t7.5 37t-7.5 37.5t-20.5 31t-30.5 21t-37.5 7.5t-37.5 -7.5t-30.5 -21t-20.5 -31t-7.5 -37.5z" />
    <glyph glyph-name="egrave" unicode="&#xe8;" horiz-adv-x="439" 
d="M24 200q0 42 15.5 80.5t43.5 67t66 45.5t82 17q38 0 72.5 -14t60.5 -39t41.5 -59.5t15.5 -75.5q0 -5 -0.5 -13.5t-1.5 -13.5q-1 -8 -6.5 -12.5t-12.5 -4.5h-240q1 -10 6 -21.5t14 -21.5t23 -16.5t34 -6.5q19 0 38.5 7.5t31.5 16.5q15 12 25 0l50 -60q5 -6 5.5 -14
t-6.5 -15q-26 -26 -63 -41.5t-85 -15.5q-45 0 -83 16.5t-66 45t-44 67t-16 81.5zM280 256q-2 20 -17.5 33.5t-35.5 13.5t-35.5 -13.5t-18.5 -33.5h107zM132 534q-6 4 -9 11.5t3 18.5l34 59q4 7 12.5 6.5t13.5 -3.5l170 -104q4 -3 6.5 -8t-0.5 -11l-21 -42q-4 -8 -10.5 -11.5
t-16.5 2.5z" />
    <glyph glyph-name="eacute" unicode="&#xe9;" horiz-adv-x="439" 
d="M24 200q0 42 15.5 80.5t43.5 67t66 45.5t82 17q38 0 72.5 -14t60.5 -39t41.5 -59.5t15.5 -75.5q0 -5 -0.5 -13.5t-1.5 -13.5q-1 -8 -6.5 -12.5t-12.5 -4.5h-240q1 -10 6 -21.5t14 -21.5t23 -16.5t34 -6.5q19 0 38.5 7.5t31.5 16.5q15 12 25 0l50 -60q5 -6 5.5 -14
t-6.5 -15q-26 -26 -63 -41.5t-85 -15.5q-45 0 -83 16.5t-66 45t-44 67t-16 81.5zM280 256q-2 20 -17.5 33.5t-35.5 13.5t-35.5 -13.5t-18.5 -33.5h107zM162 462q-10 -6 -16.5 -2.5t-10.5 11.5l-21 42q-3 6 -0.5 11t6.5 8l170 104q5 3 13.5 3.5t12.5 -6.5l34 -59
q6 -11 3 -18.5t-9 -11.5z" />
    <glyph glyph-name="ecircumflex" unicode="&#xea;" horiz-adv-x="439" 
d="M24 200q0 42 15.5 80.5t43.5 67t66 45.5t82 17q38 0 72.5 -14t60.5 -39t41.5 -59.5t15.5 -75.5q0 -5 -0.5 -13.5t-1.5 -13.5q-1 -8 -6.5 -12.5t-12.5 -4.5h-240q1 -10 6 -21.5t14 -21.5t23 -16.5t34 -6.5q19 0 38.5 7.5t31.5 16.5q15 12 25 0l50 -60q5 -6 5.5 -14
t-6.5 -15q-26 -26 -63 -41.5t-85 -15.5q-45 0 -83 16.5t-66 45t-44 67t-16 81.5zM280 256q-2 20 -17.5 33.5t-35.5 13.5t-35.5 -13.5t-18.5 -33.5h107zM134 462q-8 -5 -12.5 -3.5t-9.5 7.5l-33 47q-4 5 -1 10.5t7 8.5l135 104q6 5 12.5 4t11.5 -4l138 -104q4 -3 6.5 -8
t-0.5 -11l-34 -46q-9 -12 -21 -5l-99 58z" />
    <glyph glyph-name="ecaron" unicode="&#x11b;" horiz-adv-x="439" 
d="M24 200q0 42 15.5 80.5t43.5 67t66 45.5t82 17q38 0 72.5 -14t60.5 -39t41.5 -59.5t15.5 -75.5q0 -5 -0.5 -13.5t-1.5 -13.5q-1 -8 -6.5 -12.5t-12.5 -4.5h-240q1 -10 6 -21.5t14 -21.5t23 -16.5t34 -6.5q19 0 38.5 7.5t31.5 16.5q15 12 25 0l50 -60q5 -6 5.5 -14
t-6.5 -15q-26 -26 -63 -41.5t-85 -15.5q-45 0 -83 16.5t-66 45t-44 67t-16 81.5zM280 256q-2 20 -17.5 33.5t-35.5 13.5t-35.5 -13.5t-18.5 -33.5h107zM84 616q-4 3 -6.5 8t0.5 11l34 46q9 12 21 5l99 -58l100 58q8 5 12.5 3.5t9.5 -7.5l33 -47q4 -5 1 -10.5t-7 -8.5
l-135 -104q-6 -5 -12.5 -4t-11.5 4z" />
    <glyph glyph-name="edieresis" unicode="&#xeb;" horiz-adv-x="439" 
d="M24 200q0 42 15.5 80.5t43.5 67t66 45.5t82 17q38 0 72.5 -14t60.5 -39t41.5 -59.5t15.5 -75.5q0 -5 -0.5 -13.5t-1.5 -13.5q-1 -8 -6.5 -12.5t-12.5 -4.5h-240q1 -10 6 -21.5t14 -21.5t23 -16.5t34 -6.5q19 0 38.5 7.5t31.5 16.5q15 12 25 0l50 -60q5 -6 5.5 -14
t-6.5 -15q-26 -26 -63 -41.5t-85 -15.5q-45 0 -83 16.5t-66 45t-44 67t-16 81.5zM280 256q-2 20 -17.5 33.5t-35.5 13.5t-35.5 -13.5t-18.5 -33.5h107zM335 535q-29 0 -49.5 21t-20.5 50t20.5 49.5t49.5 20.5t50 -20.5t21 -49.5t-21 -50t-50 -21zM130 535q-29 0 -49.5 21
t-20.5 50t20.5 49.5t49.5 20.5t50 -20.5t21 -49.5t-21 -50t-50 -21z" />
    <glyph glyph-name="emacron" unicode="&#x113;" horiz-adv-x="439" 
d="M24 200q0 42 15.5 80.5t43.5 67t66 45.5t82 17q38 0 72.5 -14t60.5 -39t41.5 -59.5t15.5 -75.5q0 -5 -0.5 -13.5t-1.5 -13.5q-1 -8 -6.5 -12.5t-12.5 -4.5h-240q1 -10 6 -21.5t14 -21.5t23 -16.5t34 -6.5q19 0 38.5 7.5t31.5 16.5q15 12 25 0l50 -60q5 -6 5.5 -14
t-6.5 -15q-26 -26 -63 -41.5t-85 -15.5q-45 0 -83 16.5t-66 45t-44 67t-16 81.5zM280 256q-2 20 -17.5 33.5t-35.5 13.5t-35.5 -13.5t-18.5 -33.5h107zM105 563q-8 0 -13.5 5t-5.5 13v41q0 19 19 19h256q19 0 19 -19v-41q0 -8 -5.5 -13t-13.5 -5h-256z" />
    <glyph glyph-name="ebreve" unicode="&#x115;" horiz-adv-x="439" 
d="M24 200q0 42 15.5 80.5t43.5 67t66 45.5t82 17q38 0 72.5 -14t60.5 -39t41.5 -59.5t15.5 -75.5q0 -5 -0.5 -13.5t-1.5 -13.5q-1 -8 -6.5 -12.5t-12.5 -4.5h-240q1 -10 6 -21.5t14 -21.5t23 -16.5t34 -6.5q19 0 38.5 7.5t31.5 16.5q15 12 25 0l50 -60q5 -6 5.5 -14
t-6.5 -15q-26 -26 -63 -41.5t-85 -15.5q-45 0 -83 16.5t-66 45t-44 67t-16 81.5zM280 256q-2 20 -17.5 33.5t-35.5 13.5t-35.5 -13.5t-18.5 -33.5h107zM233 527q-56 0 -95 34.5t-47 85.5q-2 9 3.5 15.5t15.5 6.5h45q6 0 10.5 -3.5t6.5 -8.5q7 -20 23 -34t38 -14q20 0 36 15
t23 33q2 5 7 8.5t10 3.5h47q9 0 14.5 -6.5t4.5 -15.5q-4 -26 -16.5 -47.5t-31.5 -38t-43 -25.5t-51 -9z" />
    <glyph glyph-name="edotaccent" unicode="&#x117;" horiz-adv-x="439" 
d="M24 200q0 42 15.5 80.5t43.5 67t66 45.5t82 17q38 0 72.5 -14t60.5 -39t41.5 -59.5t15.5 -75.5q0 -5 -0.5 -13.5t-1.5 -13.5q-1 -8 -6.5 -12.5t-12.5 -4.5h-240q1 -10 6 -21.5t14 -21.5t23 -16.5t34 -6.5q19 0 38.5 7.5t31.5 16.5q15 12 25 0l50 -60q5 -6 5.5 -14
t-6.5 -15q-26 -26 -63 -41.5t-85 -15.5q-45 0 -83 16.5t-66 45t-44 67t-16 81.5zM280 256q-2 20 -17.5 33.5t-35.5 13.5t-35.5 -13.5t-18.5 -33.5h107zM233 521q-33 0 -56 23t-23 56t23 56.5t56 23.5t56.5 -23.5t23.5 -56.5t-23.5 -56t-56.5 -23z" />
    <glyph glyph-name="eogonek" unicode="&#x119;" horiz-adv-x="441" 
d="M134 -121q0 41 17 70.5t34 46.5q-35 8 -64.5 27t-50.5 46t-33 60.5t-12 70.5q0 42 15.5 80.5t43.5 67t66 45.5t82 17q38 0 72.5 -14t60.5 -39t41.5 -59.5t15.5 -75.5q0 -5 -0.5 -13.5t-1.5 -13.5q-1 -8 -6.5 -12.5t-12.5 -4.5h-240q1 -10 6 -22t14 -22t23 -16.5t34 -6.5
q19 0 37.5 7.5t30.5 16.5q5 4 12.5 4.5t12.5 -4.5q15 -17 25.5 -30t26.5 -29q5 -5 5.5 -13.5t-4.5 -13.5q-25 -25 -57.5 -40t-73.5 -18q-13 -15 -24.5 -37t-11.5 -49t16.5 -47t53.5 -20q13 0 23 2t18 4q10 2 16 -4t6 -15v-33q0 -7 -4.5 -12t-10.5 -7l-21 -4q-9 -2 -20 -3
t-22 -1q-29 0 -54 7t-43.5 21t-29.5 35.5t-11 50.5zM281 256q-2 20 -17.5 33.5t-35.5 13.5t-35.5 -13.5t-18.5 -33.5h107z" />
    <glyph glyph-name="gcircumflex" unicode="&#x11d;" horiz-adv-x="465" 
d="M11 36q0 29 12.5 50t27.5 35q18 16 40 25q-9 10 -15 23q-5 11 -9.5 28t-4.5 40q0 35 14 66.5t38 55t56 37.5t68 14h189q19 0 19 -19v-41q0 -12 -11 -17l-58 -21q10 -10 19 -24q7 -12 13 -30t6 -43q0 -27 -12 -54t-34.5 -48.5t-54.5 -35t-72 -13.5h-72q-16 0 -24.5 -7.5
t-8.5 -19.5q0 -14 10.5 -20.5t21.5 -6.5h120q35 0 66.5 -10.5t55 -29.5t37 -46t13.5 -60q0 -36 -13 -67.5t-40.5 -55.5t-70 -37.5t-101.5 -13.5q-58 0 -98 12.5t-64.5 32t-35.5 43.5t-11 48q0 22 8 39t18.5 29t20.5 19t14 9v3q-5 1 -17.5 7.5t-26 19.5t-23.5 33.5t-10 50.5z
M189 228q0 -23 15 -37.5t38 -14.5t38 14.5t15 37.5t-15 37.5t-38 14.5t-38 -14.5t-15 -37.5zM164 -146q0 -21 18 -34t54 -13q38 0 55 13.5t17 33.5q0 16 -15.5 29t-56.5 13q-27 0 -49.5 -10t-22.5 -32zM152 512q-8 -5 -12.5 -3.5t-9.5 7.5l-33 47q-4 5 -1 10.5t7 8.5
l135 104q6 5 12.5 4t11.5 -4l138 -104q4 -3 6.5 -8t-0.5 -11l-34 -46q-9 -12 -21 -5l-99 58z" />
    <glyph glyph-name="gbreve" unicode="&#x11f;" horiz-adv-x="465" 
d="M11 36q0 29 12.5 50t27.5 35q18 16 40 25q-9 10 -15 23q-5 11 -9.5 28t-4.5 40q0 35 14 66.5t38 55t56 37.5t68 14h189q19 0 19 -19v-41q0 -12 -11 -17l-58 -21q10 -10 19 -24q7 -12 13 -30t6 -43q0 -27 -12 -54t-34.5 -48.5t-54.5 -35t-72 -13.5h-72q-16 0 -24.5 -7.5
t-8.5 -19.5q0 -14 10.5 -20.5t21.5 -6.5h120q35 0 66.5 -10.5t55 -29.5t37 -46t13.5 -60q0 -36 -13 -67.5t-40.5 -55.5t-70 -37.5t-101.5 -13.5q-58 0 -98 12.5t-64.5 32t-35.5 43.5t-11 48q0 22 8 39t18.5 29t20.5 19t14 9v3q-5 1 -17.5 7.5t-26 19.5t-23.5 33.5t-10 50.5z
M189 228q0 -23 15 -37.5t38 -14.5t38 14.5t15 37.5t-15 37.5t-38 14.5t-38 -14.5t-15 -37.5zM164 -146q0 -21 18 -34t54 -13q38 0 55 13.5t17 33.5q0 16 -15.5 29t-56.5 13q-27 0 -49.5 -10t-22.5 -32zM251 527q-56 0 -95 34.5t-47 85.5q-2 9 3.5 15.5t15.5 6.5h45
q6 0 10.5 -3.5t6.5 -8.5q7 -20 23 -34t38 -14q20 0 36 15t23 33q2 5 7 8.5t10 3.5h47q9 0 14.5 -6.5t4.5 -15.5q-4 -26 -16.5 -47.5t-31.5 -38t-43 -25.5t-51 -9z" />
    <glyph glyph-name="gdotaccent" unicode="&#x121;" horiz-adv-x="465" 
d="M11 36q0 29 12.5 50t27.5 35q18 16 40 25q-9 10 -15 23q-5 11 -9.5 28t-4.5 40q0 35 14 66.5t38 55t56 37.5t68 14h189q19 0 19 -19v-41q0 -12 -11 -17l-58 -21q10 -10 19 -24q7 -12 13 -30t6 -43q0 -27 -12 -54t-34.5 -48.5t-54.5 -35t-72 -13.5h-72q-16 0 -24.5 -7.5
t-8.5 -19.5q0 -14 10.5 -20.5t21.5 -6.5h120q35 0 66.5 -10.5t55 -29.5t37 -46t13.5 -60q0 -36 -13 -67.5t-40.5 -55.5t-70 -37.5t-101.5 -13.5q-58 0 -98 12.5t-64.5 32t-35.5 43.5t-11 48q0 22 8 39t18.5 29t20.5 19t14 9v3q-5 1 -17.5 7.5t-26 19.5t-23.5 33.5t-10 50.5z
M189 228q0 -23 15 -37.5t38 -14.5t38 14.5t15 37.5t-15 37.5t-38 14.5t-38 -14.5t-15 -37.5zM164 -146q0 -21 18 -34t54 -13q38 0 55 13.5t17 33.5q0 16 -15.5 29t-56.5 13q-27 0 -49.5 -10t-22.5 -32zM255 521q-33 0 -56 23t-23 56t23 56.5t56 23.5t56.5 -23.5t23.5 -56.5
t-23.5 -56t-56.5 -23z" />
    <glyph glyph-name="gcommaaccent" unicode="&#x123;" horiz-adv-x="465" 
d="M257 524q-14 0 -30 6t-29.5 19.5t-22.5 35.5t-9 55q0 39 11.5 69.5t26.5 52.5t30.5 36t24.5 21q5 4 10.5 4.5t11.5 -6.5l15 -15q5 -6 4.5 -12t-5.5 -10q-4 -3 -15.5 -12.5t-23.5 -25t-22 -36.5t-10 -46q5 1 11 3q5 2 12.5 3t16.5 1q29 0 50.5 -20.5t21.5 -50.5
q0 -29 -22 -50.5t-57 -21.5zM11 36q0 29 12.5 50t27.5 35q18 16 40 25q-9 10 -15 23q-5 11 -9.5 28t-4.5 40q0 35 14 66.5t38 55t56 37.5t68 14h189q19 0 19 -19v-41q0 -12 -11 -17l-58 -21q10 -10 19 -24q7 -12 13 -30t6 -43q0 -27 -12 -54t-34.5 -48.5t-54.5 -35
t-72 -13.5h-72q-16 0 -24.5 -7.5t-8.5 -19.5q0 -14 10.5 -20.5t21.5 -6.5h120q35 0 66.5 -10.5t55 -29.5t37 -46t13.5 -60q0 -36 -13 -67.5t-40.5 -55.5t-70 -37.5t-101.5 -13.5q-58 0 -98 12.5t-64.5 32t-35.5 43.5t-11 48q0 22 8 39t18.5 29t20.5 19t14 9v3
q-5 1 -17.5 7.5t-26 19.5t-23.5 33.5t-10 50.5zM189 228q0 -23 15 -37.5t38 -14.5t38 14.5t15 37.5t-15 37.5t-38 14.5t-38 -14.5t-15 -37.5zM164 -146q0 -21 18 -34t54 -13q38 0 55 13.5t17 33.5q0 16 -15.5 29t-56.5 13q-27 0 -49.5 -10t-22.5 -32z" />
    <glyph glyph-name="hcircumflex" unicode="&#x125;" horiz-adv-x="530" 
d="M54 681q0 8 5.5 13.5t13.5 5.5h111q8 0 13.5 -5.5t5.5 -13.5v-294q46 23 93 23t83 -17t60 -46t36 -67t12 -80v-181q0 -8 -5.5 -13.5t-13.5 -5.5h-106q-8 0 -13.5 5.5t-5.5 13.5v183q0 33 -20 56t-53 23q-12 0 -24 -4t-21.5 -13t-15.5 -24t-6 -38v-183q0 -10 -4.5 -14.5
t-17.5 -4.5h-108q-8 0 -13.5 5.5t-5.5 13.5v662zM24 729q-8 -5 -12.5 -3.5t-9.5 7.5l-33 47q-4 5 -1 10.5t7 8.5l135 104q6 5 12.5 4t11.5 -4l138 -104q4 -3 6.5 -8t-0.5 -11l-34 -46q-9 -12 -21 -5l-99 58z" />
    <glyph glyph-name="hbar" unicode="&#x127;" horiz-adv-x="531" 
d="M54 531h-31q-8 0 -13 5.5t-5 13.5v17q0 8 5 13.5t13 5.5h31v95q0 8 5.5 13.5t13.5 5.5h111q8 0 13.5 -5.5t5.5 -13.5v-95h97q8 0 13.5 -5.5t5.5 -13.5v-18q0 -8 -5.5 -13t-13.5 -5h-97v-145q23 11 46.5 17t46.5 6q47 0 82.5 -17t59.5 -45.5t36.5 -66.5t12.5 -80v-181
q0 -8 -5.5 -13.5t-13.5 -5.5h-106q-8 0 -13.5 5.5t-5.5 13.5v181q0 33 -20 56t-53 23q-12 0 -23.5 -3.5t-21.5 -11.5t-16 -21.5t-6 -32.5v-191q0 -19 -22 -19h-108q-8 0 -13.5 5.5t-5.5 13.5v512z" />
    <glyph glyph-name="dotlessi" unicode="&#x131;" horiz-adv-x="256" 
d="M54 380q0 8 5.5 13.5t13.5 5.5h110q8 0 13.5 -5.5t5.5 -13.5v-361q0 -8 -5.5 -13.5t-13.5 -5.5h-110q-8 0 -13.5 5.5t-5.5 13.5v361z" />
    <glyph glyph-name="igrave" unicode="&#xec;" horiz-adv-x="256" 
d="M54 380q0 8 5.5 13.5t13.5 5.5h110q8 0 13.5 -5.5t5.5 -13.5v-361q0 -8 -5.5 -13.5t-13.5 -5.5h-110q-8 0 -13.5 5.5t-5.5 13.5v361zM17 544q-6 4 -9 11.5t3 18.5l34 59q4 7 12.5 6.5t13.5 -3.5l170 -104q4 -3 6.5 -8t-0.5 -11l-21 -42q-4 -8 -10.5 -11.5t-16.5 2.5z" />
    <glyph glyph-name="iacute" unicode="&#xed;" horiz-adv-x="256" 
d="M54 380q0 8 5.5 13.5t13.5 5.5h110q8 0 13.5 -5.5t5.5 -13.5v-361q0 -8 -5.5 -13.5t-13.5 -5.5h-110q-8 0 -13.5 5.5t-5.5 13.5v361zM57 462q-10 -6 -16.5 -2.5t-10.5 11.5l-21 42q-3 6 -0.5 11t6.5 8l170 104q5 3 13.5 3.5t12.5 -6.5l34 -59q6 -11 3 -18.5t-9 -11.5z
" />
    <glyph glyph-name="ibreve" unicode="&#x12d;" horiz-adv-x="256" 
d="M54 380q0 8 5.5 13.5t13.5 5.5h110q8 0 13.5 -5.5t5.5 -13.5v-361q0 -8 -5.5 -13.5t-13.5 -5.5h-110q-8 0 -13.5 5.5t-5.5 13.5v361zM128 527q-56 0 -95 34.5t-47 85.5q-2 9 3.5 15.5t15.5 6.5h45q6 0 10.5 -3.5t6.5 -8.5q7 -20 23 -34t38 -14q20 0 36 15t23 33
q2 5 7 8.5t10 3.5h47q9 0 14.5 -6.5t4.5 -15.5q-4 -26 -16.5 -47.5t-31.5 -38t-43 -25.5t-51 -9z" />
    <glyph glyph-name="icircumflex" unicode="&#xee;" horiz-adv-x="256" 
d="M54 380q0 8 5.5 13.5t13.5 5.5h110q8 0 13.5 -5.5t5.5 -13.5v-361q0 -8 -5.5 -13.5t-13.5 -5.5h-110q-8 0 -13.5 5.5t-5.5 13.5v361zM29 512q-8 -5 -12.5 -3.5t-9.5 7.5l-33 47q-4 5 -1 10.5t7 8.5l135 104q6 5 12.5 4t11.5 -4l138 -104q4 -3 6.5 -8t-0.5 -11l-34 -46
q-9 -12 -21 -5l-99 58z" />
    <glyph glyph-name="itilde" unicode="&#x129;" horiz-adv-x="256" 
d="M54 380q0 8 5.5 13.5t13.5 5.5h110q8 0 13.5 -5.5t5.5 -13.5v-361q0 -8 -5.5 -13.5t-13.5 -5.5h-110q-8 0 -13.5 5.5t-5.5 13.5v361zM-24 533q-5 4 -6.5 11t0.5 12q4 7 13.5 21t23.5 28t32 24.5t38 10.5q18 0 31.5 -7.5t25.5 -16t24 -16t27 -7.5q12 0 22.5 11.5
t15.5 19.5q4 6 10.5 7.5t14.5 -5.5l34 -26q14 -10 1 -29l-12.5 -19t-21.5 -26t-29.5 -23t-36.5 -10t-34.5 7.5t-27 16.5t-24 16.5t-24.5 7.5q-7 0 -12.5 -4t-10.5 -9.5t-9.5 -11.5l-7.5 -10q-9 -9 -22 -1z" />
    <glyph glyph-name="idieresis" unicode="&#xef;" horiz-adv-x="256" 
d="M54 380q0 8 5.5 13.5t13.5 5.5h110q8 0 13.5 -5.5t5.5 -13.5v-361q0 -8 -5.5 -13.5t-13.5 -5.5h-110q-8 0 -13.5 5.5t-5.5 13.5v361zM230 535q-29 0 -49.5 21t-20.5 50t20.5 49.5t49.5 20.5t50 -20.5t21 -49.5t-21 -50t-50 -21zM25 535q-29 0 -49.5 21t-20.5 50
t20.5 49.5t49.5 20.5t50 -20.5t21 -49.5t-21 -50t-50 -21z" />
    <glyph glyph-name="imacron" unicode="&#x12b;" horiz-adv-x="256" 
d="M54 380q0 8 5.5 13.5t13.5 5.5h110q8 0 13.5 -5.5t5.5 -13.5v-361q0 -8 -5.5 -13.5t-13.5 -5.5h-110q-8 0 -13.5 5.5t-5.5 13.5v361zM0 563q-8 0 -13.5 5t-5.5 13v41q0 19 19 19h256q19 0 19 -19v-41q0 -8 -5.5 -13t-13.5 -5h-256z" />
    <glyph glyph-name="iogonek" unicode="&#x12f;" horiz-adv-x="256" 
d="M127 521q-33 0 -56 23t-23 56t23 56.5t56 23.5t56.5 -23.5t23.5 -56.5t-23.5 -56t-56.5 -23zM54 381q0 8 5.5 13.5t13.5 5.5h110q8 0 13.5 -5.5t5.5 -13.5v-362q0 -8 -5.5 -13.5t-13.5 -5.5h-25q-14 -14 -29.5 -38.5t-15.5 -56.5q0 -27 16.5 -47t53.5 -20q13 0 23 2t18 4
q10 2 16 -4t6 -15v-33q0 -7 -4.5 -12t-10.5 -7l-21 -4q-9 -2 -20 -3t-22 -1q-29 0 -54 7t-43.5 21t-29.5 35.5t-11 50.5q0 22 5.5 40.5t14 34t18 27t17.5 19.5h-12q-8 0 -13.5 5.5t-5.5 13.5v362z" />
    <glyph glyph-name="dotlessj" unicode="&#x237;" horiz-adv-x="257" 
d="M54 380q0 8 5.5 13.5t13.5 5.5h111q8 0 13.5 -5.5t5.5 -13.5v-472q0 -53 -15.5 -93.5t-42.5 -68t-64.5 -42t-80.5 -14.5q-20 0 -39 3.5t-35.5 9.5t-29 12.5t-18.5 12.5q-5 4 -6 11t2 12l42 83q2 5 9.5 7.5t13.5 -0.5q10 -5 23.5 -10.5t28.5 -5.5q34 0 48.5 23t14.5 60
v472z" />
    <glyph glyph-name="jcircumflex" unicode="&#x135;" horiz-adv-x="257" 
d="M54 380q0 8 5.5 13.5t13.5 5.5h111q8 0 13.5 -5.5t5.5 -13.5v-472q0 -53 -15.5 -93.5t-42.5 -68t-64.5 -42t-80.5 -14.5q-20 0 -39 3.5t-35.5 9.5t-29 12.5t-18.5 12.5q-5 4 -6 11t2 12l42 83q2 5 9.5 7.5t13.5 -0.5q10 -5 23.5 -10.5t28.5 -5.5q34 0 48.5 23t14.5 60
v472zM30 512q-8 -5 -12.5 -3.5t-9.5 7.5l-33 47q-4 5 -1 10.5t7 8.5l135 104q6 5 12.5 4t11.5 -4l138 -104q4 -3 6.5 -8t-0.5 -11l-34 -46q-9 -12 -21 -5l-99 58z" />
    <glyph glyph-name="kcommaaccent" unicode="&#x137;" horiz-adv-x="511" 
d="M54 681q0 8 5.5 13.5t13.5 5.5h111q8 0 13.5 -5.5t5.5 -13.5v-433l121 140q5 5 10.5 8.5t14.5 3.5h112q13 0 18 -10t-3 -21l-132 -153l160 -186q8 -10 3 -20t-18 -10h-135q-3 0 -8 2.5t-7 5.5l-136 174v-163q0 -8 -5.5 -13.5t-13.5 -5.5h-111q-8 0 -13.5 5.5t-5.5 13.5
v662zM275 -90q14 0 30 -6t29.5 -19.5t22.5 -35.5t9 -55q0 -39 -11.5 -69.5t-26.5 -52.5t-30.5 -36t-24.5 -21q-5 -4 -10.5 -4.5t-11.5 6.5l-15 15q-5 6 -4.5 12t5.5 10q4 3 15.5 12.5t23.5 25t22 36t10 46.5q-5 -2 -11 -4q-11 -3 -29 -3q-29 0 -50.5 20.5t-21.5 50.5
q0 29 22 50.5t57 21.5z" />
    <glyph glyph-name="kgreenlandic" unicode="&#x138;" horiz-adv-x="513" 
d="M54 381q0 8 5.5 13.5t13.5 5.5h111q8 0 13.5 -5.5t5.5 -13.5v-153l131 160q5 5 10.5 8.5t14.5 3.5h112q13 0 18 -10t-3 -21l-145 -173l163 -166q8 -10 3 -20t-18 -10h-135q-3 0 -8 2.5t-7 5.5l-136 154v-143q0 -8 -5.5 -13.5t-13.5 -5.5h-111q-8 0 -13.5 5.5t-5.5 13.5
v362z" />
    <glyph glyph-name="lacute" unicode="&#x13a;" horiz-adv-x="256" 
d="M54 681q0 8 5.5 13.5t13.5 5.5h110q8 0 13.5 -5.5t5.5 -13.5v-662q0 -8 -5.5 -13.5t-13.5 -5.5h-110q-8 0 -13.5 5.5t-5.5 13.5v662zM54 729q-10 -6 -16.5 -2.5t-10.5 11.5l-21 42q-3 6 -0.5 11t6.5 8l170 104q5 3 13.5 3.5t12.5 -6.5l34 -59q6 -11 3 -18.5t-9 -11.5z
" />
    <glyph glyph-name="lcaron" unicode="&#x13e;" horiz-adv-x="296" 
d="M54 681q0 8 5.5 13.5t13.5 5.5h110q8 0 13.5 -5.5t5.5 -13.5v-662q0 -8 -5.5 -13.5t-13.5 -5.5h-110q-8 0 -13.5 5.5t-5.5 13.5v662zM313 432q-5 6 -4.5 12t5.5 10q4 3 15.5 12.5t23.5 25t22 36t10 46.5q-5 -2 -11 -4q-11 -3 -29 -3q-29 0 -50.5 20.5t-21.5 50.5
q0 29 22 50.5t57 21.5q14 0 30 -6t29.5 -19.5t22.5 -35.5t9 -55q0 -39 -11.5 -69.5t-26.5 -52.5t-30.5 -36t-24.5 -21q-5 -4 -10.5 -4.5t-11.5 6.5z" />
    <glyph glyph-name="lcommaaccent" unicode="&#x13c;" horiz-adv-x="256" 
d="M54 681q0 8 5.5 13.5t13.5 5.5h110q8 0 13.5 -5.5t5.5 -13.5v-662q0 -8 -5.5 -13.5t-13.5 -5.5h-110q-8 0 -13.5 5.5t-5.5 13.5v662zM122 -90q14 0 30 -6t29.5 -19.5t22.5 -35.5t9 -55q0 -39 -11.5 -69.5t-26.5 -52.5t-30.5 -36t-24.5 -21q-5 -4 -10.5 -4.5t-11.5 6.5
l-15 15q-5 6 -4.5 12t5.5 10q4 3 15.5 12.5t23.5 25t22 36t10 46.5q-5 -2 -11 -4q-11 -3 -29 -3q-29 0 -50.5 20.5t-21.5 50.5q0 29 22 50.5t57 21.5z" />
    <glyph glyph-name="lslash" unicode="&#x142;" horiz-adv-x="269" 
d="M67 306l-26 -15q-7 -4 -14.5 -2t-11.5 9l-8 15q-4 6 -2.5 13.5t8.5 11.5l54 31v312q0 8 5.5 13.5t13.5 5.5h110q8 0 13.5 -5.5t5.5 -13.5v-225l50 30q8 4 15 2t11 -9l9 -16q4 -6 2 -13t-9 -12l-78 -46v-373q0 -8 -5.5 -13.5t-13.5 -5.5h-110q-8 0 -13.5 5.5t-5.5 13.5
v287z" />
    <glyph glyph-name="ldot" unicode="&#x140;" horiz-adv-x="452" 
d="M54 681q0 8 5.5 13.5t13.5 5.5h110q8 0 13.5 -5.5t5.5 -13.5v-662q0 -8 -5.5 -13.5t-13.5 -5.5h-110q-8 0 -13.5 5.5t-5.5 13.5v662zM343 281q-33 0 -56 23t-23 56t23 56.5t56 23.5t56.5 -23.5t23.5 -56.5t-23.5 -56t-56.5 -23z" />
    <glyph glyph-name="nacute" unicode="&#x144;" horiz-adv-x="528" 
d="M54 381q0 8 5.5 13.5t13.5 5.5h47q5 0 10.5 -3.5t7.5 -8.5l16 -40q8 9 21 20t30.5 20t40 15.5t49.5 6.5q46 0 81.5 -16.5t59.5 -45t36.5 -66.5t12.5 -81v-182q0 -8 -5.5 -13.5t-13.5 -5.5h-107q-8 0 -13.5 5.5t-5.5 13.5v187q0 30 -17 52.5t-51 22.5q-30 0 -53 -19.5
t-23 -50.5v-192q0 -7 -3.5 -13t-14.5 -6h-105q-8 0 -13.5 5.5t-5.5 13.5v362zM205 512q-10 -6 -16.5 -2.5t-10.5 11.5l-21 42q-3 6 -0.5 11t6.5 8l170 104q5 3 13.5 3.5t12.5 -6.5l34 -59q6 -11 3 -18.5t-9 -11.5z" />
    <glyph glyph-name="ncaron" unicode="&#x148;" horiz-adv-x="528" 
d="M54 381q0 8 5.5 13.5t13.5 5.5h47q5 0 10.5 -3.5t7.5 -8.5l16 -40q8 9 21 20t30.5 20t40 15.5t49.5 6.5q46 0 81.5 -16.5t59.5 -45t36.5 -66.5t12.5 -81v-182q0 -8 -5.5 -13.5t-13.5 -5.5h-107q-8 0 -13.5 5.5t-5.5 13.5v187q0 30 -17 52.5t-51 22.5q-30 0 -53 -19.5
t-23 -50.5v-192q0 -7 -3.5 -13t-14.5 -6h-105q-8 0 -13.5 5.5t-5.5 13.5v362zM125 616q-4 3 -6.5 8t0.5 11l34 46q9 12 21 5l99 -58l100 58q8 5 12.5 3.5t9.5 -7.5l33 -47q4 -5 1 -10.5t-7 -8.5l-135 -104q-6 -5 -12.5 -4t-11.5 4z" />
    <glyph glyph-name="ntilde" unicode="&#xf1;" horiz-adv-x="528" 
d="M54 381q0 8 5.5 13.5t13.5 5.5h47q5 0 10.5 -3.5t7.5 -8.5l16 -40q8 9 21 20t30.5 20t40 15.5t49.5 6.5q46 0 81.5 -16.5t59.5 -45t36.5 -66.5t12.5 -81v-182q0 -8 -5.5 -13.5t-13.5 -5.5h-107q-8 0 -13.5 5.5t-5.5 13.5v187q0 30 -17 52.5t-51 22.5q-30 0 -53 -19.5
t-23 -50.5v-192q0 -7 -3.5 -13t-14.5 -6h-105q-8 0 -13.5 5.5t-5.5 13.5v362zM117 583q-5 4 -6.5 11t0.5 12q4 7 13.5 21t23.5 28t32 24.5t38 10.5q18 0 31.5 -7.5t25.5 -16t24 -16t27 -7.5q12 0 22.5 11.5t15.5 19.5q4 6 10.5 7.5t14.5 -5.5l34 -26q14 -10 1 -29l-12.5 -19
t-21.5 -26t-29.5 -23t-36.5 -10t-34.5 7.5t-27 16.5t-24 16.5t-24.5 7.5q-7 0 -12.5 -4t-10.5 -9.5t-9.5 -11.5l-7.5 -10q-9 -9 -22 -1z" />
    <glyph glyph-name="ncommaaccent" unicode="&#x146;" horiz-adv-x="529" 
d="M54 381q0 8 5.5 13.5t13.5 5.5h47q5 0 10.5 -3.5t7.5 -8.5l16 -40q8 9 21 20t30.5 20t40 15.5t49.5 6.5q46 0 81.5 -16.5t59.5 -45t36.5 -66.5t12.5 -81v-182q0 -8 -5.5 -13.5t-13.5 -5.5h-107q-8 0 -13.5 5.5t-5.5 13.5v187q0 30 -17 52.5t-51 22.5q-30 0 -53 -19.5
t-23 -50.5v-192q0 -7 -3.5 -13t-14.5 -6h-105q-8 0 -13.5 5.5t-5.5 13.5v362zM268 -90q14 0 30 -6t29.5 -19.5t22.5 -35.5t9 -55q0 -39 -11.5 -69.5t-26.5 -52.5t-30.5 -36t-24.5 -21q-5 -4 -10.5 -4.5t-11.5 6.5l-15 15q-5 6 -4.5 12t5.5 10q4 3 15.5 12.5t23.5 25t22 36
t10 46.5q-5 -2 -11 -4q-11 -3 -29 -3q-29 0 -50.5 20.5t-21.5 50.5q0 29 22 50.5t57 21.5z" />
    <glyph glyph-name="napostrophe" unicode="&#x149;" horiz-adv-x="528" 
d="M54 381q0 8 5.5 13.5t13.5 5.5h47q5 0 10.5 -3.5t7.5 -8.5l16 -40q8 9 21 20t30.5 20t40 15.5t49.5 6.5q46 0 81.5 -16.5t59.5 -45t36.5 -66.5t12.5 -81v-182q0 -8 -5.5 -13.5t-13.5 -5.5h-107q-8 0 -13.5 5.5t-5.5 13.5v187q0 30 -17 52.5t-51 22.5q-30 0 -53 -19.5
t-23 -50.5v-192q0 -7 -3.5 -13t-14.5 -6h-105q-8 0 -13.5 5.5t-5.5 13.5v362zM-60 710q14 0 30 -6t29.5 -19.5t22.5 -35.5t9 -55q0 -39 -11.5 -69.5t-26.5 -52.5t-30.5 -36t-24.5 -21q-5 -4 -10.5 -4.5t-11.5 6.5l-15 15q-5 6 -4.5 12t5.5 10q4 3 15.5 12.5t23.5 25t22 36
t10 46.5q-5 -2 -11 -4q-11 -3 -29 -3q-29 0 -50.5 20.5t-21.5 50.5q0 29 22 50.5t57 21.5z" />
    <glyph glyph-name="ograve" unicode="&#xf2;" horiz-adv-x="462" 
d="M23 201q0 42 16.5 80t45 66.5t66 45.5t80.5 17t80.5 -17t66 -45.5t45 -66.5t16.5 -80q0 -43 -16.5 -81.5t-45 -67t-66 -45.5t-80.5 -17t-80.5 17t-66 45.5t-45 67t-16.5 81.5zM152 201q0 -34 23 -58t56 -24t56 24t23 58q0 33 -23 56.5t-56 23.5t-56 -23.5t-23 -56.5z
M120 544q-6 4 -9 11.5t3 18.5l34 59q4 7 12.5 6.5t13.5 -3.5l170 -104q4 -3 6.5 -8t-0.5 -11l-21 -42q-4 -8 -10.5 -11.5t-16.5 2.5z" />
    <glyph glyph-name="oacute" unicode="&#xf3;" horiz-adv-x="462" 
d="M23 201q0 42 16.5 80t45 66.5t66 45.5t80.5 17t80.5 -17t66 -45.5t45 -66.5t16.5 -80q0 -43 -16.5 -81.5t-45 -67t-66 -45.5t-80.5 -17t-80.5 17t-66 45.5t-45 67t-16.5 81.5zM152 201q0 -34 23 -58t56 -24t56 24t23 58q0 33 -23 56.5t-56 23.5t-56 -23.5t-23 -56.5z
M158 462q-10 -6 -16.5 -2.5t-10.5 11.5l-21 42q-3 6 -0.5 11t6.5 8l170 104q5 3 13.5 3.5t12.5 -6.5l34 -59q6 -11 3 -18.5t-9 -11.5z" />
    <glyph glyph-name="ocircumflex" unicode="&#xf4;" horiz-adv-x="462" 
d="M23 201q0 42 16.5 80t45 66.5t66 45.5t80.5 17t80.5 -17t66 -45.5t45 -66.5t16.5 -80q0 -43 -16.5 -81.5t-45 -67t-66 -45.5t-80.5 -17t-80.5 17t-66 45.5t-45 67t-16.5 81.5zM152 201q0 -34 23 -58t56 -24t56 24t23 58q0 33 -23 56.5t-56 23.5t-56 -23.5t-23 -56.5z
M132 462q-8 -5 -12.5 -3.5t-9.5 7.5l-33 47q-4 5 -1 10.5t7 8.5l135 104q6 5 12.5 4t11.5 -4l138 -104q4 -3 6.5 -8t-0.5 -11l-34 -46q-9 -12 -21 -5l-99 58z" />
    <glyph glyph-name="otilde" unicode="&#xf5;" horiz-adv-x="462" 
d="M23 201q0 42 16.5 80t45 66.5t66 45.5t80.5 17t80.5 -17t66 -45.5t45 -66.5t16.5 -80q0 -43 -16.5 -81.5t-45 -67t-66 -45.5t-80.5 -17t-80.5 17t-66 45.5t-45 67t-16.5 81.5zM152 201q0 -34 23 -58t56 -24t56 24t23 58q0 33 -23 56.5t-56 23.5t-56 -23.5t-23 -56.5z
M79 523q-5 4 -6.5 11t0.5 12q4 7 13.5 21t23.5 28t32 24.5t38 10.5q18 0 31.5 -7.5t25.5 -16t24 -16t27 -7.5q12 0 22.5 11.5t15.5 19.5q4 6 10.5 7.5t14.5 -5.5l34 -26q14 -10 1 -29l-12.5 -19t-21.5 -26t-29.5 -23t-36.5 -10t-34.5 7.5t-27 16.5t-24 16.5t-24.5 7.5
q-7 0 -12.5 -4t-10.5 -9.5t-9.5 -11.5l-7.5 -10q-9 -9 -22 -1z" />
    <glyph glyph-name="odieresis" unicode="&#xf6;" horiz-adv-x="462" 
d="M23 201q0 42 16.5 80t45 66.5t66 45.5t80.5 17t80.5 -17t66 -45.5t45 -66.5t16.5 -80q0 -43 -16.5 -81.5t-45 -67t-66 -45.5t-80.5 -17t-80.5 17t-66 45.5t-45 67t-16.5 81.5zM152 201q0 -34 23 -58t56 -24t56 24t23 58q0 33 -23 56.5t-56 23.5t-56 -23.5t-23 -56.5z
M333 535q-29 0 -49.5 21t-20.5 50t20.5 49.5t49.5 20.5t50 -20.5t21 -49.5t-21 -50t-50 -21zM128 535q-29 0 -49.5 21t-20.5 50t20.5 49.5t49.5 20.5t50 -20.5t21 -49.5t-21 -50t-50 -21z" />
    <glyph glyph-name="omacron" unicode="&#x14d;" horiz-adv-x="462" 
d="M23 201q0 42 16.5 80t45 66.5t66 45.5t80.5 17t80.5 -17t66 -45.5t45 -66.5t16.5 -80q0 -43 -16.5 -81.5t-45 -67t-66 -45.5t-80.5 -17t-80.5 17t-66 45.5t-45 67t-16.5 81.5zM152 201q0 -34 23 -58t56 -24t56 24t23 58q0 33 -23 56.5t-56 23.5t-56 -23.5t-23 -56.5z
M103 563q-8 0 -13.5 5t-5.5 13v41q0 19 19 19h256q19 0 19 -19v-41q0 -8 -5.5 -13t-13.5 -5h-256z" />
    <glyph glyph-name="obreve" unicode="&#x14f;" horiz-adv-x="462" 
d="M23 201q0 42 16.5 80t45 66.5t66 45.5t80.5 17t80.5 -17t66 -45.5t45 -66.5t16.5 -80q0 -43 -16.5 -81.5t-45 -67t-66 -45.5t-80.5 -17t-80.5 17t-66 45.5t-45 67t-16.5 81.5zM152 201q0 -34 23 -58t56 -24t56 24t23 58q0 33 -23 56.5t-56 23.5t-56 -23.5t-23 -56.5z
M231 527q-56 0 -95 34.5t-47 85.5q-2 9 3.5 15.5t15.5 6.5h45q6 0 10.5 -3.5t6.5 -8.5q7 -20 23 -34t38 -14q20 0 36 15t23 33q2 5 7 8.5t10 3.5h47q9 0 14.5 -6.5t4.5 -15.5q-4 -26 -16.5 -47.5t-31.5 -38t-43 -25.5t-51 -9z" />
    <glyph glyph-name="ohungarumlaut" unicode="&#x151;" horiz-adv-x="462" 
d="M23 201q0 42 16.5 80t45 66.5t66 45.5t80.5 17t80.5 -17t66 -45.5t45 -66.5t16.5 -80q0 -43 -16.5 -81.5t-45 -67t-66 -45.5t-80.5 -17t-80.5 17t-66 45.5t-45 67t-16.5 81.5zM152 201q0 -34 23 -58t56 -24t56 24t23 58q0 33 -23 56.5t-56 23.5t-56 -23.5t-23 -56.5z
M296 521q-8 0 -14.5 5.5t-4.5 13.5l30 141q2 8 6.5 13.5t12.5 5.5h94q14 0 19 -8t-1 -17l-78 -139q-4 -5 -8.5 -10t-9.5 -5h-46zM130 521q-8 0 -14.5 5.5t-4.5 13.5l30 141q2 8 6.5 13.5t12.5 5.5h94q14 0 18.5 -7.5t-0.5 -17.5l-78 -139q-3 -6 -8 -10.5t-10 -4.5h-46z" />
    <glyph glyph-name="oslash" unicode="&#xf8;" horiz-adv-x="466" 
d="M44 21q-5 5 -5.5 13t4.5 13l25 25q-20 26 -31.5 60t-11.5 70q0 42 16.5 80t45 66.5t66 45t80.5 16.5q35 0 67.5 -12t58.5 -32l28 28q5 6 13 5.5t13 -5.5l12 -12q14 -12 0 -26l-28 -28q20 -26 32 -58.5t12 -67.5q0 -43 -16.5 -81.5t-45 -67.5t-66 -46t-80.5 -17
q-35 0 -67.5 11.5t-58.5 31.5l-25 -25q-5 -5 -13 -4.5t-13 5.5zM267 274q-14 7 -34 7q-33 0 -56 -23t-23 -56q0 -20 7 -34zM199 126q14 -7 34 -7q33 0 56 24.5t23 58.5q0 9 -2 17t-5 16z" />
    <glyph glyph-name="oslashacute" unicode="&#x1ff;" horiz-adv-x="470" 
d="M44 21q-5 5 -5.5 13t4.5 13l25 25q-20 26 -31.5 60t-11.5 70q0 42 16.5 80t45 66.5t66 45t80.5 16.5q35 0 67.5 -12t58.5 -32l28 28q5 6 13 5.5t13 -5.5l12 -12q14 -12 0 -26l-28 -28q20 -26 32 -58.5t12 -67.5q0 -43 -16.5 -81.5t-45 -67.5t-66 -46t-80.5 -17
q-35 0 -67.5 11.5t-58.5 31.5l-25 -25q-5 -5 -13 -4.5t-13 5.5zM267 274q-14 7 -34 7q-33 0 -56 -23t-23 -56q0 -20 7 -34zM199 126q14 -7 34 -7q33 0 56 24.5t23 58.5q0 9 -2 17t-5 16zM160 512q-10 -6 -16.5 -2.5t-10.5 11.5l-21 42q-3 6 -0.5 11t6.5 8l170 104
q5 3 13.5 3.5t12.5 -6.5l34 -59q6 -11 3 -18.5t-9 -11.5z" />
    <glyph glyph-name="oe" unicode="&#x153;" horiz-adv-x="710" 
d="M24 202q0 42 16.5 80t45 66.5t66 45t80.5 16.5q38 0 72.5 -14.5t61.5 -37.5q27 24 61 38t75 14q38 0 72.5 -14t60.5 -39t41.5 -59.5t15.5 -75.5q0 -5 -0.5 -13.5t-1.5 -13.5q-1 -8 -6.5 -12.5t-12.5 -4.5h-240q1 -10 6 -22t14 -22t23 -16.5t34 -6.5q19 0 37.5 7.5
t30.5 16.5q5 4 12.5 4.5t12.5 -4.5q15 -17 25.5 -30t26.5 -29q5 -5 5.5 -13.5t-4.5 -13.5q-28 -28 -65 -43.5t-85 -15.5q-41 0 -75.5 13.5t-62.5 37.5q-27 -24 -61.5 -37.5t-72.5 -13.5q-43 0 -80.5 17t-66 46t-45 67.5t-16.5 81.5zM551 256q-2 20 -17.5 33.5t-35.5 13.5
t-35.5 -13.5t-18.5 -33.5h107zM153 202q0 -34 23 -58.5t56 -24.5t56 24.5t23 58.5q0 33 -23 56t-56 23t-56 -23t-23 -56z" />
    <glyph glyph-name="racute" unicode="&#x155;" horiz-adv-x="345" 
d="M54 381q0 8 5.5 13.5t13.5 5.5h47q8 0 12 -3.5t6 -8.5l18 -44q7 11 18 22.5t24.5 21.5t30 16t36.5 6q21 0 38 -3.5t28 -9.5t15 -13.5t-1 -16.5l-49 -80q-3 -5 -8.5 -8.5t-13.5 -0.5q-4 2 -10.5 3.5t-13.5 1.5q-23 0 -38 -15.5t-15 -41.5v-207q0 -19 -22 -19h-102
q-8 0 -13.5 5.5t-5.5 13.5v362zM106 512q-10 -6 -16.5 -2.5t-10.5 11.5l-21 42q-3 6 -0.5 11t6.5 8l170 104q5 3 13.5 3.5t12.5 -6.5l34 -59q6 -11 3 -18.5t-9 -11.5z" />
    <glyph glyph-name="rcaron" unicode="&#x159;" horiz-adv-x="345" 
d="M54 381q0 8 5.5 13.5t13.5 5.5h47q8 0 12 -3.5t6 -8.5l18 -44q7 11 18 22.5t24.5 21.5t30 16t36.5 6q21 0 38 -3.5t28 -9.5t15 -13.5t-1 -16.5l-49 -80q-3 -5 -8.5 -8.5t-13.5 -0.5q-4 2 -10.5 3.5t-13.5 1.5q-23 0 -38 -15.5t-15 -41.5v-207q0 -19 -22 -19h-102
q-8 0 -13.5 5.5t-5.5 13.5v362zM28 616q-4 3 -6.5 8t0.5 11l34 46q9 12 21 5l99 -58l100 58q8 5 12.5 3.5t9.5 -7.5l33 -47q4 -5 1 -10.5t-7 -8.5l-135 -104q-6 -5 -12.5 -4t-11.5 4z" />
    <glyph glyph-name="rcommaaccent" unicode="&#x157;" horiz-adv-x="345" 
d="M54 381q0 8 5.5 13.5t13.5 5.5h47q8 0 12 -3.5t6 -8.5l18 -44q7 11 18 22.5t24.5 21.5t30 16t36.5 6q21 0 38 -3.5t28 -9.5t15 -13.5t-1 -16.5l-49 -80q-3 -5 -8.5 -8.5t-13.5 -0.5q-4 2 -10.5 3.5t-13.5 1.5q-23 0 -38 -15.5t-15 -41.5v-207q0 -19 -22 -19h-102
q-8 0 -13.5 5.5t-5.5 13.5v362zM124 -90q14 0 30 -6t29.5 -19.5t22.5 -35.5t9 -55q0 -39 -11.5 -69.5t-26.5 -52.5t-30.5 -36t-24.5 -21q-5 -4 -10.5 -4.5t-11.5 6.5l-15 15q-5 6 -4.5 12t5.5 10q4 3 15.5 12.5t23.5 25t22 36t10 46.5q-5 -2 -11 -4q-11 -3 -29 -3
q-29 0 -50.5 20.5t-21.5 50.5q0 29 22 50.5t57 21.5z" />
    <glyph glyph-name="sacute" unicode="&#x15b;" horiz-adv-x="371" 
d="M40 23q-5 5 -8 9.5t1 11.5l35 69q2 5 8.5 8t12.5 0q14 -8 29 -13q13 -5 28.5 -9t32.5 -4q8 0 13.5 4.5t5.5 13.5q0 8 -9.5 18t-47.5 24q-59 20 -85.5 53.5t-26.5 80.5q0 25 9 47t28.5 38.5t48.5 26t70 9.5q48 0 82 -10t51 -21q7 -5 11 -11t-1 -14l-37 -68
q-2 -5 -8.5 -6.5t-12.5 0.5q-14 6 -28 11q-12 5 -27.5 8.5t-29.5 3.5q-22 0 -22 -14q0 -8 9.5 -15.5t35.5 -16.5q30 -11 55.5 -22.5t43.5 -28t28 -38t10 -51.5q0 -26 -10.5 -49.5t-31.5 -40.5t-53 -27t-74 -10q-50 0 -85.5 10.5t-50.5 22.5zM116 512q-10 -6 -16.5 -2.5
t-10.5 11.5l-21 42q-3 6 -0.5 11t6.5 8l170 104q5 3 13.5 3.5t12.5 -6.5l34 -59q6 -11 3 -18.5t-9 -11.5z" />
    <glyph glyph-name="scircumflex" unicode="&#x15d;" horiz-adv-x="371" 
d="M40 23q-5 5 -8 9.5t1 11.5l35 69q2 5 8.5 8t12.5 0q14 -8 29 -13q13 -5 28.5 -9t32.5 -4q8 0 13.5 4.5t5.5 13.5q0 8 -9.5 18t-47.5 24q-59 20 -85.5 53.5t-26.5 80.5q0 25 9 47t28.5 38.5t48.5 26t70 9.5q48 0 82 -10t51 -21q7 -5 11 -11t-1 -14l-37 -68
q-2 -5 -8.5 -6.5t-12.5 0.5q-14 6 -28 11q-12 5 -27.5 8.5t-29.5 3.5q-22 0 -22 -14q0 -8 9.5 -15.5t35.5 -16.5q30 -11 55.5 -22.5t43.5 -28t28 -38t10 -51.5q0 -26 -10.5 -49.5t-31.5 -40.5t-53 -27t-74 -10q-50 0 -85.5 10.5t-50.5 22.5zM87 512q-8 -5 -12.5 -3.5
t-9.5 7.5l-33 47q-4 5 -1 10.5t7 8.5l135 104q6 5 12.5 4t11.5 -4l138 -104q4 -3 6.5 -8t-0.5 -11l-34 -46q-9 -12 -21 -5l-99 58z" />
    <glyph glyph-name="scaron" unicode="&#x161;" horiz-adv-x="371" 
d="M40 23q-5 5 -8 9.5t1 11.5l35 69q2 5 8.5 8t12.5 0q14 -8 29 -13q13 -5 28.5 -9t32.5 -4q8 0 13.5 4.5t5.5 13.5q0 8 -9.5 18t-47.5 24q-59 20 -85.5 53.5t-26.5 80.5q0 25 9 47t28.5 38.5t48.5 26t70 9.5q48 0 82 -10t51 -21q7 -5 11 -11t-1 -14l-37 -68
q-2 -5 -8.5 -6.5t-12.5 0.5q-14 6 -28 11q-12 5 -27.5 8.5t-29.5 3.5q-22 0 -22 -14q0 -8 9.5 -15.5t35.5 -16.5q30 -11 55.5 -22.5t43.5 -28t28 -38t10 -51.5q0 -26 -10.5 -49.5t-31.5 -40.5t-53 -27t-74 -10q-50 0 -85.5 10.5t-50.5 22.5zM37 616q-4 3 -6.5 8t0.5 11
l34 46q9 12 21 5l99 -58l100 58q8 5 12.5 3.5t9.5 -7.5l33 -47q4 -5 1 -10.5t-7 -8.5l-135 -104q-6 -5 -12.5 -4t-11.5 4z" />
    <glyph glyph-name="scedilla" unicode="&#x15f;" horiz-adv-x="372" 
d="M41 23q-5 5 -8 9.5t1 11.5l35 69q2 5 8.5 8t12.5 0q14 -8 29 -13q13 -5 28.5 -9t32.5 -4q8 0 13.5 4.5t5.5 13.5q0 8 -9.5 18t-47.5 24q-59 20 -85.5 53.5t-26.5 80.5q0 25 9 47t28.5 38.5t48.5 26t70 9.5q48 0 82 -10t51 -21q7 -5 11 -11t-1 -14l-37 -68
q-2 -5 -8.5 -6.5t-12.5 0.5q-14 6 -28 11q-12 5 -27.5 8.5t-29.5 3.5q-22 0 -22 -14q0 -8 9.5 -15.5t35.5 -16.5q30 -11 55.5 -22.5t43.5 -28t28 -38t10 -51.5q0 -50 -37.5 -85.5t-113.5 -40.5v-43q46 -6 69 -33.5t23 -68.5q0 -22 -8.5 -41t-22.5 -33.5t-33.5 -23
t-41.5 -8.5q-23 0 -43 10t-33 25q-13 14 4 29l23 20q5 5 11 4t10 -6t11 -7t13 -2q12 0 21 10t9 22q0 5 -2 12t-9 13t-20.5 11t-36.5 6q-11 2 -14 8t-3 10v89q-29 5 -49.5 13t-31.5 16z" />
    <glyph glyph-name="scommaaccent" unicode="&#x219;" horiz-adv-x="370" 
d="M40 23q-5 5 -8 9.5t1 11.5l35 69q2 5 8.5 8t12.5 0q14 -8 29 -13q13 -5 28.5 -9t32.5 -4q8 0 13.5 4.5t5.5 13.5q0 8 -9.5 18t-47.5 24q-59 20 -85.5 53.5t-26.5 80.5q0 25 9 47t28.5 38.5t48.5 26t70 9.5q48 0 82 -10t51 -21q7 -5 11 -11t-1 -14l-37 -68
q-2 -5 -8.5 -6.5t-12.5 0.5q-14 6 -28 11q-12 5 -27.5 8.5t-29.5 3.5q-22 0 -22 -14q0 -8 9.5 -15.5t35.5 -16.5q30 -11 55.5 -22.5t43.5 -28t28 -38t10 -51.5q0 -26 -10.5 -49.5t-31.5 -40.5t-53 -27t-74 -10q-50 0 -85.5 10.5t-50.5 22.5zM195 -90q14 0 30 -6t29.5 -19.5
t22.5 -35.5t9 -55q0 -39 -11.5 -69.5t-26.5 -52.5t-30.5 -36t-24.5 -21q-5 -4 -10.5 -4.5t-11.5 6.5l-15 15q-5 6 -4.5 12t5.5 10q4 3 15.5 12.5t23.5 25t22 36t10 46.5q-5 -2 -11 -4q-11 -3 -29 -3q-29 0 -50.5 20.5t-21.5 50.5q0 29 22 50.5t57 21.5z" />
    <glyph glyph-name="germandbls" unicode="&#xdf;" horiz-adv-x="540" 
d="M54 413q0 75 18.5 131t51.5 93t79 55t101 18q30 0 60 -9.5t54 -29t39 -50t15 -71.5q0 -33 -11.5 -60.5t-25.5 -52l-25.5 -46.5t-11.5 -42q0 -13 12.5 -26.5t27.5 -27.5q13 -12 27.5 -27t26.5 -33.5t19.5 -40.5t7.5 -47q0 -48 -17.5 -78.5t-45.5 -47.5t-62.5 -23.5
t-68.5 -7.5q-7 0 -12.5 4t-7.5 11l-19 84q-2 8 3 14.5t13 8.5q23 4 39.5 16.5t16.5 35.5q0 19 -14.5 33t-30.5 25q-24 18 -45 42t-21 60q0 27 11.5 54t25.5 54.5t25.5 55.5t11.5 56q0 14 -8 24.5t-25 10.5q-9 0 -23.5 -6.5t-28 -25t-23 -51.5t-9.5 -86v-391q0 -8 -5.5 -13.5
t-13.5 -5.5h-112q-8 0 -13.5 5.5t-5.5 13.5v394z" />
    <glyph glyph-name="tcaron" unicode="&#x165;" horiz-adv-x="344" 
d="M70 273h-26q-8 0 -13 5.5t-5 13.5v89q0 8 5 13.5t13 5.5h26v111q0 8 5.5 13.5t13.5 5.5h107q8 0 13 -5.5t5 -13.5v-111h74q19 0 19 -19v-89q0 -8 -5.5 -13.5t-13.5 -5.5h-74v-125q0 -17 9 -20.5t18 -3.5q11 0 21 2.5l18 4.5q17 3 22 -13l22 -83q2 -7 -1.5 -14t-11.5 -9
q-21 -7 -42 -11q-18 -5 -39 -8t-40 -3q-57 0 -88.5 35t-31.5 104v144zM378 432q-5 6 -4.5 12t5.5 10q4 3 15.5 12.5t23.5 25t22 36t10 46.5q-5 -2 -11 -4q-11 -3 -29 -3q-29 0 -50.5 20.5t-21.5 50.5q0 29 22 50.5t57 21.5q14 0 30 -6t29.5 -19.5t22.5 -35.5t9 -55
q0 -39 -11.5 -69.5t-26.5 -52.5t-30.5 -36t-24.5 -21q-5 -4 -10.5 -4.5t-11.5 6.5z" />
    <glyph glyph-name="tcommaaccent" unicode="&#x163;" horiz-adv-x="344" 
d="M70 273h-26q-8 0 -13 5.5t-5 13.5v89q0 8 5 13.5t13 5.5h26v111q0 8 5.5 13.5t13.5 5.5h107q8 0 13 -5.5t5 -13.5v-111h74q19 0 19 -19v-89q0 -8 -5.5 -13.5t-13.5 -5.5h-74v-125q0 -17 9 -20.5t18 -3.5q11 0 21 2.5l18 4.5q17 3 22 -13l22 -83q2 -7 -1.5 -14t-11.5 -9
q-21 -7 -42 -11q-18 -5 -39 -8t-40 -3q-57 0 -88.5 35t-31.5 104v144zM184 -90q14 0 30 -6t29.5 -19.5t22.5 -35.5t9 -55q0 -39 -11.5 -69.5t-26.5 -52.5t-30.5 -36t-24.5 -21q-5 -4 -10.5 -4.5t-11.5 6.5l-15 15q-5 6 -4.5 12t5.5 10q4 3 15.5 12.5t23.5 25t22 36t10 46.5
q-5 -2 -11 -4q-11 -3 -29 -3q-29 0 -50.5 20.5t-21.5 50.5q0 29 22 50.5t57 21.5z" />
    <glyph glyph-name="uni021B" unicode="&#x21b;" horiz-adv-x="344" 
d="M70 273h-26q-8 0 -13 5.5t-5 13.5v89q0 8 5 13.5t13 5.5h26v111q0 8 5.5 13.5t13.5 5.5h107q8 0 13 -5.5t5 -13.5v-111h74q19 0 19 -19v-89q0 -8 -5.5 -13.5t-13.5 -5.5h-74v-125q0 -17 9 -20.5t18 -3.5q11 0 21 2.5l18 4.5q17 3 22 -13l22 -83q2 -7 -1.5 -14t-11.5 -9
q-21 -7 -42 -11q-18 -5 -39 -8t-40 -3q-57 0 -88.5 35t-31.5 104v144zM184 -90q14 0 30 -6t29.5 -19.5t22.5 -35.5t9 -55q0 -39 -11.5 -69.5t-26.5 -52.5t-30.5 -36t-24.5 -21q-5 -4 -10.5 -4.5t-11.5 6.5l-15 15q-5 6 -4.5 12t5.5 10q4 3 15.5 12.5t23.5 25t22 36t10 46.5
q-5 -2 -11 -4q-11 -3 -29 -3q-29 0 -50.5 20.5t-21.5 50.5q0 29 22 50.5t57 21.5z" />
    <glyph glyph-name="tbar" unicode="&#x167;" horiz-adv-x="344" 
d="M70 168h-26q-8 0 -13 5.5t-5 13.5v17q0 8 5 13.5t13 5.5h26v50h-26q-8 0 -13 5.5t-5 13.5v89q0 8 5 13.5t13 5.5h26v111q0 8 5.5 13.5t13.5 5.5h107q8 0 13 -5.5t5 -13.5v-111h74q19 0 19 -19v-89q0 -8 -5.5 -13.5t-13.5 -5.5h-74v-50h74q8 0 13.5 -5.5t5.5 -13.5v-18
q0 -8 -5.5 -13t-13.5 -5h-74v-17q0 -17 10 -20.5t19 -3.5q11 0 20 1t17 3q17 3 22 -13l22 -83q1 -7 -2 -14t-11 -9q-21 -7 -42 -11q-18 -5 -39 -8t-40 -3q-57 0 -88.5 35t-31.5 104v39z" />
    <glyph glyph-name="thorn" unicode="&#xfe;" 
d="M203 -282q0 -8 -5.5 -13.5t-13.5 -5.5h-111q-8 0 -13.5 5.5t-5.5 13.5v963q0 8 5.5 13.5t13.5 5.5h111q8 0 13.5 -5.5t5.5 -13.5v-296q14 10 38 17.5t49 7.5q41 0 76.5 -15t62 -42.5t41.5 -66t15 -86.5q0 -45 -16.5 -83t-45 -66.5t-66.5 -44.5t-81 -16q-14 0 -34.5 4
t-38.5 12v-288zM187 200q0 -34 22 -57t57 -23q34 0 57 23t23 57q0 33 -23 56t-57 23q-33 0 -56 -23t-23 -56z" />
    <glyph glyph-name="ugrave" unicode="&#xf9;" 
d="M45 381q0 8 5.5 13.5t13.5 5.5h107q8 0 13.5 -5.5t5.5 -13.5v-185q0 -31 16.5 -54t47.5 -23q29 0 44.5 22.5t15.5 48.5v191q0 12 6.5 15.5t14.5 3.5h102q8 0 13.5 -5.5t5.5 -13.5v-362q0 -8 -5.5 -13.5t-13.5 -5.5h-47q-7 0 -12 4.5t-7 9.5l-15 37l-21.5 -20t-27 -20
t-36.5 -15t-50 -6q-45 0 -78 17t-54.5 45.5t-32.5 66.5t-11 81v181zM152 544q-6 4 -9 11.5t3 18.5l34 59q4 7 12.5 6.5t13.5 -3.5l170 -104q4 -3 6.5 -8t-0.5 -11l-21 -42q-4 -8 -10.5 -11.5t-16.5 2.5z" />
    <glyph glyph-name="uacute" unicode="&#xfa;" 
d="M45 381q0 8 5.5 13.5t13.5 5.5h107q8 0 13.5 -5.5t5.5 -13.5v-185q0 -31 16.5 -54t47.5 -23q29 0 44.5 22.5t15.5 48.5v191q0 12 6.5 15.5t14.5 3.5h102q8 0 13.5 -5.5t5.5 -13.5v-362q0 -8 -5.5 -13.5t-13.5 -5.5h-47q-7 0 -12 4.5t-7 9.5l-15 37l-21.5 -20t-27 -20
t-36.5 -15t-50 -6q-45 0 -78 17t-54.5 45.5t-32.5 66.5t-11 81v181zM182 462q-10 -6 -16.5 -2.5t-10.5 11.5l-21 42q-3 6 -0.5 11t6.5 8l170 104q5 3 13.5 3.5t12.5 -6.5l34 -59q6 -11 3 -18.5t-9 -11.5z" />
    <glyph glyph-name="ucircumflex" unicode="&#xfb;" 
d="M45 381q0 8 5.5 13.5t13.5 5.5h107q8 0 13.5 -5.5t5.5 -13.5v-185q0 -31 16.5 -54t47.5 -23q29 0 44.5 22.5t15.5 48.5v191q0 12 6.5 15.5t14.5 3.5h102q8 0 13.5 -5.5t5.5 -13.5v-362q0 -8 -5.5 -13.5t-13.5 -5.5h-47q-7 0 -12 4.5t-7 9.5l-15 37l-21.5 -20t-27 -20
t-36.5 -15t-50 -6q-45 0 -78 17t-54.5 45.5t-32.5 66.5t-11 81v181zM154 512q-8 -5 -12.5 -3.5t-9.5 7.5l-33 47q-4 5 -1 10.5t7 8.5l135 104q6 5 12.5 4t11.5 -4l138 -104q4 -3 6.5 -8t-0.5 -11l-34 -46q-9 -12 -21 -5l-99 58z" />
    <glyph glyph-name="utilde" unicode="&#x169;" 
d="M45 381q0 8 5.5 13.5t13.5 5.5h107q8 0 13.5 -5.5t5.5 -13.5v-185q0 -31 16.5 -54t47.5 -23q29 0 44.5 22.5t15.5 48.5v191q0 12 6.5 15.5t14.5 3.5h102q8 0 13.5 -5.5t5.5 -13.5v-362q0 -8 -5.5 -13.5t-13.5 -5.5h-47q-7 0 -12 4.5t-7 9.5l-15 37l-21.5 -20t-27 -20
t-36.5 -15t-50 -6q-45 0 -78 17t-54.5 45.5t-32.5 66.5t-11 81v181zM101 503q-5 4 -6.5 11t0.5 12q4 7 13.5 21t23.5 28t32 24.5t38 10.5q18 0 31.5 -7.5t25.5 -16t24 -16t27 -7.5q12 0 22.5 11.5t15.5 19.5q4 6 10.5 7.5t14.5 -5.5l34 -26q14 -10 1 -29l-12.5 -19
t-21.5 -26t-29.5 -23t-36.5 -10t-34.5 7.5t-27 16.5t-24 16.5t-24.5 7.5q-7 0 -12.5 -4t-10.5 -9.5t-9.5 -11.5l-7.5 -10q-9 -9 -22 -1z" />
    <glyph glyph-name="udieresis" unicode="&#xfc;" 
d="M45 381q0 8 5.5 13.5t13.5 5.5h107q8 0 13.5 -5.5t5.5 -13.5v-185q0 -31 16.5 -54t47.5 -23q29 0 44.5 22.5t15.5 48.5v191q0 12 6.5 15.5t14.5 3.5h102q8 0 13.5 -5.5t5.5 -13.5v-362q0 -8 -5.5 -13.5t-13.5 -5.5h-47q-7 0 -12 4.5t-7 9.5l-15 37l-21.5 -20t-27 -20
t-36.5 -15t-50 -6q-45 0 -78 17t-54.5 45.5t-32.5 66.5t-11 81v181zM355 535q-29 0 -49.5 21t-20.5 50t20.5 49.5t49.5 20.5t50 -20.5t21 -49.5t-21 -50t-50 -21zM150 535q-29 0 -49.5 21t-20.5 50t20.5 49.5t49.5 20.5t50 -20.5t21 -49.5t-21 -50t-50 -21z" />
    <glyph glyph-name="umacron" unicode="&#x16b;" 
d="M45 381q0 8 5.5 13.5t13.5 5.5h107q8 0 13.5 -5.5t5.5 -13.5v-185q0 -31 16.5 -54t47.5 -23q29 0 44.5 22.5t15.5 48.5v191q0 12 6.5 15.5t14.5 3.5h102q8 0 13.5 -5.5t5.5 -13.5v-362q0 -8 -5.5 -13.5t-13.5 -5.5h-47q-7 0 -12 4.5t-7 9.5l-15 37l-21.5 -20t-27 -20
t-36.5 -15t-50 -6q-45 0 -78 17t-54.5 45.5t-32.5 66.5t-11 81v181zM125 563q-8 0 -13.5 5t-5.5 13v41q0 19 19 19h256q19 0 19 -19v-41q0 -8 -5.5 -13t-13.5 -5h-256z" />
    <glyph glyph-name="ubreve" unicode="&#x16d;" 
d="M45 381q0 8 5.5 13.5t13.5 5.5h107q8 0 13.5 -5.5t5.5 -13.5v-185q0 -31 16.5 -54t47.5 -23q29 0 44.5 22.5t15.5 48.5v191q0 12 6.5 15.5t14.5 3.5h102q8 0 13.5 -5.5t5.5 -13.5v-362q0 -8 -5.5 -13.5t-13.5 -5.5h-47q-7 0 -12 4.5t-7 9.5l-15 37l-21.5 -20t-27 -20
t-36.5 -15t-50 -6q-45 0 -78 17t-54.5 45.5t-32.5 66.5t-11 81v181zM255 527q-56 0 -95 34.5t-47 85.5q-2 9 3.5 15.5t15.5 6.5h45q6 0 10.5 -3.5t6.5 -8.5q7 -20 23 -34t38 -14q20 0 36 15t23 33q2 5 7 8.5t10 3.5h47q9 0 14.5 -6.5t4.5 -15.5q-4 -26 -16.5 -47.5
t-31.5 -38t-43 -25.5t-51 -9z" />
    <glyph glyph-name="uring" unicode="&#x16f;" 
d="M45 381q0 8 5.5 13.5t13.5 5.5h107q8 0 13.5 -5.5t5.5 -13.5v-185q0 -31 16.5 -54t47.5 -23q29 0 44.5 22.5t15.5 48.5v191q0 12 6.5 15.5t14.5 3.5h102q8 0 13.5 -5.5t5.5 -13.5v-362q0 -8 -5.5 -13.5t-13.5 -5.5h-47q-7 0 -12 4.5t-7 9.5l-15 37l-21.5 -20t-27 -20
t-36.5 -15t-50 -6q-45 0 -78 17t-54.5 45.5t-32.5 66.5t-11 81v181zM255 480q-24 0 -45 9t-36.5 24.5t-24.5 36.5t-9 45t9 45t24.5 36.5t36.5 24.5t45 9t44.5 -9t36.5 -24.5t25 -36.5t9 -45t-9 -45t-25 -36.5t-36.5 -24.5t-44.5 -9zM255 551q17 0 30 13.5t13 30.5t-13 30
t-30 13t-30.5 -13t-13.5 -30t13.5 -30.5t30.5 -13.5z" />
    <glyph glyph-name="uhungarumlaut" unicode="&#x171;" 
d="M45 381q0 8 5.5 13.5t13.5 5.5h107q8 0 13.5 -5.5t5.5 -13.5v-185q0 -31 16.5 -54t47.5 -23q29 0 44.5 22.5t15.5 48.5v191q0 12 6.5 15.5t14.5 3.5h102q8 0 13.5 -5.5t5.5 -13.5v-362q0 -8 -5.5 -13.5t-13.5 -5.5h-47q-7 0 -12 4.5t-7 9.5l-15 37l-21.5 -20t-27 -20
t-36.5 -15t-50 -6q-45 0 -78 17t-54.5 45.5t-32.5 66.5t-11 81v181zM322 521q-8 0 -14.5 5.5t-4.5 13.5l30 141q2 8 6.5 13.5t12.5 5.5h94q14 0 19 -8t-1 -17l-78 -139q-4 -5 -8.5 -10t-9.5 -5h-46zM156 521q-8 0 -14.5 5.5t-4.5 13.5l30 141q2 8 6.5 13.5t12.5 5.5h94
q14 0 18.5 -7.5t-0.5 -17.5l-78 -139q-3 -6 -8 -10.5t-10 -4.5h-46z" />
    <glyph glyph-name="uogonek" unicode="&#x173;" 
d="M45 381q0 8 5.5 13.5t13.5 5.5h107q8 0 13.5 -5.5t5.5 -13.5v-181q0 -31 16.5 -52t47.5 -21q29 0 44.5 20.5t15.5 46.5v187q0 12 6.5 15.5t14.5 3.5h102q8 0 13.5 -5.5t5.5 -13.5v-362q0 -8 -5.5 -13.5t-13.5 -5.5h-9q-14 -14 -29.5 -38.5t-15.5 -56.5q0 -27 16.5 -47
t53.5 -20q13 0 23 2t18 4q10 2 16 -4t6 -15v-33q0 -7 -4.5 -12t-10.5 -7l-21 -4q-9 -2 -20 -3t-22 -1q-29 0 -54 7t-43.5 21t-29.5 35.5t-11 50.5q0 30 10 53.5t22.5 41t24 27.5t14.5 12v1l-15 37l-21.5 -20t-27 -20t-36.5 -15t-50 -6q-45 0 -78 17t-54.5 45.5t-32.5 66.5
t-11 81v181z" />
    <glyph glyph-name="wacute" unicode="&#x1e83;" horiz-adv-x="619" 
d="M10 375q-4 10 1.5 17.5t16.5 7.5h95q5 0 10.5 -3.5t7.5 -8.5l52 -137h1l95 151q2 2 5.5 5t10.5 3h10q11 0 15 -8l96 -151h1l51 137q5 12 20 12h93q11 0 16.5 -7.5t1.5 -17.5l-133 -373q-2 -5 -7.5 -8.5t-10.5 -3.5h-4q-4 0 -9 2.5t-7 5.5l-129 200h-1l-127 -200
q-6 -8 -16 -8h-5q-5 0 -10.5 3.5t-6.5 8.5zM238 512q-10 -6 -16.5 -2.5t-10.5 11.5l-21 42q-3 6 -0.5 11t6.5 8l170 104q5 3 13.5 3.5t12.5 -6.5l34 -59q6 -11 3 -18.5t-9 -11.5z" />
    <glyph glyph-name="wcircumflex" unicode="&#x175;" horiz-adv-x="619" 
d="M10 375q-4 10 1.5 17.5t16.5 7.5h95q5 0 10.5 -3.5t7.5 -8.5l52 -137h1l95 151q2 2 5.5 5t10.5 3h10q11 0 15 -8l96 -151h1l51 137q5 12 20 12h93q11 0 16.5 -7.5t1.5 -17.5l-133 -373q-2 -5 -7.5 -8.5t-10.5 -3.5h-4q-4 0 -9 2.5t-7 5.5l-129 200h-1l-127 -200
q-6 -8 -16 -8h-5q-5 0 -10.5 3.5t-6.5 8.5zM210 512q-8 -5 -12.5 -3.5t-9.5 7.5l-33 47q-4 5 -1 10.5t7 8.5l135 104q6 5 12.5 4t11.5 -4l138 -104q4 -3 6.5 -8t-0.5 -11l-34 -46q-9 -12 -21 -5l-99 58z" />
    <glyph glyph-name="wdieresis" unicode="&#x1e85;" horiz-adv-x="619" 
d="M10 375q-4 10 1.5 17.5t16.5 7.5h95q5 0 10.5 -3.5t7.5 -8.5l52 -137h1l95 151q2 2 5.5 5t10.5 3h10q11 0 15 -8l96 -151h1l51 137q5 12 20 12h93q11 0 16.5 -7.5t1.5 -17.5l-133 -373q-2 -5 -7.5 -8.5t-10.5 -3.5h-4q-4 0 -9 2.5t-7 5.5l-129 200h-1l-127 -200
q-6 -8 -16 -8h-5q-5 0 -10.5 3.5t-6.5 8.5zM411 535q-29 0 -49.5 21t-20.5 50t20.5 49.5t49.5 20.5t50 -20.5t21 -49.5t-21 -50t-50 -21zM206 535q-29 0 -49.5 21t-20.5 50t20.5 49.5t49.5 20.5t50 -20.5t21 -49.5t-21 -50t-50 -21z" />
    <glyph glyph-name="wgrave" unicode="&#x1e81;" horiz-adv-x="619" 
d="M10 375q-4 10 1.5 17.5t16.5 7.5h95q5 0 10.5 -3.5t7.5 -8.5l52 -137h1l95 151q2 2 5.5 5t10.5 3h10q11 0 15 -8l96 -151h1l51 137q5 12 20 12h93q11 0 16.5 -7.5t1.5 -17.5l-133 -373q-2 -5 -7.5 -8.5t-10.5 -3.5h-4q-4 0 -9 2.5t-7 5.5l-129 200h-1l-127 -200
q-6 -8 -16 -8h-5q-5 0 -10.5 3.5t-6.5 8.5zM208 594q-6 4 -9 11.5t3 18.5l34 59q4 7 12.5 6.5t13.5 -3.5l170 -104q4 -3 6.5 -8t-0.5 -11l-21 -42q-4 -8 -10.5 -11.5t-16.5 2.5z" />
    <glyph glyph-name="yacute" unicode="&#xfd;" horiz-adv-x="465" 
d="M6 374q-5 10 0.5 18t16.5 8h114q11 0 17 -11l77 -186h2l79 186q4 11 17 11h113q11 0 16.5 -8t0.5 -18l-306 -662q-2 -5 -6.5 -8.5t-10.5 -3.5h-112q-11 0 -16.5 8t-0.5 19l149 314zM160 462q-10 -6 -16.5 -2.5t-10.5 11.5l-21 42q-3 6 -0.5 11t6.5 8l170 104
q5 3 13.5 3.5t12.5 -6.5l34 -59q6 -11 3 -18.5t-9 -11.5z" />
    <glyph glyph-name="ycircumflex" unicode="&#x177;" horiz-adv-x="465" 
d="M6 374q-5 10 0.5 18t16.5 8h114q11 0 17 -11l77 -186h2l79 186q4 11 17 11h113q11 0 16.5 -8t0.5 -18l-306 -662q-2 -5 -6.5 -8.5t-10.5 -3.5h-112q-11 0 -16.5 8t-0.5 19l149 314zM133 512q-8 -5 -12.5 -3.5t-9.5 7.5l-33 47q-4 5 -1 10.5t7 8.5l135 104q6 5 12.5 4
t11.5 -4l138 -104q4 -3 6.5 -8t-0.5 -11l-34 -46q-9 -12 -21 -5l-99 58z" />
    <glyph glyph-name="ydieresis" unicode="&#xff;" horiz-adv-x="465" 
d="M6 374q-5 10 0.5 18t16.5 8h114q11 0 17 -11l77 -186h2l79 186q4 11 17 11h113q11 0 16.5 -8t0.5 -18l-306 -662q-2 -5 -6.5 -8.5t-10.5 -3.5h-112q-11 0 -16.5 8t-0.5 19l149 314zM334 535q-29 0 -49.5 21t-20.5 50t20.5 49.5t49.5 20.5t50 -20.5t21 -49.5t-21 -50
t-50 -21zM129 535q-29 0 -49.5 21t-20.5 50t20.5 49.5t49.5 20.5t50 -20.5t21 -49.5t-21 -50t-50 -21z" />
    <glyph glyph-name="ygrave" unicode="&#x1ef3;" horiz-adv-x="465" 
d="M6 374q-5 10 0.5 18t16.5 8h114q11 0 17 -11l77 -186h2l79 186q4 11 17 11h113q11 0 16.5 -8t0.5 -18l-306 -662q-2 -5 -6.5 -8.5t-10.5 -3.5h-112q-11 0 -16.5 8t-0.5 19l149 314zM122 534q-6 4 -9 11.5t3 18.5l34 59q4 7 12.5 6.5t13.5 -3.5l170 -104q4 -3 6.5 -8
t-0.5 -11l-21 -42q-4 -8 -10.5 -11.5t-16.5 2.5z" />
    <glyph glyph-name="zacute" unicode="&#x17a;" horiz-adv-x="369" 
d="M28 29l117 240v2h-89q-8 0 -13 5.5t-5 13.5v91q0 8 5 13.5t13 5.5h271q11 0 16.5 -8t0.5 -19l-126 -243v-2h89q19 0 19 -19v-90q0 -8 -5.5 -13.5t-13.5 -5.5h-260q-8 0 -13.5 5.5t-5.5 13.5v10zM125 512q-10 -6 -16.5 -2.5t-10.5 11.5l-21 42q-3 6 -0.5 11t6.5 8l170 104
q5 3 13.5 3.5t12.5 -6.5l34 -59q6 -11 3 -18.5t-9 -11.5z" />
    <glyph glyph-name="zcaron" unicode="&#x17e;" horiz-adv-x="369" 
d="M28 29l117 240v2h-89q-8 0 -13 5.5t-5 13.5v91q0 8 5 13.5t13 5.5h271q11 0 16.5 -8t0.5 -19l-126 -243v-2h89q19 0 19 -19v-90q0 -8 -5.5 -13.5t-13.5 -5.5h-260q-8 0 -13.5 5.5t-5.5 13.5v10zM47 616q-4 3 -6.5 8t0.5 11l34 46q9 12 21 5l99 -58l100 58q8 5 12.5 3.5
t9.5 -7.5l33 -47q4 -5 1 -10.5t-7 -8.5l-135 -104q-6 -5 -12.5 -4t-11.5 4z" />
    <glyph glyph-name="zdotaccent" unicode="&#x17c;" horiz-adv-x="369" 
d="M28 29l117 240v2h-89q-8 0 -13 5.5t-5 13.5v91q0 8 5 13.5t13 5.5h271q11 0 16.5 -8t0.5 -19l-126 -243v-2h89q19 0 19 -19v-90q0 -8 -5.5 -13.5t-13.5 -5.5h-260q-8 0 -13.5 5.5t-5.5 13.5v10zM195 521q-33 0 -56 23t-23 56t23 56.5t56 23.5t56.5 -23.5t23.5 -56.5
t-23.5 -56t-56.5 -23z" />
    <glyph glyph-name="IJ" unicode="&#x132;" horiz-adv-x="776" 
d="M86 681q0 8 5.5 13.5t13.5 5.5h120q8 0 13.5 -5.5t5.5 -13.5v-662q0 -8 -5.5 -13.5t-13.5 -5.5h-120q-8 0 -13.5 5.5t-5.5 13.5v662zM338 63q-8 13 2 25l68 67q6 5 13.5 5.5t13.5 -5.5q9 -9 20 -15t31 -6q21 0 40 19t19 57v471q0 8 5.5 13.5t13.5 5.5h122q8 0 13.5 -5.5
t5.5 -13.5v-472q0 -52 -17 -93t-46.5 -69t-68.5 -42.5t-83 -14.5q-33 0 -58.5 8.5t-44 20t-31 24t-18.5 20.5z" />
    <glyph glyph-name="ij" unicode="&#x133;" horiz-adv-x="525" 
d="M127 521q-33 0 -56 23t-23 56t23 56.5t56 23.5t56.5 -23.5t23.5 -56.5t-23.5 -56t-56.5 -23zM54 381q0 8 5.5 13.5t13.5 5.5h110q8 0 13.5 -5.5t5.5 -13.5v-362q0 -8 -5.5 -13.5t-13.5 -5.5h-110q-8 0 -13.5 5.5t-5.5 13.5v362zM396 521q-33 0 -56 23t-23 56t23 56.5
t56 23.5t56.5 -23.5t23.5 -56.5t-23.5 -56t-56.5 -23zM322 381q0 8 5.5 13.5t13.5 5.5h111q8 0 13.5 -5.5t5.5 -13.5v-473q0 -53 -15.5 -93.5t-42.5 -68t-64.5 -42t-80.5 -14.5q-20 0 -39 3.5t-35.5 9.5t-29 12.5t-18.5 12.5q-5 4 -6 11t2 12l42 83q2 5 9.5 7.5t13.5 -0.5
q10 -5 23.5 -10.5t28.5 -5.5q34 0 48.5 23t14.5 60v473z" />
    <glyph glyph-name="grave.cap" horiz-adv-x="302" 
d="M40 844q-6 4 -9 11.5t3 18.5l34 59q4 7 12.5 6.5t13.5 -3.5l170 -104q4 -3 6.5 -8t-0.5 -11l-21 -42q-4 -8 -10.5 -11.5t-16.5 2.5z" />
    <glyph glyph-name="acute" unicode="&#xb4;" horiz-adv-x="302" 
d="M80 512q-10 -6 -16.5 -2.5t-10.5 11.5l-21 42q-3 6 -0.5 11t6.5 8l170 104q5 3 13.5 3.5t12.5 -6.5l34 -59q6 -11 3 -18.5t-9 -11.5l-182 -82v0z" />
    <glyph glyph-name="acute.cap" horiz-adv-x="302" 
d="M80 762q-10 -6 -16.5 -2.5t-10.5 11.5l-21 42q-3 6 -0.5 11t6.5 8l170 104q5 3 13.5 3.5t12.5 -6.5l34 -59q6 -11 3 -18.5t-9 -11.5l-182 -82v0z" />
    <glyph glyph-name="circumflex" unicode="&#x2c6;" horiz-adv-x="373" 
d="M87 512q-8 -5 -12.5 -3.5t-9.5 7.5l-33 47q-4 5 -1 10.5t7 8.5l135 104q6 5 12.5 4t11.5 -4l138 -104q4 -3 6.5 -8t-0.5 -11l-34 -46q-9 -12 -21 -5l-99 58l-100 -58v0z" />
    <glyph glyph-name="circumflex.cap" horiz-adv-x="373" 
d="M87 762q-8 -5 -12.5 -3.5t-9.5 7.5l-33 47q-4 5 -1 10.5t7 8.5l135 104q6 5 12.5 4t11.5 -4l138 -104q4 -3 6.5 -8t-0.5 -11l-34 -46q-9 -12 -21 -5l-99 58l-100 -58v0z" />
    <glyph glyph-name="caron" unicode="&#x2c7;" horiz-adv-x="373" 
d="M37 616q-4 3 -6.5 8t0.5 11l34 46q9 12 21 5l99 -58l100 58q8 5 12.5 3.5t9.5 -7.5l33 -47q4 -5 1 -10.5t-7 -8.5l-135 -104q-6 -5 -12.5 -4t-11.5 4z" />
    <glyph glyph-name="caron.cap" horiz-adv-x="373" 
d="M37 866q-4 3 -6.5 8t0.5 11l34 46q9 12 21 5l99 -58l100 58q8 5 12.5 3.5t9.5 -7.5l33 -47q4 -5 1 -10.5t-7 -8.5l-135 -104q-6 -5 -12.5 -4t-11.5 4z" />
    <glyph glyph-name="caron.alt" horiz-adv-x="373" 
d="M175 710q14 0 30 -6t29.5 -19.5t22.5 -35.5t9 -55q0 -39 -11.5 -69.5t-26.5 -52.5t-30.5 -36t-24.5 -21q-5 -4 -10.5 -4.5t-11.5 6.5l-15 15q-5 6 -4.5 12t5.5 10q4 3 15.5 12.5t23.5 25t22 36t10 46.5q-5 -2 -11 -4q-11 -3 -29 -3q-29 0 -50.5 20.5t-21.5 50.5
q0 29 22 50.5t57 21.5z" />
    <glyph glyph-name="tilde" unicode="&#x2dc;" horiz-adv-x="380" 
d="M38 583q-5 4 -6.5 11t0.5 12q4 7 13.5 21t23.5 28t32 24.5t38 10.5q18 0 31.5 -7.5t25.5 -16t24 -16t27 -7.5q12 0 22.5 11.5t15.5 19.5q4 6 10.5 7.5t14.5 -5.5l34 -26q14 -10 1 -29l-12.5 -19t-21.5 -26t-29.5 -23t-36.5 -10t-34.5 7.5t-27 16.5t-24 16.5t-24.5 7.5
q-7 0 -12.5 -4t-10.5 -9.5t-9.5 -11.5l-7.5 -10q-9 -9 -22 -1z" />
    <glyph glyph-name="tilde.cap" horiz-adv-x="380" 
d="M38 813q-5 4 -6.5 11t0.5 12q4 7 13.5 21t23.5 28t32 24.5t38 10.5q18 0 31.5 -7.5t25.5 -16t24 -16t27 -7.5q12 0 22.5 11.5t15.5 19.5q4 6 10.5 7.5t14.5 -5.5l34 -26q14 -10 1 -29l-12.5 -19t-21.5 -26t-29.5 -23t-36.5 -10t-34.5 7.5t-27 16.5t-24 16.5t-24.5 7.5
q-7 0 -12.5 -4t-10.5 -9.5t-9.5 -11.5l-7.5 -10q-9 -9 -22 -1z" />
    <glyph glyph-name="dieresis" unicode="&#xa8;" horiz-adv-x="414" 
d="M309 535q-29 0 -49.5 21t-20.5 50t20.5 49.5t49.5 20.5t50 -20.5t21 -49.5t-21 -50t-50 -21zM104 535q-29 0 -49.5 21t-20.5 50t20.5 49.5t49.5 20.5t50 -20.5t21 -49.5t-21 -50t-50 -21z" />
    <glyph glyph-name="dieresis.cap" horiz-adv-x="474" 
d="M369 768q-29 0 -49.5 21t-20.5 50t20.5 49.5t49.5 20.5t50 -20.5t21 -49.5t-21 -50t-50 -21zM104 768q-29 0 -49.5 21t-20.5 50t20.5 49.5t49.5 20.5t50 -20.5t21 -49.5t-21 -50t-50 -21z" />
    <glyph glyph-name="macron" unicode="&#xaf;" horiz-adv-x="414" 
d="M79 563q-8 0 -13.5 5t-5.5 13v41q0 19 19 19h256q19 0 19 -19v-41q0 -8 -5.5 -13t-13.5 -5h-256v0z" />
    <glyph glyph-name="macron.cap" horiz-adv-x="414" 
d="M79 801q-8 0 -13.5 5t-5.5 13v41q0 19 19 19h256q19 0 19 -19v-41q0 -8 -5.5 -13t-13.5 -5h-256v0z" />
    <glyph glyph-name="uni02C9" unicode="&#x2c9;" horiz-adv-x="414" 
d="M79 563q-8 0 -13.5 5t-5.5 13v41q0 19 19 19h256q19 0 19 -19v-41q0 -8 -5.5 -13t-13.5 -5h-256v0z" />
    <glyph glyph-name="breve" unicode="&#x2d8;" horiz-adv-x="346" 
d="M173 527q-56 0 -95 34.5t-47 85.5q-2 9 3.5 15.5t15.5 6.5h45q6 0 10.5 -3.5t6.5 -8.5q7 -20 23 -34t38 -14q20 0 36 15t23 33q2 5 7 8.5t10 3.5h47q9 0 14.5 -6.5t4.5 -15.5q-4 -26 -16.5 -47.5t-31.5 -38t-43 -25.5t-51 -9z" />
    <glyph glyph-name="breve.cap" horiz-adv-x="346" 
d="M173 763q-56 0 -95 34.5t-47 85.5q-2 9 3.5 15.5t15.5 6.5h45q6 0 10.5 -3.5t6.5 -8.5q7 -20 23 -34t38 -14q20 0 36 15t23 33q2 5 7 8.5t10 3.5h47q9 0 14.5 -6.5t4.5 -15.5q-4 -26 -16.5 -47.5t-31.5 -38t-43 -25.5t-51 -9z" />
    <glyph glyph-name="ring" unicode="&#x2da;" horiz-adv-x="290" 
d="M145 480q-24 0 -45 9t-36.5 24.5t-24.5 36.5t-9 45t9 45t24.5 36.5t36.5 24.5t45 9t44.5 -9t36.5 -24.5t25 -36.5t9 -45t-9 -45t-25 -36.5t-36.5 -24.5t-44.5 -9zM145 551q17 0 30 13.5t13 30.5t-13 30t-30 13t-30.5 -13t-13.5 -30t13.5 -30.5t30.5 -13.5z" />
    <glyph glyph-name="ring.cap" horiz-adv-x="290" 
d="M145 752q-24 0 -45 9t-36.5 24.5t-24.5 36.5t-9 45t9 45t24.5 36.5t36.5 24.5t45 9t44.5 -9t36.5 -24.5t25 -36.5t9 -45t-9 -45t-25 -36.5t-36.5 -24.5t-44.5 -9zM145 823q17 0 30 13.5t13 30.5t-13 30t-30 13t-30.5 -13t-13.5 -30t13.5 -30.5t30.5 -13.5z" />
    <glyph glyph-name="hungarumlaut" unicode="&#x2dd;" horiz-adv-x="392" 
d="M216 521q-8 0 -14.5 5.5t-4.5 13.5l30 141q2 8 6.5 13.5t12.5 5.5h94q14 0 19 -8t-1 -17l-78 -139q-4 -5 -8.5 -10t-9.5 -5h-46zM50 521q-8 0 -14.5 5.5t-4.5 13.5l30 141q2 8 6.5 13.5t12.5 5.5h94q14 0 18.5 -7.5t-0.5 -17.5l-78 -139q-3 -6 -8 -10.5t-10 -4.5h-46z
" />
    <glyph glyph-name="hungarumlaut.cap" horiz-adv-x="392" 
d="M216 768q-8 0 -14.5 5.5t-4.5 13.5l30 141q2 8 6.5 13.5t12.5 5.5h94q14 0 19 -8t-1 -17l-78 -139q-4 -5 -8.5 -10t-9.5 -5h-46zM50 768q-8 0 -14.5 5.5t-4.5 13.5l30 141q2 8 6.5 13.5t12.5 5.5h94q14 0 18.5 -7.5t-0.5 -17.5l-78 -139q-3 -6 -8 -10.5t-10 -4.5h-46z
" />
    <glyph glyph-name="dotaccent" unicode="&#x2d9;" horiz-adv-x="219" 
d="M109 521q-33 0 -56 23t-23 56t23 56.5t56 23.5t56.5 -23.5t23.5 -56.5t-23.5 -56t-56.5 -23z" />
    <glyph glyph-name="dotaccent.cap" horiz-adv-x="219" 
d="M109 774q-33 0 -56 23t-23 56t23 56.5t56 23.5t56.5 -23.5t23.5 -56.5t-23.5 -56t-56.5 -23z" />
    <glyph glyph-name="cedilla" unicode="&#xb8;" horiz-adv-x="247" 
d="M124 0v-52q46 -6 69 -33.5t23 -68.5q0 -22 -8.5 -41t-22.5 -33.5t-33.5 -23t-41.5 -8.5q-23 0 -43 10t-33 25q-13 14 4 29l23 20q5 5 11 4t10 -6t11 -7t13 -2q12 0 21 10t9 22q0 5 -2 12t-9 13t-20.5 11t-36.5 6q-11 2 -14 8t-3 10v95h73z" />
    <glyph glyph-name="cedilla.cap" horiz-adv-x="247" 
d="M124 0v-52q46 -6 69 -33.5t23 -68.5q0 -22 -8.5 -41t-22.5 -33.5t-33.5 -23t-41.5 -8.5q-23 0 -43 10t-33 25q-13 14 4 29l23 20q5 5 11 4t10 -6t11 -7t13 -2q12 0 21 10t9 22q0 5 -2 12t-9 13t-20.5 11t-36.5 6q-11 2 -14 8t-3 10v95h73z" />
    <glyph glyph-name="ogonek" unicode="&#x2db;" horiz-adv-x="276" 
d="M175 15q-18 -14 -31 -32q-11 -15 -20.5 -35t-9.5 -43q0 -27 16.5 -47t53.5 -20q13 0 23 2t18 4q10 2 16 -4t6 -15v-33q0 -7 -4.5 -12t-10.5 -7l-21 -4q-9 -2 -20 -3t-22 -1q-29 0 -54 7t-43.5 21t-29.5 35.5t-11 50.5q0 32 11 56.5t25 42.5q16 20 37 37h71z" />
    <glyph glyph-name="ogonek.cap" horiz-adv-x="276" 
d="M175 15q-18 -14 -31 -32q-11 -15 -20.5 -35t-9.5 -43q0 -27 16.5 -47t53.5 -20q13 0 23 2t18 4q10 2 16 -4t6 -15v-33q0 -7 -4.5 -12t-10.5 -7l-21 -4q-9 -2 -20 -3t-22 -1q-29 0 -54 7t-43.5 21t-29.5 35.5t-11 50.5q0 32 11 56.5t25 42.5q16 20 37 37h71z" />
    <glyph glyph-name="commaaccent" horiz-adv-x="292" 
d="M150 -90q14 0 30 -6t29.5 -19.5t22.5 -35.5t9 -55q0 -39 -11.5 -69.5t-26.5 -52.5t-30.5 -36t-24.5 -21q-5 -4 -10.5 -4.5t-11.5 6.5l-15 15q-5 6 -4.5 12t5.5 10q4 3 15.5 12.5t23.5 25t22 36t10 46.5q-5 -2 -11 -4q-11 -3 -29 -3q-29 0 -50.5 20.5t-21.5 50.5
q0 29 22 50.5t57 21.5z" />
    <glyph glyph-name="commaaccent.alt" horiz-adv-x="292" 
d="M150 -90q14 0 30 -6t29.5 -19.5t22.5 -35.5t9 -55q0 -39 -11.5 -69.5t-26.5 -52.5t-30.5 -36t-24.5 -21q-5 -4 -10.5 -4.5t-11.5 6.5l-15 15q-5 6 -4.5 12t5.5 10q4 3 15.5 12.5t23.5 25t22 36t10 46.5q-5 -2 -11 -4q-11 -3 -29 -3q-29 0 -50.5 20.5t-21.5 50.5
q0 29 22 50.5t57 21.5z" />
    <glyph glyph-name="commaaccent.cap" horiz-adv-x="292" 
d="M150 -90q14 0 30 -6t29.5 -19.5t22.5 -35.5t9 -55q0 -39 -11.5 -69.5t-26.5 -52.5t-30.5 -36t-24.5 -21q-5 -4 -10.5 -4.5t-11.5 6.5l-15 15q-5 6 -4.5 12t5.5 10q4 3 15.5 12.5t23.5 25t22 36t10 46.5q-5 -2 -11 -4q-11 -3 -29 -3q-29 0 -50.5 20.5t-21.5 50.5
q0 29 22 50.5t57 21.5z" />
    <glyph glyph-name="ellipsis" unicode="&#x2026;" horiz-adv-x="690" 
d="M491 70q0 33 23 56t56 23t56.5 -23t23.5 -56t-23.5 -56.5t-56.5 -23.5t-56 23.5t-23 56.5zM269 70q0 33 23 56t56 23t56.5 -23t23.5 -56t-23.5 -56.5t-56.5 -23.5t-56 23.5t-23 56.5zM40 70q0 33 23 56t56 23t56.5 -23t23.5 -56t-23.5 -56.5t-56.5 -23.5t-56 23.5
t-23 56.5z" />
    <glyph glyph-name="uni00AD" unicode="&#xad;" horiz-adv-x="500" 
 />
    <glyph glyph-name="exclamdown" unicode="&#xa1;" horiz-adv-x="282" 
d="M142 220q-20 0 -37 7.5t-30.5 21t-21 30.5t-7.5 37q0 19 7.5 36t21 30t30.5 20.5t37 7.5q19 0 36 -7.5t30 -20.5t20.5 -30t7.5 -36q0 -20 -7.5 -37t-20.5 -30.5t-30 -21t-36 -7.5zM101 112q1 6 6.5 11t12.5 5h42q7 0 12.5 -5t6.5 -11l49 -279v-114q0 -8 -5.5 -13.5
t-13.5 -5.5h-140q-8 0 -13.5 5.5t-5.5 13.5v112z" />
    <glyph glyph-name="questiondown" unicode="&#xbf;" horiz-adv-x="446" 
d="M240 220q-20 0 -37 7.5t-30.5 21t-21 30.5t-7.5 37q0 19 7.5 36t21 30t30.5 20.5t37 7.5q19 0 36 -7.5t30 -20.5t20.5 -30t7.5 -36q0 -20 -7.5 -37t-20.5 -30.5t-30 -21t-36 -7.5zM17 -135q0 33 11 56.5t28 41.5t36 33t36 31t28 35.5t11 46.5q0 8 5.5 13.5t13.5 5.5h107
q8 0 13.5 -5.5t5.5 -13.5v-42q0 -32 -21.5 -55.5t-47.5 -44.5t-47.5 -41t-21.5 -44q0 -23 21.5 -41t53.5 -18q26 0 43.5 9.5t30 19t22 15t18.5 -2.5l61 -60q6 -5 5.5 -13t-5.5 -13q-22 -25 -53 -44q-26 -17 -64 -30.5t-86 -13.5q-40 0 -76.5 13t-65 36.5t-45.5 55.5t-17 70z
" />
    <glyph glyph-name="quoteleft" unicode="&#x2018;" horiz-adv-x="204" 
d="M110 408q-14 0 -30 6t-29.5 19.5t-22.5 35.5t-9 55q0 39 11.5 69.5t26.5 52.5t30.5 36t24.5 21q5 4 10.5 4.5t11.5 -6.5l15 -15q5 -6 4.5 -12t-5.5 -10q-4 -3 -15.5 -12.5t-23.5 -25t-22 -36.5t-10 -46q5 1 11 3q5 2 12.5 3t16.5 1q29 0 50.5 -20.5t21.5 -50.5
q0 -29 -22 -50.5t-57 -21.5z" />
    <glyph glyph-name="quoteright" unicode="&#x2019;" horiz-adv-x="200" 
d="M53 432q-5 6 -4.5 12t5.5 10q4 3 15.5 12.5t23.5 25t22 36t10 46.5q-5 -2 -11 -4q-11 -3 -29 -3q-29 0 -50.5 20.5t-21.5 50.5q0 29 22 50.5t57 21.5q14 0 30 -6t29.5 -19.5t22.5 -35.5t9 -55q0 -39 -11.5 -69.5t-26.5 -52.5t-30.5 -36t-24.5 -21q-5 -4 -10.5 -4.5
t-11.5 6.5z" />
    <glyph glyph-name="quotedblleft" unicode="&#x201c;" horiz-adv-x="403" 
d="M309 409q-14 0 -30 6t-29.5 19.5t-22.5 35.5t-9 55q0 39 11.5 69.5t26.5 52.5t30.5 36t24.5 21q5 4 10.5 4.5t11.5 -6.5l15 -15q5 -6 4.5 -12t-5.5 -10q-4 -3 -15.5 -12.5t-23.5 -25t-22 -36.5t-10 -46q5 1 11 3q5 2 12.5 3t16.5 1q29 0 50.5 -20.5t21.5 -50.5
q0 -29 -22 -50.5t-57 -21.5zM110 409q-14 0 -30 6t-29.5 19.5t-22.5 35.5t-9 55q0 39 11.5 69.5t26.5 52.5t30.5 36t24.5 21q5 4 10.5 4.5t11.5 -6.5l15 -15q5 -6 4.5 -12t-5.5 -10q-4 -3 -15.5 -12.5t-23.5 -25t-22 -36.5t-10 -46q5 1 11 3q5 2 12.5 3t16.5 1
q29 0 50.5 -20.5t21.5 -50.5q0 -29 -22 -50.5t-57 -21.5z" />
    <glyph glyph-name="quotedblright" unicode="&#x201d;" horiz-adv-x="399" 
d="M252 432q-5 6 -4.5 12t5.5 10q4 3 15.5 12.5t23.5 25t22 36t10 46.5q-5 -2 -11 -4q-11 -3 -29 -3q-29 0 -50.5 20.5t-21.5 50.5q0 29 22 50.5t57 21.5q14 0 30 -6t29.5 -19.5t22.5 -35.5t9 -55q0 -39 -11.5 -69.5t-26.5 -52.5t-30.5 -36t-24.5 -21q-5 -4 -10.5 -4.5
t-11.5 6.5zM53 432q-5 6 -4.5 12t5.5 10q4 3 15.5 12.5t23.5 25t22 36t10 46.5q-5 -2 -11 -4q-11 -3 -29 -3q-29 0 -50.5 20.5t-21.5 50.5q0 29 22 50.5t57 21.5q14 0 30 -6t29.5 -19.5t22.5 -35.5t9 -55q0 -39 -11.5 -69.5t-26.5 -52.5t-30.5 -36t-24.5 -21
q-5 -4 -10.5 -4.5t-11.5 6.5z" />
    <glyph glyph-name="quotesinglbase" unicode="&#x201a;" horiz-adv-x="228" 
d="M30 61q0 29 22 50.5t57 21.5q14 0 30 -6t29.5 -19.5t22.5 -35.5t9 -55q0 -39 -11.5 -69.5t-26.5 -52.5t-30.5 -36t-24.5 -21q-5 -4 -10.5 -4.5t-11.5 6.5l-15 15q-5 6 -4.5 12t5.5 10q4 3 15.5 12.5t23.5 25t22 36t10 46.5q-5 -2 -11 -4q-11 -3 -29 -3q-29 0 -50.5 20.5
t-21.5 50.5z" />
    <glyph glyph-name="quotedblbase" unicode="&#x201e;" horiz-adv-x="428" 
d="M229 61q0 29 22 50.5t57 21.5q14 0 30 -6t29.5 -19.5t22.5 -35.5t9 -55q0 -39 -11.5 -69.5t-26.5 -52.5t-30.5 -36t-24.5 -21q-5 -4 -10.5 -4.5t-11.5 6.5l-15 15q-5 6 -4.5 12t5.5 10q4 3 15.5 12.5t23.5 25t22 36t10 46.5q-5 -2 -11 -4q-11 -3 -29 -3q-29 0 -50.5 20.5
t-21.5 50.5zM30 61q0 29 22 50.5t57 21.5q14 0 30 -6t29.5 -19.5t22.5 -35.5t9 -55q0 -39 -11.5 -69.5t-26.5 -52.5t-30.5 -36t-24.5 -21q-5 -4 -10.5 -4.5t-11.5 6.5l-15 15q-5 6 -4.5 12t5.5 10q4 3 15.5 12.5t23.5 25t22 36t10 46.5q-5 -2 -11 -4q-11 -3 -29 -3
q-29 0 -50.5 20.5t-21.5 50.5z" />
    <glyph glyph-name="guilsinglleft" unicode="&#x2039;" horiz-adv-x="283" 
d="M21 194q-5 6 -4 12.5t4 11.5l109 148q2 4 7 8t11 4h79q13 0 17 -9.5t-2 -21.5l-65 -139l62 -147q5 -12 1.5 -21t-16.5 -9h-84q-3 0 -8 2.5t-7 5.5z" />
    <glyph glyph-name="guilsinglright" unicode="&#x203a;" horiz-adv-x="283" 
d="M58 31q-13 0 -16.5 9t1.5 21l62 147l-65 139q-6 12 -2 21.5t17 9.5h79q6 0 11 -4t7 -8l109 -148q3 -5 4 -11.5t-4 -12.5l-104 -155q-2 -3 -7 -5.5t-8 -2.5h-84v0z" />
    <glyph glyph-name="guillemotleft" unicode="&#xab;" horiz-adv-x="501" 
d="M239 194q-5 6 -4 12.5t4 11.5l109 148q2 4 7 8t11 4h79q13 0 17 -9.5t-2 -21.5l-65 -139l62 -147q5 -12 1.5 -21t-16.5 -9h-84q-3 0 -8 2.5t-7 5.5zM21 194q-5 6 -4 12.5t4 11.5l109 148q2 4 7 8t11 4h79q13 0 17 -9.5t-2 -21.5l-65 -139l62 -147q5 -12 1.5 -21t-16.5 -9
h-84q-3 0 -8 2.5t-7 5.5z" />
    <glyph glyph-name="guillemotright" unicode="&#xbb;" horiz-adv-x="501" 
d="M323 208l-65 139q-6 12 -2 21.5t17 9.5h79q6 0 11 -4t7 -8l109 -148q3 -5 4 -11.5t-4 -12.5l-104 -155q-2 -3 -7 -5.5t-8 -2.5h-84q-13 0 -16.5 9t1.5 21zM58 31q-13 0 -16.5 9t1.5 21l62 147l-65 139q-6 12 -2 21.5t17 9.5h79q6 0 11 -4t7 -8l109 -148q3 -5 4 -11.5
t-4 -12.5l-104 -155q-2 -3 -7 -5.5t-8 -2.5h-84z" />
    <glyph glyph-name="endash" unicode="&#x2013;" horiz-adv-x="535" 
d="M63 203q-8 0 -13.5 5t-5.5 13v51q0 19 19 19h409q19 0 19 -19v-51q0 -8 -5.5 -13t-13.5 -5h-409v0z" />
    <glyph glyph-name="emdash" unicode="&#x2014;" horiz-adv-x="755" 
d="M63 203q-8 0 -13.5 5t-5.5 13v51q0 19 19 19h629q19 0 19 -19v-51q0 -8 -5.5 -13t-13.5 -5h-629v0z" />
    <glyph glyph-name="bullet" unicode="&#x2022;" horiz-adv-x="406" 
d="M201 83q-29 0 -54.5 11.5t-44.5 30.5t-30.5 44.5t-11.5 54.5q0 30 11.5 56t30.5 46t44.5 31.5t54.5 11.5q30 0 56 -11.5t46 -31.5t31.5 -46t11.5 -56q0 -29 -11.5 -54.5t-31.5 -44.5t-46 -30.5t-56 -11.5z" />
    <glyph glyph-name="periodcentered" unicode="&#xb7;" horiz-adv-x="276" 
d="M136 149q-21 0 -40.5 8.5t-33.5 22.5t-22.5 33.5t-8.5 40.5q0 22 8.5 42t22.5 35t33.5 23.5t40.5 8.5q22 0 42 -8.5t35 -23.5t23.5 -35t8.5 -42q0 -21 -8.5 -40.5t-23.5 -33.5t-35 -22.5t-42 -8.5z" />
    <glyph glyph-name="uni2219" unicode="&#x2219;" horiz-adv-x="406" 
d="M201 149q-21 0 -40.5 8.5t-33.5 22.5t-22.5 33.5t-8.5 40.5q0 22 8.5 42t22.5 35t33.5 23.5t40.5 8.5q22 0 42 -8.5t35 -23.5t23.5 -35t8.5 -42q0 -21 -8.5 -40.5t-23.5 -33.5t-35 -22.5t-42 -8.5z" />
    <glyph glyph-name="dagger" unicode="&#x2020;" horiz-adv-x="618" 
d="M69 262q-8 0 -13.5 5.5t-5.5 13.5v100q0 8 5.5 13.5t13.5 5.5h157v281q0 8 5.5 13.5t13.5 5.5h120q8 0 13.5 -5.5t5.5 -13.5v-281h166q8 0 13 -5.5t5 -13.5v-100q0 -8 -5 -13.5t-13 -5.5h-176l-39 -546q-1 -6 -5.5 -11t-13.5 -5h-22q-8 0 -13 5t-6 11l-39 546h-167v0z
" />
    <glyph glyph-name="daggerdbl" unicode="&#x2021;" horiz-adv-x="618" 
d="M80 120q0 8 5.5 13.5t13.5 5.5h145l-18 259v1h-157q-8 0 -13.5 5.5t-5.5 13.5v100q0 8 5.5 13.5t13.5 5.5h157v144q0 8 5.5 13.5t13.5 5.5h120q8 0 13.5 -5.5t5.5 -13.5v-144h166q8 0 13 -5.5t5 -13.5v-100q0 -8 -5 -13.5t-13 -5.5h-166l-19 -260h155q8 0 13 -5.5
t5 -13.5v-100q0 -8 -5 -13.5t-13 -5.5h-165l-20 -285q-1 -6 -6 -11t-13 -5h-22q-8 0 -13 5t-6 11l-21 285h-155q-8 0 -13.5 5.5t-5.5 13.5v100z" />
    <glyph glyph-name="section" unicode="&#xa7;" horiz-adv-x="504" 
d="M74 -77q6 11 15.5 15t22.5 -4q4 -2 18 -10t32.5 -17t40 -16t40.5 -7q28 0 46.5 15t18.5 41q0 35 -28 56t-68 37q-31 12 -63 30.5t-58.5 43.5t-43.5 58.5t-17 75.5q0 85 68 141q-29 26 -48.5 60.5t-19.5 79.5q0 36 13.5 69.5t40.5 60t67.5 42.5t94.5 16q37 0 69 -8.5
t58 -19.5t44.5 -23.5l29.5 -19.5q8 -5 9 -14.5t-3 -14.5l-53 -78q-12 -19 -33 -4q-6 4 -20.5 13t-32.5 17.5t-37.5 15t-37.5 6.5q-26 0 -43 -13.5t-17 -32.5q0 -27 23 -48t79 -44q28 -11 61 -27.5t62 -42t48.5 -61t19.5 -83.5q0 -41 -17.5 -76t-48.5 -63q28 -26 47 -60.5
t19 -82.5q0 -36 -15.5 -71t-44 -62t-69.5 -44t-93 -17q-46 0 -81.5 8.5t-61.5 20t-42 23t-23 18.5q-8 8 -9.5 15.5t5.5 18.5zM172 254q0 -37 32 -58t83 -42q8 6 14 17q5 9 9.5 22.5t4.5 31.5q0 19 -8.5 32.5t-23.5 25t-36 21.5t-47 21l-4 -4q-6 -7 -15 -23.5t-9 -43.5z" />
    <glyph glyph-name="paragraph" unicode="&#xb6;" horiz-adv-x="704" 
d="M225 281q-42 0 -80 16t-66.5 44.5t-45 67t-16.5 82.5q0 43 15 81t41 66.5t61.5 45t76.5 16.5l462 -1q8 0 13.5 -5.5t5.5 -13.5v-60q0 -8 -5.5 -13.5t-13.5 -5.5h-61v-882q0 -8 -5.5 -13.5t-13.5 -5.5h-71q-8 0 -13.5 5.5t-5.5 13.5v882h-126v-882q0 -8 -5.5 -13.5
t-13.5 -5.5h-70q-8 0 -13.5 5.5t-5.5 13.5v562h-44v0z" />
    <glyph glyph-name="brokenbar.case" horiz-adv-x="294" 
d="M139 512q-8 0 -13.5 5t-5.5 13v331q0 8 5.5 13.5t13.5 5.5h17q8 0 13 -5.5t5 -13.5v-331q0 -8 -5.5 -13t-13.5 -5h-16zM120 169q0 8 5.5 13.5t13.5 5.5h17q8 0 13 -5.5t5 -13.5v-331q0 -8 -5.5 -13t-13.5 -5h-16q-8 0 -13.5 5t-5.5 13v331z" />
    <glyph glyph-name="copyright" unicode="&#xa9;" horiz-adv-x="789" 
d="M35 350q0 74 28 139.5t77 114.5t114.5 77.5t139.5 28.5t139.5 -28.5t114.5 -77.5t77.5 -114.5t28.5 -139.5t-28.5 -139.5t-77.5 -114.5t-114.5 -77.5t-139.5 -28.5t-139.5 28.5t-114.5 77.5t-77 114.5t-28 139.5zM122 350q0 -56 21.5 -106t58.5 -87t86.5 -58.5
t105.5 -21.5q57 0 106.5 21.5t86 58.5t58 87t21.5 106q0 57 -21.5 106.5t-58 86t-86 58t-106.5 21.5q-56 0 -105.5 -21.5t-86.5 -58t-58.5 -86t-21.5 -106.5zM216 348q0 39 14.5 73.5t40 60t59.5 40t73 14.5q30 0 60 -9t55 -29q7 -6 7.5 -14t-5.5 -15l-48 -48q-5 -5 -12 -6
t-12 3q-11 8 -22 10.5t-23 2.5q-34 0 -56 -24t-22 -56q0 -34 22 -57t56 -23q12 0 22.5 2.5t21.5 10.5q5 4 12 3t12 -6l50 -50q5 -6 5 -14t-6 -14q-26 -23 -55.5 -32.5t-61.5 -9.5q-39 0 -73 14.5t-59.5 40t-40 59.5t-14.5 73z" />
    <glyph glyph-name="registered" unicode="&#xae;" horiz-adv-x="789" 
d="M35 350q0 74 28 139.5t77 114.5t114.5 77.5t139.5 28.5t139.5 -28.5t114.5 -77.5t77.5 -114.5t28.5 -139.5t-28.5 -139.5t-77.5 -114.5t-114.5 -77.5t-139.5 -28.5t-139.5 28.5t-114.5 77.5t-77 114.5t-28 139.5zM122 350q0 -56 21.5 -106t58.5 -87t86.5 -58.5
t105.5 -21.5q57 0 106.5 21.5t86 58.5t58 87t21.5 106q0 57 -21.5 106.5t-58 86t-86 58t-106.5 21.5q-56 0 -105.5 -21.5t-86.5 -58t-58.5 -86t-21.5 -106.5zM256 515q0 8 5.5 13.5t13.5 5.5h162q23 0 45 -9t39.5 -26t28 -41t10.5 -54q0 -23 -6 -41t-15.5 -31.5t-21.5 -23
t-24 -16.5l40 -97q5 -10 -0.5 -18.5t-16.5 -8.5h-68q-6 0 -11 4.5t-7 9.5l-37 106h-39v-101q0 -8 -5.5 -13.5t-13.5 -5.5h-60q-8 0 -13.5 5.5t-5.5 13.5v328zM420 369q13 0 22.5 9.5t9.5 23.5t-9.5 23.5t-22.5 9.5h-69v-66h69z" />
    <glyph glyph-name="trademark" unicode="&#x2122;" horiz-adv-x="721" 
d="M331 378q-10 0 -15.5 7t-3.5 16l52 289q1 6 6 10.5t13 4.5h4q11 0 17 -11l91 -172l92 172q5 11 17 11h4q7 0 12.5 -4.5t6.5 -10.5l53 -290q2 -9 -4 -15.5t-15 -6.5h-52q-7 0 -12.5 5t-6.5 12l-17 105l-59 -116q-5 -9 -16 -9h-6q-12 0 -17 10l-57 115l-18 -106
q-1 -6 -7 -11t-12 -5h-50zM138 378q-8 0 -13.5 5.5t-5.5 13.5v216h-60q-8 0 -13.5 5.5t-5.5 13.5v49q0 8 5.5 13.5t13.5 5.5h211q8 0 13.5 -5.5t5.5 -13.5v-49q0 -19 -19 -19h-60v-216q0 -8 -5.5 -13.5t-13.5 -5.5h-53z" />
    <glyph glyph-name="currency" unicode="&#xa4;" horiz-adv-x="447" 
d="M47 197q-5 5 -5 13.5t5 13.5l52 52q-18 46 -1 95l-52 53q-5 5 -5 13.5t5 13.5l50 49q5 5 13 5t13 -5l51 -51q24 11 50 11t51 -9l51 51q5 5 13.5 5t13.5 -6l49 -49q5 -5 5.5 -13t-4.5 -13l-51 -51q20 -51 -1 -103l51 -51q5 -5 4.5 -13t-5.5 -13l-49 -49q-5 -5 -13 -5.5
t-13 4.5l-53 53q-23 -8 -48.5 -8t-48.5 9l-52 -52q-5 -5 -13.5 -5t-13.5 5zM196 295q12 -12 29 -12t30 13q11 11 11 28.5t-11 29.5q-13 12 -30 12t-29 -12t-12 -29.5t12 -29.5z" />
    <glyph glyph-name="Euro" unicode="&#x20ac;" horiz-adv-x="712" 
d="M38 248q-8 0 -13 5.5t-5 13.5v17q0 8 5 13.5t13 5.5h38q-2 11 -2 22.5v23.5v19h-36q-8 0 -13 5.5t-5 13.5v17q0 8 5 13.5t13 5.5h43q13 61 45 114t79 91t105.5 60t124.5 22q75 0 133 -23t109 -70q15 -14 1 -28l-78 -81q-5 -5 -12.5 -5t-12.5 5q-28 25 -63 38t-72 13
q-67 0 -116 -38.5t-69 -97.5h210q8 0 13.5 -5.5t5.5 -13.5v-19q0 -8 -5.5 -13t-13.5 -5h-221v-14q0 -26 6 -50h175q8 0 13.5 -5.5t5.5 -13.5v-18q0 -8 -5.5 -13t-13.5 -5h-154q26 -45 70 -71.5t100 -26.5q35 0 71 12.5t63 35.5q5 5 13 4.5t13 -5.5l78 -83q5 -5 4.5 -13.5
t-5.5 -13.5q-51 -50 -113.5 -73.5t-129.5 -23.5q-62 0 -118 19t-101.5 53.5t-78.5 82t-49 103.5h-50v0z" />
    <glyph glyph-name="cent" unicode="&#xa2;" horiz-adv-x="413" 
d="M154 4q-30 11 -55 30t-43 44.5t-28.5 56t-10.5 65.5q0 44 17.5 82.5t47.5 67t69 44.5t82 16q8 0 15 -0.5t15 -1.5l11 41q2 8 8.5 11.5t14.5 1.5l17 -5q8 -2 11.5 -8.5t1.5 -14.5l-11 -42q19 -9 35.5 -23t31.5 -31q5 -7 4 -15t-9 -13l-60 -57q-4 -4 -11 -3t-11 5
q-3 3 -6.5 6t-7.5 6l-40 -147q23 1 37 10t25 20q4 4 10.5 6t11.5 -2l60 -52q7 -6 9.5 -13t-2.5 -15q-28 -42 -67.5 -63t-93.5 -21q-6 0 -12.5 0.5t-12.5 1.5l-26 -98q-2 -8 -8.5 -11.5t-14.5 -1.5l-16 5q-8 2 -12 8t-2 14zM228 280q-29 -4 -49.5 -26.5t-20.5 -53.5
q0 -20 8.5 -37t22.5 -28z" />
    <glyph glyph-name="sterling" unicode="&#xa3;" horiz-adv-x="479" 
d="M60 37q19 35 29 68.5t13 65t1 61t-7 57.5h-43q-8 0 -13 5.5t-5 13.5v17q0 8 5 13.5t13 5.5h31q-11 41 -20 78t-9 72q0 103 58 159.5t156 56.5q32 0 59.5 -8t49.5 -19.5t38.5 -23.5t25.5 -20q6 -5 6.5 -12.5t-4.5 -13.5l-63 -76q-5 -6 -12.5 -6.5t-13.5 3.5q-14 10 -28 19
q-12 8 -26.5 14t-28.5 6q-27 0 -46 -18t-19 -52q0 -28 15 -67t26 -92h92q8 0 13.5 -5.5t5.5 -13.5v-18q0 -8 -5.5 -13t-13.5 -5h-83q3 -35 2 -73t-11 -82h169q8 0 13 -5.5t5 -13.5v-96q0 -8 -5 -13.5t-13 -5.5h-338q-8 0 -13.5 5.5t-5.5 13.5v18z" />
    <glyph glyph-name="florin" unicode="&#x192;" horiz-adv-x="398" 
d="M117 273h-81q-8 0 -13.5 5.5t-5.5 13.5v89q0 19 19 19h81v93q0 51 15.5 91.5t43.5 68.5t67.5 42.5t87.5 14.5q44 0 71.5 -14t39.5 -24q5 -5 6.5 -12t-2.5 -13l-48 -79q-9 -14 -23 -7q-8 2 -15 5q-6 2 -13.5 4t-13.5 2q-27 0 -45 -19t-18 -61v-92h92q19 0 19 -19v-89
q0 -8 -5.5 -13.5t-13.5 -5.5h-92v-366q0 -51 -16.5 -91.5t-45 -68.5t-67.5 -42.5t-85 -14.5q-44 0 -71.5 14t-39.5 24q-5 5 -6.5 12t2.5 13l48 79q9 14 23 7q8 -3 15 -6q13 -5 27 -5q26 0 44.5 19t18.5 61v365z" />
    <glyph glyph-name="yen" unicode="&#xa5;" horiz-adv-x="642" 
d="M140 118q-8 0 -13 5.5t-5 13.5v17q0 8 5 13.5t13 5.5h101v65h-101q-8 0 -13 5.5t-5 13.5v17q0 8 5 13.5t13 5.5h101v44l-221 334q-6 10 -1 19.5t17 9.5h130q6 0 10 -3t6 -6l139 -205l139 205q2 3 5.5 6t10.5 3h130q12 0 17 -9.5t-1 -19.5l-224 -333v-45h99q8 0 13.5 -5.5
t5.5 -13.5v-18q0 -8 -5.5 -13t-13.5 -5h-99v-65h99q8 0 13.5 -5.5t5.5 -13.5v-18q0 -8 -5.5 -13t-13.5 -5h-99v-99q0 -8 -5.5 -13.5t-13.5 -5.5h-119q-8 0 -13.5 5.5t-5.5 13.5v99h-101v0z" />
    <glyph glyph-name="ordfeminine" unicode="&#xaa;" horiz-adv-x="316" 
d="M122 396q-47 0 -76 28t-29 76q0 39 31 66t88 27q11 0 20.5 -1t16.5 -3q8 -2 14 -3q1 21 -8.5 32t-32.5 11q-15 0 -37.5 -3t-36.5 -6q-16 -3 -18 16l-7 42q-2 11 2 15t9 6q3 1 13 2.5l24 3.5t31 3.5t32 1.5q69 0 97.5 -30.5t28.5 -96.5v-166q0 -5 -4.5 -9.5t-9.5 -4.5h-33
q-9 0 -14 10l-10 21q-14 -13 -34.5 -25.5t-56.5 -12.5zM149 467q14 0 23 9.5t9 23.5q0 13 -9 22.5t-23 9.5t-23 -9.5t-9 -22.5q0 -14 9 -23.5t23 -9.5z" />
    <glyph glyph-name="ordmasculine" unicode="&#xba;" horiz-adv-x="302" 
d="M151 394q-63 0 -97 42t-34 116q0 75 34 116.5t97 41.5t97 -41.5t34 -116.5q0 -74 -34 -116t-97 -42zM151 474q15 0 23 18t8 60t-8 60t-23 18t-23 -18t-8 -60t8 -60t23 -18z" />
    <glyph glyph-name="onesuperior" unicode="&#xb9;" horiz-adv-x="204" 
d="M83 504q-10 0 -10 9v184h-54q-8 0 -8 11v38q0 6 8 11l76 43h63q9 0 9 -9v-278q0 -9 -9 -9h-75v0z" />
    <glyph glyph-name="twosuperior" unicode="&#xb2;" horiz-adv-x="267" 
d="M30 504q-10 0 -10 9v18l102 123q11 14 15.5 26t4.5 21q0 15 -9.5 22t-21.5 7q-11 0 -21 -5.5t-14 -9.5q-5 -3 -9.5 -3t-8.5 7l-22 36q-5 9 -6 14t10 13q7 5 31.5 16.5t61.5 11.5q44 0 74 -25t30 -69q0 -22 -8 -43t-22 -41l-40 -53h58q10 0 10 -9v-57q0 -9 -10 -9h-195v0z
" />
    <glyph glyph-name="threesuperior" unicode="&#xb3;" horiz-adv-x="256" 
d="M116 494q-20 0 -35.5 3.5t-26.5 8.5t-18 10l-10 7q-12 9 -3 22l23 34q8 11 20 4l10 -6q10 -5 26 -5q18 0 25.5 6.5t7.5 17.5t-8 18t-25 7h-33q-6 1 -9.5 3.5t-3.5 12.5v34q0 17 18 17h28q11 0 19.5 6.5t8.5 17.5q0 22 -29 22q-9 0 -16.5 -3t-13.5 -8q-5 -3 -8.5 -3.5
t-8.5 7.5l-26 35q-5 7 -4 12t5 9q9 7 22 13q11 5 27.5 9.5t37.5 4.5q51 0 80.5 -22.5t29.5 -60.5q0 -28 -16.5 -44.5t-34.5 -25.5q9 -3 19.5 -9t19.5 -15t15 -22t6 -31q0 -21 -10 -37.5t-26.5 -27t-38 -16t-44.5 -5.5z" />
    <glyph glyph-name="fraction" unicode="&#x2044;" horiz-adv-x="104" 
d="M-74 10q-2 -3 -5.5 -6.5t-11.5 -3.5h-55q-11 0 -16.5 8.5t-0.5 18.5l344 663q5 10 17 10h56q11 0 16.5 -8.5t0.5 -18.5l-345 -663v0z" />
    <glyph glyph-name="uni2215" unicode="&#x2215;" horiz-adv-x="104" 
d="M-74 10q-2 -3 -5.5 -6.5t-11.5 -3.5h-55q-11 0 -16.5 8.5t-0.5 18.5l344 663q5 10 17 10h56q11 0 16.5 -8.5t0.5 -18.5l-345 -663v0z" />
    <glyph glyph-name="onehalf" unicode="&#xbd;" horiz-adv-x="635" 
d="M416 690q5 10 17 10h56q11 0 16.5 -8.5t0.5 -18.5l-345 -663q-2 -3 -5.5 -6.5t-11.5 -3.5h-55q-11 0 -16.5 8.5t-0.5 18.5zM91 404q-10 0 -10 9v184h-54q-8 0 -8 11v38q0 6 8 11l76 43h63q9 0 9 -9v-278q0 -9 -9 -9h-75zM369 27l102 123q11 14 15.5 26t4.5 21
q0 15 -9.5 22t-21.5 7q-11 0 -21 -5.5t-14 -9.5q-5 -3 -9.5 -3t-8.5 7l-22 36q-5 9 -6 14t10 13q7 5 31.5 16.5t61.5 11.5q44 0 74 -25t30 -69q0 -22 -8 -43t-22 -41l-40 -53h58q10 0 10 -9v-57q0 -9 -10 -9h-195q-10 0 -10 9v18z" />
    <glyph glyph-name="onethird" unicode="&#x2153;" horiz-adv-x="667" 
d="M447 690q5 10 17 10h56q11 0 16.5 -8.5t0.5 -18.5l-345 -663q-2 -3 -5.5 -6.5t-11.5 -3.5h-55q-11 0 -16.5 8.5t-0.5 18.5zM122 404q-10 0 -10 9v184h-54q-8 0 -8 11v38q0 6 8 11l76 43h63q9 0 9 -9v-278q0 -9 -9 -9h-75zM435 75q8 11 20 4l10 -6q10 -5 26 -5
q18 0 25.5 6.5t7.5 17.5t-8 18t-25 7h-33q-6 1 -9.5 3.5t-3.5 12.5v34q0 17 18 17h28q11 0 19.5 6.5t8.5 17.5q0 22 -29 22q-9 0 -16.5 -3t-13.5 -8q-5 -3 -8.5 -3.5t-8.5 7.5l-26 35q-5 7 -4 12t5 9q9 7 22 13q11 5 27.5 9.5t37.5 4.5q51 0 80.5 -22.5t29.5 -60.5
q0 -28 -16.5 -44.5t-34.5 -25.5q9 -3 19.5 -9t19.5 -15t15 -22t6 -31q0 -21 -10 -37.5t-26.5 -27t-38 -16t-44.5 -5.5q-20 0 -35.5 3.5t-26.5 8.5t-18 10l-10 7q-12 9 -3 22z" />
    <glyph glyph-name="onequarter" unicode="&#xbc;" horiz-adv-x="628" 
d="M416 690q5 10 17 10h56q11 0 16.5 -8.5t0.5 -18.5l-345 -663q-2 -3 -5.5 -6.5t-11.5 -3.5h-55q-11 0 -16.5 8.5t-0.5 18.5zM91 404q-10 0 -10 9v184h-54q-8 0 -8 11v38q0 6 8 11l76 43h63q9 0 9 -9v-278q0 -9 -9 -9h-75zM315 126l159 167q1 2 3 2.5t4 0.5h51q9 0 9 -9
v-163h39q9 0 9 -8v-51q0 -9 -9 -9h-39v-47q0 -9 -9 -9h-68q-10 0 -10 9v47h-130q-9 0 -9 8v62zM455 122v65l-51 -65h51z" />
    <glyph glyph-name="oneeighth" unicode="&#x215b;" horiz-adv-x="667" 
d="M447 690q5 10 17 10h56q11 0 16.5 -8.5t0.5 -18.5l-345 -663q-2 -3 -5.5 -6.5t-11.5 -3.5h-55q-11 0 -16.5 8.5t-0.5 18.5zM122 404q-10 0 -10 9v184h-54q-8 0 -8 11v38q0 6 8 11l76 43h63q9 0 9 -9v-278q0 -9 -9 -9h-75zM388 77q0 19 9 33t20 23.5t20.5 14.5t11.5 5v1
q-7 3 -16 8.5t-17 14t-13.5 20.5t-5.5 27q0 19 9.5 34.5t25.5 26t37 16.5t44 6q24 0 45.5 -6t37.5 -16.5t25.5 -26t9.5 -34.5q0 -30 -18.5 -47.5t-33.5 -22.5v-1q9 -2 20 -7.5t20.5 -14.5t15.5 -22.5t6 -31.5q0 -37 -35 -61.5t-93 -24.5q-57 0 -91 24.5t-34 61.5zM490 210
q0 -10 7.5 -16.5t16.5 -6.5t16 6.5t7 16.5t-7 17t-16 7t-16.5 -7t-7.5 -17zM486 89q0 -12 9 -19.5t20 -7.5q10 0 19 6.5t9 20.5q0 11 -7.5 19.5t-20.5 8.5q-11 0 -20 -8.5t-9 -19.5z" />
    <glyph glyph-name="twothirds" unicode="&#x2154;" horiz-adv-x="667" 
d="M11 404q-10 0 -10 9v18l102 123q11 14 15.5 26t4.5 21q0 15 -9.5 22t-21.5 7q-11 0 -21 -5.5t-14 -9.5q-5 -3 -9.5 -3t-8.5 7l-22 36q-5 9 -6 14t10 13q7 5 31.5 16.5t61.5 11.5q44 0 74 -25t30 -69q0 -22 -8 -43t-22 -41l-40 -53h58q10 0 10 -9v-57q0 -9 -10 -9h-195z
M447 690q5 10 17 10h56q11 0 16.5 -8.5t0.5 -18.5l-345 -663q-2 -3 -5.5 -6.5t-11.5 -3.5h-55q-11 0 -16.5 8.5t-0.5 18.5zM435 75q8 11 20 4l10 -6q10 -5 26 -5q18 0 25.5 6.5t7.5 17.5t-8 18t-25 7h-33q-6 1 -9.5 3.5t-3.5 12.5v34q0 17 18 17h28q11 0 19.5 6.5t8.5 17.5
q0 22 -29 22q-9 0 -16.5 -3t-13.5 -8q-5 -3 -8.5 -3.5t-8.5 7.5l-26 35q-5 7 -4 12t5 9q9 7 22 13q11 5 27.5 9.5t37.5 4.5q51 0 80.5 -22.5t29.5 -60.5q0 -28 -16.5 -44.5t-34.5 -25.5q9 -3 19.5 -9t19.5 -15t15 -22t6 -31q0 -21 -10 -37.5t-26.5 -27t-38 -16t-44.5 -5.5
q-20 0 -35.5 3.5t-26.5 8.5t-18 10l-10 7q-12 9 -3 22z" />
    <glyph glyph-name="threequarters" unicode="&#xbe;" horiz-adv-x="655" 
d="M122 394q-20 0 -35.5 3.5t-26.5 8.5t-18 10l-10 7q-12 9 -3 22l23 34q8 11 20 4l10 -6q10 -5 26 -5q18 0 25.5 6.5t7.5 17.5t-8 18t-25 7h-33q-6 1 -9.5 3.5t-3.5 12.5v34q0 17 18 17h28q11 0 19.5 6.5t8.5 17.5q0 22 -29 22q-9 0 -16.5 -3t-13.5 -8q-5 -3 -8.5 -3.5
t-8.5 7.5l-26 35q-5 7 -4 12t5 9q9 7 22 13q11 5 27.5 9.5t37.5 4.5q51 0 80.5 -22.5t29.5 -60.5q0 -28 -16.5 -44.5t-34.5 -25.5q9 -3 19.5 -9t19.5 -15t15 -22t6 -31q0 -21 -10 -37.5t-26.5 -27t-38 -16t-44.5 -5.5zM443 690q5 10 17 10h56q11 0 16.5 -8.5t0.5 -18.5
l-345 -663q-2 -3 -5.5 -6.5t-11.5 -3.5h-55q-11 0 -16.5 8.5t-0.5 18.5zM342 126l159 167q1 2 3 2.5t4 0.5h51q9 0 9 -9v-163h39q9 0 9 -8v-51q0 -9 -9 -9h-39v-47q0 -9 -9 -9h-68q-10 0 -10 9v47h-130q-9 0 -9 8v62zM482 122v65l-51 -65h51z" />
    <glyph glyph-name="threeeighths" unicode="&#x215c;" horiz-adv-x="691" 
d="M147 394q-20 0 -35.5 3.5t-26.5 8.5t-18 10l-10 7q-12 9 -3 22l23 34q8 11 20 4l10 -6q10 -5 26 -5q18 0 25.5 6.5t7.5 17.5t-8 18t-25 7h-33q-6 1 -9.5 3.5t-3.5 12.5v34q0 17 18 17h28q11 0 19.5 6.5t8.5 17.5q0 22 -29 22q-9 0 -16.5 -3t-13.5 -8q-5 -3 -8.5 -3.5
t-8.5 7.5l-26 35q-5 7 -4 12t5 9q9 7 22 13q11 5 27.5 9.5t37.5 4.5q51 0 80.5 -22.5t29.5 -60.5q0 -28 -16.5 -44.5t-34.5 -25.5q9 -3 19.5 -9t19.5 -15t15 -22t6 -31q0 -21 -10 -37.5t-26.5 -27t-38 -16t-44.5 -5.5zM468 690q5 10 17 10h56q11 0 16.5 -8.5t0.5 -18.5
l-345 -663q-2 -3 -5.5 -6.5t-11.5 -3.5h-55q-11 0 -16.5 8.5t-0.5 18.5zM408 77q0 19 9 33t20 23.5t20.5 14.5t11.5 5v1q-7 3 -16 8.5t-17 14t-13.5 20.5t-5.5 27q0 19 9.5 34.5t25.5 26t37 16.5t44 6q24 0 45.5 -6t37.5 -16.5t25.5 -26t9.5 -34.5q0 -30 -18.5 -47.5
t-33.5 -22.5v-1q9 -2 20 -7.5t20.5 -14.5t15.5 -22.5t6 -31.5q0 -37 -35 -61.5t-93 -24.5q-57 0 -91 24.5t-34 61.5zM510 210q0 -10 7.5 -16.5t16.5 -6.5t16 6.5t7 16.5t-7 17t-16 7t-16.5 -7t-7.5 -17zM506 89q0 -12 9 -19.5t20 -7.5q10 0 19 6.5t9 20.5q0 11 -7.5 19.5
t-20.5 8.5q-11 0 -20 -8.5t-9 -19.5z" />
    <glyph glyph-name="fiveeighths" unicode="&#x215d;" horiz-adv-x="691" 
d="M468 690q5 10 17 10h56q11 0 16.5 -8.5t0.5 -18.5l-345 -663q-2 -3 -5.5 -6.5t-11.5 -3.5h-55q-11 0 -16.5 8.5t-0.5 18.5zM139 394q-38 0 -62.5 13.5t-33.5 24.5q-7 7 -1 15l30 39q8 13 17 4q5 -5 13 -9q7 -4 16.5 -6.5t21.5 -2.5t23.5 7t11.5 21t-10.5 21.5t-27.5 7.5
h-72q-8 0 -12 5t-4 10v147q0 9 10 9h161q10 0 10 -9v-53q0 -9 -10 -9h-96v-29h29q54 0 84 -25.5t30 -73.5t-34.5 -77.5t-93.5 -29.5zM408 77q0 19 9 33t20 23.5t20.5 14.5t11.5 5v1q-7 3 -16 8.5t-17 14t-13.5 20.5t-5.5 27q0 19 9.5 34.5t25.5 26t37 16.5t44 6
q24 0 45.5 -6t37.5 -16.5t25.5 -26t9.5 -34.5q0 -30 -18.5 -47.5t-33.5 -22.5v-1q9 -2 20 -7.5t20.5 -14.5t15.5 -22.5t6 -31.5q0 -37 -35 -61.5t-93 -24.5q-57 0 -91 24.5t-34 61.5zM510 210q0 -10 7.5 -16.5t16.5 -6.5t16 6.5t7 16.5t-7 17t-16 7t-16.5 -7t-7.5 -17z
M506 89q0 -12 9 -19.5t20 -7.5q10 0 19 6.5t9 20.5q0 11 -7.5 19.5t-20.5 8.5q-11 0 -20 -8.5t-9 -19.5z" />
    <glyph glyph-name="seveneighths" unicode="&#x215e;" horiz-adv-x="691" 
d="M468 690q5 10 17 10h56q11 0 16.5 -8.5t0.5 -18.5l-345 -663q-2 -3 -5.5 -6.5t-11.5 -3.5h-55q-11 0 -16.5 8.5t-0.5 18.5zM88 404q-13 0 -13 9v5l108 208h-92q-10 0 -10 8v57q0 9 10 9h198q10 0 10 -9v-16l-127 -262q-5 -9 -16 -9h-68zM408 77q0 19 9 33t20 23.5
t20.5 14.5t11.5 5v1q-7 3 -16 8.5t-17 14t-13.5 20.5t-5.5 27q0 19 9.5 34.5t25.5 26t37 16.5t44 6q24 0 45.5 -6t37.5 -16.5t25.5 -26t9.5 -34.5q0 -30 -18.5 -47.5t-33.5 -22.5v-1q9 -2 20 -7.5t20.5 -14.5t15.5 -22.5t6 -31.5q0 -37 -35 -61.5t-93 -24.5q-57 0 -91 24.5
t-34 61.5zM510 210q0 -10 7.5 -16.5t16.5 -6.5t16 6.5t7 16.5t-7 17t-16 7t-16.5 -7t-7.5 -17zM506 89q0 -12 9 -19.5t20 -7.5q10 0 19 6.5t9 20.5q0 11 -7.5 19.5t-20.5 8.5q-11 0 -20 -8.5t-9 -19.5z" />
    <glyph glyph-name="perthousand" unicode="&#x2030;" horiz-adv-x="986" 
d="M175 441q-28 0 -52.5 10.5t-43 29t-29 43t-10.5 52.5t10.5 52.5t29 43t43 29t52.5 10.5t52.5 -10.5t43 -29t29 -43t10.5 -52.5t-10.5 -52.5t-29 -43t-43 -29t-52.5 -10.5zM457 690q3 5 8 7.5t9 2.5h76q11 0 16.5 -8.5t0.5 -18.5l-345 -663q-2 -3 -7.5 -6.5t-9.5 -3.5h-74
q-11 0 -16.5 8.5t-0.5 18.5zM175 541q14 0 24 10.5t10 24.5t-10 24t-24 10t-24.5 -10t-10.5 -24t10.5 -24.5t24.5 -10.5zM675 125q0 28 10.5 52.5t29 43t43 29t52.5 10.5t53 -10.5t43.5 -29t29 -43t10.5 -52.5t-10.5 -52.5t-29 -43t-43.5 -29t-53 -10.5t-52.5 10.5t-43 29
t-29 43t-10.5 52.5zM375 125q0 28 10.5 52.5t29 43t43 29t52.5 10.5t53 -10.5t43.5 -29t29 -43t10.5 -52.5t-10.5 -52.5t-29 -43t-43.5 -29t-53 -10.5t-52.5 10.5t-43 29t-29 43t-10.5 52.5zM776 125q0 -14 10 -24t24 -10t24.5 10t10.5 24t-10.5 24.5t-24.5 10.5t-24 -10.5
t-10 -24.5zM476 125q0 -14 10 -24t24 -10t24.5 10t10.5 24t-10.5 24.5t-24.5 10.5t-24 -10.5t-10 -24.5z" />
    <glyph glyph-name="minus" unicode="&#x2212;" horiz-adv-x="539" 
d="M69 293q-8 0 -13.5 5.5t-5.5 13.5v70q0 8 5.5 13.5t13.5 5.5h401q8 0 13 -5.5t5 -13.5v-70q0 -8 -5 -13.5t-13 -5.5h-401v0z" />
    <glyph glyph-name="plusminus" unicode="&#xb1;" horiz-adv-x="557" 
d="M244 239q-8 0 -13.5 5t-5.5 13v96h-146q-8 0 -13.5 5.5t-5.5 13.5v70q0 8 5.5 13.5t13.5 5.5h146v147q0 8 5.5 13t13.5 5h70q8 0 13.5 -5t5.5 -13v-147h147q8 0 13 -5.5t5 -13.5v-70q0 -8 -5 -13.5t-13 -5.5h-147v-96q0 -8 -5.5 -13t-13.5 -5h-70zM70 128q0 8 5.5 13.5
t13.5 5.5h374q8 0 13 -5.5t5 -13.5v-70q0 -8 -5 -13.5t-13 -5.5h-374q-8 0 -13.5 5.5t-5.5 13.5v70z" />
    <glyph glyph-name="multiply" unicode="&#xd7;" horiz-adv-x="459" 
d="M50 218q-5 5 -5 13t5 13l103 103l-103 104q-5 5 -5 13t5 13l49 50q5 5 13.5 5t13.5 -5l103 -103l104 104q5 5 13 4.5t13 -5.5l50 -50q5 -5 5.5 -13t-4.5 -13l-104 -104l104 -104q5 -5 4.5 -13t-5.5 -13l-50 -49q-5 -5 -13 -5.5t-13 4.5l-104 104l-103 -103q-5 -5 -13 -5
t-13 5z" />
    <glyph glyph-name="divide" unicode="&#xf7;" horiz-adv-x="494" 
d="M244 471q-31 0 -52.5 22t-21.5 53t21.5 52.5t52.5 21.5t53 -21.5t22 -52.5t-22 -53t-53 -22zM47 292q-8 0 -13.5 5.5t-5.5 13.5v70q0 8 5.5 13.5t13.5 5.5h401q8 0 13 -5.5t5 -13.5v-70q0 -8 -5 -13.5t-13 -5.5h-401zM169 154q0 31 21.5 52.5t52.5 21.5t53 -21.5
t22 -52.5t-22 -53t-53 -22t-52.5 22t-21.5 53z" />
    <glyph glyph-name="notequal" unicode="&#x2260;" horiz-adv-x="477" 
d="M124 48q-7 3 -10 10t0 14l22 48h-67q-8 0 -13.5 5.5t-5.5 13.5v71q0 8 5.5 13.5t13.5 5.5h118l47 102h-165q-8 0 -13.5 5.5t-5.5 13.5v70q0 8 5.5 13.5t13.5 5.5h215l35 74q3 8 10.5 10t14.5 -1l15 -8q8 -2 10.5 -9t-1.5 -15l-24 -51h64q8 0 13.5 -5.5t5.5 -13.5v-70
q0 -8 -5.5 -13.5t-13.5 -5.5h-114l-47 -102h161q8 0 13.5 -5.5t5.5 -13.5v-71q0 -8 -5.5 -13.5t-13.5 -5.5h-211l-33 -72q-3 -7 -10.5 -9t-14.5 1l-15 8v0z" />
    <glyph glyph-name="approxequal" unicode="&#x2248;" horiz-adv-x="477" 
d="M46 350q-3 5 -4 10t3 9q17 23 37 41q17 16 40 29t51 13q25 0 42.5 -11t34.5 -23q14 -8 28 -17.5t31 -9.5t31.5 16t22.5 28q11 12 24 1l44 -40q3 -4 4 -9.5t-3 -10.5q-17 -23 -36 -41q-17 -16 -39.5 -28.5t-49.5 -12.5q-30 0 -47.5 12.5l-37.5 26.5q-12 8 -23.5 14.5
t-25.5 6.5q-8 0 -16.5 -4.5t-16 -11t-14 -14t-10.5 -13.5q-5 -7 -11.5 -7t-11.5 5zM46 154q-3 5 -4 10t3 9q17 23 37 41q17 16 40 29t51 13q25 0 42.5 -11t34.5 -23q14 -8 28 -17.5t31 -9.5t31.5 16t22.5 28q11 12 24 1l44 -40q3 -4 4 -9.5t-3 -10.5q-17 -23 -36 -41
q-17 -16 -39.5 -28.5t-49.5 -12.5q-30 0 -47.5 12.5l-37.5 26.5q-12 8 -23.5 14.5t-25.5 6.5q-8 0 -16.5 -4.5t-16 -11t-14 -14t-10.5 -13.5q-5 -7 -11.5 -7t-11.5 5z" />
    <glyph glyph-name="lessequal" unicode="&#x2264;" horiz-adv-x="458" 
d="M26 383q-4 2 -7 5.5t-3 11.5v15q0 7 3 11t7 6l377 182q11 5 19.5 0.5t8.5 -16.5v-87q0 -10 -8 -14l-208 -88l208 -84q8 -4 8 -14v-87q0 -12 -9 -17t-19 1zM39 39q-8 0 -13.5 5.5t-5.5 13.5v70q0 8 5.5 13.5t13.5 5.5h374q8 0 13 -5.5t5 -13.5v-70q0 -8 -5 -13.5t-13 -5.5
h-374z" />
    <glyph glyph-name="greaterequal" unicode="&#x2265;" horiz-adv-x="458" 
d="M44 208q-10 -6 -19 -1t-9 17v87q0 10 8 14l208 84l-208 88q-8 4 -8 14v87q0 12 8.5 16.5t19.5 -0.5l377 -182q4 -2 7 -6t3 -11v-15q0 -8 -3 -11.5t-7 -5.5zM34 39q-8 0 -13 5.5t-5 13.5v70q0 8 5 13.5t13 5.5h374q8 0 13.5 -5.5t5.5 -13.5v-70q0 -8 -5.5 -13.5
t-13.5 -5.5h-374z" />
    <glyph glyph-name="logicalnot" unicode="&#xac;" horiz-adv-x="549" 
d="M51 293q-8 0 -13.5 5.5t-5.5 13.5v70q0 8 5.5 13.5t13.5 5.5h400q8 0 13.5 -6t5.5 -13v-236q0 -8 -5.5 -13t-13.5 -5h-70q-8 0 -13.5 5t-5.5 13v147h-311v0z" />
    <glyph glyph-name="Delta" unicode="&#x2206;" horiz-adv-x="710" 
d="M334 699q5 11 17 11h10q11 0 17 -11l304 -656q8 -17 2.5 -30t-22.5 -13h-604q-20 0 -30 10.5t1 34.5zM475 145l-121 260h-1l-116 -261z" />
    <glyph glyph-name="uni0394" unicode="&#x394;" horiz-adv-x="710" 
d="M334 699q5 11 17 11h10q11 0 17 -11l304 -656q8 -17 2.5 -30t-22.5 -13h-604q-20 0 -30 10.5t1 34.5zM475 145l-121 260h-1l-116 -261z" />
    <glyph glyph-name="Omega" unicode="&#x2126;" horiz-adv-x="781" 
d="M26 128q0 8 5.5 13.5t13.5 5.5h77q-20 14 -37 38t-29 53t-19 60t-7 60q0 75 28 139.5t77 111.5t114.5 74t140.5 27t140.5 -27t114.5 -74t77 -111.5t28 -139.5q0 -29 -7 -60t-19 -60t-29 -53t-37 -38h77q8 0 13.5 -5.5t5.5 -13.5v-109q0 -8 -5.5 -13.5t-13.5 -5.5h-279
q-8 0 -13.5 5.5t-5.5 13.5v65q0 24 7 31t21 15q63 38 94 98.5t31 120.5q0 41 -16 77.5t-43 64t-63.5 43.5t-77.5 16t-77.5 -16t-63.5 -43.5t-43 -64t-16 -77.5q0 -60 31 -120.5t94 -98.5q14 -8 21 -15t7 -31v-65q0 -8 -5.5 -13.5t-13.5 -5.5h-279q-8 0 -13.5 5.5t-5.5 13.5
v109z" />
    <glyph glyph-name="uni03A9" unicode="&#x3a9;" horiz-adv-x="781" 
d="M26 128q0 8 5.5 13.5t13.5 5.5h77q-20 14 -37 38t-29 53t-19 60t-7 60q0 75 28 139.5t77 111.5t114.5 74t140.5 27t140.5 -27t114.5 -74t77 -111.5t28 -139.5q0 -29 -7 -60t-19 -60t-29 -53t-37 -38h77q8 0 13.5 -5.5t5.5 -13.5v-109q0 -8 -5.5 -13.5t-13.5 -5.5h-279
q-8 0 -13.5 5.5t-5.5 13.5v65q0 24 7 31t21 15q63 38 94 98.5t31 120.5q0 41 -16 77.5t-43 64t-63.5 43.5t-77.5 16t-77.5 -16t-63.5 -43.5t-43 -64t-16 -77.5q0 -60 31 -120.5t94 -98.5q14 -8 21 -15t7 -31v-65q0 -8 -5.5 -13.5t-13.5 -5.5h-279q-8 0 -13.5 5.5t-5.5 13.5
v109z" />
    <glyph glyph-name="mu" unicode="&#xb5;" horiz-adv-x="519" 
d="M199 -281q0 -8 -5.5 -13.5t-13.5 -5.5h-107q-8 0 -13.5 5.5t-5.5 13.5v662q0 8 5.5 13.5t13.5 5.5h107q8 0 13.5 -5.5t5.5 -13.5v-187q2 -29 18.5 -48t45.5 -19t44.5 20.5t15.5 46.5v187q0 12 6.5 15.5t14.5 3.5h102q8 0 13.5 -5.5t5.5 -13.5v-362q0 -8 -5.5 -13.5
t-13.5 -5.5h-47q-7 0 -12 4.5t-7 9.5l-15 37l-21.5 -20t-27 -20t-36.5 -15t-50 -6q-16 0 -31 3v-274z" />
    <glyph glyph-name="uni03BC" unicode="&#x3bc;" horiz-adv-x="519" 
d="M199 -281q0 -8 -5.5 -13.5t-13.5 -5.5h-107q-8 0 -13.5 5.5t-5.5 13.5v662q0 8 5.5 13.5t13.5 5.5h107q8 0 13.5 -5.5t5.5 -13.5v-187q2 -29 18.5 -48t45.5 -19t44.5 20.5t15.5 46.5v187q0 12 6.5 15.5t14.5 3.5h102q8 0 13.5 -5.5t5.5 -13.5v-362q0 -8 -5.5 -13.5
t-13.5 -5.5h-47q-7 0 -12 4.5t-7 9.5l-15 37l-21.5 -20t-27 -20t-36.5 -15t-50 -6q-16 0 -31 3v-274z" />
    <glyph glyph-name="pi" unicode="&#x3c0;" horiz-adv-x="703" 
d="M114 273h-65q-8 0 -13.5 5.5t-5.5 13.5v89q0 19 19 19h577q19 0 19 -19v-89q0 -8 -5.5 -13.5t-13.5 -5.5h-72v-254q0 -8 -5.5 -13.5t-13.5 -5.5h-115q-8 0 -13.5 5.5t-5.5 13.5v254h-134v-254q0 -8 -5.5 -13.5t-13.5 -5.5h-115q-8 0 -13.5 5.5t-5.5 13.5v254z" />
    <glyph glyph-name="degree" unicode="&#xb0;" horiz-adv-x="300" 
d="M150 440q-28 0 -52.5 10.5t-43 29t-29 43t-10.5 52.5t10.5 52.5t29 43t43 29t52.5 10.5t52.5 -10.5t43 -29t29 -43t10.5 -52.5t-10.5 -52.5t-29 -43t-43 -29t-52.5 -10.5zM150 540q14 0 24 10.5t10 24.5t-10 24t-24 10t-24.5 -10t-10.5 -24t10.5 -24.5t24.5 -10.5z" />
    <glyph glyph-name="afii61289" unicode="&#x2113;" horiz-adv-x="505" 
d="M89 156q0 25 3 49q-9 -2 -21 -5.5t-20 -4.5q-13 -3 -15 12l-5 45q-1 5 0 11.5t16 9.5q16 3 31 6.5t30 8.5q4 21 7 40.5t8 40.5q30 163 80 252t129 89q57 0 88 -37.5t31 -101.5q0 -65 -23.5 -118.5t-62 -95.5t-89 -73t-104.5 -52q-4 -19 -6 -37t-2 -37q0 -18 4 -34.5
t12 -29t21.5 -20.5t31.5 -8q72 0 143 43q13 8 18.5 7t10.5 -12l16 -24q7 -12 7 -16t-9 -14l-21.5 -13t-41.5 -20.5t-56.5 -18.5t-66.5 -8q-38 0 -65 14t-44.5 37t-26 53t-8.5 62zM189 310q40 18 74.5 43.5t59.5 58.5t39 72.5t14 86.5q0 30 -12 46.5t-32 16.5
q-45 0 -79 -74.5t-56 -203.5z" />
    <glyph glyph-name="estimated" unicode="&#x212e;" horiz-adv-x="823" 
d="M153 172q37 -51 99 -80t131 -29q51 0 102 21t94 58q8 8 15 10t16 -7l24 -26q12 -13 -7 -32q-52 -49 -114 -73t-130 -24q-76 0 -142.5 27.5t-115.5 76t-77 114t-28 141.5t28 142t77 114.5t115.5 76.5t142.5 28q75 0 141 -28.5t115 -78t77.5 -116t29.5 -142.5
q0 -19 -5.5 -25.5t-20.5 -6.5h-567v-141zM614 384v142q-40 51 -100 80.5t-131 29.5q-73 0 -132 -28t-98 -80v-144h461z" />
    <glyph glyph-name="eng" unicode="&#x14b;" horiz-adv-x="528" 
d="M54 381q0 8 5.5 13.5t13.5 5.5h47q5 0 10.5 -3.5t7.5 -8.5l16 -40q8 9 21 20t30.5 20t40 15.5t49.5 6.5q46 0 81.5 -16.5t59.5 -45t36.5 -66.5t12.5 -81v-293q0 -53 -15.5 -93.5t-42.5 -68t-64.5 -42t-80.5 -14.5q-20 0 -39 3.5t-35.5 9.5t-29 12.5t-18.5 12.5
q-5 4 -6 11t2 12l42 83q2 5 9.5 7.5t13.5 -0.5q10 -5 23.5 -10.5t28.5 -5.5q34 0 50.5 23t16.5 60v293q0 30 -17 50.5t-51 20.5q-30 0 -53 -17.5t-23 -48.5v-187q0 -7 -3.5 -13t-14.5 -6h-105q-8 0 -13.5 5.5t-5.5 13.5v362z" />
    <glyph glyph-name="Eng" unicode="&#x14a;" horiz-adv-x="773" 
d="M85 692q0 8 5.5 13t13.5 5h25l399 -390h1v361q0 8 5.5 13.5t13.5 5.5h120q8 0 13.5 -5.5t5.5 -13.5l-1 -773q0 -53 -15.5 -93.5t-42.5 -68t-64.5 -42t-80.5 -14.5q-20 0 -39 3.5t-35.5 9.5t-29 12.5t-18.5 12.5q-5 4 -6 11t2 12l42 83q2 5 9.5 7.5t13.5 -0.5
q10 -5 23.5 -10.5t28.5 -5.5q34 0 47.5 23t13.5 60v194l-291 290h-1v-373q0 -8 -5.5 -13.5t-13.5 -5.5h-119q-8 0 -13.5 5.5t-5.5 13.5z" />
    <glyph glyph-name="infinity" unicode="&#x221e;" horiz-adv-x="586" 
d="M190 156q-29 0 -54.5 11t-44.5 30t-30 44.5t-11 54.5t11 54.5t30 44.5t44.5 30t54.5 11q30 0 56.5 -15t45.5 -35q20 20 46.5 35t56.5 15q29 0 55 -11t45 -30t30 -44.5t11 -54.5t-11 -54.5t-30 -44.5t-45 -30t-55 -11q-30 0 -56.5 14.5t-46.5 35.5q-19 -21 -45.5 -35.5
t-56.5 -14.5zM352 296q0 -16 11 -27t27 -11q17 0 28 11t11 27q0 17 -11 28t-28 11q-16 0 -27 -11t-11 -28zM195 258q17 0 28 11t11 27q0 17 -11 28t-28 11q-16 0 -27 -11t-11 -28q0 -16 11 -27t27 -11z" />
    <glyph glyph-name="partialdiff" unicode="&#x2202;" horiz-adv-x="570" 
d="M50 219q0 55 18 96t46.5 68t64 40t70.5 13q20 0 47.5 -6t47.5 -14q-8 39 -33.5 67t-57 48t-62 31.5t-48.5 17.5q-15 5 -18.5 12.5t-0.5 16.5l29 77q4 11 12 15.5t19 0.5q21 -7 54.5 -21.5t71 -39t75 -59.5t67.5 -81.5t49 -106t19 -132.5q0 -59 -16 -108.5t-46.5 -86
t-75.5 -57t-103 -20.5q-47 0 -88.5 18t-73 49t-49.5 73t-18 89zM185 224q0 -20 7.5 -37t20.5 -30.5t30.5 -21t37.5 -7.5t37.5 7.5t30.5 21t20.5 30.5t7.5 37t-7.5 37.5t-20.5 31t-30.5 21t-37.5 7.5t-37.5 -7.5t-30.5 -21t-20.5 -31t-7.5 -37.5z" />
    <glyph glyph-name="integral" unicode="&#x222b;" horiz-adv-x="393" 
d="M111 493q0 51 15.5 91.5t43.5 68.5t67.5 42.5t87.5 14.5q44 0 71.5 -14t39.5 -24q5 -5 6.5 -12t-2.5 -13l-48 -79q-9 -14 -23 -7q-8 2 -15 5q-6 2 -13.5 4t-13.5 2q-27 0 -45 -19t-18 -61v-585q0 -51 -16.5 -91.5t-45 -68.5t-67.5 -42.5t-85 -14.5q-44 0 -71.5 14
t-39.5 24q-5 5 -6.5 12t2.5 13l48 79q9 14 23 7q8 -3 15 -6q13 -5 27 -5q26 0 44.5 19t18.5 61v585z" />
    <glyph glyph-name="radical" unicode="&#x221a;" horiz-adv-x="696" 
d="M68 374q-5 10 0.5 18t16.5 8h113q6 0 10.5 -3.5t6.5 -7.5l47 -106h6l185 406q2 4 6.5 7.5t10.5 3.5h205q19 0 19 -19v-89q0 -8 -5.5 -13.5t-13.5 -5.5h-122l-267 -572q-2 -5 -7.5 -8t-9.5 -3h-10q-4 0 -9.5 3t-7.5 8z" />
    <glyph glyph-name="summation" unicode="&#x2211;" horiz-adv-x="552" 
d="M50 68l265 285l-265 287v41q0 8 5.5 13.5t13.5 5.5h414q8 0 13.5 -5.5t5.5 -13.5v-109q0 -8 -5.5 -13.5t-13.5 -5.5h-184l135 -124q5 -5 12 -14.5t7 -26.5v-69q0 -14 -7 -23t-12 -14l-135 -135h184q8 0 13.5 -5.5t5.5 -13.5v-109q0 -8 -5.5 -13.5t-13.5 -5.5h-414
q-8 0 -13.5 5.5t-5.5 13.5v49z" />
    </font>
</defs>
</svg>
